<svg xmlns="http://www.w3.org/2000/svg" width="700.002" height="400" viewBox="0 0 700.002 400">
  <g id="_700x400" data-name="700x400" transform="translate(22.998 37.724)">
    <rect id="Rectangle_3177" data-name="Rectangle 3177" width="700" height="400" transform="translate(-22.998 -37.724)" fill="none"/>
    <g id="Group_951" data-name="Group 951" transform="translate(8.003 0)">
      <g id="Group_933" data-name="Group 933" transform="translate(13.425 67.525)">
        <path id="Path_7071" data-name="Path 7071" d="M87.917,379.386c-3.44,68.649,42.4,103.9,108.506,112.268,74.16,9.393,150.305-3.276,224.151-9.72,27.818-2.428,55.729-4.25,83.672-4.1,26.331.145,54.837,7.4,80.7,3.385,64.661-10.042,97.984-76.858,87.906-135.129-6.247-36.133-29.711-70.665-71.238-68.368-29.177,1.618-55.044,14.3-82.917,21.162A203.974,203.974,0,0,1,407,294.707c-17.978-5.887-35.124-14.238-52.619-21.549-34.846-14.543-71.7-25.035-109.221-25.614s-75.87,9.278-106.2,32.36c-31.989,24.34-49.119,61.166-51.039,99.484Z" transform="translate(-77.226 -247.519)" fill="none" stroke="#f0f0f0" stroke-width="4.26"/>
        <path id="Path_7072" data-name="Path 7072" d="M632.862,459.541c3.424,67.817-42.173,102.635-107.939,110.907-73.772,9.278-149.52-3.238-222.981-9.6-27.673-2.4-55.437-4.2-83.236-4.048-26.192.142-54.55,7.314-80.281,3.345-64.322-9.919-97.471-75.925-87.448-133.49C55.661,399.755,66,370,89.243,353.673c23.38-16.426,50.573-12.224,76.2-5.093,46.674,12.988,97.531,37.361,146.985,27.824,28.345-5.467,53.044-21.516,79.962-31.122,26.839-9.576,55.513-15.542,84.046-15.986,37.317-.581,75.472,9.166,105.647,31.967,31.823,24.045,48.862,60.424,50.775,98.278Z" transform="translate(-49.212 -306.968)" fill="#f0f0f0"/>
      </g>
      <g id="Group_937" data-name="Group 937" transform="translate(288.999 55.774)">
        <g id="Group_934" data-name="Group 934">
          <path id="Path_7073" data-name="Path 7073" d="M1868.3,980.641s-25.707,18.128-55.235,2.42l27.619-15.411,27.619,12.991Z" transform="translate(-1607.446 -759.443)" fill="#6f3428"/>
          <path id="Path_7074" data-name="Path 7074" d="M1271.926,571.14s-25.011,46.906-17.181,60.762l28.478-15.809-11.3-44.95Z" transform="translate(-1200.339 -471.104)" fill="#6f3428"/>
          <path id="Path_7075" data-name="Path 7075" d="M1120.177,352.1a86.819,86.819,0,0,1-9.038-7.83,131.305,131.305,0,0,1-15.727-19.219v-.011c-3.211-4.7-6.212-9.608-8.992-14.576a304.514,304.514,0,0,1-18.788-41.044c-4.665-12.391-7.377-21.579-8.1-23.685a2.259,2.259,0,0,0-.175-.442l13.528-38.845c6.539-10.47,10.2,23.51,10.2,23.51,1.8-1.058,3.991-4.166,5.282-5.841,1.454-1.9,2.57,1.1,2.769,2.174,1.129,6.247-3.9,18.125-3.9,18.125L1119.5,291.7a65.311,65.311,0,0,0,6.586,8.154,63.324,63.324,0,0,0,4.861,4.629c2.862,12.156,2.57,35.6-10.773,47.616Z" transform="translate(-1059.36 -204.447)" fill="#f9b384"/>
          <path id="Path_7076" data-name="Path 7076" d="M1258.2,617.694a86.828,86.828,0,0,1-9.038-7.83c10.124-11.6,17.869-30.863,19.811-39.786,1.536,1.629-1.7-1.454,0,0C1271.833,582.235,1271.541,605.677,1258.2,617.694Z" transform="translate(-1197.381 -470.039)" fill="#e28b6d" opacity="0.6"/>
          <path id="Path_7077" data-name="Path 7077" d="M1465.232,692.3c-17.623-3.432-31.515-3.211-43.243-.884a86.005,86.005,0,0,0-12,3.3l-3.549,12.715-7,25.139-4.548,16.333-4.141,14.833-2.327,8.364H1263.412l19.776-128.945L1258.78,631.9a52.071,52.071,0,0,0,4.351-8.05c7.409-16.693,11.39-42,12.833-52.712a64.086,64.086,0,0,0,24.173,13.054c10.645,3.036,23.475,5.666,35.481,5.385.42-.011.827-.025,1.233-.035,27.769-1.083,40.157,7.352,40.157,7.352,6.283,1.244,22.662,7.538,36.96,13.831,6.3,2.758,12.2,5.527,16.671,7.851a47.168,47.168,0,0,1,23.952,30.573l10.634,43.147Z" transform="translate(-1204.377 -471.104)" fill="#ee6f57"/>
          <path id="Path_7078" data-name="Path 7078" d="M1825.065,948.869a86.018,86.018,0,0,0-12,3.3l7.527-27,4.466,23.7Z" transform="translate(-1607.453 -728.552)" fill="#ae5140" opacity="0.6"/>
          <path id="Path_7079" data-name="Path 7079" d="M1160.161,592.83c-3.211-4.7-5.726-8.945-11.761-19.656C1157.866,569.933,1163.524,583.884,1160.161,592.83Z" transform="translate(-1124.109 -472.235)" fill="#ee6f57" opacity="0.3"/>
          <path id="Path_7080" data-name="Path 7080" d="M1437.621,1052.913l-8.362,30.006-4.548,16.333-112.181,8.55-12.751-22.313c82.016-1.689,116.333-13.378,137.841-32.579Z" transform="translate(-1234.192 -821.444)" fill="#ae5140" opacity="0.6"/>
          <path id="Path_7081" data-name="Path 7081" d="M1068.087,344.834c-4.665-12.391-7.377-21.579-8.1-23.685l20.99-13C1081.782,319.982,1072.424,336.844,1068.087,344.834Z" transform="translate(-1059.818 -279.859)" fill="#e28b6d" opacity="0.6"/>
          <path id="Path_7082" data-name="Path 7082" d="M1573.919,745.32a21.441,21.441,0,0,0,7.314,10.9,27.049,27.049,0,0,0,12,5.322,30.3,30.3,0,0,0,13.19-.565,28.49,28.49,0,0,0,6.22-2.447,33.219,33.219,0,0,0,5.644-3.727l.622.663a28.757,28.757,0,0,1-5.453,4.474,30.249,30.249,0,0,1-6.457,2.987,29.18,29.18,0,0,1-14.18.895,26.69,26.69,0,0,1-12.852-6.1,22.526,22.526,0,0,1-4.564-5.522,19.852,19.852,0,0,1-2.373-6.689l.889-.194Z" transform="translate(-1432.898 -597.766)" fill="#ae5140"/>
        </g>
        <g id="Group_936" data-name="Group 936" transform="translate(140.575 29.196)">
          <path id="Path_7083" data-name="Path 7083" d="M1647.949,582.41l-3.478,27.188a19.956,19.956,0,0,1-39.751-2.488,20.7,20.7,0,0,1,.245-3.154l.628-3.977,2.455-15.506,13.82-.709,26.083-1.35Z" transform="translate(-1596.517 -508.495)" fill="#f9b384"/>
          <path id="Path_7084" data-name="Path 7084" d="M1585.76,340.589c.387-4.008,2.261-8.784,4.4-13.117a28.032,28.032,0,0,1,21.126-15.345c13.728-1.978,31.474-.049,41.139,13.133,10.9,14.862,1.841,44.579-9.84,47.114S1585.76,340.589,1585.76,340.589Z" transform="translate(-1582.729 -311.466)" fill="#102048"/>
          <path id="Path_7085" data-name="Path 7085" d="M1635.983,592.981c-4.665,4.42-15.413,14.762-30.363,14.565l3.083-19.487,13.82-.709,13.46,5.631Z" transform="translate(-1597.171 -512.087)" fill="#e28b6d"/>
          <path id="Path_7086" data-name="Path 7086" d="M1633.356,384.365l-2.081,10.83-.513,2.652-2.049,10.656-1.176,6.108-1.454,7.538-7.109,4.269a31.539,31.539,0,0,1-5.513,2.712.011.011,0,0,1-.011.011,52.236,52.236,0,0,1-26.129,2.979,11.181,11.181,0,0,1-2.3-.546c-5.492-1.874-8.307-7.655-9.54-14.857a78.371,78.371,0,0,1-.641-17.206,183.636,183.636,0,0,1,2.837-22.149c12.227-10.923,28.92-12.912,41.3-15.332l14.38,22.337Z" transform="translate(-1574.651 -348.236)" fill="#f9b384"/>
          <path id="Path_7087" data-name="Path 7087" d="M1585.76,361.237c19.476-15.329,45.711.2,45.711.2s-4.013,24.143,3.743,22.152,15.626-18.133,15.626-18.133l-17.751-25.595-38.834,6.689Z" transform="translate(-1582.729 -332.114)" fill="#102048"/>
          <path id="Path_7088" data-name="Path 7088" d="M1762.684,485.532c3.817-6.7,11.245-8.85,15.236-3.767s4.146,21.074-15.49,17.621Z" transform="translate(-1711.203 -433.264)" fill="#f9b384"/>
          <g id="Group_935" data-name="Group 935" transform="translate(0.003 37.607)">
            <path id="Path_7089" data-name="Path 7089" d="M1625.664,482.843c-1.263,3.416-3.219,6.457-4.5,9.66-.147.387-.336.832-.428,1.173a1.911,1.911,0,0,0-.1.919,1.115,1.115,0,0,0,.352.682,3.138,3.138,0,0,0,.895.529,20.236,20.236,0,0,0,5.044.876l.016.682a13.17,13.17,0,0,1-5.576-.115,4.139,4.139,0,0,1-1.449-.742,2.746,2.746,0,0,1-.955-1.591,3.6,3.6,0,0,1,.112-1.721,10.61,10.61,0,0,1,.48-1.345c1.432-3.437,3.56-6.332,5.494-9.311l.611.306Z" transform="translate(-1606.835 -473.477)" fill="#e28b6d"/>
            <path id="Path_7090" data-name="Path 7090" d="M1680.042,476.709c-.478,1.61-1.79,2.643-2.933,2.305s-1.683-1.918-1.208-3.53,1.79-2.643,2.933-2.305S1680.517,475.1,1680.042,476.709Z" transform="translate(-1648.157 -466.623)" fill="#102048"/>
            <ellipse id="Ellipse_87" data-name="Ellipse 87" cx="3.042" cy="2.158" rx="3.042" ry="2.158" transform="translate(6.2 10.799) rotate(-73.52)" fill="#102048"/>
            <path id="Path_7091" data-name="Path 7091" d="M1664.87,455.9a10.78,10.78,0,0,1,3.456-2.226,8.645,8.645,0,0,1,4.231-.567,8.54,8.54,0,0,1,3.967,1.582,10.687,10.687,0,0,1,2.8,3.012l-.513.45a24.456,24.456,0,0,0-3.113-2.169,9.458,9.458,0,0,0-3.358-1.151,9.288,9.288,0,0,0-3.547.259,20.5,20.5,0,0,0-3.536,1.372l-.387-.562Z" transform="translate(-1640.26 -452.031)" fill="#102048"/>
            <path id="Path_7092" data-name="Path 7092" d="M1602.674,453.286a4.718,4.718,0,0,0-4.092-2.232,5.877,5.877,0,0,0-2.354.524,12.571,12.571,0,0,0-2.256,1.375l-.532-.426a5.89,5.89,0,0,1,2.054-2.294,5.567,5.567,0,0,1,3.094-.914,5.162,5.162,0,0,1,3.1,1.039,4.083,4.083,0,0,1,1.634,2.717l-.649.213Z" transform="translate(-1588.317 -449.319)" fill="#102048"/>
            <path id="Path_7093" data-name="Path 7093" d="M1616.49,555.32l12.661.267s-7.019,9.521-12.173.66l-.486-.928Z" transform="translate(-1605.079 -526.402)" fill="#fff"/>
            <path id="Path_7094" data-name="Path 7094" d="M1774.48,502.012a9.6,9.6,0,0,1,.592-3.249,7.1,7.1,0,0,1,1.915-2.9,4.9,4.9,0,0,1,3.418-1.269,5.1,5.1,0,0,1,3.181,1.334l-.341.589a6.987,6.987,0,0,0-2.807-.39,4.271,4.271,0,0,0-2.305,1.042,7.977,7.977,0,0,0-1.7,2.21c-.475.859-.862,1.792-1.277,2.761l-.671-.128Z" transform="translate(-1719.968 -482.242)" fill="#e28b6d"/>
            <circle id="Ellipse_88" data-name="Ellipse 88" cx="8.918" cy="8.918" r="8.918" transform="translate(29.815 14.645)" fill="#ee6f57" opacity="0.3"/>
            <path id="Path_7095" data-name="Path 7095" d="M1581.746,508.119a8.951,8.951,0,0,1-6.258,8.517,78.371,78.371,0,0,1-.641-17.206A8.92,8.92,0,0,1,1581.746,508.119Z" transform="translate(-1574.661 -485.759)" fill="#ee6f57" opacity="0.3"/>
          </g>
        </g>
      </g>
      <g id="Group_939" data-name="Group 939" transform="translate(154.921 52.44)">
        <path id="Path_7096" data-name="Path 7096" d="M942.9,395.253s25.39,12.429,20.684,33.048L946.79,433,942.9,395.25Z" transform="translate(-840.592 -339.863)" fill="#102048"/>
        <path id="Path_7097" data-name="Path 7097" d="M942.9,247.613c2.725-2.684,16.7-18.123,16.21-37.421-.371-14.633,6.119-8.023,6.954,2.073,0,0,3.568-20.651,13.406-18.559l-2.892,3.958s3.729-6.995,6.741-5.123.284,7.854.284,7.854,1.4-5.189,3.986-5.584,4.949,7.734-.824,28.945c0,0,6.255-6.2,8.724-7.248s2.305,15.182-15.225,32.453-29.93,30.631-29.93,30.631L942.9,247.608Z" transform="translate(-840.592 -192.224)" fill="#f9b384"/>
        <path id="Path_7098" data-name="Path 7098" d="M567.88,479.865c.617.952,102.308-84.605,102.308-84.605l20.684,33.048-103.8,122.231Z" transform="translate(-567.88 -339.87)" fill="#708cd5"/>
        <g id="Group_938" data-name="Group 938" transform="translate(129.078 1.344)">
          <path id="Path_7099" data-name="Path 7099" d="M1051.009,197.431c-1.211,1.869-2.333,3.811-3.364,5.783a64.333,64.333,0,0,0-2.78,6.067,49.987,49.987,0,0,0-2.1,6.318l-.417,1.615-.322,1.634c-.276,1.086-.333,2.2-.54,3.3l-.453-.025a32.084,32.084,0,0,1,.745-6.763,41.341,41.341,0,0,1,2.021-6.509,49.694,49.694,0,0,1,2.99-6.114,39.832,39.832,0,0,1,3.866-5.59l.36.278Z" transform="translate(-1041.03 -197.15)" fill="#e28b6d"/>
          <path id="Path_7100" data-name="Path 7100" d="M1077.52,222.095c-.338,1.844-.737,3.675-1.143,5.5s-.865,3.639-1.282,5.464l-1.386,5.437c-.488,1.806-.971,3.612-1.514,5.407l-.445-.1c.243-1.866.6-3.707.969-5.546.387-1.833.813-3.658,1.255-5.478.477-1.811.922-3.631,1.448-5.429s1.048-3.6,1.656-5.374l.439.115Z" transform="translate(-1063.369 -215.206)" fill="#e28b6d"/>
          <path id="Path_7101" data-name="Path 7101" d="M1086.251,204.79a76.379,76.379,0,0,1-.565,19.11c-.259,1.58-.532,3.159-.911,4.717-.18.78-.374,1.558-.6,2.33l-.161.581-.074.27a.178.178,0,0,0-.022-.134.192.192,0,0,0-.265-.052l.409-.36q1.788-1.584,3.615-3.129l1.85-1.525c.327-.259.6-.48.985-.761a1.458,1.458,0,0,1,2.248.974l.117.619c.044.415.115.829.12,1.241a10.489,10.489,0,0,1,.014,1.239,10.84,10.84,0,0,1-.079,1.228,22.338,22.338,0,0,1-1.021,4.766,40.127,40.127,0,0,1-4.138,8.705,73.463,73.463,0,0,1-5.666,7.74c-1.026,1.222-2.122,2.384-3.178,3.579l-3.336,3.424-.325-.319,3.192-3.527c1.007-1.225,2.049-2.417,3.02-3.667a72.531,72.531,0,0,0,5.432-7.75,41.79,41.79,0,0,0,3.945-8.512,21.093,21.093,0,0,0,.941-4.542,10.119,10.119,0,0,0,.065-1.149,9.408,9.408,0,0,0-.019-1.143c-.005-.382-.076-.753-.115-1.129l-.106-.551c-.036-.177-.041-.158-.1-.226a.319.319,0,0,0-.387-.035l-.9.693-1.839,1.495c-1.217,1.012-2.42,2.046-3.615,3.088l-.491.423a.907.907,0,0,1-1.3-.259.918.918,0,0,1-.1-.707l.085-.306.161-.567c.224-.753.42-1.517.6-2.283.376-1.53.685-3.077.969-4.63a86.486,86.486,0,0,0,1.069-9.417,69.644,69.644,0,0,0,.022-9.485l.453-.046Z" transform="translate(-1065.929 -202.706)" fill="#e28b6d"/>
        </g>
      </g>
      <g id="Group_941" data-name="Group 941" transform="translate(58.179 108.326)">
        <g id="Group_940" data-name="Group 940" transform="translate(0 154.782)">
          <path id="Path_7102" data-name="Path 7102" d="M268.941,968.07s-35.135-13.859-49.482,12.656c-18.041,33.34,9.068,72.515,9.068,72.515h47.687Z" transform="translate(-213.265 -964.45)" fill="#fbc343"/>
          <path id="Path_7103" data-name="Path 7103" d="M267.5,1016.907a18.865,18.865,0,0,0-2.346,3.066,25.472,25.472,0,0,0-1.784,3.437,39.482,39.482,0,0,0-2.36,7.388,59.927,59.927,0,0,0-1.2,15.468,74.9,74.9,0,0,0,2.393,15.373,89.823,89.823,0,0,0,5.342,14.672l-.406.2c-.595-1.17-1.225-2.327-1.757-3.527-.273-.6-.567-1.187-.818-1.8l-.772-1.817c-.966-2.447-1.836-4.935-2.57-7.469a68.529,68.529,0,0,1-2.57-15.588,56.286,56.286,0,0,1,1.4-15.744,39.032,39.032,0,0,1,2.6-7.491,26.051,26.051,0,0,1,1.967-3.456,17.641,17.641,0,0,1,2.562-3.047l.316.327Z" transform="translate(-246.224 -1002.359)" fill="#102048"/>
        </g>
        <path id="Path_7104" data-name="Path 7104" d="M451.76,439.208c11.521,7.03,19.487,2.851,21.814-4.739s10.833-36.177-24.722-31.569c0,0-43.57-17.569-62.009,8.351-16.265,22.864-1.342,38.67-26.195,57.63-17.329,13.22-36.976,36.447,1.994,76.168l42.269-11.643Z" transform="translate(-305.455 -397.082)" fill="#ae5140"/>
        <path id="Path_7105" data-name="Path 7105" d="M641.286,673.01c.862,4.024,10.184,14.44,13.916,18.346,11.278,11.813,13.768,33.97-18.39,40.744L618.72,689.957l22.567-16.944Z" transform="translate(-508.109 -597.735)" fill="#6f3428"/>
        <path id="Path_7106" data-name="Path 7106" d="M593.514,650.618l-3.8,17.509L583.8,695.372l-32.98-6.97,7.759-53.432,33.632,15.067Z" transform="translate(-458.733 -570.073)" fill="#f9b384"/>
        <path id="Path_7107" data-name="Path 7107" d="M781.7,565.44s9.518,10.672,9.183,13.387-9.183,7.584-9.183,7.584Z" transform="translate(-626.627 -519.511)" fill="#e28b6d"/>
        <path id="Path_7108" data-name="Path 7108" d="M650.417,689.014l-3.8,17.509c-10.143-5.4-17.544-18.753-17.544-18.753l20.043.663,1.3.581Z" transform="translate(-515.636 -608.468)" fill="#e28b6d"/>
        <path id="Path_7109" data-name="Path 7109" d="M628.443,505.051c-1.337,10.146-4.711,17.94-11.924,18.635-19.939,1.931-48.639-20.406-48.639-20.406l1.547-40.9L591.112,449l35.1,6.515c.42,4.619,2.57,18.742,2.919,32.947A109.551,109.551,0,0,1,628.443,505.051Z" transform="translate(-471.139 -434.836)" fill="#f9b384"/>
        <path id="Path_7110" data-name="Path 7110" d="M606.132,446.819l-4.327,3.331c-22.558-17.6-17.882,7.756-19.975,15.875s-12.786,5.98-21.126.734l-1.49,11.365-25.071.791-1.454-31.771,25-19.544,46.279,9.027Z" transform="translate(-445.549 -419.274)" fill="#ae5140"/>
        <path id="Path_7111" data-name="Path 7111" d="M530.087,669.146c12.314-6.6,8.823-23.849,4.029-29.75s-25.164-15.8-27.633-34.382c-1.375-10.334,9.074-22.534,9.074-22.534L494.365,571.11,472.65,605.252l16.385,58.634,41.055,5.257Z" transform="translate(-401.888 -523.634)" fill="#ae5140"/>
        <path id="Path_7112" data-name="Path 7112" d="M461.879,928.568l-103.364.071C354,862.457,370.5,828.615,384.76,811.993a41.047,41.047,0,0,1,36.226-13.959c11.9,1.465,22.231,7.12,32.7,31.76l-48.931,22.755,31.411,55.306a36.377,36.377,0,0,0,13.239,13.425l12.47,7.295Z" transform="translate(-318.338 -688.426)" fill="#708cd5"/>
        <path id="Path_7113" data-name="Path 7113" d="M530.05,998.68s15.381,61.559,21.08,69.661c5.934,8.435,18.674,6.315,40.88,6.365h0l-28.053-62.494L530.05,998.683" transform="translate(-443.629 -834.56)" fill="#1f3c88"/>
        <path id="Path_7114" data-name="Path 7114" d="M655.533,997.317l-4.444,16.357-59.079.376h-4.84l-12.47-7.295a36.4,36.4,0,0,1-13.239-13.425L530.05,938.025l48.931-22.755c5.257,12.342,10.538,29.469,16.066,53.2a10.431,10.431,0,0,0,5.98,7.188Z" transform="translate(-443.629 -773.905)" fill="#708cd5"/>
        <path id="Path_7115" data-name="Path 7115" d="M610.688,564.6c-1.776-9.857-13.471-11.161-15.506-4.5s-1.539,18.1,13.149,17.424l2.357-12.92Z" transform="translate(-490.36 -512.62)" fill="#f9b384"/>
        <path id="Path_7116" data-name="Path 7116" d="M615.8,575.051l-1.831-2.09a8.783,8.783,0,0,0-1.893-1.65,1.714,1.714,0,0,0-1.811-.153,7.469,7.469,0,0,0-1.858,1.7l-.611-.306a4.788,4.788,0,0,1,1.64-2.684,2.9,2.9,0,0,1,1.784-.6,3.6,3.6,0,0,1,1.735.543,7.033,7.033,0,0,1,2.191,2.237,10.539,10.539,0,0,1,1.249,2.671l-.6.33Z" transform="translate(-500.168 -522.296)" fill="#e28b6d"/>
        <path id="Path_7117" data-name="Path 7117" d="M761.648,612.649c-.5.1-9.878-2.586-9.878-11.42a8.968,8.968,0,0,1,8.836-8.73,7.9,7.9,0,0,1,2.245.314C762.99,598.537,762.87,607.111,761.648,612.649Z" transform="translate(-604.862 -539.189)" fill="#ee6f57" opacity="0.2"/>
      </g>
      <g id="Group_942" data-name="Group 942" transform="translate(262.393 249.059)">
        <path id="Path_7118" data-name="Path 7118" d="M1084.8,1012.994H961.84L985.067,912.95h122.959Z" transform="translate(-961.837 -912.95)" fill="#0037b4"/>
        <path id="Path_7119" data-name="Path 7119" d="M1084.789,1012.994l23.227-100.044c-35.146,81.329-87.369,90.343-146.186,100.044" transform="translate(-961.83 -912.95)" fill="#0d2f7d" opacity="0.6"/>
        <ellipse id="Ellipse_89" data-name="Ellipse 89" cx="8.765" cy="7.377" rx="8.765" ry="7.377" transform="translate(62.904 55.252) rotate(-67.25)" fill="#fff"/>
      </g>
      <g id="Group_943" data-name="Group 943" transform="translate(365.92 274.368)">
        <path id="Path_7120" data-name="Path 7120" d="M1513.156,1006.486l-.371,10.167-1.675,45.567v.057a23.187,23.187,0,0,1-9.1,17.509h-51.233l-107,.36c-1.907,0-3.863-4.444-1.037-6.643,6.247-4.886,16.03-10.26,22.837-14.611a19.049,19.049,0,0,1,12.658-2.873c7.363.941,17.986,4.676,31.2.78a53.356,53.356,0,0,1,6.968-1.558l43.068-6.618,16.949-2.605.477-28.71.15-8.689c1.618-.431,3.268-.813,4.968-1.151a101,101,0,0,1,31.144-.977Z" transform="translate(-1341.32 -1005.74)" fill="#f9b384"/>
        <path id="Path_7121" data-name="Path 7121" d="M1874.949,1006.472l-.371,10.167c-6.258-2.2-30.434-9.074-35.738-8.04h0c1.618-.431,3.268-.813,4.968-1.151a101.006,101.006,0,0,1,31.144-.977Z" transform="translate(-1703.114 -1005.726)" fill="#e28b6d" opacity="0.6"/>
        <path id="Path_7122" data-name="Path 7122" d="M1897.944,1211.529v.057a23.187,23.187,0,0,1-9.1,17.509H1873.28c2.723-14.972,14.066-19.626,24.662-17.566Z" transform="translate(-1728.158 -1155.049)" fill="#ee6f57" opacity="0.3"/>
        <path id="Path_7123" data-name="Path 7123" d="M1812.673,1150.923a22.213,22.213,0,0,1,5.71-1.585,22.9,22.9,0,0,1,5.969-.082,23.5,23.5,0,0,1,5.805,1.372,19.578,19.578,0,0,1,5.23,2.837l-.376.567a36.875,36.875,0,0,0-5.331-1.95,33.379,33.379,0,0,0-5.524-1.1,30.254,30.254,0,0,0-5.625-.164,41.136,41.136,0,0,0-5.65.753l-.21-.649Z" transform="translate(-1684.083 -1109.987)" fill="#e28b6d"/>
      </g>
      <g id="Group_944" data-name="Group 944" transform="translate(-29.005 348.516)">
        <rect id="Rectangle_3176" data-name="Rectangle 3176" width="700" height="9" transform="translate(-1.994)" fill="#d3dfff"/>
        <line id="Line_137" data-name="Line 137" x2="699.5" transform="translate(-1.494 -0.975)" fill="none" stroke="#0037b4" stroke-width="2"/>
      </g>
      <path id="Path_7124" data-name="Path 7124" d="M93.921,285.345a47.311,47.311,0,1,0-20.469,48.161l16.382,7.142-7.881-14.336a47.272,47.272,0,0,0,11.971-40.965Z" transform="translate(-0.003 -179.335)" fill="#c6eae9"/>
      <path id="Path_7125" data-name="Path 7125" d="M1995.257,272.076a47.312,47.312,0,1,1,26.219,45.286l-15.381,9.1,6.065-15.193a47.284,47.284,0,0,1-16.9-39.189Z" transform="translate(-1450.875 -165.494)" fill="#d3dfff"/>
      <g id="Group_947" data-name="Group 947" transform="translate(391.954)">
        <g id="Group_945" data-name="Group 945" transform="translate(0 11.646)">
          <path id="Path_7126" data-name="Path 7126" d="M1487.015,72.325V63.314h-4.3a20.8,20.8,0,0,0-2.957-7l3.08-3.08-6.37-6.37-3.156,3.156a20.87,20.87,0,0,0-6.924-2.761V42.69h-9.011v4.728a20.828,20.828,0,0,0-6.651,2.875l-3.429-3.429-6.37,6.37,3.505,3.506a20.917,20.917,0,0,0-2.684,6.575h-5v9.011h5a20.851,20.851,0,0,0,2.684,6.575l-3.505,3.506,6.37,6.37,3.429-3.429a20.828,20.828,0,0,0,6.651,2.875v4.728h9.011V88.377a20.87,20.87,0,0,0,6.924-2.761l3.156,3.156,6.37-6.37-3.08-3.08a20.875,20.875,0,0,0,2.957-7h4.3Z" transform="translate(-1436.75 -42.69)" fill="#f0f0f0"/>
          <circle id="Ellipse_90" data-name="Ellipse 90" cx="14.063" cy="14.063" r="14.063" transform="translate(5.248 25.131) rotate(-45)" fill="#fff"/>
        </g>
        <g id="Group_946" data-name="Group 946" transform="translate(61.433)">
          <path id="Path_7127" data-name="Path 7127" d="M1696.549,27.065l2.024-6.2-2.96-.966a15.074,15.074,0,0,0-.464-5.483l2.813-1.43-2.954-5.819-2.884,1.465a15.082,15.082,0,0,0-4.147-3.456l1.029-3.148L1682.8,0l-1.064,3.255a15.087,15.087,0,0,0-5.224.486l-1.59-3.132L1669.1,3.563l1.626,3.2a15.052,15.052,0,0,0-3.325,3.923l-3.44-1.124-2.024,6.2,3.44,1.124a15.065,15.065,0,0,0,.371,5.129l-3.2,1.626,2.954,5.819,3.132-1.59a15.17,15.17,0,0,0,3.931,3.476l-1.064,3.255,6.2,2.024,1.029-3.148a15.1,15.1,0,0,0,5.388-.346l1.465,2.884,5.819-2.954-1.43-2.813a15.136,15.136,0,0,0,3.609-4.155l2.96.966Z" transform="translate(-1661.94 0)" fill="#f0f0f0"/>
          <circle id="Ellipse_91" data-name="Ellipse 91" cx="10.184" cy="10.184" r="10.184" transform="translate(4.951 23.635) rotate(-66.65)" fill="#fff"/>
        </g>
      </g>
      <g id="Group_950" data-name="Group 950" transform="translate(122.454 1.659)">
        <g id="Group_948" data-name="Group 948" transform="translate(41.327 5.999)">
          <path id="Path_7128" data-name="Path 7128" d="M637.178,65.627l4.542-6.2-2.96-2.169a17.792,17.792,0,0,0,1.492-6.31l3.675-.567-1.173-7.6-3.765.581a17.751,17.751,0,0,0-3.375-5.391l2.305-3.148-6.2-4.542-2.384,3.257a17.771,17.771,0,0,0-6.029-1.372l-.633-4.092-7.6,1.173.647,4.182a17.8,17.8,0,0,0-5.164,3.173l-3.44-2.521-4.542,6.2,3.44,2.521a17.78,17.78,0,0,0-1.468,5.879l-4.182.647,1.173,7.6,4.092-.633a17.777,17.777,0,0,0,3.129,5.333l-2.384,3.257,6.2,4.542,2.305-3.148a17.808,17.808,0,0,0,6.16,1.59l.581,3.765,7.6-1.173-.568-3.675a17.8,17.8,0,0,0,5.565-3.328Z" transform="translate(-600.36 -28.07)" fill="#f0f0f0"/>
          <circle id="Ellipse_92" data-name="Ellipse 92" cx="12.001" cy="12.001" r="12.001" transform="matrix(0.046, -0.999, 0.999, 0.046, 9.266, 33.228)" fill="#fff"/>
        </g>
        <g id="Group_949" data-name="Group 949">
          <path id="Path_7129" data-name="Path 7129" d="M471.45,36.1l4.523-3.249-1.552-2.158a12.917,12.917,0,0,0,2.447-4.008l2.657.434.9-5.5-2.723-.445a12.892,12.892,0,0,0-1.11-4.471l2.294-1.648-3.249-4.523-2.373,1.705a12.9,12.9,0,0,0-3.841-2.3l.486-2.96-5.5-.9-.494,3.025a12.844,12.844,0,0,0-4.267,1.023l-1.8-2.507-4.523,3.249,1.8,2.507A12.88,12.88,0,0,0,452.8,17.1L449.77,16.6l-.9,5.5,2.96.486a12.932,12.932,0,0,0,.955,4.376l-2.373,1.705,3.249,4.523,2.294-1.648a12.867,12.867,0,0,0,3.882,2.48l-.445,2.723,5.5.9.434-2.657a12.915,12.915,0,0,0,4.58-1.039l1.552,2.158Z" transform="translate(-448.87 -6.08)" fill="#f0f0f0"/>
          <circle id="Ellipse_93" data-name="Ellipse 93" cx="8.692" cy="8.692" r="8.692" transform="translate(5.283 9.391) rotate(-13.62)" fill="#fff"/>
        </g>
      </g>
    </g>
  </g>
</svg>
