<svg xmlns="http://www.w3.org/2000/svg" width="700" height="400" viewBox="0 0 700 400">
  <g id="Group_53" data-name="Group 53" transform="translate(-360 -260)">
    <rect id="Rectangle_3014" data-name="Rectangle 3014" width="700" height="400" transform="translate(360 260)" fill="none"/>
    <g id="quiz-fail" transform="translate(391.46 244.124)">
      <g id="freepik--background-complete--inject-2" transform="translate(58.147 50.876)">
        <path id="Path_6328" data-name="Path 6328" d="M587.059,371.156c-16.142-14.094-17.667-37.142-14.782-57.413.481-3.383.5-7.006,2.429-9.808s5.928-4.444,8.813-2.678c2.4,1.459,3.184,4.51,4.328,7.089a20,20,0,0,0,7.146,8.465c2.048,1.36,4.643,2.33,6.906,1.385,3.109-1.3,3.888-5.314,4.228-8.7q.953-9.443,1.924-18.894c.34-3.383.7-6.831,2.1-9.949s4.038-5.8,7.345-6.375,7.089,1.724,7.412,5.107a31.483,31.483,0,0,1-.356,4.212c-.058,1.409.431,3.034,1.716,3.573s2.786-.257,3.88-1.086c3.855-3.034,6.69-7.171,9.377-11.308s5.306-8.374,8.871-11.748,8.291-5.853,13.124-5.613,9.7,3.789,10.413,8.672-2.587,9.426-6.027,12.958a75.606,75.606,0,0,1-17.311,13.265,6.233,6.233,0,0,0-2.927,2.537c-.978,2.18.912,4.643,3.059,5.621,2.429,1.111,5.19,1.144,7.785,1.741s5.331,2.064,6.06,4.659c1.011,3.6-2.272,6.906-5.364,8.97a64.866,64.866,0,0,1-20.3,8.979c-2.587.638-5.289,1.161-7.462,2.686s-3.731,4.435-2.777,6.948,3.98,3.606,6.633,3.407,5.14-1.368,7.719-2.031c4.833-1.252,10.778-.29,13.34,4.046,1.658,2.844,1.443,6.533.116,9.576a24.681,24.681,0,0,1-6.019,7.793,65.376,65.376,0,0,1-29.846,16.507c-11.184,2.578-21.257,2.487-31.5-2.562" transform="translate(-149.181 -82.734)" fill="#f5f5f5"/>
        <path id="Path_6329" data-name="Path 6329" d="M598.34,359.683a304.408,304.408,0,0,1,15.528-31.3l4.493-7.992c1.476-2.62,2.943-5.223,4.535-7.677a151.025,151.025,0,0,1,9.949-13.563c3.374-4.145,6.732-7.992,9.9-11.549s6.193-6.807,9.07-9.659a120.093,120.093,0,0,1,14.567-12.436c1.832-1.326,3.316-2.313,4.278-2.968l1.136-.73a2.148,2.148,0,0,1,.4-.232,2.063,2.063,0,0,1-.365.282l-1.1.788c-.962.688-2.4,1.7-4.2,3.059a126.848,126.848,0,0,0-14.409,12.535c-2.852,2.86-5.845,6.119-9,9.684s-6.483,7.4-9.841,11.565a155.537,155.537,0,0,0-9.891,13.539c-1.575,2.446-3.026,5.016-4.51,7.644l-4.485,7.992a310.647,310.647,0,0,0-15.512,31.239" transform="translate(-153.837 -83.448)" fill="#e0e0e0"/>
        <path id="Path_6330" data-name="Path 6330" d="M627.987,315.488a7.216,7.216,0,0,1-.174-1.476c-.075-.953-.141-2.338-.2-4.046-.116-3.416-.108-8.133-.091-13.34s0-9.949-.207-13.323c-.083-1.7-.157-3.076-.224-4.029a7.221,7.221,0,0,1,0-1.484,6.022,6.022,0,0,1,.274,1.459c.141.945.29,2.321.423,4.029.282,3.407.414,8.133.4,13.348s-.075,9.783-.091,13.331V314a6.369,6.369,0,0,1-.108,1.484Z" transform="translate(-158.745 -87.186)" fill="#e0e0e0"/>
        <path id="Path_6331" data-name="Path 6331" d="M672.494,319a8.822,8.822,0,0,1-1.758,0c-1.128,0-2.753-.058-4.767-.041-4.021,0-9.584.191-15.7.68s-11.648,1.177-15.636,1.791c-1.99.29-3.6.564-4.709.754a9.41,9.41,0,0,1-1.741.232,9.784,9.784,0,0,1,1.658-.473c1.1-.265,2.7-.614,4.692-.962,3.971-.721,9.509-1.476,15.653-1.973a152.433,152.433,0,0,1,15.752-.5c2.015.041,3.648.141,4.775.24a10.321,10.321,0,0,1,1.783.249Z" transform="translate(-158.938 -94.031)" fill="#e0e0e0"/>
        <path id="Path_6332" data-name="Path 6332" d="M595.813,367.082a1.794,1.794,0,0,1-.24-.555c-.157-.448-.348-.995-.572-1.658-.5-1.434-1.152-3.532-1.932-6.127-1.559-5.207-3.482-12.436-5.505-20.486s-3.88-15.3-5.323-20.528c-.713-2.537-1.3-4.626-1.733-6.185-.191-.672-.34-1.227-.464-1.658a2.651,2.651,0,0,1-.124-.605,2.072,2.072,0,0,1,.24.564l.58,1.658c.489,1.434,1.144,3.532,1.923,6.135,1.559,5.2,3.49,12.436,5.5,20.486s3.88,15.3,5.323,20.519c.713,2.545,1.3,4.634,1.741,6.185l.456,1.658A2.736,2.736,0,0,1,595.813,367.082Z" transform="translate(-150.688 -91.602)" fill="#e0e0e0"/>
        <path id="Path_6333" data-name="Path 6333" d="M658.807,364.079a1.966,1.966,0,0,1-.6.174l-1.741.381-6.392,1.335c-5.4,1.136-12.842,2.777-21.058,4.61s-15.694,3.407-21.116,4.427c-2.711.514-4.908.9-6.434,1.136l-1.758.265a1.965,1.965,0,0,1-.622.05,2.843,2.843,0,0,1,.6-.174l1.741-.381,6.392-1.335c5.4-1.128,12.842-2.777,21.067-4.61s15.678-3.407,21.108-4.427c2.711-.506,4.908-.9,6.434-1.136l1.758-.265A1.964,1.964,0,0,1,658.807,364.079Z" transform="translate(-153.965 -100.968)" fill="#e0e0e0"/>
        <rect id="Rectangle_2962" data-name="Rectangle 2962" width="99.272" height="88.818" transform="translate(440.863 60.496)" fill="#fafafa"/>
        <path id="Path_6334" data-name="Path 6334" d="M693.19,211.421V205c0-4.145,0-10.272-.058-18.032,0-15.52-.066-37.689-.116-64.385l.224.232-99.281.05h0l.265-.265v88.826l-.232-.24,71.805.124,20.246.058h.1l-20.2.058-71.955.124h-.232V122.23h.2l99.264.041h.224v.224c-.05,26.754-.091,48.973-.116,64.526,0,7.743-.05,13.821-.058,17.982v4.717A14.089,14.089,0,0,1,693.19,211.421Z" transform="translate(-153.054 -62.102)" fill="#e0e0e0"/>
        <path id="Path_6335" data-name="Path 6335" d="M635.048,141.655c0,.149-5.223.265-11.665.265s-11.673-.116-11.673-.265,5.223-.265,11.673-.265S635.048,141.506,635.048,141.655Z" transform="translate(-156.122 -65.483)" fill="#e0e0e0"/>
        <path id="Path_6336" data-name="Path 6336" d="M677.38,149.7c0,.149-14.351.265-32.06.265s-32.06-.116-32.06-.265,14.351-.265,32.06-.265S677.38,149.554,677.38,149.7Z" transform="translate(-156.387 -66.78)" fill="#e0e0e0"/>
        <rect id="Rectangle_2963" data-name="Rectangle 2963" width="4.178" height="4.178" transform="translate(455.762 94.362)" fill="#e0e0e0"/>
        <rect id="Rectangle_2964" data-name="Rectangle 2964" width="4.178" height="4.178" transform="translate(466.05 94.362)" fill="#e0e0e0"/>
        <rect id="Rectangle_2965" data-name="Rectangle 2965" width="4.178" height="4.178" transform="translate(476.538 94.169)" fill="#e0e0e0"/>
        <rect id="Rectangle_2966" data-name="Rectangle 2966" width="4.178" height="4.178" transform="translate(486.644 94.362)" fill="#e0e0e0"/>
        <rect id="Rectangle_2967" data-name="Rectangle 2967" width="4.178" height="4.178" transform="translate(496.941 94.362)" fill="#e0e0e0"/>
        <rect id="Rectangle_2968" data-name="Rectangle 2968" width="4.178" height="4.178" transform="translate(507.238 94.362)" fill="#e0e0e0"/>
        <rect id="Rectangle_2969" data-name="Rectangle 2969" width="4.178" height="4.178" transform="translate(517.535 94.362)" fill="#ebebeb"/>
        <rect id="Rectangle_2970" data-name="Rectangle 2970" width="4.178" height="4.178" transform="translate(455.762 103.353)" fill="#ebebeb"/>
        <rect id="Rectangle_2971" data-name="Rectangle 2971" width="4.178" height="4.178" transform="translate(466.05 103.353)" fill="#e0e0e0"/>
        <rect id="Rectangle_2972" data-name="Rectangle 2972" width="4.178" height="4.178" transform="translate(476.347 103.353)" fill="#ebebeb"/>
        <rect id="Rectangle_2973" data-name="Rectangle 2973" width="4.178" height="4.178" transform="translate(486.644 103.353)" fill="#e0e0e0"/>
        <rect id="Rectangle_2974" data-name="Rectangle 2974" width="4.178" height="4.178" transform="translate(496.941 103.353)" fill="#e0e0e0"/>
        <rect id="Rectangle_2975" data-name="Rectangle 2975" width="4.178" height="4.187" transform="translate(507.429 103.16)" fill="#e0e0e0"/>
        <rect id="Rectangle_2976" data-name="Rectangle 2976" width="4.178" height="4.178" transform="translate(517.535 103.353)" fill="#e0e0e0"/>
        <rect id="Rectangle_2977" data-name="Rectangle 2977" width="4.178" height="4.178" transform="translate(455.762 112.353)" fill="#e0e0e0"/>
        <rect id="Rectangle_2978" data-name="Rectangle 2978" width="4.178" height="4.178" transform="translate(466.241 112.16)" fill="#e0e0e0"/>
        <rect id="Rectangle_2979" data-name="Rectangle 2979" width="4.178" height="4.178" transform="translate(476.347 112.353)" fill="#e0e0e0"/>
        <rect id="Rectangle_2980" data-name="Rectangle 2980" width="4.178" height="4.178" transform="translate(486.644 112.353)" fill="#ebebeb"/>
        <rect id="Rectangle_2981" data-name="Rectangle 2981" width="4.178" height="4.178" transform="translate(496.941 112.353)" fill="#e0e0e0"/>
        <rect id="Rectangle_2982" data-name="Rectangle 2982" width="4.178" height="4.178" transform="translate(507.238 112.353)" fill="#e0e0e0"/>
        <rect id="Rectangle_2983" data-name="Rectangle 2983" width="4.178" height="4.178" transform="translate(517.535 112.353)" fill="#e0e0e0"/>
        <rect id="Rectangle_2984" data-name="Rectangle 2984" width="4.178" height="4.187" transform="translate(455.762 121.344)" fill="#e0e0e0"/>
        <rect id="Rectangle_2985" data-name="Rectangle 2985" width="4.178" height="4.187" transform="translate(466.05 121.344)" fill="#e0e0e0"/>
        <rect id="Rectangle_2986" data-name="Rectangle 2986" width="4.178" height="4.187" transform="translate(476.347 121.344)" fill="#e0e0e0"/>
        <rect id="Rectangle_2987" data-name="Rectangle 2987" width="4.178" height="4.178" transform="translate(486.835 121.151)" fill="#e0e0e0"/>
        <rect id="Rectangle_2988" data-name="Rectangle 2988" width="4.178" height="4.187" transform="translate(496.941 121.344)" fill="#e0e0e0"/>
        <rect id="Rectangle_2989" data-name="Rectangle 2989" width="4.178" height="4.187" transform="translate(507.238 121.344)" fill="#ebebeb"/>
        <rect id="Rectangle_2990" data-name="Rectangle 2990" width="4.178" height="4.187" transform="translate(517.535 121.344)" fill="#e0e0e0"/>
        <rect id="Rectangle_2991" data-name="Rectangle 2991" width="4.178" height="4.178" transform="translate(455.762 130.344)" fill="#e0e0e0"/>
        <rect id="Rectangle_2992" data-name="Rectangle 2992" width="4.178" height="4.178" transform="translate(466.05 130.344)" fill="#ebebeb"/>
        <rect id="Rectangle_2993" data-name="Rectangle 2993" width="4.178" height="4.178" transform="translate(476.347 130.344)" fill="#e0e0e0"/>
        <rect id="Rectangle_2994" data-name="Rectangle 2994" width="4.178" height="4.178" transform="translate(486.644 130.344)" fill="#e0e0e0"/>
        <rect id="Rectangle_2995" data-name="Rectangle 2995" width="4.178" height="4.178" transform="translate(496.941 130.344)" fill="#e0e0e0"/>
        <rect id="Rectangle_2996" data-name="Rectangle 2996" width="4.178" height="4.178" transform="translate(507.429 130.151)" fill="#e0e0e0"/>
        <rect id="Rectangle_2997" data-name="Rectangle 2997" width="4.178" height="4.178" transform="translate(517.535 130.344)" fill="#e0e0e0"/>
        <path id="Path_6337" data-name="Path 6337" d="M79.341,219.114s-9.277,3.764,1.426,23.471S98.791,272,98.791,272s1.932,4.593-1.957,5.414-12.511-.332-14.094,4.494c-1.658,4.974,2.04,9.576,9.443,13.489s23.305,13.074,24.739,13.9,2.852,2.943.3,3.93-21.871,3.482-20.13,12.6,24.159,16.581,26.588,17.41,3.034,1.874,2.877,3.2-6.724,1.559-12.179,2.487-11.607,2.985-10.164,8.141,14.873,15.711,46.884,18.007l14.923.1,7.743-12.759c14.981-28.387,13.124-45.366,9.518-49.321s-8.606.191-12.287,4.328-7.354,9.576-8.573,9-1.749-1.608-1.194-4.145,6.036-25.51-.746-31.795-19.1,8.813-21.29,10.421-3.225-.7-3.167-2.33.68-20.005,1.277-28.354-1.327-13.928-6.45-15.147c-4.974-1.177-8.539,6.749-11.292,9.617s-5.629-1.2-5.629-1.2-4.361-11.342-15.429-30.858S79.158,219.2,79.158,219.2" transform="translate(-64.484 -76.051)" fill="#ebebeb"/>
        <path id="Path_6338" data-name="Path 6338" d="M169.605,382.5c-8.067-14.359-21.987-40.127-34.041-62.18s-22.99-42.009-30.99-56.376l-9.484-17.087c-1.111-2-1.973-3.557-2.578-4.634l-.655-1.21c-.149-.274-.216-.423-.216-.423s.091.133.257.4l.7,1.194,2.653,4.593c2.3,3.988,5.588,9.791,9.617,16.971,8.067,14.359,19.069,34.29,31.107,56.376s25.925,47.82,33.9,62.221" transform="translate(-67.224 -79.86)" fill="#e0e0e0"/>
        <path id="Path_6339" data-name="Path 6339" d="M98.65,297.54a5.367,5.367,0,0,1,1.045.265c.672.191,1.658.506,2.794.9,2.346.829,5.563,1.973,9.12,3.316l9,3.524,2.736,1.053a4.635,4.635,0,0,1,.995.423,4.768,4.768,0,0,1-1.053-.257c-.663-.2-1.617-.506-2.786-.912-2.338-.829-5.538-2.031-9.062-3.4l-9.02-3.457-2.744-1.036a4.627,4.627,0,0,1-1.028-.414Z" transform="translate(-68.422 -90.608)" fill="#e0e0e0"/>
        <path id="Path_6340" data-name="Path 6340" d="M130.779,301.634c-.116-.041,2.015-6.773,4.767-15.031s5.09-14.923,5.215-14.923-2.015,6.773-4.775,15.039S130.9,301.676,130.779,301.634Z" transform="translate(-73.914 -86.277)" fill="#e0e0e0"/>
        <path id="Path_6341" data-name="Path 6341" d="M151.28,344.8a4.757,4.757,0,0,1,.58-.937c.456-.655,1.02-1.484,1.7-2.487,1.434-2.081,3.4-4.974,5.455-8.216s3.822-6.259,5.082-8.448c.6-1.028,1.094-1.9,1.5-2.587a5.4,5.4,0,0,1,.589-.928,4.519,4.519,0,0,1-.431,1.011c-.307.638-.771,1.55-1.368,2.661-1.186,2.23-2.91,5.273-4.974,8.539s-4.079,6.119-5.58,8.15c-.754,1.02-1.376,1.832-1.824,2.379A4.972,4.972,0,0,1,151.28,344.8Z" transform="translate(-77.419 -94.283)" fill="#e0e0e0"/>
        <path id="Path_6342" data-name="Path 6342" d="M120.17,346.774a4.222,4.222,0,0,1,1.02,0l2.761.149c2.33.141,5.546.373,9.12.655s6.765.572,9.12.829l2.752.3a4.144,4.144,0,0,1,1,.166,4.266,4.266,0,0,1-1.02,0l-2.761-.149c-2.33-.141-5.546-.373-9.12-.655s-6.765-.572-9.12-.829l-2.753-.29a4.36,4.36,0,0,1-1-.174Z" transform="translate(-72.101 -98.005)" fill="#e0e0e0"/>
        <path id="Path_6343" data-name="Path 6343" d="M133.56,385.994a7.645,7.645,0,0,1,1.31,0l3.54.182c2.985.166,7.105.431,11.665.754s8.672.63,11.657.887l3.532.323a8.035,8.035,0,0,1,1.285.174,6.55,6.55,0,0,1-1.3,0l-3.54-.174c-2.985-.166-7.113-.431-11.665-.754s-8.68-.638-11.657-.887l-3.532-.323A6.632,6.632,0,0,1,133.56,385.994Z" transform="translate(-74.39 -104.71)" fill="#e0e0e0"/>
        <path id="Path_6344" data-name="Path 6344" d="M172.42,382.23a7.907,7.907,0,0,1,.7-1.2l2.048-3.2c1.724-2.694,4.087-6.434,6.583-10.637s4.668-8.059,6.218-10.861c.738-1.351,1.36-2.487,1.832-3.316a7.842,7.842,0,0,1,.721-1.194,8.233,8.233,0,0,1-.564,1.277c-.381.829-.962,1.973-1.708,3.391-1.476,2.852-3.6,6.74-6.1,10.952s-4.916,7.926-6.707,10.579c-.9,1.326-1.658,2.4-2.172,3.117A7.861,7.861,0,0,1,172.42,382.23Z" transform="translate(-81.032 -98.873)" fill="#e0e0e0"/>
        <rect id="Rectangle_2998" data-name="Rectangle 2998" width="8.05" height="40.044" transform="translate(97.099 14.295) rotate(-0.573)" fill="#e0e0e0"/>
        <rect id="Rectangle_2999" data-name="Rectangle 2999" width="20.834" height="22.103" transform="translate(27.385 14.794) rotate(-0.573)" fill="#ebebeb"/>
        <rect id="Rectangle_3000" data-name="Rectangle 3000" width="20.834" height="22.103" transform="translate(48.127 14.578) rotate(-0.573)" fill="#f5f5f5"/>
        <path id="Path_6345" data-name="Path 6345" d="M94.9,76.383c13.845.108,27.732,0,41.578-.191a.224.224,0,0,0,0-.448Q115.694,75.628,94.9,76a.191.191,0,1,0,0,.381Z" transform="translate(-67.749 -55.123)" fill="#e0e0e0"/>
        <rect id="Rectangle_3001" data-name="Rectangle 3001" width="37.863" height="18.016" transform="matrix(1, -0.005, 0.005, 1, 14.132, 36.979)" fill="#ebebeb"/>
        <rect id="Rectangle_3002" data-name="Rectangle 3002" width="37.863" height="18.016" transform="matrix(1, -0.005, 0.005, 1, 51.811, 36.767)" fill="#f5f5f5"/>
        <path id="Path_6346" data-name="Path 6346" d="M79.231,101.338c25.154.29,50.391,0,75.544-.373a.224.224,0,0,0,0-.439c-25.146-.133-50.391-.116-75.536.439a.191.191,0,0,0,0,.373Z" transform="translate(-65.078 -59.351)" fill="#e0e0e0"/>
        <rect id="Rectangle_3003" data-name="Rectangle 3003" width="146.678" height="6.45" transform="translate(0 55.642)" fill="#e0e0e0"/>
        <rect id="Rectangle_3004" data-name="Rectangle 3004" width="5.953" height="22.02" transform="translate(24.01 58.818)" fill="#e0e0e0"/>
        <rect id="Rectangle_3005" data-name="Rectangle 3005" width="5.953" height="22.02" transform="translate(112.902 58.818)" fill="#e0e0e0"/>
        <rect id="Rectangle_3006" data-name="Rectangle 3006" width="8.05" height="55.066" transform="matrix(1, -0.005, 0.005, 1, 104.689, 0.044)" fill="#ebebeb"/>
        <rect id="Rectangle_3007" data-name="Rectangle 3007" width="12.502" height="44.629" transform="matrix(1, -0.005, 0.005, 1, 112.803, 10.322)" fill="#f5f5f5"/>
        <path id="Path_6347" data-name="Path 6347" d="M210.652,73.57a46.131,46.131,0,0,1-6.251.216,46.022,46.022,0,0,1-6.251-.216,44.46,44.46,0,0,1,6.251-.216,44.563,44.563,0,0,1,6.251.216Z" transform="translate(-85.43 -54.714)" fill="#e0e0e0"/>
        <path id="Path_6348" data-name="Path 6348" d="M210.652,71.31a46.13,46.13,0,0,1-6.251.216,46.019,46.019,0,0,1-6.251-.216,44.461,44.461,0,0,1,6.251-.216A44.564,44.564,0,0,1,210.652,71.31Z" transform="translate(-85.43 -54.327)" fill="#e0e0e0"/>
        <path id="Path_6349" data-name="Path 6349" d="M210.652,108.95a46.131,46.131,0,0,1-6.251.216,46.019,46.019,0,0,1-6.251-.216,44.465,44.465,0,0,1,6.251-.216,44.567,44.567,0,0,1,6.251.216Z" transform="translate(-85.43 -60.761)" fill="#e0e0e0"/>
        <path id="Path_6350" data-name="Path 6350" d="M210.652,106.668a46.131,46.131,0,0,1-6.251.216,46.017,46.017,0,0,1-6.251-.216,43.651,43.651,0,0,1,6.251-.224,43.749,43.749,0,0,1,6.251.224Z" transform="translate(-85.43 -60.37)" fill="#e0e0e0"/>
        <path id="Path_6351" data-name="Path 6351" d="M205.886,97.633c-.124,0-.216-4.5-.216-10.057s.091-10.057.216-10.057.216,4.5.216,10.057S206,97.633,205.886,97.633Z" transform="translate(-86.716 -55.431)" fill="#e0e0e0"/>
        <rect id="Rectangle_3008" data-name="Rectangle 3008" width="13.613" height="33.685" transform="translate(125.355 21.219)" fill="#ebebeb"/>
        <path id="Path_6352" data-name="Path 6352" d="M195.046,61.743a2.313,2.313,0,1,1-2.313-2.313A2.313,2.313,0,0,1,195.046,61.743Z" transform="translate(-84.109 -52.339)" fill="#e0e0e0"/>
        <rect id="Rectangle_3009" data-name="Rectangle 3009" width="1.426" height="32.756" transform="translate(107.878 15.772)" fill="#e0e0e0"/>
      </g>
      <g id="freepik--speech-bubble--inject-2" transform="translate(443.374 79.267)">
        <ellipse id="Ellipse_1" data-name="Ellipse 1" cx="35.758" cy="35.492" rx="35.758" ry="35.492" transform="translate(13.636 0.348)" fill="#fff"/>
        <path id="Path_6353" data-name="Path 6353" d="M582.7,135.7a1.99,1.99,0,0,1-1.1-1.816l.174-9.949a2,2,0,0,1,2.57-1.874,6.193,6.193,0,0,0,4.867-.655,5.571,5.571,0,0,0,2.711-3.5,5.712,5.712,0,0,0-.937-4.353,6.367,6.367,0,0,0-4.046-2.786,7.43,7.43,0,0,0-7.893,4.916,2,2,0,0,1-3.781-1.277,11.487,11.487,0,0,1,12.37-7.561,10.231,10.231,0,0,1,6.633,4.5,9.667,9.667,0,0,1,1.509,7.462,9.542,9.542,0,0,1-4.593,6.06,10.371,10.371,0,0,1-5.5,1.434l-.133,7.644a2.006,2.006,0,0,1-2.031,1.965A1.973,1.973,0,0,1,582.7,135.7Z" transform="translate(-535.107 -88.809)" fill="#0037b4"/>
        <path id="Path_6354" data-name="Path 6354" d="M586.786,146.428a1.658,1.658,0,1,1-1.658-1.658A1.658,1.658,0,0,1,586.786,146.428Z" transform="translate(-536.522 -95.316)" fill="#0037b4"/>
        <path id="Path_6355" data-name="Path 6355" d="M542.22,162.056a3.218,3.218,0,0,1,1.036.249,4.733,4.733,0,0,1,2.255,1.658,4.453,4.453,0,0,1,.771,1.791,3.9,3.9,0,0,1-.249,2.189,4.245,4.245,0,0,1-7.959,0,3.831,3.831,0,0,1-.265-2.189,4.336,4.336,0,0,1,.763-1.791,4.7,4.7,0,0,1,2.238-1.716,10.041,10.041,0,0,1,1.036-.257h-.282a1.974,1.974,0,0,0-.34.041,3.063,3.063,0,0,0-.456.1,4.776,4.776,0,0,0-3.233,3.582,4.146,4.146,0,0,0,.257,2.355,4.718,4.718,0,0,0,1.617,2.056,4.253,4.253,0,0,0,5.306,0,4.875,4.875,0,0,0,1.6-2.064,4.1,4.1,0,0,0,.24-2.355,4.776,4.776,0,0,0-3.258-3.565,2.863,2.863,0,0,0-.456-.1,1.869,1.869,0,0,0-.34,0C542.32,162.04,542.22,162.04,542.22,162.056Z" transform="translate(-528.658 -98.26)" fill="#263238"/>
        <path id="Path_6356" data-name="Path 6356" d="M529.891,176.344a4.577,4.577,0,0,1,.647.182,2.968,2.968,0,0,1,1.385,1.078,2.487,2.487,0,0,1,.315,2.487,2.62,2.62,0,0,1-4.908,0,2.487,2.487,0,0,1,.3-2.487,2.9,2.9,0,0,1,1.384-1.086c.4-.149.647-.158.638-.182a1.269,1.269,0,0,0-.68.058,3.026,3.026,0,0,0-2.081,2.272,2.594,2.594,0,0,0,.157,1.509,2.91,2.91,0,0,0,5.472,0,2.66,2.66,0,0,0,.149-1.509,3.042,3.042,0,0,0-.555-1.2,2.918,2.918,0,0,0-1.542-1.053,1.476,1.476,0,0,0-.68-.066Z" transform="translate(-526.842 -100.708)" fill="#263238"/>
        <path id="Path_6357" data-name="Path 6357" d="M543.658,125.951v-.58c0-.381-.075-.953-.133-1.658,0-.373-.066-.788-.108-1.244s0-.962,0-1.509V119.2a6.521,6.521,0,0,1,.066-.97c.041-.332.075-.672.116-1.028a33.83,33.83,0,0,1,2.587-9.949A35.3,35.3,0,0,1,553.731,96l1.36-1.351c.481-.431,1-.829,1.509-1.252l.771-.63a7.028,7.028,0,0,1,.829-.605l1.708-1.136c.29-.191.572-.39.87-.572l.92-.5,1.882-.995c.638-.323,1.327-.564,2-.829l1.011-.415c.174-.075.34-.149.514-.207l.531-.158a32.916,32.916,0,0,1,4.377-1.144c.754-.133,1.509-.315,2.28-.415l2.346-.207c.4,0,.829-.091,1.194-.091h1.194c.829,0,1.608,0,2.421.05a37.008,37.008,0,0,1,4.892.713l1.227.257.614.141.605.191,2.421.779c.829.3,1.583.663,2.38.995a12.888,12.888,0,0,1,1.186.539l1.144.622a40.477,40.477,0,0,1,4.469,2.835q1.036.829,2.064,1.716l.522.431c.166.149.315.315.481.473l.953.945.962.962.87,1.061.879,1.061.431.539c.141.182.257.381.39.572l1.542,2.313,1.326,2.487a35.152,35.152,0,0,1,3.134,22.194c-.2.92-.39,1.832-.589,2.744l-.829,2.645-.216.663-.265.63-.547,1.268-.547,1.26-.655,1.194-.655,1.194-.323.589-.381.564-1.509,2.222a40.134,40.134,0,0,1-3.515,3.955l-.962.9c-.307.307-.663.555-.987.829-.68.539-1.326,1.111-2.006,1.658l-2.122,1.418-.522.356c-.182.108-.373.2-.555.3l-1.111.6a36.832,36.832,0,0,1-4.494,2.031c-.763.274-1.55.481-2.313.721l-1.152.348c-.381.108-.779.158-1.161.24l-2.313.448c-.771.116-1.542.158-2.3.232a33.166,33.166,0,0,1-4.527.116h-.555a1.759,1.759,0,0,1-.547-.058l-1.094-.116c-.721-.091-1.451-.141-2.156-.265l-2.081-.448-1.028-.216-.995-.307-1.948-.622a7.518,7.518,0,0,1-.937-.356l-.92-.4c-.605-.265-1.211-.506-1.8-.779l-1.658-.92a35.493,35.493,0,0,1-10.363-8.738c-.315-.39-.638-.763-.937-1.144s-.531-.829-.829-1.186l-.754-1.2c-.124-.191-.257-.373-.365-.564s-.207-.381-.307-.572l-1.177-2.18c-.348-.7-.6-1.409-.887-2.056-.133-.332-.265-.647-.4-.953a6.737,6.737,0,0,1-.332-.912c-.182-.6-.348-1.161-.514-1.658s-.315-.995-.423-1.443l-.249-1.227c-.149-.73-.257-1.285-.34-1.658s-.124-.564-.124-.564a2.781,2.781,0,0,0,.091.572c.091.381.174.945.307,1.658.075.373.149.779.232,1.235s.265.929.414,1.451l.5,1.658a6.836,6.836,0,0,0,.332.92l.39.962c.282.647.531,1.36.879,2.064l1.161,2.189c.1.2.207.39.307.58s.24.373.365.564l.763,1.152q.4.589.829,1.194c.3.381.622.763.937,1.152a35.724,35.724,0,0,0,10.355,8.871l1.658.929c.589.282,1.2.522,1.816.829l.92.39a6.2,6.2,0,0,0,.945.365l1.965.63.995.315,1.036.224,2.1.448c.7.133,1.434.182,2.164.274l1.1.124c.182,0,.373.05.556.058h.555a33.636,33.636,0,0,0,4.56-.108c.771-.075,1.55-.108,2.33-.232l2.33-.448c.39-.083.829-.133,1.177-.24l1.161-.348c.771-.24,1.559-.448,2.33-.721a36.913,36.913,0,0,0,4.543-2.048l1.111-.6c.191-.1.381-.191.564-.307l.531-.348,2.139-1.426c.688-.514,1.343-1.086,2.023-1.658.332-.282.7-.539,1-.829l.937-.929a41.972,41.972,0,0,0,3.548-3.988l1.526-2.247.381-.555.332-.605.663-1.194.663-1.21.547-1.268.547-1.277.274-.638.216-.663c.29-.9.572-1.782.829-2.678l.6-2.769a35.509,35.509,0,0,0-3.167-22.385l-1.335-2.487c-.522-.779-1.036-1.559-1.559-2.33l-.39-.58-.439-.539-.887-1.069-.879-1.07-.97-.978-.9-1.02-.489-.481-.522-.439-2.089-1.724a39.2,39.2,0,0,0-4.51-2.852l-1.152-.63c-.39-.216-.829-.356-1.2-.539-.829-.34-1.583-.7-2.4-1l-2.487-.829-.614-.191-.614-.133-1.244-.265a37.5,37.5,0,0,0-4.925-.713c-.829-.05-1.658,0-2.487-.05h-1.21c-.4,0-.829.058-1.194.091l-2.363.216c-.779.1-1.542.282-2.3.415A34.4,34.4,0,0,0,567.452,87l-.539.166c-.174.058-.348.141-.514.207l-.962.464c-.672.29-1.36.539-2.006.829l-1.89,1.011-.929.5-.879.58L558.026,91.9a7.46,7.46,0,0,0-.829.614l-.771.638c-.514.431-1.036.829-1.526,1.26L553.574,95.8a35.558,35.558,0,0,0-7.553,11.35,34.063,34.063,0,0,0-2.537,10,8.285,8.285,0,0,1-.116,1.028,6.46,6.46,0,0,0-.058.97v3.275a10.671,10.671,0,0,0,.124,1.252c.066.738.124,1.3.166,1.658S543.658,125.951,543.658,125.951Z" transform="translate(-529.657 -85.12)" fill="#263238"/>
      </g>
      <g id="freepik--Desk--inject-2" transform="translate(47.27 355.988)">
        <path id="Path_6358" data-name="Path 6358" d="M593.616,414.956c0,.116-121.873.216-272.257.216s-272.29-.066-272.29-.216,121.873-.216,272.29-.216S593.616,414.864,593.616,414.956Z" transform="translate(-49.07 -414.74)" fill="#263238"/>
      </g>
      <g id="freepik--character-2--inject-2" transform="translate(337.824 151.658)">
        <path id="Path_6359" data-name="Path 6359" d="M564.547,253.026a24.64,24.64,0,0,0-20.08-18.239,15.611,15.611,0,0,0-10.886-24.872,15.669,15.669,0,0,0-9.211-23.089c-2.835-.829-5.953-.829-8.44-2.4-2.728-1.716-4.1-4.883-6.052-7.462a18.654,18.654,0,0,0-22.136-5.323l-6.682,13.978,20.992,67.61c2.164,6.964,4.46,14.152,9.319,19.583,5.339,5.953,13.265,9.12,21.191,10.048,7.7.929,15.918-.149,22.3-4.568a24.648,24.648,0,0,0,9.683-25.27Z" transform="translate(-413.466 -168.578)" fill="#263238"/>
        <path id="Path_6360" data-name="Path 6360" d="M545.681,239.057a13.986,13.986,0,0,0,3.714-.415,13.729,13.729,0,0,0,4.013-1.791,13.954,13.954,0,0,0,4.1-4.145,13.382,13.382,0,0,0,2.04-6.8,16.019,16.019,0,0,0-1.9-8.009,16.316,16.316,0,0,0-6.5-6.467,19.069,19.069,0,0,0-9.717-2.346h-.357l.157-.315a16.267,16.267,0,0,0,.962-11.847,15.752,15.752,0,0,0-7.586-9.269,15.283,15.283,0,0,0-2.7-1.186,13.952,13.952,0,0,0-2.811-.655c-1.874-.282-3.863-.1-5.638-.929a5.282,5.282,0,0,1-2.114-1.832,14.1,14.1,0,0,1-1.293-2.371,21.735,21.735,0,0,0-2.446-4.411,19.226,19.226,0,0,0-6.856-5.8,18.62,18.62,0,0,0-7.188-1.923,20.056,20.056,0,0,0-5.629.481,19.07,19.07,0,0,0-3.4,1.128c-.381.158-.655.315-.829.4a1.931,1.931,0,0,1-.3.124,1.6,1.6,0,0,1,.274-.166c.191-.1.456-.265.829-.431a17.637,17.637,0,0,1,3.391-1.219,19.5,19.5,0,0,1,5.679-.555,18.72,18.72,0,0,1,7.312,1.89,19.516,19.516,0,0,1,7.014,5.862,21.618,21.618,0,0,1,2.487,4.469c.721,1.559,1.583,3.25,3.242,4s3.581.6,5.521.829a14.707,14.707,0,0,1,2.885.672,15.76,15.76,0,0,1,2.769,1.21,16.208,16.208,0,0,1,7.8,9.518,16.722,16.722,0,0,1-.995,12.162l-.2-.307a19.491,19.491,0,0,1,9.949,2.421,16.7,16.7,0,0,1,6.633,6.633,16.384,16.384,0,0,1,1.9,8.2,13.722,13.722,0,0,1-2.139,6.931,14.16,14.16,0,0,1-4.2,4.2,13.738,13.738,0,0,1-4.1,1.749,11.607,11.607,0,0,1-2.777.34h-.73Z" transform="translate(-415.576 -168.281)" fill="#263238"/>
        <path id="Path_6361" data-name="Path 6361" d="M454.83,395.6c2.487-2.346,3.681-5.729,4.726-8.987a275.387,275.387,0,0,0,7.851-30.029l-9.949-23.214Z" transform="translate(-408.983 -196.501)" fill="#0037b4"/>
        <path id="Path_6362" data-name="Path 6362" d="M552.533,276.378l-34.315-6.558L454.38,289.328l1.31,50.026,10.985,51.5h88.851l3.441-64.435Z" transform="translate(-408.906 -185.638)" fill="#0037b4"/>
        <path id="Path_6363" data-name="Path 6363" d="M572.77,277.61s14.708,2.719,20.8,9.949,65.944,65.6,68.754,82.475l-48.086-3.606L579.2,327.677Z" transform="translate(-429.143 -186.969)" fill="#0037b4"/>
        <path id="Path_6364" data-name="Path 6364" d="M579.368,323.818a9.228,9.228,0,0,1-.29-1.4c-.158-.912-.365-2.23-.547-3.88a86.611,86.611,0,0,1-.531-12.9,66.34,66.34,0,0,1,.638-7.1,41.814,41.814,0,0,1,1.252-5.679l.34-1.127.373-.987a14.425,14.425,0,0,1,.663-1.559,8.021,8.021,0,0,1,.672-1.268,10,10,0,0,1-.522,1.335c-.191.423-.373.953-.58,1.575-.108.307-.224.638-.34.987l-.315,1.128a45.721,45.721,0,0,0-1.144,5.654,70.439,70.439,0,0,0-.6,7.055,102.267,102.267,0,0,0,.4,12.859c.149,1.658.307,2.96.414,3.88A8.583,8.583,0,0,1,579.368,323.818Z" transform="translate(-430.029 -188.732)" fill="#263238"/>
        <path id="Path_6365" data-name="Path 6365" d="M458,363.29a5.536,5.536,0,0,1,.282,1.053c.157.771.365,1.741.613,2.9.514,2.545,1.194,5.886,1.948,9.584s1.484,7.122,2.04,9.559c.265,1.152.489,2.122.672,2.885a5.657,5.657,0,0,1,.216,1.069,6.231,6.231,0,0,1-.381-1.02c-.216-.672-.489-1.658-.829-2.86-.63-2.429-1.4-5.8-2.164-9.543s-1.4-7.147-1.832-9.617c-.207-1.235-.373-2.23-.473-2.927A4.585,4.585,0,0,1,458,363.29Z" transform="translate(-409.524 -201.615)" fill="#263238"/>
        <path id="Path_6366" data-name="Path 6366" d="M533.261,345.037a41.225,41.225,0,0,1-1.111-5.8,38.687,38.687,0,0,1-.68-5.853,40.884,40.884,0,0,1,1.111,5.8,41.459,41.459,0,0,1,.68,5.853Z" transform="translate(-422.083 -196.503)" fill="#fafafa"/>
        <path id="Path_6367" data-name="Path 6367" d="M493.73,357.8a31.51,31.51,0,0,1,1.741-4.842,30.929,30.929,0,0,1,2.147-4.684,31.452,31.452,0,0,1-1.741,4.85A30.111,30.111,0,0,1,493.73,357.8Z" transform="translate(-415.632 -199.048)" fill="#fafafa"/>
        <path id="Path_6368" data-name="Path 6368" d="M519.4,382.486c-.108.066-1.583-2.263-3.731-4.883s-4.145-4.552-4.029-4.643a6.55,6.55,0,0,1,1.4,1.152,34.866,34.866,0,0,1,2.96,3.217,36.214,36.214,0,0,1,2.554,3.548A6.391,6.391,0,0,1,519.4,382.486Z" transform="translate(-418.693 -203.268)" fill="#fafafa"/>
        <path id="Path_6369" data-name="Path 6369" d="M553.691,366.91a17.9,17.9,0,0,1-2.885,2.769,18.679,18.679,0,0,1-3.175,2.446,19.063,19.063,0,0,1,2.893-2.769A18.827,18.827,0,0,1,553.691,366.91Z" transform="translate(-424.846 -202.234)" fill="#fafafa"/>
        <path id="Path_6370" data-name="Path 6370" d="M479.629,394.01A82.233,82.233,0,0,1,469,388.82a40.252,40.252,0,0,1,5.414,2.4,39.55,39.55,0,0,1,5.215,2.786Z" transform="translate(-411.405 -205.979)" fill="#fafafa"/>
        <path id="Path_6371" data-name="Path 6371" d="M565.044,331.22a24.742,24.742,0,0,1-4.974,4.245,12.194,12.194,0,0,1,2.321-2.28,12.443,12.443,0,0,1,2.653-1.965Z" transform="translate(-426.972 -196.133)" fill="#fafafa"/>
        <path id="Path_6372" data-name="Path 6372" d="M558.43,299.109a52.979,52.979,0,0,1,2.819-9.169,26.409,26.409,0,0,1-1.2,4.643,27.6,27.6,0,0,1-1.617,4.527Z" transform="translate(-426.692 -189.077)" fill="#fafafa"/>
        <path id="Path_6373" data-name="Path 6373" d="M517.451,321.836a43.561,43.561,0,0,1-8.821,0A45.236,45.236,0,0,1,517.451,321.836Z" transform="translate(-418.179 -194.492)" fill="#fafafa"/>
        <path id="Path_6374" data-name="Path 6374" d="M466.07,355.027a38.9,38.9,0,0,1,2.1-5.381,39.731,39.731,0,0,1,2.487-5.207,75.4,75.4,0,0,1-4.585,10.587Z" transform="translate(-410.904 -198.393)" fill="#fafafa"/>
        <path id="Path_6375" data-name="Path 6375" d="M590.783,333.345A43.364,43.364,0,0,1,589,324.88a43.363,43.363,0,0,1,1.782,8.465Z" transform="translate(-431.917 -195.05)" fill="#fafafa"/>
        <path id="Path_6376" data-name="Path 6376" d="M602.358,308.454a31.335,31.335,0,0,1-4.974-1.36,30.629,30.629,0,0,1-4.883-1.774,63.883,63.883,0,0,1,9.891,3.134Z" transform="translate(-432.515 -191.706)" fill="#fafafa"/>
        <path id="Path_6377" data-name="Path 6377" d="M611.249,336.615a14.917,14.917,0,0,1,.323-3.565,14.6,14.6,0,0,1,.746-3.49,29.932,29.932,0,0,1-1.069,7.055Z" transform="translate(-435.719 -195.85)" fill="#fafafa"/>
        <path id="Path_6378" data-name="Path 6378" d="M640.346,349.879A118.23,118.23,0,0,1,630.82,339.3a56.874,56.874,0,0,1,4.924,5.148,58.026,58.026,0,0,1,4.6,5.43Z" transform="translate(-439.066 -197.514)" fill="#fafafa"/>
        <path id="Path_6379" data-name="Path 6379" d="M617.765,363.681a42.539,42.539,0,0,1-3.872-4.817,46.428,46.428,0,0,1-3.523-5.074,42.521,42.521,0,0,1,3.839,4.817,45.528,45.528,0,0,1,3.557,5.074Z" transform="translate(-435.57 -199.991)" fill="#fafafa"/>
        <path id="Path_6380" data-name="Path 6380" d="M645.922,368.974c-.066.108-2.114-1.036-4.767-2.131s-4.908-1.749-4.875-1.874a17.518,17.518,0,0,1,5.041,1.476,17.725,17.725,0,0,1,4.6,2.529Z" transform="translate(-439.999 -201.902)" fill="#fafafa"/>
        <path id="Path_6381" data-name="Path 6381" d="M496.546,399.987a44.462,44.462,0,0,1,0-8.747A42.824,42.824,0,0,1,496.546,399.987Z" transform="translate(-416.077 -206.393)" fill="#fafafa"/>
        <path id="Path_6382" data-name="Path 6382" d="M568.417,381.716a15.169,15.169,0,0,1-2.57-2.487,15.548,15.548,0,0,1-2.247-2.769,14.85,14.85,0,0,1,2.57,2.487,15.1,15.1,0,0,1,2.247,2.769Z" transform="translate(-427.575 -203.866)" fill="#fafafa"/>
        <path id="Path_6383" data-name="Path 6383" d="M572.956,352.686a36.087,36.087,0,0,1,0-7.876A36.072,36.072,0,0,1,572.956,352.686Z" transform="translate(-429.138 -198.456)" fill="#fafafa"/>
        <path id="Path_6384" data-name="Path 6384" d="M531.484,374.591a51.6,51.6,0,0,1-1.874-9.161,49.744,49.744,0,0,1,1.874,9.161Z" transform="translate(-421.765 -201.981)" fill="#fafafa"/>
        <path id="Path_6385" data-name="Path 6385" d="M477.978,371.045a29.518,29.518,0,0,1-4.485-2.446,28.867,28.867,0,0,1-4.253-2.819,31.1,31.1,0,0,1,4.477,2.487A31.577,31.577,0,0,1,477.978,371.045Z" transform="translate(-411.446 -202.041)" fill="#fafafa"/>
        <path id="Path_6386" data-name="Path 6386" d="M490.691,323.18a7.614,7.614,0,0,1-.414,1.957,31.317,31.317,0,0,1-4.071,8.705,7.866,7.866,0,0,1-1.235,1.575,11.978,11.978,0,0,1,.978-1.733c.622-1.053,1.451-2.529,2.239-4.22s1.393-3.266,1.8-4.419a11.062,11.062,0,0,1,.7-1.865Z" transform="translate(-414.135 -194.759)" fill="#fafafa"/>
        <path id="Path_6387" data-name="Path 6387" d="M546.509,309.164a29.431,29.431,0,0,0-2.645-3.681,28.469,28.469,0,0,0-3.474-2.893A10.521,10.521,0,0,1,546.509,309.164Z" transform="translate(-423.608 -191.239)" fill="#fafafa"/>
        <path id="Path_6388" data-name="Path 6388" d="M555.047,277.8a11.334,11.334,0,0,1-2.769,1.293,11.1,11.1,0,0,1-2.918.9,10.515,10.515,0,0,1,2.761-1.293,11.109,11.109,0,0,1,2.927-.9Z" transform="translate(-425.141 -187.002)" fill="#fafafa"/>
        <path id="Path_6389" data-name="Path 6389" d="M519.61,247.057s11.607-8.241,6.2-25.991c-2.694-8.83-9.642-22.061-15.686-32.7-5.43-9.584-17.958-18.853-31.1-12.436,0,0-29.747,11.9-20.412,34.522l27.367,60.953a19.972,19.972,0,0,0,25.295,10.488h0a19.98,19.98,0,0,0,11.69-25.519Z" transform="translate(-409.32 -169.226)" fill="#eb996e"/>
        <path id="Path_6390" data-name="Path 6390" d="M521.822,212.192a2.346,2.346,0,0,1-1,3.117,2.247,2.247,0,0,1-3.109-.829,2.355,2.355,0,0,1,1-3.126,2.247,2.247,0,0,1,3.109.837Z" transform="translate(-419.689 -175.59)" fill="#263238"/>
        <path id="Path_6391" data-name="Path 6391" d="M521.759,205.213c-.124.406-2.3,0-4.576,1.111s-3.383,3.068-3.764,2.9c-.182-.058-.158-.688.315-1.567a6.418,6.418,0,0,1,2.852-2.67,6.2,6.2,0,0,1,3.805-.539C521.344,204.65,521.833,205.031,521.759,205.213Z" transform="translate(-418.98 -174.448)" fill="#263238"/>
        <path id="Path_6392" data-name="Path 6392" d="M495.933,224.1a2.354,2.354,0,0,1-1,3.126,2.247,2.247,0,0,1-3.1-.829,2.363,2.363,0,0,1,.995-3.126,2.247,2.247,0,0,1,3.109.829Z" transform="translate(-415.265 -177.628)" fill="#263238"/>
        <path id="Path_6393" data-name="Path 6393" d="M496.519,217.923c-.133.406-2.3,0-4.576,1.111s-3.383,3.059-3.764,2.9c-.182-.058-.158-.688.315-1.575a6.466,6.466,0,0,1,2.844-2.661,6.226,6.226,0,0,1,3.814-.539C496.1,217.36,496.585,217.741,496.519,217.923Z" transform="translate(-414.665 -176.62)" fill="#263238"/>
        <path id="Path_6394" data-name="Path 6394" d="M513.882,229.081c-.075-.124,1.219-1.053,3.366-2.487.555-.348,1.045-.73.953-1.169a3.7,3.7,0,0,0-1.227-1.534q-1.84-1.716-3.872-3.582c-5.447-5.14-9.692-9.468-9.485-9.692s4.8,3.772,10.247,8.9l3.806,3.64a3.7,3.7,0,0,1,1.409,2.139,1.608,1.608,0,0,1-.539,1.31,4.144,4.144,0,0,1-.92.622A19.732,19.732,0,0,1,513.882,229.081Z" transform="translate(-417.321 -175.517)" fill="#263238"/>
        <path id="Path_6395" data-name="Path 6395" d="M527.42,262.16A46.635,46.635,0,0,1,502.49,267s10.869,9.3,26.6-.265Z" transform="translate(-417.129 -184.329)" fill="#eb7741"/>
        <path id="Path_6396" data-name="Path 6396" d="M517.672,242.229A2.222,2.222,0,0,0,514,240.313a1.965,1.965,0,0,0-2.089-1.227,2.794,2.794,0,0,0-2.048,1.484,3.888,3.888,0,0,0,.829,4.626,4.245,4.245,0,0,0,4.742.489,4.7,4.7,0,0,0,2.346-4.187" transform="translate(-418.317 -180.381)" fill="#eb7741"/>
        <path id="Path_6397" data-name="Path 6397" d="M517.2,246.07c-.373.174-1.393-2.379-4.295-3.316s-5.5.415-5.671.066c-.1-.149.414-.738,1.55-1.227a6.823,6.823,0,0,1,4.668-.2,5.961,5.961,0,0,1,3.441,2.844C517.418,245.266,517.385,245.987,517.2,246.07Z" transform="translate(-417.939 -180.725)" fill="#263238"/>
        <path id="Path_6398" data-name="Path 6398" d="M484,215.44c-.116-.721,2.255-1.658,4.684-3.391s4.145-3.606,4.784-3.258c.3.174.24.945-.282,1.99a9.6,9.6,0,0,1-3.026,3.366,9.733,9.733,0,0,1-4.145,1.708C484.828,215.988,484.09,215.78,484,215.44Z" transform="translate(-413.968 -175.199)" fill="#263238"/>
        <path id="Path_6399" data-name="Path 6399" d="M509.69,201.719c.124-.713,1.948-.995,3.814-1.94s3.25-2.131,3.9-1.791c.29.174.307.829-.124,1.658a6.2,6.2,0,0,1-6.21,3C510.137,202.473,509.648,202.058,509.69,201.719Z" transform="translate(-418.36 -173.349)" fill="#263238"/>
        <path id="Path_6400" data-name="Path 6400" d="M476.592,268.09c-1.161-1.94-2.487-3.888-2.794-6.127s.373-4.485.274-6.732c-.257-5.662-5.231-9.758-9.426-13.563s-8.291-9.368-6.3-14.666c1.94-5.124,8.763-7.2,10.43-12.436,1.368-4.27-1.3-9.012-.108-13.34,1.36-4.916,6.931-7.188,10.264-11.051,4.145-4.784,7.1-12.494,3.316-17.535l-2.686-.688c-1.658-2.753-5.48-3.532-8.531-2.537s-5.43,3.316-7.528,5.8-4.071,5.041-6.732,6.823c-4.552,3.051-11.242,3.955-13.265,9.053-1.658,4.245.92,9.567-1.55,13.406-2,3.092-6.409,3.714-8.772,6.541-1.8,2.164-2.064,5.289-1.368,8.017a26.7,26.7,0,0,0,3.747,7.536c-6.632,2.487-13.53,5.24-18.19,10.579s-6.16,14.16-1.335,19.35c2.147,2.313,5.621,4.742,4.46,7.677a7.213,7.213,0,0,1-2.429,2.628,20.387,20.387,0,1,0,30.344,26.348c-.829,3.673,1.973,7.462,5.48,8.8s7.462.929,11.134.149c4.145-.887,8.415-2.263,11.541-5.165,3.822-3.548,5.455-9.037,5.132-14.235S479.27,272.567,476.592,268.09Z" transform="translate(-401.421 -168.404)" fill="#263238"/>
        <path id="Path_6401" data-name="Path 6401" d="M491.5,182.47c1.567,3.573-2.354,11.333-5.215,13.978s-6.367,5.024-7.553,8.738c-1.8,5.679,2.628,12,.663,17.618-1.376,3.963-5.754,6.881-5.538,11.068.265,5.1,6.956,7.387,8.763,12.154,1.534,4.071.423,8.025,1.923,12.1a25.31,25.31,0,0,0,4.817,7.163c3.9,4.427,6.749,10.338,5.721,16.341-1.434,8.349-4.626,15.528-9.883,18.2l-17.576-23.346-1.376-37.308-1.094-18.654,6.782-4.974,2.537-18.372Z" transform="translate(-410.747 -170.707)" fill="#263238"/>
        <path id="Path_6402" data-name="Path 6402" d="M441.057,261.068l-23.927,77s-10.446,44.728,13.381,43.742,19.9-13.149,19.9-13.149l.24-91.96s4.369-7.752,4.336-13.713c0-6.633,1.55-25.66,1.55-25.66s5.986-17.278,3.9-18.04c-3.988-1.467-10.678,17.584-10.678,17.584s1.9,3.59-1.36,13.381S441.057,261.068,441.057,261.068Z" transform="translate(-402.149 -176.986)" fill="#eb996e"/>
        <path id="Path_6403" data-name="Path 6403" d="M481.718,173.41s.075.075.207.232a4.5,4.5,0,0,1,.5.763,9.949,9.949,0,0,1,.912,3.374,16.739,16.739,0,0,1-.265,5.522,13.667,13.667,0,0,1-3.864,6.185c-1.882,1.948-4.286,3.756-6.392,6.118a14.749,14.749,0,0,0-2.636,4.079c-.663,1.542-1.136,3.233-1.915,4.875a9.677,9.677,0,0,1-1.492,2.33,9.375,9.375,0,0,1-2.205,1.782c-1.617.995-3.432,1.658-4.974,2.786-3.175,2.214-5.206,5.92-6.293,9.841a60.782,60.782,0,0,0-1.542,11.905,43.192,43.192,0,0,1-1.84,11.109,18.066,18.066,0,0,1-5.762,8.349,11.931,11.931,0,0,1-4.145,2.048,19.8,19.8,0,0,1-4.253.481,19.527,19.527,0,0,0-3.805.415,7.562,7.562,0,0,0-3.043,1.434,4.726,4.726,0,0,0-1.575,2.413c-.249.879-.348,1.716-.539,2.487a4.029,4.029,0,0,1-1.94,2.827,1.981,1.981,0,0,1-.9.207,1.656,1.656,0,0,1-.307,0,2.33,2.33,0,0,0,1.161-.249,4,4,0,0,0,1.824-2.786c.166-.738.257-1.575.5-2.487a4.925,4.925,0,0,1,1.658-2.545,7.8,7.8,0,0,1,3.126-1.509,19.717,19.717,0,0,1,3.863-.456,19.4,19.4,0,0,0,4.145-.5,11.235,11.235,0,0,0,4.029-2.015,17.658,17.658,0,0,0,5.588-8.2,42.364,42.364,0,0,0,1.758-11.06c.274-3.872.415-7.959,1.55-11.988a22.76,22.76,0,0,1,2.4-5.671,14.659,14.659,0,0,1,4.063-4.4c1.617-1.161,3.441-1.824,5.024-2.794a8.98,8.98,0,0,0,2.106-1.658,9.178,9.178,0,0,0,1.443-2.23c.763-1.592,1.235-3.316,1.923-4.85a15.1,15.1,0,0,1,2.719-4.145c2.147-2.388,4.552-4.145,6.442-6.094a19.663,19.663,0,0,0,2.487-2.943,9.118,9.118,0,0,0,1.393-3.084,16.988,16.988,0,0,0,.34-5.447,10.572,10.572,0,0,0-.829-3.316A8.051,8.051,0,0,0,481.718,173.41Z" transform="translate(-403.653 -169.158)" fill="#455a64"/>
        <path id="Path_6404" data-name="Path 6404" d="M484.458,173.41a1.5,1.5,0,0,1,.108.158c.066.108.166.307.282.506a3.714,3.714,0,0,1,.091,2.2c-.489,1.923-2.487,4.038-5.024,6.259-1.285,1.111-2.678,2.371-4.278,3.582a31.735,31.735,0,0,0-4.742,4.22,11.019,11.019,0,0,0-1.774,2.869,20.3,20.3,0,0,0-.978,3.432,19.751,19.751,0,0,1-1.061,3.623,8.58,8.58,0,0,1-2.379,3.1,13.263,13.263,0,0,1-3.366,1.957c-1.177.506-2.363.9-3.515,1.31s-2.288.829-3.316,1.293a12.253,12.253,0,0,0-2.9,1.758,9.866,9.866,0,0,0-3.208,5.273c-.531,1.915-.829,3.764-1.268,5.422-.829,3.316-2.811,5.654-4.543,6.508a4.874,4.874,0,0,1-2.139.539,4.306,4.306,0,0,1-.572-.041h.572a4.858,4.858,0,0,0,2.056-.605,9.947,9.947,0,0,0,4.336-6.434c.423-1.658.688-3.49,1.219-5.447a10.189,10.189,0,0,1,3.316-5.48,12.844,12.844,0,0,1,2.993-1.824c1.078-.506,2.222-.9,3.374-1.318s2.33-.829,3.482-1.31a12.618,12.618,0,0,0,3.267-1.89,8.05,8.05,0,0,0,2.263-2.943,19.67,19.67,0,0,0,1.036-3.54,20.725,20.725,0,0,1,1.011-3.5,11.084,11.084,0,0,1,1.857-2.968,30.9,30.9,0,0,1,4.825-4.245c1.6-1.194,2.993-2.429,4.295-3.532,2.578-2.18,4.543-4.228,5.057-6.069a3.747,3.747,0,0,0,0-2.122l-.24-.514A.639.639,0,0,1,484.458,173.41Z" transform="translate(-406.393 -169.158)" fill="#455a64"/>
        <path id="Path_6405" data-name="Path 6405" d="M479.244,228a3.456,3.456,0,0,1,0,.987,7.236,7.236,0,0,1-.912,2.678,11.606,11.606,0,0,1-2.951,3.316,17.03,17.03,0,0,0-3.822,4.4,19.624,19.624,0,0,0-1.94,14.724,19.248,19.248,0,0,0,.663,2.064,16.436,16.436,0,0,0,.9,2.039c.68,1.335,1.5,2.645,2.321,3.988,1.658,2.653,3.383,5.6,3.706,9.029a9.011,9.011,0,0,1-.879,4.916,14.764,14.764,0,0,1-2.918,3.872c-1.119,1.128-2.3,2.139-3.366,3.192a38.863,38.863,0,0,0-2.985,3.258,26.057,26.057,0,0,0-4.145,6.989,17.12,17.12,0,0,0-1.219,6.939,15.461,15.461,0,0,0,1.318,5.663,12.5,12.5,0,0,0,5.4,5.994l-.224-.108-.655-.34c-.282-.166-.605-.4-.995-.663a12.179,12.179,0,0,1-1.227-1.086,13.107,13.107,0,0,1-2.487-3.7,15.818,15.818,0,0,1-1.4-5.754,17.412,17.412,0,0,1,1.186-7.072,26.531,26.531,0,0,1,4.145-7.113,37.192,37.192,0,0,1,3.009-3.316c1.086-1.069,2.247-2.089,3.316-3.2a14.577,14.577,0,0,0,2.844-3.764,8.622,8.622,0,0,0,.829-4.693,14.632,14.632,0,0,0-1.318-4.668,37.558,37.558,0,0,0-2.313-4.145c-.829-1.343-1.658-2.661-2.338-4.029a16.884,16.884,0,0,1-.9-2.073,18.377,18.377,0,0,1-.672-2.114,19.848,19.848,0,0,1,2.064-14.981A17.037,17.037,0,0,1,475.2,234.8a11.706,11.706,0,0,0,2.968-3.25,7.527,7.527,0,0,0,.962-2.6A7.68,7.68,0,0,0,479.244,228Z" transform="translate(-410.108 -178.489)" fill="#455a64"/>
        <path id="Path_6406" data-name="Path 6406" d="M457.845,438.825l73.364-6.193L468.093,414.21l-67.453,1.716Z" transform="translate(-399.72 -210.319)" fill="#fff"/>
        <path id="Path_6407" data-name="Path 6407" d="M457.656,438.789s-.356-.124-1.045-.39l-3.043-1.186-11.607-4.585-41.6-16.581-.829-.323h.879L467.9,414h.066l4.916,1.434,58.184,17.012.995.29-1.028.083-53.06,4.4-14.981,1.21-3.955.307-1.012.075h0l1.02-.1,3.963-.365,14.981-1.318,53.06-4.56-.041.381-58.2-16.971-4.916-1.434h.008l-67.461,1.658.066-.348,41.5,16.7,11.607,4.684,3.034,1.244C457.308,438.632,457.656,438.789,457.656,438.789Z" transform="translate(-399.53 -210.283)" fill="#263238"/>
        <path id="Path_6408" data-name="Path 6408" d="M545.653,432.733l70.57-5.207L548.92,414.8H485.14Z" transform="translate(-414.164 -210.42)" fill="#e0e0e0"/>
        <path id="Path_6409" data-name="Path 6409" d="M545.4,432.7s-.381-.091-1.111-.3l-3.225-.887-12.27-3.582-43.94-12.95-1.219-.365h65.048l6.06,1.144,61.235,11.607,1.434.274-1.459.108-51.1,3.689-14.384,1.011-3.789.249-.978.058h-.323l.332-.041.97-.083,3.805-.307,14.384-1.119,51.062-3.847v.381l-61.235-11.565-6.085-1.2H484.865l.05-.365,43.891,13.1,12.254,3.681,3.233.953C545.022,432.568,545.4,432.7,545.4,432.7Z" transform="translate(-413.906 -210.388)" fill="#263238"/>
        <path id="Path_6410" data-name="Path 6410" d="M545.045,430.463s1.658-15.329,14.376-14.094,29.606,9.8,43.485,9.8l14.923-1.161L586.034,418.5s-78.852-16.648-78.852-16.125-26.53-5.87-25.577,9.849Z" transform="translate(-413.555 -208.15)" fill="#fff"/>
        <path id="Path_6411" data-name="Path 6411" d="M545.008,430.429l-1.144-.307-3.366-.945-12.834-3.648-46.146-13.174h-.124v-.124a10.7,10.7,0,0,1,.58-4.378,8.1,8.1,0,0,1,2.711-3.615c2.487-1.865,5.679-2.529,8.8-2.8a50.237,50.237,0,0,1,9.642.282c1.658.166,3.242.5,4.908.531,1.658.274,3.316.6,4.974.912,13.265,2.612,27.309,5.546,41.868,8.573l32.856,6.9,30.1,6.21,1.343.282-1.368.108-14.923,1.144h0a60.158,60.158,0,0,1-14.351-2.214c-4.46-1.161-8.622-2.487-12.544-3.689s-7.594-2.28-11.052-3.034a44.753,44.753,0,0,0-4.974-.829,13.564,13.564,0,0,0-4.576.124,11,11,0,0,0-6.4,4.087,17.916,17.916,0,0,0-2.736,5.041,24.049,24.049,0,0,0-1.028,3.383c-.083.4-.133.7-.174.9l-.05.307a11.85,11.85,0,0,1,.166-1.21,24.028,24.028,0,0,1,.929-3.465,18.321,18.321,0,0,1,2.711-5.1,11.209,11.209,0,0,1,6.491-4.2,13.728,13.728,0,0,1,4.643-.141,50.863,50.863,0,0,1,5.033.829c3.465.746,7.155,1.816,11.076,3s8.092,2.487,12.544,3.656a59.868,59.868,0,0,0,14.268,2.164h0l14.923-1.169v.381l-30.1-6.177-32.864-6.89c-14.558-3.026-28.6-5.969-41.859-8.589-1.658-.315-3.316-.638-4.933-.912l-.605-.091h-.158a.518.518,0,0,1,0-.166c-.066-.05.34,0,.141.075a.224.224,0,0,1-.124.116h-.075a1.717,1.717,0,0,1-.365,0,10.044,10.044,0,0,1-1.235-.149l-2.437-.307a49.559,49.559,0,0,0-9.567-.3c-3.092.265-6.218.929-8.606,2.711a7.644,7.644,0,0,0-2.595,3.449,10.173,10.173,0,0,0-.564,4.22l-.133-.166,45.972,13.331,12.859,3.739,3.383.995Z" transform="translate(-413.518 -208.117)" fill="#263238"/>
        <rect id="Rectangle_3010" data-name="Rectangle 3010" width="38.767" height="3.457" rx="0.97" transform="translate(41.934 209.678)" fill="#263238"/>
        <rect id="Rectangle_3011" data-name="Rectangle 3011" width="3.341" height="1.55" rx="0.43" transform="translate(39.563 210.739)" fill="#263238"/>
        <path id="Path_6412" data-name="Path 6412" d="M495.16,421.22l4.651,1.2v.5l-4.651,1.7Z" transform="translate(-415.877 -211.518)" fill="#263238"/>
        <path id="Path_6413" data-name="Path 6413" d="M450.088,422.814a.108.108,0,0,1-.108-.108v-.448a2.487,2.487,0,0,1,2.678-2.28H464.6a.108.108,0,0,1,.108.108.1.1,0,0,1-.108.1H452.658a2.3,2.3,0,0,0-2.487,2.073v.448A.1.1,0,0,1,450.088,422.814Z" transform="translate(-408.154 -211.304)" fill="#263238"/>
        <path id="Path_6414" data-name="Path 6414" d="M471.52,436.958c1.327,0,48.5-3.7,48.5-3.7" transform="translate(-411.836 -213.576)" fill="#fff"/>
        <path id="Path_6415" data-name="Path 6415" d="M520,433.257a2.566,2.566,0,0,1-.489.075l-1.409.149-5.19.464-17.153,1.376-17.153,1.244-5.2.332-1.418.066a2,2,0,0,1-.489,0,2.128,2.128,0,0,1,.489-.083l1.418-.149,5.19-.464,17.145-1.368,17.145-1.244,5.2-.332,1.418-.066A2.09,2.09,0,0,1,520,433.257Z" transform="translate(-411.832 -213.572)" fill="#263238"/>
        <path id="Path_6416" data-name="Path 6416" d="M462.12,433.1c1.335,0,48.509-3.706,48.509-3.706" transform="translate(-410.229 -212.914)" fill="#fff"/>
        <path id="Path_6417" data-name="Path 6417" d="M510.629,429.387a2.128,2.128,0,0,1-.489.083l-1.409.149-5.2.464-17.145,1.368L469.225,432.7l-5.2.323-1.409.066a2.541,2.541,0,0,1-.5,0,2.29,2.29,0,0,1,.5-.083l1.409-.149,5.2-.464,17.145-1.376,17.145-1.244,5.2-.323,1.418-.066a1.907,1.907,0,0,1,.5,0Z" transform="translate(-410.229 -212.911)" fill="#263238"/>
        <path id="Path_6418" data-name="Path 6418" d="M620.532,380.785l-47.8,7.843s-24.988-4.751-28.188-4.2c-6.226,1.086-21.224,14.65-21.224,14.65-.995,6.342,7.727,2.711,7.727,2.711s.075,1.434,2.487,2.678c2.106,1.078,6.284-.929,6.284-.929s-1.061,1.4,2.28,2.8,7.826-1.053,7.826-1.053a4.041,4.041,0,0,0,4.145,2.578c3.383-.017,11.424-2.537,11.424-2.537,11.143,6.118,17.576,1.252,17.576,1.252l38.568,3.316,33.627-1.749s7.81-15.595-7.246-33.254Z" transform="translate(-420.677 -203.598)" fill="#eb996e"/>
        <path id="Path_6419" data-name="Path 6419" d="M557.088,394.028a5.049,5.049,0,0,1-1.111.1l-3.026.1-4.494.091a7.786,7.786,0,0,0-2.553.24,4,4,0,0,0-1.161.647c-.365.3-.73.614-1.1.929-2.985,2.487-5.7,4.751-7.694,6.367l-2.363,1.89a6.105,6.105,0,0,1-.9.655,5.115,5.115,0,0,1,.829-.779l2.28-2c1.932-1.658,4.626-3.963,7.611-6.475l1.111-.929a4.369,4.369,0,0,1,2.678-.945h5.8l3.026.041A6.276,6.276,0,0,1,557.088,394.028Z" transform="translate(-422.29 -206.851)" fill="#eb7741"/>
        <path id="Path_6420" data-name="Path 6420" d="M562.115,399.366a2.677,2.677,0,0,1-.754.182c-.489.083-1.2.2-2.089.323-1.766.265-4.228.6-6.981.953l.108-.05-.605.473c-2.313,1.841-4.427,3.482-5.969,4.651-.771.589-1.4,1.053-1.841,1.368a2.959,2.959,0,0,1-.713.456,3.171,3.171,0,0,1,.614-.589c.406-.357,1-.829,1.749-1.476,1.492-1.235,3.573-2.91,5.895-4.742l.6-.473.05-.041h.058c2.761-.34,5.223-.63,7.006-.829l2.1-.2A3.314,3.314,0,0,1,562.115,399.366Z" transform="translate(-424.1 -207.779)" fill="#eb7741"/>
        <path id="Path_6421" data-name="Path 6421" d="M571.536,405.358a14.668,14.668,0,0,1-2.487.373c-1.55.182-3.706.4-6.085.613h.091c-2.064,1.219-3.946,2.3-5.323,3.059a15.242,15.242,0,0,1-2.272,1.161,15,15,0,0,1,2.106-1.443c1.335-.829,3.192-1.948,5.256-3.167h.05c2.388-.216,4.543-.381,6.1-.481A15.175,15.175,0,0,1,571.536,405.358Z" transform="translate(-426.184 -208.804)" fill="#eb7741"/>
      </g>
      <g id="freepik--character-1--inject-2" transform="translate(38.54 130.692)">
        <path id="Path_6422" data-name="Path 6422" d="M211.342,168.575c-30.485-5.231-33.32,22.343-33.113,30.253s2.9,14.923,5.687,22.335,1.02,17.51-1.327,25.071c-2.744,8.846-11.483,16.963-8.357,25.7,2.487,6.848,11.5,10.206,12.61,17.41.879,5.7-3.706,10.645-5.4,16.15-3.192,10.38,4.145,20.785,10.993,29.191,2.844,3.474,6.276,7.246,10.778,7.312,6.193.083,9.874-6.633,12.668-12.154a105.541,105.541,0,0,1,33.3-38.5" transform="translate(-61.621 -147.254)" fill="#263238"/>
        <path id="Path_6423" data-name="Path 6423" d="M193.884,218.09a5.8,5.8,0,0,1-1.874.68,12.818,12.818,0,0,1-9.335-1.484,5.571,5.571,0,0,1-1.575-1.227c0-.058.647.4,1.724.962a14.533,14.533,0,0,0,9.12,1.476C193.146,218.264,193.859,218.024,193.884,218.09Z" transform="translate(-62.909 -155.482)" fill="#455a64"/>
        <path id="Path_6424" data-name="Path 6424" d="M184.467,289.156a15.915,15.915,0,0,1-1.708-2.3,22.5,22.5,0,0,1-2.106-18.745A29.017,29.017,0,0,1,183.738,262c1.277-2.006,2.711-3.988,4.046-6.1a33.37,33.37,0,0,0,5.124-19.209,35.72,35.72,0,0,0-.6-5.314,33,33,0,0,0-2.371-7.37c-.348-.829-.721-1.459-.929-1.9a3.913,3.913,0,0,1-.307-.672,6.172,6.172,0,0,1,.39.63c.224.423.622,1.02.995,1.865a31.3,31.3,0,0,1,2.487,7.379,35.026,35.026,0,0,1,.655,5.364,31.652,31.652,0,0,1-.274,6.185,32.475,32.475,0,0,1-4.842,13.265c-1.343,2.139-2.786,4.145-4.054,6.1A28.479,28.479,0,0,0,181,268.247a21.871,21.871,0,0,0-.829,11.3,22.518,22.518,0,0,0,2.67,7.229C183.845,288.352,184.509,289.123,184.467,289.156Z" transform="translate(-62.636 -156.401)" fill="#455a64"/>
        <path id="Path_6425" data-name="Path 6425" d="M305.609,266.82s15.28,0,25.7,22.294c7.719,16.581,29.73,72.842,26.257,88.71-.779,3.54-3,11.433-8.672,11.541-9.65.182-16.415-.348-16.415-.348l-12.345-28.561L308.22,319.7S289.027,270.675,305.609,266.82Z" transform="translate(-83.038 -164.16)" fill="#0037b4"/>
        <path id="Path_6426" data-name="Path 6426" d="M308.279,387.785l-3.83-25.825-15.3-95.434-19-1.426-35.716,7.089s-21.075,3.416-31.886,11.134c0,0,3.208,52.231,3.391,57.686.4,11.9,7.81,22.567,15.255,32.01l1.965,2.487-1.011,14.981Z" transform="translate(-66.573 -163.866)" fill="#0037b4"/>
        <path id="Path_6427" data-name="Path 6427" d="M203.278,278.15s-15.023,3.267-24.69,15.752c-7.793,10.073-44.164,54.942-44.164,54.942s-18.7,10.471-22.169,21.274.05,20.378,8.158,20.378,29.017-5.546,29.017-5.546l40.715-46.618.92,8.034,9.319-40.74Z" transform="translate(-50.913 -166.096)" fill="#0037b4"/>
        <path id="Path_6428" data-name="Path 6428" d="M305.34,316.5a2.267,2.267,0,0,1,.174.5c.108.381.249.829.423,1.459.381,1.31.9,3.126,1.534,5.347,1.31,4.51,3.175,10.736,5.273,17.593s4.021,13.008,5.422,17.551l1.658,5.323.423,1.451a2.643,2.643,0,0,1,.124.514,2.123,2.123,0,0,1-.207-.489c-.124-.365-.3-.829-.5-1.426-.439-1.3-1.036-3.092-1.766-5.281-1.459-4.469-3.432-10.653-5.53-17.518s-3.922-13.1-5.157-17.634c-.613-2.272-1.1-4.145-1.409-5.389-.141-.605-.249-1.094-.34-1.476a2.2,2.2,0,0,1-.124-.522Z" transform="translate(-84.145 -172.652)" fill="#263238"/>
        <path id="Path_6429" data-name="Path 6429" d="M283.132,377.654a6.507,6.507,0,0,1-1.053.24,11.279,11.279,0,0,1-1.252.191c-.5.05-1.053.133-1.658.149a28.182,28.182,0,0,1-4.369-.075,32.2,32.2,0,0,1-5.273-.978,31.691,31.691,0,0,1-4.974-1.9,28.6,28.6,0,0,1-3.781-2.205c-.522-.332-.953-.7-1.351-.995a8.989,8.989,0,0,1-.97-.829,5.273,5.273,0,0,1-.771-.754c.058-.066,1.194.97,3.267,2.313a32.259,32.259,0,0,0,3.772,2.1,34.818,34.818,0,0,0,4.974,1.841,34.228,34.228,0,0,0,5.19.995,32.456,32.456,0,0,0,4.319.174C281.607,377.853,283.116,377.546,283.132,377.654Z" transform="translate(-75.999 -181.882)" fill="#263238"/>
        <path id="Path_6430" data-name="Path 6430" d="M209.422,318.6a2.032,2.032,0,0,1-.083.473c-.083.348-.191.829-.323,1.335s-.323,1.277-.5,2.106-.406,1.766-.58,2.811a71.641,71.641,0,0,0-1.086,7.387,89.28,89.28,0,0,0-.431,9.12c.041,3.242.265,6.326.58,9.12a74.533,74.533,0,0,0,1.21,7.362c.2,1.045.439,1.982.63,2.8s.373,1.525.531,2.1l.348,1.327a1.865,1.865,0,0,1,.091.473,1.726,1.726,0,0,1-.174-.448c-.116-.34-.249-.771-.423-1.3s-.4-1.268-.605-2.089-.481-1.749-.7-2.794c-.489-2.081-.937-4.585-1.3-7.379a77.616,77.616,0,0,1-.158-18.331c.323-2.811.73-5.323,1.186-7.4.191-1.053.448-1.981.647-2.81s.4-1.526.572-2.089.29-.97.4-1.318a2.713,2.713,0,0,1,.166-.448Z" transform="translate(-67.163 -173.011)" fill="#263238"/>
        <path id="Path_6431" data-name="Path 6431" d="M308.854,271.06c.041.083-1.277.647-3.076,2.048a18.007,18.007,0,0,0-6.948,15.528c.158,2.272.613,3.631.531,3.648a4,4,0,0,1-.34-.937,16.05,16.05,0,0,1-.489-2.686,17.41,17.41,0,0,1,7.064-15.8,15.049,15.049,0,0,1,2.33-1.418A4.419,4.419,0,0,1,308.854,271.06Z" transform="translate(-82.967 -164.884)" fill="#263238"/>
        <path id="Path_6432" data-name="Path 6432" d="M291.3,329.51a4.823,4.823,0,0,1-.431.829,7.394,7.394,0,0,1-1.824,1.99,10.306,10.306,0,0,1-3.855,1.807,13.73,13.73,0,0,1-5.646.116,34.519,34.519,0,0,1-6.55-1.99,56.679,56.679,0,0,0-7.362-2.562,17.1,17.1,0,0,0-4.145-.506,15.047,15.047,0,0,0-4.278.7,30.13,30.13,0,0,0-8.108,4.328,91.177,91.177,0,0,1-7.71,5.207,19.657,19.657,0,0,1-8.233,2.744,12.9,12.9,0,0,1-4.054-.39,17.827,17.827,0,0,1-3.565-1.4,64.824,64.824,0,0,1-5.8-3.606c-3.449-2.321-6.633-3.615-8.954-3.822a11.8,11.8,0,0,0-3.582.191l.224-.075c.158,0,.381-.116.68-.166a9.6,9.6,0,0,1,2.694-.116c2.363.158,5.613,1.426,9.12,3.739,1.758,1.119,3.631,2.429,5.8,3.54a18.241,18.241,0,0,0,3.5,1.351,12.676,12.676,0,0,0,3.938.356,19.2,19.2,0,0,0,8.042-2.711c2.612-1.459,5.066-3.366,7.677-5.2a30.909,30.909,0,0,1,8.224-4.378,15.33,15.33,0,0,1,4.411-.713,17.747,17.747,0,0,1,4.236.531,56.288,56.288,0,0,1,7.4,2.612,33.166,33.166,0,0,0,6.475,2.023,13.407,13.407,0,0,0,5.53-.041,10.246,10.246,0,0,0,3.814-1.708,7.661,7.661,0,0,0,1.849-1.9A8.844,8.844,0,0,1,291.3,329.51Z" transform="translate(-67.37 -174.751)" fill="#fafafa"/>
        <path id="Path_6433" data-name="Path 6433" d="M340.119,315a.615.615,0,0,1-.166.332,6.181,6.181,0,0,1-.6.829,8.971,8.971,0,0,1-3.068,2.321,14.31,14.31,0,0,1-5.555,1.3,34.415,34.415,0,0,1-6.939-.638,44.24,44.24,0,0,0-6.856-.829,15.825,15.825,0,0,0-5.505.912,10.105,10.105,0,0,0-3.217,1.932c-.655.614-.945,1.028-.978.995s.05-.116.191-.307a5.947,5.947,0,0,1,.672-.829,9.426,9.426,0,0,1,3.225-2.1,15.263,15.263,0,0,1,5.6-1.028,42.339,42.339,0,0,1,6.931.763,35.432,35.432,0,0,0,6.865.672,14.526,14.526,0,0,0,5.439-1.177,9.451,9.451,0,0,0,3.068-2.156A9.318,9.318,0,0,0,340.119,315Z" transform="translate(-84.469 -172.395)" fill="#fafafa"/>
        <path id="Path_6434" data-name="Path 6434" d="M348.334,339.7a.751.751,0,0,1-.141.348,7.287,7.287,0,0,1-.5.945,13.381,13.381,0,0,1-2.487,3.068,15.515,15.515,0,0,1-2.139,1.658,16.975,16.975,0,0,1-2.794,1.443,14.923,14.923,0,0,1-7.088.912,65.581,65.581,0,0,1-7-1.4,22.559,22.559,0,0,0-5.712-.655,11.359,11.359,0,0,0-3.8.73c-.829.332-1.285.614-1.31.572a2.488,2.488,0,0,1,.307-.224,5.693,5.693,0,0,1,.945-.506,10.587,10.587,0,0,1,3.839-.871,21.73,21.73,0,0,1,5.8.564,70.6,70.6,0,0,0,6.964,1.36,14.8,14.8,0,0,0,6.9-.829,16.511,16.511,0,0,0,2.736-1.368A15.827,15.827,0,0,0,345,343.829a14.739,14.739,0,0,0,2.529-2.935C348.068,340.139,348.292,339.683,348.334,339.7Z" transform="translate(-85.86 -176.617)" fill="#fafafa"/>
        <path id="Path_6435" data-name="Path 6435" d="M210.08,367.486a7.513,7.513,0,0,0,3.242-1.725,41.149,41.149,0,0,0,3.059-3.117,20.953,20.953,0,0,1,4.552-3.615,18.175,18.175,0,0,1,6.633-2.346,14.919,14.919,0,0,1,3.946,0,16.163,16.163,0,0,1,4.029,1.128c2.661,1.078,5.2,2.686,8,3.93a16.291,16.291,0,0,0,4.444,1.327,11.178,11.178,0,0,0,2.354.058,13.406,13.406,0,0,0,2.355-.448c3.117-.92,5.8-2.719,8.573-4.145a44.249,44.249,0,0,1,8.291-3.267,47.109,47.109,0,0,1,14.989-1.658,45.048,45.048,0,0,1,10.04,1.658c1.161.315,2.039.638,2.636.829l.672.249.224.1a.827.827,0,0,1-.224-.033l-.688-.207c-.6-.2-1.484-.489-2.645-.779a46.511,46.511,0,0,0-9.982-1.5,47.257,47.257,0,0,0-14.873,1.749,43.219,43.219,0,0,0-8.233,3.258c-2.736,1.393-5.439,3.209-8.647,4.145a13.734,13.734,0,0,1-2.437.464,11.555,11.555,0,0,1-2.487-.066,16.735,16.735,0,0,1-4.552-1.36c-2.844-1.268-5.372-2.885-7.984-3.946a15.751,15.751,0,0,0-3.93-1.128,14.639,14.639,0,0,0-3.855,0,18.023,18.023,0,0,0-6.541,2.255,20.915,20.915,0,0,0-4.527,3.523,38.968,38.968,0,0,1-3.126,3.068,7.626,7.626,0,0,1-2.4,1.393A3.686,3.686,0,0,1,210.08,367.486Z" transform="translate(-67.862 -178.984)" fill="#fafafa"/>
        <path id="Path_6436" data-name="Path 6436" d="M192.022,355.046a2.885,2.885,0,0,0-1.36-.7,5.422,5.422,0,0,0-1.824,0c-.713.108-1.517.307-2.437.431a6.94,6.94,0,0,1-3.034-.274,9.244,9.244,0,0,1-3.026-1.733,13.878,13.878,0,0,1-2.537-2.893,22.381,22.381,0,0,1-1.849-3.673,69.74,69.74,0,0,0-3.034-7.246,11.789,11.789,0,0,0-4.278-4.576,8.922,8.922,0,0,0-2.23-.945,6.915,6.915,0,0,0-1.824-.191c-1.011.058-1.542.274-1.559.224s.124-.066.381-.149a4.637,4.637,0,0,1,1.169-.24,6.7,6.7,0,0,1,1.882.124,8.862,8.862,0,0,1,2.338.912,11.938,11.938,0,0,1,4.469,4.651,62.044,62.044,0,0,1,3.084,7.271,22.534,22.534,0,0,0,1.807,3.606,13.729,13.729,0,0,0,2.437,2.819,9.119,9.119,0,0,0,2.885,1.7,6.79,6.79,0,0,0,2.885.315c1.782-.249,3.316-.614,4.328-.323a2.488,2.488,0,0,1,1.069.547,1.427,1.427,0,0,1,.257.348Z" transform="translate(-59.819 -175.482)" fill="#fafafa"/>
        <path id="Path_6437" data-name="Path 6437" d="M202.511,327.349a1.22,1.22,0,0,1-.274.124,4.784,4.784,0,0,1-.829.24,6.832,6.832,0,0,1-3.175-.257,11.192,11.192,0,0,1-4.071-2.4,30.118,30.118,0,0,1-3.739-4.386,24.674,24.674,0,0,0-3.781-4.228,10.238,10.238,0,0,0-4.071-2.048,6.524,6.524,0,0,0-3.076,0c-.7.182-1.069.4-1.086.356s.075-.075.249-.166a4.483,4.483,0,0,1,.829-.357,6.318,6.318,0,0,1,3.175-.133,10.173,10.173,0,0,1,4.261,2.04,23.443,23.443,0,0,1,3.872,4.278,32.447,32.447,0,0,0,3.664,4.353,11.367,11.367,0,0,0,3.9,2.4,7.015,7.015,0,0,0,3.059.373C202.113,327.457,202.5,327.3,202.511,327.349Z" transform="translate(-62.448 -172.217)" fill="#fafafa"/>
        <path id="Path_6438" data-name="Path 6438" d="M243.909,182.116c-9.625-21.738-37.93-8.821-37.93-8.821-13.348,4.9-15.238,19.9-12.154,30.153,3.424,11.375,8.05,25.129,12.436,32.939,8.838,15.694,22.385,13.074,22.385,13.074l4.543,11.176a18.961,18.961,0,0,0,24.872,10.355h0a18.969,18.969,0,0,0,10.4-24.242Z" transform="translate(-64.864 -147.522)" fill="#ffbe9d"/>
        <path id="Path_6439" data-name="Path 6439" d="M203.54,223.269a2.28,2.28,0,0,0,2.86,1.393,2.189,2.189,0,0,0,1.492-2.752,2.28,2.28,0,0,0-2.86-1.393,2.189,2.189,0,0,0-1.492,2.753Z" transform="translate(-66.728 -156.225)" fill="#263238"/>
        <path id="Path_6440" data-name="Path 6440" d="M201.145,219.532c.373.174,1.542-1.658,3.847-2.487s4.419-.323,4.568-.7c.075-.174-.381-.572-1.318-.829a6.251,6.251,0,0,0-3.781.216,6.019,6.019,0,0,0-2.935,2.3C201.012,218.861,201.012,219.449,201.145,219.532Z" transform="translate(-66.322 -155.357)" fill="#263238"/>
        <path id="Path_6441" data-name="Path 6441" d="M229.53,214.939a2.28,2.28,0,0,0,2.86,1.393,2.189,2.189,0,0,0,1.492-2.752,2.28,2.28,0,0,0-2.86-1.393,2.189,2.189,0,0,0-1.492,2.752Z" transform="translate(-71.17 -154.801)" fill="#263238"/>
        <path id="Path_6442" data-name="Path 6442" d="M228.441,209.4c.373.174,1.55-1.658,3.847-2.487s4.419-.323,4.568-.7c.075-.174-.381-.572-1.318-.829a6.251,6.251,0,0,0-3.781.216,6.019,6.019,0,0,0-2.935,2.313C228.317,208.731,228.267,209.319,228.441,209.4Z" transform="translate(-70.985 -153.626)" fill="#263238"/>
        <path id="Path_6443" data-name="Path 6443" d="M225.327,230.634c-.041-.141-1.559.149-3.988.713-.613.158-1.21.24-1.459-.124a3.2,3.2,0,0,1-.257-1.882c0-1.658.05-3.316.083-5.124.05-7.271-.149-13.157-.439-13.157s-.572,5.895-.622,13.166v5.115a3.656,3.656,0,0,0,.555,2.421,1.592,1.592,0,0,0,1.285.506,4.228,4.228,0,0,0,1.053-.232C223.909,231.289,225.368,230.767,225.327,230.634Z" transform="translate(-69.322 -154.628)" fill="#263238"/>
        <path id="Path_6444" data-name="Path 6444" d="M236.13,263.063a45.283,45.283,0,0,0,20.13-14.243s-1.326,13.522-18.6,18.157Z" transform="translate(-72.315 -161.083)" fill="#eb996e"/>
        <path id="Path_6445" data-name="Path 6445" d="M231.265,242.377a2.156,2.156,0,0,1,1.119-3.863,1.915,1.915,0,0,1,.539-2.3,2.744,2.744,0,0,1,2.413-.439,3.781,3.781,0,0,1,2.694,3.689,4.145,4.145,0,0,1-2.835,3.656,4.568,4.568,0,0,1-4.535-1.177" transform="translate(-71.338 -158.835)" fill="#eb996e"/>
        <path id="Path_6446" data-name="Path 6446" d="M234.542,233.558c-.381.116.539,2.612-.937,5.182s-4.245,3.275-4.145,3.631c0,.174.779.265,1.915-.116a6.633,6.633,0,0,0,3.5-2.893,5.754,5.754,0,0,0,.63-4.286C235.221,233.989,234.707,233.475,234.542,233.558Z" transform="translate(-71.174 -158.473)" fill="#263238"/>
        <path id="Path_6447" data-name="Path 6447" d="M224.219,205.478c.464.547,2.653-.605,5.472-1.277s5.281-.754,5.43-1.451c.058-.323-.539-.771-1.658-1.053a9.783,9.783,0,0,0-8.291,2.081C224.326,204.541,224.028,205.229,224.219,205.478Z" transform="translate(-70.27 -152.992)" fill="#263238"/>
        <path id="Path_6448" data-name="Path 6448" d="M197.31,210.732c.6.373,1.981-.754,3.88-1.484s3.648-.962,3.822-1.658c.058-.332-.39-.754-1.277-.995a6.027,6.027,0,0,0-6.2,2.529C197.02,209.928,197.02,210.549,197.31,210.732Z" transform="translate(-65.646 -153.844)" fill="#263238"/>
        <path id="Path_6449" data-name="Path 6449" d="M240.081,217.217a.522.522,0,0,1-.531.514.531.531,0,1,1,.531-.514Z" transform="translate(-72.809 -155.587)" fill="#263238"/>
        <path id="Path_6450" data-name="Path 6450" d="M287.61,248.569c0-.041-1.658-17.7-15.3-29.846s4.842-16.888-7.014-32.964c-3.9-5.306-8.291-10.131-13.87-13.6a20.987,20.987,0,0,1-2.786-2.106c-2.313-2.048-4.328-4.427-6.848-6.218a11.773,11.773,0,0,0-6.45-2.355h0A18.571,18.571,0,0,0,231,160.265c-6.633-1-13.265,1.658-19.442,4.286-5.994,2.529-22.111,1.915-17.012,18.4h0c1.061-2.744,5.173-4.974,8.415-2.313a9.9,9.9,0,0,1,3.938,6.425c.721,3.839,1.849,8.092,6.5,9.078a8.026,8.026,0,0,0,3.441-.05c3.888-.829,7.006-6.74,14.409-5.347,0,0,7.213,2.238,7.636,6.773s-2.089,12.958,2.355,16.971,5.19,3.9,5.066,7.362a10.638,10.638,0,0,1-.075,1.733c-.564,5.488-1.509,29.316,22.8,25.262l8.175-.5,10.4.257Z" transform="translate(-65.039 -145.909)" fill="#263238"/>
        <path id="Path_6451" data-name="Path 6451" d="M245.49,160.948a24.607,24.607,0,0,1,7.229-13.265,17.339,17.339,0,0,1,14.094-4.494c4.974.837,9.617,4.651,10.778,9.617s-1.5,10.778-6.276,12.544c-3.623,1.368-7.636.473-11.5.381s-8.4,1.152-9.758,4.767" transform="translate(-73.915 -142.993)" fill="#263238"/>
        <path id="Path_6452" data-name="Path 6452" d="M260.659,166.935a2.918,2.918,0,0,0-1.89-2.189,29.544,29.544,0,0,0-2.935-.829,8.291,8.291,0,0,1-3.7-2.346c-.829-.912-1.443-2.006-2.255-2.935a4.4,4.4,0,0,0-3.15-1.716,2.885,2.885,0,0,0-2.57,4.145c3.117,2.545,6.268,5.289,9.816,7.188a7.685,7.685,0,0,0,3.971,1.26C259.357,169.422,260.8,168.3,260.659,166.935Z" transform="translate(-73.638 -145.374)" fill="#0037b4"/>
        <path id="Path_6453" data-name="Path 6453" d="M312.064,258.925a4.262,4.262,0,0,1,.058-.688c.058-.448.108-1.111.158-1.957a24.715,24.715,0,0,0-.771-7.163,23.911,23.911,0,0,0-4.817-9.443c-2.57-3.109-6.284-5.646-10.231-8.125s-7.735-4.974-10.5-8a19.178,19.178,0,0,1-3.275-4.775,14.375,14.375,0,0,1-1.293-4.883,11.549,11.549,0,0,1,1.517-7.047,8.166,8.166,0,0,1,1.227-1.559,5.213,5.213,0,0,1,.514-.464,15.914,15.914,0,0,0-1.6,2.106,11.664,11.664,0,0,0-1.351,6.939,13.97,13.97,0,0,0,1.31,4.751,19.145,19.145,0,0,0,3.242,4.659c2.728,2.976,6.483,5.43,10.438,7.909s7.7,5.049,10.305,8.241a24.142,24.142,0,0,1,5.447,16.863,19.41,19.41,0,0,1-.24,1.965A3.611,3.611,0,0,1,312.064,258.925Z" transform="translate(-80.042 -153.562)" fill="#263238"/>
        <path id="Path_6454" data-name="Path 6454" d="M244.308,169.89a5.884,5.884,0,0,1-.282.622c-.191.406-.506.995-.937,1.724a34.384,34.384,0,0,1-4.27,5.8,36.039,36.039,0,0,1-8.291,6.765,29.963,29.963,0,0,1-5.737,2.686,13.663,13.663,0,0,1-6.773.622,8.332,8.332,0,0,1-3.208-1.368,10.106,10.106,0,0,1-2.379-2.413,53.575,53.575,0,0,1-3.117-5.5,21.331,21.331,0,0,0-1.559-2.487,11.714,11.714,0,0,0-1.89-1.948,12.013,12.013,0,0,0-4.361-2.147,12.3,12.3,0,0,0-7,.216,18.931,18.931,0,0,0-2.4,1.069,4.146,4.146,0,0,1,.564-.381,4.438,4.438,0,0,1,.73-.4,7.458,7.458,0,0,1,1.045-.448,12.436,12.436,0,0,1,11.665,1.816,11.606,11.606,0,0,1,1.965,2.006,20.312,20.312,0,0,1,1.608,2.487,55.1,55.1,0,0,0,3.109,5.439,9.949,9.949,0,0,0,2.288,2.313,8.075,8.075,0,0,0,3.051,1.293,13.34,13.34,0,0,0,6.55-.605,28.852,28.852,0,0,0,5.662-2.628,36.57,36.57,0,0,0,8.291-6.632,37.516,37.516,0,0,0,4.353-5.679c.448-.721.779-1.285.995-1.658a4.432,4.432,0,0,1,.323-.572Z" transform="translate(-64.791 -147.591)" fill="#455a64"/>
        <path id="Path_6455" data-name="Path 6455" d="M254.585,171.89a6.108,6.108,0,0,1,.166,1.152c.041.373,0,.829.05,1.368a16.879,16.879,0,0,1-.133,1.807,18.455,18.455,0,0,1-4.145,9.534,17.452,17.452,0,0,1-4.336,3.814,30.576,30.576,0,0,1-4.228,2.073c-1.227.522-2.214.953-2.885,1.268a6.585,6.585,0,0,1-1.053.481,5.4,5.4,0,0,1,.978-.63c.647-.365,1.658-.829,2.835-1.393a33.634,33.634,0,0,0,4.145-2.131,17.733,17.733,0,0,0,4.22-3.756,19.068,19.068,0,0,0,4.145-9.3A29.131,29.131,0,0,0,254.585,171.89Z" transform="translate(-72.638 -147.933)" fill="#455a64"/>
        <path id="Path_6456" data-name="Path 6456" d="M284.631,252.977a3.4,3.4,0,0,1,0-.7c0-.464.058-1.136,0-2.015a28.821,28.821,0,0,0-1.045-7.279,31.874,31.874,0,0,0-1.8-4.751,29.083,29.083,0,0,0-3.068-4.974,27.286,27.286,0,0,0-4.5-4.585c-1.741-1.4-3.714-2.653-5.571-4.145a19.72,19.72,0,0,1-2.57-2.487,12.935,12.935,0,0,1-1.857-2.943,21.374,21.374,0,0,1-1.592-6.326c-.249-2.064-.348-4.029-.539-5.853a25.166,25.166,0,0,0-.97-4.974,12.726,12.726,0,0,0-3.8-6.16A11.431,11.431,0,0,0,255,194.42a4.4,4.4,0,0,1,.672.224,8.289,8.289,0,0,1,1.749,1.011,12.535,12.535,0,0,1,3.988,6.2,24.528,24.528,0,0,1,1.036,5.032c.207,1.841.323,3.8.572,5.845a21.489,21.489,0,0,0,1.583,6.2,14.707,14.707,0,0,0,4.319,5.265c1.832,1.509,3.8,2.769,5.563,4.187a27.774,27.774,0,0,1,4.56,4.651,29.525,29.525,0,0,1,3.076,5.032,33.019,33.019,0,0,1,1.774,4.825,28.021,28.021,0,0,1,.92,7.362,17.516,17.516,0,0,1-.124,2.015A3.32,3.32,0,0,1,284.631,252.977Z" transform="translate(-75.541 -151.784)" fill="#455a64"/>
        <path id="Path_6457" data-name="Path 6457" d="M278.335,150.875a15.221,15.221,0,0,0-3.946-1.658,14.509,14.509,0,0,0-10.032,1.36,20.006,20.006,0,0,0-7.329,7.188,30.189,30.189,0,0,0-1.517,2.769,6.7,6.7,0,0,1-.531,1.045,5.154,5.154,0,0,1,.381-1.111,21.382,21.382,0,0,1,1.409-2.86,19.3,19.3,0,0,1,7.387-7.412,14.318,14.318,0,0,1,10.305-1.285,10.836,10.836,0,0,1,2.943,1.268,6.993,6.993,0,0,1,.7.5C278.268,150.792,278.343,150.867,278.335,150.875Z" transform="translate(-75.537 -143.93)" fill="#455a64"/>
        <path id="Path_6458" data-name="Path 6458" d="M277.54,162.984c-.041.066-.978-.63-2.694-1.36a15.578,15.578,0,0,0-13.928.771,24.011,24.011,0,0,0-2.487,1.658,2.685,2.685,0,0,1,.564-.589,12.5,12.5,0,0,1,1.807-1.327,14.923,14.923,0,0,1,14.2-.829,13.131,13.131,0,0,1,1.94,1.119A3.327,3.327,0,0,1,277.54,162.984Z" transform="translate(-76.127 -145.883)" fill="#455a64"/>
        <path id="Path_6459" data-name="Path 6459" d="M201.336,439.683,127.98,433.49l63.108-18.43,66.391.108Z" transform="translate(-53.828 -189.499)" fill="#fff"/>
        <path id="Path_6460" data-name="Path 6460" d="M201.125,439.637s.348-.174,1.02-.473l2.976-1.335,11.342-4.974,40.74-17.891.066.348-66.392-.075h.058l-5.613,1.658-57.537,16.731v-.373l53.06,4.552,14.989,1.327,3.963.356,1.02.108.348.041h-.34l-1.02-.066-3.955-.307-15.006-1.227-53.06-4.4-1.036-.083.995-.29,57.5-16.813,5.613-1.658h.058l66.391.141h.871l-.829.34L216.5,433.029l-11.366,4.916-2.993,1.277Z" transform="translate(-53.618 -189.453)" fill="#263238"/>
        <path id="Path_6461" data-name="Path 6461" d="M113.43,433.591l-70.57-5.207,67.3-12.734h63.788Z" transform="translate(-39.278 -189.6)" fill="#e0e0e0"/>
        <path id="Path_6462" data-name="Path 6462" d="M113.147,433.548s.373-.133,1.1-.357l3.217-.987,12.262-3.681,43.891-13.091.058.357H109.889l-6.06,1.144-61.235,11.59v-.373L93.656,432l14.384,1.111,3.8.315.978.083.332.041h-.332l-.97-.058-3.8-.249L93.664,432.23l-51.1-3.689-1.451-.108,1.434-.274,61.226-11.607,6.06-1.152h65.057l-1.219.356-43.94,12.958L117.467,432.3l-3.233.929C113.5,433.457,113.147,433.548,113.147,433.548Z" transform="translate(-38.979 -189.557)" fill="#263238"/>
        <path id="Path_6463" data-name="Path 6463" d="M112.994,431.315s-1.658-15.329-14.376-14.094-29.614,9.8-43.484,9.8L40.21,425.859l31.77-6.541s78.861-16.656,78.861-16.134,26.53-5.862,25.568,9.858Z" transform="translate(-38.825 -187.324)" fill="#fff"/>
        <path id="Path_6464" data-name="Path 6464" d="M112.708,431.278s.4-.133,1.169-.356l3.391-.995,12.851-3.747,45.972-13.323-.124.166a10.356,10.356,0,0,0-.564-4.228,7.743,7.743,0,0,0-2.595-3.441c-2.4-1.791-5.522-2.446-8.606-2.711a49.512,49.512,0,0,0-9.567.29l-2.437.315c-.415.05-.829.108-1.244.149a1.657,1.657,0,0,1-.357,0h-.075a.265.265,0,0,1-.133-.116c0-.1-.058-.124,0,0s.108.05.108.066h-.166l-.605.091c-1.658.265-3.316.589-4.974.912-13.265,2.62-27.3,5.563-41.859,8.589l-32.856,6.881-30.07,6.243v-.381l14.923,1.169h0a59.922,59.922,0,0,0,14.21-2.2c4.452-1.144,8.614-2.487,12.535-3.648s7.611-2.255,11.085-3a46.6,46.6,0,0,1,5.024-.829,13.571,13.571,0,0,1,4.651.149,11.184,11.184,0,0,1,6.483,4.2,18.106,18.106,0,0,1,2.711,5.1,22.931,22.931,0,0,1,.929,3.457,10.887,10.887,0,0,1,.174,1.219,1.229,1.229,0,0,0-.058-.307c-.058-.2-.083-.506-.174-.9a23.477,23.477,0,0,0-.97-3.432,18.356,18.356,0,0,0-2.736-5.041,11.076,11.076,0,0,0-6.409-4.1,13.788,13.788,0,0,0-4.576-.116c-1.6.191-3.316.481-4.974.829-3.457.754-7.13,1.832-11.051,3.034s-8.075,2.529-12.535,3.689a60.292,60.292,0,0,1-14.351,2.214h0l-14.94-1.111-1.376-.1,1.351-.282,30.1-6.251,32.864-6.9c14.558-3.026,28.6-5.961,41.859-8.573,1.658-.315,3.316-.638,4.974-.912,1.658-.041,3.266-.373,4.9-.531a49.677,49.677,0,0,1,9.65-.282c3.126.274,6.309.937,8.8,2.8a8.075,8.075,0,0,1,2.686,3.615,10.662,10.662,0,0,1,.572,4.369v.133h-.124l-46.146,13.174-12.834,3.64-3.366.953Z" transform="translate(-38.54 -187.287)" fill="#263238"/>
        <path id="Path_6465" data-name="Path 6465" d="M204.589,437.816c-1.335,0-48.509-3.706-48.509-3.706" transform="translate(-58.632 -192.755)" fill="#fff"/>
        <path id="Path_6466" data-name="Path 6466" d="M156.08,434.107a2.537,2.537,0,0,1,.5,0l1.418.066,5.2.323,17.145,1.252,17.128,1.368,5.2.464,1.409.149a2.287,2.287,0,0,1,.5.083,2.09,2.09,0,0,1-.5,0l-1.409-.075-5.2-.323-17.162-1.244-17.128-1.326-5.2-.464-1.409-.149A1.658,1.658,0,0,1,156.08,434.107Z" transform="translate(-58.632 -192.753)" fill="#263238"/>
        <path id="Path_6467" data-name="Path 6467" d="M214,433.948c-1.327,0-48.5-3.7-48.5-3.7" transform="translate(-60.242 -192.096)" fill="#fff"/>
        <path id="Path_6468" data-name="Path 6468" d="M165.48,430.247a2.043,2.043,0,0,1,.5,0l1.409.066,5.207.332,17.145,1.244,17.145,1.376,5.19.464,1.418.149a2.57,2.57,0,0,1,.489.075,2,2,0,0,1-.489,0l-1.418-.066-5.2-.332-17.153-1.244-17.178-1.368-5.19-.464-1.409-.149a2.13,2.13,0,0,1-.464-.083Z" transform="translate(-60.239 -192.093)" fill="#263238"/>
        <path id="Path_6469" data-name="Path 6469" d="M228.437,429.641c-1.335,0-50.747-2.951-50.747-2.951" transform="translate(-62.326 -191.487)" fill="#fff"/>
        <path id="Path_6470" data-name="Path 6470" d="M177.69,426.688a3.018,3.018,0,0,1,.514,0l1.484.041,5.439.249,17.941.978,17.941,1.1,5.43.39,1.484.124a2.23,2.23,0,0,1,.514.075,2.486,2.486,0,0,1-.514,0l-1.484-.05L221,429.349l-17.949-.978-17.941-1.1-5.43-.39-1.476-.124A2.123,2.123,0,0,1,177.69,426.688Z" transform="translate(-62.326 -191.485)" fill="#263238"/>
        <path id="Path_6471" data-name="Path 6471" d="M241.153,424.989c-1.327,0-51.253-1.849-51.253-1.849" transform="translate(-64.413 -190.88)" fill="#fff"/>
        <path id="Path_6472" data-name="Path 6472" d="M189.9,423.137a2.144,2.144,0,0,1,.522,0h1.492l5.5.133,18.115.589,18.123.721,5.5.265,1.492.091a2.485,2.485,0,0,1,.514.066,2.035,2.035,0,0,1-.514,0h-1.492l-5.5-.124-18.132-.6-18.074-.721-5.5-.265-1.492-.1A3.123,3.123,0,0,1,189.9,423.137Z" transform="translate(-64.413 -190.877)" fill="#263238"/>
        <path id="Path_6473" data-name="Path 6473" d="M252.724,419.787l-50.614-.207" transform="translate(-66.5 -190.272)" fill="#fff"/>
        <path id="Path_6474" data-name="Path 6474" d="M202.11,419.552c0-.116,11.333-.166,25.3-.116s25.311.2,25.311.323-11.333.166-25.311.108S202.11,419.668,202.11,419.552Z" transform="translate(-66.5 -190.244)" fill="#263238"/>
        <path id="Path_6475" data-name="Path 6475" d="M113.77,415.561a4.143,4.143,0,0,1,.987-.29,14.1,14.1,0,0,1,2.811-.332,15.918,15.918,0,0,1,14.923,9.493,14,14,0,0,1,.9,2.678,4.23,4.23,0,0,1,.158,1.028,32.341,32.341,0,0,0-1.335-3.573,16.233,16.233,0,0,0-14.674-9.319A32.107,32.107,0,0,0,113.77,415.561Z" transform="translate(-51.399 -189.478)" fill="#263238"/>
        <path id="Path_6476" data-name="Path 6476" d="M123.12,413.091a3.875,3.875,0,0,1,.995-.3,13.993,13.993,0,0,1,2.8-.323,15.9,15.9,0,0,1,14.923,9.493,14.275,14.275,0,0,1,.9,2.678,4.231,4.231,0,0,1,.158,1.028,32.035,32.035,0,0,0-1.335-3.582,16.241,16.241,0,0,0-14.666-9.31A30.07,30.07,0,0,0,123.12,413.091Z" transform="translate(-52.998 -189.056)" fill="#263238"/>
        <path id="Path_6477" data-name="Path 6477" d="M132.8,411.324a4.8,4.8,0,0,1,.978-.307,17.88,17.88,0,0,1,2.753-.439,15.421,15.421,0,0,1,4.145.191,12.942,12.942,0,0,1,4.726,1.89,16.142,16.142,0,0,1,5.9,6.964,13.77,13.77,0,0,1,.887,2.645,3.837,3.837,0,0,1,.149,1.011,30.579,30.579,0,0,0-1.31-3.532,16.756,16.756,0,0,0-5.862-6.732,14.235,14.235,0,0,0-8.622-2.1C134.226,411.009,132.817,411.407,132.8,411.324Z" transform="translate(-54.652 -188.722)" fill="#263238"/>
        <path id="Path_6478" data-name="Path 6478" d="M143.14,409.171a4.187,4.187,0,0,1,.937-.307,18.31,18.31,0,0,1,2.653-.506,12.815,12.815,0,0,1,4.013.124,11.88,11.88,0,0,1,4.518,1.965,16.2,16.2,0,0,1,5.613,6.848,14.37,14.37,0,0,1,.829,2.562,3.764,3.764,0,0,1,.141.987,32.847,32.847,0,0,0-1.26-3.424,16.714,16.714,0,0,0-5.58-6.633,11.856,11.856,0,0,0-4.344-1.932,13.191,13.191,0,0,0-3.913-.207C144.516,408.873,143.157,409.254,143.14,409.171Z" transform="translate(-56.42 -188.336)" fill="#263238"/>
        <path id="Path_6479" data-name="Path 6479" d="M153.77,407.446a3.554,3.554,0,0,1,.9-.315c.58-.174,1.426-.415,2.487-.647a9.841,9.841,0,0,1,3.847-.149,10.553,10.553,0,0,1,4.261,2.031,16.083,16.083,0,0,1,5.24,6.674,14.581,14.581,0,0,1,.788,2.487,4.145,4.145,0,0,1,.133.937c-.083,0-.307-1.318-1.2-3.316A16.78,16.78,0,0,0,165,408.706a10.528,10.528,0,0,0-4.079-1.99,10.074,10.074,0,0,0-3.722.058C155.1,407.18,153.787,407.52,153.77,407.446Z" transform="translate(-58.237 -187.987)" fill="#263238"/>
        <path id="Path_6480" data-name="Path 6480" d="M148.9,379.466c2.238.39,4.518-.2,6.782-.3s4.85.464,6.019,2.413a5.356,5.356,0,0,1,0,4.925,15.751,15.751,0,0,1-3.084,4.071" transform="translate(-57.404 -183.362)" fill="#ffbe9d"/>
        <rect id="Rectangle_3012" data-name="Rectangle 3012" width="58.772" height="5.24" rx="0.97" transform="matrix(0.615, 0.788, -0.788, 0.615, 71.723, 167.839)" fill="#263238"/>
        <rect id="Rectangle_3013" data-name="Rectangle 3013" width="5.066" height="2.346" rx="0.43" transform="matrix(0.615, 0.788, -0.788, 0.615, 68.514, 165.797)" fill="#263238"/>
        <path id="Path_6481" data-name="Path 6481" d="M162.14,402.689l5.779,4.444.589-.464-1.691-6.118Z" transform="translate(-59.668 -187.019)" fill="#263238"/>
        <path id="Path_6482" data-name="Path 6482" d="M132.6,367.254a.116.116,0,0,1-.083-.041l-11.134-14.268c-1.36-1.741-1.268-4.1.207-5.256l.539-.415a.1.1,0,1,1,.141.149l-.531.414c-1.393,1.086-1.467,3.316-.182,4.974L132.7,367.08a.116.116,0,0,1,0,.149A.091.091,0,0,1,132.6,367.254Z" transform="translate(-52.536 -177.907)" fill="#263238"/>
        <path id="Path_6483" data-name="Path 6483" d="M138.763,373.563s-3.615-3.076-6.326-2.719-11.756,10.131-12.121,15.918-2.711,9.227,1.451,11.607,10.67,6.152,15.006,4.883c0,0,7.661.879,8.523-1.169,0,0,6.715,2.147,7.213-2.446,0,0,4.817-.763,4.527-3.706S138.763,373.563,138.763,373.563Z" transform="translate(-52.35 -181.936)" fill="#ffbe9d"/>
        <path id="Path_6484" data-name="Path 6484" d="M155.555,401.873c-.083.091-4.27-3.822-9.352-8.73s-9.12-8.962-9.053-9.053,4.27,3.83,9.352,8.738S155.638,401.79,155.555,401.873Z" transform="translate(-55.396 -184.205)" fill="#eb996e"/>
        <path id="Path_6485" data-name="Path 6485" d="M147.215,405.776a3.226,3.226,0,0,1-.829-.307,20.627,20.627,0,0,1-2.023-1.069,44.277,44.277,0,0,1-6.094-4.444c-2.239-1.915-4.145-3.764-5.538-5.107l-1.617-1.608c-.381-.381-.58-.605-.556-.63a3.875,3.875,0,0,1,.672.514c.415.34.995.829,1.708,1.5,1.434,1.285,3.383,3.092,5.613,4.974a56.066,56.066,0,0,0,5.978,4.51C146.179,405.17,147.249,405.709,147.215,405.776Z" transform="translate(-54.269 -185.662)" fill="#eb996e"/>
        <path id="Path_6486" data-name="Path 6486" d="M138.068,407.776a8.392,8.392,0,0,1-2.048-.829,40.259,40.259,0,0,1-4.585-2.777,45.116,45.116,0,0,1-4.237-3.316,8.945,8.945,0,0,1-1.559-1.583,15.066,15.066,0,0,1,1.758,1.343c1.069.829,2.57,1.99,4.278,3.175s3.316,2.172,4.485,2.86a18.583,18.583,0,0,1,1.907,1.128Z" transform="translate(-53.428 -186.8)" fill="#eb996e"/>
        <path id="Path_6487" data-name="Path 6487" d="M328.32,376.846a27.592,27.592,0,0,0-17.211-2.1c-9.858,1.923-30.534,6.856-37.681,7.677s-37.308,7.569-37.308,7.569l3.175,17.933,98.5-.207C339.571,396.909,342.9,383.5,328.32,376.846Z" transform="translate(-72.313 -182.516)" fill="#ffbe9d"/>
        <path id="Path_6488" data-name="Path 6488" d="M227.662,409.733h6.633l10.653-20.95c-1.368-.232-29.846-4.436-31.5-3.98l-6.823,24.242S227.007,409.733,227.662,409.733Z" transform="translate(-67.271 -184.321)" fill="#ffbe9d"/>
        <path id="Path_6489" data-name="Path 6489" d="M207.808,413.232c0,.041.182.075.473.108,2.346.257,13.2-.406,13.2-.406.489-1.4-.448-5.6-1.8-5.853s-12.892.531-12.892.531-1.816.24-2.272,3.316C204.235,412.809,207.808,413.232,207.808,413.232Z" transform="translate(-66.909 -188.127)" fill="#ffbe9d"/>
        <path id="Path_6490" data-name="Path 6490" d="M203.377,405.792c0,.041.191.083.481.108,2.346.257,12.6.149,13.041-1.1.5-1.4-.29-4.908-1.658-5.157s-12.892.531-12.892.531-1.824.24-2.272,3.316C199.812,405.36,203.377,405.792,203.377,405.792Z" transform="translate(-66.15 -186.855)" fill="#ffbe9d"/>
        <path id="Path_6491" data-name="Path 6491" d="M201.185,398.532a1.177,1.177,0,0,0,.473.108c2.355.257,12.61.141,13.049-1.111.5-1.4-.29-4.908-1.658-5.148s-12.9.531-12.9.531-1.816.24-2.272,3.316C197.62,398.093,201.185,398.532,201.185,398.532Z" transform="translate(-65.774 -185.614)" fill="#ffbe9d"/>
        <path id="Path_6492" data-name="Path 6492" d="M199.125,391.3c0,.041.191.075.473.108,2.355.257,12.61.141,13.049-1.111.5-1.393-.29-4.908-1.658-5.148s-12.9.531-12.9.531-1.816.24-2.272,3.316C195.56,390.863,199.125,391.3,199.125,391.3Z" transform="translate(-65.422 -184.379)" fill="#ffbe9d"/>
        <path id="Path_6493" data-name="Path 6493" d="M217.157,406.956c0,.174-2.255.381-4.974.464s-4.974,0-4.933-.182,2.247-.381,4.974-.464A19.805,19.805,0,0,1,217.157,406.956Z" transform="translate(-67.378 -188.078)" fill="#eb996e"/>
        <path id="Path_6494" data-name="Path 6494" d="M216.328,399.695c0,.174-3.167.423-7.1.547s-7.113.075-7.122-.1,3.175-.423,7.105-.547S216.328,399.512,216.328,399.695Z" transform="translate(-66.5 -186.843)" fill="#eb996e"/>
        <path id="Path_6495" data-name="Path 6495" d="M215.748,392.276c0,.182-3.175.423-7.1.547s-7.122.083-7.122-.091,3.167-.423,7.1-.547S215.74,392.1,215.748,392.276Z" transform="translate(-66.401 -185.577)" fill="#eb996e"/>
        <path id="Path_6496" data-name="Path 6496" d="M233.655,386.187s-19.359-8.606-20.569-7.362-3.076,5.24-3.076,5.24Z" transform="translate(-67.85 -183.284)" fill="#ffbe9d"/>
      </g>
      <g id="freepik--Clock--inject-2" transform="translate(259.795 59.989)">
        <circle id="Ellipse_2" data-name="Ellipse 2" cx="44.612" cy="44.612" r="44.612" transform="translate(0 42.218) rotate(-28.24)" fill="#ebebeb"/>
        <path id="Path_6497" data-name="Path 6497" d="M324.568,122.572v4.4c0,.572.1,1.2.158,1.882s.133,1.409.2,2.189a8.759,8.759,0,0,0,.174,1.2c.083.415.166.829.249,1.268a42.281,42.281,0,0,0,4.145,12.146,44.421,44.421,0,0,0,10.446,13.331l1.824,1.55c.647.489,1.327.937,2.006,1.418a20.553,20.553,0,0,0,2.073,1.393l2.23,1.26c.381.207.754.431,1.136.63l1.2.531,2.437,1.069c.829.34,1.7.58,2.562.879a23.667,23.667,0,0,0,2.645.779,41.709,41.709,0,0,0,5.563,1.02c.953.091,1.907.249,2.885.3l2.943.041h1.484l1.492-.133c.995-.1,2.006-.149,3.009-.29a47.01,47.01,0,0,0,6.027-1.343l1.509-.439.754-.232.73-.3,2.951-1.194c.97-.439,1.907-.97,2.869-1.459.473-.265.97-.481,1.426-.779l1.368-.887a49.964,49.964,0,0,0,5.306-3.946l2.421-2.33.605-.589.555-.638,1.1-1.293,1.1-1.293.995-1.4.987-1.409.489-.7c.149-.24.29-.5.431-.746l1.708-3.026c.473-1.069.945-2.131,1.418-3.208a43.925,43.925,0,0,0,1.841-27.956c-.332-1.119-.655-2.238-.987-3.316s-.871-2.156-1.3-3.225l-.323-.829-.4-.771-.829-1.525-.829-1.517-.879-1.4-.929-1.426-.464-.7-.522-.663-2.089-2.628a49.652,49.652,0,0,0-4.751-4.6l-1.244-1.061c-.406-.356-.871-.638-1.31-.962-.887-.605-1.749-1.26-2.653-1.824l-2.769-1.575-.688-.39c-.232-.116-.481-.216-.721-.323l-1.434-.63a45.109,45.109,0,0,0-5.8-2.122c-.978-.274-1.973-.456-2.951-.68l-1.451-.307c-.489-.1-.987-.133-1.476-.2l-2.927-.34c-.97-.075-1.94-.05-2.893-.075a40.946,40.946,0,0,0-5.646.282,22.788,22.788,0,0,0-2.728.431c-.9.182-1.791.3-2.661.531l-2.553.746-1.26.365-1.2.481-2.379.953c-.788.3-1.5.746-2.239,1.111s-1.443.688-2.172,1.1l-2.015,1.3a44.471,44.471,0,0,0-12.1,11.847,42.706,42.706,0,0,0-5.7,11.5c-.133.423-.274.829-.406,1.227a7.912,7.912,0,0,0-.332,1.161c-.166.771-.332,1.484-.481,2.147s-.307,1.277-.4,1.841-.133,1.086-.191,1.55c-.116.92-.207,1.658-.265,2.106s-.108.721-.108.721a6.628,6.628,0,0,1,.058-.721c.058-.473.133-1.194.224-2.114.05-.464.108-.987.174-1.559s.24-1.177.381-1.849.3-1.385.464-2.156a7.124,7.124,0,0,1,.323-1.177c.133-.4.265-.829.4-1.227a42.283,42.283,0,0,1,5.663-11.607A44.355,44.355,0,0,1,344.383,88.19l2.023-1.318c.7-.406,1.443-.763,2.18-1.161a17.291,17.291,0,0,1,2.255-1.119l2.4-.97,1.21-.481,1.268-.373,2.57-.763c.879-.224,1.783-.356,2.678-.539a21.734,21.734,0,0,1,2.744-.439,41.734,41.734,0,0,1,5.7-.3c.97,0,1.948,0,2.918.075l2.952.34c.5.066.995.1,1.492.191l1.476.323c.978.232,1.99.415,2.976.688a45.826,45.826,0,0,1,5.87,2.156l1.451.638c.24.108.489.207.73.323l.688.4,2.8,1.575c.912.572,1.783,1.227,2.678,1.841.439.323.912.605,1.327.97l1.252,1.069a49.634,49.634,0,0,1,4.8,4.643l2.106,2.645.531.672.473.713.937,1.434.937,1.443.829,1.534.829,1.542.406.771.332.829c.431,1.086.871,2.172,1.31,3.258l.995,3.391a44.314,44.314,0,0,1-1.857,28.23l-1.434,3.233-1.724,3.051c-.141.257-.282.514-.431.763l-.506.713-.995,1.418-.995,1.409-1.119,1.31-1.194,1.252-.555.647-.614.589-2.437,2.355a50.878,50.878,0,0,1-5.364,3.971l-1.385.9c-.456.3-.962.514-1.434.779-.978.489-1.923,1.028-2.9,1.476l-2.951,1.227-.746.3c-.249.083-.506.149-.754.224l-1.525.448a48.083,48.083,0,0,1-6.077,1.351c-1.011.133-2.031.182-3.043.282l-1.5.133h-1.5l-2.968-.05c-.978-.05-1.948-.207-2.91-.307a41.273,41.273,0,0,1-5.6-1.036,22.392,22.392,0,0,1-2.661-.829c-.871-.3-1.749-.547-2.587-.887l-2.446-1.086-1.21-.539c-.39-.2-.763-.423-1.144-.638l-2.238-1.268c-.754-.406-1.4-.953-2.089-1.409s-1.368-.945-2.015-1.434l-1.832-1.567a44.463,44.463,0,0,1-10.463-13.456,42.282,42.282,0,0,1-4.1-12.229c-.083-.431-.158-.829-.24-1.268a7.845,7.845,0,0,1-.166-1.21c-.058-.779-.124-1.517-.174-2.2s-.124-1.31-.141-1.882,0-1.1,0-1.567a20.707,20.707,0,0,1,.058-2.122A4.007,4.007,0,0,0,324.568,122.572Z" transform="translate(-308.669 -65.09)" fill="#263238"/>
        <path id="Path_6498" data-name="Path 6498" d="M398.423,130.953a9.948,9.948,0,0,1-1.575.1l-4.336.091c-3.681.05-8.8.083-14.592.091h-.29v-3.175c0-6.467,0-12.312.083-16.581,0-2.039.075-3.731.091-5.016a11.609,11.609,0,0,1,.116-1.832,11.19,11.19,0,0,1,.108,1.832c0,1.285.058,2.976.1,5.016.05,4.237.083,10.081.083,16.581v2.893l-.274-.315c5.8,0,10.911.041,14.592.1l4.336.083a8.211,8.211,0,0,1,1.559.133Z" transform="translate(-317.757 -69.177)" fill="#263238"/>
        <path id="Path_6499" data-name="Path 6499" d="M378.082,89.75a12.041,12.041,0,0,1,.29,3.747,12.041,12.041,0,0,1-.29,3.747A12.2,12.2,0,0,1,377.8,93.5,14.387,14.387,0,0,1,378.082,89.75Z" transform="translate(-317.786 -66.633)" fill="#263238"/>
        <path id="Path_6500" data-name="Path 6500" d="M401.581,97a11.8,11.8,0,0,1-2.4,2.819,12.84,12.84,0,0,1-2.819,2.4,12.639,12.639,0,0,1,2.4-2.811A12.48,12.48,0,0,1,401.581,97Z" transform="translate(-320.957 -67.871)" fill="#263238"/>
        <path id="Path_6501" data-name="Path 6501" d="M415.7,112.666a15.838,15.838,0,0,1-3.076,2.056,14.757,14.757,0,0,1-3.242,1.782,16.468,16.468,0,0,1,6.318-3.839Z" transform="translate(-323.183 -70.547)" fill="#263238"/>
        <path id="Path_6502" data-name="Path 6502" d="M423.292,135.85a45.16,45.16,0,0,1-10.222,0,45.16,45.16,0,0,1,10.222,0Z" transform="translate(-323.815 -74.464)" fill="#263238"/>
        <path id="Path_6503" data-name="Path 6503" d="M337.94,135.03a40.26,40.26,0,0,1-9.65,0,40.262,40.262,0,0,1,9.65,0Z" transform="translate(-309.323 -74.324)" fill="#263238"/>
        <path id="Path_6504" data-name="Path 6504" d="M344.42,152.388a22.109,22.109,0,0,1-3.648,3.316,20.484,20.484,0,0,1-4.013,2.86,21.693,21.693,0,0,1,3.648-3.316C342.513,153.541,344.3,152.264,344.42,152.388Z" transform="translate(-310.77 -77.339)" fill="#263238"/>
        <path id="Path_6505" data-name="Path 6505" d="M359.832,165.769a32.564,32.564,0,0,1-2.487,4.3,34.012,34.012,0,0,1-2.628,4.212,16.078,16.078,0,0,1,2.139-4.51A16.53,16.53,0,0,1,359.832,165.769Z" transform="translate(-313.838 -79.627)" fill="#263238"/>
        <path id="Path_6506" data-name="Path 6506" d="M378.082,180.892a23.3,23.3,0,0,1-.282-5.115,23.2,23.2,0,0,1,.282-5.107,22.928,22.928,0,0,1,.29,5.107A22.461,22.461,0,0,1,378.082,180.892Z" transform="translate(-317.786 -80.465)" fill="#263238"/>
        <path id="Path_6507" data-name="Path 6507" d="M403.133,173.435a14.787,14.787,0,0,1-4.212-2.885,15.245,15.245,0,0,1-3.432-3.781c.116-.1,1.708,1.517,3.814,3.316A37.649,37.649,0,0,1,403.133,173.435Z" transform="translate(-320.809 -79.798)" fill="#263238"/>
        <path id="Path_6508" data-name="Path 6508" d="M415.868,160.078a17.136,17.136,0,0,1-3.383-2.976,20.865,20.865,0,0,1-2.976-3.383,18.711,18.711,0,0,1,3.383,2.968A19.011,19.011,0,0,1,415.868,160.078Z" transform="translate(-323.205 -77.568)" fill="#263238"/>
        <path id="Path_6509" data-name="Path 6509" d="M344.261,117.372a13.785,13.785,0,0,1-2.985-2.578,13.719,13.719,0,0,1-2.578-2.985,13.6,13.6,0,0,1,2.985,2.57A13.438,13.438,0,0,1,344.261,117.372Z" transform="translate(-311.101 -70.403)" fill="#263238"/>
        <path id="Path_6510" data-name="Path 6510" d="M359.672,101.194a13.468,13.468,0,0,1-2.935-2.487,12.563,12.563,0,0,1-2.529-2.918,13.466,13.466,0,0,1,2.935,2.487A12.619,12.619,0,0,1,359.672,101.194Z" transform="translate(-313.752 -67.664)" fill="#263238"/>
      </g>
    </g>
  </g>
</svg>
