<?xml version="1.0" encoding="UTF-8"?><svg xmlns="http://www.w3.org/2000/svg" viewBox="0 0 420.45 509.1"><defs><style>.d{fill:#fff;}</style></defs><g id="a"/><g id="b"><g id="c"><g><path d="M222.12,464.38c15.07-33.64,17.7-67.58,5.43-102.05-12.25-34.42-35.49-59.26-67.77-76.5h5.2c50.48,0,100.97,.01,151.45-.01,11.01,0,17.84-6.32,17.44-15.94-.29-7.08-5.56-12.98-12.57-13.95-1.96-.27-3.97-.3-5.96-.3-58.29-.01-116.57,.01-174.86-.05-6.28,0-12.33,.8-15.59,6.7-1.97,3.56-2.39,7.97-3.72,12.8-23.05-3.09-46.47-.34-69.53,8.96v-6.14c0-86.67-.01-173.34,.05-260.01,0-3.11,.17-6.37,1.12-9.28C54.66,2.93,59.1,0,64.77,0,147.8,0,230.83,0,313.86,0c1.45,0,2.89,.16,4.83,.27V5.9c0,25.57-.02,51.14,0,76.71,.01,12.38,5.58,17.97,17.89,17.98,25.91,.02,51.81,0,77.72,0h6.14v5.55c0,113.24,0,226.47,0,339.71,0,13.03-5.44,18.52-18.39,18.52-58.12,0-116.24,0-174.36,0-1.64,0-3.28,0-5.56,0Zm5.54-238.05c15.93,0,31.86,0,47.8,0,14.44,0,28.88,.12,43.31-.07,9.5-.12,15.89-7.38,15.05-16.56-.72-7.86-7.05-13.42-15.79-13.42-60.08-.05-120.15-.02-180.23-.02-.66,0-1.33,.01-1.99,.08-7.87,.76-13.7,7.21-13.64,15.09,.06,8.81,6.58,14.86,16.36,14.88,29.71,.06,59.41,.02,89.12,.03Zm-34.38-89.53c-14.27,0-28.54-.04-42.81,.02-5.3,.02-10.65-.16-15.89,.52-7.39,.95-12.38,7.18-12.42,14.54-.05,9.09,6.69,15.21,17.17,15.23,36.01,.06,72.01,.03,108.02,0,1.81,0,3.65-.2,5.43-.57,6.33-1.35,10.79-6.34,11.52-12.74,1.13-9.79-5.74-16.88-16.77-16.95-18.09-.11-36.17-.03-54.26-.03Z"/><path d="M102.43,303.99c56.1-.15,102.26,45.79,102.7,102.22,.44,56.16-46.01,102.8-102.48,102.89C46.4,509.19,.33,463.34,0,406.93c-.33-56.3,45.93-102.79,102.43-102.94Zm-.35,124.69c1.81,1.68,3.04,2.75,4.19,3.9,6.12,6.09,12.1,12.32,18.36,18.24,4.61,4.36,10.17,5.51,16.13,3.02,5.52-2.31,8.62-6.64,9.19-12.59,.52-5.35-1.79-9.6-5.55-13.27-6.83-6.69-13.58-13.47-21.22-21.07,2.05-1.52,3.67-2.45,4.96-3.71,5.92-5.81,11.84-11.63,17.58-17.63,4.41-4.6,5.56-10.15,3.23-16.11-2.19-5.58-6.56-8.69-12.46-9.38-5.34-.63-9.63,1.68-13.31,5.42-6.73,6.82-13.53,13.58-20.5,20.56-1.65-1.56-2.97-2.77-4.24-4.03-6.01-5.96-11.89-12.05-18.03-17.87-4.46-4.23-9.9-5.37-15.69-3.17-5.37,2.05-8.59,6.15-9.52,11.82-.91,5.54,1.29,10.03,5.17,13.86,6.92,6.84,13.82,13.71,20.96,20.79-7.33,7.29-14.13,14.08-20.95,20.84-3.87,3.83-6.09,8.33-5.17,13.86,.98,5.87,4.34,10,9.98,11.99,5.9,2.08,11.25,.64,15.59-3.65,7.17-7.09,14.1-14.43,21.32-21.85Z"/><path d="M349.06,9.55c20.23,20.24,40.45,40.47,60.66,60.69h-60.66V9.55Z"/><path class="d" d="M227.66,226.33c-29.71,0-59.41,.04-89.12-.02-9.78-.02-16.3-6.07-16.36-14.88-.06-7.88,5.77-14.33,13.64-15.09,.66-.06,1.33-.08,1.99-.08,60.08,0,120.15-.03,180.23,.02,8.74,0,15.07,5.56,15.79,13.42,.84,9.18-5.56,16.44-15.05,16.56-14.44,.19-28.88,.07-43.31,.07-15.93,0-31.86,0-47.8,0Z"/><path class="d" d="M193.28,136.8c18.09,0,36.17-.08,54.26,.03,11.02,.07,17.89,7.16,16.77,16.95-.73,6.4-5.19,11.39-11.52,12.74-1.77,.38-3.61,.57-5.43,.57-36.01,.03-72.01,.06-108.02,0-10.48-.02-17.23-6.14-17.17-15.23,.04-7.36,5.03-13.58,12.42-14.54,5.23-.67,10.59-.49,15.89-.52,14.27-.06,28.54-.02,42.81-.02Z"/><path class="d" d="M102.09,428.69c-7.22,7.42-14.15,14.76-21.32,21.85-4.34,4.29-9.68,5.73-15.59,3.65-5.64-1.99-9-6.12-9.98-11.99-.92-5.53,1.3-10.03,5.17-13.86,6.82-6.77,13.63-13.55,20.95-20.84-7.14-7.08-14.04-13.95-20.96-20.79-3.87-3.83-6.07-8.32-5.17-13.86,.93-5.68,4.15-9.78,9.52-11.82,5.79-2.21,11.23-1.06,15.69,3.17,6.14,5.82,12.03,11.91,18.03,17.87,1.27,1.26,2.59,2.47,4.24,4.03,6.97-6.99,13.77-13.74,20.5-20.56,3.69-3.74,7.97-6.05,13.31-5.42,5.9,.69,10.27,3.8,12.46,9.38,2.33,5.96,1.18,11.51-3.23,16.11-5.74,5.99-11.66,11.81-17.58,17.63-1.29,1.27-2.91,2.2-4.96,3.71,7.64,7.6,14.38,14.38,21.22,21.07,3.75,3.67,6.07,7.91,5.55,13.27-.58,5.95-3.68,10.28-9.19,12.59-5.95,2.49-11.52,1.34-16.13-3.02-6.27-5.93-12.25-12.16-18.36-18.24-1.15-1.15-2.38-2.22-4.19-3.9Z"/></g></g></g></svg>