<svg id="Layer_1-2" xmlns="http://www.w3.org/2000/svg" width="60" height="60" viewBox="0 0 60 60">
  <path id="Path_460" data-name="Path 460" d="M0,60V0H60V60ZM38.319,45.416h.645q5.323,0,10.645,0a12.7,12.7,0,0,0,1.483-.067,7.554,7.554,0,0,0,5.277-3.15,7.815,7.815,0,0,0,1.469-4.822q0-12.57-.006-25.139a12.961,12.961,0,0,0-.153-1.489,7.13,7.13,0,0,0-2.445-4.608,7.542,7.542,0,0,0-5.206-1.983Q29.964,4.127,9.9,4.148A7.414,7.414,0,0,0,5.727,5.267a7.236,7.236,0,0,0-3.642,6.247Q2.045,24.4,2.072,37.3a12.762,12.762,0,0,0,.158,2.027,7.622,7.622,0,0,0,7.231,6.083c3.822-.022,7.642,0,11.464.009h.647V52.48c-1.489,0-2.93.008-4.372,0a1.666,1.666,0,0,0-1.4.655A1.594,1.594,0,0,0,15.6,54.9a1.487,1.487,0,0,0,1.363.933q12.635.014,25.269.012a4.552,4.552,0,0,0,.584-.008,1.681,1.681,0,0,0,1.361-2.5,1.592,1.592,0,0,0-1.564-.858H38.322V45.416Z" fill="none"/>
  <path id="Path_461" data-name="Path 461" d="M49.457,67.783v7.063h4.287a1.59,1.59,0,0,1,1.564.858,1.681,1.681,0,0,1-1.361,2.5,4.284,4.284,0,0,1-.584.008q-12.635,0-25.269-.012a1.489,1.489,0,0,1-1.362-.933A1.6,1.6,0,0,1,26.94,75.5a1.666,1.666,0,0,1,1.4-.655c1.442.012,2.884,0,4.372,0V67.783H32.06c-3.822,0-7.644-.031-11.464-.009a7.623,7.623,0,0,1-7.231-6.083,12.933,12.933,0,0,1-.158-2.027q-.009-12.891.012-25.783a7.233,7.233,0,0,1,3.642-6.247,7.414,7.414,0,0,1,4.173-1.119q20.063-.009,40.127.006a7.534,7.534,0,0,1,5.206,1.983,7.119,7.119,0,0,1,2.445,4.608,13,13,0,0,1,.153,1.489q.014,12.57.006,25.139A7.815,7.815,0,0,1,67.5,64.563a7.554,7.554,0,0,1-5.277,3.15,12.68,12.68,0,0,1-1.483.067q-5.323.007-10.645,0h-.645Zm-8.486-3.369q10,0,20-.008a5.36,5.36,0,0,0,1.452-.2,4.3,4.3,0,0,0,3.186-4.453q.019-12.567,0-25.133a5.5,5.5,0,0,0-.116-1.209,4.26,4.26,0,0,0-4.52-3.519q-20.4.014-40.8.1a3.375,3.375,0,0,0-2.517,1.292,4.669,4.669,0,0,0-1.117,3.192c.037,8.455.02,16.911.017,25.367a4.21,4.21,0,0,0-.027.814,4.379,4.379,0,0,0,4.384,3.759q10.029,0,20.058,0Zm5.067,3.412H36.148V74.8h9.891Z" transform="translate(-11.138 -22.368)" fill="#152352"/>
  <path id="Path_464" data-name="Path 464" d="M96.52,102.168c0-2.05.006-4.1,0-6.152a2.7,2.7,0,0,1,1.045-2.141,10.455,10.455,0,0,1,5.541-2.325,11.4,11.4,0,0,1,7.075,1.216,1.943,1.943,0,0,0,2.266,0A9.8,9.8,0,0,1,116.4,91.54a12.125,12.125,0,0,1,6.622,1.012,5.518,5.518,0,0,1,2.68,2.069,3.544,3.544,0,0,1,.512,1.652q.066,5.859.011,11.719a2.959,2.959,0,0,1-2.273,3.091,2.87,2.87,0,0,1-2.18-.25,8.594,8.594,0,0,0-7.291-.228,8.024,8.024,0,0,0-2.036,1.417,1.668,1.668,0,0,1-2.228.008,7.361,7.361,0,0,0-5.091-2.078,10.812,10.812,0,0,0-4.691,1.008,2.649,2.649,0,0,1-3.43-1.144,3.487,3.487,0,0,1-.469-1.67c-.055-1.991-.022-3.984-.022-5.977h0ZM122.8,107.5a.558.558,0,0,0,.05-.144c0-3.553.009-7.108-.009-10.661a.773.773,0,0,0-.322-.544,7.823,7.823,0,0,0-3.3-1.219A8.212,8.212,0,0,0,113.43,96.1a.756.756,0,0,0-.38.752c.009,3.4,0,6.8.006,10.192,0,.152.013.3.022.5a13.594,13.594,0,0,1,9.725-.044Zm-13.106.075c0-3.7,0-7.252-.009-10.8a.684.684,0,0,0-.223-.486,7.218,7.218,0,0,0-1.006-.625,8.621,8.621,0,0,0-4.839-.8,6.947,6.947,0,0,0-3.089,1.025,1.094,1.094,0,0,0-.652,1.058c.028,3.317.014,6.636.016,9.953,0,.2.017.4.027.616a12.568,12.568,0,0,1,9.777.063Z" transform="translate(-81.428 -77.153)" fill="#152352"/>
</svg>
