<?xml version="1.0" encoding="UTF-8"?><svg xmlns="http://www.w3.org/2000/svg" viewBox="0 0 383.12 378.99"><defs><style>.d{fill:#fff;}</style></defs><g id="a"/><g id="b"><g id="c"><g><path d="M383.12,124.47c-1.36-.11-2.71-.31-4.07-.31-17.33-.02-34.67,.13-52-.09-5.76-.07-9.57,1.87-12.37,7.06-5.51,10.2-11.51,20.15-17.31,30.19-.62,1.07-1.29,2.1-2.17,3.52-4.72-8.17-9.25-16.02-13.79-23.88-2.12-3.67-4.33-7.3-6.32-11.05-2.26-4.26-5.73-5.84-10.42-5.81-17.46,.09-34.92,.04-52.37,.04-1.47,0-2.95,0-4.68,0V.55c1.47-.07,3.03-.22,4.58-.22,55.37-.01,110.73,0,166.1-.02,1.61,0,3.21-.2,4.82-.31V124.47Zm-48.6-62.14c-.09-4.41-2.53-6.97-5.99-8.96-17.69-10.19-35.34-20.45-53.04-30.63-8.73-5.03-15.61-.95-15.63,9.23-.02,15.48,0,30.96,0,46.44,0,5.37-.17,10.74,.06,16.1,.32,7.58,7.25,11.85,13.71,8.19,18.85-10.68,37.55-21.61,56.28-32.49,3.02-1.75,4.56-4.51,4.61-7.88Z"/><path d="M189.05,37.4c0,2.02,0,3.49,0,4.97,0,26.99,.3,53.98-.13,80.96-.2,12.41,8.17,19.72,19.42,19.34,16.32-.55,32.66-.08,49-.21,2.69-.02,4.2,.71,5.56,3.14,7.72,13.69,15.63,27.27,23.51,40.87,4.82,8.31,12.89,8.33,17.69,.03,7.94-13.71,15.88-27.42,23.69-41.21,1.21-2.14,2.54-2.95,4.99-2.83,4.32,.21,8.66,.06,13.46,.06v4.39c0,41.73,0,83.46,0,125.2,0,7.12-1.79,8.94-8.79,8.94-109.6,0-219.2,0-328.8,0-6.84,0-8.64-1.81-8.64-8.65C0,196.93,0,121.47,0,46c0-6.91,1.68-8.6,8.6-8.6,58.73,0,117.45,0,176.18,0h4.28Zm-72.27,126.1v.04c-10.84,0-21.69-.22-32.52,.05-18.89,.47-33.66,15.3-34.22,34.23-.23,7.86-.12,15.73-.07,23.6,.04,6.12,3.71,10.18,9.04,10.24,5.44,.06,9.17-4.12,9.21-10.45,.05-7.24-.07-14.49,.04-21.73,.15-10.24,6.98-17.33,17.1-17.39,21.06-.13,42.12-.14,63.18,0,9.93,.07,16.74,7.21,16.84,17.2,.07,7.12,0,14.24,.02,21.35,.02,6.67,3.56,10.92,9.09,11.01,5.56,.08,9.31-4.16,9.38-10.76,.06-6.99,.1-13.99,0-20.98-.31-21.44-15.36-36.31-36.79-36.4-10.09-.04-20.19,0-30.28,0Zm-.05-76.7c-17.77,.07-32.23,14.6-32.05,32.21,.18,17.79,14.52,32.02,32.3,32.05,17.66,.03,31.98-14.43,31.95-32.28-.03-17.81-14.37-32.05-32.2-31.98Z"/><path d="M163.88,299.56h18.46c0,6.21,.32,12.3-.11,18.34-.32,4.46,1.28,6.86,5.03,9.19,17.35,10.8,34.48,21.96,51.68,32.99,.94,.61,1.89,1.21,2.8,1.86,4.66,3.36,5.82,8.7,2.86,13.08-2.82,4.18-8.19,5.24-12.9,2.27-9.81-6.17-19.53-12.48-29.29-18.73-8.81-5.65-17.69-11.2-26.4-17-2.24-1.49-3.73-1.33-5.9,.08-17.78,11.52-35.64,22.91-53.48,34.34-.42,.27-.83,.56-1.25,.82-5.56,3.47-11.14,2.64-14.09-2.1-2.83-4.54-1.21-9.95,4.11-13.37,11.21-7.23,22.44-14.42,33.66-21.62,7.45-4.78,14.87-9.6,22.37-14.28,1.78-1.11,2.54-2.31,2.5-4.48-.15-6.99-.05-13.98-.05-21.4Z"/><path class="d" d="M116.78,163.49c10.09,0,20.19-.04,30.28,0,21.43,.09,36.48,14.97,36.79,36.4,.1,6.99,.07,13.99,0,20.98-.06,6.6-3.82,10.85-9.38,10.76-5.53-.08-9.07-4.34-9.09-11.01-.02-7.12,.05-14.24-.02-21.35-.1-9.99-6.91-17.13-16.84-17.2-21.06-.14-42.12-.13-63.18,0-10.11,.06-16.95,7.14-17.1,17.39-.11,7.24,.01,14.49-.04,21.73-.04,6.33-3.78,10.5-9.21,10.45-5.33-.06-8.99-4.12-9.04-10.24-.06-7.87-.17-15.74,.07-23.6,.56-18.92,15.34-33.76,34.22-34.23,10.84-.27,21.68-.05,32.52-.05v-.04Z"/><path d="M278.48,78.73V45.74c9.5,5.51,18.65,10.82,28.43,16.49-9.67,5.61-18.75,10.88-28.43,16.5Z"/><path d="M103.2,118.76c.04-7.45,6.09-13.57,13.5-13.63,7.59-.06,13.77,6.09,13.8,13.73,.03,7.63-6.13,13.84-13.7,13.81-7.59-.03-13.63-6.21-13.6-13.9Z"/></g></g></g></svg>