<?xml version="1.0" encoding="UTF-8"?><svg xmlns="http://www.w3.org/2000/svg" viewBox="0 0 383.26 384"><defs><style>.d{fill:#fff;}</style></defs><g id="a"/><g id="b"><g id="c"><g><path d="M120.51,0c55.14,0,110.28,0,165.43,0,0,27.99,0,55.97,0,83.96,0,9.31,4.19,13.54,13.41,13.54,26.56,0,53.12,0,79.68,0h4.22v4.9c0,41.85,0,83.71,0,125.56,0,40.48,.03,80.96-.02,121.44-.02,15.19-8.68,27.71-22.41,32.62-2.21,.79-4.51,1.33-6.76,1.99H173.66c.77-.63,1.53-1.28,2.32-1.88,22.6-17.02,37.89-39.11,45.5-66.39,1.96-7.03,3.03-14.31,4.56-21.73h8.85c27.82,0,55.64-.03,83.46,.02,5.24,0,9.28-1.92,11.49-6.77,3.52-7.69-2.19-15.73-11.16-15.74-29.57-.04-59.13-.01-88.7-.01h-4.45c-1.48-16-5.92-30.68-12.87-45,17.34,0,34.05,0,50.76,0,18.46,0,36.93-.01,55.39,0,5.12,0,8.97-2.14,11.07-6.83,3.46-7.71-2.29-15.66-11.29-15.67-38.55-.03-77.09-.06-115.64,.07-3.67,.01-6.08-1.07-8.57-3.81-21.61-23.83-48.38-37.69-80.49-40.55-7.37-.66-14.84-.1-22.32-.1-.12-1.04-.23-1.52-.23-2,0-41.62-.1-83.24,.08-124.87,.04-10.45,4.42-19.4,13-25.37,4.77-3.32,10.7-4.98,16.1-7.38Zm116.82,136.5c-27.3,0-54.6-.02-81.9,.02-6.21,0-10.96,4.18-11.65,9.96-.67,5.58,3.1,10.92,8.79,12.2,1.55,.35,3.22,.3,4.83,.3,40.64,.01,81.27,.01,121.91,.01,13.21,0,26.43,0,39.64,0,5.11,0,8.93-2.23,10.98-6.94,3.31-7.61-2.33-15.53-11.07-15.54-27.17-.05-54.35-.02-81.52-.02Z"/><path class="d" d="M120.51,0c-5.41,2.41-11.33,4.06-16.1,7.38-8.57,5.97-12.95,14.93-13,25.37-.18,41.62-.08,83.24-.08,124.87,0,.48,.11,.96,.23,2,7.48,0,14.95-.56,22.32,.1,32.11,2.86,58.87,16.72,80.49,40.55,2.49,2.75,4.9,3.83,8.57,3.81,38.55-.13,77.09-.1,115.64-.07,9,0,14.75,7.96,11.29,15.67-2.1,4.69-5.96,6.83-11.07,6.83-18.46-.02-36.93,0-55.39,0-16.71,0-33.42,0-50.76,0,6.95,14.32,11.39,29,12.87,45h4.45c29.57,0,59.13-.02,88.7,.01,8.97,.01,14.68,8.05,11.16,15.74-2.21,4.84-6.25,6.77-11.49,6.77-27.82-.05-55.64-.02-83.46-.02h-8.85c-1.53,7.42-2.6,14.7-4.56,21.73-7.61,27.28-22.9,49.37-45.5,66.39-.79,.6-1.55,1.25-2.32,1.88h-62.88c1.95-.32,3.9-.66,5.85-.96,56.81-8.65,94.4-60.12,85.51-117.12-8.33-53.42-60.74-91.79-113.95-83.42C33.72,191.06-3.77,238.67,2.35,293.51c4.6,41.29,27.71,69.43,66.29,84.37,8.13,3.15,17.1,4.13,25.68,6.12H0C0,256,0,128,0,0c40.17,0,80.34,0,120.51,0Z"/><path d="M94.32,384c-8.58-1.98-17.55-2.97-25.68-6.12-38.58-14.94-61.68-43.09-66.29-84.37-6.11-54.84,31.38-102.45,85.85-111.01,53.21-8.37,105.63,30,113.95,83.42,8.89,57-28.7,108.48-85.51,117.12-1.95,.3-3.9,.64-5.85,.96h-16.47Zm19.71-52.99c10.34-3.12,16.84-9.71,18.16-20.32,.75-6.03,.62-12.27,.03-18.33-1-10.28-8.57-18.41-18.73-20.22-4.61-.82-9.44-.74-14.15-.56-3.52,.14-4.42-1.02-4.36-4.43,.18-10.69,.04-10.62,10.77-10.71,2.72-.02,4.12,.3,4.65,3.58,.95,5.83,6.59,9.62,12.03,8.89,5.93-.8,10.1-5.55,10.02-11.61-.08-5.85-1.87-11.3-6.1-15.26-3.53-3.31-7.93-5.68-12.46-8.83-.75-9.49-4.11-14.06-11.11-14.22-7.02-.15-10.29,4.13-11.77,15.43-13.18,4.77-18.4,12.18-18.4,26.15,0,3.37-.06,6.75,.02,10.12,.31,12.8,10.41,22.94,23.2,23.26,3.74,.1,7.49,.13,11.22,0,2.3-.08,3.11,.8,3.01,3.06-.13,3.12-.1,6.25-.01,9.37,.05,1.96-.77,2.67-2.67,2.62-3.12-.08-6.24-.09-9.35,0-1.95,.06-2.83-.5-3.11-2.65-.61-4.57-3.23-7.82-7.66-9.28-8.44-2.79-16.01,4.44-14.43,13.87,1.77,10.55,8.16,17.05,18.21,20.06,1.28,11.12,4.48,15.42,11.46,15.45,7.07,.04,10.53-4.55,11.54-15.47Z"/><path class="d" d="M237.33,136.5c27.17,0,54.35-.03,81.52,.02,8.74,.02,14.38,7.94,11.07,15.54-2.05,4.71-5.87,6.94-10.98,6.94-13.21,0-26.43,0-39.64,0-40.64,0-81.27,0-121.91-.01-1.61,0-3.27,.05-4.83-.3-5.68-1.28-9.45-6.62-8.79-12.2,.69-5.78,5.44-9.95,11.65-9.96,27.3-.04,54.6-.02,81.9-.02Z"/><path class="d" d="M114.03,331.01c-1,10.93-4.46,15.51-11.54,15.47-6.98-.04-10.18-4.33-11.46-15.45-10.05-3.01-16.44-9.51-18.21-20.06-1.58-9.44,5.99-16.66,14.43-13.87,4.43,1.46,7.05,4.7,7.66,9.28,.28,2.15,1.16,2.71,3.11,2.65,3.11-.1,6.24-.09,9.35,0,1.9,.05,2.73-.66,2.67-2.62-.09-3.12-.12-6.25,.01-9.37,.1-2.26-.71-3.14-3.01-3.06-3.74,.13-7.48,.1-11.22,0-12.79-.32-22.89-10.46-23.2-23.26-.08-3.37-.03-6.75-.02-10.12,0-13.96,5.22-21.38,18.4-26.15,1.48-11.3,4.75-15.58,11.77-15.43,7,.15,10.37,4.72,11.11,14.22,4.53,3.15,8.93,5.52,12.46,8.83,4.23,3.96,6.02,9.41,6.1,15.26,.08,6.06-4.08,10.81-10.02,11.61-5.45,.73-11.09-3.06-12.03-8.89-.53-3.28-1.93-3.61-4.65-3.58-10.73,.09-10.6,.02-10.77,10.71-.06,3.42,.84,4.58,4.36,4.43,4.71-.19,9.54-.27,14.15,.56,10.16,1.81,17.73,9.93,18.73,20.22,.59,6.06,.72,12.3-.03,18.33-1.32,10.61-7.82,17.2-18.16,20.32Z"/><path d="M308.65,7.42c22.45,22.5,44.72,44.82,67.12,67.27h-67.12V7.42Z"/></g></g></g></svg>