<svg id="Layer_1-2" xmlns="http://www.w3.org/2000/svg" width="60" height="60" viewBox="0 0 60 60">
  <path id="Path_465" data-name="Path 465" d="M0,0H60V60H0ZM6.755,44.067c0,1.719,0,3.438.022,5.155a9.272,9.272,0,0,0,.172,2.066A8.674,8.674,0,0,0,15.3,57.939c10.6-.033,21.208-.008,31.811-.016a11.3,11.3,0,0,0,1.777-.155,8.142,8.142,0,0,0,4.625-2.5,8.806,8.806,0,0,0,2.417-6.359q-.007-18.016-.008-36.033c0-1.1-.039-2.211-.144-3.308a8.013,8.013,0,0,0-3.42-5.823,8.883,8.883,0,0,0-5.5-1.681q-15.466,0-30.934.008a12.607,12.607,0,0,0-2.186.159,8.151,8.151,0,0,0-5.212,3.2,8.368,8.368,0,0,0-1.77,5.478c.048,1.694.009,3.389.009,5.075-.534.066-1.025.113-1.511.187a1.606,1.606,0,0,0-1.361,1.488,1.655,1.655,0,0,0,.773,1.561,3.59,3.59,0,0,0,1.992.361l.092.1v8.428l-.092.1c-.473.047-.95.073-1.42.145a1.6,1.6,0,0,0-1.347,1.5,1.664,1.664,0,0,0,.778,1.555,3.623,3.623,0,0,0,1.989.358l.092.1V40.3l-.092.1c-.473.047-.95.073-1.42.145a1.6,1.6,0,0,0-1.347,1.5A1.664,1.664,0,0,0,4.67,43.6a3.623,3.623,0,0,0,1.989.358l.092.1Z" fill="none"/>
  <path id="Path_466" data-name="Path 466" d="M27.716,39.308V30.88l-.092-.1a3.587,3.587,0,0,1-1.992-.361,1.652,1.652,0,0,1-.773-1.561,1.607,1.607,0,0,1,1.361-1.487c.486-.075.977-.123,1.511-.187,0-1.686.038-3.381-.009-5.075a8.368,8.368,0,0,1,1.77-5.478,8.151,8.151,0,0,1,5.213-3.2,12.455,12.455,0,0,1,2.186-.159q15.466-.014,30.934-.008a8.879,8.879,0,0,1,5.5,1.681,8.019,8.019,0,0,1,3.42,5.823c.1,1.1.144,2.2.144,3.308q.014,18.016.008,36.033a8.806,8.806,0,0,1-2.417,6.359,8.155,8.155,0,0,1-4.625,2.5,11.49,11.49,0,0,1-1.777.155c-10.6.008-21.208-.016-31.811.016a8.67,8.67,0,0,1-8.353-6.652,9.272,9.272,0,0,1-.172-2.066c-.027-1.719-.017-3.436-.022-5.155-.031-.034-.061-.069-.092-.1a3.637,3.637,0,0,1-1.989-.358,1.658,1.658,0,0,1-.778-1.555,1.6,1.6,0,0,1,1.347-1.5c.47-.073.947-.1,1.42-.145l.092-.1V43.073l-.092-.1a3.637,3.637,0,0,1-1.989-.358,1.658,1.658,0,0,1-.778-1.555,1.6,1.6,0,0,1,1.347-1.5c.47-.073.947-.1,1.42-.145l.092-.1ZM44.071,65.73c.153.012.248.027.342.027q11.927,0,23.856,0a5.127,5.127,0,0,0,3.723-1.586,5.632,5.632,0,0,0,1.539-4.178q0-18.541-.006-37.084a11.915,11.915,0,0,0-.173-2.069,4.878,4.878,0,0,0-3.12-3.791c-1.253-.534-2.562-.3-3.9-.356,0,2.083.014,4.109,0,6.136q-.021,2.271-.111,4.544a2.115,2.115,0,0,1-1.492,1.9,2.2,2.2,0,0,1-2.341-.3c-1.223-.933-2.442-1.872-3.644-2.794-1.3.994-2.528,1.991-3.817,2.9a2.069,2.069,0,0,1-2.458.045,2.344,2.344,0,0,1-1.217-2.069c.016-3.281,0-6.561,0-9.842,0-.187-.019-.373-.027-.548H44.071V65.729Zm-12.972-14c.452,0,.839-.025,1.223.006a1.5,1.5,0,0,1,1.361.872,1.687,1.687,0,0,1-1.859,2.4c-.548-.061-.755.114-.739.706.042,1.561.016,3.125.013,4.688a3.973,3.973,0,0,0-.037.662A5.644,5.644,0,0,0,32.5,64.1a5.087,5.087,0,0,0,3.4,1.681c1.278.083,2.567-.006,3.853-.017.3,0,.6,0,.894,0V16.618H36.755a5.546,5.546,0,0,0-4.07,1.467,5.053,5.053,0,0,0-1.633,3.384c-.1,1.741.022,3.494.047,5.241,0,.206,0,.413,0,.648.467,0,.858-.031,1.241.008a1.51,1.51,0,0,1,1.353.886,1.644,1.644,0,0,1-.07,1.6,1.594,1.594,0,0,1-1.523.8c-1.117-.039-1-.062-1,1v7.894c.466,0,.834-.008,1.2,0a1.675,1.675,0,0,1,1.523,1.167,1.812,1.812,0,0,1-.669,1.817c-.489.409-1.022.266-1.545.288-.316.014-.517.07-.516.453.008,2.792,0,5.584,0,8.459ZM62.922,25.1V16.646h-8.25v8.4c.756-.592,1.463-1.133,2.156-1.689a2.573,2.573,0,0,1,3.586-.122C61.229,23.821,62.025,24.432,62.922,25.1Z" transform="translate(-20.961 -11.188)" fill="#152352"/>
</svg>
