<svg id="Layer_1-2" xmlns="http://www.w3.org/2000/svg" width="60" height="60" viewBox="0 0 60 60">
  <path id="Path_450" data-name="Path 450" d="M60,60H0V0H60ZM54.477,22.016c0,2.28,0,4.5,0,6.727a1.568,1.568,0,0,0,1.447,1.5A1.779,1.779,0,0,0,57.8,28.383c-.011-4.845,0-9.691-.011-14.534,0-.538-.081-1.075-.128-1.613a6.754,6.754,0,0,0-2.553-4.68A7.008,7.008,0,0,0,50.461,5.83q-20.527-.023-41.055,0a7.05,7.05,0,0,0-5.525,2.5A6.847,6.847,0,0,0,2.055,13q.007,16.88,0,33.759a6.769,6.769,0,0,0,2.753,5.817A6.457,6.457,0,0,0,8.8,54.141c3.919.019,7.836.016,11.755.019.741,0,1.481.006,2.222-.006a1.678,1.678,0,0,0,1.445-2.178,1.8,1.8,0,0,0-1.92-1.189q-3.743,0-7.486,0c-1.833,0-3.666-.017-5.5,0a3.782,3.782,0,0,1-3.006-1.422A4.271,4.271,0,0,1,5.4,46.422q.023-11.9.008-23.8V22.02h49.07Zm-26.4,21.87h.008v2.989c0,1.016-.008,2.033,0,3.048A2.908,2.908,0,0,0,32.27,52.6a9.468,9.468,0,0,1,4.245-.927,7.115,7.115,0,0,1,5.219,2.039,1.654,1.654,0,0,0,2.1.158,12.915,12.915,0,0,1,2.127-1.5,8.5,8.5,0,0,1,7.344.152,3.058,3.058,0,0,0,4.491-2.7c.031-3.947.017-7.894,0-11.841a2.9,2.9,0,0,0-.914-2.147,10.033,10.033,0,0,0-6.427-2.653,11.078,11.078,0,0,0-7.33,1.806.462.462,0,0,1-.413.009A11.82,11.82,0,0,0,37.7,33.244a12.54,12.54,0,0,0-4.287.2,9.843,9.843,0,0,0-4.384,2.231,2.653,2.653,0,0,0-.942,1.944c-.025,2.091-.008,4.18-.008,6.27Z" fill="none"/>
  <path id="Path_451" data-name="Path 451" d="M65.589,53.41H16.52v.606q0,11.9-.008,23.8a4.268,4.268,0,0,0,.913,2.942,3.782,3.782,0,0,0,3.006,1.422c1.833-.016,3.664,0,5.5,0q3.743,0,7.486,0a1.8,1.8,0,0,1,1.92,1.189,1.677,1.677,0,0,1-1.445,2.178c-.741.012-1.481.006-2.222.006-3.919,0-7.836,0-11.755-.019a6.457,6.457,0,0,1-3.987-1.566,7.317,7.317,0,0,1-2.664-4.3,7.166,7.166,0,0,1-.089-1.513q0-16.88,0-33.759A6.847,6.847,0,0,1,15,39.712a7.06,7.06,0,0,1,5.525-2.5q20.527-.012,41.055,0a7,7,0,0,1,4.647,1.727,6.757,6.757,0,0,1,2.553,4.68c.047.537.128,1.075.128,1.612.009,4.845,0,9.691.011,14.534a1.779,1.779,0,0,1-1.873,1.856,1.568,1.568,0,0,1-1.447-1.5c-.008-2.223,0-4.447,0-6.727Zm-.056-3.43c0-1.869.012-3.684-.011-5.5a3.574,3.574,0,0,0-.223-1.17,3.954,3.954,0,0,0-4.019-2.723q-20.264-.007-40.53.009a5.09,5.09,0,0,0-1.788.3,3.757,3.757,0,0,0-2.448,3.347c-.1,1.241,0,2.5,0,3.745,0,.658,0,1.317,0,1.994Z" transform="translate(-11.112 -31.395)" fill="#152352"/>
  <path id="Path_452" data-name="Path 452" d="M179.642,222.8c0-2.091-.016-4.181.008-6.27a2.655,2.655,0,0,1,.942-1.944,9.843,9.843,0,0,1,4.384-2.231,12.544,12.544,0,0,1,4.287-.2,11.806,11.806,0,0,1,5.017,1.747.462.462,0,0,0,.413-.009,11.08,11.08,0,0,1,7.33-1.806,10.033,10.033,0,0,1,6.427,2.653,2.909,2.909,0,0,1,.914,2.147c.017,3.947.031,7.894,0,11.841a3.058,3.058,0,0,1-4.491,2.7,8.493,8.493,0,0,0-7.344-.152,12.917,12.917,0,0,0-2.127,1.5,1.654,1.654,0,0,1-2.1-.158,7.12,7.12,0,0,0-5.219-2.039,9.463,9.463,0,0,0-4.245.927,2.908,2.908,0,0,1-4.184-2.675c-.012-1.016,0-2.031,0-3.048V222.8h-.008Zm13.183,5.216c0-3.477,0-6.952.028-10.428a.866.866,0,0,0-.453-.83,8.385,8.385,0,0,0-4.922-1.3,8.212,8.212,0,0,0-3.894,1.083,1.012,1.012,0,0,0-.58.992c.036,3.32.019,6.641.019,9.961v.675a12.059,12.059,0,0,1,7.836-.616c.634.145,1.247.377,1.87.569.031-.034.063-.069.094-.1Zm13.144.147a2.622,2.622,0,0,0,.041-.291c0-3.5.009-6.992-.014-10.489a.935.935,0,0,0-.383-.636,6.784,6.784,0,0,0-1.236-.68,9.154,9.154,0,0,0-3.925-.6,7.458,7.458,0,0,0-3.791,1.194.925.925,0,0,0-.459.867c.023,3.4.012,6.8.014,10.2,0,.142.027.284.044.466a12.7,12.7,0,0,1,9.709-.027Z" transform="translate(-151.569 -178.914)" fill="#152352"/>
  <path id="Path_457" data-name="Path 457" d="M102.684,81.769c-.791.184-1.619-.777-1.6-1.6a1.648,1.648,0,0,1,1.62-1.57,1.7,1.7,0,0,1,1.65,1.564c.041.764-.786,1.78-1.666,1.609Z" transform="translate(-85.285 -66.313)" fill="#152352"/>
  <path id="Path_458" data-name="Path 458" d="M66.539,81.815a1.475,1.475,0,0,1-1.509-1.567,1.583,1.583,0,1,1,1.509,1.567Z" transform="translate(-54.869 -66.361)" fill="#152352"/>
  <path id="Path_459" data-name="Path 459" d="M139.3,81.855a1.527,1.527,0,0,1-1.6-1.552,1.622,1.622,0,0,1,3.244-.048c.052.83-.806,1.791-1.639,1.6Z" transform="translate(-116.184 -66.399)" fill="#152352"/>
</svg>
