<?xml version="1.0" encoding="UTF-8"?><svg xmlns="http://www.w3.org/2000/svg" viewBox="0 0 351.83 360.37"><g id="a"/><g id="b"><g id="c"><g><path d="M140.29,261.77c-6.78,5.38-13.41,10.63-20.04,15.89-33.25,26.37-66.49,52.75-99.75,79.12-5.35,4.24-10.03,4.69-14.72,1.54-7.38-4.96-7.78-14.19-.67-19.89,12.85-10.32,25.8-20.5,38.71-30.74,29.92-23.74,59.84-47.48,89.76-71.22,7.45-5.91,14.07-5.04,19.83,2.68,13.51,18.12,26.99,36.26,40.48,54.39,1.11,1.5,2.23,2.98,3.56,4.76,36.44-28.32,72.72-56.52,109.83-85.37-6.54-.37-11.96-.72-17.38-.99-11.46-.56-22.92-1.09-34.39-1.61-7.99-.36-12.6-4.96-12.37-12.39,.23-7.33,5.3-11.95,13.18-11.59,27.29,1.24,54.58,2.53,81.85,3.95,10.9,.57,15.26,6.53,13.12,17.33-5.29,26.69-10.58,53.39-15.89,80.08-1.53,7.68-7.13,11.66-14.29,10.21-7.13-1.45-10.69-7.28-9.16-14.97,3.33-16.76,6.64-33.51,10.12-51.1-2.44,1.89-4.28,3.31-6.11,4.73-37.15,28.87-74.31,57.75-111.46,86.62-8.24,6.4-14.31,5.53-20.6-2.92-13.5-18.13-26.99-36.26-40.48-54.39-.96-1.29-1.95-2.57-3.12-4.12Z"/><path d="M294.96,146.59c.41-39.13-14.13-71.58-44.6-96.23-44.02-35.61-107.44-34.98-150.17,1.05-47.95,40.43-57.49,112.2-21.39,161.96,3.8,5.23,8.28,9.99,12.71,14.73,5.51,5.91,6.03,13.09,.97,18.29-4.93,5.06-12.04,4.59-17.87-1.17-44.24-43.74-54.63-109.66-25.6-166.26C69.61,38.79,101.63,12.62,146.15,3.14c76.84-16.37,152.9,32.83,169.8,109.61,3.52,15.99,4.68,32.17,2.2,48.41-1.29,8.43-6.68,12.27-14.03,10.98-5.4-.95-8.74-4.23-9.1-9.84-.34-5.22-.07-10.48-.07-15.72Z"/><path d="M167.6,195.39c-9.28,0-18.35,.07-27.43-.03-5.91-.06-9.74-2.85-11.39-7.92-2.73-8.41,2.75-15.96,11.84-16.02,15.47-.1,30.93,.05,46.4-.09,8.19-.07,13.27-5.65,12.94-13.68-.31-7.29-5.39-12.09-13.32-12.29-7.73-.19-15.48,.2-23.19-.28-21.03-1.3-35.18-16.28-35.1-36.75,.08-20.93,14.48-36.02,35.57-37.27,1.11-.07,2.23-.1,3.94-.18,0-3.77-.17-7.47,.04-11.15,.39-6.81,5.71-11.69,12.3-11.53,6.53,.16,11.43,5.31,11.58,12.21,.05,2.37,0,4.75,.02,7.12,.01,.97,.1,1.95,.18,3.43,4.61,0,9.06,0,13.5,0,2.37,0,4.75-.1,7.11,.08,7.14,.54,11.45,5.3,11.3,12.32-.15,6.96-4.72,11.52-11.98,11.57-15.09,.1-30.19,0-45.28,.05-8.05,.03-12.58,3.34-14.17,10.08-1.95,8.25,3.22,15.64,11.66,16.06,8.59,.42,17.22-.05,25.8,.5,18.92,1.22,32.42,15.08,33.84,34.22,1.38,18.64-10.24,34.45-28.58,38.38-2.96,.64-3.61,1.8-3.44,4.43,.17,2.61,.09,5.25,0,7.87-.21,6.76-4.63,11.18-11.34,11.41-6.94,.24-11.92-3.92-12.5-10.67-.24-2.73-.06-5.5-.1-8.25-.02-1.09-.13-2.18-.23-3.66Z"/></g></g></g></svg>