<?xml version="1.0" encoding="UTF-8"?><svg xmlns="http://www.w3.org/2000/svg" viewBox="0 0 321.88 384"><defs><style>.d{fill:#fff;}</style></defs><g id="a"/><g id="b"><g id="c"><g><path d="M205.78,384c-8.47-1.92-17.3-2.9-25.36-5.92-39.12-14.67-62.67-42.83-68.15-84.39-7.52-56.93,33.09-108.23,89.84-115.05,55.62-6.69,106.9,33.56,113.84,89.35,7.16,57.57-33.3,108.77-91.19,115.4-.85,.1-1.68,.41-2.51,.62h-16.47Zm1.89-151.52c-2.19,.19-4.04,.32-5.88,.52-13.28,1.5-23.28,12.17-23.69,25.25-.44,14.12,8.57,25.72,22.22,27.55,6.87,.92,13.93,.42,20.91,.62,1.98,.06,4.04,.05,5.91,.58,7.19,2.04,11,8.7,10,17.1-.84,6.98-6.56,12.27-13.77,12.35-11.85,.13-23.7,0-35.56,.07-4.85,.03-7.79,3.45-6.69,7.71,.93,3.62,3.71,4.76,7.14,4.76,6.34,0,12.69,0,19.52,0,0,2.83-.03,5.3,0,7.76,.08,4.99,2.29,7.62,6.29,7.54,3.85-.08,5.96-2.67,6.01-7.44,.03-2.48,0-4.95,0-7.47,3.42-.44,6.55-.55,9.54-1.28,13.35-3.27,21.36-15.39,19.87-29.82-1.45-14.1-11.8-23.74-26.26-24.25-5.86-.21-11.73,.08-17.59-.12-2.44-.08-5.04-.43-7.24-1.39-6.07-2.67-8.97-9.27-7.57-16.33,1.22-6.17,6.79-10.85,13.45-10.91,11.6-.12,23.2-.04,34.81-.04,6.15,0,9.23-2.1,9.2-6.27-.03-4.16-3.1-6.23-9.29-6.23-6.2,0-12.4,0-18.98,0,0-3.03,.04-5.63,0-8.22-.09-4.29-2.48-6.98-6.14-7-3.63-.02-6.05,2.63-6.21,6.95-.1,2.6-.02,5.21-.02,8Z"/><path d="M317.33,0c2.92,1.71,4.37,4.15,4.37,7.66,0,17.62,.15,35.25,.19,52.87,0,4.81-2.98,7.63-7.12,6.97-3.16-.51-5.02-2.9-5.06-6.81-.11-10.5-.14-21-.19-31.5,0-1.31,0-2.62,0-5.06-14.08,15.99-27.35,31.05-40.76,46.27,4.62,7.18,6.47,14.86,4.5,23.24-2.8,11.92-13.2,20.97-25.12,21.82-12.83,.92-24.52-6.29-28.77-18.29-1.11-3.13-2.58-3.82-5.57-3.81-19.84,.11-39.67,.11-59.51,0-2.82-.01-4.31,.55-5.37,3.53-6.01,16.82-25.49,23.71-40.91,14.6-1.94-1.14-3.17-1.54-5.14,.14-15.31,13.02-30.71,25.93-46.17,38.77-2.15,1.79-2.9,3.06-1.75,6.12,5.71,15.18-2.92,32.15-18.34,36.8-15.46,4.66-32.02-4.79-35.78-20.42-3.8-15.79,6.3-31.75,22.2-34.68,8.06-1.49,15.63,.12,22.56,5.31,17.18-14.41,34.26-28.75,51.55-43.25-2.87-6.32-3.91-12.85-2.29-19.64,3-12.55,13.56-21.27,26.59-21.94,11.86-.61,23.37,7.12,27.45,18.74,.92,2.62,2.01,3.59,4.92,3.57,20.21-.16,40.42-.07,60.63-.1,1.61,0,3.22,.53,4.16-1.94,6.92-18.14,22.28-24.53,40.82-16.85,12.95-14.76,25.99-29.63,39.03-44.5l-.33-.66c-5.85,1.46-11.69,2.92-17.54,4.38-5.68,1.42-11.33,2.97-17.04,4.23-3.74,.82-6.78-1.12-7.54-4.37-.82-3.49,1.11-6.49,4.91-7.62,.36-.11,.74-.12,1.1-.22,15.57-3.97,31.14-7.92,46.71-11.92,1.41-.36,2.75-.97,4.13-1.46h4.49Z"/><path d="M131.08,361.58c-1.6,.07-2.69,.16-3.79,.16-30.05,0-60.11,.05-90.16-.01-12.84-.03-21.49-9.36-20.16-21.51,1.03-9.37,9.03-16.78,18.51-16.81,22.82-.06,45.64-.03,68.46,.11,1.26,0,3.23,.97,3.67,2,5.55,12.86,13.05,24.4,22.59,34.62,.24,.25,.37,.6,.87,1.44Z"/><path d="M113.66,222.02c-4.71,12.6-9.35,25.01-14,37.43l.97,.52c-.72,.09-1.44,.27-2.16,.27-20.96,.01-41.91,.08-62.87-.03-9.05-.05-16.81-6.63-18.44-15.19-1.71-8.99,2.62-17.68,10.82-21.32,1.9-.85,4.05-1.6,6.09-1.61,26.69-.11,53.37-.07,79.59-.07Z"/><path d="M97.95,272.92c1.27,12.92,2.49,25.28,3.74,37.91-.33,.03-1.27,.21-2.21,.21-20.96,.02-41.92,.05-62.88,0-8.79-.02-15.83-4.84-18.66-12.48-2.71-7.33-.94-15.97,5.27-20.77,3.18-2.45,7.52-4.67,11.38-4.75,20.95-.47,41.91-.25,62.87-.25,.35,0,.69,.18,.48,.12Z"/><path class="d" d="M207.67,232.48c0-2.79-.08-5.4,.02-8,.16-4.33,2.57-6.97,6.21-6.95,3.66,.02,6.05,2.71,6.14,7,.05,2.59,0,5.19,0,8.22,6.58,0,12.78,0,18.98,0,6.19,0,9.26,2.07,9.29,6.23,.03,4.16-3.06,6.26-9.2,6.27-11.6,0-23.21-.07-34.81,.04-6.66,.07-12.24,4.75-13.45,10.91-1.39,7.06,1.5,13.67,7.57,16.33,2.2,.97,4.81,1.31,7.24,1.39,5.86,.2,11.73-.09,17.59,.12,14.45,.51,24.8,10.15,26.26,24.25,1.49,14.43-6.52,26.55-19.87,29.82-2.98,.73-6.12,.84-9.54,1.28,0,2.52,.02,5,0,7.47-.05,4.77-2.17,7.36-6.01,7.44-4,.08-6.22-2.55-6.29-7.54-.04-2.47,0-4.94,0-7.76-6.83,0-13.18,0-19.52,0-3.43,0-6.2-1.14-7.14-4.76-1.1-4.26,1.84-7.68,6.69-7.71,11.85-.07,23.7,.06,35.56-.07,7.22-.08,12.94-5.37,13.77-12.35,1-8.39-2.81-15.05-10-17.1-1.88-.53-3.93-.53-5.91-.58-6.97-.2-14.03,.3-20.91-.62-13.65-1.83-22.66-13.43-22.22-27.55,.41-13.08,10.41-23.75,23.69-25.25,1.84-.21,3.68-.33,5.88-.52Z"/></g></g></g></svg>