<?xml version="1.0" encoding="UTF-8"?><svg xmlns="http://www.w3.org/2000/svg" viewBox="0 0 383.55 340.83"><defs><style>.d{fill:#fff;}</style></defs><g id="a"/><g id="b"><g id="c"><g><path d="M383.55,243.89c-1.42,6.95-2.37,14.04-4.32,20.84-13.6,47.35-58.48,78.88-107.56,75.8-48.66-3.05-89.12-39.76-97.08-88.07-9.65-58.52,31.14-113.91,89.6-121.67,58.87-7.82,111.87,33.85,118.73,93.34,.1,.85,.42,1.67,.64,2.51v17.25Zm-93.26,71.91c0-5.23-.16-10.1,.11-14.95,.07-1.19,1.28-2.7,2.38-3.38,4.44-2.71,9.53-4.55,13.49-7.81,11.49-9.46,15.62-21.92,12.89-36.53-2.53-13.56-11.27-21.53-23.86-25.82-2.59-.88-5.25-1.57-7.9-2.25-6.39-1.64-12.85-3.04-19.18-4.87-8.29-2.39-9.03-10-6.42-15.64,1.44-3.12,4.57-6.07,7.67-7.68,11.16-5.77,22.66-.46,27.08,11.98h23.39c-.11-1.7-.08-3.2-.33-4.65-2.69-15.48-11.97-25.4-26.35-30.82-2.2-.83-3.14-1.78-3.03-4.22,.2-4.71,.06-9.43,.06-14.27h-23.96c0,5.14-.08,10,.04,14.86,.05,1.95-.78,2.69-2.46,3.52-4.65,2.32-9.55,4.45-13.6,7.63-20.11,15.81-19.09,51.92,9.66,61.91,2.94,1.02,5.94,1.85,8.95,2.64,6.5,1.7,13.11,3.05,19.51,5.05,5.96,1.86,7.63,4.74,7.54,10.93-.07,4.94-2.52,8.53-6.5,11.14-11.25,7.4-25.53,2.19-29.22-10.7h-23.57c.18,2.06,.18,3.81,.52,5.49,2.88,14.64,11.8,24.21,25.41,29.45,3.02,1.16,3.93,2.6,3.77,5.63-.23,4.42-.06,8.86-.06,13.35h23.96Z"/><path d="M.3,50.51c35.82,14.28,72.99,17.42,110.51,17.44,37.53,.02,74.72-3.06,110.8-17.44,0,2.21,0,4.24,0,6.28,0,6.25-.17,12.5,.07,18.74,.12,3.1-1.1,5.2-3.63,6.32-7.61,3.36-15.1,7.22-23.03,9.54-20.56,6.02-41.77,8.2-63.11,9.28-26.73,1.36-53.36,.3-79.82-3.82-14.3-2.23-28.42-5.27-41.71-11.28-.68-.31-1.35-.65-2.03-.95-5.73-2.51-9.06-6.05-8.23-13.16,.79-6.78,.17-13.72,.17-20.95Z"/><path d="M221.22,22.74c-3.4,1.97-6.65,4.24-10.21,5.84-15.15,6.82-31.31,9.83-47.63,12.06-28.15,3.84-56.41,4.35-84.69,2.15-21.76-1.7-43.38-4.55-63.9-12.6-4.9-1.92-9.45-4.72-14.17-7.11v-1.58c3.14-1.88,6.15-4.04,9.44-5.58C24.43,9.22,39.82,6.17,55.38,3.93,90.87-1.17,126.44-1.21,161.99,3.26c15.83,1.99,31.52,4.92,46.35,11.12,4.5,1.88,8.67,4.57,12.99,6.88l-.11,1.47Z"/><path d="M.3,290.52c9.33,2.83,18.24,6.02,27.39,8.21,32.73,7.85,66.03,9.79,99.53,8.43,12.93-.52,25.82-2.12,38.74-3.12,1.17-.09,2.89,.24,3.55,1.05,7.22,8.87,14.28,17.88,21.59,27.11-5.89,1.2-12.36,2.78-18.92,3.8-40.84,6.36-81.74,6.58-122.52-.13-11.97-1.97-23.6-5.97-35.36-9.16-2.02-.55-3.85-1.75-5.81-2.55-6.06-2.45-9.13-6.29-8.35-13.42,.73-6.66,.16-13.46,.16-20.22Z"/><path d="M.3,232.64c23.97,10.29,48.81,13.99,73.9,16.22,25.09,2.22,50.23,2.04,74.94-.08,2.56,10.86,5,21.26,7.56,32.11-2.55,.31-5.56,.78-8.59,1.04-27.89,2.38-55.76,2.3-83.58-1.03-17.09-2.05-34.03-4.88-50.1-11.34-4.12-1.65-8-3.98-11.79-6.34-1.14-.71-2.2-2.54-2.23-3.88-.2-8.73-.1-17.47-.1-26.69Z"/><path d="M45.13,141.76c41.73,16.24,84.78,17.86,128.67,17.32-1.92,2.99-3.81,5.45-5.2,8.16-3.81,7.42-7.46,14.91-11.05,22.44-.74,1.56-1.22,2.7-3.34,2.68-28.36-.2-56.53-2.32-83.91-10.2-7.45-2.14-14.46-5.88-21.59-9.09-2.68-1.21-3.76-3.45-3.66-6.65,.26-8.1,.08-16.21,.08-24.66Z"/><path d="M150.1,216.4c.15,.66,.26,.91,.24,1.14-.57,7.23-.59,7.1-7.91,7.65-24.31,1.84-48.6,1.65-72.83-.89-20.22-2.12-40.3-5.2-59.1-13.55-3.44-1.53-6.55-3.8-9.82-5.73l-.07-1.45c4.08-2.23,8.01-4.86,12.29-6.6,5.64-2.28,11.54-3.91,17.37-5.67,.92-.28,2.31-.17,3.06,.36,14.07,10.02,30.33,14.23,46.83,17.69,22.27,4.67,44.85,6.56,67.58,6.9,.73,.01,1.46,.1,2.35,.16Z"/><path d="M256.37,107.5c-4.41,1.1-8.84,2.11-13.22,3.32-15.06,4.15-28.76,11.08-41.39,20.26-1.42,1.03-3.29,1.81-5.02,1.99-29.49,3.07-59,3.16-88.4-.77-12.55-1.68-24.94-4.59-37.4-7.01-1.65-.32-3.23-1.02-4.7-2.3,2.63,.25,5.25,.55,7.88,.75,35.68,2.71,71.23,1.91,106.54-4.39,13.37-2.39,26.56-5.6,39.03-11.19,3.17-1.42,6.65-2.67,9.19-4.9,4.31-3.78,8.57-3.55,13.38-1.69,4.71,1.82,9.49,3.44,14.24,5.14l-.13,.79Z"/><path class="d" d="M290.29,315.8h-23.96c0-4.48-.17-8.93,.06-13.35,.16-3.03-.75-4.46-3.77-5.63-13.62-5.25-22.53-14.81-25.41-29.45-.33-1.69-.33-3.44-.52-5.49h23.57c3.69,12.89,17.96,18.1,29.22,10.7,3.98-2.62,6.43-6.2,6.5-11.14,.09-6.2-1.58-9.07-7.54-10.93-6.4-2-13.01-3.35-19.51-5.05-3.01-.79-6.02-1.62-8.95-2.64-28.74-9.98-29.76-46.1-9.66-61.91,4.04-3.18,8.94-5.31,13.6-7.63,1.68-.84,2.51-1.58,2.46-3.52-.12-4.85-.04-9.71-.04-14.86h23.96c0,4.84,.14,9.56-.06,14.27-.1,2.44,.83,3.39,3.03,4.22,14.38,5.42,23.65,15.34,26.35,30.82,.25,1.45,.22,2.95,.33,4.65-7.99,0-15.69,0-23.39,0-4.42-12.44-15.92-17.75-27.08-11.98-3.1,1.6-6.23,4.56-7.67,7.68-2.61,5.65-1.87,13.25,6.42,15.64,6.33,1.83,12.79,3.23,19.18,4.87,2.65,.68,5.31,1.37,7.9,2.25,12.58,4.29,21.32,12.26,23.86,25.82,2.73,14.62-1.4,27.08-12.89,36.53-3.96,3.26-9.05,5.1-13.49,7.81-1.11,.68-2.32,2.19-2.38,3.38-.27,4.85-.11,9.72-.11,14.95Z"/></g></g></g></svg>