
<svg xmlns="http://www.w3.org/2000/svg" width="0" height="0">
    <defs>
        <symbol id="back" viewBox="0 0 24 24">
            <path d="M0 0h24v24H0V0z" fill="none" />
            <path d="M20 11H7.83l5.59-5.59L12 4l-8 8 8 8 1.41-1.41L7.83 13H20v-2z" />
        </symbol>
        <symbol id="drag" viewBox="0 0 24 24">
            <path d="M0 0h24v24H0V0z" fill="none" />
            <path d="M11 18c0 1.1-.9 2-2 2s-2-.9-2-2 .9-2 2-2 2 .9 2 2zm-2-8c-1.1 0-2 .9-2 2s.9 2 2 2 2-.9 2-2-.9-2-2-2zm0-6c-1.1 0-2 .9-2 2s.9 2 2 2 2-.9 2-2-.9-2-2-2zm6 4c1.1 0 2-.9 2-2s-.9-2-2-2-2 .9-2 2 .9 2 2 2zm0 2c-1.1 0-2 .9-2 2s.9 2 2 2 2-.9 2-2-.9-2-2-2zm0 6c-1.1 0-2 .9-2 2s.9 2 2 2 2-.9 2-2-.9-2-2-2z" />
        </symbol>
        <symbol id="expand" viewBox="0 0 24 24">
            <path d="M24 24H0V0h24v24z" fill="none" opacity=".87" />
            <path d="M16.59 8.59L12 13.17 7.41 8.59 6 10l6 6 6-6-1.41-1.41z" />
        </symbol>
        <symbol id="link" viewBox="0 0 24 24">
            <path d="M0 0h24v24H0V0z" fill="none" />
            <path d="M17 7h-4v2h4c1.65 0 3 1.35 3 3s-1.35 3-3 3h-4v2h4c2.76 0 5-2.24 5-5s-2.24-5-5-5zm-6 8H7c-1.65 0-3-1.35-3-3s1.35-3 3-3h4V7H7c-2.76 0-5 2.24-5 5s2.24 5 5 5h4v-2zm-3-4h8v2H8z" />
        </symbol>
        <symbol id="view" viewBox="0 0 24 24">
            <path d="M0 0h24v24H0V0z" fill="none" />
            <path d="M12 6c3.79 0 7.17 2.13 8.82 5.5C19.17 14.87 15.79 17 12 17s-7.17-2.13-8.82-5.5C4.83 8.13 8.21 6 12 6m0-2C7 4 2.73 7.11 1 11.5 2.73 15.89 7 19 12 19s9.27-3.11 11-7.5C21.27 7.11 17 4 12 4zm0 5c1.38 0 2.5 1.12 2.5 2.5S13.38 14 12 14s-2.5-1.12-2.5-2.5S10.62 9 12 9m0-2c-2.48 0-4.5 2.02-4.5 4.5S9.52 16 12 16s4.5-2.02 4.5-4.5S14.48 7 12 7z" />
        </symbol>
        <symbol id="hide" viewBox="0 0 24 24">
            <path d="M0 0h24v24H0zm0 0h24v24H0zm0 0h24v24H0zm0 0h24v24H0z" fill="none" />
            <path d="M12 7c2.76 0 5 2.24 5 5 0 .65-.13 1.26-.36 1.83l2.92 2.92c1.51-1.26 2.7-2.89 3.43-4.75-1.73-4.39-6-7.5-11-7.5-1.4 0-2.74.25-3.98.7l2.16 2.16C10.74 7.13 11.35 7 12 7zM2 4.27l2.28 2.28.46.46C3.08 8.3 1.78 10.02 1 12c1.73 4.39 6 7.5 11 7.5 1.55 0 3.03-.3 4.38-.84l.42.42L19.73 22 21 20.73 3.27 3 2 4.27zM7.53 9.8l1.55 1.55c-.05.21-.08.43-.08.65 0 1.66 1.34 3 3 3 .22 0 .44-.03.65-.08l1.55 1.55c-.67.33-1.41.53-2.2.53-2.76 0-5-2.24-5-5 0-.79.2-1.53.53-2.2zm4.31-.78l3.15 3.15.02-.16c0-1.66-1.34-3-3-3l-.17.01z" />
        </symbol>
        <symbol id="arrow-up" viewBox="0 0 24 24">
            <rect fill="none" height="24" width="24" />
            <path d="M5,9l1.41,1.41L11,5.83V22H13V5.83l4.59,4.59L19,9l-7-7L5,9z" />
        </symbol>
        <symbol id="arrow-down" viewBox="0 0 24 24">
            <rect fill="none" height="24" width="24" />
            <path d="M19,15l-1.41-1.41L13,18.17V2H11v16.17l-4.59-4.59L5,15l7,7L19,15z" />
        </symbol>
        <symbol id="add" viewBox="0 0 24 24">
            <path d="M0 0h24v24H0V0z" fill="none" />
            <path d="M13 7h-2v4H7v2h4v4h2v-4h4v-2h-4V7zm-1-5C6.48 2 2 6.48 2 12s4.48 10 10 10 10-4.48 10-10S17.52 2 12 2zm0 18c-4.41 0-8-3.59-8-8s3.59-8 8-8 8 3.59 8 8-3.59 8-8 8z" />
        </symbol>
        <symbol id="copy-to-all" viewBox="0 0 24 24">
            <path d="M0 0h24v24H0V0z" fill="none" />
            <path d="M16 1H4c-1.1 0-2 .9-2 2v14h2V3h12V1zm3 4H8c-1.1 0-2 .9-2 2v14c0 1.1.9 2 2 2h11c1.1 0 2-.9 2-2V7c0-1.1-.9-2-2-2zm0 16H8V7h11v14z" />
        </symbol>
        <symbol id="active" viewBox="0 0 24 24">
            <path d="M0 0h24v24H0z" fill="none" />
            <path d="M17 6H7c-3.31 0-6 2.69-6 6s2.69 6 6 6h10c3.31 0 6-2.69 6-6s-2.69-6-6-6zm0 10H7c-2.21 0-4-1.79-4-4s1.79-4 4-4h10c2.21 0 4 1.79 4 4s-1.79 4-4 4zm0-7c-1.66 0-3 1.34-3 3s1.34 3 3 3 3-1.34 3-3-1.34-3-3-3z" />
        </symbol>
        <symbol id="in-active" viewBox="0 0 24 24">
            <path d="M0 0h24v24H0V0z" fill="none" />
            <path d="M17 6H7c-3.31 0-6 2.69-6 6s2.69 6 6 6h10c3.31 0 6-2.69 6-6s-2.69-6-6-6zm0 10H7c-2.21 0-4-1.79-4-4s1.79-4 4-4h10c2.21 0 4 1.79 4 4s-1.79 4-4 4zM7 9c-1.66 0-3 1.34-3 3s1.34 3 3 3 3-1.34 3-3-1.34-3-3-3z" />
        </symbol>
        <symbol id="edit" viewBox="0 0 24 24">
            <g>
                <rect fill="none" height="24" width="24" />
            </g>
            <g>
                <g>
                    <g>
                        <path d="M3,21l3.75,0L17.81,9.94l-3.75-3.75L3,17.25L3,21z M5,18.08l9.06-9.06l0.92,0.92L5.92,19L5,19L5,18.08z" />
                    </g>
                    <g>
                        <path d="M18.37,3.29c-0.39-0.39-1.02-0.39-1.41,0l-1.83,1.83l3.75,3.75l1.83-1.83c0.39-0.39,0.39-1.02,0-1.41L18.37,3.29z" />
                    </g>
                </g>
            </g>
        </symbol>
        <symbol id="delete" viewBox="0 0 24 24">
            <path d="M0 0h24v24H0V0z" fill="none" />
            <path d="M6 19c0 1.1.9 2 2 2h8c1.1 0 2-.9 2-2V7H6v12zM8 9h8v10H8V9zm7.5-5l-1-1h-5l-1 1H5v2h14V4h-3.5z" />
        </symbol>
        <symbol id="times" viewBox="0 0 16 16">
            <path fill-rule="evenodd" d="M13.854 2.146a.5.5 0 0 1 0 .708l-11 11a.5.5 0 0 1-.708-.708l11-11a.5.5 0 0 1 .708 0Z"/>
            <path fill-rule="evenodd" d="M2.146 2.146a.5.5 0 0 0 0 .708l11 11a.5.5 0 0 0 .708-.708l-11-11a.5.5 0 0 0-.708 0Z"/>
        </symbol>
        <symbol id="clone" viewBox="0 0 24 24">
            <path d="M7 6V3a1 1 0 0 1 1-1h12a1 1 0 0 1 1 1v14a1 1 0 0 1-1 1h-3v3c0 .552-.45 1-1.007 1H4.007A1.001 1.001 0 0 1 3 21l.003-14c0-.552.45-1 1.007-1H7zM5.003 8L5 20h10V8H5.003zM9 6h8v10h2V4H9v2z" />
        </symbol>
        <symbol id="columns" viewBox="0 0 24 24">
            <rect fill="none" height="24" width="24" />
            <path d="M20,4H4C2.9,4,2,4.9,2,6v12c0,1.1,0.9,2,2,2h16c1.1,0,2-0.9,2-2V6C22,4.9,21.1,4,20,4z M8,18H4V6h4V18z M14,18h-4V6h4V18z M20,18h-4V6h4V18z" />
        </symbol>
        <symbol id="export" viewBox="0 0 24 24">
            <g>
                <rect fill="none" height="24" width="24" />
            </g>
            <g>
                <path d="M18,15v3H6v-3H4v3c0,1.1,0.9,2,2,2h12c1.1,0,2-0.9,2-2v-3H18z M17,11l-1.41-1.41L13,12.17V4h-2v8.17L8.41,9.59L7,11l5,5 L17,11z" />
            </g>
        </symbol>
        <symbol id="more" viewBox="0 0 24 24">
            <path d="M0 0h24v24H0V0z" fill="none" />
            <path d="M6 10c-1.1 0-2 .9-2 2s.9 2 2 2 2-.9 2-2-.9-2-2-2zm12 0c-1.1 0-2 .9-2 2s.9 2 2 2 2-.9 2-2-.9-2-2-2zm-6 0c-1.1 0-2 .9-2 2s.9 2 2 2 2-.9 2-2-.9-2-2-2z" />
        </symbol>
        <symbol id="double-arrow" viewBox="0 0 24 24">
            <g>
                <rect fill="none" height="24" width="24" />
            </g>
            <g>
                <g>
                    <polygon points="18,6.41 16.59,5 12,9.58 7.41,5 6,6.41 12,12.41" />
                    <polygon points="18,13 16.59,11.59 12,16.17 7.41,11.59 6,13 12,19" />
                </g>
            </g>
        </symbol>
        <symbol id="menu" viewBox="0 0 24 24">
            <path d="M0 0h24v24H0V0z" fill="none" />
            <path d="M3 18h18v-2H3v2zm0-5h18v-2H3v2zm0-7v2h18V6H3z" />
        </symbol>
        <symbol id="close" viewBox="0 0 24 24">
            <path d="M0 0h24v24H0V0z" fill="none" />
            <path d="M19 6.41L17.59 5 12 10.59 6.41 5 5 6.41 10.59 12 5 17.59 6.41 19 12 13.41 17.59 19 19 17.59 13.41 12 19 6.41z" />
        </symbol>
        <symbol id="nav" viewBox="0 0 24 24">
            <path d="M0 0h24v24H0V0z" fill="none" />
            <path d="M4 8h4V4H4v4zm6 12h4v-4h-4v4zm-6 0h4v-4H4v4zm0-6h4v-4H4v4zm6 0h4v-4h-4v4zm6-10v4h4V4h-4zm-6 4h4V4h-4v4zm6 6h4v-4h-4v4zm0 6h4v-4h-4v4z" />
        </symbol>
        <symbol id="icon-download" viewBox="0 0 24 24">
            <path fill="none" d="M0 0h24v24H0z" />
            <path d="M18 15v3H6v-3H4v3c0 1.1.9 2 2 2h12c1.1 0 2-.9 2-2v-3h-2zm-1-4l-1.41-1.41L13 12.17V4h-2v8.17L8.41 9.59 7 11l5 5 5-5z" />
        </symbol>
        <symbol id="arrow-left" viewBox="0 0 16 16">
            <path fill-rule="evenodd" d="M11.354 1.646a.5.5 0 0 1 0 .708L5.707 8l5.647 5.646a.5.5 0 0 1-.708.708l-6-6a.5.5 0 0 1 0-.708l6-6a.5.5 0 0 1 .708 0z" />
        </symbol>
        <symbol id="arrow-right" viewBox="0 0 16 16">
            <path fill-rule="evenodd" d="M4.646 1.646a.5.5 0 0 1 .708 0l6 6a.5.5 0 0 1 0 .708l-6 6a.5.5 0 0 1-.708-.708L10.293 8 4.646 2.354a.5.5 0 0 1 0-.708z" />
        </symbol>
        <symbol id="double-arrow-left" viewBox="0 0 16 16">
            <path fill-rule="evenodd" d="M8.354 1.646a.5.5 0 0 1 0 .708L2.707 8l5.647 5.646a.5.5 0 0 1-.708.708l-6-6a.5.5 0 0 1 0-.708l6-6a.5.5 0 0 1 .708 0z" />
            <path fill-rule="evenodd" d="M12.354 1.646a.5.5 0 0 1 0 .708L6.707 8l5.647 5.646a.5.5 0 0 1-.708.708l-6-6a.5.5 0 0 1 0-.708l6-6a.5.5 0 0 1 .708 0z" />
        </symbol>
        <symbol id="double-arrow-right" viewBox="0 0 16 16">
            <path fill-rule="evenodd" d="M3.646 1.646a.5.5 0 0 1 .708 0l6 6a.5.5 0 0 1 0 .708l-6 6a.5.5 0 0 1-.708-.708L9.293 8 3.646 2.354a.5.5 0 0 1 0-.708z" />
            <path fill-rule="evenodd" d="M7.646 1.646a.5.5 0 0 1 .708 0l6 6a.5.5 0 0 1 0 .708l-6 6a.5.5 0 0 1-.708-.708L13.293 8 7.646 2.354a.5.5 0 0 1 0-.708z" />
        </symbol>
        <symbol id="more" viewBox="0 0 16 16">
            <path d="M3 9.5a1.5 1.5 0 1 1 0-3 1.5 1.5 0 0 1 0 3zm5 0a1.5 1.5 0 1 1 0-3 1.5 1.5 0 0 1 0 3zm5 0a1.5 1.5 0 1 1 0-3 1.5 1.5 0 0 1 0 3z"/>
        </symbol>
        <symbol id="test" viewBox="0 0 24 24">
            <path d="M0,437.8c0,28.5,23.2,51.6,51.6,51.6h386.2c28.5,0,51.6-23.2,51.6-51.6V51.6c0-28.5-23.2-51.6-51.6-51.6H51.6			C23.1,0,0,23.2,0,51.6C0,51.6,0,437.8,0,437.8z M437.8,464.9H51.6c-14.9,0-27.1-12.2-27.1-27.1v-64.5l92.8-92.8l79.3,79.3			c4.8,4.8,12.5,4.8,17.3,0l143.2-143.2l107.8,107.8v113.4C464.9,452.7,452.7,464.9,437.8,464.9z M51.6,24.5h386.2			c14.9,0,27.1,12.2,27.1,27.1v238.1l-99.2-99.1c-4.8-4.8-12.5-4.8-17.3,0L205.2,333.8l-79.3-79.3c-4.8-4.8-12.5-4.8-17.3,0			l-84.1,84.1v-287C24.5,36.7,36.7,24.5,51.6,24.5z" />
            <path d="M151.7,196.1c34.4,0,62.3-28,62.3-62.3s-28-62.3-62.3-62.3s-62.3,28-62.3,62.3S117.3,196.1,151.7,196.1z M151.7,96			c20.9,0,37.8,17,37.8,37.8s-17,37.8-37.8,37.8s-37.8-17-37.8-37.8S130.8,96,151.7,96z" />
        </symbol>
        <symbol id="download" viewBox="0 0 24 24">
            <path d="M0 0h24v24H0z" fill="none" />
            <path d="M19 9h-4V3H9v6H5l7 7 7-7zM5 18v2h14v-2H5z" />
        </symbol>
        <symbol id="tax-rule" viewBox="0 0 16 16">
            <path d="M2 2a2 2 0 0 1 2-2h8a2 2 0 0 1 2 2v12a2 2 0 0 1-2 2H4a2 2 0 0 1-2-2V2zm2-1a1 1 0 0 0-1 1v4h10V2a1 1 0 0 0-1-1H4zm9 6H6v2h7V7zm0 3H6v2h7v-2zm0 3H6v2h6a1 1 0 0 0 1-1v-1zm-8 2v-2H3v1a1 1 0 0 0 1 1h1zm-2-3h2v-2H3v2zm0-3h2V7H3v2z" />
        </symbol>
        <symbol id="arrow-up-right" viewBox="0 0 16 16">
            <path fill-rule="evenodd" d="M8.636 3.5a.5.5 0 0 0-.5-.5H1.5A1.5 1.5 0 0 0 0 4.5v10A1.5 1.5 0 0 0 1.5 16h10a1.5 1.5 0 0 0 1.5-1.5V7.864a.5.5 0 0 0-1 0V14.5a.5.5 0 0 1-.5.5h-10a.5.5 0 0 1-.5-.5v-10a.5.5 0 0 1 .5-.5h6.636a.5.5 0 0 0 .5-.5z" />
            <path fill-rule="evenodd" d="M16 .5a.5.5 0 0 0-.5-.5h-5a.5.5 0 0 0 0 1h3.793L6.146 9.146a.5.5 0 1 0 .708.708L15 1.707V5.5a.5.5 0 0 0 1 0v-5z" />
        </symbol>
        <symbol id="admin-reply" viewBox="0 0 24 24">
            <path d="M0 0h24v24H0z" fill="none"/>
            <path d="M21 6h-2v9H6v2c0 .55.45 1 1 1h11l4 4V7c0-.55-.45-1-1-1zm-4 6V3c0-.55-.45-1-1-1H3c-.55 0-1 .45-1 1v14l4-4h10c.55 0 1-.45 1-1z"/>
        </symbol>
        <symbol viewBox="0 0 24 24" id="list">
            <path d="M3 13h2v-2H3v2zm0 4h2v-2H3v2zm0-8h2V7H3v2zm4 4h14v-2H7v2zm0 4h14v-2H7v2zM7 7v2h14V7H7z"/>
        </symbol>
        <symbol viewBox="0 0 24 24" id="form">
            <path d="M0 0h24v24H0z" fill="none"/>
            <path d="M19 5v14H5V5h14m1.1-2H3.9c-.5 0-.9.4-.9.9v16.2c0 .4.4.9.9.9h16.2c.4 0 .9-.5.9-.9V3.9c0-.5-.5-.9-.9-.9zM11 7h6v2h-6V7zm0 4h6v2h-6v-2zm0 4h6v2h-6zM7 7h2v2H7zm0 4h2v2H7zm0 4h2v2H7z"/>
        </symbol>
        <symbol viewBox="0 0 24 24" id="eye">
            <path d="M12 3c5.392 0 9.878 3.88 10.819 9-.94 5.12-5.427 9-10.819 9-5.392 0-9.878-3.88-10.819-9C2.121 6.88 6.608 3 12 3zm0 16a9.005 9.005 0 0 0 8.777-7 9.005 9.005 0 0 0-17.554 0A9.005 9.005 0 0 0 12 19zm0-2.5a4.5 4.5 0 1 1 0-9 4.5 4.5 0 0 1 0 9zm0-2a2.5 2.5 0 1 0 0-5 2.5 2.5 0 0 0 0 5z"/>
        </symbol>
        <symbol viewBox="0 0 24 24" id="send-email">
            <path d="M20,4H4C2.9,4,2,4.9,2,6v12c0,1.1,0.9,2,2,2h9v-2H4V8l8,5l8-5v5h2V6C22,4.9,21.1,4,20,4z M12,11L4,6h16L12,11z M19,15l4,4 l-4,4v-3h-4v-2h4V15z"/>
        </symbol>
        <symbol viewBox="0 0 24 24" id="comment">
            <path d="M20 2H4c-1.1 0-1.99.9-1.99 2L2 22l4-4h14c1.1 0 2-.9 2-2V4c0-1.1-.9-2-2-2zM6 9h12v2H6V9zm8 5H6v-2h8v2zm4-6H6V6h12v2z"/>
        </symbol>
        <symbol viewBox="0 0 24 24" id="percent">
            <g>
                <g>
                    <g>
                        <path d="M7.5,11C9.43,11,11,9.43,11,7.5S9.43,4,7.5,4S4,5.57,4,7.5S5.57,11,7.5,11z M7.5,6C8.33,6,9,6.67,9,7.5S8.33,9,7.5,9 S6,8.33,6,7.5S6.67,6,7.5,6z"/>
                    </g>
                    <g>
                        <rect height="2" transform="matrix(0.7071 -0.7071 0.7071 0.7071 -4.9706 12)" width="20.63" x="1.69" y="11"/>
                    </g>
                    <g>
                        <path d="M16.5,13c-1.93,0-3.5,1.57-3.5,3.5s1.57,3.5,3.5,3.5s3.5-1.57,3.5-3.5S18.43,13,16.5,13z M16.5,18 c-0.83,0-1.5-0.67-1.5-1.5s0.67-1.5,1.5-1.5s1.5,0.67,1.5,1.5S17.33,18,16.5,18z"/>
                    </g>
                </g>
            </g>
        </symbol>
        <symbol viewBox="0 -64 640 640" id="user-permission">
            <path d="M224 256A128 128 0 1 0 96 128a128 128 0 0 0 128 128zm96 64a63.08 63.08 0 0 1 8.1-30.5c-4.8-.5-9.5-1.5-14.5-1.5h-16.7a174.08 174.08 0 0 1-145.8 0h-16.7A134.43 134.43 0 0 0 0 422.4V464a48 48 0 0 0 48 48h280.9a63.54 63.54 0 0 1-8.9-32zm288-32h-32v-80a80 80 0 0 0-160 0v80h-32a32 32 0 0 0-32 32v160a32 32 0 0 0 32 32h224a32 32 0 0 0 32-32V320a32 32 0 0 0-32-32zM496 432a32 32 0 1 1 32-32 32 32 0 0 1-32 32zm32-144h-64v-80a32 32 0 0 1 64 0z"/>
        </symbol>
        <symbol viewBox="0 0 24 24" id="password">
            <path d="M0,0h24v24H0V0z" fill="none"/>
            <path d="M2,17h20v2H2V17z M3.15,12.95L4,11.47l0.85,1.48l1.3-0.75L5.3,10.72H7v-1.5H5.3l0.85-1.47L4.85,7L4,8.47L3.15,7l-1.3,0.75 L2.7,9.22H1v1.5h1.7L1.85,12.2L3.15,12.95z M9.85,12.2l1.3,0.75L12,11.47l0.85,1.48l1.3-0.75l-0.85-1.48H15v-1.5h-1.7l0.85-1.47 L12.85,7L12,8.47L11.15,7l-1.3,0.75l0.85,1.47H9v1.5h1.7L9.85,12.2z M23,9.22h-1.7l0.85-1.47L20.85,7L20,8.47L19.15,7l-1.3,0.75 l0.85,1.47H17v1.5h1.7l-0.85,1.48l1.3,0.75L20,11.47l0.85,1.48l1.3-0.75l-0.85-1.48H23V9.22z"/>
        </symbol>
        <symbol viewBox="0 0 319.46 319.46"  id="password-email">
            <g>
                <path d="M302.708,97.033l-124.686-76.3c-11.283-6.904-25.301-6.904-36.584,0L16.752,97.033C6.419,103.357,0,114.811,0,126.925
                v141.937c0,19.323,15.721,35.044,35.044,35.044h249.371c19.324,0,35.044-15.721,35.044-35.044V126.925
                C319.46,114.811,313.041,103.357,302.708,97.033z M151.877,37.792c2.422-1.482,5.137-2.223,7.853-2.223
                c2.715,0,5.431,0.741,7.853,2.223l123.206,75.395l-85.688,56.273v-0.364c0-10.423-5.8-19.514-14.339-24.224V127.83
                c0-17.111-13.921-31.032-31.032-31.032s-31.032,13.921-31.032,31.032v17.042c-8.54,4.71-14.339,13.801-14.339,24.224v0.363
                l-85.687-56.272L151.877,37.792z M170.762,141.449h-22.063v-13.62c0-6.083,4.949-11.032,11.032-11.032s11.032,4.949,11.032,11.032
                V141.449z M134.359,169.096c0-4.216,3.43-7.646,7.646-7.646h35.449c4.216,0,7.646,3.43,7.646,7.646v34.713
                c0,4.896-3.982,8.878-8.878,8.878h-32.986c-4.896,0-8.878-3.983-8.878-8.878V169.096z M284.416,283.906H35.044
                c-8.295,0-15.044-6.749-15.044-15.044V131.42l93.688,61.526c0.217,0.143,0.447,0.249,0.671,0.373v10.49
                c0,15.924,12.955,28.878,28.878,28.878h32.986c15.923,0,28.878-12.955,28.878-28.878v-10.49c0.224-0.124,0.454-0.23,0.671-0.373
                l93.688-61.526v137.441C299.46,277.157,292.711,283.906,284.416,283.906z"/>
                        <path d="M159.73,202.579c5.523,0,10-4.477,10-10v-12.747c0-5.523-4.477-10-10-10s-10,4.477-10,10v12.747
                C149.73,198.102,154.207,202.579,159.73,202.579z"/>
            </g>
        </symbol>
        <symbol viewBox="0 0 24 24" id="more-dots">
            <path d="M0 0h24v24H0V0z" fill="none"/>
            <path d="M6 10c-1.1 0-2 .9-2 2s.9 2 2 2 2-.9 2-2-.9-2-2-2zm12 0c-1.1 0-2 .9-2 2s.9 2 2 2 2-.9 2-2-.9-2-2-2zm-6 0c-1.1 0-2 .9-2 2s.9 2 2 2 2-.9 2-2-.9-2-2-2z"/>
        </symbol>
        <symbol id="icon-restore"  viewBox="0 0 24 24">
            <path d="M13 3c-4.97 0-9 4.03-9 9H1l4 3.99L9 12H6c0-3.87 3.13-7 7-7s7 3.13 7 7-3.13 7-7 7c-1.93 0-3.68-.79-4.94-2.06l-1.42 1.42C8.27 19.99 10.51 21 13 21c4.97 0 9-4.03 9-9s-4.03-9-9-9zm-1 5v5l4.25 2.52.77-1.28-3.52-2.09V8z"/>
        </symbol>
        <symbol id="icon-completed"  viewBox="0 0 24 24"  stroke-width="2" stroke="currentColor" fill="none" stroke-linecap="round" stroke-linejoin="round">
            <rect x="4" y="4" width="16" height="16" rx="1"></rect>
            <path d="M4 8h16"></path>
            <path d="M8 4v4"></path>
            <path d="M9.5 14.5l1.5 1.5l3 -3"></path>
        </symbol>
        <symbol id="icon-user-truncate"  viewBox="0 0 24 24"  stroke-width="2" stroke="currentColor" fill="none" stroke-linecap="round" stroke-linejoin="round">
            <path stroke="none" d="M0 0h24v24H0z" fill="none"></path>
            <circle cx="9" cy="7" r="4"></circle>
            <path d="M3 21v-2a4 4 0 0 1 4 -4h4a4 4 0 0 1 4 4v2"></path>
            <path d="M17 9l4 4m0 -4l-4 4"></path>
        </symbol>
        <symbol viewBox="0 0 24 24" id="linking"       >
            <path d="M3.9 12c0-1.71 1.39-3.1 3.1-3.1h4V7H7c-2.76 0-5 2.24-5 5s2.24 5 5 5h4v-1.9H7c-1.71 0-3.1-1.39-3.1-3.1zM8 13h8v-2H8v2zm9-6h-4v1.9h4c1.71 0 3.1 1.39 3.1 3.1s-1.39 3.1-3.1 3.1h-4V17h4c2.76 0 5-2.24 5-5s-2.24-5-5-5z"/>
        </symbol>
        <symbol viewBox="0 0 24 24" id="history"       >
            <path d="M0 0h24v24H0z" fill="none"/>
            <path d="M13 3c-4.97 0-9 4.03-9 9H1l3.89 3.89.07.14L9 12H6c0-3.87 3.13-7 7-7s7 3.13 7 7-3.13 7-7 7c-1.93 0-3.68-.79-4.94-2.06l-1.42 1.42C8.27 19.99 10.51 21 13 21c4.97 0 9-4.03 9-9s-4.03-9-9-9zm-1 5v5l4.28 2.54.72-1.21-3.5-2.08V8H12z"/>
        </symbol>
        <symbol id="gear" viewBox="0 0 16 16.02">
            <g id="Group_889" data-name="Group 889" transform="translate(0 -0.338)">
                <g id="Group_720" data-name="Group 720" transform="translate(0)">
                    <rect id="Rectangle_655" data-name="Rectangle 655" width="16" height="16" transform="translate(0.001 0.338)" fill="none"/>
                </g>
                <g id="Group_721" data-name="Group 721" transform="translate(4.749 5.125)">
                    <path id="Path_484" data-name="Path 484" d="M-88.017,155.288a3.254,3.254,0,0,1-3.25-3.25,3.254,3.254,0,0,1,3.25-3.25,3.254,3.254,0,0,1,3.25,3.25A3.254,3.254,0,0,1-88.017,155.288Zm0-5a1.753,1.753,0,0,0-1.75,1.75,1.753,1.753,0,0,0,1.75,1.75,1.752,1.752,0,0,0,1.75-1.75A1.752,1.752,0,0,0-88.017,150.288Z" transform="translate(91.267 -148.788)"/>
                </g>
                <g id="Group_722" data-name="Group 722" transform="translate(0.346 0.392)">
                    <path id="Path_485" data-name="Path 485" d="M-87.015,160.021h-2a1.8,1.8,0,0,1-1.745-1.4l-.172-.766a6.79,6.79,0,0,1-.657-.382l-.743.234a1.8,1.8,0,0,1-2.1-.824l-.994-1.719a1.8,1.8,0,0,1,.329-2.207l.588-.541c-.007-.127-.011-.253-.011-.377s0-.25.011-.377l-.578-.531a1.8,1.8,0,0,1-.346-2.2l1.009-1.747a1.791,1.791,0,0,1,2.085-.814l.752.238a6.285,6.285,0,0,1,.656-.382l.173-.769a1.8,1.8,0,0,1,1.744-1.4h2a1.8,1.8,0,0,1,1.746,1.4l.172.766a6.467,6.467,0,0,1,.657.381l.744-.234a1.8,1.8,0,0,1,2.1.824l.994,1.718a1.807,1.807,0,0,1-.329,2.208l-.588.542c.007.126.01.252.01.376s0,.25-.01.376l.588.541,0,0,.043.043a1.8,1.8,0,0,1,.291,2.148L-81.6,156.9a1.787,1.787,0,0,1-2.089.811l-.748-.236a6.434,6.434,0,0,1-.656.382l-.174.77A1.8,1.8,0,0,1-87.015,160.021Zm-4.306-4.208.308.233a4.859,4.859,0,0,0,1.019.592l.355.149.338,1.506a.294.294,0,0,0,.281.228h2a.3.3,0,0,0,.28-.224l.339-1.509.354-.15a4.789,4.789,0,0,0,1.019-.592l.309-.234,1.47.464a.3.3,0,0,0,.336-.122l1.01-1.748a.3.3,0,0,0-.011-.3l-.1-.1-1.077-.989.041-.377a5.566,5.566,0,0,0,.033-.6,5.579,5.579,0,0,0-.033-.6l-.041-.376,1.13-1.04a.3.3,0,0,0,.047-.368l-.994-1.717a.3.3,0,0,0-.35-.135l-1.463.462-.308-.234a4.839,4.839,0,0,0-1.02-.592l-.354-.151-.338-1.5a.294.294,0,0,0-.282-.229h-2a.3.3,0,0,0-.28.225l-.339,1.508-.355.15a4.81,4.81,0,0,0-1.019.591l-.308.234-1.47-.465a.3.3,0,0,0-.335.123l-1.01,1.748a.3.3,0,0,0,.065.363l1.12,1.031-.041.376a5.333,5.333,0,0,0-.034.6,5.272,5.272,0,0,0,.034.6l.043.378-1.132,1.041a.3.3,0,0,0-.047.367l.994,1.72a.3.3,0,0,0,.348.134Z" transform="translate(95.67 -144.055)"/>
                </g>
            </g>
        </symbol>
        <symbol id="counterclockwise" viewBox="0 0 16 16.02">
             <path fill-rule="evenodd" d="M8 3a5 5 0 1 1-4.546 2.914.5.5 0 0 0-.908-.417A6 6 0 1 0 8 2v1z"/>
            <path d="M8 4.466V.534a.25.25 0 0 0-.41-.192L5.23 2.308a.25.25 0 0 0 0 .384l2.36 1.966A.25.25 0 0 0 8 4.466z"/>
        </symbol>  
        <symbol  id="warning" viewBox="0 0 24 24" stroke-width="2" stroke="currentColor" fill="none" stroke-linecap="round" stroke-linejoin="round">
            <path stroke="none" d="M0 0h24v24H0z" fill="none"/>
            <path d="M12 9v2m0 4v.01" />
            <path d="M5 19h14a2 2 0 0 0 1.84 -2.75l-7.1 -12.25a2 2 0 0 0 -3.5 0l-7.1 12.25a2 2 0 0 0 1.75 2.75" />
        </symbol>  
        <symbol id="qualification" viewBox="0 0 800 800">    
                <g><path d="M573.209,268.504l6.092,2.619c2.576,1.108,5.254,1.631,7.891,1.631c7.75,0,15.127-4.533,18.383-12.104   c4.363-10.147-0.326-21.911-10.473-26.273l-6.092-2.62c-10.148-4.363-21.91,0.326-26.273,10.473   C558.373,252.378,563.063,264.141,573.209,268.504z"/><path d="M748.934,428.852V313.685c0-11.046-8.953-20-20-20H386.189c-11.046,0-20,8.954-20,20s8.954,20,20,20h245.586   L386.189,439.268L94.083,313.685l292.106-125.583l131.116,56.369c10.148,4.362,21.91-0.327,26.273-10.475   c4.361-10.147-0.328-21.911-10.475-26.273l-139.015-59.766c-5.043-2.168-10.756-2.168-15.799,0L35.545,295.311   c-7.342,3.157-12.101,10.382-12.101,18.374s4.759,15.218,12.101,18.374L378.29,479.411c2.521,1.084,5.211,1.626,7.899,1.626   s5.378-0.542,7.899-1.626l188.64-81.101l0.004,138.395c-110.08,101.846-283.009,101.846-393.086-0.001l0.001-35.302   c0-11.046-8.954-20.001-20-20.001l0,0c-11.045,0-20,8.955-20,19.999l-0.001,43.873c0,5.373,2.163,10.521,6.001,14.283   c61.922,60.689,143.796,94.112,230.541,94.112c86.746,0,168.621-33.423,230.542-94.11c3.838-3.762,6.002-8.91,6.002-14.285   l-0.004-164.159l86.205-37.062v84.799c-16.293,7.572-27.623,24.086-27.623,43.204c0,19.62,14.643,71.239,47.623,71.239   c32.979,0,47.621-51.619,47.621-71.239C776.555,452.938,765.227,436.425,748.934,428.852z M728.934,497.887   c-3.885-7.633-7.623-19.427-7.623-25.831c0-4.203,3.42-7.623,7.623-7.623s7.621,3.42,7.621,7.623   C736.555,478.46,732.816,490.254,728.934,497.887z"/>
                <path d="M169.648,460.571c11.046,0,20-8.954,20-20v-6.655c0-11.046-8.954-20-20-20s-20,8.954-20,20v6.655   C149.648,451.617,158.602,460.571,169.648,460.571z"/></g>
        </symbol>  
        <symbol viewBox="0 0 24 24" id="login"
        >
            <path d="M11,7L9.6,8.4l2.6,2.6H2v2h10.2l-2.6,2.6L11,17l5-5L11,7z M20,19h-8v2h8c1.1,0,2-0.9,2-2V5c0-1.1-0.9-2-2-2h-8v2h8V19z"/>
        </symbol>
        <symbol viewBox="0 0 24 24" id="sync-currency"
        >
            <path d="M12.89,11.1c-1.78-0.59-2.64-0.96-2.64-1.9c0-1.02,1.11-1.39,1.81-1.39c1.31,0,1.79,0.99,1.9,1.34l1.58-0.67 C15.39,8.03,14.72,6.56,13,6.24V5h-2v1.26C8.52,6.82,8.51,9.12,8.51,9.22c0,2.27,2.25,2.91,3.35,3.31 c1.58,0.56,2.28,1.07,2.28,2.03c0,1.13-1.05,1.61-1.98,1.61c-1.82,0-2.34-1.87-2.4-2.09L8.1,14.75c0.63,2.19,2.28,2.78,2.9,2.96V19 h2v-1.24c0.4-0.09,2.9-0.59,2.9-3.22C15.9,13.15,15.29,11.93,12.89,11.1z M3,21H1v-6h6v2l-2.48,0c1.61,2.41,4.36,4,7.48,4 c4.97,0,9-4.03,9-9h2c0,6.08-4.92,11-11,11c-3.72,0-7.01-1.85-9-4.67L3,21z M1,12C1,5.92,5.92,1,12,1c3.72,0,7.01,1.85,9,4.67L21,3 h2v6h-6V7l2.48,0C17.87,4.59,15.12,3,12,3c-4.97,0-9,4.03-9,9H1z"/>
        </symbol>
        <symbol viewBox="0 0 24 24" id="preview">
           <path d="M21.93,12.36A1,1,0,0,0,22,12h0a1,1,0,0,0-.07-.36c0-.05-.05-.08-.07-.13a1.19,1.19,0,0,0-.09-.15l-5-6a1,1,0,1,0-1.54,1.28L18.86,11H3a1,1,0,0,0,0,2H18.86l-3.63,4.36a1,1,0,0,0,.13,1.41A1,1,0,0,0,16,19a1,1,0,0,0,.77-.36l5-6a1.19,1.19,0,0,0,.09-.15C21.88,12.44,21.91,12.41,21.93,12.36Z"/>
        </symbol>
        <symbol id="classes" viewBox="0 0 31.721 30.407">
            <g id="Group_665" data-name="Group 665" transform="translate(-773.87 -1037.86)">
                <g id="Group_653" data-name="Group 653" transform="translate(780.541 1037.86)">
                    <g id="Group_652" data-name="Group 652" transform="translate(0 0)">
                    <g id="Group_651" data-name="Group 651">
                        <path id="Path_672" data-name="Path 672" d="M838.873,1130.819a.792.792,0,0,1-1.113.115c-1.612-1.308-4.64-2.122-7.9-2.122s-6.286.814-7.9,2.122a.792.792,0,1,1-.959-1.26c1.916-1.531,5.224-2.445,8.857-2.445,3.662,0,6.989.927,8.9,2.476A.793.793,0,0,1,838.873,1130.819Z" transform="translate(-820.67 -1114.492)" />
                        <path id="Path_673" data-name="Path 673" d="M849.821,1049.6a5.872,5.872,0,1,0-5.871-5.871A5.878,5.878,0,0,0,849.821,1049.6Zm0-10.161a4.29,4.29,0,1,1-4.289,4.29A4.295,4.295,0,0,1,849.821,1039.442Z" transform="translate(-840.632 -1037.86)" />
                    </g>
                    </g>
                </g>
                <g id="Group_656" data-name="Group 656" transform="translate(773.87 1055.242)">
                    <g id="Group_655" data-name="Group 655" transform="translate(0)">
                    <g id="Group_654" data-name="Group 654">
                        <path id="Path_674" data-name="Path 674" d="M795.487,1166.186A3.188,3.188,0,1,0,792.3,1163,3.192,3.192,0,0,0,795.487,1166.186Zm0-4.793a1.606,1.606,0,1,1-1.6,1.606A1.608,1.608,0,0,1,795.487,1161.392Z" transform="translate(-789.673 -1159.81)" />
                        <path id="Path_675" data-name="Path 675" d="M782.774,1215.986a11.252,11.252,0,0,1-3.089.408c-3.37,0-5.815-1.217-5.815-2.892s2.446-2.892,5.815-2.892a11.246,11.246,0,0,1,3.086.408.792.792,0,0,1,.539.981.79.79,0,0,1-.982.537,9.677,9.677,0,0,0-2.643-.344c-2.75,0-4.233.929-4.233,1.31s1.484,1.31,4.233,1.31a9.655,9.655,0,0,0,2.647-.345.791.791,0,1,1,.442,1.519Z" transform="translate(-773.87 -1203.369)"/>
                    </g>
                    </g>
                </g>
                <g id="Group_659" data-name="Group 659" transform="translate(783.916 1055.242)">
                    <g id="Group_658" data-name="Group 658" transform="translate(0)">
                    <g id="Group_657" data-name="Group 657">
                        <path id="Path_676" data-name="Path 676" d="M850.164,1210.6c-3.368,0-5.814,1.217-5.814,2.892s2.446,2.892,5.814,2.892,5.814-1.216,5.814-2.892S853.534,1210.6,850.164,1210.6Zm0,1.582c2.75,0,4.232.929,4.232,1.31s-1.482,1.31-4.232,1.31-4.232-.929-4.232-1.31S847.416,1212.182,850.164,1212.182Z" transform="translate(-844.35 -1203.361)" />
                        <path id="Path_677" data-name="Path 677" d="M865.967,1166.186A3.188,3.188,0,1,0,862.78,1163,3.191,3.191,0,0,0,865.967,1166.186Zm0-4.793a1.606,1.606,0,1,1-1.6,1.606A1.607,1.607,0,0,1,865.967,1161.392Z" transform="translate(-860.153 -1159.81)" />
                    </g>
                    </g>
                </g>
                <g id="Group_664" data-name="Group 664" transform="translate(796.117 1055.242)">
                    <g id="Group_661" data-name="Group 661" transform="translate(0.472)">
                    <g id="Group_660" data-name="Group 660">
                        <path id="Path_678" data-name="Path 678" d="M936.447,1159.81a3.188,3.188,0,1,0,3.189,3.189A3.191,3.191,0,0,0,936.447,1159.81Zm0,4.793a1.606,1.606,0,1,1,1.606-1.6A1.606,1.606,0,0,1,936.447,1164.6Z" transform="translate(-933.26 -1159.81)"/>
                    </g>
                    </g>
                    <g id="Group_663" data-name="Group 663" transform="translate(0 7.241)">
                    <g id="Group_662" data-name="Group 662">
                        <path id="Path_679" data-name="Path 679" d="M939.425,1213.5c0,1.675-2.446,2.892-5.815,2.892a11.253,11.253,0,0,1-3.089-.408.793.793,0,0,1-.539-.981.792.792,0,0,1,.982-.539,9.637,9.637,0,0,0,2.645.345c2.75,0,4.233-.929,4.233-1.31s-1.484-1.31-4.233-1.31a9.634,9.634,0,0,0-2.644.345.79.79,0,0,1-.6-.066.782.782,0,0,1-.379-.473.791.791,0,0,1,.539-.981,11.247,11.247,0,0,1,3.086-.408C936.979,1210.61,939.425,1211.826,939.425,1213.5Z" transform="translate(-929.95 -1210.61)"/>
                    </g>
                    </g>
                </g>
            </g>
        </symbol>
        <symbol id="pin" viewBox="0 0 512 512">
            <g>
                <path d="M341.476,338.285c54.483-85.493,47.634-74.827,49.204-77.056C410.516,233.251,421,200.322,421,166
                    C421,74.98,347.139,0,256,0C165.158,0,91,74.832,91,166c0,34.3,10.704,68.091,31.19,96.446l48.332,75.84
                    C118.847,346.227,31,369.892,31,422c0,18.995,12.398,46.065,71.462,67.159C143.704,503.888,198.231,512,256,512
                    c108.025,0,225-30.472,225-90C481,369.883,393.256,346.243,341.476,338.285z M147.249,245.945
                    c-0.165-0.258-0.337-0.51-0.517-0.758C129.685,221.735,121,193.941,121,166c0-75.018,60.406-136,135-136
                    c74.439,0,135,61.009,135,136c0,27.986-8.521,54.837-24.646,77.671c-1.445,1.906,6.094-9.806-110.354,172.918L147.249,245.945z
                    M256,482c-117.994,0-195-34.683-195-60c0-17.016,39.568-44.995,127.248-55.901l55.102,86.463
                    c2.754,4.322,7.524,6.938,12.649,6.938s9.896-2.617,12.649-6.938l55.101-86.463C411.431,377.005,451,404.984,451,422
                    C451,447.102,374.687,482,256,482z"/>
            </g>
            <g>
                <path d="M256,91c-41.355,0-75,33.645-75,75s33.645,75,75,75c41.355,0,75-33.645,75-75S297.355,91,256,91z M256,211
                    c-24.813,0-45-20.187-45-45s20.187-45,45-45s45,20.187,45,45S280.813,211,256,211z"/>
            </g>
        </symbol>
    </defs>
</svg>
