<?xml version="1.0" encoding="UTF-8"?><svg id="Layer_2" xmlns="http://www.w3.org/2000/svg" viewBox="0 0 384 384"><defs><style>.cls-1{fill:#fff;}</style></defs><g id="Layer_1-2"><path class="cls-1" d="m384,313.5v70.5H0C0,256,0,128,0,0c128,0,256,0,384,0,0,38,0,76,0,114-2.22-4.03-5.56-5.7-10.18-5.3-3.34.29-6.73.08-10.1.09-3.68,0-7.37,0-11.26,0v5.62c0,53.36,0,106.73,0,160.09,0,9-3.05,12.51-11.92,14.29-35.24,7.07-67.98,20.14-97.49,40.93-1.92,1.36-3.78,2.81-5.67,4.21,1.51.48,2.59.21,3.67.04,20.66-3.32,41.22-7.43,61.99-9.72,23.78-2.62,47.72-3.71,71.61-5.24,4.31-.28,7.4-1.67,9.34-5.51Zm-202.88,18.12v-1.96c0-72.09.01-144.19-.08-216.28,0-1.66-.83-3.64-1.9-4.94-8.47-10.31-18.61-18.76-29.72-26.05-25.68-16.85-53.9-27.25-83.9-33.15-6.81-1.34-10.66,1.63-10.66,8.6-.03,68.97,0,137.94-.06,206.91,0,2.45.74,3.35,3.2,3.92,32.19,7.48,62.52,19.56,89.98,38.13,11.34,7.66,21.95,16.39,33.15,24.83Zm22.51.82c5.96-4.96,11.26-9.63,16.81-13.97,31.25-24.43,66.49-40.44,105-49.36,3.72-.86,4.56-2.4,4.55-5.98-.1-67.72-.08-135.44-.08-203.17,0-1,.04-2-.02-3-.32-6-4.2-9.03-10.06-7.88-21.62,4.21-42.43,10.89-62.23,20.61-19.19,9.42-36.7,21.15-50.98,37.33-2.09,2.37-3.07,4.73-3.07,7.99.1,70.85.07,141.69.07,212.54,0,1.44,0,2.89,0,4.89Zm-56.58,2.03c.07-.18.13-.37.2-.55-.96-.75-1.89-1.54-2.87-2.26-30.03-21.86-63.58-35.5-99.82-42.82-9.4-1.9-12.27-5.22-12.27-14.73,0-52.97,0-105.95,0-158.92,0-1.56,0-3.11,0-4.5-.87-.22-1.1-.33-1.34-.34-6.6-.25-13.21-.53-19.81-.74-7.84-.24-10.38,2.25-10.38,10.07,0,46.98,0,93.95,0,140.93,0,16.49-.02,32.98.01,49.48.01,5.78,2.56,8.43,8.34,8.78,12.19.74,24.43,1.05,36.58,2.25,24.29,2.39,48.56,5.05,72.79,8.03,9.6,1.18,19.06,3.52,28.58,5.33Z"/><path d="m384,313.5c-1.94,3.84-5.03,5.24-9.34,5.51-23.89,1.53-47.84,2.62-71.61,5.24-20.77,2.29-41.34,6.4-61.99,9.72-1.09.17-2.16.44-3.67-.04,1.89-1.41,3.75-2.86,5.67-4.21,29.51-20.79,62.25-33.86,97.49-40.93,8.87-1.78,11.92-5.29,11.92-14.29,0-53.36,0-106.73,0-160.09v-5.62c3.89,0,7.58,0,11.26,0,3.37,0,6.75.2,10.1-.09,4.63-.4,7.96,1.27,10.18,5.3v199.5Z"/><path d="m181.12,331.62c-11.2-8.44-21.82-17.17-33.15-24.83-27.46-18.57-57.79-30.65-89.98-38.13-2.46-.57-3.2-1.47-3.2-3.92.06-68.97.03-137.94.06-206.91,0-6.97,3.86-9.93,10.66-8.6,30,5.9,58.22,16.3,83.9,33.15,11.11,7.29,21.26,15.74,29.72,26.05,1.07,1.31,1.9,3.28,1.9,4.94.09,72.09.08,144.19.08,216.28v1.96Zm-41.81-169.15c4.99-.38,9.23-3.32,10.8-7.78,1.68-4.79.25-10.04-4.05-12.98-13.44-9.2-28.16-15.4-44.26-18.03-2.29-.38-5.02.18-7.19,1.12-4.11,1.78-6.42,6.48-5.94,10.76.59,5.23,3.69,8.96,9.09,10.06,12.85,2.61,24.74,7.44,35.71,14.65,1.69,1.11,3.88,1.48,5.83,2.2Zm-.74,72.02c4.97-.39,9.37-3.38,10.91-7.74,1.75-4.94.28-10.36-4.28-13.21-13.49-8.42-27.67-15.33-43.47-18.24-5.93-1.09-11.53,2.87-12.82,8.81-1.27,5.84,2.25,12.01,8.2,13.2,12.67,2.54,23.95,8.2,35.01,14.54,2,1.14,4.29,1.78,6.45,2.64Z"/><path d="m203.63,332.44c0-2,0-3.45,0-4.89,0-70.85.02-141.69-.07-212.54,0-3.26.98-5.63,3.07-7.99,14.29-16.18,31.8-27.91,50.98-37.33,19.8-9.72,40.61-16.4,62.23-20.61,5.87-1.14,9.74,1.88,10.06,7.88.05,1,.02,2,.02,3,0,67.72-.03,135.44.08,203.17,0,3.57-.83,5.12-4.55,5.98-38.51,8.91-73.75,24.93-105,49.36-5.56,4.34-10.86,9.01-16.81,13.97Zm41.66-169.9c2.16-.84,4.41-1.51,6.47-2.57,2.76-1.42,5.32-3.23,8.06-4.71,8.72-4.72,18.05-7.67,27.73-9.77,5.93-1.29,9.41-6.97,8.39-12.73-1.05-5.89-6.2-10.18-12.09-9.27-16.63,2.58-31.81,8.98-45.61,18.58-4.04,2.81-5.24,8.18-3.52,12.81,1.6,4.32,5.71,7.15,10.59,7.66Zm.73,71.94c2.07-.77,4.3-1.25,6.18-2.35,11.25-6.53,22.79-12.21,35.67-14.89,5.9-1.23,9.27-7.5,7.92-13.37-1.31-5.71-6.89-9.64-12.64-8.59-15.93,2.92-30.22,9.9-43.8,18.41-4.34,2.72-5.77,8.13-4.14,12.94,1.48,4.35,5.9,7.42,10.81,7.84Z"/><path d="m147.05,334.47c-9.52-1.81-18.98-4.14-28.58-5.33-24.23-2.98-48.5-5.64-72.79-8.03-12.15-1.2-24.38-1.51-36.58-2.25-5.78-.35-8.33-3-8.34-8.78-.03-16.49-.01-32.98-.01-49.48,0-46.98,0-93.95,0-140.93,0-7.82,2.55-10.31,10.38-10.07,6.6.21,13.21.48,19.81.74.24,0,.47.11,1.34.34,0,1.39,0,2.95,0,4.5,0,52.97,0,105.95,0,158.92,0,9.51,2.87,12.83,12.27,14.73,36.24,7.32,69.79,20.96,99.82,42.82.98.72,1.92,1.5,2.87,2.26-.07.18-.13.37-.2.55Z"/></g></svg>