<?xml version="1.0" encoding="UTF-8"?><svg xmlns="http://www.w3.org/2000/svg" viewBox="0 0 383.25 384"><defs><style>.d{fill:#fff;}</style></defs><g id="a"/><g id="b"><g id="c"><g><path d="M293.43,384H56.14V112.76h237.29V384ZM148.24,140.27c-8.68,11.57-17.23,22.96-26.3,35.04-4.52-4.73-8.71-9.12-12.44-13.02-5.29,5.34-10.42,10.51-15.21,15.35,10.01,10.04,20.35,20.42,30.85,30.95,13.53-18.1,27.23-36.4,41.03-54.86-6.12-4.59-11.87-8.91-17.93-13.46Zm-23.14,135.86c13.59-18.17,27.23-36.4,41.06-54.9-6.06-4.55-11.88-8.92-17.93-13.47-8.72,11.62-17.23,22.96-26.37,35.14-4.44-4.67-8.68-9.14-12.64-13.31-5.32,5.32-10.42,10.41-15.31,15.29,10.2,10.22,20.57,20.6,31.18,31.24Zm23.14-.87c-8.75,11.66-17.25,22.99-26.13,34.81-4.37-4.64-8.54-9.06-12.49-13.24-5.54,5.54-10.7,10.7-15.66,15.65,10.15,10.21,20.5,20.62,31.06,31.25,13.57-18.14,27.27-36.45,41.13-54.98-6.03-4.54-11.78-8.87-17.91-13.49Zm31.67-94.35v22.04h67.65v-22.04h-67.65Zm0,67.5v22.04h67.64v-22.04h-67.64Zm67.67,67.6h-67.64v22.05h67.64v-22.05Z"/><path d="M298.67,0c2.29,.55,4.58,1.05,6.85,1.66,20.2,5.46,34.1,25.15,32.75,46.36-1.32,20.8-17.34,38.29-37.92,41.32-2.58,.38-5.2,.63-7.8,.63-64.59,.03-129.18,.03-193.77,.03h-3.46c.7-1.05,1.11-1.74,1.6-2.37,20.67-26.11,20.53-59.68-.34-85.53C96.04,1.43,95.57,.7,95.07,0c67.87,0,135.73,0,203.6,0Z"/><path d="M50.15,0c2.88,.75,5.83,1.3,8.63,2.27,15.11,5.24,24.65,15.76,29.5,31.44H33.72V293.06H0c0-1.31,0-2.63,0-3.94,0-80.86,0-161.72,0-242.58C0,22.62,14.7,5.01,38.31,.56,38.78,.47,39.22,.19,39.67,0c3.49,0,6.99,0,10.48,0Z"/><path d="M383.25,315.75h-67.12v-112.5h67.12v112.5Z"/><path d="M383.25,180.75h-67.33c.21-5.5-.56-10.57,2-15.79,10.05-20.48,19.68-41.17,29.47-61.78,.58-1.23,1.21-2.43,2.1-4.22,.84,1.53,1.51,2.63,2.06,3.78,9.85,20.72,19.67,41.45,29.53,62.17,.63,1.33,1.44,2.56,2.17,3.84v12Z"/><path d="M315.88,384v-45.75h67.37v45.75h-67.37Z"/><path class="d" d="M148.24,140.27c6.06,4.55,11.81,8.86,17.93,13.46-13.81,18.46-27.5,36.77-41.03,54.86-10.5-10.53-20.84-20.91-30.85-30.95,4.79-4.83,9.92-10.01,15.21-15.35,3.73,3.9,7.92,8.29,12.44,13.02,9.07-12.08,17.62-23.48,26.3-35.04Z"/><path class="d" d="M125.11,276.14c-10.61-10.63-20.98-21.02-31.18-31.24,4.89-4.88,9.98-9.98,15.31-15.29,3.96,4.17,8.2,8.64,12.64,13.31,9.14-12.18,17.65-23.52,26.37-35.14,6.05,4.54,11.87,8.92,17.93,13.47-13.83,18.49-27.47,36.72-41.06,54.9Z"/><path class="d" d="M148.25,275.27c6.13,4.62,11.89,8.95,17.91,13.49-13.87,18.53-27.57,36.84-41.13,54.98-10.56-10.62-20.91-21.04-31.06-31.25,4.96-4.95,10.12-10.11,15.66-15.65,3.95,4.19,8.12,8.61,12.49,13.24,8.87-11.82,17.38-23.16,26.13-34.81Z"/><path class="d" d="M179.92,180.91h67.65v22.04h-67.65v-22.04Z"/><path class="d" d="M179.92,248.41h67.64v22.04h-67.64v-22.04Z"/><path class="d" d="M247.59,316.01v22.05h-67.64v-22.05h67.64Z"/><path d="M87.8,56.51c-2.25,13.98-17.11,28.9-31.44,31.51v-31.51h31.44Z"/></g></g></g></svg>