<svg id="Layer_1-2" xmlns="http://www.w3.org/2000/svg" width="60" height="60" viewBox="0 0 60 60">
  <path id="Path_467" data-name="Path 467" d="M0,40.585V0H60V60H0V49.707a3.373,3.373,0,0,1,.4-.048q5.876,0,11.754,0c.113,0,.224.01.4.018v5.364h34.8V49.655H59.8c.046-.061.067-.075.067-.089q-.045-4.49-.1-8.977a5.006,5.006,0,0,0-.121-.963,18.47,18.47,0,0,0-1.94-5.532,16.578,16.578,0,0,0-4.337-5.126c-.646-.486-1.282-.985-1.913-1.473.416-.476.819-.916,1.2-1.376a12.191,12.191,0,0,0,2.765-6.771,12.75,12.75,0,0,0-1.265-7,12.957,12.957,0,0,0-5.671-5.8A13.1,13.1,0,0,0,41.749,5.12a12.247,12.247,0,0,0-3.948.789,13.245,13.245,0,0,0-5.74,4.3,1.171,1.171,0,0,1-.781.4,17.668,17.668,0,0,0-2.589-.038c-.654.115-.888-.206-1.179-.567a12.686,12.686,0,0,0-4.47-3.611A13.545,13.545,0,0,0,16.564,5.12,12.671,12.671,0,0,0,11.6,6.378a12.436,12.436,0,0,0-5.373,4.906,12.577,12.577,0,0,0-1.893,6.807,9.739,9.739,0,0,0,.254,2.5A19.911,19.911,0,0,0,6,24.376a29.031,29.031,0,0,0,2.242,3.209c-.012.01-.1.079-.186.137a18.079,18.079,0,0,0-5.025,4.872,16.115,16.115,0,0,0-2.68,6.3C.25,39.462.119,40.022,0,40.585Z" transform="translate(0)" fill="none"/>
  <path id="Path_468" data-name="Path 468" d="M0,60.776c.119-.563.25-1.124.355-1.689a16.085,16.085,0,0,1,2.68-6.3,18.106,18.106,0,0,1,5.025-4.872c.091-.059.174-.129.186-.137A28.577,28.577,0,0,1,6,44.566a19.86,19.86,0,0,1-1.411-3.784,9.739,9.739,0,0,1-.254-2.5,12.577,12.577,0,0,1,1.893-6.807A12.449,12.449,0,0,1,11.6,26.567a12.671,12.671,0,0,1,4.963-1.257,13.55,13.55,0,0,1,6.479,1.274,12.7,12.7,0,0,1,4.47,3.611c.291.361.523.682,1.179.567a17.672,17.672,0,0,1,2.589.038,1.159,1.159,0,0,0,.781-.4,13.245,13.245,0,0,1,5.74-4.3,12.312,12.312,0,0,1,3.948-.789,13.112,13.112,0,0,1,6.731,1.429,12.967,12.967,0,0,1,5.671,5.8,12.765,12.765,0,0,1,1.265,7,12.206,12.206,0,0,1-2.765,6.771c-.379.46-.783.9-1.2,1.376.632.486,1.267.987,1.913,1.473a16.578,16.578,0,0,1,4.337,5.126,18.45,18.45,0,0,1,1.94,5.532,5.007,5.007,0,0,1,.121.963q.061,4.487.1,8.977c0,.014-.02.028-.067.089H47.358v5.387h-34.8V69.866c-.176-.008-.287-.018-.4-.018H.4A3.373,3.373,0,0,0,0,69.9Q0,65.34,0,60.776ZM44.1,72.038c0-1.382.089-2.731-.024-4.061a20.84,20.84,0,0,0-.684-4.2,13.637,13.637,0,0,0-7.036-8.313,1.1,1.1,0,0,0-.88-.016,11.864,11.864,0,0,1-4.513,1.225,12.523,12.523,0,0,1-6.658-1.211,1.08,1.08,0,0,0-.834-.036,13.082,13.082,0,0,0-4.818,3.986,13.7,13.7,0,0,0-2.88,8.662c.034,1.318.006,2.638.006,3.97H44.1ZM39.648,43.758a9.776,9.776,0,0,0-19.522-.842,9.855,9.855,0,0,0,9.427,10.608c5.58.147,10.289-4.493,10.093-9.766ZM24.618,31.681a9.88,9.88,0,0,0-12.1-1.956A9.752,9.752,0,0,0,7.875,40.834c1.237,4.535,5.584,7.54,9.651,7.173C15.676,40.721,18.071,35.314,24.618,31.681Zm17.571,16.3c3.776.464,9.661-2.834,10.069-9.042A9.7,9.7,0,0,0,45.64,29c-4.008-1.425-8.489.095-10.428,2.836A12.943,12.943,0,0,1,42.189,47.98ZM56.747,66.625c-.087-1.952-.161-3.829-.26-5.706a11.7,11.7,0,0,0-1.138-4.184A14.41,14.41,0,0,0,49.667,50.4a2.2,2.2,0,0,0-2.3-.133,11.736,11.736,0,0,1-6.359.938.856.856,0,0,0-.612.232c-.416.4-.755.882-1.181,1.269-.371.337-.321.523.077.761a15.261,15.261,0,0,1,3.99,3.514A16.545,16.545,0,0,1,47.13,66.14c.03.335.159.507.537.492.7-.026,1.4-.008,2.1-.008h6.973ZM20.951,53.1a4.8,4.8,0,0,1-.884-.88,1.794,1.794,0,0,0-2.026-.961,11.306,11.306,0,0,1-6.133-1.191,1.2,1.2,0,0,0-1.229.038,12.054,12.054,0,0,0-4.01,3.245A20.365,20.365,0,0,0,4.5,56.627a12.664,12.664,0,0,0-1.294,5.911c.052,1.35.01,2.706.01,4.051h9.334a17.68,17.68,0,0,1,8.4-13.486Z" transform="translate(0 -20.191)" fill="#152352"/>
</svg>
