<?xml version="1.0" encoding="UTF-8"?><svg xmlns="http://www.w3.org/2000/svg" viewBox="0 0 383.22 334.64"><defs><style>.d{fill:#fff;}</style></defs><g id="a"/><g id="b"><g id="c"><g><path d="M383.22,143.3c-.41,1.43-.84,2.85-1.23,4.29-4.12,14.88-17,24.89-32.58,24.94-32.3,.1-64.6,0-96.89,.12-2.32,0-4.88,.79-6.92,1.95-5.63,3.2-11.01,6.85-16.54,10.22-8.45,5.14-18.14,4.79-25.61-.82-7.71-5.79-10.72-15.01-8.07-24.71,.23-.84,.43-1.7,.75-2.51,7.15-18.06,8.95-36.79,8.31-56.12-.71-21.72-.19-43.48-.16-65.23C204.31,14.31,218.68,.01,239.83,0c35.79,0,71.58,0,107.37,0,18.81,0,31,9.6,35.45,27.89,.12,.47,.37,.91,.57,1.37v114.04Zm-89.9-95.28c-9.47,0-18.94-.01-28.4,0-7.59,.01-12.68,4.51-12.71,11.18-.03,6.68,5.08,11.3,12.61,11.31,19.06,.02,38.12,.03,57.18,0,7.5-.01,12.62-4.72,12.54-11.4-.08-6.55-5.13-11.08-12.44-11.09-9.59-.02-19.18,0-28.78,0Zm.06,76.52c3.98,0,7.97,.1,11.95-.02,6.38-.19,11.19-5.04,11.24-11.16,.05-6.27-4.87-11.21-11.46-11.29-7.84-.09-15.68-.1-23.52,0-6.57,.08-11.47,5.05-11.41,11.33,.06,6.11,4.89,10.94,11.26,11.12,3.98,.11,7.96,.02,11.95,.02Z"/><path d="M383.22,284.35c-.59,2.67-1.1,5.36-1.78,8-6.42,24.86-28.69,42.24-54.34,42.25-90.45,.03-180.9,.05-271.34,0-28.92-.02-53.19-22.47-55.72-51.31-.06-.74,0-1.49,0-2.69H383.22v3.75Z"/><path d="M78.49,258.09c-15.02,0-29.49,.04-43.95-.1-.92,0-2.38-1.26-2.63-2.19-.71-2.63-1.27-5.39-1.27-8.1-.07-45.52-.16-91.03,0-136.55,.06-18.13,14.86-32.99,32.95-33.07,38.56-.17,77.11-.06,115.67-.06,.72,0,1.44,.08,2.4,.13,.06,1.27,.15,2.36,.16,3.45,.02,4.75-.24,9.52,.05,14.25,1.18,19.54-1.36,38.36-7.78,57.01-6.29,18.27,.6,37.48,15.54,48.85,14.95,11.38,34.44,12.32,50.9,2.46,.32-.19,.67-.35,.95-.59,8.85-7.64,19.14-9,30.54-8.72,25.31,.63,50.65,.2,75.98,.2h4.34c.07,1.45,.18,2.65,.18,3.86,.01,15.51,.02,31.01,0,46.52q-.02,12.65-12.22,12.65c-58.15,0-116.29,0-174.44,0h-5.01v-3.75c0-10-.18-20.01,.05-30.01,.26-11.38-3.76-20.71-12.35-28.11-.36-.31-.66-.7-1.09-1.18,6.18-8.69,8.81-18.18,6.65-28.71-1.64-7.98-5.56-14.67-11.79-19.93-13.09-11.06-31.91-11.12-45.1-.22-14.38,11.89-16.4,29.63-5.61,48.82-2.48,2.83-5.17,5.45-7.34,8.45-3.89,5.4-5.84,11.51-5.8,18.25,.07,10.75,.02,21.51,.02,32.26,0,1.22,0,2.45,0,4.12Z"/><path d="M100.98,257.81c0-12.47-.27-24.72,.21-36.93,.1-2.65,2.38-5.81,4.56-7.67,7.25-6.21,19.98-6.14,27.56-.37,3.38,2.57,5.18,5.81,5.12,10.24-.14,11.48-.05,22.97-.05,34.73h-37.4Z"/><path d="M106.95,173c.14-6.91,5.89-12.49,12.82-12.43,7.05,.06,12.78,6,12.61,13.05-.17,6.9-5.96,12.5-12.86,12.44-7.06-.07-12.71-5.94-12.57-13.06Z"/><path class="d" d="M293.32,48.02c9.59,0,19.18-.02,28.78,0,7.31,.02,12.36,4.54,12.44,11.09,.08,6.68-5.04,11.39-12.54,11.4-19.06,.03-38.12,.03-57.18,0-7.54,0-12.64-4.63-12.61-11.31,.03-6.68,5.12-11.17,12.71-11.18,9.47-.01,18.94,0,28.4,0Z"/><path class="d" d="M293.38,124.54c-3.98,0-7.97,.09-11.95-.02-6.38-.18-11.2-5.01-11.26-11.12-.06-6.28,4.84-11.25,11.41-11.33,7.84-.1,15.68-.1,23.52,0,6.59,.08,11.51,5.02,11.46,11.29-.04,6.12-4.86,10.97-11.24,11.16-3.98,.12-7.96,.02-11.95,.02Z"/></g></g></g></svg>