<svg id="Layer_1-2" xmlns="http://www.w3.org/2000/svg" width="60" height="60" viewBox="0 0 60 60">
  <path id="Path_469" data-name="Path 469" d="M0,60V0H60V60ZM3.059,29.964H3.053q0,9.082,0,18.166a12.848,12.848,0,0,0,.114,1.784A8.964,8.964,0,0,0,6.4,55.7a8.8,8.8,0,0,0,5.827,2.227q17.548,0,35.1,0c.272,0,.545-.022.817-.034a8.764,8.764,0,0,0,5.47-2.344,9.459,9.459,0,0,0,3.23-7.444q.019-17.609,0-35.219a25.979,25.979,0,0,0-.22-3.053A8.291,8.291,0,0,0,54.445,5.27a9.335,9.335,0,0,0-7.242-3.2q-17.255-.026-34.511,0a8.989,8.989,0,0,0-2.183.177A9.413,9.413,0,0,0,5.217,5.47a9.057,9.057,0,0,0-2.155,5.741q-.014,9.375,0,18.752Z" fill="none"/>
  <path id="Path_470" data-name="Path 470" d="M19.543,41.08q0-9.375,0-18.752A9.057,9.057,0,0,1,21.7,16.588a9.413,9.413,0,0,1,5.292-3.227,9.067,9.067,0,0,1,2.183-.177q17.255-.014,34.511,0a9.34,9.34,0,0,1,7.242,3.2A8.291,8.291,0,0,1,73.1,20.951,26.294,26.294,0,0,1,73.318,24q.023,17.609,0,35.219a9.461,9.461,0,0,1-3.23,7.444,8.767,8.767,0,0,1-5.47,2.344c-.272.011-.545.034-.817.034q-17.548,0-35.1,0a8.8,8.8,0,0,1-5.827-2.227,8.974,8.974,0,0,1-3.228-5.781,13.094,13.094,0,0,1-.114-1.784q-.012-9.082,0-18.166h.006Zm3.375.028h0V59.855a3.286,3.286,0,0,0,0,.7,6.146,6.146,0,0,0,6.078,5.127q17.37-.009,34.738-.009a5.3,5.3,0,0,0,1.856-.245,6.112,6.112,0,0,0,4.339-6.183q.042-18.19,0-36.381a6.152,6.152,0,0,0-6.384-6.319q-17.135-.035-34.269-.008a6.3,6.3,0,0,0-3.725,1.03,5.537,5.537,0,0,0-2.608,4.5c-.08,6.345-.031,12.694-.031,19.041Z" transform="translate(-16.484 -11.116)" fill="#152352"/>
  <path id="Path_472" data-name="Path 472" d="M90.9,181.1q-4.123,0-8.245,0a1.661,1.661,0,0,1-1.791-1.719,1.678,1.678,0,0,1,1.8-1.661q8.217,0,16.433,0a1.7,1.7,0,1,1,.17,3.378q-4.181,0-8.362,0Z" transform="translate(-68.226 -149.945)" fill="#152352"/>
  <path id="Path_473" data-name="Path 473" d="M136.126,90.819q-4.148,0-8.3,0a1.616,1.616,0,0,1-1.781-1.142,1.636,1.636,0,0,1,1.291-2.177,4.173,4.173,0,0,1,.641-.037q8.21,0,16.42,0a1.906,1.906,0,0,1,1.738.755,1.672,1.672,0,0,1-1.3,2.6c-1.13.019-2.259.008-3.389.008h-5.317Z" transform="translate(-106.269 -73.794)" fill="#152352"/>
  <path id="Path_474" data-name="Path 474" d="M90.854,266.338c-2.745,0-5.492-.042-8.238.017a1.74,1.74,0,0,1-1.709-2.312,1.655,1.655,0,0,1,1.3-1.028,3.252,3.252,0,0,1,.523-.034q8.121,0,16.241,0a1.827,1.827,0,0,1,1.713.725,1.736,1.736,0,0,1,.083,1.755,1.584,1.584,0,0,1-1.556.88H90.854Z" transform="translate(-68.165 -221.888)" fill="#152352"/>
  <path id="Path_475" data-name="Path 475" d="M243.017,254.186c1.086-.881,2.144-1.723,3.183-2.589a1.851,1.851,0,0,1,2.478.181,1.8,1.8,0,0,1-.383,2.486c-1.356,1.058-2.662,2.178-4.02,3.234a4.322,4.322,0,0,1-1.375.725c-.8.239-1.3-.331-1.742-.872-.559-.677-1.084-1.383-1.619-2.078a1.756,1.756,0,0,1,.228-2.264,1.658,1.658,0,0,1,2.23.045c.344.336.647.712,1.02,1.13Z" transform="translate(-201.847 -211.956)" fill="#152352"/>
  <path id="Path_476" data-name="Path 476" d="M240.721,167.588a1.439,1.439,0,0,1,1.5.831c.436.65.544.659,1.131.191.925-.738,1.841-1.489,2.791-2.194a1.777,1.777,0,0,1,2.4.416,1.658,1.658,0,0,1-.3,2.133c-1.131.972-2.3,1.894-3.464,2.831-.444.359-.878.736-1.35,1.055a1.494,1.494,0,0,1-2.222-.272c-.687-.762-1.256-1.633-1.887-2.448a1.473,1.473,0,0,1-.152-1.727,1.385,1.385,0,0,1,1.542-.814Z" transform="translate(-201.627 -140.16)" fill="#152352"/>
</svg>
