<?xml version="1.0" encoding="UTF-8"?><svg xmlns="http://www.w3.org/2000/svg" viewBox="0 0 423.51 512"><defs><style>.d{fill:#fff;}</style></defs><g id="a"/><g id="b"><g id="c"><g><path d="M62.84,0H320.84c0,27.99,0,55.99,.02,83.98,0,12.71,5.53,18.26,18.24,18.27,25.99,.02,51.99,0,77.98,0,1.94,0,3.88,0,6.14,0,.12,2.26,.27,3.89,.27,5.52,.01,114.14,.02,228.28,0,342.42,0,13.31-5.54,18.81-18.84,18.81-58.82,0-117.64,0-176.46,0-1.64,0-3.27,0-5.6,0,15.95-33.99,19.09-68.51,6.96-103.72-12.15-35.26-35.8-60.74-68.55-78.3h5.46c51.82,0,103.64,0,155.46,0,1.83,0,3.68,.07,5.49-.11,8.81-.89,14.7-8.28,13.66-17.04-.99-8.28-7.19-13.17-17.09-13.19-33.33-.05-66.65-.02-99.98-.02-26.33,0-52.65-.04-78.98,.02-9.34,.02-15.48,4.51-16.86,12.36-.44,2.5-.07,5.15-.07,6.68-12.78,0-25.64-1.05-38.25,.29-12.77,1.36-25.28,5.08-38.05,7.8v-5.19c0-86.15,.1-172.29-.14-258.44-.03-9.33,2.66-16.08,11.18-20.15ZM234.85,196.84c-10.67,0-21.33,0-32,0-19.83,0-39.66-.13-59.49,.07-11.98,.12-19.13,11.9-13.67,22.1,3.39,6.33,9.05,8.14,15.92,8.13,59.32-.09,118.65-.05,177.97-.06,1.5,0,3.01,.03,4.49-.14,6.87-.79,12.23-6.22,13.02-13.12,1.11-9.73-5.67-16.94-16.26-16.96-30-.07-59.99-.02-89.99-.03Zm-34.98-29.56v.02c18.31,0,36.62,.07,54.93-.03,10.01-.05,16.75-6.44,16.58-15.36-.17-8.76-6.88-14.86-16.55-14.92-10.15-.06-20.31-.02-30.46-.02-26.63,0-53.26-.02-79.89,.01-7.58,0-13.1,3.49-15.5,9.55-4.01,10.12,3.06,20.54,14.47,20.68,18.81,.23,37.62,.06,56.42,.06Z"/><path d="M92.84,512c-4.51-.97-9.06-1.82-13.54-2.94C24.47,495.26-8.49,443.72,1.91,388.09c7.65-40.95,43.34-75.19,84.68-81.23,55.55-8.12,104.53,25.19,117.48,79.89,12.31,52.01-21.44,107.97-73.24,121.32-5.93,1.53-11.98,2.63-17.97,3.93h-20Zm-4.93-123.21c0,7.32-.05,14.63,.01,21.95,.09,9.96,6.29,16.83,15.16,16.9,8.69,.08,15.11-6.49,15.24-16.25,.21-14.96,.21-29.93,0-44.89-.14-9.7-6.7-16.33-15.33-16.18-8.67,.15-14.94,6.96-15.06,16.53-.09,7.31-.02,14.63-.02,21.95Zm0,63.26c.01,9.12,6.78,16.09,15.51,15.96,8.53-.12,14.94-6.98,14.93-16,0-8.99-6.45-15.88-14.97-15.99-8.68-.12-15.49,6.93-15.48,16.03Z"/><path class="d" d="M234.85,196.84c30,0,59.99-.04,89.99,.03,10.59,.02,17.37,7.23,16.26,16.96-.79,6.9-6.14,12.33-13.02,13.12-1.48,.17-3,.14-4.49,.14-59.32,0-118.65-.03-177.97,.06-6.87,.01-12.52-1.8-15.92-8.13-5.47-10.2,1.69-21.98,13.67-22.1,19.83-.21,39.66-.07,59.49-.07,10.67,0,21.33,0,32,0Z"/><path class="d" d="M199.87,167.27c-18.81,0-37.62,.17-56.42-.06-11.42-.14-18.48-10.56-14.47-20.68,2.4-6.06,7.92-9.54,15.5-9.55,26.63-.03,53.26-.01,79.89-.01,10.15,0,20.31-.05,30.46,.02,9.67,.06,16.37,6.16,16.55,14.92,.18,8.92-6.57,15.3-16.58,15.36-18.31,.1-36.62,.03-54.93,.03v-.02Z"/><path d="M412.64,71.77h-60.95V10.7c20.25,20.29,40.56,40.63,60.95,61.06Z"/><path class="d" d="M87.92,388.79c0-7.32-.08-14.63,.02-21.95,.12-9.57,6.39-16.38,15.06-16.53,8.63-.15,15.19,6.48,15.33,16.18,.22,14.96,.21,29.93,0,44.89-.13,9.76-6.55,16.32-15.24,16.25-8.87-.08-15.07-6.94-15.16-16.9-.07-7.32-.01-14.63-.01-21.95Z"/><path class="d" d="M87.93,452.05c-.01-9.1,6.8-16.15,15.48-16.03,8.52,.11,14.96,7,14.97,15.99,0,9.01-6.4,15.87-14.93,16-8.73,.12-15.5-6.84-15.51-15.96Z"/></g></g></g></svg>