<?xml version="1.0" encoding="UTF-8"?><svg xmlns="http://www.w3.org/2000/svg" viewBox="0 0 408.83 346.7"><g id="a"/><g id="b"><g id="c"><g><path d="M408.83,315.44c-1.7,6.84-3.83,13.44-8.7,18.89-5.62,6.29-12.42,11.24-20.73,11.52-19.22,.64-38.49,.2-56.82,.2,.22-11.79,.6-23.83,.64-35.87,.09-29.52,0-59.05,.05-88.57,.02-10.96-.77-21.78-4.38-32.23-.2-.59-.14-1.26-.26-2.43,17.01,1.01,34.1-2.44,50.41,3.57,22.03,8.12,35.12,24.01,39.09,47.26,.11,.63,.45,1.21,.69,1.82v75.85Z"/><path d="M204.43,346.65c-27,0-54,0-81.01,0-9.8,0-14.07-4.28-14.08-14.08,0-38.71-.08-77.42,.02-116.12,.08-29.03,18.26-52,46.31-58.56,4.23-.99,8.68-1.34,13.04-1.37,23.81-.13,47.62-.2,71.43-.03,28.55,.21,51.44,18.46,57.87,46.13,1.07,4.61,1.43,9.47,1.44,14.22,.11,38.71,.07,77.42,.06,116.12,0,9.26-4.41,13.67-13.68,13.67-27.14,.02-54.27,0-81.41,0Z"/><path d="M204.54,0c38.87,.07,70.81,31.84,70.87,70.5,.06,39.12-31.76,71.16-70.9,71.38-38.93,.22-71.39-32.49-71.06-71.61C133.78,31.47,165.69-.07,204.54,0Z"/><path d="M86.57,346.65c-12.78,0-26.07,.13-39.35-.05-6.89-.1-14.02,.28-20.6-1.35C10.05,341.16,.13,327.44,.05,309.93c-.09-20.62-.05-41.24-.02-61.87,.05-34.6,24.8-60.07,59.39-60.95,10.19-.26,20.4-.04,31.1-.04-.9,3.19-1.98,5.79-2.34,8.49-1.02,7.49-2.41,15.02-2.47,22.54-.26,34.86-.17,69.71-.07,104.57,.02,7.8,.59,15.6,.93,23.98Z"/><path d="M132.8,119.31c-.34,29.33-24.34,53.21-53.19,52.92-29.35-.3-53.09-24.23-52.87-53.27,.23-29.51,24.26-53.15,53.64-52.78,29.2,.37,52.75,24.23,52.42,53.13Z"/><path d="M382.12,119.04c.12,29.11-23.66,53-52.94,53.2-28.92,.19-52.84-23.68-53.11-53-.27-29.09,23.57-53.01,52.89-53.06,29.27-.06,53.05,23.59,53.17,52.86Z"/></g></g></g></svg>