<svg xmlns="http://www.w3.org/2000/svg" width="50" height="47.754" viewBox="0 0 50 47.754"><defs><style>.a{fill:#0037b4;}</style></defs><path class="a" d="M333.558,301.324a9.164,9.164,0,1,0,9.16,9.164A9.172,9.172,0,0,0,333.558,301.324Zm-1.4,13.767-3.3-3.305,2.072-2.072,1.233,1.233,4.024-4.026,2.072,2.072Zm0,0" transform="translate(-292.719 -271.898)"/><path class="a" d="M0,0H50V8.72H0ZM0,0"/><path class="a" d="M0,147.745H28.839A12.085,12.085,0,0,1,50,138.4V119.352H0Zm40.137-23.112h3.906v3.906H40.137Zm-11.393,0H32.65v3.906H28.743Zm-11.393,0h3.906v3.906H17.35Zm0,10.995h3.906v3.906H17.35Zm-11.393,0H9.863v3.906H5.957Zm0,0" transform="translate(0 -107.696)"/></svg>