<svg xmlns="http://www.w3.org/2000/svg" width="50" height="50" viewBox="0 0 50 50"><defs><style>.a{fill:#0037b4;}</style></defs><path class="a" d="M133.027,419.737h-4.064c-.642-.379-1.907-1.639-3.232-5.83-.1-.305-.188-.609-.274-.908H114.114c-.083.289-.171.582-.264.878-1.329,4.215-2.6,5.481-3.242,5.86h-4.143a1.465,1.465,0,0,0,0,2.93h26.562a1.465,1.465,0,0,0,0-2.93Z" transform="translate(-94.746 -372.667)"/><circle class="a" cx="1.786" cy="1.786" r="1.786" transform="translate(10.714 12.857)"/><circle class="a" cx="1.786" cy="1.786" r="1.786" transform="translate(35.714 12.857)"/><path class="a" d="M363.285,199.6a2.99,2.99,0,0,0-1.844-.6c-1.3,0-2.441.776-2.441,1.66v4.785h4.883V200.66A1.443,1.443,0,0,0,363.285,199.6Z" transform="translate(-323.941 -179.566)"/><path class="a" d="M271,25.879h5.664V21.094a4.318,4.318,0,0,1,1.773-3.4,4.59,4.59,0,1,1,7.2,0l.074.057a4.321,4.321,0,0,1,1.7,3.351v4.785h7.129V4.395A4.4,4.4,0,0,0,290.141,0H271Z" transform="translate(-244.535)"/><path class="a" d="M7.129,25.879V21.094a4.318,4.318,0,0,1,1.773-3.4,4.59,4.59,0,1,1,7.2,0l.074.057a4.321,4.321,0,0,1,1.7,3.351v4.785h5.664V0H4.395A4.4,4.4,0,0,0,0,4.395V25.879Z"/><path class="a" d="M107.285,199.6a2.99,2.99,0,0,0-1.844-.6c-1.3,0-2.441.776-2.441,1.66v4.785h4.883V200.66A1.443,1.443,0,0,0,107.285,199.6Z" transform="translate(-92.941 -179.566)"/><path class="a" d="M0,295v4.2a4.4,4.4,0,0,0,4.395,4.395H40.723v-3.809a1.465,1.465,0,0,1,2.93,0v3.809h1.953A4.4,4.4,0,0,0,50,299.2V295Z" transform="translate(0 -266.191)"/></svg>