<svg xmlns="http://www.w3.org/2000/svg" width="49.5" height="49.5" viewBox="0 0 49.5 49.5"><defs><style>.a{fill:#0037b4;}</style></defs><g transform="translate(18.176 41.436)"><path class="a" d="M194.149,428.064H181v-4.12A3.949,3.949,0,0,1,184.945,420H190.2a3.949,3.949,0,0,1,3.945,3.945Z" transform="translate(-181 -420)"/></g><g transform="translate(36.351 41.436)"><path class="a" d="M375.148,428.064H362v-4.12A3.949,3.949,0,0,1,365.945,420H371.2a3.949,3.949,0,0,1,3.945,3.945Z" transform="translate(-362 -420)"/></g><g transform="translate(0 41.436)"><path class="a" d="M13.149,428.064H0v-4.12A3.949,3.949,0,0,1,3.945,420H9.2a3.949,3.949,0,0,1,3.945,3.945Z" transform="translate(0 -420)"/></g><g transform="translate(20.805 32.539)"><path class="a" d="M214.945,337.889a3.945,3.945,0,1,1,3.945-3.945A3.949,3.949,0,0,1,214.945,337.889Z" transform="translate(-211 -330)"/></g><g transform="translate(38.981 32.539)"><path class="a" d="M395.945,337.889a3.945,3.945,0,1,1,3.945-3.945A3.949,3.949,0,0,1,395.945,337.889Z" transform="translate(-392 -330)"/></g><g transform="translate(2.63 32.539)"><path class="a" d="M33.945,337.889a3.945,3.945,0,1,1,3.945-3.945A3.949,3.949,0,0,1,33.945,337.889Z" transform="translate(-30 -330)"/></g><g transform="translate(2.717)"><path class="a" d="M184.945,90H181v7.889h5.259V91.315A1.317,1.317,0,0,0,184.945,90Z" transform="translate(-166.075 -82.111)"/><path class="a" d="M271,91.315v6.574h5.259V90h-3.945A1.317,1.317,0,0,0,271,91.315Z" transform="translate(-247.119 -82.111)"/><path class="a" d="M31,0V23.667H49.507l3.526,3.008,3.526-3.008H75.065V0ZM63.315,18.408H42.751V5.259h7.344a4.667,4.667,0,0,1,2.938,1.026A4.667,4.667,0,0,1,55.97,5.259h7.344Z" transform="translate(-31)"/></g></svg>