<svg xmlns="http://www.w3.org/2000/svg" width="500" height="500" viewBox="0 0 500 500">
  <defs>
    <style>
      .cls-1 {
        fill: #eee;
      }

      .cls-1, .cls-2 {
        fill-rule: evenodd;
      }

      .cls-2 {
        fill: #ddd;
      }
    </style>
  </defs>
  <path id="Forma_1" data-name="Forma 1" class="cls-1" d="M447.98,280.1V24a8,8,0,0,0-8-8H398.51A24,24,0,0,0,375.983,0h-16a24,24,0,0,0-22.527,16H302.514A24,24,0,0,0,279.987,0h-16a24,24,0,0,0-22.527,16H206.519A24,24,0,0,0,183.992,0h-16a24,24,0,0,0-22.527,16H110.523A24,24,0,0,0,88,0H72A24,24,0,0,0,49.47,16H8a8,8,0,0,0-8,8V471.938a8,8,0,0,0,8,8H327.985A135.869,135.869,0,0,0,447.98,280.1Zm-88-264.1h16a8,8,0,1,1,0,16h-16A8,8,0,1,1,359.984,16Zm-96,0h16a8,8,0,1,1,0,16h-16A8,8,0,1,1,263.988,16Zm-96,0h16a8,8,0,1,1,0,16h-16A8,8,0,1,1,167.992,16ZM72,16H88a8,8,0,1,1,0,16H72A8,8,0,1,1,72,16ZM16,87.988H383.983v-16H16V32H49.47A24,24,0,0,0,72,47.994H88a24,24,0,0,0,22.527-16h34.942a24,24,0,0,0,22.527,16h16a24,24,0,0,0,22.527-16h34.942a24,24,0,0,0,22.527,16h16a24,24,0,0,0,22.527-16h34.943a24,24,0,0,0,22.527,16h16A24,24,0,0,0,398.51,32h33.47V256.51a136.734,136.734,0,0,0-40.134-32.539h0.136V127.983a8,8,0,0,0-8-8H64a8,8,0,0,0-8,8V319.958a8,8,0,0,0,8,8H193.015a137.114,137.114,0,0,0-1.024,16,135.282,135.282,0,0,0,32.495,87.988H16V87.988Zm311.986,95.988V135.982h48v47.994h-48Zm48,16v16.91a135.13,135.13,0,0,0-48-8.911v-8h48Zm-111.995-16V135.982h48v47.994h-48Zm48,16V209a135.035,135.035,0,0,0-48,15.038V199.974h48ZM199.991,247.967V199.974h48v34.259a136.53,136.53,0,0,0-16.231,13.734H199.991Zm18.263,16a135.476,135.476,0,0,0-18.263,34.484V263.965h18.263Zm-18.263-79.989V135.982h48v47.994h-48Zm-64,63.991V199.974h48v47.993h-48Zm48,16v47.994h-48V263.965h48Zm-48-79.989V135.982h48v47.994h-48ZM72,247.967V199.974h48v47.993H72Zm48,16v47.994H72V263.965h48ZM72,183.976V135.982h48v47.994H72ZM16,463.939v-16H240.533a136.349,136.349,0,0,0,23.591,16H16Zm311.986,0a119.984,119.984,0,1,1,120-119.984A119.989,119.989,0,0,1,327.985,463.939Z" transform="translate(18.016 10.031)"/>
  <path class="cls-2" d="M350.952,354.311A22.752,22.752,0,0,0,339.361,340.7l-15.592-7.8a6.831,6.831,0,0,1,3.048-12.942h2.336a6.84,6.84,0,0,1,6.832,6.831v1.168h16v-1.168a22.789,22.789,0,0,0-16-21.669v-9.159h-16v9.159a22.747,22.747,0,0,0-3.376,42.09l15.591,7.8a6.831,6.831,0,0,1-3.048,12.943h-2.336a6.839,6.839,0,0,1-6.831-6.831v-1.168h-16v1.168a22.79,22.79,0,0,0,16,21.669v9.159h16V382.79A22.749,22.749,0,0,0,350.952,354.311ZM327.985,239.969a103.986,103.986,0,1,0,104,103.986A103.99,103.99,0,0,0,327.985,239.969Zm0,191.974a87.989,87.989,0,1,1,88-87.988A87.992,87.992,0,0,1,327.985,431.943Z" transform="translate(18.016 10.031)"/>
</svg>
