<svg id="plan" xmlns="http://www.w3.org/2000/svg" width="19" height="19" viewBox="0 0 19 19">
  
  <path fill="#000" d="M284.028,685.506l-1.334-.227a7.506,7.506,0,0,0-.536-1.294l0.786-1.1a1.169,1.169,0,0,0-.127-1.512l-1.183-1.183a1.168,1.168,0,0,0-1.508-.127l-1.1.786a7.472,7.472,0,0,0-1.342-.552l-0.222-1.318A1.173,1.173,0,0,0,276.3,678h-1.671a1.172,1.172,0,0,0-1.159.98l-0.23,1.35a7.29,7.29,0,0,0-1.29.544l-1.092-.786a1.17,1.17,0,0,0-1.512.127l-1.187,1.183a1.175,1.175,0,0,0-.127,1.512l0.794,1.115a7.376,7.376,0,0,0-.528,1.3l-1.318.222A1.173,1.173,0,0,0,266,686.7v1.671a1.172,1.172,0,0,0,.98,1.159l1.35,0.23a7.258,7.258,0,0,0,.544,1.29l-0.782,1.088a1.169,1.169,0,0,0,.127,1.512l1.183,1.183a1.168,1.168,0,0,0,1.508.127l1.115-.794a7.568,7.568,0,0,0,1.254.516l0.223,1.334a1.172,1.172,0,0,0,1.159.98h1.675a1.174,1.174,0,0,0,1.159-.98l0.226-1.334a7.586,7.586,0,0,0,1.294-.536l1.1,0.786a1.167,1.167,0,0,0,.683.218h0a1.165,1.165,0,0,0,.829-0.345l1.183-1.183a1.174,1.174,0,0,0,.127-1.512l-0.786-1.1a7.452,7.452,0,0,0,.536-1.294l1.334-.223a1.172,1.172,0,0,0,.98-1.159v-1.67A1.158,1.158,0,0,0,284.028,685.506Zm-0.091,2.829a0.1,0.1,0,0,1-.088.1l-1.667.278a0.533,0.533,0,0,0-.429.392,6.343,6.343,0,0,1-.69,1.664,0.536,0.536,0,0,0,.024.583l0.98,1.381a0.108,0.108,0,0,1-.012.135l-1.183,1.183a0.1,0.1,0,0,1-.135.012l-1.377-.981a0.534,0.534,0,0,0-.583-0.023,6.385,6.385,0,0,1-1.663.69,0.526,0.526,0,0,0-.393.429l-0.282,1.667a0.1,0.1,0,0,1-.1.087h-1.671a0.1,0.1,0,0,1-.1-0.087l-0.277-1.667a0.535,0.535,0,0,0-.393-0.429,6.59,6.59,0,0,1-1.628-.667,0.553,0.553,0,0,0-.27-0.071,0.524,0.524,0,0,0-.309.1l-1.389.989a0.128,0.128,0,0,1-.06.019,0.106,0.106,0,0,1-.075-0.031l-1.183-1.183a0.107,0.107,0,0,1-.012-0.135l0.976-1.369a0.545,0.545,0,0,0,.024-0.588,6.277,6.277,0,0,1-.7-1.659,0.546,0.546,0,0,0-.429-0.393l-1.679-.286a0.1,0.1,0,0,1-.087-0.1V686.7a0.1,0.1,0,0,1,.087-0.1l1.655-.278a0.538,0.538,0,0,0,.433-0.4,6.379,6.379,0,0,1,.678-1.667,0.528,0.528,0,0,0-.027-0.579l-0.989-1.389a0.11,0.11,0,0,1,.012-0.135l1.183-1.183a0.1,0.1,0,0,1,.075-0.032,0.1,0.1,0,0,1,.06.02l1.369,0.976a0.545,0.545,0,0,0,.588.024,6.277,6.277,0,0,1,1.659-.7,0.546,0.546,0,0,0,.393-0.429l0.286-1.679a0.1,0.1,0,0,1,.1-0.087h1.671a0.1,0.1,0,0,1,.1.087l0.278,1.655a0.538,0.538,0,0,0,.4.433,6.474,6.474,0,0,1,1.7.7,0.534,0.534,0,0,0,.583-0.024l1.369-.984a0.119,0.119,0,0,1,.06-0.02,0.1,0.1,0,0,1,.075.032l1.183,1.183a0.107,0.107,0,0,1,.012.135l-0.98,1.377a0.538,0.538,0,0,0-.024.584,6.323,6.323,0,0,1,.69,1.663,0.529,0.529,0,0,0,.429.393l1.667,0.281a0.1,0.1,0,0,1,.087.1v1.67h0Z" transform="translate(-266 -678)"/>
  <path class="-color-fill" d="M275.5,683.4a4.1,4.1,0,1,0,4.1,4.1A4.1,4.1,0,0,0,275.5,683.4Zm0,7.128a3.028,3.028,0,1,1,3.029-3.028A3.03,3.03,0,0,1,275.5,690.526Z" transform="translate(-266 -678)"/>
</svg>
