<svg xmlns="http://www.w3.org/2000/svg" width="12.56" height="12.56" viewBox="0 0 12.56 12.56">
  <defs>
    <style>
      .cls-1 {
        fill: #b3b3b3;
        fill-rule: evenodd;
      }
    </style>
  </defs>
  <path id="_" data-name=" " class="cls-1" d="M1184.54,3210.17a1.408,1.408,0,0,0-.67-0.47c-0.12-.07-0.28-0.16-0.49-0.27s-0.39-.22-0.56-0.31-0.33-.19-0.48-0.28c-0.02-.02-0.1-0.07-0.22-0.16a3.266,3.266,0,0,0-.32-0.19,0.616,0.616,0,0,0-.26-0.06,0.742,0.742,0,0,0-.44.25,4.368,4.368,0,0,0-.49.56,5.111,5.111,0,0,1-.48.55,0.642,0.642,0,0,1-.41.25,0.584,0.584,0,0,1-.2-0.04,0.784,0.784,0,0,1-.18-0.08q-0.06-.03-0.21-0.12c-0.11-.06-0.16-0.1-0.17-0.1a8.961,8.961,0,0,1-3.66-3.66c0-.01-0.04-0.06-0.1-0.17s-0.1-.17-0.12-0.21a0.784,0.784,0,0,1-.08-0.18,0.584,0.584,0,0,1-.04-0.2,0.642,0.642,0,0,1,.25-0.41,5.111,5.111,0,0,1,.55-0.48,4.368,4.368,0,0,0,.56-0.49,0.742,0.742,0,0,0,.25-0.44,0.616,0.616,0,0,0-.06-0.26,3.266,3.266,0,0,0-.19-0.32c-0.09-.12-0.14-0.2-0.16-0.22-0.09-.15-0.18-0.31-0.28-0.48s-0.2-.36-0.31-0.56-0.2-.37-0.27-0.49a1.408,1.408,0,0,0-.47-0.67,0.439,0.439,0,0,0-.19-0.03,2.944,2.944,0,0,0-.63.09,3.182,3.182,0,0,0-.61.19,2.3,2.3,0,0,0-.94,1.08,3.427,3.427,0,0,0-.46,1.67,3.708,3.708,0,0,0,.03.47,4.328,4.328,0,0,0,.11.51c0.06,0.19.1,0.33,0.13,0.42s0.1,0.26.19,0.5,0.14,0.38.16,0.43a7.356,7.356,0,0,0,.74,1.57,15.569,15.569,0,0,0,4.28,4.28,7.356,7.356,0,0,0,1.57.74c0.05,0.02.19,0.08,0.43,0.16s0.41,0.16.5,0.19,0.23,0.07.42,0.13a4.328,4.328,0,0,0,.51.11,3.708,3.708,0,0,0,.47.03,3.427,3.427,0,0,0,1.67-.46,2.3,2.3,0,0,0,1.08-.94,3.182,3.182,0,0,0,.19-0.61,2.944,2.944,0,0,0,.09-0.63,0.439,0.439,0,0,0-.03-0.19h0Z" transform="translate(-1172 -3200.44)"/>
</svg>
