<svg xmlns="http://www.w3.org/2000/svg" width="13" height="18" viewBox="0 0 13 18">
  <defs>
    <style>
      .cls-1 {
        fill-rule: evenodd;
      }
    </style>
  </defs>
  <path fill="#b3b3b3" id="Forma_1" data-name="Forma 1" class="cls-1" d="M1096.7,3348.48a4.6,4.6,0,0,0-.31-0.72,6.35,6.35,0,0,0-5.97-3.76,6.251,6.251,0,0,0-6.41,5.58v0.77c0,0.03.01,0.32,0.02,0.47,0.24,1.79,1.72,3.69,2.83,5.48,1.19,1.92,2.43,3.81,3.65,5.7,0.76-1.23,1.51-2.48,2.25-3.68,0.2-.35.43-0.71,0.63-1.04,0.14-.23.39-0.45,0.51-0.66,1.19-2.08,3.11-4.17,3.11-6.24v-0.84A5.77,5.77,0,0,0,1096.7,3348.48Zm-6.23,3.85a2.3,2.3,0,0,1-2.21-1.5,1.871,1.871,0,0,1-.06-0.56v-0.5a2.145,2.145,0,0,1,2.34-2.04,2.313,2.313,0,0,1,2.38,2.3A2.381,2.381,0,0,1,1090.47,3352.33Z" transform="translate(-1084 -3344)"/>
</svg>
