<svg xmlns="http://www.w3.org/2000/svg" width="14.844" height="16" viewBox="0 0 14.844 16">
  <path d="M563.643,153.571h2.571v2.572h-2.571v-2.572Zm3.143,0h2.857v2.572h-2.857v-2.572Zm-3.143-3.428h2.571V153h-2.571v-2.857Zm3.143,0h2.857V153h-2.857v-2.857ZM563.643,147h2.571v2.571h-2.571V147Zm6.571,6.571h2.857v2.572h-2.857v-2.572ZM566.786,147h2.857v2.571h-2.857V147Zm6.857,6.571h2.571v2.572h-2.571v-2.572Zm-3.429-3.428h2.857V153h-2.857v-2.857Zm-3.227-4.656a0.278,0.278,0,0,1-.2.084h-0.572a0.287,0.287,0,0,1-.285-0.285v-2.572a0.287,0.287,0,0,1,.285-0.285h0.572a0.287,0.287,0,0,1,.285.285v2.572A0.278,0.278,0,0,1,566.987,145.487Zm6.656,4.656h2.571V153h-2.571v-2.857ZM570.214,147h2.857v2.571h-2.857V147Zm3.429,0h2.571v2.571h-2.571V147Zm0.2-1.513a0.278,0.278,0,0,1-.2.084h-0.572a0.289,0.289,0,0,1-.285-0.285v-2.572a0.289,0.289,0,0,1,.285-0.285h0.572a0.289,0.289,0,0,1,.286.285v2.572A0.279,0.279,0,0,1,573.844,145.487Zm3.174-1.576a1.1,1.1,0,0,0-.8-0.34h-1.143v-0.857a1.431,1.431,0,0,0-1.428-1.428h-0.572a1.432,1.432,0,0,0-1.428,1.428v0.857h-3.429v-0.857a1.431,1.431,0,0,0-1.428-1.428h-0.572a1.431,1.431,0,0,0-1.428,1.428v0.857h-1.143a1.16,1.16,0,0,0-1.143,1.143v11.429a1.16,1.16,0,0,0,1.143,1.143h12.571a1.16,1.16,0,0,0,1.143-1.143V144.714A1.1,1.1,0,0,0,577.018,143.911Z" transform="translate(-562.5 -141.281)"/>
</svg>
