<svg id="students" xmlns="http://www.w3.org/2000/svg" width="21" height="21" viewBox="0 0 21 21">
  <path d="M279.85,445.473a0.352,0.352,0,0,0-.206-0.32l-7-3.154a0.343,0.343,0,0,0-.287,0l-7,3.154a0.351,0.351,0,0,0,.012.645l2.231,0.907v2.775a0.35,0.35,0,0,0,.35.35v2.882a3.621,3.621,0,0,0,1.4,2.859v1.119H269V456.7a0.225,0.225,0,0,0-.044,0,0.349,0.349,0,0,0-.236.138l-0.945,1.261h-0.063a1.019,1.019,0,0,0-.325.052l-4.5,1.463a1.391,1.391,0,0,0-.883,1.3v1.742a0.351,0.351,0,0,0,.35.351h20.3a0.351,0.351,0,0,0,.35-0.351v-1.742a1.4,1.4,0,0,0-.9-1.307l-4.477-1.454a1.039,1.039,0,0,0-.331-0.054h-0.063l-0.945-1.261a0.351,0.351,0,0,0-.236-0.138,0.212,0.212,0,0,0-.044,0V456.69h-0.35v-1.119a3.627,3.627,0,0,0,1.4-2.859V449.83a0.359,0.359,0,0,0,.172-0.045,0.351,0.351,0,0,0,.178-0.305v-2.775l1.75-.711m-3.213,11.546,0.639,0.855-2.662,2.371-0.889-.892ZM272.5,459.4l-2.45-1.963V456a3.591,3.591,0,0,0,1.522.341h1.855A3.6,3.6,0,0,0,274.95,456v1.434Zm-4.6-14.269a0.35,0.35,0,0,0-.3.346v0.475l-1.21-.491,6.11-2.753,6.11,2.753-1.21.491v-0.475a0.35,0.35,0,0,0-.3-0.346l-4.55-.7a0.308,0.308,0,0,0-.105,0Zm0.395,1.4c0-.019.006-0.038,0.007-0.056v-0.695l4.2-.647,4.2,0.647v0.695a0.277,0.277,0,0,0,.007.056H276.7v2.394a4.332,4.332,0,0,0-1.575-.291,3.981,3.981,0,0,0-2.432.776,2.457,2.457,0,0,0-.193.166c-0.061-.057-0.124-0.112-0.193-0.166a3.983,3.983,0,0,0-2.432-.776,4.324,4.324,0,0,0-1.575.291v-2.394h-0.007Zm0.357,6.187v-3.169a3.6,3.6,0,0,1,1.225-.214,3.273,3.273,0,0,1,2,.626,1.858,1.858,0,0,1,.345.347,0.35,0.35,0,0,0,.49.071,0.362,0.362,0,0,0,.07-0.071,1.858,1.858,0,0,1,.345-0.347,3.266,3.266,0,0,1,2-.626,3.606,3.606,0,0,1,1.225.214v3.169a2.929,2.929,0,0,1-2.923,2.927h-1.855A2.929,2.929,0,0,1,268.65,452.712Zm0.413,4.828,2.912,2.334-0.889.892-2.663-2.371ZM282.3,462.3H262.7v-1.392a0.684,0.684,0,0,1,.42-0.641l4.49-1.457a0.294,0.294,0,0,1,.1-0.015h0.105l3.05,2.715a0.35,0.35,0,0,0,.48-0.014l1.153-1.154,1.152,1.154a0.35,0.35,0,0,0,.48.014l3.051-2.715h0.105a0.311,0.311,0,0,1,.109.017l4.463,1.448a0.693,0.693,0,0,1,.44.648V462.3Z" transform="translate(-262 -442)"/>
  <path class="-color-fill" d="M282,454h-4v-5h1v-3h2v3h1v5Zm-1-4v0h-2v0h-0.109L279,453h2l0.129-3H281Z" transform="translate(-262 -442)"/>
</svg>
