<svg xmlns="http://www.w3.org/2000/svg" width="37" height="37.06" viewBox="0 0 37 37.06">
  <defs>
    <style>
      .cls-1 {
        fill: #343434;
        fill-rule: evenodd;
      }
    </style>
  </defs>
  <path class="cls-1" d="M780,1433h-2v-11c0-1.91-1.094-2-3-2h-3v-4a12.074,12.074,0,0,0-2,0l-9,4H745a1.881,1.881,0,0,0-2,2v29a2.13,2.13,0,0,0,2,2h31a1.7,1.7,0,0,0,2-2v-11h2v-7Zm-5-11a0.882,0.882,0,0,1,.833.98L774,1423v-1h1Zm-5-4h0v5H759Zm6,31c0,1.91-.452,2-2,2H747a1.761,1.761,0,0,1-2-2v-25c0-1.5.649-2,2-2h10l-2,1h-8v2h29v8h-4c-1.252,0-2,1.75-2,3v1c0,1.25.749,3,2,3h4v9Zm2-11h-5c-0.845,0-1-.16-1-1v-1c0-.85.155-1,1-1h5v3Zm-4-1h-1v-1h1v1Z" transform="translate(-743 -1415.94)"/>
</svg>
