<svg xmlns="http://www.w3.org/2000/svg" viewBox="0 0 120 120">
  <path fill="#000" d="M644.96,336.583H656V326H574v10.581h10.808v31.211l24.348,15.764L583.709,398.89l0.115,0.178-0.06.036v31.314H574V441h82V430.418H643.922V399.144L619.244,383.59l25.765-15.526-0.11-.179,0.061-.035V336.583Zm-6.168,66.172v27.663H588.9V401.877l25.148-15.149Zm1.046-37.678-25.547,15.395-24.356-15.363V336.583h49.9v28.494Zm-3.054-2.454V350.9H593.011v11.669l21.252,13.648Z" transform="translate(-555 -323.5)"/>
  <path class="-color-fill" d="M603.772,422.014l-12.043,1.569v4.48H636.1v-4.48l-10.964-1.3-11.214-4.277Z" transform="translate(-555 -323.5)"/>
</svg>
