<svg xmlns="http://www.w3.org/2000/svg" width="24" height="18" viewBox="0 0 24 18">
  <path d="M1219.07,134h-18.14a2.918,2.918,0,0,0-2.93,2.892v12.216a2.918,2.918,0,0,0,2.93,2.892h18.13a2.92,2.92,0,0,0,2.94-2.892V136.9A2.916,2.916,0,0,0,1219.07,134Zm1.59,15.108a1.58,1.58,0,0,1-1.59,1.571h-18.14a1.587,1.587,0,0,1-1.59-1.571V136.9a1.587,1.587,0,0,1,1.59-1.571h18.13a1.589,1.589,0,0,1,1.6,1.571v12.211h0Zm-7.52-6.26,5.87-5.187a0.658,0.658,0,0,0,.04-0.935,0.67,0.67,0,0,0-.94-0.049l-8.1,7.16-1.58-1.39s-0.01-.01-0.01-0.015a0.728,0.728,0,0,0-.11-0.093l-6.42-5.667a0.678,0.678,0,0,0-.95.054,0.659,0.659,0,0,0,.05.935l5.94,5.231-5.91,5.457a0.658,0.658,0,0,0-.03.935,0.678,0.678,0,0,0,.49.21,0.691,0.691,0,0,0,.46-0.176l6-5.535,1.63,1.434a0.68,0.68,0,0,0,.45.166,0.642,0.642,0,0,0,.44-0.171l1.68-1.478,5.97,5.589a0.659,0.659,0,0,0,.46.181,0.662,0.662,0,0,0,.46-1.14Z" transform="translate(-1198 -134)"/>
</svg>
