<svg id="courses" xmlns="http://www.w3.org/2000/svg" width="23" height="17" viewBox="0 0 23 17">
  <path d="M286.554,622.412h-1.516V621.88a0.458,0.458,0,0,0-.321-0.459A12.247,12.247,0,0,0,281.5,621a8.157,8.157,0,0,0-6.01,2.293A8.071,8.071,0,0,0,269.484,621a12.26,12.26,0,0,0-3.215.422,0.459,0.459,0,0,0-.321.459v0.527h-1.5a0.453,0.453,0,0,0-.446.459v14.646a0.453,0.453,0,0,0,.446.459,0.431,0.431,0,0,0,.218-0.06,15.334,15.334,0,0,1,10.727-.917H275.5a0.479,0.479,0,0,0,.107,0,15.074,15.074,0,0,1,10.726.917,0.435,0.435,0,0,0,.446,0,0.46,0.46,0,0,0,.223-0.394V622.87A0.452,0.452,0,0,0,286.554,622.412Zm-21.662,14.371V623.329h1.065v11.5a0.452,0.452,0,0,0,.441.463,0.349,0.349,0,0,0,.072,0,18.978,18.978,0,0,1,2.786-.229,11.287,11.287,0,0,1,3.808.591A15.968,15.968,0,0,0,264.892,636.783Zm4.364-2.637a19.09,19.09,0,0,0-2.425.161V622.242a12.007,12.007,0,0,1,2.644-.3,7.171,7.171,0,0,1,5.564,2.247l0.013,11.423A10.206,10.206,0,0,0,269.256,634.146Zm6.688-9.96a7.233,7.233,0,0,1,5.563-2.247,12.007,12.007,0,0,1,2.644.3v12.065a19.076,19.076,0,0,0-2.412-.165,10.28,10.28,0,0,0-5.795,1.463V624.186Zm10.16,12.6a15.974,15.974,0,0,0-8.19-1.133,11.289,11.289,0,0,1,3.825-.591,18.809,18.809,0,0,1,2.8.225,0.456,0.456,0,0,0,.513-0.459v-11.5h1.066Z" transform="translate(-264 -621)"/>
  <path class="-color-fill" d="M278,631v-1h4v1h-4Zm0-3h4v1h-4v-1Zm0-2h4v1h-4v-1Zm-9,4h4v1h-4v-1Zm0-2h4v1h-4v-1Zm0-2h4v1h-4v-1Z" transform="translate(-264 -621)"/>
</svg>
