<svg xmlns="http://www.w3.org/2000/svg" width="14" height="11" viewBox="0 0 14 11">
  <defs>
    <style>
      .cls-1 {
        fill: #b3b3b3;
        fill-rule: evenodd;
      }
    </style>
  </defs>
  <path id="_" data-name=" " class="cls-1" d="M1069.22,3172.23q-2.565,1.725-3.89,2.69-0.45.33-.72,0.51a4.564,4.564,0,0,1-.74.38,2.239,2.239,0,0,1-.86.19h-0.02a2.239,2.239,0,0,1-.86-0.19,4.564,4.564,0,0,1-.74-0.38q-0.27-.18-0.72-0.51c-0.7-.51-2-1.41-3.88-2.69a4.349,4.349,0,0,1-.79-0.68v6.2a1.264,1.264,0,0,0,1.25,1.25h11.5a1.264,1.264,0,0,0,1.25-1.25v-6.2a4.328,4.328,0,0,1-.78.68h0Zm0.41-3.86a1.194,1.194,0,0,0-.88-0.37h-11.5a1.135,1.135,0,0,0-.93.41,1.6,1.6,0,0,0-.32,1.01,1.8,1.8,0,0,0,.43,1.07,4.063,4.063,0,0,0,.91.9c0.18,0.13.71,0.5,1.61,1.11s1.57,1.1,2.04,1.43q0.075,0.06.33,0.24c0.17,0.12.31,0.22,0.43,0.29a4,4,0,0,0,.4.26,2.955,2.955,0,0,0,.45.21,1.151,1.151,0,0,0,.39.07h0.02a1.151,1.151,0,0,0,.39-0.07,2.955,2.955,0,0,0,.45-0.21,4,4,0,0,0,.4-0.26c0.12-.07.26-0.17,0.43-0.29s0.28-.2.33-0.24q0.72-.495,3.65-2.54a3.808,3.808,0,0,0,.96-0.96,2.117,2.117,0,0,0,.38-1.18A1.179,1.179,0,0,0,1069.63,3168.37Z" transform="translate(-1056 -3168)"/>
</svg>
