<svg xmlns="http://www.w3.org/2000/svg" width="14.844" height="14.843" viewBox="0 0 14.844 14.843">
  <path d="M251.286,196.714a4.008,4.008,0,1,1,2.826-1.174A3.849,3.849,0,0,1,251.286,196.714Zm8.241,2.625-3.063-3.062a6.116,6.116,0,0,0,1.107-3.563,6.184,6.184,0,0,0-.5-2.442,6.152,6.152,0,0,0-3.348-3.348,6.271,6.271,0,0,0-4.884,0,6.152,6.152,0,0,0-3.348,3.348,6.259,6.259,0,0,0,0,4.884,6.152,6.152,0,0,0,3.348,3.348,6.274,6.274,0,0,0,6-.611l3.063,3.053a1.058,1.058,0,0,0,.8.34,1.143,1.143,0,0,0,.813-1.947h0Z" transform="translate(-245 -186.438)"/>
</svg>
