<svg xmlns="http://www.w3.org/2000/svg" width="21" height="22" viewBox="0 0 21 22">
  <path d="M1294,152.24h-21v-0.462a4,4,0,0,1,3.09-3.88v-5.379a7.41,7.41,0,1,1,14.82,0V147.9a4,4,0,0,1,3.09,3.88v0.462Zm-20.05-.919h19.1a3.09,3.09,0,0,0-2.66-2.581l-0.4-.049v-6.172a6.49,6.49,0,1,0-12.98,0v6.172l-0.4.049A3.09,3.09,0,0,0,1273.95,151.321Zm8.27-15.567h-0.91V135.2a2.19,2.19,0,1,1,4.38,0v0.541h-0.91V135.2a1.28,1.28,0,1,0-2.56,0v0.55ZM1283.49,155a3.825,3.825,0,0,1-3.73-3.061l0.9-.184a2.89,2.89,0,0,0,5.68-.057l0.9,0.166A3.815,3.815,0,0,1,1283.49,155Zm-6.94-7.176h1.68v0.92h-1.68v-0.92Zm4.32,0h9.58v0.92h-9.58v-0.92Z" transform="translate(-1273 -133)"/>
</svg>
