<svg xmlns="http://www.w3.org/2000/svg" width="20" height="19" viewBox="0 0 20 19">
  <path fill="#000" d="M282.727,571.8a0.463,0.463,0,0,0-.454.473v3.78H265.909V562.824h16.364v3.78a0.455,0.455,0,1,0,.909,0v-4.252a0.464,0.464,0,0,0-.455-0.473H265.455a0.464,0.464,0,0,0-.455.473v14.175a0.465,0.465,0,0,0,.455.473h17.272a0.465,0.465,0,0,0,.455-0.473v-4.252A0.464,0.464,0,0,0,282.727,571.8Z" transform="translate(-265 -558)"/>
  <path class="-color-fill" d="M284.545,568.037h-3.636a0.463,0.463,0,0,0-.454.471V570.4a0.463,0.463,0,0,0,.454.472h3.636A0.464,0.464,0,0,0,285,570.4v-1.887A0.463,0.463,0,0,0,284.545,568.037Zm-0.454,1.887h-2.727V568.98h2.727v0.944Zm-4.416-11.386a0.445,0.445,0,0,0-.621-0.172l-2.8,1.678-1.841-1.91a0.442,0.442,0,0,0-.642,0l-3.633,3.77h1.286l2.668-2.769,1.347,1.4-2.289,1.371h1.818l4.148-2.485L280.5,561.9h1.05Z" transform="translate(-265 -558)"/>
</svg>
