<svg xmlns="http://www.w3.org/2000/svg" width="14" height="12" viewBox="0 0 14 12">
  <path d="M1313.03,714.438l-4.53,4.367-4.54-4.375a4.123,4.123,0,0,1-1.46-2.774,3.455,3.455,0,0,1,.17-1.117,2.067,2.067,0,0,1,.43-0.769,1.972,1.972,0,0,1,.63-0.465,2.818,2.818,0,0,1,.74-0.242,4.378,4.378,0,0,1,.76-0.063,2.222,2.222,0,0,1,.88.2,3.987,3.987,0,0,1,.86.5,8.351,8.351,0,0,1,.68.563,6.435,6.435,0,0,1,.47.48,0.506,0.506,0,0,0,.76,0,6.435,6.435,0,0,1,.47-0.48,8.351,8.351,0,0,1,.68-0.563,3.987,3.987,0,0,1,.86-0.5,2.222,2.222,0,0,1,.88-0.2,4.378,4.378,0,0,1,.76.063,2.818,2.818,0,0,1,.74.242,1.972,1.972,0,0,1,.63.465,2.067,2.067,0,0,1,.43.769,3.455,3.455,0,0,1,.17,1.117,4.126,4.126,0,0,1-1.47,2.782h0Zm1.48-5.469a3.76,3.76,0,0,0-2.74-.969,3.064,3.064,0,0,0-.99.168,3.963,3.963,0,0,0-.94.453q-0.435.285-.75,0.535c-0.2.167-.4,0.344-0.59,0.532-0.19-.188-0.39-0.365-0.59-0.532s-0.46-.345-0.75-0.535a3.963,3.963,0,0,0-.94-0.453,3.064,3.064,0,0,0-.99-0.168,3.76,3.76,0,0,0-2.74.969,3.586,3.586,0,0,0-.99,2.687,3.479,3.479,0,0,0,.18,1.078,5.7,5.7,0,0,0,.42.946,7.129,7.129,0,0,0,.53.761c0.2,0.248.35,0.418,0.44,0.512a2.683,2.683,0,0,0,.21.2l4.88,4.7a0.48,0.48,0,0,0,.68,0l4.87-4.687a5.122,5.122,0,0,0,1.79-3.516A3.586,3.586,0,0,0,1314.51,708.969Z" transform="translate(-1301.5 -708)"/>
</svg>
