<svg xmlns="http://www.w3.org/2000/svg" width="63" height="42" viewBox="0 0 63 42">
  <defs>
    <style>
      .cls-1 {
        fill-rule: evenodd;
      }
    </style>
  </defs>
  <path class="cls-1" d="M1143.07,920a13.984,13.984,0,0,1-13.93-14c0-.454.02-0.9,0.06-1.347l0.04-.348-0.32-.15a8.266,8.266,0,0,0-3.56-.859,5.7,5.7,0,0,0-3.02.776,0.808,0.808,0,0,1-.16.084l-0.41.193,0.03,0.349c0.04,0.43.06,0.863,0.06,1.3a13.93,13.93,0,1,1-25.78-7.32l0.05-.08,0.01-.053,10.38-19.76a1.505,1.505,0,0,1,1.33-.781h0a1.513,1.513,0,0,1,1.48.952l2.96,7.847a1.5,1.5,0,1,1-2.8,1.068l-1.82-4.828-5.29,10.058,1.18-.393a13.857,13.857,0,0,1,17.31,8.123l0.19,0.49,0.48-.22a9.271,9.271,0,0,1,3.84-.818,10.925,10.925,0,0,1,4.1.835l0.46,0.188,0.19-.469a13.856,13.856,0,0,1,17.23-8.156l1.17,0.383-5.26-10.02-1.82,4.828a1.5,1.5,0,0,1-1.4.973,1.484,1.484,0,0,1-.53-0.1,1.516,1.516,0,0,1-.87-1.943l2.95-7.849a1.485,1.485,0,0,1,1.41-.951,1.516,1.516,0,0,1,1.4.779l10.14,19.289A14.014,14.014,0,0,1,1143.07,920Zm0-25a10.993,10.993,0,0,0,0,21.986,10.968,10.968,0,0,0,10.93-11,10.965,10.965,0,0,0-1.68-5.8l-0.09-.119-0.17-.3A10.96,10.96,0,0,0,1143.07,895Zm-35.14,0a10.993,10.993,0,1,0,10.94,10.992A10.98,10.98,0,0,0,1107.93,895Z" transform="translate(-1094 -878)"/>
</svg>
