<svg xmlns="http://www.w3.org/2000/svg" width="57" height="57" viewBox="0 0 57 57">
  <path d="M37.4,30.28H19.594a1.781,1.781,0,1,0,0,3.562H37.4A1.781,1.781,0,1,0,37.4,30.28Zm3.562-10.685H16.033a1.781,1.781,0,1,0,0,3.562H40.965A1.781,1.781,0,1,0,40.965,19.595ZM28.5,0C12.763,0,0,11.167,0,24.937c0,7.87,4.176,14.876,10.685,19.446v12.61L23.172,49.42a32.715,32.715,0,0,0,5.327.451c15.738,0,28.495-11.163,28.495-24.933S44.237,0,28.5,0Zm0,46.3a28.819,28.819,0,0,1-6.019-.654L14.095,50.7l0.112-8.26C7.78,38.569,3.566,32.179,3.566,24.937c0-11.8,11.163-21.371,24.933-21.371s24.933,9.569,24.933,21.371S42.269,46.309,28.5,46.309Z"/>
</svg>
