<svg id="reports" xmlns="http://www.w3.org/2000/svg" width="16" height="20" viewBox="0 0 16 20">
  <path fill="#000" d="M283,741.078c0-.008,0-0.012,0-0.021s0-.012,0-0.016a0.05,0.05,0,0,0-.008-0.021s0-.012,0-0.016,0-.012-0.008-0.02,0-.013-0.008-0.017,0-.012-0.008-0.016a0.03,0.03,0,0,1-.008-0.017,0.028,0.028,0,0,1-.007-0.016s-0.008-.012-0.012-0.016a0.023,0.023,0,0,1-.008-0.013l0,0-3.781-4.717-0.008-.008a0.1,0.1,0,0,0-.02-0.021l-0.011-.012c-0.008,0-.012-0.012-0.02-0.016a0.024,0.024,0,0,0-.012-0.009,0.085,0.085,0,0,1-.019-0.016s-0.008,0-.012-0.008l-0.023-.012a0.094,0.094,0,0,0-.012-0.009l-0.027-.012s-0.008,0-.012,0-0.019,0-.027-0.008-0.008,0-.012,0a0.083,0.083,0,0,0-.031,0h-0.055L267.39,736a0.383,0.383,0,0,0-.277.119,0.417,0.417,0,0,0-.113.291v19.18a0.4,0.4,0,0,0,.39.41h15.22a0.4,0.4,0,0,0,.39-0.41V741.119h0V741.1A0.051,0.051,0,0,0,283,741.078Zm-3.777-3.517,2.548,3.181-2.548-.021v-3.16h0Zm3,17.615L268,755V737l10.438-.152v4.279a0.4,0.4,0,0,0,.386.41l3.4,0.024v13.615Z" transform="translate(-267 -736)"/>
  <path class="-color-fill" d="M270,744h10v1H270v-1Zm0,2h10v1H270v-1Zm0,2h10v1H270v-1Zm0,2h10v1H270v-1Z" transform="translate(-267 -736)"/>
</svg>
