<svg id="flashcards" xmlns="http://www.w3.org/2000/svg" width="22" height="18" viewBox="0 0 22 18">
  <path fill="#000" d="M263,503h22v18H263V503Zm21,17V504H264v16h20Z" transform="translate(-263 -503)"/>
  <path class="-color-fill" d="M278.958,509.637a0.409,0.409,0,0,0-.347-0.182h-2.85l2.427-4.946a0.41,0.41,0,0,0-.039-0.363,0.358,0.358,0,0,0-.308-0.146H273.6a0.364,0.364,0,1,0,0,.727h3.621l-2.427,4.946a0.41,0.41,0,0,0,.039.363,0.355,0.355,0,0,0,.308.146h2.735l-5.431,7.673L273.6,512.8a0.272,0.272,0,0,0-.077-0.291,0.357,0.357,0,0,0-.308-0.145h-3.351l2.581-7.891a0.322,0.322,0,0,0-.27-0.436,0.343,0.343,0,0,0-.462.254l-2.7,8.364a0.277,0.277,0,0,0,.038.291,0.49,0.49,0,0,0,.308.145h3.39l-1.464,6.473a0.328,0.328,0,0,0,.231.4,0.245,0.245,0,0,0,.154.036,0.488,0.488,0,0,0,.308-0.145l6.934-9.819A0.378,0.378,0,0,0,278.958,509.637Zm-6.394-2.328a0.351,0.351,0,0,0-.462.218l-1.156,3.273a0.373,0.373,0,0,0,.232.473c0.038,0,.077.036,0.115,0.036a0.368,0.368,0,0,0,.347-0.254l1.155-3.273A0.372,0.372,0,0,0,272.564,507.309Z" transform="translate(-263 -503)"/>
</svg>
