<svg xmlns="http://www.w3.org/2000/svg" width="200" height="200" viewBox="0 0 200 200">
  <path d="M150,87.869V34.9L115.088,0H0V200H150v-0.366A56.228,56.228,0,0,0,150,87.869ZM112.488,15.082L134.912,37.5H112.488V15.082ZM12.5,187.5V12.488H100V49.994h37.5V87.869A56,56,0,0,0,108.423,100H25v12.5H96.982A55.964,55.964,0,0,0,90.768,125H25v12.5H87.869a55.839,55.839,0,0,0,20.566,50H12.5Zm131.25-.732a43.024,43.024,0,1,1,43.018-43.018A43.111,43.111,0,0,1,143.75,186.768ZM25,75H125V87.5H25V75Z"/>
  <path fill="#fd4444" d="M156.25,118.75l-12.5,12.5-12.5-12.5-12.5,12.5,12.5,12.5-12.5,12.5,12.5,12.5,12.5-12.5,12.5,12.5,12.5-12.5-12.5-12.5,12.5-12.5Z"/>
</svg>
