<svg xmlns="http://www.w3.org/2000/svg" width="17" height="17" viewBox="0 0 17 17">
  <path fill="#000" d="M279.7,336.93h-6.625v-6.624a0.48,0.48,0,0,0-.482-0.482,7.588,7.588,0,1,0,7.589,7.588A0.484,0.484,0,0,0,279.7,336.93Zm-7.107,7.106a6.624,6.624,0,0,1-.482-13.231v6.607a0.48,0.48,0,0,0,.482.482H279.2A6.632,6.632,0,0,1,272.59,344.036Z" transform="translate(-265 -328)"/>
  <path class="-color-fill" d="M282,337.381A9.412,9.412,0,0,0,272.586,328a0.6,0.6,0,0,0-.6.6v8.814a0.594,0.594,0,0,0,.6.6H281.4a0.6,0.6,0,0,0,.6-0.6v-0.031Zm-8.816-.563v-7.6a8.221,8.221,0,0,1,7.6,7.6h-7.6Z" transform="translate(-265 -328)"/>
</svg>
