<svg xmlns="http://www.w3.org/2000/svg" width="13.938" height="15" viewBox="0 0 13.938 15">
  <defs>
    <style>
      .cls-1 {
        fill: #1a1a1a;
        fill-rule: evenodd;
      }
    </style>
  </defs>
  <path id="_" data-name="ï³" class="cls-1" d="M840.571,883.661h2.411v2.41h-2.411v-2.41Zm2.947,0H846.2v2.41h-2.678v-2.41Zm-2.947-3.215h2.411v2.679h-2.411v-2.679Zm2.947,0H846.2v2.679h-2.678v-2.679Zm-2.947-2.946h2.411v2.411h-2.411V877.5Zm6.161,6.161h2.679v2.41h-2.679v-2.41Zm-3.214-6.161H846.2v2.411h-2.678V877.5Zm6.428,6.161h2.411v2.41h-2.411v-2.41Zm-3.214-3.215h2.679v2.679h-2.679v-2.679Zm-3.026-4.365a0.258,0.258,0,0,1-.188.08h-0.536a0.273,0.273,0,0,1-.268-0.268v-2.411a0.273,0.273,0,0,1,.268-0.268h0.536a0.273,0.273,0,0,1,.268.268v2.411A0.258,0.258,0,0,1,843.706,876.081Zm6.24,4.365h2.411v2.679h-2.411v-2.679Zm-3.214-2.946h2.679v2.411h-2.679V877.5Zm3.214,0h2.411v2.411h-2.411V877.5Zm0.189-1.419a0.259,0.259,0,0,1-.189.08h-0.535a0.272,0.272,0,0,1-.268-0.268v-2.411a0.272,0.272,0,0,1,.268-0.268h0.535a0.272,0.272,0,0,1,.268.268v2.411A0.257,0.257,0,0,1,850.135,876.081Zm2.975-1.477a1.029,1.029,0,0,0-.753-0.318h-1.071v-0.8a1.344,1.344,0,0,0-1.34-1.339h-0.535a1.344,1.344,0,0,0-1.34,1.339v0.8h-3.214v-0.8a1.342,1.342,0,0,0-1.339-1.339h-0.536a1.342,1.342,0,0,0-1.339,1.339v0.8h-1.072a1.086,1.086,0,0,0-1.071,1.071v10.714a1.086,1.086,0,0,0,1.071,1.072h11.786a1.088,1.088,0,0,0,1.072-1.072V875.357A1.026,1.026,0,0,0,853.11,874.6Z" transform="translate(-839.5 -872.156)"/>
</svg>
