<svg xmlns="http://www.w3.org/2000/svg" width="31.5" height="32" viewBox="0 0 31.5 32">
  <defs>
    <style>
      .cls-1 {
        fill-rule: evenodd;
      }
    </style>
  </defs>
  <path id="Forma_1" data-name="Forma 1" class="cls-1" d="M29.834,3H25.5V1a1,1,0,0,0-2,0V3h-6V1a1,1,0,0,0-2,0V3h-6V1a1,1,0,0,0-2,0V3H3.167A2.666,2.666,0,0,0,.5,5.666V29.333A2.666,2.666,0,0,0,3.167,32H29.834A2.666,2.666,0,0,0,32.5,29.333V5.666A2.665,2.665,0,0,0,29.834,3ZM30.5,29.333a0.667,0.667,0,0,1-.666.667H3.167A0.667,0.667,0,0,1,2.5,29.333V5.666A0.667,0.667,0,0,1,3.167,5H7.5V7a1,1,0,0,0,2,0V5h6V7a1,1,0,0,0,2,0V5h6V7a1,1,0,0,0,2,0V5h4.334a0.667,0.667,0,0,1,.666.666V29.333ZM7.5,12h4v3h-4V12Zm0,5h4v3h-4V17Zm0,5h4v3h-4V22Zm7,0h4v3h-4V22Zm0-5h4v3h-4V17Zm0-5h4v3h-4V12Zm7,10h4v3h-4V22Zm0-5h4v3h-4V17Zm0-5h4v3h-4V12Z" transform="translate(-0.5)"/>
</svg>
