<svg id="courses" xmlns="http://www.w3.org/2000/svg" width="105" height="105" viewBox="0 0 105 105">
  <path fill="#000" d="M93,25V24H67V14H48v8H33V4H8V98l22.892,0H66.661L93,98V41M53,19h9v9H53V19Zm0,27h9V82H53V46Zm0-4V39h9v3H53Zm0-6V33h9v3H53ZM28,81H13V21H28V81ZM28,9v7H13V9H28ZM13,93V86H28v7H13Zm35,0H33V27H48V93Zm5,0V87h9v6H53Zm35,0H67V29H88V93Z" transform="translate(2 1.5)"/>
  <path class="-color-fill" d="M71,34H84v6H71V34Zm0,8H84v6H71V42Zm0,8H84v6H71V50Zm0,32H84v5H71V82ZM38,62h5v7H38V62Zm0,9h5V86H38V71Zm0-30h5V58H38V41Zm0-10h5v8H38V31Z" transform="translate(2 1.5)"/>
</svg>
