<svg xmlns="http://www.w3.org/2000/svg" width="105" height="105" viewBox="0 0 105 105">
<path fill="#000" d="M7,6H62V29H83V40h5V25L66.254,1H2.009V101H64V96H7V6Zm60,5L79,24H67V11Z" transform="translate(1 1.5)"/>
  <path class="-color-fill" d="M100.629,53.865l-9.51-9.493a1.277,1.277,0,0,0-1.807,0L81.25,52.417,56.259,77.348a1.307,1.307,0,0,0-.385.564L51.055,92.3a1.29,1.29,0,0,0,.807,1.627,1.246,1.246,0,0,0,.807,0l14.405-4.817a1.307,1.307,0,0,0,.564-0.384L92.58,63.742l8.049-8.071A1.277,1.277,0,0,0,100.629,53.865ZM56,89l3-9,5,5Zm11-6-6-5L83,57l5,6ZM91,60l-6-5,5-6,6,6Z" transform="translate(1 1.5)"/>
  <path fill="#000" d="M16,30H51v5H16V30Zm0,11H60v5H16V41Zm0,11H60v5H16V52Zm0,11H60v5H16V63Zm0,11H36.216v5H16V74Z" transform="translate(1 1.5)"/>
</svg>
