<svg id="student" xmlns="http://www.w3.org/2000/svg" width="105" height="105" viewBox="0 0 105 105">
  
  <path fill="#000" d="M50.633,54.728h0.639c5.847-.1,10.576-2.147,14.068-6.063,7.682-8.628,6.405-23.418,6.266-24.83-0.5-10.6-5.527-15.665-9.678-18.031A22.25,22.25,0,0,0,51.192,3H50.853A22.288,22.288,0,0,0,40.117,5.724c-4.19,2.366-9.3,7.435-9.8,18.111-0.14,1.412-1.417,16.2,6.266,24.83C40.057,52.58,44.787,54.628,50.633,54.728Zm-14.986-30.4c0-.06.02-0.119,0.02-0.159C36.326,9.918,46.483,8.387,50.833,8.387h0.239c5.388,0.119,14.547,2.306,15.165,15.785a0.385,0.385,0,0,0,.02.159c0.02,0.139,1.417,13.657-4.929,20.775-2.514,2.823-5.867,4.215-10.276,4.254h-0.2c-4.39-.04-7.762-1.431-10.256-4.254C34.271,38.028,35.628,24.45,35.648,24.331ZM91.959,79.259V79.2c0-.159-0.02-0.318-0.02-0.5-0.12-3.936-.379-13.141-9.039-16.083-0.06-.02-0.14-0.04-0.2-0.06a57.667,57.667,0,0,1-16.562-7.515,2.687,2.687,0,1,0-3.093,4.394,62.254,62.254,0,0,0,18.218,8.29c4.65,1.65,5.168,6.6,5.308,11.133a3.969,3.969,0,0,0,.02.5,35.944,35.944,0,0,1-.419,6.143c-3.233,1.829-15.9,8.151-35.18,8.151-19.2,0-31.947-6.342-35.2-8.171a34.026,34.026,0,0,1-.419-6.143c0-.159.02-0.318,0.02-0.5,0.14-4.532.658-9.483,5.308-11.133a62.832,62.832,0,0,0,18.218-8.29,2.686,2.686,0,1,0-3.093-4.393A57.039,57.039,0,0,1,19.265,62.54c-0.08.02-.14,0.04-0.2,0.06-8.66,2.962-8.92,12.167-9.039,16.083a3.968,3.968,0,0,1-.02.5v0.06c-0.02,1.034-.04,6.342,1.018,9.006A2.552,2.552,0,0,0,12.061,89.5c0.6,0.4,14.946,9.5,38.951,9.5s38.352-9.125,38.951-9.5A2.663,2.663,0,0,0,91,88.245C92,85.6,91.979,80.293,91.959,79.259Z" transform="translate(1.5 1.5)"/>
  <rect class="-color-fill" x="49.5" y="74.5" width="29" height="5" rx="2" ry="2"/>
</svg>
