<svg id="dashboard" xmlns="http://www.w3.org/2000/svg" width="105" height="105" viewBox="0 0 105 105">
  <path fill="#000" d="M87.58,53.53H48.605V14.563a2.823,2.823,0,0,0-2.835-2.834A44.636,44.636,0,1,0,90.415,56.364,2.85,2.85,0,0,0,87.58,53.53Zm-41.81,41.8A38.966,38.966,0,0,1,42.935,17.5V56.364A2.823,2.823,0,0,0,45.77,59.2H84.64A39.009,39.009,0,0,1,45.77,95.331Z" transform="translate(1.375 1.5)"/>
  <path class="-color-primary" d="M101.125,45.489A44.633,44.633,0,0,0,56.48,1C54.905,1,54,2.425,54,4V46c0,1.575,1.425,2,3,2H98c1.575,0,3.125-.79,3.125-2.364V45.489ZM59,43V7A39.458,39.458,0,0,1,85.69,19.875,39.022,39.022,0,0,1,95,43H59Z" transform="translate(1.375 1.5)"/>
</svg>
