<svg id="plan" xmlns="http://www.w3.org/2000/svg" width="105" height="105" viewBox="0 0 105 105">
  <path fill="#000" d="M93.139,41.527L86.471,40.4a37.658,37.658,0,0,0-2.68-6.469l3.93-5.5a5.851,5.851,0,0,0-.635-7.561l-5.914-5.914a5.827,5.827,0,0,0-4.148-1.726,5.765,5.765,0,0,0-3.393,1.091l-5.517,3.929a37.272,37.272,0,0,0-6.708-2.758L60.294,8.9A5.863,5.863,0,0,0,54.5,4H46.144a5.862,5.862,0,0,0-5.795,4.9L39.2,15.649a36.71,36.71,0,0,0-6.45,2.719l-5.458-3.929a5.862,5.862,0,0,0-7.561.635L13.8,20.988a5.875,5.875,0,0,0-.635,7.561l3.969,5.577a36.729,36.729,0,0,0-2.64,6.489L7.9,41.726A5.863,5.863,0,0,0,3,47.521v8.355a5.863,5.863,0,0,0,4.9,5.795l6.747,1.151a36.748,36.748,0,0,0,2.719,6.449l-3.909,5.438a5.85,5.85,0,0,0,.635,7.561l5.914,5.914a5.835,5.835,0,0,0,7.541.635l5.576-3.969A37.531,37.531,0,0,0,39.4,87.43L40.508,94.1A5.863,5.863,0,0,0,46.3,99h8.375a5.863,5.863,0,0,0,5.795-4.9L61.6,87.43a37.621,37.621,0,0,0,6.47-2.679l5.5,3.929a5.828,5.828,0,0,0,3.414,1.091h0a5.825,5.825,0,0,0,4.148-1.727l5.914-5.914a5.874,5.874,0,0,0,.635-7.561l-3.929-5.517a37.391,37.391,0,0,0,2.679-6.469L93.1,61.472A5.863,5.863,0,0,0,98,55.677V47.322A5.792,5.792,0,0,0,93.139,41.527Zm-0.457,14.15a0.514,0.514,0,0,1-.437.516L83.91,57.582a2.664,2.664,0,0,0-2.143,1.965,31.776,31.776,0,0,1-3.453,8.315,2.683,2.683,0,0,0,.119,2.917l4.9,6.906a0.541,0.541,0,0,1-.06.675l-5.914,5.914a0.5,0.5,0,0,1-.377.159,0.487,0.487,0,0,1-.3-0.1l-6.886-4.9a2.683,2.683,0,0,0-2.918-.119,31.767,31.767,0,0,1-8.315,3.453A2.634,2.634,0,0,0,56.6,84.91l-1.409,8.335a0.514,0.514,0,0,1-.516.436H46.323a0.513,0.513,0,0,1-.516-0.436L44.418,84.91a2.664,2.664,0,0,0-1.965-2.143,32.991,32.991,0,0,1-8.137-3.334,2.747,2.747,0,0,0-1.349-.357,2.613,2.613,0,0,0-1.548.5l-6.946,4.941a0.587,0.587,0,0,1-.3.1,0.531,0.531,0,0,1-.377-0.159l-5.914-5.914a0.538,0.538,0,0,1-.059-0.675l4.882-6.846a2.717,2.717,0,0,0,.119-2.937,31.474,31.474,0,0,1-3.493-8.3,2.718,2.718,0,0,0-2.143-1.965L8.794,56.392a0.514,0.514,0,0,1-.436-0.516V47.521A0.514,0.514,0,0,1,8.794,47l8.276-1.389a2.683,2.683,0,0,0,2.163-1.985A31.722,31.722,0,0,1,22.627,35.3a2.65,2.65,0,0,0-.139-2.9l-4.941-6.946a0.541,0.541,0,0,1,.059-0.675l5.914-5.914a0.505,0.505,0,0,1,.377-0.159,0.487,0.487,0,0,1,.3.1l6.847,4.882a2.717,2.717,0,0,0,2.937.119,31.475,31.475,0,0,1,8.3-3.493,2.718,2.718,0,0,0,1.965-2.143l1.429-8.395a0.514,0.514,0,0,1,.516-0.436h8.355a0.514,0.514,0,0,1,.516.436l1.389,8.276a2.683,2.683,0,0,0,1.985,2.163,32.207,32.207,0,0,1,8.514,3.493,2.683,2.683,0,0,0,2.917-.119l6.847-4.922a0.591,0.591,0,0,1,.3-0.1,0.532,0.532,0,0,1,.377.159L83.3,24.639a0.539,0.539,0,0,1,.06.675l-4.9,6.886a2.682,2.682,0,0,0-.119,2.917,31.775,31.775,0,0,1,3.453,8.315A2.634,2.634,0,0,0,83.93,45.4l8.335,1.409a0.514,0.514,0,0,1,.437.516v8.355h-0.02Z" transform="translate(2 1)"/>
  <path class="-color-fill" d="M50.511,30.99a20.5,20.5,0,1,0,20.5,20.5A20.514,20.514,0,0,0,50.511,30.99Zm0,35.642A15.142,15.142,0,1,1,65.652,51.49,15.152,15.152,0,0,1,50.511,66.632Z" transform="translate(2 1)"/>
</svg>
