<svg xmlns="http://www.w3.org/2000/svg" width="324" height="277.742" viewBox="0 0 324 277.742"><defs><style>.a,.b{fill:#ccd0d9;}.a{stroke:#707070;}.c{fill:#b1b5c4;}.d{fill:none;}</style></defs><g transform="translate(-236.979 -3941)"><path class="a" d="M1280.909-5303h100.22l3.273,4.5v59.313l-3.273,5.318h-10.635v24.135l-25.771-24.135h-63.813l-4.909-5.318v-57.268Z" transform="translate(-878.817 9347.063)"/><path class="b" d="M235.543,85.2a7.486,7.486,0,1,0,7.486,7.486,7.516,7.516,0,0,0-7.486-7.486m3.682,7.363a3.692,3.692,0,0,1-3.682,3.682,3.682,3.682,0,1,1,0-7.363,3.692,3.692,0,0,1,3.682,3.682" transform="translate(314.65 3961.222)"/><path class="b" d="M20.3,17.445h-5.89v-5.89a2.454,2.454,0,0,0-4.909,0v5.89H3.61a2.454,2.454,0,1,0,0,4.909H9.625v5.89a2.454,2.454,0,0,0,4.909,0v-5.89h5.889A2.462,2.462,0,0,0,22.877,19.9,2.655,2.655,0,0,0,20.3,17.445" transform="translate(260.584 3943.067)"/><path class="b" d="M233.746,12.517H223.683V2.454a2.454,2.454,0,1,0-4.909,0V12.517H208.711a2.454,2.454,0,0,0,0,4.909h10.063V27.489a2.454,2.454,0,1,0,4.909,0V17.426h10.063a2.454,2.454,0,0,0,0-4.909" transform="translate(309.698 3941)"/><path class="c" d="M58.3,180.857,42.475,151.9a1.073,1.073,0,0,0-.983-.738l-10.431-2.944a1.189,1.189,0,0,0-1.1.121L8.6,159.749a4.41,4.41,0,0,0-2.208,2.7,4.253,4.253,0,0,0,.367,3.436l17.3,33.258a4.474,4.474,0,0,0,2.7,2.209,5.272,5.272,0,0,0,1.35.245,5.11,5.11,0,0,0,1.963-.368l.245-.124,26.263-14.113a4.334,4.334,0,0,0,2.208-2.7,4.874,4.874,0,0,0-.491-3.436M34.988,155.333l-1.717-2.823,4.3,1.227Zm-.49,3.559h.121a1.756,1.756,0,0,0,.736-.245l5.522-3.313,14.727,26.875a1.411,1.411,0,0,1,.121,1.227,1.321,1.321,0,0,1-.735.858L28.729,198.406a1.411,1.411,0,0,1-1.227.124,2.195,2.195,0,0,1-.981-.859L9.341,164.414a1.762,1.762,0,0,1,.614-2.21l19.511-10.431,3.806,6.381a2.164,2.164,0,0,0,.858.614.449.449,0,0,0,.369.124" transform="translate(261.727 3976.813)"/><path class="c" d="M14.857,168.4a1.251,1.251,0,0,1-.982-.614,1.034,1.034,0,0,1,.491-1.351l13.99-7.116a1.016,1.016,0,0,1,.859,1.841l-13.99,7.116a.448.448,0,0,1-.368.124" transform="translate(263.452 3978.756)"/><path class="c" d="M20.457,179.294a1.252,1.252,0,0,1-.983-.614,1.034,1.034,0,0,1,.491-1.35l17.181-8.713A1.016,1.016,0,0,1,38,170.458l-17.181,8.713c0,.123-.123.123-.367.123" transform="translate(264.724 3980.971)"/><path class="c" d="M23.257,184.485a1.251,1.251,0,0,1-.982-.614,1.034,1.034,0,0,1,.491-1.351l17.917-9.2a1.016,1.016,0,0,1,.859,1.841l-17.917,9.2c-.123,0-.245.124-.368.124" transform="translate(265.782 3982.089)"/><path class="c" d="M17.357,173.994a1.251,1.251,0,0,1-.982-.614,1.032,1.032,0,0,1,.491-1.35l17.181-8.713a1.016,1.016,0,0,1,.859,1.841l-17.181,8.713a.451.451,0,0,1-.368.123" transform="translate(264.02 3979.714)"/><path class="c" d="M105.67,128.139H96.589a2.809,2.809,0,0,0-1.473.738L64.192,159.8V130.349a2.5,2.5,0,0,0-2.454-2.086h-13.5a4.138,4.138,0,0,1-4.172-4.174V42.481a4.138,4.138,0,0,1,4.172-4.172H184.21a4.138,4.138,0,0,1,4.172,4.172V73.774a2.454,2.454,0,1,0,4.909,0V42.481A9.061,9.061,0,0,0,184.21,33.4H48.238a9.061,9.061,0,0,0-9.081,9.081v81.608a9.061,9.061,0,0,0,9.081,9.082H59.406v32.642a2.518,2.518,0,0,0,1.6,2.333,2.33,2.33,0,0,0,.982.245,2.225,2.225,0,0,0,1.718-.738l34.484-34.483h7.731a2.462,2.462,0,0,0,2.454-2.454,2.7,2.7,0,0,0-2.7-2.578" transform="translate(270.292 3948.588)"/><path class="c" d="M218.872,83.7a9.2,9.2,0,0,0-6.505-2.7H117.138a9.061,9.061,0,0,0-9.081,9.081V145.8a9.06,9.06,0,0,0,9.081,9.081h60.5l24.789,24.79a2.5,2.5,0,0,0,1.841.735c.368,0,.614-.121.982-.121a2.52,2.52,0,0,0,1.594-2.333V154.876h5.522a9.06,9.06,0,0,0,9.082-9.081V90.081a8.086,8.086,0,0,0-2.577-6.381M113.088,90.081a4.138,4.138,0,0,1,4.172-4.172H212.49a4.138,4.138,0,0,1,4.171,4.172V145.8a4.138,4.138,0,0,1-4.171,4.172h-8.1a2.522,2.522,0,0,0-2.454,2.332v19.758L180.46,150.581a2.586,2.586,0,0,0-1.594-.614h-61.6a4.138,4.138,0,0,1-4.172-4.172Z" transform="translate(286.758 3960.62)"/><path class="b" d="M789.873,660.773l-3.165.333-.333-3.165a1.508,1.508,0,1,0-3,.333l.333,3.165-3.165.333a1.623,1.623,0,0,0-1.333,1.666,1.511,1.511,0,0,0,1.666,1.333l3.165-.333.333,3.165a1.509,1.509,0,0,0,3.008-.237.943.943,0,0,0-.01-.1l-.333-3.165,3.165-.333a1.621,1.621,0,0,0,1.332-1.666,1.515,1.515,0,0,0-1.666-1.333" transform="translate(-542.232 3539.352)"/><path class="b" d="M874.323,668.024l-5.83-1.832,1.832-5.83a2.748,2.748,0,0,0-1.749-3.471l-.083-.027a2.746,2.746,0,0,0-3.47,1.742l-.028.09-1.832,5.83-6-1.832a2.746,2.746,0,0,0-3.47,1.742l-.028.09a2.744,2.744,0,0,0,1.74,3.47l.092.028,6,1.832-1.832,5.83a2.792,2.792,0,1,0,5.33,1.666h0l1.832-5.83,5.83,1.832a2.744,2.744,0,0,0,3.469-1.741l.028-.092a2.683,2.683,0,0,0-1.621-3.431c-.07-.025-.14-.047-.211-.067" transform="translate(-491.836 3539.43)"/><path class="b" d="M981.641,705.475l-4,.5-.5-4a1.84,1.84,0,1,0-3.664.333l.5,4-4,.5a1.84,1.84,0,1,0,.333,3.664h0l4-.5.5,4a1.84,1.84,0,1,0,3.664-.333l-.5-4,4-.5a1.978,1.978,0,0,0,1.666-2,1.745,1.745,0,0,0-2-1.666" transform="translate(-422.661 3445.2)"/><path class="b" d="M932.541,657.308a7.329,7.329,0,1,0,7.329,7.329,7.4,7.4,0,0,0-7.329-7.329m0,11.327a4.052,4.052,0,0,1-4-4,4,4,0,1,1,8,0,4.052,4.052,0,0,1-4,4" transform="translate(-443.236 3539.819)"/><path class="c" d="M218.872,83.7a9.2,9.2,0,0,0-6.505-2.7H117.138a9.061,9.061,0,0,0-9.081,9.081V145.8a9.06,9.06,0,0,0,9.081,9.081h60.5l24.789,24.79a2.5,2.5,0,0,0,1.841.735c.368,0,.614-.121.982-.121a2.52,2.52,0,0,0,1.594-2.333V154.876h5.522a9.06,9.06,0,0,0,9.082-9.081V90.081a8.086,8.086,0,0,0-2.577-6.381M113.088,90.081a4.138,4.138,0,0,1,4.172-4.172H212.49a4.138,4.138,0,0,1,4.171,4.172V145.8a4.138,4.138,0,0,1-4.171,4.172h-8.1a2.522,2.522,0,0,0-2.454,2.332v19.758L180.46,150.581a2.586,2.586,0,0,0-1.594-.614h-61.6a4.138,4.138,0,0,1-4.172-4.172Z" transform="translate(286.758 3960.62)"/><path class="c" d="M59.911,65.1a2.454,2.454,0,1,0,0,4.909h87.13a2.454,2.454,0,0,0,0-4.909Z" transform="translate(274.405 3956.427)"/><path class="c" d="M92.923,84.9H59.911a2.454,2.454,0,0,0,0,4.909H92.923a2.462,2.462,0,0,0,2.454-2.454A2.317,2.317,0,0,0,92.923,84.9" transform="translate(274.208 3961.119)"/><path class="c" d="M155.221,116.627a4.664,4.664,0,1,0-4.665-4.665,4.661,4.661,0,0,0,4.665,4.665" transform="translate(296.204 3966.444)"/><path class="c" d="M137.121,116.627a4.664,4.664,0,1,0-4.665-4.665,4.66,4.66,0,0,0,4.665,4.665" transform="translate(291.913 3966.444)"/><path class="c" d="M173.32,116.627a4.664,4.664,0,1,0-4.663-4.665,4.662,4.662,0,0,0,4.663,4.665" transform="translate(300.496 3966.444)"/><rect class="d" width="297.358" height="241.358" transform="translate(260.321 3941)"/></g></svg>