<svg xmlns="http://www.w3.org/2000/svg" width="356.795" height="350.417" viewBox="0 0 356.795 350.417"><defs><style>.a{fill:#ccd0d9;}.b{fill:#b1b5c4;}.c{fill:#fff;}</style></defs><g transform="translate(-243.934 -1076.462)"><path class="a" d="M329.474,1089.267l-4.879-2.131,2.287-5.032a2.524,2.524,0,0,0-4.574-2.137L320.021,1085l-5.032-2.287a2.524,2.524,0,0,0-2.137,4.574l5.032,2.287-2.132,5.032a2.524,2.524,0,1,0,4.553,2.181l.021-.046,2.135-5.032,4.879,2.135a2.564,2.564,0,0,0,3.354-1.22,2.466,2.466,0,0,0-1.116-3.305l-.1-.049"/><path class="a" d="M599.053,1145.229l-3.2.457-.456-3.2a1.789,1.789,0,0,0-1.679-1.372c-.762,0-1.371.915-1.371,1.677l.456,3.2-3.354.457a1.532,1.532,0,0,0,.3,3.05l3.356-.457.456,3.2a1.532,1.532,0,0,0,3.05-.3h0l-.456-3.2,3.2-.457a1.787,1.787,0,0,0,1.374-1.677,1.442,1.442,0,0,0-1.491-1.391,1.7,1.7,0,0,0-.188.019"/><path class="a" d="M528.609,1076.462a5,5,0,1,0,5.033,5.032,5.076,5.076,0,0,0-5.033-5.032m0,8.081a2.894,2.894,0,0,1-2.9-2.888v-.012a2.8,2.8,0,0,1,2.7-2.9c.067,0,.135,0,.2,0a2.9,2.9,0,1,1,.264,5.794q-.132.006-.264,0"/><path class="a" d="M258.878,1127.542a14.943,14.943,0,1,0,14.942,14.944h0a14.967,14.967,0,0,0-14.942-14.943m0,23.329a8.386,8.386,0,1,1,0-16.772,8.267,8.267,0,0,1,8.386,8.147c0,.08,0,.159,0,.239a8.36,8.36,0,0,1-8.338,8.386h-.048"/><path class="b" d="M563.123,1179.382l.045-.167a2.837,2.837,0,0,0-.685-3.019l-61.412-55.777a2.852,2.852,0,0,0-1.778-.678H354.176a2.445,2.445,0,0,0-1.716.658l-61.468,55.827a2.667,2.667,0,0,0-.676,2.926,2.761,2.761,0,0,0,2.575,1.783H560.635v-.021l.47.021h.229A1.946,1.946,0,0,0,563.123,1179.382Zm-263.3-3.834,55.609-50.42H498.384l.429.388,55.181,50.032Z"/><rect class="a" width="268.207" height="245.793" transform="translate(292.88 1178.316)"/><path class="c" d="M558.646,1390.564H292.88V1178.316H564.863v206.759c0,3.05-2.763,5.489-6.217,5.489"/><path class="b" d="M561.236,1175.7l-.114,0H292.88a2.62,2.62,0,0,0-2.617,2.612v245.95a2.6,2.6,0,0,0,2.6,2.617h268.21a2.743,2.743,0,0,0,2.632-2.755V1178.317a2.584,2.584,0,0,0-.769-1.863A2.457,2.457,0,0,0,561.236,1175.7Zm-2.766,245.8H295.649V1181.086H558.47Z"/><path class="b" d="M379.557,1177.5a3.009,3.009,0,0,0,.529,2.371,2.535,2.535,0,0,0,2.1,1.064h89.393a2.779,2.779,0,0,0,.613-.082h0a2.8,2.8,0,0,0,2.042-3.392l-15.389-55.772a2.59,2.59,0,0,0-2.5-1.948h-58.72l-.09,0a2.513,2.513,0,0,0-2.422,1.93Zm19.979-52.373h54.587l13.94,50.42H385.755Z"/><path class="b" d="M470.422,1253.365a2.6,2.6,0,0,0,1.076.3h.094a1.366,1.366,0,0,0,.957-.367l.207-.157a2.573,2.573,0,0,0,1.291-2.228v-72.593a2.6,2.6,0,0,0-2.6-2.617H382.079a2.619,2.619,0,0,0-2.616,2.612v72.737a2.7,2.7,0,0,0,1.278,2.236,2.846,2.846,0,0,0,2.666.073l43.5-21.672Zm-85.421-6.9v-65.531h83.811v65.681l-40.75-20.456a2.646,2.646,0,0,0-1.079-.3,6.413,6.413,0,0,0-1.407.222Z"/><rect class="a" width="89.351" height="59.733" transform="translate(416.234 1316.177)"/><path class="c" d="M496.169,1347.856H418.521V1319.8H503.3v23.465c0,2.551-3.083,4.591-7.129,4.591"/><path class="b" d="M505.737,1375.6a2.19,2.19,0,0,0,2.117-2.156v-55.767a2.1,2.1,0,0,0-2.1-2.118H416.386a2.1,2.1,0,0,0-2.117,2.11v55.813a2.118,2.118,0,0,0,2.1,2.117ZM418.5,1319.8h84.966v51.42H418.5Z"/><path class="a" d="M257.291,1352.9c-1.52.01-2.757-1.818-2.764-4.083v-71.393c0-2.273,1.237-4.117,2.764-4.118s2.764,1.843,2.764,4.116v71.361c.075,2.162-1.041,4.006-2.492,4.117a1.744,1.744,0,0,1-.272,0"/><path class="a" d="M257.291,1259.129c-1.52.01-2.757-1.818-2.764-4.083v-12.384c0-2.274,1.238-4.116,2.765-4.116s2.763,1.843,2.763,4.116v12.351c.075,2.162-1.041,4.006-2.492,4.117a1.775,1.775,0,0,1-.272,0"/><path class="a" d="M597.4,1352.9c-1.52.01-2.757-1.818-2.764-4.083v-71.393c0-2.273,1.237-4.117,2.764-4.118s2.764,1.843,2.764,4.116v71.361c.075,2.162-1.041,4.006-2.492,4.117a1.745,1.745,0,0,1-.272,0"/><path class="a" d="M597.4,1259.129c-1.52.01-2.757-1.818-2.764-4.083v-12.384c0-2.274,1.238-4.116,2.765-4.116s2.763,1.843,2.763,4.116v12.351c.075,2.162-1.041,4.006-2.492,4.117a1.775,1.775,0,0,1-.272,0"/></g></svg>