<svg xmlns="http://www.w3.org/2000/svg" width="14.28" height="13.72" viewBox="0 0 14.28 13.72">
  <defs>
    <style>
      .cls-1 {
        fill: #b3b3b3;
        fill-rule: evenodd;
      }
    </style>
  </defs>
  <path id="_" data-name=" " class="cls-1" d="M1001.12,2215.73a0.574,0.574,0,0,0-.41-0.16,0.535,0.535,0,0,0-.4.16,0.566,0.566,0,0,0-.17.41,0.561,0.561,0,0,0,.17.4,0.544,0.544,0,0,0,.4.17,0.583,0.583,0,0,0,.41-0.17,0.561,0.561,0,0,0,.17-0.4A0.566,0.566,0,0,0,1001.12,2215.73Zm1.42,5.38a0.509,0.509,0,0,1-.4.17h-2.569a0.524,0.524,0,0,1-.4-0.17,0.533,0.533,0,0,1-.17-0.4V2215a0.571,0.571,0,0,1,.17-0.41,0.561,0.561,0,0,1,.4-0.17h2.569a0.581,0.581,0,0,1,.57.58v5.71A0.509,0.509,0,0,1,1002.54,2221.11Zm10.39-2.41a1.8,1.8,0,0,0-.39-1.22,1.711,1.711,0,0,0,0-1.05,1.679,1.679,0,0,0-.48-0.84,2.13,2.13,0,0,0-.43-1.61,2.239,2.239,0,0,0-1.76-.7h-1.16a6.753,6.753,0,0,0-1.28.14,10.536,10.536,0,0,0-1.09.26c-0.26.08-.61,0.2-1.07,0.35a5.851,5.851,0,0,1-1.41.39,0.6,0.6,0,0,0-.4.18,0.509,0.509,0,0,0-.17.4v5.72a0.528,0.528,0,0,0,.16.39,0.548,0.548,0,0,0,.38.18,1.488,1.488,0,0,1,.68.53q0.465,0.51.9,1.08c0.41,0.52.71,0.87,0.9,1.07a1.392,1.392,0,0,1,.28.43,3.072,3.072,0,0,1,.16.43q0.03,0.165.12,0.54c0.04,0.23.07,0.41,0.11,0.55a2.691,2.691,0,0,0,.17.46,1.7,1.7,0,0,0,.31.45,0.544,0.544,0,0,0,.4.17,2.683,2.683,0,0,0,.73-0.1,1.947,1.947,0,0,0,.54-0.23,1.235,1.235,0,0,0,.36-0.36,2.234,2.234,0,0,0,.21-0.4,2.115,2.115,0,0,0,.11-0.45c0.02-.18.04-0.31,0.04-0.4s0.01-.21.01-0.35a2.648,2.648,0,0,0-.09-0.68,4.2,4.2,0,0,0-.17-0.53c-0.06-.11-0.14-0.28-0.24-0.5-0.02-.04-0.05-0.09-0.09-0.16a1.85,1.85,0,0,1-.1-0.2,1.938,1.938,0,0,1-.07-0.22h2.47a1.639,1.639,0,0,0,1.2-.5,1.715,1.715,0,0,0,.52-1.21,1.911,1.911,0,0,0-.5-1.33,2.165,2.165,0,0,0,.14-0.68h0Z" transform="translate(-999 -2213.28)"/>
</svg>
