<svg xmlns="http://www.w3.org/2000/svg" width="81.97" height="14.188" viewBox="0 0 81.97 14.188">
  <defs>
    <style>
      .cls-1 {
        fill: #ffc600;
        fill-rule: evenodd;
      }
    </style>
  </defs>
  <path id="_copy" data-name=" copy" class="cls-1" d="M971.357,710l-4.482-.652-2.009-4.063a0.444,0.444,0,0,0-.875,0l-2.009,4.063L957.5,710a0.464,0.464,0,0,0-.5.41,0.68,0.68,0,0,0,.223.429l3.25,3.161-0.768,4.464a1.384,1.384,0,0,0-.017.178,0.528,0.528,0,0,0,.093.317,0.325,0.325,0,0,0,.282.13,0.763,0.763,0,0,0,.357-0.107l4.009-2.107,4.009,2.107a0.726,0.726,0,0,0,.357.107,0.314,0.314,0,0,0,.272-0.13,0.529,0.529,0,0,0,.094-0.317,1.327,1.327,0,0,0-.009-0.178L968.384,714l3.241-3.161a0.646,0.646,0,0,0,.232-0.429,0.464,0.464,0,0,0-.5-0.41h0Zm16.777,0-4.482-.652-2.009-4.063a0.444,0.444,0,0,0-.875,0l-2.009,4.063-4.482.652a0.464,0.464,0,0,0-.5.41,0.68,0.68,0,0,0,.223.429L977.25,714l-0.768,4.464a1.439,1.439,0,0,0-.018.178,0.529,0.529,0,0,0,.094.317,0.323,0.323,0,0,0,.281.13,0.764,0.764,0,0,0,.358-0.107l4.009-2.107,4.008,2.107a0.727,0.727,0,0,0,.358.107,0.314,0.314,0,0,0,.272-0.13,0.529,0.529,0,0,0,.094-0.317,1.327,1.327,0,0,0-.009-0.178L985.161,714l3.241-3.161a0.646,0.646,0,0,0,.232-0.429,0.464,0.464,0,0,0-.5-0.41h0Zm16.776,0-4.48-.652-2.01-4.063a0.444,0.444,0,0,0-.875,0l-2.009,4.063-4.482.652a0.463,0.463,0,0,0-.5.41,0.68,0.68,0,0,0,.223.429l3.25,3.161-0.768,4.464a1.439,1.439,0,0,0-.018.178,0.529,0.529,0,0,0,.094.317,0.323,0.323,0,0,0,.281.13,0.764,0.764,0,0,0,.358-0.107l4.008-2.107,4.008,2.107a0.761,0.761,0,0,0,.36.107,0.306,0.306,0,0,0,.27-0.13,0.541,0.541,0,0,0,.09-0.317V718.46L1001.94,714l3.24-3.161a0.664,0.664,0,0,0,.23-0.429,0.466,0.466,0,0,0-.5-0.41h0Zm16.78,0-4.48-.652-2.01-4.063a0.517,0.517,0,0,0-.44-0.366,0.507,0.507,0,0,0-.44.366l-2.01,4.063-4.48.652a0.466,0.466,0,0,0-.5.41,0.722,0.722,0,0,0,.22.429L1010.8,714l-0.76,4.464a0.708,0.708,0,0,0-.02.178,0.541,0.541,0,0,0,.09.317,0.324,0.324,0,0,0,.28.13,0.761,0.761,0,0,0,.36-0.107l4.01-2.107,4.01,2.107a0.7,0.7,0,0,0,.36.107,0.318,0.318,0,0,0,.27-0.13,0.541,0.541,0,0,0,.09-0.317,0.865,0.865,0,0,0-.01-0.178L1018.71,714l3.25-3.161a0.664,0.664,0,0,0,.23-0.429,0.466,0.466,0,0,0-.5-0.41h0Zm16.77,0-4.48-.652-2.01-4.063a0.441,0.441,0,0,0-.87,0l-2.01,4.063-4.48.652a0.459,0.459,0,0,0-.5.41,0.669,0.669,0,0,0,.22.429l3.25,3.161-0.77,4.464a1.394,1.394,0,0,0-.01.178,0.541,0.541,0,0,0,.09.317,0.324,0.324,0,0,0,.28.13,0.761,0.761,0,0,0,.36-0.107l4.01-2.107,4.01,2.107a0.7,0.7,0,0,0,.35.107,0.306,0.306,0,0,0,.27-0.13,0.483,0.483,0,0,0,.1-0.317,0.865,0.865,0,0,0-.01-0.178L1035.49,714l3.24-3.161a0.621,0.621,0,0,0,.23-0.429,0.459,0.459,0,0,0-.5-0.41h0Z" transform="translate(-957 -704.906)"/>
</svg>
