<svg xmlns="http://www.w3.org/2000/svg" width="15" height="15" viewBox="0 0 15 15">
  <defs>
    <style>
      .cls-1 {
        fill: #fff;
        fill-rule: evenodd;
      }
    </style>
  </defs>
  <path id="_" data-name="ï" class="cls-1" d="M510.453,3546.55a1.79,1.79,0,0,0-1.328-.55h-11.25a1.873,1.873,0,0,0-1.875,1.88v11.28a1.748,1.748,0,0,0,.547,1.29,1.789,1.789,0,0,0,1.328.55h11.25a1.79,1.79,0,0,0,1.328-.55,1.748,1.748,0,0,0,.547-1.29v-11.28A1.789,1.789,0,0,0,510.453,3546.55Zm-3.828,6.95a3.121,3.121,0,1,1-.918-2.21A3.012,3.012,0,0,1,506.625,3553.5Zm2.5-3.12H507.25a0.555,0.555,0,0,1-.625-0.63v-1.87a0.555,0.555,0,0,1,.625-0.63h1.875a0.555,0.555,0,0,1,.625.63v1.87a0.555,0.555,0,0,1-.625.63h0Zm-11.211,9.37a0.668,0.668,0,0,1-.469-0.18,0.552,0.552,0,0,1-.195-0.44v-6.88h2.07a4.434,4.434,0,0,0-.195,1.25,4.375,4.375,0,1,0,8.75,0,4.338,4.338,0,0,0-.156-1.25h2.031v6.88a0.535,0.535,0,0,1-.586.62h-11.25Z" transform="translate(-496 -3546)"/>
</svg>
