<svg xmlns="http://www.w3.org/2000/svg" width="18.438" height="15" viewBox="0 0 18.438 15">
  <defs>
    <style>
      .cls-1 {
        fill: #fff;
        fill-rule: evenodd;
      }
    </style>
  </defs>
  <path id="_" data-name="" class="cls-1" d="M455.25,3549.38a3.434,3.434,0,0,0,1.68-2.11,6.949,6.949,0,0,1-2.422.94,3.6,3.6,0,0,0-2.735-1.21,3.73,3.73,0,0,0-3.789,3.79,3.359,3.359,0,0,0,.079.86,10.237,10.237,0,0,1-7.774-3.95,3.778,3.778,0,0,0-.508,1.88,3.542,3.542,0,0,0,1.68,3.16,3.483,3.483,0,0,1-1.719-.47v0.04a3.578,3.578,0,0,0,.879,2.4,3.758,3.758,0,0,0,2.168,1.31,4.136,4.136,0,0,1-1.016.16,5.079,5.079,0,0,1-.7-0.08,3.567,3.567,0,0,0,1.328,1.86,3.842,3.842,0,0,0,2.188.76,7.371,7.371,0,0,1-4.688,1.64,8.972,8.972,0,0,1-.9-0.08,10.4,10.4,0,0,0,5.781,1.72,9.924,9.924,0,0,0,7.832-3.34,10.984,10.984,0,0,0,2.95-7.44v-0.47a7.322,7.322,0,0,0,1.875-1.95,6.561,6.561,0,0,1-2.188.58h0Z" transform="translate(-439 -3547)"/>
</svg>
