<svg xmlns="http://www.w3.org/2000/svg" width="18" height="13.5" viewBox="0 0 18 13.5">
  <defs>
    <style>
      .cls-1 {
        fill: #fff;
        fill-rule: evenodd;
      }
    </style>
  </defs>
  <path id="_" data-name="ï‰" class="cls-1" d="M557.139,3547.47a2.417,2.417,0,0,0-1.846-.83q-2.567-.135-5.977-0.14h-0.632q-3.411,0-5.977.14a2.359,2.359,0,0,0-1.828.83,2.915,2.915,0,0,0-.738,2.02c-0.094,1.69-.141,2.94-0.141,3.76,0,1.24.035,2.5,0.105,3.76a2.875,2.875,0,0,0,.756,2.02,2.414,2.414,0,0,0,1.846.83q2.707,0.135,6.293.14t6.293-.14a2.417,2.417,0,0,0,1.846-.83,2.879,2.879,0,0,0,.756-2.02c0.07-1.26.105-2.52,0.105-3.76s-0.035-2.5-.105-3.76A2.879,2.879,0,0,0,557.139,3547.47Zm-9.862,2.3,5.1,3.48-5.1,3.45v-6.93Z" transform="translate(-540 -3546.5)"/>
</svg>
