<?xml version="1.0" encoding="utf-8"?>
<svg xmlns="http://www.w3.org/2000/svg" xmlns:xlink="http://www.w3.org/1999/xlink">
    <symbol viewBox="0 0 18.269 26.568" id="address" xmlns="http://www.w3.org/2000/svg">
        <path d="M16.999 4.549A9.016 9.016 0 009.338 0h-.409a9.016 9.016 0 00-7.661 4.547 9.249 9.249 0 00-.121 9.139l6.585 12.061.009.016a1.6 1.6 0 002.778 0l.009-.016 6.588-12.059a9.25 9.25 0 00-.121-9.139zm-7.867 7.489A3.736 3.736 0 1112.87 8.3a3.74 3.74 0 01-3.738 3.738z" />
    </symbol>
    <symbol viewBox="0 0 24 24" id="arrow-black" xmlns="http://www.w3.org/2000/svg">
        <path fill="none" d="M0 0h24v24H0z" />
        <path d="M12.5 12.5L16 9l1 1-4.5 4.5L8 10l1-1z" />
    </symbol>
    <symbol viewBox="0 0 240.823 240.823" id="arrow-left">
        <path d="M57.633 129.007L165.93 237.268c4.752 4.74 12.451 4.74 17.215 0 4.752-4.74 4.752-12.439 0-17.179l-99.707-99.671 99.695-99.671c4.752-4.74 4.752-12.439 0-17.191-4.752-4.74-12.463-4.74-17.215 0L57.621 111.816c-4.679 4.691-4.679 12.511.012 17.191z" />
    </symbol>
    <symbol viewBox="0 0 12 11.358" id="attach" xmlns="http://www.w3.org/2000/svg">
        <defs>
            <style>
                .ada {
                    opacity: .6
                }

                .adb {
                    fill: #333
                }
            </style>
        </defs>
        <g class="ada">
            <path class="adb" d="M10.876 1.121a3.841 3.841 0 00-5.425 0L.799 5.771a2.74 2.74 0 003.875 3.875l4.263-4.263a1.644 1.644 0 10-2.325-2.325L3.826 5.846a.548.548 0 10.775.775l2.788-2.787a.548.548 0 11.775.775L3.899 8.871a1.644 1.644 0 01-2.325-2.325l4.65-4.65a2.74 2.74 0 113.875 3.875l-4.65 4.65a.548.548 0 00.775.775l4.65-4.65a3.836 3.836 0 000-5.425z" />
        </g>
    </symbol>
    <symbol viewBox="0 0 24 24" id="availability" xmlns="http://www.w3.org/2000/svg">
        <path d="M16 5.6h3.2a.8.8 0 01.8.8v12.8a.8.8 0 01-.8.8H4.8a.8.8 0 01-.8-.8V6.4a.8.8 0 01.8-.8H8V4h1.6v1.6h4.8V4H16zm-1.6 1.6H9.6v1.6H8V7.2H5.6v3.2h12.8V7.2H16v1.6h-1.6zm4 4.8H5.6v6.4h12.8z" />
    </symbol>
    <symbol viewBox="-5 -5 24 24" id="back" xmlns="http://www.w3.org/2000/svg">
        <path d="M3.35 5.931H14v1.747H3.35l4.693 4.7-1.237 1.237L0 6.806 6.806 0l1.237 1.237z" />
    </symbol>
    <symbol viewBox="0 0 24 24" id="burger-menu" xmlns="http://www.w3.org/2000/svg">
        <path fill="none" class="agb" d="M0 0h24v24H0z" />
        <path d="M5 7h15v1.556H5zm0 4.444h15V13H5zm0 4.444h15v1.556H5z" />
    </symbol>
    <symbol viewBox="0 0 30 30" id="calendar" xmlns="http://www.w3.org/2000/svg">
        <path fill="none" d="M0 0h30v30H0z" />
        <path d="M22.403 8.025h-1.555V6.787A.874.874 0 0019.882 6h-1.328a.775.775 0 00-.858.787v1.238h-5.4V6.787A.775.775 0 0011.445 6h-1.327a.874.874 0 00-.967.787v1.238h-1.44a1.665 1.665 0 00-1.715 1.617v13.115a1.831 1.831 0 001.71 1.912h14.583a1.831 1.831 0 001.707-1.909v-13a1.665 1.665 0 00-1.593-1.735zM18.554 6.9h1.395v2.474h-1.395zm-8.436 0h1.278v2.474h-1.278zm12.978 15.86a.935.935 0 01-.81 1.012H7.711a.935.935 0 01-.81-1.012V13.2h16.195v9.56zm0-13v2.54H6.901V9.757a.765.765 0 01.81-.832h1.44v.495a.926.926 0 00.967.855h1.327a.832.832 0 00.855-.809v-.541h5.4v.495a.832.832 0 00.809.855h1.373a.926.926 0 00.967-.855v-.495h1.44a.765.765 0 01.81.832z" />
        <path class="ahabc" d="M9.367 16h2v2h-2zm3 0h2v2h-2zm3 0h2v2h-2zm-6 3h2v2h-2zm3 0h2v2h-2zm3 0h2v2h-2zm3-3h2v2h-2zm0 3h2v2h-2z" />
    </symbol>
    <symbol viewBox="0 0 17 16.995" id="cancel" xmlns="http://www.w3.org/2000/svg">
        <path d="M14.514 2.485a8.5 8.5 0 100 12.023 8.513 8.513 0 000-12.023zm-.931 11.092a7.185 7.185 0 110-10.161 7.194 7.194 0 010 10.162z" />
        <path d="M11.34 10.318L9.476 8.456l1.864-1.862a.659.659 0 10-.931-.932L8.543 7.525 6.677 5.662a.659.659 0 10-.931.932L7.61 8.456l-1.864 1.862a.659.659 0 00.931.932l1.866-1.863 1.866 1.863a.659.659 0 10.931-.932z" />
    </symbol>
    <symbol viewBox="0 0 512 512" id="card-game" xmlns="http://www.w3.org/2000/svg">
        <path d="M500.879 141.084l-101.345-27.155V15c0-8.284-6.716-15-15-15H127.467c-8.284 0-15 6.716-15 15v98.929L11.121 141.084C3.119 143.228-1.63 151.453.514 159.455l91.483 341.423c2.144 8.002 10.369 12.751 18.371 10.607L256 472.464l145.631 39.021c8.002 2.144 16.227-2.605 18.371-10.606l91.483-341.423c2.144-8.002-2.605-16.227-10.606-18.372zM142.467 30h227.066v323.467H142.467zm-25.374 448.625L33.375 166.18l79.092-21.192v223.479c0 8.284 6.716 15 15 15h199.206l9.75 36.39zm277.814 0l-80.951-21.69 44.72-11.983c8.002-2.144 12.751-10.369 10.607-18.371l-11.552-43.114h26.803c8.284 0 15-6.716 15-15V144.988l79.092 21.192z" />
    </symbol>
    <symbol viewBox="-4 -4 25 25" id="clock" xmlns="http://www.w3.org/2000/svg">
        <path class="aka" d="M12.286 10.776L9.634 8.787V4.736a.737.737 0 00-1.473 0v4.419a.735.735 0 00.295.589l2.946 2.21a.737.737 0 00.884-1.179z" />
        <path class="aka" d="M9 0a9 9 0 109 9 9.01 9.01 0 00-9-9zm0 16.606A7.606 7.606 0 1116.606 9 7.615 7.615 0 019 16.606z" />
    </symbol>
    <symbol viewBox="0 0 24 24" id="close" xmlns="http://www.w3.org/2000/svg">
        <path d="M12 10.586l4.95-4.95 1.414 1.414-4.95 4.95 4.95 4.95-1.414 1.414-4.95-4.95-4.95 4.95-1.414-1.414 4.95-4.95-4.95-4.95L7.05 5.636z" />
    </symbol>
    <symbol viewBox="0 0 13 11.7" id="comments" xmlns="http://www.w3.org/2000/svg">
        <path d="M0 3.9A3.894 3.894 0 013.9 0h5.2A3.9 3.9 0 0113 3.9v7.8H3.9A3.9 3.9 0 010 7.8zm11.7 6.5V3.9a2.6 2.6 0 00-2.6-2.6H3.9a2.593 2.593 0 00-2.6 2.6v3.9a2.6 2.6 0 002.6 2.6zM7.8 5.2h1.3v1.3H7.8zm-3.9 0h1.3v1.3H3.9z" />
    </symbol>
    <symbol viewBox="0 0 36 36" id="crosshair" xmlns="http://www.w3.org/2000/svg">
        <circle cx="7.5" cy="7.5" r="7.5" transform="translate(10.5 10.5)" />
        <path d="M34.5 16.5h-1.577A15.023 15.023 0 0019.5 3.076V1.5a1.5 1.5 0 10-3 0v1.576A15.023 15.023 0 003.076 16.5H1.5a1.5 1.5 0 000 3h1.576A15.024 15.024 0 0016.5 32.924V34.5a1.5 1.5 0 103 0v-1.576A15.024 15.024 0 0032.923 19.5H34.5a1.5 1.5 0 000-3zM19.479 29.9a1.481 1.481 0 00-2.958 0A12.011 12.011 0 016.1 19.48a1.482 1.482 0 000-2.959A12.011 12.011 0 0116.519 6.1a1.482 1.482 0 002.959 0A12.011 12.011 0 0129.9 16.519a1.482 1.482 0 000 2.959A12.014 12.014 0 0119.479 29.9z" />
    </symbol>
    <symbol viewBox="0 0 30 30" id="dashboard" xmlns="http://www.w3.org/2000/svg">
        <path fill="none" d="M0 0h30v30H0z" />
        <path d="M13.937 13H8.312A1.314 1.314 0 017 11.688V8.313A1.314 1.314 0 018.312 7h5.625a1.314 1.314 0 011.313 1.313v3.375A1.314 1.314 0 0113.937 13zM8.312 8.125a.188.188 0 00-.187.187v3.376a.188.188 0 00.187.188h5.625a.188.188 0 00.188-.188V8.313a.188.188 0 00-.188-.187zm0 0M13.937 25H8.312A1.314 1.314 0 017 23.688v-7.875A1.314 1.314 0 018.312 14.5h5.625a1.314 1.314 0 011.313 1.313v7.875A1.314 1.314 0 0113.937 25zm-5.625-9.375a.188.188 0 00-.187.188v7.875a.188.188 0 00.187.187h5.625a.188.188 0 00.188-.187v-7.875a.188.188 0 00-.188-.188zm0 0M23.688 25h-5.625a1.314 1.314 0 01-1.313-1.312v-3.375A1.314 1.314 0 0118.063 19h5.625A1.314 1.314 0 0125 20.313v3.375A1.314 1.314 0 0123.688 25zm-5.625-4.875a.188.188 0 00-.188.188v3.375a.188.188 0 00.188.187h5.625a.188.188 0 00.187-.187v-3.375a.188.188 0 00-.187-.188zm0 0M23.688 17.5h-5.625a1.314 1.314 0 01-1.313-1.313V8.313A1.314 1.314 0 0118.063 7h5.625A1.314 1.314 0 0125 8.312v7.876a1.314 1.314 0 01-1.312 1.312zm-5.625-9.375a.188.188 0 00-.188.187v7.876a.188.188 0 00.188.188h5.625a.188.188 0 00.187-.188V8.313a.188.188 0 00-.187-.187zm0 0" />
    </symbol>
    <symbol viewBox="0 0 16 16" id="date" xmlns="http://www.w3.org/2000/svg">
        <path d="M12 1.6h3.2a.8.8 0 01.8.8v12.8a.8.8 0 01-.8.8H.8a.8.8 0 01-.8-.8V2.4a.8.8 0 01.8-.8H4V0h1.6v1.6h4.8V0H12zm-1.6 1.6H5.6v1.6H4V3.2H1.6v3.2h12.8V3.2H12v1.6h-1.6zm4 4.8H1.6v6.4h12.8z" />
    </symbol>
    <symbol viewBox="0 0 512 512" id="detail" xmlns="http://www.w3.org/2000/svg">
        <path d="M506.607 104.396L406.611 4.394A14.998 14.998 0 00396.004 0H166c-24.813 0-45 20.187-45 45v197.838C53.594 250.324 1 307.631 1 377c0 74.439 60.561 135 135 135h330c24.813 0 45-20.187 45-45V115.003c0-3.979-1.58-7.793-4.393-10.607zM411 51.213l32.59 32.591L459.786 100H411zM31 377c0-57.897 47.103-105 105-105s105 47.103 105 105-47.103 105-105 105S31 434.897 31 377zm435 105H220.749c26.963-21.805 45.389-53.759 49.414-90H426c8.284 0 15-6.716 15-15s-6.716-15-15-15H270.162c-2.446-22.02-10.204-42.459-21.968-60H426c8.284 0 15-6.716 15-15s-6.716-15-15-15H220.749c-19.521-15.786-43.511-26.248-69.749-29.162V45c0-8.271 6.729-15 15-15h215v85c0 8.284 6.716 15 15 15h85v337c0 8.271-6.729 15-15 15z" />
        <path d="M426 182H206c-8.284 0-15 6.716-15 15s6.716 15 15 15h220c8.284 0 15-6.716 15-15s-6.716-15-15-15zM195.606 339.394c-5.857-5.857-15.355-5.857-21.213 0L115 398.787l-19.394-19.394c-5.857-5.857-15.355-5.857-21.213 0s-5.858 15.355 0 21.213l30 30C107.322 433.535 111.161 435 115 435s7.678-1.465 10.606-4.394l70-70c5.858-5.857 5.858-15.355 0-21.212z" />
    </symbol>
    <symbol viewBox="0 0 12 11.667" id="direction" xmlns="http://www.w3.org/2000/svg">
        <path d="M2.871 5.084H12v1.5H2.871l4.023 4.023-1.06 1.06L0 5.834 5.833 0l1.06 1.061z" />
    </symbol>
    <symbol viewBox="0 0 512.003 512.003" id="discount">
        <path d="M477.958 262.633a15.004 15.004 0 010-13.263l19.096-39.065c10.632-21.751 2.208-47.676-19.178-59.023l-38.41-20.38a15.005 15.005 0 01-7.796-10.729l-7.512-42.829c-4.183-23.846-26.241-39.87-50.208-36.479l-43.053 6.09a15.004 15.004 0 01-12.613-4.099l-31.251-30.232c-17.401-16.834-44.661-16.835-62.061 0L193.72 42.859a15.01 15.01 0 01-12.613 4.099l-43.053-6.09c-23.975-3.393-46.025 12.633-50.208 36.479l-7.512 42.827a15.008 15.008 0 01-7.795 10.73l-38.41 20.38c-21.386 11.346-29.81 37.273-19.178 59.024l19.095 39.064a15.004 15.004 0 010 13.263L14.95 301.699c-10.632 21.751-2.208 47.676 19.178 59.023l38.41 20.38a15.005 15.005 0 017.796 10.729l7.512 42.829c3.808 21.708 22.422 36.932 43.815 36.93 2.107 0 4.245-.148 6.394-.452l43.053-6.09a15 15 0 0112.613 4.099l31.251 30.232c8.702 8.418 19.864 12.626 31.03 12.625 11.163-.001 22.332-4.209 31.03-12.625l31.252-30.232c3.372-3.261 7.968-4.751 12.613-4.099l43.053 6.09c23.978 3.392 46.025-12.633 50.208-36.479l7.513-42.827a15.008 15.008 0 017.795-10.73l38.41-20.38c21.386-11.346 29.81-37.273 19.178-59.024l-19.096-39.065zm-13.923 72.002l-38.41 20.38c-12.246 6.499-20.645 18.057-23.04 31.713l-7.512 42.828a15.038 15.038 0 01-16.987 12.342l-43.053-6.09c-13.73-1.945-27.316 2.474-37.281 12.113L266.5 478.152a15.04 15.04 0 01-20.997 0l-31.251-30.232c-8.422-8.147-19.432-12.562-30.926-12.562-2.106 0-4.229.148-6.355.449l-43.053 6.09a15.042 15.042 0 01-16.987-12.342l-7.513-42.829c-2.396-13.656-10.794-25.215-23.041-31.712l-38.41-20.38a15.037 15.037 0 01-6.489-19.969L60.574 275.6c6.088-12.456 6.088-26.742 0-39.198l-19.096-39.065a15.037 15.037 0 016.489-19.969l38.41-20.38c12.246-6.499 20.645-18.057 23.04-31.713l7.512-42.828a15.038 15.038 0 0116.987-12.342l43.053 6.09c13.725 1.943 27.316-2.474 37.281-12.113l31.252-30.232a15.04 15.04 0 0120.997 0l31.251 30.232c9.965 9.64 23.554 14.056 37.281 12.113l43.053-6.09a15.04 15.04 0 0116.987 12.342l7.512 42.829c2.396 13.656 10.794 25.215 23.041 31.712l38.41 20.38a15.037 15.037 0 016.489 19.969l-19.096 39.064c-6.088 12.455-6.088 26.743 0 39.198l19.096 39.064a15.039 15.039 0 01-6.488 19.972z" />
        <path d="M363.886 148.116c-5.765-5.766-15.115-5.766-20.881 0l-194.889 194.89c-5.766 5.766-5.766 15.115 0 20.881a14.72 14.72 0 0010.44 4.325c3.778 0 7.558-1.441 10.44-4.325l194.889-194.889c5.768-5.767 5.768-15.115.001-20.882zM196.941 123.116c-29.852 0-54.139 24.287-54.139 54.139s24.287 54.139 54.139 54.139 54.139-24.287 54.139-54.139-24.287-54.139-54.139-54.139zm0 78.747c-13.569 0-24.608-11.039-24.608-24.609 0-13.569 11.039-24.608 24.608-24.608s24.609 11.039 24.609 24.608c-.001 13.57-11.04 24.609-24.609 24.609zM315.061 280.61c-29.852 0-54.139 24.287-54.139 54.139s24.287 54.139 54.139 54.139c29.852 0 54.139-24.287 54.139-54.139s-24.287-54.139-54.139-54.139zm0 78.747c-13.569 0-24.609-11.039-24.609-24.608s11.039-24.608 24.609-24.608c13.569 0 24.608 11.039 24.608 24.608s-11.039 24.608-24.608 24.608z" />
    </symbol>
    <symbol viewBox="-3 -3 22 22" id="download" xmlns="http://www.w3.org/2000/svg">
        <path d="M8.8 5.6h4L8 10.4 3.2 5.6h4V0h1.6zm-7.2 7.2h12.8V7.2H16v6.4a.8.8 0 01-.8.8H.8a.8.8 0 01-.8-.8V7.2h1.6z" />
    </symbol>
    <symbol viewBox="0 0 469.333 469.333" id="edit" xmlns="http://www.w3.org/2000/svg">
        <path d="M21.333 426.667H448v42.667H21.333zM327.253 0L64 263.253V384h120.747L448 120.747 327.253 0zM167.04 341.333h-60.373V280.96L327.253 60.373l60.373 60.373L167.04 341.333z" />
    </symbol>
    <symbol viewBox="0 0 17.909 12.76" id="email" xmlns="http://www.w3.org/2000/svg">
        <path d="M17.896 1.284c0-.02.014-.04.013-.061l-5.465 5.266 5.459 5.1c0-.036-.007-.073-.007-.11zM11.61 7.299L9.379 9.446a.583.583 0 01-.8.006L6.347 7.38l-5.494 5.3a1.266 1.266 0 00.427.085h15.38a1.265 1.265 0 00.614-.169z" />
        <path d="M8.967 8.222L17.308.188A1.264 1.264 0 0016.664 0H1.284a1.268 1.268 0 00-.807.3zM0 1.48v10a1.269 1.269 0 00.055.331L5.481 6.58z" />
    </symbol>
    <symbol viewBox="0 0 18.331 15.331" id="enter" xmlns="http://www.w3.org/2000/svg">
        <path d="M17.692 0h-11.5a.639.639 0 00-.639.639V5.11a.639.639 0 101.278 0V1.278h10.222v12.775H6.833v-3.832a.639.639 0 00-1.278 0v4.472a.639.639 0 00.639.639h11.5a.639.639 0 00.639-.639V.639A.639.639 0 0017.692 0z" />
        <path d="M9.936 9.769a.639.639 0 00.9.9l2.555-2.555q.022-.022.042-.046l.017-.023.02-.027.017-.028.015-.026.014-.029.013-.028c0-.009.007-.019.01-.029l.011-.03c.004-.01.005-.019.007-.029l.008-.032c.002-.011 0-.023.005-.034s0-.018 0-.028a.643.643 0 000-.126v-.028c0-.009 0-.023-.005-.034s-.005-.021-.008-.032 0-.019-.007-.029-.007-.02-.011-.03l-.01-.029c-.003-.01-.009-.018-.013-.028l-.014-.029-.015-.026-.017-.028-.02-.027-.017-.023q-.02-.024-.042-.046L10.84 4.659a.639.639 0 00-.9.9l1.46 1.468H.639A.639.639 0 000 7.666a.639.639 0 00.639.639H11.4z" />
    </symbol>
    <symbol viewBox="0 0 24 24" id="envelope" xmlns="http://www.w3.org/2000/svg">
        <path d="M4.8 5h14.4a.8.8 0 01.8.8v12.8a.8.8 0 01-.8.8H4.8a.8.8 0 01-.8-.8V5.8a.8.8 0 01.8-.8zm13.6 3.39l-6.342 5.68L5.6 8.373V17.8h12.8zM6.009 6.6l6.04 5.33L18 6.6z" />
    </symbol>
    <symbol viewBox="0 0 10 20" id="facebook" xmlns="http://www.w3.org/2000/svg">
        <path class="aya" d="M6.25 6.875v-2.5a1.25 1.25 0 011.25-1.25h1.25V0h-2.5A3.75 3.75 0 002.5 3.75v3.125H0V10h2.5v10h3.75V10h2.5L10 6.875z" />
    </symbol>
    <symbol viewBox="0 0 24 24" id="favorite" xmlns="http://www.w3.org/2000/svg">
        <path fill="none" d="M0 0h24v24H0z" />
        <path fill="#fff" d="M16.609 4a5.228 5.228 0 00-4.218 2.145 7.13 7.13 0 00-.392.556 7.05 7.05 0 00-.392-.556A5.228 5.228 0 007.389 4 5.519 5.519 0 002 9.789c0 3.611 2.959 7.014 9.6 11.034a.781.781 0 00.81 0c6.636-4.02 9.6-7.423 9.6-11.034A5.519 5.519 0 0016.609 4zm1.764 10.285A29.082 29.082 0 0112 19.239a29.083 29.083 0 01-6.373-4.954 6.8 6.8 0 01-2.064-4.5 3.965 3.965 0 013.828-4.227 3.661 3.661 0 012.958 1.508 5.8 5.8 0 01.906 1.633.781.781 0 001.492 0 5.794 5.794 0 01.878-1.6 3.671 3.671 0 012.986-1.544 3.965 3.965 0 013.828 4.227 6.8 6.8 0 01-2.066 4.503z" />
    </symbol>
    <symbol viewBox="0 0 511 512" id="filter" xmlns="http://www.w3.org/2000/svg">
        <path d="M492.477 0H20.5C9.453 0 .5 8.953.5 20c0 55.695 23.875 108.867 65.504 145.871l87.59 77.852a71.265 71.265 0 0123.898 53.222v195.032c0 15.937 17.813 25.492 31.09 16.636l117.996-78.66a20.005 20.005 0 008.906-16.64V296.945a71.265 71.265 0 0123.899-53.222l87.586-77.852C488.598 128.867 512.473 75.695 512.473 20c0-11.047-8.953-20-19.996-20zm-72.082 135.973l-87.586 77.855c-23.72 21.086-37.325 51.379-37.325 83.113V402.61l-77.996 51.996v-157.66a111.301 111.301 0 00-37.324-83.117l-87.586-77.851c-28.07-24.957-45.988-59.153-50.785-95.98H471.18c-4.797 36.827-22.711 71.023-50.785 95.976zm0 0" />
    </symbol>
    <symbol viewBox="0 0 30 30" id="flashcards" xmlns="http://www.w3.org/2000/svg">
        <path fill="none" d="M0 0h30v30H0z" />
        <path d="M22.445 11.508h-5.792L20.515 5h-9.33L7 15.738h4.827l-2.9 9.762zM9.252 14.436L12.47 6.3h5.47l-3.861 6.51h4.828l-7.08 7.484 2.573-5.858z" />
    </symbol>
    <symbol viewBox="0 0 36 36" id="focus" xmlns="http://www.w3.org/2000/svg">
        <path d="M1.055 6.4a1.054 1.054 0 001.054-1.056V2.109h3.235a1.055 1.055 0 100-2.109H1.055A1.054 1.054 0 000 1.055v4.289A1.054 1.054 0 001.055 6.4zM1.055 36.002h4.289a1.055 1.055 0 000-2.109H2.109v-3.234a1.055 1.055 0 10-2.109 0v4.289a1.054 1.054 0 001.055 1.054zM34.946 0h-4.289a1.055 1.055 0 100 2.109h3.234v3.235a1.055 1.055 0 002.109 0V1.055A1.054 1.054 0 0034.946 0zM34.946 29.602a1.054 1.054 0 00-1.055 1.055v3.234h-3.234a1.055 1.055 0 000 2.109h4.289a1.054 1.054 0 001.055-1.055v-4.289a1.054 1.054 0 00-1.055-1.054zM18 12.727A5.273 5.273 0 1023.273 18 5.28 5.28 0 0018 12.727zm0 8.438a3.164 3.164 0 113.164-3.164A3.168 3.168 0 0118 21.165z" />
        <path d="M18 6.398C8.251 6.398.52 16.937.2 17.386a1.052 1.052 0 000 1.228c.32.448 8.051 10.984 17.8 10.984S35.481 19.059 35.8 18.61a1.052 1.052 0 000-1.228c-.319-.445-8.05-10.984-17.8-10.984zm0 18.984a7.383 7.383 0 117.383-7.383A7.392 7.392 0 0118 25.382z" />
        <circle cx=".9" cy=".9" r=".9" transform="translate(17.1 17.1)" />
    </symbol>
    <symbol viewBox="0 0 30 30" id="giftcards" xmlns="http://www.w3.org/2000/svg">
        <path fill="none" d="M0 0h30v30H0z" />
        <path d="M5 7v15.234h20V7zm18.828 5.859h-8.557a2.342 2.342 0 00-3.2-3.2V8.172h11.757zM8.555 11.688a1.172 1.172 0 012.344 0v1.171H9.727a1.173 1.173 0 01-1.172-1.171zm3.515 1.171v-1.171a1.172 1.172 0 111.172 1.171zM10.9 8.172v1.487a2.342 2.342 0 00-3.2 3.2H6.172V8.172zm-4.728 5.859h3.6a4.826 4.826 0 00-1.219 3.206v.309a1.173 1.173 0 01-1.172 1.172v1.172a2.346 2.346 0 002.344-2.344v-.309a3.632 3.632 0 011.175-2.683v6.509H6.172zm5.9 7.031v-6.508a3.632 3.632 0 011.172 2.684v.309a2.346 2.346 0 002.344 2.344v-1.172a1.173 1.173 0 01-1.172-1.172v-.309a4.826 4.826 0 00-1.216-3.207h10.628v7.031zm0 0" />
        <path d="M16.758 16.375h5.859v1.172h-5.859zm0 0" />
    </symbol>
    <symbol viewBox="0 0 17.381 17.381" id="globe" xmlns="http://www.w3.org/2000/svg">
        <defs>
            <style>
                .bea {
                    fill: #111
                }
            </style>
        </defs>
        <path class="bea" d="M14.836 2.545a8.69 8.69 0 00-12.29 12.29 8.69 8.69 0 0012.29-12.29zm-.719.719A7.719 7.719 0 0115.3 4.792h-3.375a13.122 13.122 0 00-.575-2.067 7.043 7.043 0 00-.737-1.467 7.627 7.627 0 013.504 2.006zM11.27 8.69a20.139 20.139 0 01-.194 2.835H6.3a20.134 20.134 0 01-.189-2.835 20.092 20.092 0 01.2-2.882h4.758a20.1 20.1 0 01.201 2.882zM8.69 1.017c.581 0 1.219.773 1.708 2.068a11.826 11.826 0 01.49 1.708h-4.4a11.818 11.818 0 01.49-1.708C7.471 1.79 8.11 1.017 8.69 1.017zM3.264 3.264a7.626 7.626 0 013.5-2.006 7.044 7.044 0 00-.737 1.467 13.115 13.115 0 00-.575 2.067H2.078a7.722 7.722 0 011.186-1.528zM1.017 8.69a7.664 7.664 0 01.558-2.882h3.711a21.777 21.777 0 00-.007 5.717H1.556a7.667 7.667 0 01-.539-2.835zm2.248 5.426a7.716 7.716 0 01-1.215-1.574h3.4a13.182 13.182 0 00.585 2.113 7.044 7.044 0 00.737 1.467 7.627 7.627 0 01-3.508-2.005zm5.425 2.248c-.581 0-1.219-.773-1.708-2.068a11.889 11.889 0 01-.5-1.754H10.9a11.892 11.892 0 01-.5 1.754c-.49 1.295-1.129 2.068-1.71 2.068zm5.426-2.248a7.627 7.627 0 01-3.5 2.006 7.043 7.043 0 00.737-1.467 13.183 13.183 0 00.585-2.113h3.4a7.719 7.719 0 01-1.221 1.575zM12.1 11.525a21.244 21.244 0 00.185-2.835 21.218 21.218 0 00-.185-2.881h3.711a7.725 7.725 0 01.019 5.717z" />
    </symbol>
    <symbol viewBox="0 0 40 40" id="gole" xmlns="http://www.w3.org/2000/svg">
        <path d="M20 36.666A16.667 16.667 0 1136.666 20 16.716 16.716 0 0120 36.666zm0-31.667a15 15 0 1015 15A14.938 14.938 0 0020 5z" />
        <path d="M20 8.333a.787.787 0 01-.833-.833V.833a.833.833 0 111.667 0V7.5a.787.787 0 01-.834.833z" />
        <path d="M20 8.333a.787.787 0 01-.833-.833V.833a.833.833 0 111.667 0V7.5a.787.787 0 01-.834.833zM39.167 20.834H32.5a.833.833 0 010-1.667h6.667a.833.833 0 110 1.667zM20 40a.787.787 0 01-.833-.833V32.5a.833.833 0 011.667 0v6.667A.787.787 0 0120 40zM7.5 20.834H.833a.833.833 0 110-1.667H7.5a.833.833 0 110 1.667zM20 25a4.911 4.911 0 01-5-5 4.911 4.911 0 015-5 4.911 4.911 0 015 5 4.911 4.911 0 01-5 5zm0-8.333A3.333 3.333 0 1023.333 20 3.343 3.343 0 0020 16.667z" />
    </symbol>
    <symbol viewBox="0 0 31 31" id="google" xmlns="http://www.w3.org/2000/svg">
        <defs>
            <style>
                .bga {
                    fill: #fbbb00
                }

                .bgb {
                    fill: #518ef8
                }

                .bgc {
                    fill: #28b446
                }

                .bgd {
                    fill: #f14336
                }
            </style>
        </defs>
        <path class="bga" d="M6.87 18.734l-1.079 4.028-3.944.083a15.527 15.527 0 01-.114-14.474l3.511.644 1.538 3.49a9.25 9.25 0 00.087 6.228z" />
        <path class="bgb" d="M30.729 12.604a15.494 15.494 0 01-5.525 14.983l-4.423-.226-.626-3.907a9.238 9.238 0 003.975-4.717h-8.288v-6.132H30.73z" />
        <path class="bgc" d="M25.203 27.587a15.5 15.5 0 01-23.356-4.742l5.023-4.112a9.219 9.219 0 0013.284 4.72z" />
        <path class="bgd" d="M25.394 3.568l-5.022 4.111a9.217 9.217 0 00-13.589 4.826L1.734 8.372a15.5 15.5 0 0123.661-4.8z" />
    </symbol>
    <symbol viewBox="0 0 14 12.6" id="google_plus" xmlns="http://www.w3.org/2000/svg">
        <path d="M.7 0h12.6a.7.7 0 01.7.7v11.2a.7.7 0 01-.7.7H.7a.7.7 0 01-.7-.7V.7A.7.7 0 01.7 0zm6.342 6.078L2.554 2.267l-.907 1.066 5.4 4.588 5.311-4.591-.916-1.059-4.4 3.807z" />
    </symbol>
    <symbol viewBox="0 0 30 30" id="group-classes" xmlns="http://www.w3.org/2000/svg">
        <path fill="none" d="M0 0h30v30H0z" />
        <path d="M13.683 9.648v7.394l6.4-3.7zm1.406 2.437l2.181 1.26-2.181 1.26zm8.2 9.926a2.109 2.109 0 10-3.487-.02 3.5 3.5 0 00-1.039.916 3.5 3.5 0 00-1.019-.908 2.109 2.109 0 10-3.487 0 3.494 3.494 0 00-1.022.907 3.5 3.5 0 00-.989-.887 2.109 2.109 0 10-3.486-.039A3.471 3.471 0 007 24.999h1.406a2.063 2.063 0 014.125 0h1.407a2.063 2.063 0 114.125 0h1.406a2.063 2.063 0 114.125 0H25a3.47 3.47 0 00-1.709-2.988zm-12.776-1.9a.7.7 0 11-.7.7.7.7 0 01.703-.698zm5.484 0a.7.7 0 11-.7.7.7.7 0 01.703-.698zm5.555 0a.7.7 0 11-.7.7.7.7 0 01.703-.698zM25 9.109v8.437a2.1 2.1 0 01-.5 1.357 3.544 3.544 0 00-1-1.013.7.7 0 00.091-.345V9.109a.7.7 0 00-.7-.7H9.109a.7.7 0 00-.7.7v8.437a.7.7 0 00.112.378 3.545 3.545 0 00-.981 1.026A2.1 2.1 0 017 17.546V9.109a2.112 2.112 0 012.109-2.11h13.782A2.112 2.112 0 0125 9.109zm0 0" />
    </symbol>
    <symbol viewBox="0 0 16 14.8" id="heart" xmlns="http://www.w3.org/2000/svg">
        <path d="M11.6 0A4.521 4.521 0 0116 4.8c0 5.6-6 8.8-8 10-2-1.2-8-4.4-8-10A4.54 4.54 0 014.4 0 5.293 5.293 0 018 1.6 5.293 5.293 0 0111.6 0zM8.747 12.483a21.562 21.562 0 001.936-1.361C13.068 9.222 14.4 7.154 14.4 4.8a2.932 2.932 0 00-2.8-3.2 3.686 3.686 0 00-2.469 1.131L8 3.862 6.869 2.731A3.686 3.686 0 004.4 1.6a2.95 2.95 0 00-2.8 3.2c0 2.355 1.333 4.426 3.716 6.322a21.527 21.527 0 001.937 1.36c.239.151.476.3.747.458.271-.162.508-.306.747-.457z" />
    </symbol>
    <symbol viewBox="0 0 24 24" id="home" xmlns="http://www.w3.org/2000/svg">
        <path class="bka" fill="none" d="M0 0h24v24H0z" />
        <path class="bkb" d="M21.644 11.948L20.298 10.6l-7.406-7.4a.673.673 0 00-.952 0l-7.405 7.4-1.343 1.349a.673.673 0 00.952.952l.2-.2v8.473a.673.673 0 00.673.673h14.805a.673.673 0 00.673-.673V12.7l.2.2a.673.673 0 00.952-.952zM14.436 20.5h-4.044v-5.383h4.039zm4.713 0h-3.367v-6.056a.673.673 0 00-.673-.673H9.723a.673.673 0 00-.673.673V20.5H5.684v-9.144l6.732-6.732 6.732 6.732z" fill="#fff" />
    </symbol>
    <symbol viewBox="0 0 30 30" id="issue" xmlns="http://www.w3.org/2000/svg">
        <path fill="none" d="M0 0h30v30H0z" />
        <path d="M15 18.563a.925.925 0 000 1.85.925.925 0 000-1.85z" />
        <path d="M23.562 21.841a3.159 3.159 0 00.007-3.2L17.774 8.61a3.193 3.193 0 00-5.543 0L6.43 18.652a3.2 3.2 0 002.775 4.8h11.574a3.187 3.187 0 002.783-1.611zm-1.262-.723a1.749 1.749 0 01-1.528.884H9.2a1.725 1.725 0 01-1.51-.866 1.751 1.751 0 010-1.765l5.8-10.042a1.742 1.742 0 013.027 0l5.8 10.042a1.728 1.728 0 01-.017 1.747z" />
        <path d="M14.77 12.067a1.006 1.006 0 00-.714 1.01c.022.292.041.588.063.881l.189 3.319a.678.678 0 00.692.651.692.692 0 00.692-.673c0-.229 0-.44.022-.673l.126-2.142c.022-.463.063-.925.085-1.388a1.143 1.143 0 00-.085-.463.927.927 0 00-1.07-.522z" />
    </symbol>
    <symbol viewBox="0 0 24 24" id="language" xmlns="http://www.w3.org/2000/svg">
        <path d="M12 20a8 8 0 118-8 8 8 0 01-8 8zm-1.832-1.866A14.32 14.32 0 018.822 12.8H5.65a6.406 6.406 0 004.518 5.334zm.256-5.334A12.732 12.732 0 0012 18.2a12.724 12.724 0 001.576-5.4h-3.152zm7.926 0h-3.172a14.32 14.32 0 01-1.346 5.334A6.406 6.406 0 0018.35 12.8zm-12.7-1.6h3.172a14.32 14.32 0 011.346-5.334A6.406 6.406 0 005.65 11.2zm4.775 0h3.15A12.724 12.724 0 0012 5.8a12.724 12.724 0 00-1.576 5.4zm3.407-5.334a14.32 14.32 0 011.346 5.334h3.172a6.406 6.406 0 00-4.518-5.334z" />
    </symbol>
    <symbol viewBox="0 0 50 50" id="learner" xmlns="http://www.w3.org/2000/svg">
        <path d="M32.324 50H17.676v-4.59a4.4 4.4 0 014.395-4.394h5.859a4.4 4.4 0 014.395 4.395zM50 50H35.352v-4.59a4.4 4.4 0 014.395-4.394h5.859a4.4 4.4 0 014.395 4.395zM14.648 50H0v-4.59a4.4 4.4 0 014.395-4.394h5.859a4.4 4.4 0 014.395 4.395zM25 41.016a4.395 4.395 0 114.395-4.395A4.4 4.4 0 0125 41.016zM42.676 41.016a4.395 4.395 0 114.395-4.395 4.4 4.4 0 01-4.395 4.395zM7.325 41.016a4.395 4.395 0 114.395-4.395 4.4 4.4 0 01-4.395 4.395zM22.07 8.789h-4.395v8.789h5.859v-7.324a1.467 1.467 0 00-1.464-1.465zM26.464 10.254v7.324h5.859V8.789h-4.395a1.467 1.467 0 00-1.464 1.465z" />
        <path d="M3.027 0v26.367h18.456l3.516 3.352 3.516-3.352h18.457V0zm32.227 20.508H14.746V5.859h7.324A4.361 4.361 0 0125 7a4.361 4.361 0 012.927-1.141h7.324z" />
    </symbol>
    <symbol viewBox="0 0 16 16" id="lesson-view" xmlns="http://www.w3.org/2000/svg">
        <path class="bpa" d="M14.286 0H1.714A1.714 1.714 0 000 1.714v12.572A1.714 1.714 0 001.714 16h12.572A1.714 1.714 0 0016 14.286V1.714A1.714 1.714 0 0014.286 0zm.571 14.286a.571.571 0 01-.571.571H1.714a.571.571 0 01-.571-.571V1.714a.571.571 0 01.571-.571h12.572a.571.571 0 01.571.571v12.572z" />
        <path class="bpa" d="M5.065 3.441H3.431a.545.545 0 000 1.089h1.634a.545.545 0 100-1.089zM12.511 3.441h-4.9a.545.545 0 100 1.089h4.9a.545.545 0 000-1.089zM5.065 7.455H3.431a.545.545 0 100 1.089h1.634a.545.545 0 100-1.089zM12.511 7.455h-4.9a.545.545 0 100 1.089h4.9a.545.545 0 100-1.089zM5.065 11.47H3.431a.545.545 0 000 1.089h1.634a.545.545 0 100-1.089zM12.511 11.47h-4.9a.545.545 0 100 1.089h4.9a.545.545 0 100-1.089z" />
    </symbol>
    <symbol viewBox="0 0 30 30" id="lessons" xmlns="http://www.w3.org/2000/svg">
        <path fill="none" class="bqb" d="M0 0h30v30H0z" />
        <path d="M10.2 9.313h9.6v1.382h-9.6zm0 3.039h9.6v1.382h-9.6zm0 3.039h9.6v1.382h-9.6zm0 3.039h9.6v1.383h-9.6z" />
        <path d="M6 24.2V5h18v19.2zM23 6H7v17.2h16z" />
    </symbol>
    <symbol viewBox="0 0 30 30" id="lessons-plan" xmlns="http://www.w3.org/2000/svg">
        <path fill="none" d="M0 0h30v30H0z" />
        <path d="M15.43 21.813a3.406 3.406 0 113.406-3.406 3.406 3.406 0 01-3.406 3.406zm0-5.892a2.486 2.486 0 102.486 2.486 2.486 2.486 0 00-2.486-2.486zm-.748 3.4v-2.327h.831v1.5h1.5v.831z" />
        <path d="M22.403 8.025h-1.555V6.787A.874.874 0 0019.882 6h-1.328a.775.775 0 00-.858.787v1.238h-5.4V6.787A.775.775 0 0011.445 6h-1.327a.874.874 0 00-.967.787v1.238h-1.44a1.665 1.665 0 00-1.715 1.617v13.115a1.831 1.831 0 001.71 1.912h14.583a1.831 1.831 0 001.707-1.909v-13a1.665 1.665 0 00-1.593-1.735zM18.554 6.9h1.395v2.474h-1.395zm-8.436 0h1.278v2.474h-1.278zm12.978 15.86a.935.935 0 01-.81 1.012H7.711a.935.935 0 01-.81-1.012V13.2h16.195v9.56zm0-13v2.54H6.901V9.757a.765.765 0 01.81-.832h1.44v.495a.926.926 0 00.967.855h1.327a.832.832 0 00.855-.809v-.541h5.4v.495a.832.832 0 00.809.855h1.373a.926.926 0 00.967-.855v-.495h1.44a.765.765 0 01.81.832z" />
    </symbol>
    <symbol viewBox="-3 -3 22 22" id="list" xmlns="http://www.w3.org/2000/svg">
        <path d="M14.286 0H1.714A1.714 1.714 0 000 1.714v12.572A1.714 1.714 0 001.714 16h12.572A1.714 1.714 0 0016 14.286V1.714A1.714 1.714 0 0014.286 0zm.571 14.286a.571.571 0 01-.571.571H1.714a.571.571 0 01-.571-.571V1.714a.571.571 0 01.571-.571h12.572a.571.571 0 01.571.571v12.572z" />
        <path d="M5.065 3.441H3.431a.545.545 0 000 1.089h1.634a.545.545 0 100-1.089zM12.511 3.441h-4.9a.545.545 0 100 1.089h4.9a.545.545 0 000-1.089zM5.065 7.455H3.431a.545.545 0 100 1.089h1.634a.545.545 0 100-1.089zM12.511 7.455h-4.9a.545.545 0 100 1.089h4.9a.545.545 0 100-1.089zM5.065 11.47H3.431a.545.545 0 000 1.089h1.634a.545.545 0 100-1.089zM12.511 11.47h-4.9a.545.545 0 100 1.089h4.9a.545.545 0 000-1.089z" />
    </symbol>
    <symbol viewBox="0 0 11.552 13.944" id="location" xmlns="http://www.w3.org/2000/svg">
        <path d="M5.776 12.129l3.177-3.177a4.492 4.492 0 10-6.354 0zm0 1.815L1.692 9.86a5.776 5.776 0 118.168 0zm0-6.885a1.284 1.284 0 10-1.284-1.283A1.284 1.284 0 005.776 7.06zm0 1.284a2.567 2.567 0 112.567-2.567 2.567 2.567 0 01-2.567 2.567z" />
    </symbol>
    <symbol viewBox="0 0 289.658 289.658" id="lock" xmlns="http://www.w3.org/2000/svg">
        <path d="M245.758 128.041h-14.217V86.712C231.541 38.899 192.642 0 144.829 0S58.117 38.899 58.117 86.712v41.329H43.9c-8.285 0-15.001 6.716-15.001 15.001v131.613c0 8.285 6.716 15.002 15.001 15.002h201.858c8.285 0 15.002-6.716 15.002-15.002V143.043c0-8.285-6.717-15.002-15.002-15.002zM94.537 86.712c0-27.731 22.561-50.292 50.292-50.292s50.292 22.561 50.292 50.292v41.329H94.537V86.712zm66.64 127.127v26.904c0 9.029-7.319 16.348-16.348 16.348s-16.348-7.319-16.348-16.348v-26.904c-6.081-4.824-9.986-12.272-9.986-20.638 0-14.544 11.79-26.335 26.334-26.335s26.334 11.791 26.334 26.335c0 8.366-3.905 15.815-9.986 20.638z" />
    </symbol>
    <symbol viewBox="0 0 24 24" id="logout" xmlns="http://www.w3.org/2000/svg">
        <path d="M12.967 20.272H5.492a.831.831 0 01-.831-.831V4.492a.831.831 0 01.831-.831h7.475a.831.831 0 000-1.661H5.492A2.5 2.5 0 003 4.492v14.95a2.5 2.5 0 002.492 2.492h7.475a.831.831 0 100-1.661z" />
        <path d="M22.753 11.375l-5.05-4.983a.83.83 0 10-1.166 1.183l3.609 3.561h-9.67a.831.831 0 000 1.661h9.67l-3.609 3.561a.83.83 0 101.166 1.183l5.05-4.983a.83.83 0 000-1.183z" />
    </symbol>
    <symbol viewBox="0 0 550.795 550.795" id="mail" xmlns="http://www.w3.org/2000/svg">
        <path d="M501.613 491.782c12.381 0 23.109-4.088 32.229-12.16L377.793 323.567a2878.213 2878.213 0 00-10.801 7.767c-11.678 8.604-21.156 15.318-28.434 20.129-7.277 4.822-16.959 9.737-29.045 14.755-12.094 5.024-23.361 7.528-33.813 7.528h-.612c-10.453 0-21.72-2.503-33.813-7.528-12.093-5.018-21.775-9.933-29.045-14.755-7.277-4.811-16.75-11.524-28.434-20.129a1351.934 1351.934 0 00-10.771-7.809L16.946 479.622c9.119 8.072 19.854 12.16 32.234 12.16h452.433zM31.047 225.299C19.37 217.514 9.015 208.598 0 198.555V435.98l137.541-137.541c-27.516-19.21-62.969-43.562-106.494-73.14zM520.059 225.299c-41.865 28.336-77.447 52.73-106.75 73.195l137.486 137.492V198.555c-8.815 9.841-19.059 18.751-30.736 26.744z" />
        <path d="M501.613 59.013H49.181c-15.784 0-27.919 5.33-36.42 15.979C4.253 85.646.006 98.97.006 114.949c0 12.907 5.636 26.892 16.903 41.959 11.267 15.061 23.256 26.891 35.961 35.496 6.965 4.921 27.969 19.523 63.012 43.801a20367.497 20367.497 0 0149.505 34.395 8855.122 8855.122 0 0131.022 21.701c.985.691 2.534 1.799 4.59 3.269 2.215 1.591 5.018 3.61 8.476 6.107 6.659 4.816 12.191 8.709 16.597 11.683 4.4 2.975 9.731 6.298 15.985 9.988 6.249 3.685 12.143 6.456 17.675 8.299 5.533 1.842 10.655 2.766 15.367 2.766h.612c4.711 0 9.834-.924 15.368-2.766 5.531-1.843 11.42-4.608 17.674-8.299 6.248-3.69 11.572-7.02 15.986-9.988 4.406-2.974 9.938-6.866 16.598-11.683 3.451-2.497 6.254-4.517 8.469-6.102a643.575 643.575 0 014.596-3.274c6.684-4.651 17.1-11.892 31.104-21.616 25.482-17.705 63.01-43.764 112.742-78.281 14.957-10.447 27.453-23.054 37.496-37.803 10.025-14.749 15.051-30.22 15.051-46.408 0-13.525-4.873-25.098-14.598-34.737-9.736-9.627-21.265-14.443-34.584-14.443z" />
    </symbol>
    <symbol viewBox="0 0 24 24" id="message" xmlns="http://www.w3.org/2000/svg">
        <path fill="none" d="M0 0h24v24H0z" />
        <path d="M1 15.638a.645.645 0 001.019.525l3.544-2.528a1.734 1.734 0 011.012-.324h7.794a2.491 2.491 0 002.488-2.488V2.645A.645.645 0 0016.212 2H3.488A2.491 2.491 0 001 4.488zm1.289-11.15a1.2 1.2 0 011.2-1.2h12.08v7.534a1.2 1.2 0 01-1.2 1.2H6.575a3.016 3.016 0 00-1.761.564l-2.525 1.8z" />
        <path d="M23 9.487a2.491 2.491 0 00-2.488-2.488H18.79a.645.645 0 000 1.289h1.722a1.2 1.2 0 011.2 1.2v9.9l-2.525-1.8a3.015 3.015 0 00-1.761-.564H9.632a1.2 1.2 0 01-1.2-1.2v-.577a.645.645 0 00-1.289 0v.577a2.491 2.491 0 002.488 2.488h7.794a1.734 1.734 0 011.012.324l3.544 2.528A.645.645 0 0023 20.639V9.489zM5.635 6.8h7.447a.645.645 0 100-1.289H5.635a.645.645 0 100 1.289zM5.635 9.808h7.447a.645.645 0 000-1.289H5.635a.645.645 0 000 1.289z" />
    </symbol>
    <symbol viewBox="0 0 36 35.999" id="mission" xmlns="http://www.w3.org/2000/svg">
        <path d="M27.749 35.998H.75a.751.751 0 01-.658-1.11l13.499-24.749a.781.781 0 011.317 0l13.5 24.749a.751.751 0 01-.658 1.11zm-25.736-1.5h24.471L14.249 12.065z" />
        <path d="M35.248 35.999h-7.5a.75.75 0 110-1.5h6.231l-6.937-12.615-2.857 5.915a.75.75 0 11-1.35-.654l3.492-7.224a.752.752 0 01.658-.422.79.79 0 01.676.388l8.25 15a.751.751 0 01-.658 1.111zM14.249 11.25a.75.75 0 01-.75-.75V.75a.75.75 0 01.75-.75h9a.751.751 0 01.531 1.281L21.309 3.75l2.469 2.469a.751.751 0 01-.529 1.281h-8.25v3a.75.75 0 01-.75.75zm.75-5.25h6.439l-1.719-1.719a.75.75 0 010-1.06L21.438 1.5h-6.439zM16.499 22.499h-.054a.746.746 0 01-.546-.3l-1.65-2.194-1.65 2.2a.754.754 0 01-.546.3.725.725 0 01-.583-.217l-2.52-2.52a.75.75 0 111.06-1.06l1.909 1.897 1.731-2.308a.777.777 0 011.2 0l1.73 2.308 1.908-1.908a.75.75 0 011.06 1.06l-2.52 2.52a.748.748 0 01-.529.219z" />
    </symbol>
    <symbol viewBox="0 0 24 24" id="notification" xmlns="http://www.w3.org/2000/svg">
        <path fill="none" d="M0 0h24v24H0z" />
        <path fill="#fff" d="M21.714 17.72c-1.751-1.528-3.371-3.683-3.371-9.064a5.603 5.603 0 10-11.206 0c0 5.386-1.62 7.539-3.372 9.065A2.246 2.246 0 003 19.404a.64.64 0 00.637.643h6.049a3.115 3.115 0 006.109 0h6.048a.64.64 0 00.637-.643 2.234 2.234 0 00-.766-1.684zm-8.974 3.546a1.849 1.849 0 01-1.732-1.219h3.464a1.849 1.849 0 01-1.732 1.219zm-8.214-2.505a.942.942 0 01.074-.072c2.672-2.327 3.812-5.329 3.812-10.037a4.328 4.328 0 118.656 0c0 4.7 1.14 7.706 3.813 10.038a.95.95 0 01.074.072z" />
    </symbol>
    <symbol viewBox="0 0 30 30" id="orders" xmlns="http://www.w3.org/2000/svg">
        <path fill="none" d="M0 0h30v30H0z" />
        <path d="M7.008 6.01H18.12v4.647h4.243v2.222h1.01v-3.03L18.98 5H6v20.2h12.524v-1.01H7.008zM19.13 7.02l2.424 2.626H19.13z" />
        <path d="M25.925 15.68l-1.918-1.918a.258.258 0 00-.365 0l-1.635 1.627-5.049 5.037a.264.264 0 00-.078.114l-.973 2.905a.261.261 0 00.163.329.252.252 0 00.163 0l2.91-.973a.264.264 0 00.114-.078l5.039-5.048 1.626-1.631a.258.258 0 00.003-.364zm-9.018 7.098l.606-1.818 1.01 1.01zm2.222-1.212l-1.212-1.01 4.445-4.243 1.01 1.212zm4.849-4.647l-1.211-1.01 1.01-1.212 1.212 1.212zM8.827 10.859h7.071v1.01H8.827zm0 2.222h8.889v1.01H8.827zm0 2.222h8.889v1.01H8.827zm0 2.222h8.889v1.01H8.827zm0 2.222h4.084v1.012H8.827z" />
    </symbol>
    <symbol viewBox="0 0 15.579 15.612" id="phone" xmlns="http://www.w3.org/2000/svg">
        <path class="cba" d="M15.17 11.457l-2.178-2.178a1.449 1.449 0 00-2.412.545 1.483 1.483 0 01-1.712.934 6.718 6.718 0 01-4.046-4.047A1.41 1.41 0 015.756 5a1.449 1.449 0 00.545-2.412L4.122.409a1.554 1.554 0 00-2.1 0L.542 1.887c-1.478 1.556.156 5.68 3.813 9.337s7.781 5.369 9.337 3.813l1.478-1.478a1.554 1.554 0 000-2.102z" />
    </symbol>
    <symbol xmlns="http://www.w3.org/2000/svg" viewBox="0 0 14 16.899" id="pin">
        <path class="cca"
            d="M11.95 11.95L7 16.9l-4.95-4.95a7 7 0 119.9 0zM7 10.111A3.111 3.111 0 103.889 7 3.111 3.111 0 007 10.111zm0-1.556A1.556 1.556 0 118.556 7 1.556 1.556 0 017 8.556z" />
    </symbol>
    <symbol viewBox="0 0 16 15.997" id="pinterest" xmlns="http://www.w3.org/2000/svg">
        <path d="M9.092.075a8 8 0 00-4.294 15.257 6.2 6.2 0 01.13-1.834c.148-.671 1.037-4.369 1.037-4.369a2.991 2.991 0 01-.259-1.261c0-1.188.685-2.074 1.538-2.074A1.067 1.067 0 018.318 7a17.458 17.458 0 01-.7 2.831 1.235 1.235 0 001.26 1.538c1.518 0 2.535-1.944 2.535-4.24a2.987 2.987 0 00-3.315-3.077 3.8 3.8 0 00-3.945 3.834 2.367 2.367 0 00.518 1.576.384.384 0 01.13.443c-.037.147-.13.5-.166.627a.283.283 0 01-.408.2 3.06 3.06 0 01-1.629-3.049c0-2.277 1.907-5 5.722-5a4.793 4.793 0 015.055 4.6c0 3.126-1.741 5.477-4.314 5.477a2.288 2.288 0 01-1.963-1s-.462 1.852-.553 2.2a6.419 6.419 0 01-.815 1.7 7.729 7.729 0 002.275.34A8 8 0 009.098.076z" />
    </symbol>
    <symbol viewBox="0 0 36.333 36.333" id="planning" xmlns="http://www.w3.org/2000/svg">
        <defs>
            <style>
                .cea {
                    fill: #fff
                }
            </style>
        </defs>
        <path class="cea" d="M14.405 26.682a.71.71 0 11-.71-.71.71.71 0 01.71.71zm0 0M32.075 27.108h-3.548V23.56a.71.71 0 10-1.419 0v4.258a.71.71 0 00.71.71h4.258a.71.71 0 000-1.419zm0 0M4.968 14.618h4.47a.71.71 0 100-1.419h-4.47a.71.71 0 100 1.419zm0 0M18.166 13.199h-4.47a.71.71 0 100 1.419h4.471a.71.71 0 000-1.419zm0 0M4.968 18.876h4.47a.71.71 0 100-1.419h-4.47a.71.71 0 100 1.419zm0 0M10.858 25.972h-5.89a.71.71 0 000 1.419h5.89a.71.71 0 000-1.419zm0 0M18.166 17.457h-4.47a.71.71 0 100 1.419h4.471a.71.71 0 100-1.419zm0 0M4.968 23.134h4.47a.71.71 0 100-1.419h-4.47a.71.71 0 100 1.419zm0 0M18.166 21.715h-4.47a.71.71 0 100 1.419h4.471a.71.71 0 100-1.419zm0 0M22.425 14.618h4.258a.71.71 0 000-1.419h-4.258a.71.71 0 100 1.419zm0 0" />
        <path class="cea" d="M31.649 20.213V4.967a2.131 2.131 0 00-2.129-2.129h-2.129v-.71a2.129 2.129 0 10-4.258 0v.71h-5.89v-.71a2.129 2.129 0 10-4.258 0v.71H7.1v-.71a2.129 2.129 0 00-4.258 0v.71h-.71A2.131 2.131 0 000 4.967V28.1a2.131 2.131 0 002.129 2.13h17.522a8.515 8.515 0 1012-10.017zm-7.1-18.084a.71.71 0 011.419 0v2.838a.71.71 0 01-1.419 0zm-10.148 0a.71.71 0 111.419 0v2.838a.71.71 0 11-1.419 0zm-10.148 0a.71.71 0 111.419 0v2.838a.71.71 0 01-1.419 0zM2.129 4.258h.71v.71a2.129 2.129 0 104.258 0v-.71h5.89v.71a2.129 2.129 0 104.258 0v-.71h5.89v.71a2.129 2.129 0 104.258 0v-.71h2.127a.71.71 0 01.71.71v3.76H1.419V4.967a.71.71 0 01.71-.709zM1.419 28.1V10.148H30.23v9.5a8.521 8.521 0 00-10.93 8.169 8.616 8.616 0 00.058.993H2.129a.71.71 0 01-.71-.71zm26.4 6.812a7.1 7.1 0 117.1-7.1 7.12 7.12 0 01-7.102 7.102zm0 0" />
    </symbol>
    <symbol viewBox="0 0 455 455" id="play" xmlns="http://www.w3.org/2000/svg">
        <path d="M227.5 0C101.855 0 0 101.855 0 227.5S101.855 455 227.5 455 455 353.145 455 227.5 353.145 0 227.5 0zm-61.438 321.575v-188.15L328.938 227.5l-162.876 94.075z" />
    </symbol>
    <symbol viewBox="0 0 512 512" id="plus" xmlns="http://www.w3.org/2000/svg">
        <path d="M256 0C114.833 0 0 114.833 0 256s114.833 256 256 256 256-114.853 256-256S397.167 0 256 0zm0 472.341c-119.275 0-216.341-97.046-216.341-216.341S136.725 39.659 256 39.659 472.341 136.705 472.341 256 375.295 472.341 256 472.341z" />
        <path d="M355.148 234.386H275.83v-79.318c0-10.946-8.864-19.83-19.83-19.83s-19.83 8.884-19.83 19.83v79.318h-79.318c-10.966 0-19.83 8.884-19.83 19.83s8.864 19.83 19.83 19.83h79.318v79.318c0 10.946 8.864 19.83 19.83 19.83s19.83-8.884 19.83-19.83v-79.318h79.318c10.966 0 19.83-8.884 19.83-19.83s-8.864-19.83-19.83-19.83z" />
    </symbol>
    <symbol viewBox="0 0 24 24" id="price-tag" xmlns="http://www.w3.org/2000/svg">
        <path d="M11.297 4l7.615 1.089L20 12.7l-7.071 7.071a.769.769 0 01-1.088 0L4.225 12.16a.769.769 0 010-1.088zm.544 1.632l-5.984 5.984 6.529 6.527 5.983-5.983-.815-5.712-5.713-.816zm1.631 4.9a1.539 1.539 0 112.177 0 1.539 1.539 0 01-2.177-.004z" />
    </symbol>
    <symbol viewBox="-3 -3 22 22" id="print" xmlns="http://www.w3.org/2000/svg">
        <path d="M2.8 11.9H.7a.7.7 0 01-.7-.7v-7a.7.7 0 01.7-.7h2.1V.7a.7.7 0 01.7-.7h7a.7.7 0 01.7.7v2.8h2.1a.7.7 0 01.7.7v7a.7.7 0 01-.7.7h-2.1v1.4a.7.7 0 01-.7.7h-7a.7.7 0 01-.7-.7zm0-1.4v-.7a.7.7 0 01.7-.7h7a.7.7 0 01.7.7v.7h1.4V4.9H1.4v5.6zm1.4-9.1v2.1h5.6V1.4zm0 9.1v2.1h5.6v-2.1zM2.1 5.6h2.1V7H2.1z" />
    </symbol>
    <symbol viewBox="0 0 15.402 14.648" id="rating" xmlns="http://www.w3.org/2000/svg">
        <defs>
            <style>
                .cja {
                    fill: #f90
                }
            </style>
        </defs>
        <path class="cja" d="M7.701 11.984l-4.759 2.664L4.005 9.3l-4-3.7 5.408-.647L7.701 0l2.285 4.953 5.416.642-4 3.7 1.063 5.35z" />
    </symbol>
    <symbol viewBox="0 0 228.027 244.122" id="report-issue" xmlns="http://www.w3.org/2000/svg">
        <g transform="translate(-.001)" data-name="file (1)">
            <path data-name="Path 5" d="M174.512 239.905a53.516 53.516 0 1153.516-53.516 53.577 53.577 0 01-53.516 53.516zm0-98.8a45.282 45.282 0 1045.284 45.285 45.336 45.336 0 00-45.284-45.283z" />
            <path data-name="Path 6" d="M174.883 210.59a3.887 3.887 0 01-3.886-3.886v-31.086a3.886 3.886 0 017.772 0v31.086a3.887 3.887 0 01-3.886 3.886z" />
            <ellipse data-name="Ellipse 7" cx="4" cy="3.5" rx="4" ry="3.5" transform="translate(170.997 156)" />
            <path data-name="Path 7" d="M110.436 244.123H29.062A29.1 29.1 0 010 215.061V63.937a29.1 29.1 0 0129.062-29.062h23.25a5.813 5.813 0 010 11.625h-23.25a17.459 17.459 0 00-17.437 17.437v151.124a17.459 17.459 0 0017.437 17.437h81.374a5.813 5.813 0 110 11.625z" />
            <path data-name="Path 8" d="M133.687 69.749h-69.75A17.459 17.459 0 0146.5 52.312v-23.25a5.815 5.815 0 015.812-5.812h18.019a29.069 29.069 0 0156.962 0h18.019a5.815 5.815 0 015.812 5.812v23.25a17.459 17.459 0 01-17.437 17.437zM58.125 34.875v17.437a5.822 5.822 0 005.812 5.812h69.75a5.822 5.822 0 005.813-5.812V34.875h-17.438a5.815 5.815 0 01-5.812-5.812 17.438 17.438 0 00-34.875 0 5.815 5.815 0 01-5.812 5.812z" />
            <path data-name="Path 9" d="M156.936 104.624H40.687a5.813 5.813 0 010-11.625h116.249a5.813 5.813 0 110 11.625z" />
            <path data-name="Path 10" d="M122.062 139.499H40.687a5.813 5.813 0 010-11.625h81.375a5.813 5.813 0 010 11.625z" />
            <path data-name="Path 11" d="M98.812 174.373H40.687a5.813 5.813 0 010-11.625h58.125a5.813 5.813 0 010 11.625z" />
            <path data-name="Path 12" d="M191.811 104.624a5.815 5.815 0 01-5.812-5.812V63.937A17.459 17.459 0 00168.561 46.5h-23.25a5.813 5.813 0 110-11.625h23.25a29.1 29.1 0 0129.062 29.062v34.875a5.815 5.815 0 01-5.812 5.812z" />
        </g>
    </symbol>
    <symbol viewBox="0 0 15 14.25" id="reschedule" xmlns="http://www.w3.org/2000/svg">
        <path d="M7.875 0a7 7 0 00-6.15 3.6L0 1.875V6.75h4.875l-2.1-2.1A5.655 5.655 0 112.55 9H.975a7.136 7.136 0 106.9-9zM6.75 3.75v3.825l3.525 2.1.6-.975-3-1.8V3.75z" />
    </symbol>
    <symbol viewBox="0 0 234.872 244.122" id="resolve-issue" xmlns="http://www.w3.org/2000/svg">
        <g data-name="file (1)">
            <path data-name="Path 7" d="M110.436 244.123H29.062A29.1 29.1 0 010 215.061V63.937a29.1 29.1 0 0129.062-29.062h23.25a5.813 5.813 0 010 11.625h-23.25a17.459 17.459 0 00-17.437 17.437v151.124a17.459 17.459 0 0017.437 17.437h81.374a5.813 5.813 0 110 11.625z" />
            <path data-name="Path 8" d="M133.687 69.749h-69.75A17.459 17.459 0 0146.5 52.312v-23.25a5.815 5.815 0 015.812-5.812h18.019a29.069 29.069 0 0156.962 0h18.019a5.815 5.815 0 015.812 5.812v23.25a17.459 17.459 0 01-17.437 17.437zM58.125 34.875v17.437a5.822 5.822 0 005.812 5.812h69.75a5.822 5.822 0 005.813-5.812V34.875h-17.438a5.815 5.815 0 01-5.812-5.812 17.438 17.438 0 00-34.875 0 5.815 5.815 0 01-5.812 5.812z" />
            <path data-name="Path 9" d="M156.936 104.624H40.687a5.813 5.813 0 010-11.625h116.249a5.813 5.813 0 110 11.625z" />
            <path data-name="Path 10" d="M122.062 139.499H40.687a5.813 5.813 0 010-11.625h81.375a5.813 5.813 0 010 11.625z" />
            <path data-name="Path 11" d="M98.812 174.373H40.687a5.813 5.813 0 010-11.625h58.125a5.813 5.813 0 010 11.625z" />
            <path data-name="Path 12" d="M191.811 104.624a5.815 5.815 0 01-5.812-5.812V63.937A17.459 17.459 0 00168.561 46.5h-23.25a5.813 5.813 0 110-11.625h23.25a29.1 29.1 0 0129.062 29.062v34.875a5.815 5.815 0 01-5.812 5.812z" />
            <g data-name="Group 19">
                <g data-name="Group 18">
                    <path data-name="Path 13" d="M181.374 133.686a53.5 53.5 0 1053.5 53.5 53.5 53.5 0 00-53.5-53.5zm0 99.355a45.856 45.856 0 1145.855-45.855 45.856 45.856 0 01-45.855 45.855z" />
                </g>
            </g>
            <g data-name="Group 21">
                <g data-name="Group 20">
                    <path data-name="Path 14" d="M210.73 165.377a3.821 3.821 0 00-5.309 0l-35.512 35.512-12.584-12.584a3.823 3.823 0 10-5.5 5.31q.046.048.094.094l15.286 15.286a3.821 3.821 0 005.4 0l38.214-38.214a3.821 3.821 0 00-.089-5.404z" />
                </g>
            </g>
        </g>
    </symbol>
    <symbol viewBox="0 0 24 24" id="search" xmlns="http://www.w3.org/2000/svg">
        <path d="M18.031 16.617l4.283 4.283-1.414 1.414-4.282-4.283a9 9 0 111.414-1.414zm-2.006-.742a7 7 0 10-.15.15l.15-.15z" />
    </symbol>
    <symbol viewBox="0 0 18 18" id="seat" xmlns="http://www.w3.org/2000/svg">
        <path d="M17.3 8.3h-.76V4.122A4.126 4.126 0 0012.419 0H5.581A4.126 4.126 0 001.46 4.122V8.3H.7A.7.7 0 000 9v5.484a.7.7 0 00.7.7h3.118l-.927 1.785a.703.703 0 001.248.648l1.261-2.43h7.2l1.263 2.433a.703.703 0 001.248-.648l-.927-1.785H17.3a.7.7 0 00.7-.7V9a.7.7 0 00-.7-.7zM2.866 4.122a2.719 2.719 0 012.715-2.716h6.837a2.719 2.719 0 012.715 2.715V8.3h-.65a.7.7 0 00-.7.7v1.969H4.219V9a.7.7 0 00-.7-.7h-.65zm13.728 9.659H1.406V9.7h1.407v1.969a.7.7 0 00.7.7h10.971a.7.7 0 00.7-.7V9.7h1.406z" />
    </symbol>
    <symbol viewBox="0 0 14 11.646" id="seen" xmlns="http://www.w3.org/2000/svg">
        <path d="M7 0a7.12 7.12 0 017 5.823 7.119 7.119 0 01-14 0A7.12 7.12 0 017 0zm0 10.352a5.826 5.826 0 005.679-4.528 5.826 5.826 0 00-11.357 0 5.826 5.826 0 005.679 4.528zm0-1.618a2.912 2.912 0 112.912-2.912A2.912 2.912 0 017 8.735zM7 7.44a1.618 1.618 0 10-1.618-1.617A1.618 1.618 0 007 7.441z" />
    </symbol>
    <symbol viewBox="0 0 30 30" id="settings" xmlns="http://www.w3.org/2000/svg">
        <path fill="none" d="M0 0h30v30H0z" />
        <path d="M23.977 12.9l-1.4-.237a7.928 7.928 0 00-.564-1.362l.827-1.158a1.232 1.232 0 00-.14-1.591l-1.243-1.245a1.227 1.227 0 00-.873-.363 1.214 1.214 0 00-.714.23L18.708 8a7.847 7.847 0 00-1.408-.581l-.234-1.388A1.234 1.234 0 0015.842 5h-1.759a1.234 1.234 0 00-1.22 1.032l-.242 1.421a7.728 7.728 0 00-1.358.572L10.114 7.2a1.234 1.234 0 00-1.592.134L7.274 8.576a1.237 1.237 0 00-.134 1.592l.836 1.174a7.732 7.732 0 00-.556 1.366l-1.388.234A1.234 1.234 0 005 14.162v1.759a1.234 1.234 0 001.032 1.22l1.42.242a7.736 7.736 0 00.572 1.358L7.2 19.886a1.232 1.232 0 00.134 1.592l1.246 1.245a1.228 1.228 0 001.588.134l1.174-.836a7.9 7.9 0 001.321.543l.233 1.4A1.234 1.234 0 0014.116 25h1.763a1.234 1.234 0 001.22-1.032l.238-1.4A7.92 7.92 0 0018.7 22l1.158.827a1.227 1.227 0 00.719.23 1.226 1.226 0 00.873-.363l1.245-1.245a1.237 1.237 0 00.134-1.592L22 18.7a7.872 7.872 0 00.564-1.362l1.4-.234A1.234 1.234 0 0025 15.879V14.12a1.219 1.219 0 00-1.023-1.22zm-.1 2.979a.108.108 0 01-.092.109l-1.755.292a.561.561 0 00-.451.414 6.69 6.69 0 01-.727 1.751.565.565 0 00.025.614l1.032 1.454a.114.114 0 01-.013.142L20.654 21.9a.105.105 0 01-.079.033.1.1 0 01-.063-.021l-1.45-1.032a.565.565 0 00-.614-.025 6.688 6.688 0 01-1.751.727.555.555 0 00-.413.451l-.3 1.755a.108.108 0 01-.109.092h-1.754a.108.108 0 01-.109-.092l-.292-1.755a.561.561 0 00-.414-.451 6.946 6.946 0 01-1.713-.7.578.578 0 00-.284-.075.55.55 0 00-.326.105l-1.462 1.04a.124.124 0 01-.063.021.112.112 0 01-.079-.033l-1.246-1.247a.113.113 0 01-.012-.142l1.027-1.441a.572.572 0 00.025-.618 6.625 6.625 0 01-.735-1.747.572.572 0 00-.451-.414l-1.767-.3a.108.108 0 01-.092-.109v-1.76a.108.108 0 01.092-.11l1.742-.292a.565.565 0 00.455-.418 6.678 6.678 0 01.715-1.753.558.558 0 00-.032-.61L8.063 9.517a.114.114 0 01.012-.142L9.32 8.129A.107.107 0 019.4 8.1a.1.1 0 01.063.021L10.9 9.145a.572.572 0 00.618.025 6.626 6.626 0 011.747-.735.572.572 0 00.414-.451l.3-1.767a.108.108 0 01.109-.092h1.759a.108.108 0 01.109.092l.292 1.742a.565.565 0 00.418.455 6.78 6.78 0 011.792.735.565.565 0 00.614-.025l1.441-1.036a.124.124 0 01.063-.021.112.112 0 01.079.033l1.244 1.245a.113.113 0 01.013.142l-1.032 1.45a.565.565 0 00-.025.614 6.689 6.689 0 01.727 1.751.555.555 0 00.45.414l1.755.3a.108.108 0 01.092.109v1.755z" />
        <path d="M15.002 10.682a4.316 4.316 0 104.316 4.316 4.316 4.316 0 00-4.316-4.316zm0 7.5a3.188 3.188 0 113.188-3.188 3.188 3.188 0 01-3.188 3.188z" />
    </symbol>
    <symbol viewBox="0 0 227.216 227.216" id="share" xmlns="http://www.w3.org/2000/svg">
        <path d="M175.897 141.476c-13.249 0-25.11 6.044-32.98 15.518l-51.194-29.066a42.671 42.671 0 002.467-14.317 42.67 42.67 0 00-2.467-14.316l51.19-29.073c7.869 9.477 19.732 15.523 32.982 15.523 23.634 0 42.862-19.235 42.862-42.879C218.759 19.229 199.531 0 175.897 0 152.26 0 133.03 19.229 133.03 42.865c0 5.02.874 9.838 2.467 14.319L84.304 86.258c-7.869-9.472-19.729-15.514-32.975-15.514-23.64 0-42.873 19.229-42.873 42.866 0 23.636 19.233 42.865 42.873 42.865 13.246 0 25.105-6.042 32.974-15.513l51.194 29.067a42.67 42.67 0 00-2.468 14.321c0 23.636 19.23 42.865 42.867 42.865 23.634 0 42.862-19.23 42.862-42.865.001-23.64-19.227-42.874-42.861-42.874zm0-126.476c15.363 0 27.862 12.5 27.862 27.865 0 15.373-12.499 27.879-27.862 27.879-15.366 0-27.867-12.506-27.867-27.879C148.03 27.5 160.531 15 175.897 15zM51.33 141.476c-15.369 0-27.873-12.501-27.873-27.865 0-15.366 12.504-27.866 27.873-27.866 15.363 0 27.861 12.5 27.861 27.866 0 15.364-12.499 27.865-27.861 27.865zm124.567 70.74c-15.366 0-27.867-12.501-27.867-27.865 0-15.37 12.501-27.875 27.867-27.875 15.363 0 27.862 12.505 27.862 27.875 0 15.364-12.499 27.865-27.862 27.865z" />
    </symbol>
    <symbol viewBox="0 0 40 40" id="stats" xmlns="http://www.w3.org/2000/svg">
        <path d="M23.968 22.592h-2.222a1.111 1.111 0 000 2.222h1.111a1.111 1.111 0 102.222 0v-.2a3.325 3.325 0 00-1.111-6.462 1.111 1.111 0 010-2.222h2.222a1.111 1.111 0 000-2.222h-1.111a1.111 1.111 0 10-2.222 0v.2a3.325 3.325 0 001.111 6.462 1.111 1.111 0 010 2.222z" />
        <path d="M36.582 29.328a2.485 2.485 0 00.085-.474c0-2.88-2.174-6.6-2.746-7.532-.027-6.266-1.14-10.833-5.718-12.4.209-.653.586-1.522.936-2.324a12.477 12.477 0 001.307-3.955A2.511 2.511 0 0027.8 0a1.9 1.9 0 00-1.93 1.075l-.038-.044A2.7 2.7 0 0023.561 0c-1.526 0-2.516 1.329-3 2.418a3.413 3.413 0 00-2.106.723 1.763 1.763 0 00-.571 1.322 6.49 6.49 0 001.281 2.924 15.524 15.524 0 01.89 1.567c-4.516 1.586-5.62 6.136-5.646 12.368a26.852 26.852 0 00-1.52 2.906 18.389 18.389 0 00-3.2.576 2.5 2.5 0 00-1.905-1.764L1 21.683a.833.833 0 00-1 .817v13.333a.833.833 0 00.833.833h5.222a2.486 2.486 0 002.282-1.574C10.2 35.982 18.832 40 22.5 40c3.232 0 9.885-3.271 14.287-5.435 1.149-.565 2.1-1.032 2.715-1.3A.834.834 0 0040 32.5c0-1.585-1.353-2.769-3.418-3.172zM8.119 25.61l-1.24 8.675a.837.837 0 01-.824.715H1.667V23.516l5.79 1.158a.834.834 0 01.662.936zM19.593 4.363a2.653 2.653 0 011.489-.278.813.813 0 00.855-.588c.147-.474.76-1.83 1.624-1.83a1.083 1.083 0 011.019.469 1.781 1.781 0 001.4.741 1.4 1.4 0 001.344-.977 1.231 1.231 0 01.082-.173.806.806 0 01.391-.058.86.86 0 01.982.981 13.354 13.354 0 01-1.167 3.288 25.332 25.332 0 00-1.026 2.592 15.038 15.038 0 00-4.9.008 13.411 13.411 0 00-1.106-2.031 5.406 5.406 0 01-.987-2.144zm-3.647 17.65a.836.836 0 00.133-.451C16.078 13.026 18.195 10 24.167 10s8.088 3.026 8.088 11.563a.837.837 0 00.133.452c.026.04 2.612 4.085 2.612 6.839a.854.854 0 01-.062.315 34.555 34.555 0 00-6.648 1.4c-.227-2.392-3.291-3.238-6.458-3.881a14.309 14.309 0 01-3.56-1.313 9.986 9.986 0 00-3.542-1.154 24.566 24.566 0 011.216-2.208zM36.051 33.07c-4 1.969-10.706 5.264-13.551 5.264-3.031 0-10.991-3.549-13.8-4.916h-.01l.981-6.867a16.009 16.009 0 014.5-.714 7.519 7.519 0 013.382 1.038 15.908 15.908 0 003.947 1.442c3.621.734 5.166 1.487 5.166 2.516a.493.493 0 01-.221.447c-.527.4-2.6 1.062-10.376-1.246a.833.833 0 10-.474 1.6 33.781 33.781 0 008.853 1.7 5 5 0 002.993-.722c.056-.041.1-.092.147-.137a.8.8 0 00.155-.015A39.2 39.2 0 0135 30.833c1.359 0 2.789.413 3.21 1.188-.581.274-1.318.636-2.159 1.049z" />
    </symbol>
    <symbol viewBox="0 0 32 43.323" id="stats_1" xmlns="http://www.w3.org/2000/svg">
        <path class="cta" d="M4.937 15.887a.709.709 0 01.708-.708h16.876a.708.708 0 010 1.416H5.645a.708.708 0 01-.708-.708zm.708 6.846h16.876a.708.708 0 000-1.416H5.645a.708.708 0 100 1.416zm7.3 4.719h-7.3a.708.708 0 100 1.416h7.3a.708.708 0 100-1.416zm-.944 6.138H5.646a.708.708 0 100 1.416h6.352a.708.708 0 100-1.416zm20 .824a8.895 8.895 0 01-14.877 6.6H.708A.71.71 0 010 40.306V7.183a.708.708 0 01.708-.708h5.98V4.529a.708.708 0 01.708-.708h2.9v-.035a3.787 3.787 0 017.573 0v.034h2.9a.709.709 0 01.708.708v1.946h5.979a.708.708 0 01.708.708V27.1A8.9 8.9 0 0132 34.413zM8.105 8.705h11.958V5.238h-3a.708.708 0 01-.687-.882 2.277 2.277 0 00.08-.57 2.371 2.371 0 10-4.662.573.707.707 0 01-.687.879h-3zM1.416 39.594h14.441A8.894 8.894 0 0126.749 26.3V7.889h-5.274v1.522a.709.709 0 01-.708.708H7.395a.709.709 0 01-.708-.708V7.889H1.415v31.7zm29.168-5.181a7.493 7.493 0 10-7.493 7.493 7.5 7.5 0 007.493-7.493zm-3.588-2.951l-4.337 4.159-2.934-2.346a.708.708 0 00-.885 1.106l3.419 2.736a.712.712 0 00.442.152.7.7 0 00.49-.2l4.784-4.585a.707.707 0 00-.978-1.022z" />
    </symbol>
    <symbol viewBox="0 0 36 36.001" id="stats_2" xmlns="http://www.w3.org/2000/svg">
        <path class="cua" d="M34.364 18.151v-5.06a3.266 3.266 0 00-3.012-3.246l-4.7-8.207a3.238 3.238 0 00-4.442-1.2L6.097 9.819H3.273a3.276 3.276 0 00-3.276 3.273v19.636A3.276 3.276 0 003.273 36h27.818a3.276 3.276 0 003.273-3.273v-5.06a2.451 2.451 0 001.633-2.303v-4.909a2.451 2.451 0 00-1.633-2.304zm-11.33-16.3a1.583 1.583 0 011.215-.164 1.6 1.6 0 01.983.76l1.594 2.785a5.617 5.617 0 01-2.281.492 5.637 5.637 0 01-4.448-2.159zm-4.358 2.541a7.218 7.218 0 008.962 2.261l1.812 3.166H9.354zm14.051 28.336a1.638 1.638 0 01-1.636 1.636H3.273a1.638 1.638 0 01-1.636-1.636V13.092a1.638 1.638 0 011.636-1.636h27.818a1.638 1.638 0 011.636 1.636V18h-4.909a4.909 4.909 0 100 9.818h4.909zm1.636-7.364a.819.819 0 01-.818.818h-5.727a3.273 3.273 0 110-6.545h5.727a.819.819 0 01.818.818z" />
        <path d="M27.655 20.919a1.909 1.909 0 101.909 1.909 1.912 1.912 0 00-1.909-1.909z" />
    </symbol>
    <symbol viewBox="0 0 30 30" id="students" xmlns="http://www.w3.org/2000/svg">
        <path fill="none" d="M0 0h30v30H0z" />
        <path d="M21.07 14.767h-1.957a2.922 2.922 0 00-.77.1 2.932 2.932 0 00-2.612-1.606H12.27a2.932 2.932 0 00-2.612 1.606 2.922 2.922 0 00-.77-.1H6.93A2.933 2.933 0 004 17.697v3.13a1.76 1.76 0 001.758 1.757h16.484A1.76 1.76 0 0024 20.826v-3.13a2.933 2.933 0 00-2.93-2.929zM9.34 16.194v5.218H5.758a.587.587 0 01-.586-.586v-3.13a1.76 1.76 0 011.758-1.758h1.957a1.753 1.753 0 01.46.061c-.004.065-.007.13-.007.195zm8.148 5.218h-6.976v-5.218a1.76 1.76 0 011.758-1.758h3.46a1.76 1.76 0 011.758 1.758zm5.34-.586a.587.587 0 01-.586.586H18.66v-5.218c0-.065 0-.13-.007-.194a1.754 1.754 0 01.46-.061h1.957a1.76 1.76 0 011.758 1.758z" />
        <path d="M7.908 9.229a2.6 2.6 0 102.6 2.6 2.606 2.606 0 00-2.6-2.6zm0 4.035a1.431 1.431 0 111.431-1.431 1.433 1.433 0 01-1.431 1.435zM14 6a3.478 3.478 0 103.478 3.478A3.482 3.482 0 0014 6zm0 5.784a2.306 2.306 0 112.306-2.306A2.309 2.309 0 0114 11.784zM20.094 9.229a2.6 2.6 0 102.6 2.6 2.606 2.606 0 00-2.6-2.6zm0 4.035a1.431 1.431 0 111.431-1.431 1.433 1.433 0 01-1.431 1.435z" />
    </symbol>
    <symbol viewBox="0 0 18 18" id="tag" xmlns="http://www.w3.org/2000/svg">
        <path d="M17.357 0h-7.072a.643.643 0 00-.454.188L.188 9.831a.643.643 0 000 .909l7.071 7.071a.643.643 0 00.909 0l9.643-9.643A.643.643 0 0018 7.714V.643A.643.643 0 0017.357 0zm-.643 7.448l-9 9-6.163-6.162 9-9h6.162z" />
        <path d="M13.57 2.532a1.9 1.9 0 101.9 1.9 1.9 1.9 0 00-1.9-1.9zm0 2.532a.633.633 0 11.633-.633.633.633 0 01-.633.634z" />
    </symbol>
    <symbol viewBox="0 0 36 36" id="target" xmlns="http://www.w3.org/2000/svg">
        <path d="M18.619 1.241a17.3 17.3 0 00-5.9 1.033l.243.243a3.169 3.169 0 01.877 2.805l-.554 3.059a11.557 11.557 0 11-4.9 4.9l-3.059.554a3.181 3.181 0 01-.565.051 3.147 3.147 0 01-2.24-.928l-.243-.243A17.381 17.381 0 1018.619 1.241z" />
        <path d="M18.619 19.676a1.053 1.053 0 01-.747-.309l-2.439-2.439a3.611 3.611 0 101.493-1.493l2.439 2.439a1.056 1.056 0 01-.747 1.8z" />
        <path d="M11.244 12.738a9.449 9.449 0 101.493-1.493l2.655 2.655a5.727 5.727 0 11-1.493 1.493zM11.758 4.944a1.056 1.056 0 00-.292-.935l-3.7-3.7A1.056 1.056 0 006.03.687l-1.045 2.8 5.956 5.956zM4.755 11.777a1.06 1.06 0 00.188-.017l4.5-.817-5.951-5.957-2.8 1.045a1.056 1.056 0 00-.378 1.736l3.7 3.7a1.056 1.056 0 00.741.31z" />
    </symbol>
    <symbol viewBox="0 0 50 43.626" id="teacher" xmlns="http://www.w3.org/2000/svg">
        <g transform="translate(0 -32.631)">
            <circle cx="8.699" cy="8.699" r="8.699" transform="translate(16.12 32.631)" />
            <ellipse cx="5.036" cy="5.494" rx="5.036" ry="5.494" transform="translate(37.18 39.041)" />
            <circle cx="5.494" cy="5.494" r="5.494" transform="translate(2.384 39.041)" />
            <path d="M13.1 54.446c-2.114-1.732-4.029-1.5-6.474-1.5A6.619 6.619 0 000 59.534v10.665a2.87 2.87 0 002.872 2.861c6.838 0 6.015.124 6.015-.295 0-7.56-.895-13.099 4.213-18.319z" />
            <path d="M27.325 52.982c-4.27-.356-7.981 0-11.183 2.646-5.357 4.291-4.326 10.069-4.326 17.137a3.426 3.426 0 003.42 3.42c20.613 0 21.434.665 22.656-2.042.4-.915.291-.625.291-9.382 0-6.955-6.022-11.779-10.858-11.779zM43.37 52.943c-2.458 0-4.362-.227-6.474 1.5 5.075 5.181 4.218 10.345 4.218 18.319 0 .421-.684.295 5.912.295a2.972 2.972 0 002.975-2.963v-10.56a6.619 6.619 0 00-6.631-6.591z" />
        </g>
    </symbol>
    <symbol viewBox="0 0 480.56 480.56" id="telephone" xmlns="http://www.w3.org/2000/svg">
        <path d="M365.354 317.9c-15.7-15.5-35.3-15.5-50.9 0-11.9 11.8-23.8 23.6-35.5 35.6-3.2 3.3-5.9 4-9.8 1.8-7.7-4.2-15.9-7.6-23.3-12.2-34.5-21.7-63.4-49.6-89-81-12.7-15.6-24-32.3-31.9-51.1-1.6-3.8-1.3-6.3 1.8-9.4 11.9-11.5 23.5-23.3 35.2-35.1 16.3-16.4 16.3-35.6-.1-52.1-9.3-9.4-18.6-18.6-27.9-28-9.6-9.6-19.1-19.3-28.8-28.8-15.7-15.3-35.3-15.3-50.9.1-12 11.8-23.5 23.9-35.7 35.5-11.3 10.7-17 23.8-18.2 39.1-1.9 24.9 4.2 48.4 12.8 71.3 17.6 47.4 44.4 89.5 76.9 128.1 43.9 52.2 96.3 93.5 157.6 123.3 27.6 13.4 56.2 23.7 87.3 25.4 21.4 1.2 40-4.2 54.9-20.9 10.2-11.4 21.7-21.8 32.5-32.7 16-16.2 16.1-35.8.2-51.8-19-19.1-38.1-38.1-57.2-57.1zM346.254 238.2l36.9-6.3c-5.8-33.9-21.8-64.6-46.1-89-25.7-25.7-58.2-41.9-94-46.9l-5.2 37.1c27.7 3.9 52.9 16.4 72.8 36.3 18.8 18.8 31.1 42.6 35.6 68.8zM403.954 77.8c-42.6-42.6-96.5-69.5-156-77.8l-5.2 37.1c51.4 7.2 98 30.5 134.8 67.2 34.9 34.9 57.8 79 66.1 127.5l36.9-6.3c-9.7-56.2-36.2-107.2-76.6-147.7z" />
    </symbol>
    <symbol viewBox="0 0 60 60" id="tick" xmlns="http://www.w3.org/2000/svg">
        <defs>
            <style>
                .daa {
                    fill: #fff
                }
            </style>
        </defs>
        <path class="daa" d="M44.982 20.138a2.432 2.432 0 00-3.439-.091L26.015 34.774l-7.407-7.6a2.432 2.432 0 00-3.485 3.394l9.081 9.324a2.433 2.433 0 003.417.068l17.27-16.378a2.432 2.432 0 00.091-3.444z" />
        <path class="daa" d="M30 0a30 30 0 1030 30A30.034 30.034 0 0030 0zm0 55.135A25.135 25.135 0 1155.135 30 25.164 25.164 0 0130 55.135z" />
    </symbol>
    <symbol viewBox="0 0 50 50" id="translater" xmlns="http://www.w3.org/2000/svg">
        <path d="M34.191 39.066h2.826l-1.407-3.728z" />
        <path d="M47.315 23.145h-11.67v.244a5.622 5.622 0 01-5.615 5.615h-8.841v14.1l-4.395 4.395a1.465 1.465 0 001.036 2.5h29.482a2.686 2.686 0 002.686-2.686V25.831a2.686 2.686 0 00-2.683-2.686zM40.74 44.779a1.463 1.463 0 01-1.888-.853l-.728-1.93h-5.048l-.737 1.934a1.465 1.465 0 01-2.738-1.043l4.4-11.554.013-.033a1.724 1.724 0 011.6-1.075 1.724 1.724 0 011.6 1.072l.016.04 4.36 11.554a1.465 1.465 0 01-.853 1.888zM18.667 11.084h-4.619a8.289 8.289 0 002.309 4.409 8.288 8.288 0 002.31-4.409z" />
        <path d="M30.029 26.074a2.686 2.686 0 002.686-2.686V2.686A2.686 2.686 0 0030.029 0H2.686A2.686 2.686 0 000 2.686v27.878a1.465 1.465 0 002.429 1.1l6.391-5.59zm-18.947-14.99H10.5a1.465 1.465 0 110-2.93h4.395V6.689a1.465 1.465 0 112.93 0v1.465h4.395a1.465 1.465 0 110 2.93h-.584a11.2 11.2 0 01-2.837 6.1 8.249 8.249 0 003.421.741 1.465 1.465 0 110 2.93 11.163 11.163 0 01-5.863-1.655 11.163 11.163 0 01-5.857 1.65 1.465 1.465 0 110-2.93 8.249 8.249 0 003.421-.741 11.2 11.2 0 01-2.839-6.095zM11.328 41.113H6.934v-4.395a1.465 1.465 0 00-2.93 0v5.859a1.465 1.465 0 001.465 1.465h5.859a1.465 1.465 0 100-2.93zM38.672 8.887h4.395v4.395a1.465 1.465 0 102.93 0v-5.86a1.465 1.465 0 00-1.466-1.465h-5.859a1.465 1.465 0 000 2.93z" />
    </symbol>
    <symbol viewBox="0 0 172.541 172.541" id="trash" xmlns="http://www.w3.org/2000/svg">
        <path d="M166.797 25.078h-43.643V0H49.388v25.078H5.744v15H20.55l10 132.463h111.443l10-132.463h14.805v-15zM64.388 15h43.766v10.078H64.388V15zm63.695 142.541H44.46L35.592 40.078H136.95l-8.867 117.463z" />
        <path d="M80.271 65.693h12v66.232h-12zM57.271 65.693h12v66.232h-12zM103.271 65.693h12v66.232h-12z" />
    </symbol>
    <symbol viewBox="0 0 24 24" id="twitter" xmlns="http://www.w3.org/2000/svg">
        <path d="M8 2H1L9.26086 13.0145L1.44995 21.9999H4.09998L10.4883 14.651L16 22H23L14.3917 10.5223L21.8001 2H19.1501L13.1643 8.88578L8 2ZM17 20L5 4H7L19 20H17Z"></path>
    </symbol>
    <symbol viewBox="0 0 72 72" id="unlock" xmlns="http://www.w3.org/2000/svg">
        <path d="M57.429 28.858H25.286V18.432a11.227 11.227 0 018.571-11.145 10.963 10.963 0 0112.857 10.785 3.572 3.572 0 107.143 0A17.98 17.98 0 0034.214.1c-9.285 1.075-16.071 9.344-16.071 18.691v10.067h-3.572A3.59 3.59 0 0011 32.453V68.4a3.854 3.854 0 003.571 3.6h42.858A3.591 3.591 0 0061 68.4V32.453a3.385 3.385 0 00-3.571-3.595zM39.571 52.945v4.674A3.385 3.385 0 0136 61.214a3.385 3.385 0 01-3.572-3.6v-4.669a7.424 7.424 0 01-3.571-6.112A7.086 7.086 0 0137.786 40a8.077 8.077 0 015.357 5.4 7.015 7.015 0 01-3.572 7.545z" />
    </symbol>
    <symbol viewBox="0 0 492 492" id="up-arrow" xmlns="http://www.w3.org/2000/svg">
        <path d="M442.627 185.388L265.083 7.844C260.019 2.78 253.263 0 245.915 0c-7.204 0-13.956 2.78-19.02 7.844L49.347 185.388c-10.488 10.492-10.488 27.568 0 38.052l16.12 16.128c5.064 5.06 11.82 7.844 19.028 7.844 7.204 0 14.192-2.784 19.252-7.844l103.808-103.584v329.084c0 14.832 11.616 26.932 26.448 26.932h22.8c14.832 0 27.624-12.1 27.624-26.932V134.816l104.396 104.752c5.06 5.06 11.636 7.844 18.844 7.844s13.864-2.784 18.932-7.844l16.072-16.128c10.492-10.488 10.452-27.56-.044-38.052z" />
    </symbol>
    <symbol viewBox="-100 -100 750 750" id="user">
        <path d="M437.02 330.98c-27.883-27.882-61.071-48.523-97.281-61.018C378.521 243.251 404 198.548 404 148 404 66.393 337.607 0 256 0S108 66.393 108 148c0 50.548 25.479 95.251 64.262 121.962-36.21 12.495-69.398 33.136-97.281 61.018C26.629 379.333 0 443.62 0 512h40c0-119.103 96.897-216 216-216s216 96.897 216 216h40c0-68.38-26.629-132.667-74.98-181.02zM256 256c-59.551 0-108-48.448-108-108S196.449 40 256 40s108 48.448 108 108-48.449 108-108 108z" />
    </symbol>
    <symbol viewBox="0 0 22 13.109" id="video-camera" xmlns="http://www.w3.org/2000/svg">
        <path d="M12.753 0H1.372A1.458 1.458 0 000 1.528v10.054a1.458 1.458 0 001.372 1.528h11.381a1.458 1.458 0 001.372-1.528V1.528A1.458 1.458 0 0012.753 0zm0 0M15.404 8.478l6.6 2.627V2.046l-6.6 2.627zm0 0" />
    </symbol>
    <symbol viewBox="0 0 511.999 511.999" id="view">
        <path d="M508.745 246.041c-4.574-6.257-113.557-153.206-252.748-153.206S7.818 239.784 3.249 246.035a16.896 16.896 0 000 19.923c4.569 6.257 113.557 153.206 252.748 153.206s248.174-146.95 252.748-153.201a16.875 16.875 0 000-19.922zM255.997 385.406c-102.529 0-191.33-97.533-217.617-129.418 26.253-31.913 114.868-129.395 217.617-129.395 102.524 0 191.319 97.516 217.617 129.418-26.253 31.912-114.868 129.395-217.617 129.395z" />
        <path d="M255.997 154.725c-55.842 0-101.275 45.433-101.275 101.275s45.433 101.275 101.275 101.275S357.272 311.842 357.272 256s-45.433-101.275-101.275-101.275zm0 168.791c-37.23 0-67.516-30.287-67.516-67.516s30.287-67.516 67.516-67.516 67.516 30.287 67.516 67.516-30.286 67.516-67.516 67.516z" />
    </symbol>
    <symbol viewBox="0 0 234.995 244.122" id="view-report" xmlns="http://www.w3.org/2000/svg">
        <path data-name="Path 7" d="M110.436 244.123H29.062A29.1 29.1 0 010 215.061V63.937a29.1 29.1 0 0129.062-29.062h23.25a5.813 5.813 0 010 11.625h-23.25a17.459 17.459 0 00-17.437 17.437v151.124a17.459 17.459 0 0017.437 17.437h81.374a5.813 5.813 0 110 11.625z" />
        <path data-name="Path 8" d="M133.687 69.749h-69.75A17.459 17.459 0 0146.5 52.312v-23.25a5.815 5.815 0 015.812-5.812h18.019a29.069 29.069 0 0156.962 0h18.019a5.815 5.815 0 015.812 5.812v23.25a17.459 17.459 0 01-17.437 17.437zM58.125 34.875v17.437a5.822 5.822 0 005.812 5.812h69.75a5.822 5.822 0 005.813-5.812V34.875h-17.438a5.815 5.815 0 01-5.812-5.812 17.438 17.438 0 00-34.875 0 5.815 5.815 0 01-5.812 5.812z" />
        <path data-name="Path 9" d="M156.936 104.624H40.687a5.813 5.813 0 010-11.625h116.249a5.813 5.813 0 110 11.625z" />
        <path data-name="Path 10" d="M122.062 139.499H40.687a5.813 5.813 0 010-11.625h81.375a5.813 5.813 0 010 11.625z" />
        <path data-name="Path 11" d="M98.812 174.373H40.687a5.813 5.813 0 010-11.625h58.125a5.813 5.813 0 010 11.625z" />
        <path data-name="Path 12" d="M191.811 104.624a5.815 5.815 0 01-5.812-5.812V63.937A17.459 17.459 0 00168.561 46.5h-23.25a5.813 5.813 0 110-11.625h23.25a29.1 29.1 0 0129.062 29.062v34.875a5.815 5.815 0 01-5.812 5.812z" />
        <g data-name="Group 19">
            <g data-name="Group 18">
                <path data-name="Path 13" d="M181.497 134a53.5 53.5 0 1053.5 53.5 53.5 53.5 0 00-53.5-53.5zm0 99.355a45.856 45.856 0 1145.855-45.855 45.856 45.856 0 01-45.855 45.855z" />
            </g>
        </g>
        <g data-name="Group 23">
            <g data-name="Group 22">
                <path data-name="Path 15" d="M216.709 185.596c-.645-.882-16.007-21.6-35.627-21.6s-34.985 20.718-35.627 21.599a2.382 2.382 0 000 2.808c.644.882 16.007 21.6 35.627 21.6s34.982-20.714 35.627-21.595a2.379 2.379 0 000-2.812zm-35.627 19.644c-14.452 0-26.97-13.748-30.675-18.243 3.7-4.5 16.192-18.239 30.675-18.239 14.452 0 26.968 13.746 30.675 18.243-3.701 4.498-16.192 18.239-30.675 18.239z" />
            </g>
        </g>
        <g data-name="Group 25">
            <g data-name="Group 24">
                <path data-name="Path 16" d="M181.084 172.724a14.276 14.276 0 1014.273 14.275 14.292 14.292 0 00-14.273-14.275zm0 23.792a9.517 9.517 0 119.514-9.517 9.528 9.528 0 01-9.514 9.517z" />
            </g>
        </g>
    </symbol>
    <symbol viewBox="0 0 30 30" id="wallet" xmlns="http://www.w3.org/2000/svg">
        <path fill="none" d="M0 0h30v30H0z" />
        <path d="M18.764 19.337v-4.3h6.237v4.3zm5.161-3.226h-4.086v2.151h4.086zM18.118 7.72l-3.226 2.151h-1.936L14.462 8.8l-1.29-1.29-2.581 2.366H8.656l4.253-3.736a.44.44 0 01.643 0l1.84 1.924 2.8-1.691a.443.443 0 01.621.174l1.884 3.329h-1.503z" />
        <path d="M23.065 14.175V10.95H6.075v12.473h16.99v-3.225h1.075v4.3H5V9.875h19.14v4.3z" />
    </symbol>
    <symbol viewBox="0 0 20 18.499" id="wallet-large" xmlns="http://www.w3.org/2000/svg">
        <path d="M13.764 13.337v-4.3h6.237v4.3zm5.161-3.226h-4.086v2.151h4.086zM13.118 1.72L9.892 3.871H7.956L9.462 2.8l-1.29-1.29-2.581 2.366H3.656L7.909.14a.44.44 0 01.643 0l1.84 1.924 2.8-1.691a.443.443 0 01.621.174l1.884 3.329h-1.503z" fill="#30302e" fill-rule="evenodd" />
        <path d="M18.065 8.175V4.95H1.075v12.473h16.99v-3.225h1.075v4.3H0V3.875h19.14v4.3z" />
    </symbol>
    <symbol viewBox="0 0 512 512" id="withdraw" xmlns="http://www.w3.org/2000/svg">
        <path d="M312.942 424.774L276 461.28V276c0-11.046-8.954-20-20-20s-20 8.954-20 20v183.303l-34.942-34.529c-7.857-7.764-20.52-7.688-28.284.168-7.764 7.857-7.688 20.52.168 28.284l41.589 41.098C225.878 505.724 240.955 512 257 512s31.122-6.276 42.469-17.676l41.589-41.098c7.856-7.764 7.932-20.427.168-28.284-7.765-7.857-20.427-7.933-28.284-.168zM492 276c-11.046 0-20 8.954-20 20 0 22.056-17.944 40-40 40h-96c-11.046 0-20 8.954-20 20s8.954 20 20 20h96c44.112 0 80-35.888 80-80 0-11.046-8.954-20-20-20z" />
        <path d="M311.172 253.815a19.898 19.898 0 0010.809 3.187c6.573 0 13.011-3.237 16.834-9.174C350.712 229.354 357 208.277 357 186.878c0-59.551-45.309-108-101-108s-101 48.449-101 108c0 22.906 5.798 43.438 17.233 61.024 6.021 9.26 18.41 11.886 27.669 5.865 9.26-6.021 11.886-18.409 5.865-27.669-7.144-10.989-10.767-24.183-10.767-39.22 0-37.495 27.364-68 61-68s61 30.505 61 68c0 13.702-4.085 27.29-11.815 39.293-5.98 9.288-3.3 21.664 5.987 27.644z" />
        <circle cx="415" cy="187" r="20" />
        <circle cx="97" cy="187" r="20" />
        <path d="M432 0H80C35.888 0 0 35.888 0 80v216c0 44.112 35.888 80 80 80h96c11.046 0 20-8.954 20-20s-8.954-20-20-20H80c-22.056 0-40-17.944-40-40V80c0-22.056 17.944-40 40-40h352c22.056 0 40 17.944 40 40v116c0 11.046 8.954 20 20 20s20-8.954 20-20V80c0-44.112-35.888-80-80-80z" />
    </symbol>
    <symbol id="youtube" xmlns="http://www.w3.org/2000/svg" viewBox="0 0 24 24">
        <path d="M21.543 6.498C22 8.28 22 12 22 12s0 3.72-.457 5.502c-.254.985-.997 1.76-1.938 2.022C17.896 20 12 20 12 20s-5.893 0-7.605-.476c-.945-.266-1.687-1.04-1.938-2.022C2 15.72 2 12 2 12s0-3.72.457-5.502c.254-.985.997-1.76 1.938-2.022C6.107 4 12 4 12 4s5.896 0 7.605.476c.945.266 1.687 1.04 1.938 2.022zM10 15.5l6-3.5-6-3.5v7z" />
    </symbol>
    <symbol id="skype" xmlns="http://www.w3.org/2000/svg" viewBox="0 0 24 24">
        <path d="M13.31 20.4a8.5 8.5 0 0 1-9.71-9.71 5.25 5.25 0 0 1 7.09-7.09 8.5 8.5 0 0 1 9.71 9.71 5.25 5.25 0 0 1-7.09 7.09zm-1.258-3.244h-.04c2.872 0 4.303-1.386 4.303-3.243 0-1.198-.551-2.471-2.726-2.958l-1.983-.44c-.755-.172-1.622-.4-1.622-1.115s.62-1.213 1.724-1.213c2.23 0 2.027 1.528 3.131 1.528.576 0 1.093-.342 1.093-.93 0-1.37-2.197-2.4-4.056-2.4-2.021 0-4.173.859-4.173 3.144 0 1.098.394 2.27 2.56 2.813l2.689.671c.816.202 1.018.659 1.018 1.072 0 .687-.684 1.358-1.918 1.358-2.417 0-2.078-1.857-3.374-1.857-.58 0-1.003.398-1.003.971 0 1.114 1.352 2.598 4.377 2.598z" />
    </symbol>
    <symbol id="instagram" xmlns="http://www.w3.org/2000/svg" viewBox="0 0 24 24">
        <path d="M12 2c2.717 0 3.056.01 4.122.06 1.065.05 1.79.217 2.428.465.66.254 1.216.598 1.772 1.153a4.908 4.908 0 0 1 1.153 1.772c.247.637.415 1.363.465 2.428.047 1.066.06 1.405.06 4.122 0 2.717-.01 3.056-.06 4.122-.05 1.065-.218 1.79-.465 2.428a4.883 4.883 0 0 1-1.153 1.772 4.915 4.915 0 0 1-1.772 1.153c-.637.247-1.363.415-2.428.465-1.066.047-1.405.06-4.122.06-2.717 0-3.056-.01-4.122-.06-1.065-.05-1.79-.218-2.428-.465a4.89 4.89 0 0 1-1.772-1.153 4.904 4.904 0 0 1-1.153-1.772c-.248-.637-.415-1.363-.465-2.428C2.013 15.056 2 14.717 2 12c0-2.717.01-3.056.06-4.122.05-1.066.217-1.79.465-2.428a4.88 4.88 0 0 1 1.153-1.772A4.897 4.897 0 0 1 5.45 2.525c.638-.248 1.362-.415 2.428-.465C8.944 2.013 9.283 2 12 2zm0 5a5 5 0 1 0 0 10 5 5 0 0 0 0-10zm6.5-.25a1.25 1.25 0 0 0-2.5 0 1.25 1.25 0 0 0 2.5 0zM12 9a3 3 0 1 1 0 6 3 3 0 0 1 0-6z" />
    </symbol>
    <symbol id="linkedin" xmlns="http://www.w3.org/2000/svg" viewBox="0 0 24 24">
        <path d="M18.335 18.339H15.67v-4.177c0-.996-.02-2.278-1.39-2.278-1.389 0-1.601 1.084-1.601 2.205v4.25h-2.666V9.75h2.56v1.17h.035c.358-.674 1.228-1.387 2.528-1.387 2.7 0 3.2 1.778 3.2 4.091v4.715zM7.003 8.575a1.546 1.546 0 0 1-1.548-1.549 1.548 1.548 0 1 1 1.547 1.549zm1.336 9.764H5.666V9.75H8.34v8.589zM19.67 3H4.329C3.593 3 3 3.58 3 4.297v15.406C3 20.42 3.594 21 4.328 21h15.338C20.4 21 21 20.42 21 19.703V4.297C21 3.58 20.4 3 19.666 3h.003z" />
    </symbol>
    <symbol id="telegram" xmlns="http://www.w3.org/2000/svg" viewBox="0 0 24 24">
        <path d="M12 22C6.477 22 2 17.523 2 12S6.477 2 12 2s10 4.477 10 10-4.477 10-10 10zm-3.11-8.83l.013-.007.87 2.87c.112.311.266.367.453.341.188-.025.287-.126.41-.244l1.188-1.148 2.55 1.888c.466.257.801.124.917-.432l1.657-7.822c.183-.728-.137-1.02-.702-.788l-9.733 3.76c-.664.266-.66.638-.12.803l2.497.78z" />
    </symbol>
    <symbol id="flickr" xmlns="http://www.w3.org/2000/svg" viewBox="0 0 24 24">
        <path fill-rule="evenodd" d="M12.0,0.0 C18.627,0.0 24.0,5.372 24.0,12.0 C24.0,18.627 18.627,24.0 12.0,24.0 C5.372,24.0 0.0,18.627 0.0,12.0 C0.0,5.372 5.372,0.0 12.0,0.0 ZM7.249,8.499 C9.182,8.499 10.749,10.67 10.749,12.0 C10.749,13.932 9.182,15.500 7.249,15.500 C5.317,15.500 3.750,13.932 3.750,12.0 C3.750,10.67 5.317,8.499 7.249,8.499 ZM17.249,8.499 C19.182,8.499 20.750,10.67 20.750,12.0 C20.750,13.932 19.182,15.500 17.249,15.500 C15.317,15.500 13.749,13.932 13.749,12.0 C13.749,10.67 15.317,8.499 17.249,8.499 Z" />
    </symbol>
    <symbol id="view-icon" xmlns="http://www.w3.org/2000/svg" viewBox="0 0 24 24">
        <path d="M12 3c5.392 0 9.878 3.88 10.819 9-.94 5.12-5.427 9-10.819 9-5.392 0-9.878-3.88-10.819-9C2.121 6.88 6.608 3 12 3zm0 16a9.005 9.005 0 0 0 8.777-7 9.005 9.005 0 0 0-17.554 0A9.005 9.005 0 0 0 12 19zm0-2.5a4.5 4.5 0 1 1 0-9 4.5 4.5 0 0 1 0 9zm0-2a2.5 2.5 0 1 0 0-5 2.5 2.5 0 0 0 0 5z"></path>
    </symbol>
    <symbol id="download-icon" xmlns="http://www.w3.org/2000/svg" viewBox="0 0 24 24">
        <path fill="none" d="M0 0h24v24H0z" />
        <path d="M1 14.5a6.496 6.496 0 0 1 3.064-5.519 8.001 8.001 0 0 1 15.872 0 6.5 6.5 0 0 1-2.936 12L7 21c-3.356-.274-6-3.078-6-6.5zm15.848 4.487a4.5 4.5 0 0 0 2.03-8.309l-.807-.503-.12-.942a6.001 6.001 0 0 0-11.903 0l-.12.942-.805.503a4.5 4.5 0 0 0 2.029 8.309l.173.013h9.35l.173-.013zM13 12h3l-4 5-4-5h3V8h2v4z" />
    </symbol>
    <symbol viewBox="0 0 227.216 227.216" id="share" xmlns="http://www.w3.org/2000/svg">
        <path d="M175.897 141.476c-13.249 0-25.11 6.044-32.98 15.518l-51.194-29.066a42.671 42.671 0 002.467-14.317 42.67 42.67 0 00-2.467-14.316l51.19-29.073c7.869 9.477 19.732 15.523 32.982 15.523 23.634 0 42.862-19.235 42.862-42.879C218.759 19.229 199.531 0 175.897 0 152.26 0 133.03 19.229 133.03 42.865c0 5.02.874 9.838 2.467 14.319L84.304 86.258c-7.869-9.472-19.729-15.514-32.975-15.514-23.64 0-42.873 19.229-42.873 42.866 0 23.636 19.233 42.865 42.873 42.865 13.246 0 25.105-6.042 32.974-15.513l51.194 29.067a42.67 42.67 0 00-2.468 14.321c0 23.636 19.23 42.865 42.867 42.865 23.634 0 42.862-19.23 42.862-42.865.001-23.64-19.227-42.874-42.861-42.874zm0-126.476c15.363 0 27.862 12.5 27.862 27.865 0 15.373-12.499 27.879-27.862 27.879-15.366 0-27.867-12.506-27.867-27.879C148.03 27.5 160.531 15 175.897 15zM51.33 141.476c-15.369 0-27.873-12.501-27.873-27.865 0-15.366 12.504-27.866 27.873-27.866 15.363 0 27.861 12.5 27.861 27.866 0 15.364-12.499 27.865-27.861 27.865zm124.567 70.74c-15.366 0-27.867-12.501-27.867-27.865 0-15.37 12.501-27.875 27.867-27.875 15.363 0 27.862 12.505 27.862 27.875 0 15.364-12.499 27.865-27.862 27.865z" />
    </symbol>
    <symbol xmlns="http://www.w3.org/2000/svg" id="review-star" viewBox="0 0 24 24">
        <path d="M12 18.26l-7.053 3.948 1.575-7.928L.587 8.792l8.027-.952L12 .5l3.386 7.34 8.027.952-5.935 5.488 1.575 7.928L12 18.26zm0-2.292l4.247 2.377-.949-4.773 3.573-3.305-4.833-.573L12 5.275l-2.038 4.42-4.833.572 3.573 3.305-.949 4.773L12 15.968z" />
    </symbol>
    <symbol viewBox="0 0 15.402 14.648" id="rating" xmlns="http://www.w3.org/2000/svg">
        <path d="M7.701 11.984l-4.759 2.664L4.005 9.3l-4-3.7 5.408-.647L7.701 0l2.285 4.953 5.416.642-4 3.7 1.063 5.35z" />
    </symbol>
    <symbol id="pdf-attachment" xmlns="http://www.w3.org/2000/svg" viewBox="0 0 32 32">
        <g transform="translate(-621 -982)">
            <rect transform="translate(621 982)" fill="none" />
            <g transform="translate(622.015 982)">
                <g transform="translate(-0.015)">
                    <g transform="translate(0)">
                        <path d="M8.889,31.844A2.767,2.767,0,0,1,7.417,31.1a2.583,2.583,0,0,1-.7-1.868q0-2.487,0-4.974v-.375h-4.7a1.852,1.852,0,0,1-2.023-2.03q0-4.4,0-8.8a1.864,1.864,0,0,1,2.052-2.037q2.145,0,4.29,0h.384v-.376q0-4.026,0-8.051A2.448,2.448,0,0,1,8.554.1,2.857,2.857,0,0,1,9.291.008Q15.185,0,21.074,0a.992.992,0,0,1,.766.333q3.886,4.047,7.784,8.084a1.178,1.178,0,0,1,.361.882q-.012,9.948,0,19.9a2.465,2.465,0,0,1-1.4,2.4,5.544,5.544,0,0,1-.726.252H8.889Zm-.926-7.96c-.007.086-.015.136-.015.186q0,2.643,0,5.285a1.386,1.386,0,0,0,.045.368,1.245,1.245,0,0,0,1.361.89H27.326a1.257,1.257,0,0,0,1.434-1.426q0-9.515,0-19.028c0-.11-.01-.22-.017-.357H21.162c-.829,0-.97-.143-.97-.983V1.249c-.133-.006-.234-.016-.334-.016q-5.255,0-10.509,0a1.243,1.243,0,0,0-1.4,1.42q0,4.011,0,8.022v.343H18.128a1.883,1.883,0,0,1,2.064,2.066q0,4.368,0,8.737a1.875,1.875,0,0,1-2.064,2.061H7.963Zm2.122-1.23H18.1c.678,0,.859-.185.859-.872V13.111c0-.664-.191-.858-.844-.858H2.05c-.653,0-.845.194-.845.859q0,4.336,0,8.671c0,.685.184.871.861.871h8.018ZM28.067,8.571,21.435,1.682V8.571Z" transform="translate(0.015)" />
                        <path d="M109.05,197.314v-5.136c.023-.022.038-.049.053-.048.879.012,1.763-.026,2.637.054a1.755,1.755,0,0,1,1.527,1.369,3.689,3.689,0,0,1-.112,2.669,1.668,1.668,0,0,1-1.412,1.076c-.882.066-1.774.016-2.692.016Zm1.076-4.271v3.418c.421,0,.823.024,1.22-.006a.863.863,0,0,0,.9-.816,7.021,7.021,0,0,0,.049-1.539,1.021,1.021,0,0,0-.917-1.049,11.766,11.766,0,0,0-1.254-.009Z" transform="translate(-100.555 -177.165)" />
                        <path d="M47.482,195.138v1.984H46.45v-5.253c.2,0,.393,0,.586,0,.7.016,1.409.012,2.111.056a1.315,1.315,0,0,1,1.234,1.051,1.612,1.612,0,0,1-1.64,2.16c-.4.012-.8,0-1.258,0Zm.027-.854c.449-.031.882-.037,1.307-.1a.652.652,0,0,0,.541-.667.671.671,0,0,0-.579-.7c-.416-.041-.838-.009-1.269-.009v1.478Z" transform="translate(-42.831 -176.924)" />
                        <path d="M181.184,192.19v.868h-2.507V194.3h2.143v.879h-2.157v2.234H177.62V192.19Z" transform="translate(-163.785 -177.221)" />
                    </g>
                </g>
            </g>
        </g>
    </symbol>
    <symbol id="png-attachment" xmlns="http://www.w3.org/2000/svg" viewBox="0 0 32 32">
        <g transform="translate(-621 -980)">
            <rect transform="translate(621 980)" fill="none" />
            <g transform="translate(622.015 980)">
                <g transform="translate(-0.015)">
                    <g transform="translate(0)">
                        <path d="M8.889,31.844A2.767,2.767,0,0,1,7.417,31.1a2.583,2.583,0,0,1-.7-1.868q0-2.487,0-4.974v-.375h-4.7a1.852,1.852,0,0,1-2.023-2.03q0-4.4,0-8.8a1.864,1.864,0,0,1,2.052-2.037q2.145,0,4.29,0h.384v-.376q0-4.026,0-8.051A2.448,2.448,0,0,1,8.554.1,2.857,2.857,0,0,1,9.291.008Q15.185,0,21.074,0a.992.992,0,0,1,.766.333q3.886,4.047,7.784,8.084a1.178,1.178,0,0,1,.361.882q-.012,9.948,0,19.9a2.465,2.465,0,0,1-1.4,2.4,5.544,5.544,0,0,1-.726.252H8.889Zm-.942-7.96c0,1.823,0,3.594,0,5.366a1.228,1.228,0,0,0,1.365,1.363q9.032,0,18.064,0a1.844,1.844,0,0,0,.491-.051,1.252,1.252,0,0,0,.893-1.392V9.8h-7.68c-.71,0-.888-.176-.888-.877V1.249c-.127-.006-.209-.014-.291-.015q-5.3,0-10.6,0A1.227,1.227,0,0,0,7.948,2.611q0,4.042,0,8.084c0,.1.01.2.016.325H18.117a1.883,1.883,0,0,1,2.076,2.054q0,4.383,0,8.768a2.741,2.741,0,0,1-.074.677A1.84,1.84,0,0,1,18.2,23.882q-4.928,0-9.856,0h-.4Zm2.137-11.631H2.066c-.672,0-.861.19-.861.874q0,4.336,0,8.671c0,.667.188.855.846.855H18.118c.657,0,.844-.191.844-.856V13.126c0-.686-.185-.874-.86-.874H10.084ZM28.066,8.571,21.432,1.68V8.571h6.634Z" transform="translate(0.015)" />
                        <path d="M104.774,191.866h.974v5.253c-.316,0-.634.015-.949-.01-.083-.007-.175-.125-.231-.213-.581-.93-1.156-1.865-1.733-2.8a.877.877,0,0,0-.239-.272V197.1h-.977v-5.248c.308,0,.608-.016.9.01.085.008.18.122.234.21.6.967,1.192,1.939,1.788,2.909.058.094.121.186.23.354v-3.471Z" transform="translate(-93.704 -176.907)" />
                        <path d="M171.669,192.1l-.978.188a3.34,3.34,0,0,0-.5-.6,1.444,1.444,0,0,0-2.151.758,2.688,2.688,0,0,0,.025,1.651,1.423,1.423,0,0,0,1.816.927c.06-.016.119-.035.178-.055.622-.214.658-.271.61-.975h-1.184v-.88h2.243a2,2,0,0,1,.023.221c0,.487-.019.974.009,1.46a.6.6,0,0,1-.329.629,3.473,3.473,0,0,1-2.947.4,2.4,2.4,0,0,1-1.62-2.121,2.692,2.692,0,0,1,1.243-2.829,2.863,2.863,0,0,1,2.632-.043,1.677,1.677,0,0,1,.935,1.267Z" transform="translate(-153.826 -175.691)" />
                        <path d="M38.64,191.491c.96.033,1.9.025,2.837.112a1.409,1.409,0,0,1,1.153,1.6c-.058,1.016-.618,1.537-1.727,1.584-.392.017-.785,0-1.217,0v1.979H38.64V191.49Zm1.051,2.446c.456-.033.9-.04,1.33-.106a.646.646,0,0,0,.521-.677.658.658,0,0,0-.561-.68,12.71,12.71,0,0,0-1.291-.01v1.474Z" transform="translate(-35.629 -176.576)" />
                    </g>
                </g>
            </g>
        </g>
    </symbol>
    <symbol id="jpg-attachment" xmlns="http://www.w3.org/2000/svg" viewBox="0 0 32 32">
        <g transform="translate(-621 -980)">
            <rect transform="translate(621 980)" fill="none" />
            <g transform="translate(622.015 980)">
                <g transform="translate(-0.015)">
                    <g transform="translate(0)">
                        <path d="M8.889,31.844A2.767,2.767,0,0,1,7.417,31.1a2.583,2.583,0,0,1-.7-1.868q0-2.487,0-4.974v-.375h-4.7a1.852,1.852,0,0,1-2.023-2.03q0-4.4,0-8.8a1.864,1.864,0,0,1,2.052-2.037q2.145,0,4.29,0h.384v-.376q0-4.026,0-8.051A2.448,2.448,0,0,1,8.554.1,2.857,2.857,0,0,1,9.291.008Q15.185,0,21.074,0a.992.992,0,0,1,.766.333q3.886,4.047,7.784,8.084a1.178,1.178,0,0,1,.361.882q-.012,9.948,0,19.9a2.465,2.465,0,0,1-1.4,2.4,5.544,5.544,0,0,1-.726.252H8.889Zm-.927-7.96c-.005.129-.014.23-.014.331,0,1.658.026,3.317-.012,4.975a1.334,1.334,0,0,0,1.439,1.435c5.98-.019,11.96-.009,17.94-.01a1.262,1.262,0,0,0,1.445-1.446q0-9.5,0-19V9.8H21.079c-.71,0-.887-.177-.887-.878V1.252c-.118-.008-.189-.017-.261-.017q-5.332,0-10.664,0A1.22,1.22,0,0,0,7.947,2.613q0,4.042,0,8.084c0,.1.01.2.016.324H18.117a1.883,1.883,0,0,1,2.075,2.055q0,4.383,0,8.768a2.705,2.705,0,0,1-.075.677,1.828,1.828,0,0,1-1.883,1.363q-4.943,0-9.887,0H7.962Zm2.122-1.23h8.05c.637,0,.829-.2.829-.839v-8.7c0-.674-.189-.86-.874-.86H2.083c-.7,0-.878.181-.878.889v8.64c0,.686.184.872.86.872h8.018Zm11.336-14.1h6.63l-6.63-6.884Z" transform="translate(0.015)" />
                        <path d="M155.078,194.162h-1.172v-.868h2.245c.005.1.015.2.016.3,0,.467-.015.933.007,1.4a.591.591,0,0,1-.31.61,3.491,3.491,0,0,1-3.006.4,2.549,2.549,0,0,1-1.607-2.618,2.592,2.592,0,0,1,1.258-2.319,2.9,2.9,0,0,1,3.02.212,1.7,1.7,0,0,1,.55,1.013l-.925.18a3.687,3.687,0,0,0-.7-.68,1.428,1.428,0,0,0-2,.874,2.674,2.674,0,0,0,.021,1.592,1.428,1.428,0,0,0,1.826.957c.05-.013.1-.03.148-.047.641-.21.678-.266.634-1Z" transform="translate(-139.466 -175.882)" />
                        <path d="M91.021,191.51c.962.033,1.9.041,2.84.115a1.294,1.294,0,0,1,.72.379,1.63,1.63,0,0,1,.326,1.79,1.361,1.361,0,0,1-1.277.97c-.512.041-1.028.055-1.573.083v1.941H91.02V191.51Zm1.04.957c0,.436-.009.85.009,1.262a.274.274,0,0,0,.188.192,7.921,7.921,0,0,0,1.053-.048.677.677,0,0,0,.617-.7.686.686,0,0,0-.622-.7c-.4-.032-.8-.007-1.246-.007Z" transform="translate(-83.93 -176.594)" />
                        <path d="M35.338,192.13h1.035c.009.078.022.138.022.2,0,1.15.008,2.3-.015,3.45a1.688,1.688,0,0,1-2.5,1.534,1.561,1.561,0,0,1-.838-1.551l.974-.123c.045.2.073.371.125.537a.529.529,0,0,0,.576.379c.291-.01.536-.117.573-.451a7.7,7.7,0,0,0,.049-.8c.005-1.045,0-2.09,0-3.167Z" transform="translate(-30.465 -177.166)" />
                    </g>
                </g>
            </g>
        </g>
    </symbol>
    <symbol id="back-arrow" xmlns="http://www.w3.org/2000/svg" viewBox="0 0 24 24">
        <path d="M12 2c5.52 0 10 4.48 10 10s-4.48 10-10 10S2 17.52 2 12 6.48 2 12 2zm0 18c4.42 0 8-3.58 8-8s-3.58-8-8-8-8 3.58-8 8 3.58 8 8 8zm0-9h4v2h-4v3l-4-4 4-4v3z" />
    </symbol>
    <symbol id="icon-level" xmlns="http://www.w3.org/2000/svg" viewBox="0 0 24 24">
        <path d="M3,8.81H5.667v6H3ZM12.333,3H15V14.81H12.333ZM7.667,5.571h2.667V14.81H7.667Z" transform="translate(3 3)" />
    </symbol>
    <symbol id="icon-students" xmlns="http://www.w3.org/2000/svg" viewBox="0 0 24 24">
        <path d="M2,14.011a4.956,4.956,0,0,1,9.913,0ZM6.956,8.435a3.717,3.717,0,1,1,3.717-3.717A3.716,3.716,0,0,1,6.956,8.435Zm4.562,1.383A4.65,4.65,0,0,1,15,14.011H13.152A6.175,6.175,0,0,0,11.518,9.818Zm-1.253-1.41A4.959,4.959,0,0,0,11.284,2.3a3.1,3.1,0,0,1-1.019,6.109Z" transform="translate(4 4)" />
    </symbol>
    <symbol id="icon-time" xmlns="http://www.w3.org/2000/svg" viewBox="0 0 24 24">
        <path d="M9.5,17A7.5,7.5,0,1,1,17,9.5,7.5,7.5,0,0,1,9.5,17Zm0-1.5a6,6,0,1,0-6-6A6,6,0,0,0,9.5,15.5Zm.75-6h3V11H8.75V5.75h1.5Z" transform="translate(3 3)" fill="#333" />
    </symbol>
    <symbol id="icon-lecture" xmlns="http://www.w3.org/2000/svg" viewBox="0 0 24 24">
        <g transform="translate(-1147 -629)">
            <g transform="translate(1152 633.993)">
                <g transform="translate(0 0.006)">
                    <g transform="translate(0 0)">
                        <path d="M7.505,7.092a4,4,0,0,1-1.314-.244L1.022,4.964a1.492,1.492,0,0,1,0-2.831Q3.6,1.192,6.188.249A3.651,3.651,0,0,1,8.747.227q2.629.947,5.25,1.913a1.492,1.492,0,0,1-.042,2.831c-1.533.556-3.063,1.121-4.6,1.671-.436.156-.884.278-1.332.4a3.082,3.082,0,0,1-.519.051Z" transform="translate(0 -0.006)" />
                        <path d="M8.738,143.607a8.7,8.7,0,0,1-1.007-.226c-1.972-.691-3.939-1.4-5.907-2.1a.738.738,0,0,1-.533-.8.718.718,0,0,1,.647-.65,1.073,1.073,0,0,1,.44.071q2.865,1.012,5.725,2.039a1.779,1.779,0,0,0,1.257,0q2.859-1.029,5.723-2.044a.756.756,0,0,1,1.017.363.742.742,0,0,1-.451,1.018c-.676.248-1.355.485-2.033.727-1.269.452-2.534.912-3.807,1.349a10.857,10.857,0,0,1-1.071.255Z" transform="translate(-1.227 -133.312)" />
                        <path d="M8.632,211.579a9.992,9.992,0,0,1-1.047-.248c-1.95-.682-3.9-1.38-5.842-2.073a.749.749,0,0,1-.5-.968.741.741,0,0,1,1-.438c1.925.683,3.851,1.364,5.774,2.057a1.772,1.772,0,0,0,1.256,0q2.884-1.037,5.774-2.058a.746.746,0,1,1,.513,1.4c-.758.275-1.52.542-2.279.813-1.2.427-2.392.862-3.594,1.275a10.014,10.014,0,0,1-1.046.24Z" transform="translate(-1.14 -198.113)" />
                    </g>
                </g>
            </g>
        </g>
    </symbol>
    <!-- [ FORUM ICONS ========= -->
    <symbol id="q-mark" xmlns="http://www.w3.org/2000/svg" viewBox="0 0 24 24">
        <path d="M12,22A10,10,0,1,1,22,12,10,10,0,0,1,12,22Zm0-2a8,8,0,1,0-8-8A8,8,0,0,0,12,20Zm-1-5h2v2H11Zm2-1.645V14H11V12.5a1,1,0,0,1,1-1,1.5,1.5,0,1,0-1.471-1.794L8.567,9.313A3.5,3.5,0,1,1,13,13.355Z" />
    </symbol>
    <symbol id="colored-fb" xmlns="http://www.w3.org/2000/svg" viewBox="0 0 24 24">
        <path d="M15.4,21V14.034h2.333l.349-2.708H15.4V9.6c0-.784.218-1.319,1.342-1.319h1.434V5.857a19.191,19.191,0,0,0-2.09-.107,3.263,3.263,0,0,0-3.482,3.58v2H10.268v2.708h2.338V21H4a1,1,0,0,1-1-1V4A1,1,0,0,1,4,3H20a1,1,0,0,1,1,1V20a1,1,0,0,1-1,1Z" fill="#227bef" />
    </symbol>
    <symbol id="colored-google" xmlns="http://www.w3.org/2000/svg" width="24" height="24" viewBox="0 0 24 24">
        <g transform="translate(2.999 3.001)">
            <path d="M23.1,13.306a10.381,10.381,0,0,0-.159-1.829h-8.66v3.466h4.958a4.162,4.162,0,0,1-1.835,2.735v2.249h2.959A8.7,8.7,0,0,0,23.1,13.306Z" transform="translate(-5.101 -4.099)" fill="#4285f4" />
            <path d="M9.724,23.958a8.893,8.893,0,0,0,6.086-2.173l-2.959-2.249a5.575,5.575,0,0,1-3.124.86,5.484,5.484,0,0,1-5.155-3.714H1.519V19A9.205,9.205,0,0,0,9.724,23.958Z" transform="translate(-0.542 -5.958)" fill="#34a853" />
            <path d="M4.027,13.481a5.29,5.29,0,0,1,0-3.446V7.717H.977a8.849,8.849,0,0,0,0,8.082l3.05-2.318Z" transform="translate(0 -2.756)" fill="#fbbc04" />
            <path d="M9.724,3.562a5.045,5.045,0,0,1,3.522,1.349l2.621-2.57A8.923,8.923,0,0,0,9.724,0a9.2,9.2,0,0,0-8.2,4.961L4.57,7.279A5.482,5.482,0,0,1,9.726,3.562Z" transform="translate(-0.543)" fill="#ea4335" />
        </g>
    </symbol>
    <symbol id="icon-chat" xmlns="http://www.w3.org/2000/svg" viewBox="0 0 24 24">
        <path d="M8.4,3h3.2a6.4,6.4,0,1,1,0,12.8v2.8C7.6,17,2,14.6,2,9.4A6.4,6.4,0,0,1,8.4,3ZM10,14.2h1.6a4.8,4.8,0,1,0,0-9.6H8.4A4.8,4.8,0,0,0,3.6,9.4c0,2.888,1.97,4.773,6.4,6.784Z" transform="translate(2 1)" />
    </symbol>
    <symbol id="icon-views" xmlns="http://www.w3.org/2000/svg" viewBox="0 0 24 24">
        <path d="M9.681,3a8.646,8.646,0,0,1,8.5,7.071,8.644,8.644,0,0,1-17,0A8.645,8.645,0,0,1,9.681,3Zm0,12.57a7.074,7.074,0,0,0,6.9-5.5,7.075,7.075,0,0,0-13.791,0,7.075,7.075,0,0,0,6.9,5.5Zm0-1.964a3.535,3.535,0,1,1,3.535-3.535A3.535,3.535,0,0,1,9.681,13.606Zm0-1.571a1.964,1.964,0,1,0-1.964-1.964A1.964,1.964,0,0,0,9.681,12.035Z" transform="translate(2.819 2)" />
    </symbol>
    <symbol id="icon-search" xmlns="http://www.w3.org/2000/svg" viewBox="0 0 24 24">
        <path d="M18.031 16.617l4.283 4.282-1.415 1.415-4.282-4.283A8.96 8.96 0 0 1 11 20c-4.968 0-9-4.032-9-9s4.032-9 9-9 9 4.032 9 9a8.96 8.96 0 0 1-1.969 5.617zm-2.006-.742A6.977 6.977 0 0 0 18 11c0-3.868-3.133-7-7-7-3.868 0-7 3.132-7 7 0 3.867 3.132 7 7 7a6.977 6.977 0 0 0 4.875-1.975l.15-.15z" />
    </symbol>
    <symbol id="icon-share" xmlns="http://www.w3.org/2000/svg" viewBox="0 0 24 24">
        <g transform="translate(-6 -7.499)">
            <path d="M11.115,13.989,7.141,11.821a2.722,2.722,0,1,1,0-3.864l3.975-2.168a2.722,2.722,0,1,1,.745,1.365L7.886,9.322a2.733,2.733,0,0,1,0,1.134l3.975,2.168a2.722,2.722,0,1,1-.745,1.365Z" transform="translate(8.5 10)" />
        </g>
    </symbol>
    <symbol id="icon-play" xmlns="http://www.w3.org/2000/svg" viewBox="0 0 24 24">
        <path d="M12 22C6.477 22 2 17.523 2 12S6.477 2 12 2s10 4.477 10 10-4.477 10-10 10zM10.622 8.415a.4.4 0 0 0-.622.332v6.506a.4.4 0 0 0 .622.332l4.879-3.252a.4.4 0 0 0 0-.666l-4.88-3.252z" />
    </symbol>
    <symbol id="icon-lessons" xmlns="http://www.w3.org/2000/svg" viewBox="0 0 24 24">
        <path d="M21 8v12.993A1 1 0 0 1 20.007 22H3.993A.993.993 0 0 1 3 21.008V2.992C3 2.455 3.449 2 4.002 2h10.995L21 8zm-2 1h-5V4H5v16h14V9zM8 7h3v2H8V7zm0 4h8v2H8v-2zm0  4h8v2H8v-2z" />
    </symbol>
    <symbol id="teaches-icon" xmlns="http://www.w3.org/2000/svg" viewBox="0 0 18 12.659">
        <path d="M138,34l-9,4.5,9,4.5,7.363-3.682v6.954H147V38.5L138,34Zm0,10.831-6.546-3.273v1.829L138,46.659l6.545-3.273V41.558L138,44.829Z" transform="translate(-129 -34)" />
    </symbol>
    <symbol id="icon-course-video" xmlns="http://www.w3.org/2000/svg" viewBox="0 0 24 24">
        <path d="M2,3.794A.8.8,0,0,1,2.794,3H17.206A.794.794,0,0,1,18,3.794V16.606a.8.8,0,0,1-.794.794H2.794A.794.794,0,0,1,2,16.606ZM3.6,4.6V15.8H16.4V4.6ZM8.9,7.332l3.9,2.6a.32.32,0,0,1,0,.533l-3.9,2.6a.32.32,0,0,1-.5-.266V7.6a.32.32,0,0,1,.5-.266Z" transform="translate(2 2)" />
    </symbol>
    <symbol id="icon-course-lecture" xmlns="http://www.w3.org/2000/svg" viewBox="0 0 24 24">
        <path d="M16.222,17.556H3.778A.778.778,0,0,1,3,16.778v-14A.778.778,0,0,1,3.778,2H16.222A.778.778,0,0,1,17,2.778v14A.778.778,0,0,1,16.222,17.556ZM15.444,16V3.556H4.556V16ZM6.889,5.889h6.222V7.444H6.889ZM6.889,9h6.222v1.556H6.889Zm0,3.111h6.222v1.556H6.889Z" transform="translate(2 2)" />
    </symbol>
    <symbol id="icon-course-assets" xmlns="http://www.w3.org/2000/svg" viewBox="0 0 24 24">
        <path d="M10.331,4.6H17.2a.8.8,0,0,1,.8.8V16.6a.8.8,0,0,1-.8.8H2.8a.8.8,0,0,1-.8-.8V3.8A.8.8,0,0,1,2.8,3H8.731ZM3.6,4.6V15.8H16.4V6.2H9.669l-1.6-1.6ZM10.8,11h2.4L10,14.2,6.8,11H9.2V7.8h1.6Z" transform="translate(2 2)" />
    </symbol>
    <symbol id="icon-course-access" xmlns="http://www.w3.org/2000/svg" viewBox="0 0 24 24">
        <path d="M10,2a8,8,0,1,1-8,8H3.6A6.4,6.4,0,1,0,4.708,6.4H6.8V8H2V3.2H3.6v2A7.985,7.985,0,0,1,10,2Zm.8,4V9.668l2.594,2.594-1.132,1.132L9.2,10.33V6Z" transform="translate(2 2)" />
    </symbol>
    <symbol id="icon-course-tv" xmlns="http://www.w3.org/2000/svg" viewBox="0 0 24 24">
        <path d="M2,3.8A.8.8,0,0,1,2.794,3H17.206A.8.8,0,0,1,18,3.8V15a.8.8,0,0,1-.794.8H2.794A.8.8,0,0,1,2,15Zm1.6.8v9.6H16.4V4.6Zm.8,12H15.6v1.6H4.4Z" transform="translate(2 1)" />
    </symbol>
    <symbol id="icon-course-certificate" xmlns="http://www.w3.org/2000/svg" viewBox="0 0 24 24">
        <path d="M10.818,14.4v1.687h4.091v1.636H5.091V16.091H9.182V14.4A6.546,6.546,0,0,1,3.455,7.909V3H16.545V7.909A6.546,6.546,0,0,1,10.818,14.4ZM5.091,4.636V7.909a4.909,4.909,0,0,0,9.818,0V4.636ZM1,4.636H2.636V7.909H1Zm16.364,0H19V7.909H17.364Z" transform="translate(2 2)" />
    </symbol>
    <symbol viewBox="0 0 16 14.8" id="icon-heart" xmlns="http://www.w3.org/2000/svg">
        <path d="M11.6 0A4.521 4.521 0 0116 4.8c0 5.6-6 8.8-8 10-2-1.2-8-4.4-8-10A4.54 4.54 0 014.4 0 5.293 5.293 0 018 1.6 5.293 5.293 0 0111.6 0zM8.747 12.483a21.562 21.562 0 001.936-1.361C13.068 9.222 14.4 7.154 14.4 4.8a2.932 2.932 0 00-2.8-3.2 3.686 3.686 0 00-2.469 1.131L8 3.862 6.869 2.731A3.686 3.686 0 004.4 1.6a2.95 2.95 0 00-2.8 3.2c0 2.355 1.333 4.426 3.716 6.322a21.527 21.527 0 001.937 1.36c.239.151.476.3.747.458.271-.162.508-.306.747-.457z"></path>
    </symbol>
    <symbol id="icon-globe" xmlns="http://www.w3.org/2000/svg" viewBox="0 0 24 24">
        <path d="M6.235 6.453a8 8 0 0 0 8.817 12.944c.115-.75-.137-1.47-.24-1.722-.23-.56-.988-1.517-2.253-2.844-.338-.355-.316-.628-.195-1.437l.013-.091c.082-.554.22-.882 2.085-1.178.948-.15 1.197.228 1.542.753l.116.172c.328.48.571.59.938.756.165.075.37.17.645.325.652.373.652.794.652 1.716v.105c0 .391-.038.735-.098 1.034a8.002 8.002 0 0 0-3.105-12.341c-.553.373-1.312.902-1.577 1.265-.135.185-.327 1.132-.95 1.21-.162.02-.381.006-.613-.009-.622-.04-1.472-.095-1.744.644-.173.468-.203 1.74.356 2.4.09.105.107.3.046.519-.08.287-.241.462-.292.498-.096-.056-.288-.279-.419-.43-.313-.365-.705-.82-1.211-.96-.184-.051-.386-.093-.583-.135-.549-.115-1.17-.246-1.315-.554-.106-.226-.105-.537-.105-.865 0-.417 0-.888-.204-1.345a1.276 1.276 0 0 0-.306-.43zM12 22C6.477 22 2 17.523 2 12S6.477 2 12 2s10 4.477 10 10-4.477 10-10 10z" />
    </symbol>
    <symbol id="icon-course-filter" xmlns="http://www.w3.org/2000/svg" viewBox="0 0 24 24">
        <path d="M9 2.003V2h10.998C20.55 2 21 2.455 21 2.992v18.016a.993.993 0 0 1-.993.992H3.993A1 1 0 0 1 3 20.993V8l6-5.997zM5.83 8H9V4.83L5.83 8zM11 4v5a1 1 0 0 1-1 1H5v10h14V4h-8z" />
    </symbol>
    <symbol id="icon-subject-filter" xmlns="http://www.w3.org/2000/svg" viewBox="0 0 24 24">
        <path d="M13 21v2h-2v-2H3a1 1 0 0 1-1-1V4a1 1 0 0 1 1-1h6a3.99 3.99 0 0 1 3 1.354A3.99 3.99 0 0 1 15 3h6a1 1 0 0 1 1 1v16a1 1 0 0 1-1 1h-8zm7-2V5h-5a2 2 0 0 0-2 2v12h7zm-9 0V7a2 2 0 0 0-2-2H4v14h7z" />
    </symbol>
    <symbol id="icon-class-filter" xmlns="http://www.w3.org/2000/svg" viewBox="0 0 24 24">
        <g transform="translate(-500 -19)">
            <path d="M14.712,10.056v8.533l7.386-4.27Zm1.623,2.812,2.517,1.454-2.517,1.454ZM25.8,24.323a2.434,2.434,0,1,0-4.024-.023,4.039,4.039,0,0,0-1.2,1.057A4.039,4.039,0,0,0,19.4,24.31a2.434,2.434,0,1,0-4.024,0A4.032,4.032,0,0,0,14.2,25.356a4.039,4.039,0,0,0-1.141-1.024,2.434,2.434,0,1,0-4.023-.045A4.006,4.006,0,0,0,7,27.772H8.623a2.38,2.38,0,1,1,4.761,0h1.623a2.38,2.38,0,1,1,4.761,0H21.39a2.38,2.38,0,1,1,4.761,0h1.622A4,4,0,0,0,25.8,24.323ZM11.054,22.131a.812.812,0,1,1-.569.237.808.808,0,0,1,.569-.237Zm6.329,0a.812.812,0,1,1-.569.237.808.808,0,0,1,.569-.237Zm6.411,0a.812.812,0,1,1-.569.237.808.808,0,0,1,.569-.237Zm3.979-12.7v9.737a2.423,2.423,0,0,1-.577,1.566,4.09,4.09,0,0,0-1.154-1.169.808.808,0,0,0,.105-.4V9.434a.808.808,0,0,0-.808-.808H9.434a.808.808,0,0,0-.808.808v9.737a.808.808,0,0,0,.129.436,4.091,4.091,0,0,0-1.132,1.184A2.423,2.423,0,0,1,7,19.171V9.434A2.437,2.437,0,0,1,9.434,7h15.9a2.437,2.437,0,0,1,2.434,2.435Zm0,0" transform="translate(494.664 13.665)" />
        </g>
    </symbol>
    <symbol id="icon-teacher-filter" xmlns="http://www.w3.org/2000/svg" viewBox="0 0 24 24">
        <path d="M20 22h-2v-2a3 3 0 0 0-3-3H9a3 3 0 0 0-3 3v2H4v-2a5 5 0 0 1 5-5h6a5 5 0 0 1 5 5v2zm-8-9a6 6 0 1 1 0-12 6 6 0 0 1 0 12zm0-2a4 4 0 1 0 0-8 4 4 0 0 0 0 8z" />
    </symbol>
    <symbol id="icon-subject" xmlns="http://www.w3.org/2000/svg" viewBox="0 0 24 24">
        <path d="M6.235,6.453A8,8,0,0,0,15.052,19.4a3.456,3.456,0,0,0-.24-1.722,12.3,12.3,0,0,0-2.253-2.844c-.338-.355-.316-.628-.195-1.437l.013-.091c.082-.554.22-.882,2.085-1.178A1.28,1.28,0,0,1,16,12.878l.116.172a1.831,1.831,0,0,0,.938.756c.165.075.37.17.645.325.652.373.652.794.652,1.716v.1a5.249,5.249,0,0,1-.1,1.034A8,8,0,0,0,15.152,4.645,7.877,7.877,0,0,0,13.575,5.91c-.135.185-.327,1.132-.95,1.21a3.667,3.667,0,0,1-.613-.009c-.622-.04-1.472-.095-1.744.644a2.928,2.928,0,0,0,.356,2.4.583.583,0,0,1,.046.519,1.014,1.014,0,0,1-.292.5,2.883,2.883,0,0,1-.419-.43,2.743,2.743,0,0,0-1.211-.96c-.184-.051-.386-.093-.583-.135C7.616,9.532,7,9.4,6.85,9.093a2.163,2.163,0,0,1-.105-.865,3.184,3.184,0,0,0-.2-1.345,1.276,1.276,0,0,0-.306-.43ZM12,22A10,10,0,1,1,22,12,10,10,0,0,1,12,22Z" />
    </symbol>
    <symbol id="globe-icon" xmlns="http://www.w3.org/2000/svg" viewBox="0 0 24 24">
        <path d="M6.235 6.453a8 8 0 0 0 8.817 12.944c.115-.75-.137-1.47-.24-1.722-.23-.56-.988-1.517-2.253-2.844-.338-.355-.316-.628-.195-1.437l.013-.091c.082-.554.22-.882 2.085-1.178.948-.15 1.197.228 1.542.753l.116.172c.328.48.571.59.938.756.165.075.37.17.645.325.652.373.652.794.652 1.716v.105c0 .391-.038.735-.098 1.034a8.002 8.002 0 0 0-3.105-12.341c-.553.373-1.312.902-1.577 1.265-.135.185-.327 1.132-.95 1.21-.162.02-.381.006-.613-.009-.622-.04-1.472-.095-1.744.644-.173.468-.203 1.74.356 2.4.09.105.107.3.046.519-.08.287-.241.462-.292.498-.096-.056-.288-.279-.419-.43-.313-.365-.705-.82-1.211-.96-.184-.051-.386-.093-.583-.135-.549-.115-1.17-.246-1.315-.554-.106-.226-.105-.537-.105-.865 0-.417 0-.888-.204-1.345a1.276 1.276 0 0 0-.306-.43zM12 22C6.477 22 2 17.523 2 12S6.477 2 12 2s10 4.477 10 10-4.477 10-10 10z"/>
    </symbol>
    <symbol id="icon-course-quiz" viewBox="0 0 24 24">
        <path d="M12.01,3C7.04,3,3,7.03,3,11.99s4.04,9.01,9.01,9.01,8.99-4.04,8.99-9.01S16.97,3,12.01,3ZM12.01,19.48c-4.13,0-7.49-3.36-7.49-7.49s3.36-7.49,7.49-7.49,7.49,3.37,7.49,7.49-3.37,7.49-7.49,7.49Z" />
        <path d="M12.78,15.25c0,.55-.48,1.03-1.04,1.03s-1.02-.47-1.02-1.03.45-1.04,1.02-1.04,1.04.48,1.04,1.04Z" />
        <path d="M14.52,9.47c0,.79-.47,1.55-1.36,2.25-.6.47-.6.79-.6,1.35,0,.23-.11.61-.83.61-.56,0-.78-.24-.78-.92,0-1.03.44-1.54.82-1.87.08-.07.16-.12.24-.19.35-.28.75-.58.75-1.03,0-.61-.7-.65-.91-.65-.62,0-.79.25-.95.5-.13.19-.28.4-.61.4-.41,0-.84-.28-.84-.8,0-.69.78-1.71,2.44-1.71,1.54,0,2.63.85,2.63,2.06Z" />
    </symbol>
</svg>