<svg xmlns="http://www.w3.org/2000/svg" width="161.375" height="28.31" viewBox="0 0 161.375 28.31">
  <defs>
    <style>
      .cls-1 {
        fill: #fb0;
        fill-rule: evenodd;
      }
    </style>
  </defs>
  <path id="_" data-name="" class="cls-1" d="M422.214,2330.3l-8.964-1.3-4.018-8.13a0.889,0.889,0,0,0-1.75,0l-4.018,8.13-8.964,1.3a0.93,0.93,0,0,0-1,.82,1.365,1.365,0,0,0,.446.86l6.5,6.32-1.535,8.93a3,3,0,0,0-.036.36,1.035,1.035,0,0,0,.188.63,0.632,0.632,0,0,0,.562.26,1.54,1.54,0,0,0,.714-0.21l8.018-4.22,8.018,4.22a1.466,1.466,0,0,0,.714.21,0.615,0.615,0,0,0,.545-0.26,1.034,1.034,0,0,0,.187-0.63,2.97,2.97,0,0,0-.017-0.36l-1.536-8.93,6.482-6.32a1.283,1.283,0,0,0,.464-0.86,0.93,0.93,0,0,0-1-.82h0Zm32.914,0-8.964-1.3-4.018-8.13a0.889,0.889,0,0,0-1.75,0l-4.018,8.13-8.964,1.3a0.93,0.93,0,0,0-1,.82,1.365,1.365,0,0,0,.446.86l6.5,6.32-1.535,8.93a3,3,0,0,0-.036.36,1.034,1.034,0,0,0,.187.63,0.633,0.633,0,0,0,.563.26,1.54,1.54,0,0,0,.714-0.21l8.018-4.22,8.018,4.22a1.466,1.466,0,0,0,.714.21,0.615,0.615,0,0,0,.545-0.26,1.034,1.034,0,0,0,.187-0.63,2.742,2.742,0,0,0-.018-0.36l-1.535-8.93,6.482-6.32a1.283,1.283,0,0,0,.464-0.86,0.93,0.93,0,0,0-1-.82h0Zm32.914,0-8.964-1.3-4.018-8.13a0.889,0.889,0,0,0-1.75,0l-4.018,8.13-8.964,1.3a0.93,0.93,0,0,0-1,.82,1.36,1.36,0,0,0,.446.86l6.5,6.32-1.536,8.93a2.935,2.935,0,0,0-.035.36,1.034,1.034,0,0,0,.187.63,0.633,0.633,0,0,0,.563.26,1.54,1.54,0,0,0,.714-0.21l8.018-4.22,8.018,4.22a1.466,1.466,0,0,0,.714.21,0.615,0.615,0,0,0,.545-0.26,1.034,1.034,0,0,0,.187-0.63,2.742,2.742,0,0,0-.018-0.36l-1.535-8.93,6.482-6.32a1.283,1.283,0,0,0,.464-0.86,0.93,0.93,0,0,0-1-.82h0Zm32.914,0-8.964-1.3-4.018-8.13a0.889,0.889,0,0,0-1.75,0l-4.018,8.13-8.964,1.3a0.93,0.93,0,0,0-1,.82,1.36,1.36,0,0,0,.446.86l6.5,6.32-1.536,8.93a2.935,2.935,0,0,0-.035.36,1.034,1.034,0,0,0,.187.63,0.633,0.633,0,0,0,.563.26,1.54,1.54,0,0,0,.714-0.21l8.018-4.22,8.018,4.22a1.466,1.466,0,0,0,.714.21,0.615,0.615,0,0,0,.545-0.26,1.034,1.034,0,0,0,.187-0.63,2.742,2.742,0,0,0-.018-0.36l-1.536-8.93,6.483-6.32a1.283,1.283,0,0,0,.464-0.86,0.931,0.931,0,0,0-1-.82h0Zm32.914,0-8.965-1.3-4.017-8.13a0.889,0.889,0,0,0-1.75,0L535.12,2329l-8.965,1.3a0.931,0.931,0,0,0-1,.82,1.362,1.362,0,0,0,.447.86l6.5,6.32-1.536,8.93a3,3,0,0,0-.036.36,1.035,1.035,0,0,0,.188.63,0.632,0.632,0,0,0,.562.26,1.541,1.541,0,0,0,.715-0.21l8.018-4.22,8.017,4.22a1.467,1.467,0,0,0,.715.21,0.613,0.613,0,0,0,.544-0.26,1.035,1.035,0,0,0,.188-0.63,2.742,2.742,0,0,0-.018-0.36l-1.536-8.93,6.482-6.32a1.281,1.281,0,0,0,.465-0.86,0.931,0.931,0,0,0-1-.82h0Z" transform="translate(-393.5 -2320.16)"/>
</svg>
