<svg xmlns="http://www.w3.org/2000/svg" width="49.969" height="32" viewBox="0 0 49.969 32">
  <path d="M49.674,15.023C49.228,14.41,38.588,0,25,0S0.771,14.41.325,15.023a1.663,1.663,0,0,0,0,1.954C0.771,17.59,11.411,32,25,32S49.228,17.59,49.674,16.977A1.661,1.661,0,0,0,49.674,15.023ZM25,28.69C14.99,28.69,6.321,19.126,3.755,16,6.318,12.869,14.969,3.31,25,3.31,35.009,3.31,43.677,12.873,46.245,16,43.682,19.13,35.031,28.69,25,28.69ZM25,6.069A9.931,9.931,0,1,0,34.887,16,9.921,9.921,0,0,0,25,6.069Zm0,16.552A6.621,6.621,0,1,1,31.591,16,6.613,6.613,0,0,1,25,22.621Z" transform="translate(-0.031)"/>
</svg>
