<svg xmlns="http://www.w3.org/2000/svg" width="14.281" height="13.71" viewBox="0 0 14.281 13.71">
  <defs>
    <style>
      .cls-1 {
        fill: #b3b3b3;
        fill-rule: evenodd;
      }
    </style>
  </defs>
  <path id="_" data-name="" class="cls-1" d="M886.116,2251.4a0.565,0.565,0,0,1-.808,0,0.539,0.539,0,0,1-.165-0.4,0.578,0.578,0,0,1,.165-0.41,0.565,0.565,0,0,1,.808,0,0.571,0.571,0,0,1,.17.41A0.533,0.533,0,0,1,886.116,2251.4Zm1.429-5.38a0.562,0.562,0,0,0-.4-0.17h-2.572a0.581,0.581,0,0,0-.571.57v5.72a0.549,0.549,0,0,0,.17.4,0.561,0.561,0,0,0,.4.17h2.572a0.562,0.562,0,0,0,.4-0.17,0.548,0.548,0,0,0,.169-0.4v-5.72A0.564,0.564,0,0,0,887.545,2246.02Zm10.232-.8a1.646,1.646,0,0,0-1.206-.51H894.1q0.036-.12.072-0.21a1.3,1.3,0,0,1,.1-0.2c0.041-.07.071-0.13,0.089-0.16,0.107-.2.189-0.37,0.246-0.5a3.522,3.522,0,0,0,.169-0.54,2.719,2.719,0,0,0,.085-0.68c0-.14,0-0.25,0-0.34a3.929,3.929,0,0,0-.045-0.41,2.325,2.325,0,0,0-.107-0.44,2.1,2.1,0,0,0-.214-0.4,1.387,1.387,0,0,0-.358-0.37,2.292,2.292,0,0,0-.535-0.23,2.776,2.776,0,0,0-.737-0.09,0.562,0.562,0,0,0-.4.17,1.65,1.65,0,0,0-.3.44,2.647,2.647,0,0,0-.174.47q-0.049.2-.112,0.54c-0.053.25-.094,0.43-0.12,0.54a2.92,2.92,0,0,1-.157.44,1.387,1.387,0,0,1-.276.43,11.493,11.493,0,0,0-.9,1.07q-0.438.57-.9,1.08a1.425,1.425,0,0,1-.679.52,0.64,0.64,0,0,0-.384.19,0.54,0.54,0,0,0-.16.39v5.72a0.548,0.548,0,0,0,.169.4,0.606,0.606,0,0,0,.4.17,7.146,7.146,0,0,1,1.411.39q0.687,0.24,1.076.36a11.114,11.114,0,0,0,1.085.25,6.076,6.076,0,0,0,1.285.14h1.152a2.216,2.216,0,0,0,1.759-.69,2.153,2.153,0,0,0,.438-1.62,1.743,1.743,0,0,0,.482-0.84,1.822,1.822,0,0,0,0-1.04,1.88,1.88,0,0,0,.384-1.23,2.218,2.218,0,0,0-.134-0.68,1.935,1.935,0,0,0,.491-1.33A1.645,1.645,0,0,0,897.777,2245.22Z" transform="translate(-884 -2240.13)"/>
</svg>
