<svg xmlns="http://www.w3.org/2000/svg" width="200" height="58" viewBox="0 0 160 46.285">
    <defs>
        <style>.a{fill:#111;}.b{fill:#5138EE;}.c{fill:#1C1D1F;}</style>
    </defs>
    <path class="a" d="M102.253,50.764V42.492L95.86,30.56h5.215l2.069,4.856c.629,1.469,1.051,2.533,1.558,3.868h.059c.452-1.267.933-2.428,1.533-3.868l2.035-4.856h5.126L106.8,42.34v8.423Z" transform="translate(-55.385 -17.657)"/>
    <path class="a" d="M147.935,50.4c0,5.367-3.8,7.828-7.735,7.828-4.286,0-7.6-2.821-7.6-7.558s3.125-7.765,7.841-7.765A7.13,7.13,0,0,1,147.935,50.4Zm-10.615.144c0,2.533,1.051,4.408,3,4.408,1.769,0,2.909-1.769,2.909-4.408,0-2.187-.844-4.408-2.909-4.408C138.131,46.149,137.321,48.4,137.321,50.548Z" transform="translate(-76.612 -24.792)"/>
    <path class="a" d="M174.376,48.371a2.684,2.684,0,1,1,5.367,0,2.685,2.685,0,1,1-5.367,0Zm.992-4.222-.692-13.579h4.767l-.659,13.579Z" transform="translate(-100.748 -17.663)"/>
    <path class="a" d="M208.54,49.747a13.018,13.018,0,0,1-5.189.866c-6.984,0-10.581-4.345-10.581-10.1,0-6.9,4.919-10.733,11.033-10.733a11.954,11.954,0,0,1,4.978.9l-.933,3.627a9.88,9.88,0,0,0-3.834-.747c-3.627,0-6.447,2.187-6.447,6.684,0,4.045,2.4,6.6,6.477,6.6a11.434,11.434,0,0,0,3.8-.659Z" transform="translate(-111.376 -17.206)"/>
    <path class="a" d="M248.825,50.4c0,5.367-3.8,7.828-7.735,7.828-4.286,0-7.6-2.821-7.6-7.558s3.116-7.765,7.824-7.765A7.134,7.134,0,0,1,248.825,50.4Zm-10.615.144c0,2.533,1.051,4.408,3,4.408,1.769,0,2.909-1.769,2.909-4.408,0-2.187-.844-4.408-2.909-4.408C239.021,46.149,238.211,48.4,238.211,50.548Z" transform="translate(-134.903 -24.792)"/>
    <path class="a" d="M283.5,57.873l-.27-1.465h-.089a5.308,5.308,0,0,1-4.2,1.8,4.5,4.5,0,0,1-4.733-4.5c0-3.8,3.416-5.633,8.6-5.6v-.211c0-.777-.422-1.887-2.664-1.887a8.238,8.238,0,0,0-4.049,1.11l-.844-2.956a12.1,12.1,0,0,1,5.7-1.292c4.885,0,6.447,2.88,6.447,6.333v5.122a23,23,0,0,0,.207,3.568Zm-.54-6.929c-2.4-.03-4.256.54-4.256,2.31a1.636,1.636,0,0,0,1.8,1.74,2.491,2.491,0,0,0,2.369-1.689,3.293,3.293,0,0,0,.089-.777Z" transform="translate(-158.43 -24.766)"/>
    <path class="a" d="M323.8,57.54a11.1,11.1,0,0,1-4.075.659c-4.737,0-7.765-2.875-7.765-7.495,0-4.286,2.956-7.794,8.394-7.794a10.619,10.619,0,0,1,3.479.57l-.722,3.378a6.207,6.207,0,0,0-2.533-.452,3.793,3.793,0,0,0-3.927,4.108,3.811,3.811,0,0,0,4.015,4.1,7.051,7.051,0,0,0,2.609-.448Z" transform="translate(-180.241 -24.792)"/>
    <path class="a" d="M346,28h4.556v8.364h.059a5.548,5.548,0,0,1,1.8-1.5,5.126,5.126,0,0,1,2.369-.57c2.909,0,5.126,2.01,5.126,6.418v8.571h-4.56v-8.06c0-1.921-.659-3.239-2.369-3.239a2.428,2.428,0,0,0-2.28,1.588,2.929,2.929,0,0,0-.148,1.018v8.694H346Z" transform="translate(-199.908 -16.178)"/>
    <path class="b" d="M53.462,34.277,40.25,27.437V0L53.462,6.84Z" transform="translate(-23.255)"/>
    <path class="c" d="M32.1,62.717,18.89,55.877V28.44L32.1,35.28Z" transform="translate(-10.914 -16.432)"/>
    <path class="b" d="M13.216,34.277,0,27.437V0L13.216,6.84Z"/>
</svg>