<svg xmlns="http://www.w3.org/2000/svg" width="375" height="250" viewBox="0 0 375 250">
  <g id="cta-graphic" transform="translate(-1080 -546)">
    <rect id="Rectangle_3173" data-name="Rectangle 3173" width="375" height="250" transform="translate(1080 546)" fill="none"/>
    <g id="girl" transform="translate(1084.5 553.284)">
      <g id="Layer_2" transform="translate(0 0)">
        <g id="Layer_1-2">
          <g id="Group_926" data-name="Group 926">
            <path id="Path_7022" data-name="Path 7022" d="M269.992,258.672H354.1c22.557-22.593,12.449-50.3-12.6-78.694S352,74.564,296.225,45.956,199.9,107.568,105.3,87.191c-96.421-20.77-69.615,57.555-83.24,82.258C.88,207.852-8.7,230.656,12.826,258.672Z" transform="translate(2.96 -16.677)" fill="#f3f3e7"/>
            <g id="Group_924" data-name="Group 924" transform="translate(2.926 29.678)">
              <path id="Path_7023" data-name="Path 7023" d="M51.258,405.582a.317.317,0,0,0,.252-.129q1.091-1.522,2.146-3.026a.307.307,0,1,0-.5-.352c-.7,1-1.413,2.011-2.14,3.02a.3.3,0,0,0,.07.428.293.293,0,0,0,.182.059Z" transform="translate(283.486 -195.999)" fill="#c4c589"/>
              <path id="Path_7024" data-name="Path 7024" d="M341.1,251.072a.3.3,0,0,0,.258-.141c1.387-2.1,2.733-4.191,4-6.231a.309.309,0,0,0-.527-.322c-1.264,2.034-2.61,4.121-3.992,6.214a.311.311,0,0,0,.088.428.3.3,0,0,0,.17.053ZM22.124,247.1a.312.312,0,0,0,.275-.451c-1.118-2.187-2.218-4.42-3.278-6.636a.308.308,0,1,0-.556.264c1.059,2.216,2.166,4.455,3.284,6.648a.312.312,0,0,0,.275.17Zm326.783-8.6a.311.311,0,0,0,.269-.152c1.258-2.181,2.464-4.361,3.588-6.483a.3.3,0,0,0-.129-.416.307.307,0,0,0-.416.129c-1.118,2.116-2.318,4.291-3.576,6.466a.308.308,0,0,0,.111.422.284.284,0,0,0,.152.041ZM15.744,233.737a.238.238,0,0,0,.123-.029.314.314,0,0,0,.158-.41c-1.013-2.274-2-4.561-2.915-6.8a.31.31,0,1,0-.574.234c.925,2.239,1.908,4.537,2.921,6.812a.3.3,0,0,0,.281.182ZM355.8,225.413a.309.309,0,0,0,.281-.176c1.077-2.28,2.089-4.561,3-6.777a.31.31,0,1,0-.574-.234c-.907,2.21-1.914,4.479-2.985,6.753a.311.311,0,0,0,.146.41.342.342,0,0,0,.129.029ZM10.108,220.038a.4.4,0,0,0,.111-.018.313.313,0,0,0,.181-.4c-.884-2.357-1.721-4.7-2.482-6.964a.312.312,0,0,0-.392-.193.308.308,0,0,0-.193.393c.767,2.275,1.6,4.625,2.488,6.982A.308.308,0,0,0,10.108,220.038Zm351.3-8.307a.316.316,0,0,0,.293-.205c.819-2.38,1.557-4.766,2.183-7.087a.311.311,0,0,0-.217-.381.315.315,0,0,0-.38.217c-.626,2.31-1.358,4.684-2.171,7.052a.308.308,0,0,0,.193.393.3.3,0,0,0,.1.018ZM5.4,206a.317.317,0,0,0,.088-.012.307.307,0,0,0,.211-.381c-.708-2.415-1.352-4.819-1.914-7.14a.315.315,0,0,0-.375-.229.311.311,0,0,0-.228.375c.562,2.333,1.212,4.742,1.92,7.169a.311.311,0,0,0,.293.223Zm359.858-8.547a.313.313,0,0,0,.3-.252c.468-2.462.831-4.93,1.083-7.345a.309.309,0,1,0-.615-.064c-.252,2.4-.609,4.848-1.077,7.292a.312.312,0,0,0,.246.363h.059ZM1.931,191.613H1.99a.3.3,0,0,0,.246-.358c-.457-2.491-.825-4.948-1.089-7.3a.306.306,0,1,0-.609.07c.263,2.362.632,4.836,1.095,7.345a.313.313,0,0,0,.3.252Zm364.833-8.858a.311.311,0,0,0,.31-.3v-.879c0-2.187-.094-4.385-.281-6.536a.308.308,0,1,0-.615.053c.181,2.134.275,4.314.275,6.483v.873a.308.308,0,0,0,.3.311h0ZM.334,176.91H.339a.3.3,0,0,0,.3-.317C.62,176,.615,175.416.615,174.829c0-1.923.082-3.8.24-5.6a.305.305,0,0,0-.281-.334.32.32,0,0,0-.334.281c-.158,1.806-.24,3.711-.24,5.651,0,.592.006,1.184.023,1.776a.3.3,0,0,0,.31.3Zm365.16-8.869h.059a.306.306,0,0,0,.246-.358c-.451-2.409-1.024-4.836-1.709-7.222a.308.308,0,1,0-.591.17c.679,2.362,1.253,4.778,1.7,7.163a.313.313,0,0,0,.3.252ZM1.715,162.214a.306.306,0,0,0,.3-.234,39.185,39.185,0,0,1,2.341-6.947.309.309,0,1,0-.562-.258,39.743,39.743,0,0,0-2.376,7.052.3.3,0,0,0,.228.369.285.285,0,0,0,.07.006Zm359.705-8.371a.253.253,0,0,0,.111-.023.312.312,0,0,0,.176-.4c-.878-2.263-1.885-4.543-2.985-6.794a.3.3,0,0,0-.41-.141.311.311,0,0,0-.141.416c1.094,2.233,2.09,4.5,2.967,6.741a.308.308,0,0,0,.287.2ZM7.814,148.855a.3.3,0,0,0,.246-.123,49.518,49.518,0,0,1,4.782-5.534.308.308,0,0,0,0-.44.312.312,0,0,0-.439,0,50.77,50.77,0,0,0-4.84,5.6.307.307,0,0,0,.252.492Zm347.127-8.289a.318.318,0,0,0,.158-.041.314.314,0,0,0,.111-.422c-1.217-2.075-2.552-4.186-3.968-6.261a.308.308,0,1,0-.509.346c1.4,2.063,2.733,4.162,3.945,6.226a.3.3,0,0,0,.263.152Zm-336.674-2a.323.323,0,0,0,.176-.053,42.113,42.113,0,0,1,6.339-3.629.309.309,0,0,0-.258-.563A42.555,42.555,0,0,0,18.092,138a.31.31,0,0,0,.176.563Zm13.269-6.284a.273.273,0,0,0,.094-.012c2.113-.657,4.442-1.266,7.117-1.858a.309.309,0,0,0-.135-.6c-2.687.6-5.034,1.208-7.164,1.87a.313.313,0,0,0-.2.387A.305.305,0,0,0,31.536,132.282Zm14.375-3.312h.059c1.036-.193,2.078-.381,3.143-.575q2.028-.369,4.126-.756a.307.307,0,0,0-.111-.6c-1.393.264-2.768.51-4.12.756q-1.589.29-3.143.574a.3.3,0,0,0-.246.358.313.313,0,0,0,.3.252Zm300.725-.633a.311.311,0,0,0,.246-.5c-1.469-1.905-3.038-3.84-4.677-5.751a.307.307,0,1,0-.468.4c1.627,1.9,3.19,3.828,4.653,5.721a.316.316,0,0,0,.246.123ZM60.414,126.192a.315.315,0,0,0,.064-.006c2.552-.551,4.9-1.114,7.193-1.718a.308.308,0,0,0-.152-.6c-2.283.6-4.624,1.161-7.17,1.712a.31.31,0,0,0-.234.369.306.306,0,0,0,.3.246Zm14.264-3.781a.178.178,0,0,0,.094-.018c2.353-.762,4.694-1.594,6.971-2.486a.308.308,0,0,0-.222-.574c-2.259.885-4.595,1.712-6.936,2.468a.307.307,0,0,0-.2.387.313.313,0,0,0,.293.217ZM337.037,117.1a.317.317,0,0,0,.211-.082.306.306,0,0,0,.012-.434c-1.639-1.753-3.383-3.535-5.174-5.3a.311.311,0,0,0-.433,0,.319.319,0,0,0,0,.44c1.785,1.759,3.518,3.541,5.156,5.282a.3.3,0,0,0,.222.1Zm-248.616-.059a.342.342,0,0,0,.129-.029c2.212-1.026,4.437-2.134,6.62-3.306a.3.3,0,0,0,.123-.416.31.31,0,0,0-.416-.129c-2.166,1.161-4.384,2.269-6.585,3.289a.31.31,0,0,0,.129.592Zm13.005-6.964a.263.263,0,0,0,.158-.047c2.066-1.26,4.156-2.609,6.21-4.016a.308.308,0,0,0-.345-.51c-2.049,1.4-4.126,2.743-6.181,4a.306.306,0,0,0,.158.569Zm225.1-3.359a.325.325,0,0,0,.228-.1.307.307,0,0,0-.018-.434c-1.773-1.63-3.635-3.289-5.525-4.924a.307.307,0,0,0-.4.463c1.891,1.63,3.74,3.283,5.513,4.912a.317.317,0,0,0,.211.082Zm-212.907-4.953a.291.291,0,0,0,.187-.064c1.931-1.454,3.881-3,5.806-4.584a.308.308,0,0,0-.392-.475c-1.92,1.577-3.863,3.113-5.783,4.567a.308.308,0,0,0-.059.434.3.3,0,0,0,.246.123Zm201.728-4.719a.33.33,0,0,0,.24-.111.313.313,0,0,0-.041-.434c-1.861-1.524-3.81-3.078-5.783-4.613a.309.309,0,0,0-.38.487c1.972,1.536,3.916,3.083,5.771,4.608a.314.314,0,0,0,.193.07ZM125.019,92.391a.307.307,0,0,0,.2-.076c1.8-1.6,3.629-3.289,5.437-5.018a.307.307,0,0,0-.421-.446c-1.8,1.718-3.623,3.4-5.42,5a.31.31,0,0,0,.2.539Zm178.667-4.432a.3.3,0,0,0,.246-.123.316.316,0,0,0-.064-.434c-.462-.346-.931-.692-1.4-1.032-1.528-1.126-3.073-2.239-4.595-3.312a.307.307,0,0,0-.351.5c1.516,1.067,3.055,2.181,4.583,3.306.468.346.931.692,1.393,1.032a.292.292,0,0,0,.181.059Zm-167.9-5.692a.317.317,0,0,0,.211-.082c1.82-1.677,3.687-3.312,5.554-4.86a.308.308,0,0,0-.392-.475c-1.873,1.553-3.752,3.195-5.578,4.877a.307.307,0,0,0-.018.434.315.315,0,0,0,.228.1ZM291.6,79.448a.3.3,0,0,0,.258-.141.311.311,0,0,0-.088-.428c-2.072-1.372-4.167-2.714-6.233-3.986a.3.3,0,0,0-.421.1.313.313,0,0,0,.1.428c2.06,1.272,4.156,2.609,6.216,3.98a.3.3,0,0,0,.17.053ZM147.173,72.841a.292.292,0,0,0,.181-.059c1.984-1.466,4.027-2.884,6.058-4.2a.309.309,0,0,0-.339-.516c-2.043,1.331-4.091,2.749-6.087,4.227a.314.314,0,0,0-.064.434.3.3,0,0,0,.246.123Zm131.85-1.155a.317.317,0,0,0,.269-.158.31.31,0,0,0-.117-.422c-2.166-1.237-4.349-2.433-6.491-3.552a.308.308,0,0,0-.287.545c2.136,1.12,4.314,2.31,6.473,3.541a.283.283,0,0,0,.152.041Zm-13.1-6.841a.308.308,0,0,0,.135-.586c-2.248-1.061-4.524-2.081-6.76-3.019a.309.309,0,0,0-.24.569c2.23.938,4.5,1.952,6.737,3.007A.342.342,0,0,0,265.923,64.845Zm-106.354-.059a.283.283,0,0,0,.152-.041c2.154-1.213,4.349-2.362,6.532-3.406a.308.308,0,0,0-.263-.557c-2.195,1.055-4.407,2.2-6.573,3.429a.313.313,0,0,0-.117.422.317.317,0,0,0,.269.158ZM252.3,59.124a.3.3,0,0,0,.287-.205.313.313,0,0,0-.181-.4c-2.335-.856-4.694-1.653-7.018-2.368a.31.31,0,0,0-.181.592c2.312.715,4.659,1.507,6.988,2.357a.331.331,0,0,0,.105.018ZM172.891,58.4a.253.253,0,0,0,.111-.023c2.283-.909,4.618-1.741,6.936-2.474a.308.308,0,0,0-.187-.586c-2.335.739-4.682,1.577-6.983,2.486a.312.312,0,0,0-.176.4.3.3,0,0,0,.287.193Zm65.29-3.629a.306.306,0,0,0,.3-.234.31.31,0,0,0-.222-.375c-2.411-.6-4.846-1.131-7.234-1.583a.307.307,0,0,0-.357.246.3.3,0,0,0,.246.358c2.376.446,4.8.973,7.2,1.577a.342.342,0,0,0,.076.012Zm-51.213-.821a.4.4,0,0,0,.07-.006c2.382-.563,4.811-1.049,7.223-1.436a.313.313,0,0,0,.258-.352.308.308,0,0,0-.351-.258c-2.429.387-4.876.873-7.269,1.442a.308.308,0,0,0-.228.369.312.312,0,0,0,.3.24Zm36.7-1.893a.309.309,0,0,0,.035-.616c-2.458-.3-4.94-.528-7.381-.662a.308.308,0,0,0-.029.616c2.423.135,4.893.358,7.34.657h.035Zm-22.118-.451h.029c2.429-.211,4.9-.334,7.357-.363a.308.308,0,0,0,.3-.311.291.291,0,0,0-.31-.3c-2.47.035-4.957.158-7.4.369a.308.308,0,0,0,.023.616Z" transform="translate(0 -50.629)" fill="#c4c589"/>
              <path id="Path_7025" data-name="Path 7025" d="M581.667,400.242a.319.319,0,0,0,.158-.041.313.313,0,0,0,.111-.422c-.006-.012-.692-1.173-1.818-3.213a.307.307,0,0,0-.539.293c1.132,2.052,1.818,3.219,1.824,3.231A.3.3,0,0,0,581.667,400.242Z" transform="translate(-554.057 -193.708)" fill="#c4c589"/>
            </g>
            <circle id="Ellipse_79" data-name="Ellipse 79" cx="29.833" cy="29.833" r="29.833" transform="translate(60.187 188.057) rotate(-170.93)" fill="#f3f3e7"/>
            <ellipse id="Ellipse_80" data-name="Ellipse 80" cx="13.82" cy="13.82" rx="13.82" ry="13.82" transform="translate(158.179 95.129) rotate(-170.85)" fill="#f3f3e7"/>
            <circle id="Ellipse_81" data-name="Ellipse 81" cx="19.865" cy="19.865" r="19.865" transform="translate(341.22 186.99) rotate(-135)" fill="#f3f3e7"/>
            <path id="Path_7026" data-name="Path 7026" d="M464.79,269.419a.623.623,0,0,0,.381-.129.617.617,0,0,0,.106-.868c-4.849-6.227-11.738-21.753-11.809-21.911a.618.618,0,0,0-1.132.5c.287.645,7.018,15.819,11.961,22.169a.616.616,0,0,0,.487.24Z" transform="translate(-360.116 -101.857)" fill="#e9a4c9"/>
            <path id="Path_7027" data-name="Path 7027" d="M485.946,272.917c1.044-7.206-4.62-13.04-10.947-15.3-.111,8.748,4.456,13.427,7.1,14.969s3.852.328,3.852.328Z" transform="translate(-394.074 -106.605)" fill="#e9a4c9"/>
            <path id="Path_7028" data-name="Path 7028" d="M450.008,268.074a.62.62,0,0,0,.616-.6c.164-4.867,4.45-13.3,4.491-13.38a.619.619,0,0,0-1.1-.563c-.182.358-4.456,8.76-4.626,13.9a.621.621,0,0,0,.6.639h.023Z" transform="translate(-348.202 -104.774)" fill="#e9a4c9"/>
            <path id="Path_7029" data-name="Path 7029" d="M439.4,249.114A15.209,15.209,0,0,1,448.5,229.56C449.494,237.481,446.861,248.305,439.4,249.114Z" transform="translate(-335.316 -94.995)" fill="#e9a4c9"/>
            <path id="Path_7030" data-name="Path 7030" d="M484.288,234.83c3.325-10.5-5.863-21.114-13.679-24.69C467.7,222.136,478.155,234.6,484.288,234.83Z" transform="translate(-390.123 -86.959)" fill="#e9a4c9"/>
            <path id="Path_7031" data-name="Path 7031" d="M89.992,211.229a.614.614,0,0,0,.6-.493C94.184,193.07,114,172.5,114.2,172.29a.618.618,0,1,0-.885-.862c-.205.211-20.27,21.043-23.934,39.061a.612.612,0,0,0,.481.727.873.873,0,0,0,.123.012Z" transform="translate(203.222 -70.866)" fill="#c4c589"/>
            <path id="Path_7032" data-name="Path 7032" d="M69.15,166.745c.545-7.611,8.08-14.711,15.122-14.875C81.633,160.841,76.086,166.933,69.15,166.745Z" transform="translate(245.184 -62.848)" fill="#c4c589"/>
            <path id="Path_7033" data-name="Path 7033" d="M111.315,191.563a.612.612,0,0,0,.616-.6l.346-11.363a.616.616,0,0,0-1.231-.035L110.7,190.93a.621.621,0,0,0,.6.639h.018Z" transform="translate(192.816 -74.059)" fill="#c4c589"/>
            <path id="Path_7034" data-name="Path 7034" d="M109.69,172.468c5.629-5.119.95-16.288.95-16.288C106.073,161.135,106.208,170.486,109.69,172.468Z" transform="translate(194.717 -64.631)" fill="#c4c589"/>
            <path id="Path_7035" data-name="Path 7035" d="M136.859,189.255c8.977-5.535,4.96-17.965,4.96-17.965S132.89,179.768,136.859,189.255Z" transform="translate(147.778 -70.883)" fill="#c4c589"/>
            <path id="Path_7036" data-name="Path 7036" d="M93.83,211.537c5.306-4.245,13.063-2.21,15.925.487-4.679,4.456-14.136,2.334-15.925-.487Z" transform="translate(205.23 -86.525)" fill="#c4c589"/>
            <path id="Path_7037" data-name="Path 7037" d="M95.24,242.429c6.467-7.892,18.352-4.538,18.352-4.538s-8.15,12.1-18.352,4.538Z" transform="translate(200.669 -98.147)" fill="#c4c589"/>
            <path id="Path_7038" data-name="Path 7038" d="M578.411,345.363h-15.7c-9.246-40.5-26.561-48.273-37.267-68.378s6.162-34.482,24.649-23.33,35.068,49.961,36.534,78.791c-1.835,5.06-8.215,12.911-8.215,12.911Z" transform="translate(-522.1 -103.369)" fill="#f6c670"/>
            <path id="Path_7039" data-name="Path 7039" d="M507.1,350.235H462.344c-5.06-10.161-1.542-18.305,8.361-20.393s7.816-10.83-3.741-15.7-7.816-12.905-1.1-23.254-4.292-26.3,2.861-29.053,7.358,14.746,17.438,17.719,22.562,64.233,20.944,70.688Z" transform="translate(-406.033 -108.241)" fill="#ff7987"/>
            <path id="Path_7040" data-name="Path 7040" d="M462.387,300.287a.617.617,0,0,1,.733-.475l15.69,3.3a315.757,315.757,0,0,0-13.8-33.6.618.618,0,1,1,1.108-.545,315.911,315.911,0,0,1,13.714,33.327l4.462-9.475a.616.616,0,1,1,1.114.528l-5,10.607c1.853,5.306,3.606,10.689,5.195,15.954l5.33-8.66a.618.618,0,1,1,1.055.645l-5.9,9.6c2.146,7.247,3.952,14.224,5.213,20.422l8.22-8.08a.618.618,0,0,1,.868.88l-8.8,8.648c.563,2.914,1.009,5.646,1.3,8.121a.619.619,0,0,1-.539.686h-.07a.615.615,0,0,1-.61-.545c-.281-2.433-.715-5.113-1.267-7.974l-20.791-5.295a.617.617,0,0,1,.3-1.2l20.223,5.148c-1.255-6.18-3.049-13.151-5.195-20.4l-10.6-3.3a.618.618,0,0,1,.369-1.179l9.8,3.043c-1.589-5.283-3.348-10.683-5.2-16.013l-16.423-3.448a.617.617,0,0,1-.475-.733Z" transform="translate(-401.154 -111.169)" fill="#ffe4e7"/>
            <path id="Path_7041" data-name="Path 7041" d="M352.8,229.315c-24.5-14.67-17.168-57.079-5.869-77.765,7.775,17.754,36.095,26.854,31.838,53.262C374.509,222.127,364.388,231.666,352.8,229.315Z" transform="translate(-206.068 -62.722)" fill="#c4c589"/>
            <path id="Path_7042" data-name="Path 7042" d="M350.336,181.085a.619.619,0,1,1,.809-.938L362.1,189.64c-3.518-10.66-6.338-21.817-6.62-30.5a.621.621,0,0,1,.6-.639.64.64,0,0,1,.639.6c.281,8.584,3.178,19.859,6.755,30.607l5.107-14.289a.619.619,0,0,1,1.167.416l-5.635,15.761c2.123,6.221,4.439,12.2,6.561,17.291L379,188.309a.617.617,0,1,1,1.143.463l-8.8,21.724c2.058,4.849,3.882,8.772,5.107,11.14a.62.62,0,0,1-.264.833.607.607,0,0,1-.281.07.626.626,0,0,1-.551-.334c-1.278-2.474-3.131-6.432-5.2-11.287l-18.335-10.859a.616.616,0,1,1,.627-1.061l16.9,10.009c-2.111-5.06-4.386-10.935-6.473-17.056l-12.536-10.865Z" transform="translate(-215.087 -65.595)" fill="#f3f3e7"/>
            <path id="Path_7043" data-name="Path 7043" d="M14.8,362.392H51.888c14.306-6.42,12.436-16,7.37-20.176s-2.973-8.865,6.491-10.542,11.445-10.149,4.034-14.477-5.353-14.23-1.542-19.771-1.542-9.135-8.437-4.069A113.752,113.752,0,0,0,47.332,304.14L14.8,362.392Z" transform="translate(287.03 -120.398)" fill="#f6c670"/>
            <path id="Path_7044" data-name="Path 7044" d="M31.474,366.318a137.9,137.9,0,0,0,15.983-23.829c.018-.035.035-.064.053-.1-2.246-3.852-2.457-13.04-2.468-13.445a.616.616,0,0,1,.6-.627h.012a.617.617,0,0,1,.616.6c0,.088.193,8.168,1.923,12.1,2.263-4.521,4.169-9.035,6.016-13.409,3.436-8.15,6.678-15.854,11.586-21.741a.616.616,0,0,1,.944.792c-4.784,5.746-8,13.362-11.4,21.425-.246.58-.487,1.161-.733,1.741a51.015,51.015,0,0,0,14.518-3.014.618.618,0,1,1,.44,1.155c-.334.129-8.138,3.078-15.485,3.1-1.671,3.928-3.442,7.945-5.535,11.979a131.207,131.207,0,0,1-8.056,13.363,50.727,50.727,0,0,0,17.924-4.052.62.62,0,0,1,.522,1.126,50.626,50.626,0,0,1-19.079,4.175h-.223c-4.016,5.746-7.177,9.4-7.229,9.463a.616.616,0,0,1-.469.211.632.632,0,0,1-.4-.152.615.615,0,0,1-.059-.874Z" transform="translate(281.67 -126.487)" fill="#fdf4e2"/>
            <path id="Path_7045" data-name="Path 7045" d="M47.308,343.206H76.361c20.029-13.022,32.465-37.854,38.334-63.242s-.147-37.121-12.471-35.215-25.236,27.733-30.519,46.66-27.511,31.252-24.391,51.8Z" transform="translate(225.472 -101.212)" fill="#e9a4c9"/>
            <path id="Path_7046" data-name="Path 7046" d="M55.34,347.646q2.586-2.6,5.025-5.441l-3.2-9.915a.619.619,0,1,1,1.179-.381l2.961,9.188a137.652,137.652,0,0,0,9.61-12.97L66.838,310.1a.617.617,0,1,1,1.2-.276l3.817,16.863a200.476,200.476,0,0,0,10.66-18.851l-4.609-22.844a.616.616,0,1,1,1.208-.246l4.292,21.278c3.02-6.168,5.641-12.184,7.863-17.713l-2.005-23.752a.618.618,0,1,1,1.231-.106L92.29,285.73a258.205,258.205,0,0,0,8.367-24.685.619.619,0,1,1,1.2.317,259.772,259.772,0,0,1-8.607,25.312l13.321-10.208a.619.619,0,1,1,.751.985L92.355,288.919c-2.246,5.57-4.89,11.627-7.933,17.836l15.45-6.813a.618.618,0,0,1,.5,1.132l-16.8,7.411A201.7,201.7,0,0,1,73.1,327.019l17.221-6.737a.616.616,0,1,1,.446,1.149L71.945,328.8a141.368,141.368,0,0,1-9.188,12.483l11.68-2.973a.617.617,0,0,1,.3,1.2l-13.357,3.4q-2.507,2.92-5.177,5.611a.617.617,0,0,1-.44.182.594.594,0,0,1-.434-.182.619.619,0,0,1,0-.874Z" transform="translate(230.099 -107.845)" fill="#fbedf4"/>
            <g id="Group_925" data-name="Group 925" transform="translate(74.907)">
              <path id="Path_7047" data-name="Path 7047" d="M165.42,132.153c12.764-29.786,2.492-40.938-2.785-67.2s3.917-34.922,8.93-38C166.012,8.759,184.939-7.09,216.929,3.33s43.43,40.334,39.325,62.351,5.529,44.655,5.529,44.655l-96.352,21.823Z" transform="translate(-60.807 -0.012)" fill="#c55652"/>
              <path id="Path_7048" data-name="Path 7048" d="M119.151,235.533c13.5-14.822,23.184-31.691,36.095-44.016s35.373-21.29,35.373-21.29l32.237-2.938c14.559,8.238,38.329,14.4,42.726,48.589s4.257,48.712,3.741,58.838-9.393,15.116-20.985,16.8a77.514,77.514,0,0,0-.076,19.736H159.784l-4.767-25.822,7.7-2.345c1.906-11.369,1.689-25.459,1.542-30.812s-3.67-8.584-5.136-14.6c-7.921,8.361-16.212,16.066-16.212,16.066l-23.77-18.194Z" transform="translate(-44.03 -69.252)" fill="#593958"/>
              <path id="Path_7049" data-name="Path 7049" d="M169.3,408.516h77.284V402.43H165.81Z" transform="translate(-48.397 -166.522)" fill="#797198"/>
              <path id="Path_7050" data-name="Path 7050" d="M224.142,103.88l6.016,6.579c1.173,13.228,5.353,25.013,6.455,33.538s-7.851,24.081-22.157,23.565-16.435-12.471-15.849-20.029-.733-11.8-.733-11.8l26.262-31.844Z" transform="translate(-57.319 -42.994)" fill="#fdc094"/>
              <path id="Path_7051" data-name="Path 7051" d="M223.857,141.521c-5.84,3.26-10.724,2.744-13.943,1.612a28.9,28.9,0,0,0-.874-7.4L235.3,103.89l6.016,6.579c-.217,11.422-6.825,25.113-17.461,31.058Z" transform="translate(-68.479 -42.996)" fill="#ee8957"/>
              <path id="Path_7052" data-name="Path 7052" d="M247.446,62.834c2.861-8.437,13.574-7.851,13.644,3.3s-5.136,12.987-7.921,13.058c.586,7.7-6.678,22.081-17.9,28.466s-21.425,2.093-29.674-14.635-11.557-33.9-9.686-49.961c10.454-13.316,23.442-9.5,31.146,2.017s13.574,17.314,20.393,17.754Z" transform="translate(-80.253 -14.334)" fill="#fdc094"/>
              <path id="Path_7053" data-name="Path 7053" d="M286.234,81.8a.625.625,0,0,0,.6-.457,4.12,4.12,0,0,1,2.656-2.721,6.876,6.876,0,0,1,4.521.645.618.618,0,0,0,.592-1.085,8.073,8.073,0,0,0-5.453-.75,5.371,5.371,0,0,0-3.506,3.588.617.617,0,0,0,.434.756.738.738,0,0,0,.158.023Z" transform="translate(-166.986 -31.957)" fill="#632b29"/>
              <ellipse id="Ellipse_82" data-name="Ellipse 82" cx="3.301" cy="3.301" rx="3.301" ry="3.301" transform="translate(120.902 50.438)" fill="#2d1d2c"/>
              <path id="Path_7054" data-name="Path 7054" d="M292.78,89.473a1.173,1.173,0,1,1,1.173,1.173A1.172,1.172,0,0,1,292.78,89.473Z" transform="translate(-171.386 -36.543)" fill="#fff"/>
              <ellipse id="Ellipse_83" data-name="Ellipse 83" cx="0.475" cy="0.475" rx="0.475" ry="0.475" transform="translate(125.874 54.618)" fill="#fff"/>
              <path id="Path_7055" data-name="Path 7055" d="M243.518,73.48a.625.625,0,0,0,.6-.457,4.121,4.121,0,0,1,2.656-2.721,6.969,6.969,0,0,1,4.526.645.621.621,0,0,0,.592-1.091,8.073,8.073,0,0,0-5.453-.751,5.371,5.371,0,0,0-3.506,3.588.617.617,0,0,0,.434.756.738.738,0,0,0,.158.023Z" transform="translate(-99.234 -28.503)" fill="#632b29"/>
              <ellipse id="Ellipse_84" data-name="Ellipse 84" cx="3.301" cy="3.301" rx="3.301" ry="3.301" transform="translate(145.938 45.56)" fill="#2d1d2c"/>
              <ellipse id="Ellipse_85" data-name="Ellipse 85" cx="1.173" cy="1.173" rx="1.173" ry="1.173" transform="translate(146.431 46.879)" fill="#fff"/>
              <path id="Path_7056" data-name="Path 7056" d="M244.83,85.335a.475.475,0,1,1,.475.475A.473.473,0,0,1,244.83,85.335Z" transform="translate(-93.926 -35.12)" fill="#fff"/>
              <path id="Path_7057" data-name="Path 7057" d="M247.581,123.406s5.91,1.818,9.944-2.422c.95-1.044,4.456,4.181.164,6.637a6.839,6.839,0,0,1-10.108-4.216Z" transform="translate(-109.535 -50.011)" fill="#fff"/>
              <path id="Path_7058" data-name="Path 7058" d="M274.026,110.391s-3.612,2.715-4.9-1.061C269.13,112.373,272.431,114.027,274.026,110.391Z" transform="translate(-136.42 -45.245)" fill="#ee8957"/>
              <path id="Path_7059" data-name="Path 7059" d="M208.855,107.29a8.631,8.631,0,0,0,5.154,1.964,17.72,17.72,0,0,1-.651,5.658C213.891,110.286,209.242,110.315,208.855,107.29Z" transform="translate(-41.093 -44.401)" fill="#ee8957"/>
              <path id="Path_7060" data-name="Path 7060" d="M323.448,357.945,297.62,280.18h95.074l25.828,77.765Z" transform="translate(-297.62 -115.951)" fill="#a196ca"/>
              <path id="Path_7061" data-name="Path 7061" d="M155.982,354.053a.738.738,0,0,0,.194-.029c.3-.1,30.137-9.786,55.449-14.676,25.054-4.837,32.418-2.68,32.489-2.656a.618.618,0,0,0,.375-1.179c-.3-.1-7.6-2.3-33.1,2.621-25.388,4.9-55.3,14.617-55.6,14.717a.62.62,0,0,0,.193,1.208Z" transform="translate(-40.609 -138.602)" fill="#2d1d2c"/>
              <path id="Path_7062" data-name="Path 7062" d="M129.671,384.908h.035c35.08-2.058,63.752-5.207,85.223-9.364,12.589-2.439,15.075-5.459,15.174-5.588a.618.618,0,0,0-.967-.768c-.053.059-2.551,2.838-14.441,5.142-21.419,4.145-50.038,7.288-85.059,9.346a.616.616,0,0,0,.035,1.231Z" transform="translate(-10.499 -152.676)" fill="#2d1d2c"/>
              <path id="Path_7063" data-name="Path 7063" d="M179.49,296.983a.614.614,0,0,0,.616-.61c.064-8.027-.663-16.751-1.36-25.189-.932-11.24-1.812-21.859-.985-30.917a.615.615,0,0,0-1.225-.111c-.833,9.17.053,19.836.985,31.128.7,8.408,1.419,17.1,1.354,25.077a.616.616,0,0,0,.61.621h0Z" transform="translate(11.982 -99.153)" fill="#2d1d2c"/>
              <path id="Path_7064" data-name="Path 7064" d="M299.1,269.529a.592.592,0,0,0,.293-.076.618.618,0,0,0,.246-.838,34.8,34.8,0,0,1-3.348-18.956c1.29-10.437,7.464-22.005,7.523-22.122a.619.619,0,0,0-1.091-.586c-.064.117-6.344,11.891-7.663,22.556a35.411,35.411,0,0,0,3.495,19.7.615.615,0,0,0,.539.322Z" transform="translate(-181.35 -93.782)" fill="#2d1d2c"/>
              <path id="Path_7065" data-name="Path 7065" d="M224.854,313.363a.63.63,0,0,0,.346-.106c12.037-8.074,29.023-.756,29.194-.68a.618.618,0,0,0,.5-1.132c-.721-.317-17.772-7.669-30.378.786a.618.618,0,0,0,.346,1.132Z" transform="translate(-91.335 -127.524)" fill="#2d1d2c"/>
            </g>
            <path id="Path_7066" data-name="Path 7066" d="M585.3,347.651a.537.537,0,0,0,.094-.006.625.625,0,0,0,.522-.7c-6.356-42.316-20.686-70.073-45.089-87.352a.618.618,0,1,0-.715,1.008c24.11,17.074,38.276,44.567,44.585,86.525a.622.622,0,0,0,.61.528Z" transform="translate(-531.802 -107.386)" fill="#fdf4e2"/>
            <path id="Path_7067" data-name="Path 7067" d="M601.952,284.1a.609.609,0,0,0,.393-.141.622.622,0,0,0,.217-.563L599.9,265.357a.619.619,0,0,0-1.225.182l2.515,17.051a142.592,142.592,0,0,0-20.416-4.708.616.616,0,0,0-.176,1.22,138.289,138.289,0,0,1,21.149,4.972.6.6,0,0,0,.2.035Z" transform="translate(-572.032 -109.588)" fill="#fdf4e2"/>
            <path id="Path_7068" data-name="Path 7068" d="M576.419,323.121a.625.625,0,0,0,.6-.487c2.064-9.411,1.149-20.252,1.138-20.363a.625.625,0,0,0-.668-.563.618.618,0,0,0-.563.668,78.665,78.665,0,0,1-.985,19.384,109.015,109.015,0,0,1-19.155-6.573.618.618,0,1,0-.522,1.12,108.739,108.739,0,0,0,20.023,6.8.482.482,0,0,0,.129.012Z" transform="translate(-533.67 -124.847)" fill="#fdf4e2"/>
            <path id="Path_7069" data-name="Path 7069" d="M549.571,370.079a.571.571,0,0,0,.2-.035.635.635,0,0,0,.375-.352l6.08-15.151a.617.617,0,0,0-1.143-.463l-5.816,14.482L535.61,360.6a.617.617,0,1,0-.622,1.067l14.277,8.326a.648.648,0,0,0,.311.082Z" transform="translate(-499.123 -146.361)" fill="#fdf4e2"/>
            <ellipse id="Ellipse_86" data-name="Ellipse 86" cx="7.681" cy="7.681" rx="7.681" ry="7.681" transform="translate(302.28 51.491) rotate(-170.82)" fill="#f3f3e7"/>
          </g>
        </g>
      </g>
    </g>
  </g>
</svg>
