<?xml version="1.0" encoding="utf-8"?>
<svg xmlns="http://www.w3.org/2000/svg" xmlns:xlink="http://www.w3.org/1999/xlink">
<!-- [ FORUM ICONS ========= -->
<symbol id="q-mark" xmlns="http://www.w3.org/2000/svg" viewBox="0 0 24 24">
  <path d="M12,22A10,10,0,1,1,22,12,10,10,0,0,1,12,22Zm0-2a8,8,0,1,0-8-8A8,8,0,0,0,12,20Zm-1-5h2v2H11Zm2-1.645V14H11V12.5a1,1,0,0,1,1-1,1.5,1.5,0,1,0-1.471-1.794L8.567,9.313A3.5,3.5,0,1,1,13,13.355Z"/>
</symbol>

<symbol id="colored-fb" xmlns="http://www.w3.org/2000/svg" viewBox="0 0 24 24">
    <path d="M15.4,21V14.034h2.333l.349-2.708H15.4V9.6c0-.784.218-1.319,1.342-1.319h1.434V5.857a19.191,19.191,0,0,0-2.09-.107,3.263,3.263,0,0,0-3.482,3.58v2H10.268v2.708h2.338V21H4a1,1,0,0,1-1-1V4A1,1,0,0,1,4,3H20a1,1,0,0,1,1,1V20a1,1,0,0,1-1,1Z" fill="#227bef"/>
</symbol>

<symbol id="colored-google" xmlns="http://www.w3.org/2000/svg" width="24" height="24" viewBox="0 0 24 24">
  <g transform="translate(2.999 3.001)">
    <path d="M23.1,13.306a10.381,10.381,0,0,0-.159-1.829h-8.66v3.466h4.958a4.162,4.162,0,0,1-1.835,2.735v2.249h2.959A8.7,8.7,0,0,0,23.1,13.306Z" transform="translate(-5.101 -4.099)" fill="#4285f4"/>
    <path d="M9.724,23.958a8.893,8.893,0,0,0,6.086-2.173l-2.959-2.249a5.575,5.575,0,0,1-3.124.86,5.484,5.484,0,0,1-5.155-3.714H1.519V19A9.205,9.205,0,0,0,9.724,23.958Z" transform="translate(-0.542 -5.958)" fill="#34a853"/>
    <path d="M4.027,13.481a5.29,5.29,0,0,1,0-3.446V7.717H.977a8.849,8.849,0,0,0,0,8.082l3.05-2.318Z" transform="translate(0 -2.756)" fill="#fbbc04"/>
    <path d="M9.724,3.562a5.045,5.045,0,0,1,3.522,1.349l2.621-2.57A8.923,8.923,0,0,0,9.724,0a9.2,9.2,0,0,0-8.2,4.961L4.57,7.279A5.482,5.482,0,0,1,9.726,3.562Z" transform="translate(-0.543)" fill="#ea4335"/>
  </g>
</symbol>


<symbol id="icon-chat" xmlns="http://www.w3.org/2000/svg" viewBox="0 0 24 24">
  <path d="M8.4,3h3.2a6.4,6.4,0,1,1,0,12.8v2.8C7.6,17,2,14.6,2,9.4A6.4,6.4,0,0,1,8.4,3ZM10,14.2h1.6a4.8,4.8,0,1,0,0-9.6H8.4A4.8,4.8,0,0,0,3.6,9.4c0,2.888,1.97,4.773,6.4,6.784Z" transform="translate(2 1)" />
</symbol>


<symbol id="icon-views" xmlns="http://www.w3.org/2000/svg" viewBox="0 0 24 24">
  <path d="M9.681,3a8.646,8.646,0,0,1,8.5,7.071,8.644,8.644,0,0,1-17,0A8.645,8.645,0,0,1,9.681,3Zm0,12.57a7.074,7.074,0,0,0,6.9-5.5,7.075,7.075,0,0,0-13.791,0,7.075,7.075,0,0,0,6.9,5.5Zm0-1.964a3.535,3.535,0,1,1,3.535-3.535A3.535,3.535,0,0,1,9.681,13.606Zm0-1.571a1.964,1.964,0,1,0-1.964-1.964A1.964,1.964,0,0,0,9.681,12.035Z" transform="translate(2.819 2)"/>
</symbol>


<symbol id="icon-search" xmlns="http://www.w3.org/2000/svg" viewBox="0 0 24 24">
    <path d="M18.031 16.617l4.283 4.282-1.415 1.415-4.282-4.283A8.96 8.96 0 0 1 11 20c-4.968 0-9-4.032-9-9s4.032-9 9-9 9 4.032 9 9a8.96 8.96 0 0 1-1.969 5.617zm-2.006-.742A6.977 6.977 0 0 0 18 11c0-3.868-3.133-7-7-7-3.868 0-7 3.132-7 7 0 3.867 3.132 7 7 7a6.977 6.977 0 0 0 4.875-1.975l.15-.15z"/>
</symbol>


<symbol id="icon-share" xmlns="http://www.w3.org/2000/svg" viewBox="0 0 24 24">
  <g transform="translate(-6 -7.499)">
    <path d="M11.115,13.989,7.141,11.821a2.722,2.722,0,1,1,0-3.864l3.975-2.168a2.722,2.722,0,1,1,.745,1.365L7.886,9.322a2.733,2.733,0,0,1,0,1.134l3.975,2.168a2.722,2.722,0,1,1-.745,1.365Z" transform="translate(8.5 10)"/>
  </g>
</symbol>

<symbol id="icon-ftag" xmlns="http://www.w3.org/2000/svg" viewBox="0 0 463.552 463.552">
  <path d="M45.415,31.707c-7.168,0-13,5.832-13,13s5.832,13,13,13s13-5.832,13-13S52.583,31.707,45.415,31.707z M45.415,55.707
    c-6.065,0-11-4.935-11-11s4.935-11,11-11s11,4.935,11,11S51.48,55.707,45.415,55.707z"/>
  <path d="M51.415,43.707h-5v-5c0-0.553-0.448-1-1-1s-1,0.447-1,1v5h-5c-0.552,0-1,0.447-1,1s0.448,1,1,1h5v5c0,0.553,0.448,1,1,1
    s1-0.447,1-1v-5h5c0.552,0,1-0.447,1-1S51.967,43.707,51.415,43.707z"/>
  <polygon points="0,31.92 25.147,57.121 31.289,50.996 6.115,25.822"/>
  <path d="M29.415,44.707c0-8.822,7.178-16,16-16c2.402,0,4.673,0.547,6.719,1.499l4.281-4.27V11.796L45.3,0.707H31.295L7.531,24.409
    l21.973,21.973C29.446,45.832,29.415,45.273,29.415,44.707z M42.43,9.707c2.17,0,3.935,1.766,3.935,3.936s-1.765,3.935-3.935,3.935
    s-3.935-1.765-3.935-3.935S40.26,9.707,42.43,9.707z"/>
</symbol>

<symbol id="icon-add_ftag" xmlns="http://www.w3.org/2000/svg" viewBox="0 0 59.415 59.415">
  <path d="M50.09,32.745l6.325-6.308V12.296L45.3,1.207H31.295h0l-0.759,0.757L6,26.42l0.008,0.008L0,32.42l25.147,25.201
		l8.796-8.773c1.58,5.4,6.568,9.359,12.471,9.359c7.168,0,13-5.832,13-13C59.415,39.316,55.473,34.335,50.09,32.745z M44.473,3.207
		l9.942,9.919v12.48l-6.69,6.667c-0.094-0.01-0.191-0.007-0.286-0.015c-0.074-0.006-0.149-0.013-0.222-0.019
		c-0.057-0.004-0.118-0.011-0.174-0.015c-0.215-0.012-0.423-0.019-0.628-0.019c-7.168,0-13,5.832-13,13
		c0,0.199,0.006,0.401,0.018,0.611c0.004,0.072,0.013,0.15,0.018,0.224c0.005,0.065,0.01,0.132,0.016,0.2
		c0.006,0.076,0.004,0.155,0.012,0.231l-2.328,2.321L8.837,26.432L32.122,3.207H44.473z M2.829,32.424l4.592-4.58l22.321,22.369
		l-4.592,4.58L2.829,32.424z M46.415,56.207c-5.549,0-10.139-4.134-10.883-9.481l-0.003-0.02c-0.022-0.161-0.033-0.3-0.049-0.448
		c-0.008-0.073-0.018-0.152-0.024-0.222c-0.021-0.275-0.042-0.549-0.042-0.829c0-6.065,4.935-11,11-11
		c0.281,0,0.557,0.021,0.833,0.042c0.044,0.004,0.094,0.011,0.139,0.015c0.18,0.018,0.356,0.034,0.556,0.062l0.025,0.003
		c5.331,0.759,9.447,5.341,9.447,10.877C57.415,51.273,52.48,56.207,46.415,56.207z"/>
	<path d="M52.415,44.207h-5v-5c0-0.553-0.448-1-1-1s-1,0.447-1,1v5h-5c-0.552,0-1,0.447-1,1s0.448,1,1,1h5v5c0,0.553,0.448,1,1,1
		s1-0.447,1-1v-5h5c0.552,0,1-0.447,1-1S52.967,44.207,52.415,44.207z"/>
	<path d="M42.43,18.077c2.17,0,3.935-1.765,3.935-3.935s-1.765-3.936-3.935-3.936s-3.936,1.766-3.936,3.936
		S40.26,18.077,42.43,18.077z M42.43,12.207c1.067,0,1.935,0.868,1.935,1.936c0,1.066-0.868,1.935-1.935,1.935
		c-1.067,0-1.936-0.868-1.936-1.935C40.494,13.075,41.362,12.207,42.43,12.207z"/>
</symbol>

<symbol id="icon-subsc_ftag" xmlns="http://www.w3.org/2000/svg" viewBox="0 0 56.414 56.414">
  <path d="M48.098,25.007c-2.396,0-4.407,1.449-5.684,3.213c-1.276-1.764-3.288-3.213-5.684-3.213c-3.819,0-6.871,2.963-7.27,7.051
		c-0.042,0.269-0.145,1.222,0.225,2.71c0.545,2.197,1.8,4.191,3.631,5.771l8.329,7.126c0.223,0.191,0.496,0.287,0.77,0.287
		c0.272,0,0.545-0.095,0.768-0.285l8.331-7.13c1.829-1.576,3.084-3.57,3.63-5.768c0.369-1.489,0.267-2.441,0.225-2.71
		C54.97,27.97,51.918,25.007,48.098,25.007z M53.202,34.287c-0.445,1.794-1.48,3.431-2.991,4.732l-7.796,6.672l-7.795-6.67
		c-1.514-1.305-2.549-2.941-2.993-4.735c-0.302-1.213-0.193-1.896-0.194-1.896l0.017-0.106c0.244-2.621,2.137-5.275,5.281-5.275
		c2.189,0,3.974,1.811,4.77,3.605l0.914,2.061l0.914-2.061c0.796-1.795,2.58-3.605,4.77-3.605c3.146,0,5.038,2.654,5.296,5.368
		C53.395,32.382,53.505,33.066,53.202,34.287z"/>
	<path d="M46.364,12.943c0-2.17-1.765-3.936-3.935-3.936s-3.936,1.766-3.936,3.936s1.766,3.935,3.936,3.935
		S46.364,15.113,46.364,12.943z M40.494,12.943c0-1.067,0.868-1.936,1.936-1.936c1.066,0,1.935,0.868,1.935,1.936
		c0,1.066-0.868,1.935-1.935,1.935C41.362,14.877,40.494,14.009,40.494,12.943z"/>
	<path d="M45.299,0.007H31.295l-25.3,25.217l0.009,0.008L0,31.22l25.133,25.187l7.714-7.387L8.84,25.228L32.121,2.007h12.352
		l9.941,9.919v12.896h2V11.096L45.299,0.007z M29.981,48.995l-4.817,4.613L2.828,31.224l4.596-4.584L29.981,48.995z"/>
</symbol>

<symbol viewBox="0 0 469.333 469.333" id="edit" xmlns="http://www.w3.org/2000/svg">
  <path d="M21.333 426.667H448v42.667H21.333zM327.253 0L64 263.253V384h120.747L448 120.747 327.253 0zM167.04 341.333h-60.373V280.96L327.253 60.373l60.373 60.373L167.04 341.333z"/>
</symbol>

<symbol viewBox="0 0 24 24" id="message" xmlns="http://www.w3.org/2000/svg">
  <path fill="none" d="M0 0h24v24H0z"/>
  <path d="M1 15.638a.645.645 0 001.019.525l3.544-2.528a1.734 1.734 0 011.012-.324h7.794a2.491 2.491 0 002.488-2.488V2.645A.645.645 0 0016.212 2H3.488A2.491 2.491 0 001 4.488zm1.289-11.15a1.2 1.2 0 011.2-1.2h12.08v7.534a1.2 1.2 0 01-1.2 1.2H6.575a3.016 3.016 0 00-1.761.564l-2.525 1.8z"/>
  <path d="M23 9.487a2.491 2.491 0 00-2.488-2.488H18.79a.645.645 0 000 1.289h1.722a1.2 1.2 0 011.2 1.2v9.9l-2.525-1.8a3.015 3.015 0 00-1.761-.564H9.632a1.2 1.2 0 01-1.2-1.2v-.577a.645.645 0 00-1.289 0v.577a2.491 2.491 0 002.488 2.488h7.794a1.734 1.734 0 011.012.324l3.544 2.528A.645.645 0 0023 20.639V9.489zM5.635 6.8h7.447a.645.645 0 100-1.289H5.635a.645.645 0 100 1.289zM5.635 9.808h7.447a.645.645 0 000-1.289H5.635a.645.645 0 000 1.289z"/>
</symbol>

<symbol viewBox="0 0 24 24" id="add" xmlns="http://www.w3.org/2000/svg">
  <path d="M11 11V7h2v4h4v2h-4v4h-2v-4H7v-2h4zm1 11C6.477 22 2 17.523 2 12S6.477 2 12 2s10 4.477 10 10-4.477 10-10 10zm0-2a8 8 0 1 0 0-16 8 8 0 0 0 0 16z"></path>
</symbol>

<symbol viewBox="0 0 17 16.995" id="cancel" xmlns="http://www.w3.org/2000/svg">
  <path d="M14.514 2.485a8.5 8.5 0 100 12.023 8.513 8.513 0 000-12.023zm-.931 11.092a7.185 7.185 0 110-10.161 7.194 7.194 0 010 10.162z"/>
  <path d="M11.34 10.318L9.476 8.456l1.864-1.862a.659.659 0 10-.931-.932L8.543 7.525 6.677 5.662a.659.659 0 10-.931.932L7.61 8.456l-1.864 1.862a.659.659 0 00.931.932l1.866-1.863 1.866 1.863a.659.659 0 10.931-.932z"/>
</symbol>

<symbol viewBox="0 0 493.636 493.636" id="alert" xmlns="http://www.w3.org/2000/svg">
      <path d="M421.428,72.476C374.868,25.84,312.86,0.104,246.724,0.044C110.792,0.044,0.112,110.624,0,246.548
			c-0.068,65.912,25.544,127.944,72.1,174.584c46.564,46.644,108.492,72.46,174.4,72.46h0.58v-0.048
			c134.956,0,246.428-110.608,246.556-246.532C493.7,181.12,468,119.124,421.428,72.476z M257.516,377.292
			c-2.852,2.856-6.844,4.5-10.904,4.5c-4.052,0-8.044-1.66-10.932-4.516c-2.856-2.864-4.496-6.852-4.492-10.916
			c0.004-4.072,1.876-8.044,4.732-10.884c2.884-2.86,7.218-4.511,11.047-4.542c3.992,0.038,7.811,1.689,10.677,4.562
			c2.872,2.848,4.46,6.816,4.456,10.884C262.096,370.46,260.404,374.432,257.516,377.292z M262.112,304.692
			c-0.008,8.508-6.928,15.404-15.448,15.404c-8.5-0.008-15.42-6.916-15.416-15.432L231.528,135
			c0.004-8.484,3.975-15.387,15.488-15.414c4.093,0.021,7.895,1.613,10.78,4.522c2.912,2.916,4.476,6.788,4.472,10.912
			L262.112,304.692z"/>
</symbol>

<symbol viewBox="0 0 64 64" id="icon-frm-question" xmlns="http://www.w3.org/2000/svg">
      <path d="M58,17h-1V1H7v16H6c-2.757,0-5,2.243-5,5v30c0,2.757,2.243,5,5,5h13v4h-4v2h34v-2h-4v-4h13c2.757,0,5-2.243,5-5V22   C63,19.243,60.757,17,58,17z M9,11h46v32H9V11z M55,3v6H9V3H55z M6,19h1v26h50V19h1c1.654,0,3,1.346,3,3v27H3V22   C3,20.346,4.346,19,6,19z M43,61H21v-4h22V61z M58,55H6c-1.654,0-3-1.346-3-3v-1h58v1C61,53.654,59.654,55,58,55z"/><rect height="2" width="2" x="11" y="5"/><rect height="2" width="2" x="15" y="5"/><rect height="2" width="2" x="19" y="5"/><path d="M32.531,15h-1.062C28.454,15,26,17.454,26,20.469V22h2v-1.531C28,18.556,29.556,17,31.469,17h1.062   C34.444,17,36,18.556,36,20.469c0,1.212-0.646,2.352-1.685,2.975L31,25.434V31h2v-4.434l2.345-1.407   c1.638-0.982,2.655-2.78,2.655-4.69C38,17.454,35.546,15,32.531,15z"/><path d="M32,33c-1.654,0-3,1.346-3,3s1.346,3,3,3s3-1.346,3-3S33.654,33,32,33z M32,37c-0.551,0-1-0.449-1-1s0.449-1,1-1   s1,0.449,1,1S32.551,37,32,37z"/><rect height="2" width="13" x="11" y="13"/><rect height="2" width="13" x="11" y="17"/><rect height="2" width="13" x="11" y="21"/><rect height="2" width="13" x="11" y="25"/><rect height="2" width="13" x="11" y="29"/><rect height="2" width="13" x="40" y="23"/><rect height="2" width="13" x="40" y="27"/><rect height="2" width="13" x="40" y="31"/><rect height="2" width="13" x="40" y="35"/><rect height="2" width="13" x="40" y="39"/>
</symbol>

<symbol viewBox="0 0 512 512" id="icon-tick" xmlns="http://www.w3.org/2000/svg">
      <path d="M256,0C114.615,0,0,114.615,0,256s114.615,256,256,256s256-114.615,256-256S397.385,0,256,0z M386.594,226.664
			L252.747,360.511c-7.551,7.551-17.795,11.794-28.475,11.794s-20.923-4.243-28.475-11.795l-70.388-70.389
			c-15.726-15.726-15.726-41.223,0.001-56.95c15.727-15.725,41.224-15.726,56.95,0.001l41.913,41.915l105.371-105.371
			c15.727-15.726,41.223-15.726,56.951,0.001C402.319,185.44,402.319,210.938,386.594,226.664z"/>
</symbol>

<symbol viewBox="0 0 512 512" id="icon-cross" xmlns="http://www.w3.org/2000/svg">
      <path d="M256,0C114.615,0,0,114.615,0,256s114.615,256,256,256s256-114.615,256-256S397.385,0,256,0z M386.594,226.664
			L252.747,360.511c-7.551,7.551-17.795,11.794-28.475,11.794s-20.923-4.243-28.475-11.795l-70.388-70.389
			c-15.726-15.726-15.726-41.223,0.001-56.95c15.727-15.725,41.224-15.726,56.95,0.001l41.913,41.915l105.371-105.371
			c15.727-15.726,41.223-15.726,56.951,0.001C402.319,185.44,402.319,210.938,386.594,226.664z"/>
</symbol>


<symbol id="request-tag" xmlns="http://www.w3.org/2000/svg" viewBox="0 0 24 24"><path d="M10.9 2.1l9.899 1.415 1.414 9.9-9.192 9.192a1 1 0 0 1-1.414 0l-9.9-9.9a1 1 0 0 1 0-1.414L10.9 2.1zm.707 2.122L3.828 12l8.486 8.485 7.778-7.778-1.06-7.425-7.425-1.06zm2.12 6.364a2 2 0 1 1 2.83-2.829 2 2 0 0 1-2.83 2.829z"/>
</symbol>

<symbol viewBox="0 0 15.402 14.648" id="rating" xmlns="http://www.w3.org/2000/svg">
  <path d="M7.701 11.984l-4.759 2.664L4.005 9.3l-4-3.7 5.408-.647L7.701 0l2.285 4.953 5.416.642-4 3.7 1.063 5.35z"/>
</symbol>



<symbol id="icon-report" xmlns="http://www.w3.org/2000/svg" viewBox="0 0 24 24">
  <g transform="translate(-15 10)">
		<path d="M4.556,13.111v4.667H3V3h7.3a.778.778,0,0,1,.7.43l.563,1.125h4.667A.778.778,0,0,1,17,5.333v8.556a.778.778,0,0,1-.778.778H11.258a.778.778,0,0,1-.7-.43L10,13.111Zm0-8.556v7h6.406l.778,1.556h3.705v-7h-4.85L9.816,4.556Z" transform="translate(17 -8)"/>
  </g>
</symbol>

<symbol id="view-icon" xmlns="http://www.w3.org/2000/svg" viewBox="0 0 24 24">
        <path d="M12 3c5.392 0 9.878 3.88 10.819 9-.94 5.12-5.427 9-10.819 9-5.392 0-9.878-3.88-10.819-9C2.121 6.88 6.608 3 12 3zm0 16a9.005 9.005 0 0 0 8.777-7 9.005 9.005 0 0 0-17.554 0A9.005 9.005 0 0 0 12 19zm0-2.5a4.5 4.5 0 1 1 0-9 4.5 4.5 0 0 1 0 9zm0-2a2.5 2.5 0 1 0 0-5 2.5 2.5 0 0 0 0 5z"></path>
    </symbol>


<!-- ] -->
</svg>