<svg xmlns="http://www.w3.org/2000/svg" width="255" height="166" viewBox="0 0 255 166">
  <g id="Group_921" data-name="Group 921" transform="translate(-1215 -585)">
    <rect id="Rectangle_3172" data-name="Rectangle 3172" width="255" height="166" transform="translate(1215 585)" fill="none"/>
    <g id="OBJECTS" transform="translate(1230 543)">
      <g id="Group_920" data-name="Group 920">
        <g id="Group_898" data-name="Group 898" transform="translate(0.835 71.206)">
          <g id="Group_897" data-name="Group 897" transform="translate(0 26.851)">
            <path id="Path_6966" data-name="Path 6966" d="M230.441,673.2a37.526,37.526,0,0,0-19.9-19.437c-9.145-3.7-19.647-2.356-29.281-3.6-8.367-1.077-14.4-4.812-19.4-11.453-4.787-6.363-9.079-13.409-16.9-16.353-6.184-2.326-13.215-1.68-19.361.742-11.325,4.466-19.879,13.96-27.084,23.42-6.577,8.637-11.942,18.093-24.109,18.4s-23.764-6.636-36.021-4.8c-16.2,2.432-29.693,15.919-32.52,31.973a39.482,39.482,0,0,0,15.421,38.216H217.62C232.014,715.05,239.565,693.957,230.441,673.2Z" transform="translate(-5.286 -620.916)" fill="#f7f0e3"/>
            <g id="Group_896" data-name="Group 896" transform="translate(6.281 3.034)">
              <path id="Path_6967" data-name="Path 6967" d="M276.062,939.284h.54a41.42,41.42,0,0,0,8.556-14.677,38.562,38.562,0,0,0-.358-26.559,76.4,76.4,0,0,0-6.317-11.655,74.829,74.829,0,0,1-6.372-11.814,26.352,26.352,0,0,1-1.475-5.459c-.136-.017-.272-.032-.406-.049a26.662,26.662,0,0,0,1.514,5.652A75.05,75.05,0,0,0,278.15,886.6a76.143,76.143,0,0,1,6.285,11.593,38.161,38.161,0,0,1,.351,26.288,40.976,40.976,0,0,1-8.722,14.8Z" transform="translate(-234.67 -832.915)" fill="#fff"/>
              <path id="Path_6968" data-name="Path 6968" d="M605.5,729.377c4.046.862,7.944,1.635,11.713,2.121.065-.125.128-.25.191-.374-3.8-.483-7.737-1.262-11.822-2.133-6.222-1.325-12.956-2.761-19.636-2.761a34.836,34.836,0,0,0-12.207,2.017,24.969,24.969,0,0,0-4.321,2.1c-3.574-1.522-7.167-3.185-10.725-5.011q3.873-2.918,7.83-5.692c19.579-13.671,37.649-21.422,55.106-23.622-.035-.128-.071-.256-.107-.384-17.5,2.217-35.612,9.989-55.223,23.682-2.694,1.881-5.358,3.828-7.994,5.815a132.3,132.3,0,0,1-11.784-6.848,102.588,102.588,0,0,1-22.409-19.668c27.945-3.135,56.394-7.084,79.628-22.613.883-.589,1.86-1.285,2.873-2.073l-.338-.237c-.97.752-1.906,1.415-2.753,1.982-23.227,15.524-51.731,19.444-79.71,22.578A76.767,76.767,0,0,1,511,676.473c-4.929-13.056-4.668-25.866.714-35.151.234-.4.48-.8.734-1.192-.224.1-.447.21-.67.317q-.208.336-.406.677c-5.442,9.387-5.712,22.321-.742,35.487a77.144,77.144,0,0,0,12.713,21.7q-2.43.272-4.855.539c-5.826.643-11.852,1.308-17.7,2.061-2.135.275-4.307.6-6.469,1-4.632-9.777-9.72-19.314-16.3-27.494l-.284.278c6.521,8.117,11.577,17.585,16.182,27.292-9.425,1.8-18.576,5.177-23.463,13.041-4.564,7.345-4.559,17.5.013,30.176.158.439.321.87.486,1.3h.423c-.182-.469-.362-.944-.537-1.434-4.529-12.56-4.545-22.6-.049-29.835,4.828-7.771,13.93-11.105,23.3-12.88,1.636,3.459,3.215,6.947,4.785,10.413l.171.377c5.453,12.037,11.093,23.652,18.475,33.36h.493c-7.451-9.725-13.122-21.41-18.61-33.522l-.171-.378c-1.557-3.436-3.124-6.895-4.744-10.325,2.119-.392,4.25-.706,6.344-.974,5.846-.753,11.869-1.418,17.7-2.061q2.551-.282,5.112-.567a102.9,102.9,0,0,0,22.664,19.944,132.229,132.229,0,0,0,11.652,6.781c-6.716,5.08-13.248,10.424-19.627,15.642q-3.314,2.71-6.694,5.458h.625q3.186-2.584,6.318-5.151c6.423-5.254,13-10.638,19.766-15.747,3.539,1.821,7.111,3.481,10.666,5a29.43,29.43,0,0,0-11.222,13.7c-.3.728-.562,1.464-.8,2.2h.415c.229-.687.474-1.372.753-2.051a28.976,28.976,0,0,1,11.3-13.659,260.763,260.763,0,0,0,28.093,9.837l.316.093a54.362,54.362,0,0,1,10.352,3.838c.09-.1.18-.2.268-.306a54.041,54.041,0,0,0-10.508-3.91l-.316-.093a261.434,261.434,0,0,1-27.788-9.711,24.5,24.5,0,0,1,4.008-1.92c10.243-3.8,21.6-1.375,31.624.76Z" transform="translate(-400.396 -640.13)" fill="#fff"/>
              <path id="Path_6969" data-name="Path 6969" d="M55.77,968.763a31.625,31.625,0,0,1-2.135,21.149,36.412,36.412,0,0,1-8.575,11.075c.071.112.145.223.218.333a36.8,36.8,0,0,0,8.711-11.235,32.029,32.029,0,0,0,2.164-21.418,27.169,27.169,0,0,0-7.985-13.888c-.085.1-.171.2-.254.3a26.8,26.8,0,0,1,7.855,13.679Z" transform="translate(-45.06 -905.089)" fill="#fff"/>
            </g>
          </g>
          <path id="Path_6970" data-name="Path 6970" d="M546.269,454.026a14.756,14.756,0,0,1,3.084,14.894,23.912,23.912,0,0,1-10.7,12.479c-3.891,2.265-8.967,3.514-12.793,1.142-2.86-1.772-4.343-5.249-4.425-8.612a22.394,22.394,0,0,1,2.446-9.7c1.971-4.313,4.622-8.5,8.574-11.119C537.9,449.492,542.962,450.648,546.269,454.026Z" transform="translate(-439.922 -450.888)" fill="#f7f0e3"/>
        </g>
        <g id="Group_899" data-name="Group 899" transform="translate(0 102)">
          <path id="Path_6971" data-name="Path 6971" d="M238.15,12.722H209.67V0h28.48Zm-27.888-.592h27.3V.592h-27.3Z" transform="translate(-191.142)" fill="#e9ddca"/>
          <path id="Path_6972" data-name="Path 6972" d="M120.83,89.764H92.35V77.04h28.48V89.762Zm-27.888-.592h27.3V77.632h-27.3V89.17Z" transform="translate(-92.35 -64.874)" fill="#e9ddca"/>
        </g>
        <g id="Group_902" data-name="Group 902" transform="translate(119.349 68.548)">
          <g id="Group_900" data-name="Group 900">
            <path id="Path_6973" data-name="Path 6973" d="M863.614,459.708a28.985,28.985,0,0,0-6.407-11.132,34.506,34.506,0,0,0-12.533-8.4q-7.938-3.319-20.171-3.318a78.935,78.935,0,0,0-19.892,2.633,59.122,59.122,0,0,0-17.6,7.52l6.475,17.777-3.47,2.811,5.033,1.48a73.9,73.9,0,0,1,13.578-5.665,46.93,46.93,0,0,1,13.007-1.755q6.893,0,10.421,3.318a10.592,10.592,0,0,1,3.536,8.01,15.378,15.378,0,0,1-3.629,10.058q-3.643,4.4-8.038,8.888-3.053,3.117-5.927,6.44a46.251,46.251,0,0,0-5.068,7.133,38.815,38.815,0,0,0-3.536,8.2,33.643,33.643,0,0,0-1.339,9.861c0,1.177.025,2.574.093,4.2.011.3.027.592.046.881h-4.758l5.193,3.511h25.246a16.74,16.74,0,0,1-.193-2.734v-2.345a16.943,16.943,0,0,1,1.339-6.541,33.809,33.809,0,0,1,3.35-6.154,45.71,45.71,0,0,1,4.494-5.564q2.485-2.641,4.782-4.984,3.053-3.117,6.307-6.638a52.13,52.13,0,0,0,5.74-7.419,41.691,41.691,0,0,0,4.109-8.5,29.919,29.919,0,0,0,1.631-10.058,40.189,40.189,0,0,0-1.818-11.52Z" transform="translate(-782.072 -436.418)" fill="#e49b31"/>
            <path id="Path_6974" data-name="Path 6974" d="M789.956,458.063a47.314,47.314,0,0,0-12.853,1.7,73.975,73.975,0,0,0-13.419,5.482l-7.944-21.356a59.055,59.055,0,0,1,17.394-7.279,79.574,79.574,0,0,1,19.658-2.547q12.09,0,19.935,3.212a34.14,34.14,0,0,1,12.386,8.128,27.916,27.916,0,0,1,6.331,10.773,38.176,38.176,0,0,1,1.8,11.149,28.438,28.438,0,0,1-1.612,9.734,40.01,40.01,0,0,1-4.06,8.226,50.657,50.657,0,0,1-5.673,7.181q-3.212,3.406-6.233,6.423-2.269,2.269-4.725,4.825a44.233,44.233,0,0,0-4.442,5.384,32.534,32.534,0,0,0-3.31,5.955,16.123,16.123,0,0,0-1.323,6.331v2.271a15.858,15.858,0,0,0,.191,2.645H777.1a26.4,26.4,0,0,1-.474-4.251c-.068-1.574-.092-2.929-.092-4.067a31.95,31.95,0,0,1,1.323-9.543,37.1,37.1,0,0,1,3.495-7.937,44.784,44.784,0,0,1,5.008-6.9q2.833-3.212,5.857-6.233,4.347-4.347,7.943-8.6a14.686,14.686,0,0,0,3.586-9.734,10.154,10.154,0,0,0-3.495-7.752Q796.757,458.063,789.956,458.063Z" transform="translate(-755.74 -434.06)" fill="#fbc343"/>
          </g>
          <g id="Group_901" data-name="Group 901" transform="translate(19.816 103.433)">
            <path id="Path_6975" data-name="Path 6975" d="M939.147,1103.6q0,6.581-4.261,10.159a14.742,14.742,0,0,1-19.271,0q-4.252-3.582-4.255-10.159t4.256-10.159a14.805,14.805,0,0,1,15.958-1.922,13.681,13.681,0,0,1,7.574,12.081Z" transform="translate(-906.6 -1089.86)" fill="#e49b31"/>
            <path id="Path_6976" data-name="Path 6976" d="M909.007,1102.764q0,6.581-4.261,10.159a14.742,14.742,0,0,1-19.271,0q-4.252-3.582-4.254-10.159t4.254-10.159a14.742,14.742,0,0,1,19.271,0Q909,1096.194,909.007,1102.764Z" transform="translate(-881.22 -1089.02)" fill="#fbc343"/>
          </g>
        </g>
        <g id="Group_919" data-name="Group 919" transform="translate(12.807 43.167)">
          <g id="Group_905" data-name="Group 905" transform="translate(10.012 0)">
            <circle id="Ellipse_68" data-name="Ellipse 68" cx="4.13" cy="4.13" r="4.13" transform="translate(28.366 47.093) rotate(-79.38)" fill="#ccd7f0"/>
            <ellipse id="Ellipse_69" data-name="Ellipse 69" cx="2.323" cy="2.339" rx="2.323" ry="2.339" transform="translate(34.187 53.72) rotate(-79.39)" fill="#ccd7f0"/>
            <g id="Group_904" data-name="Group 904">
              <circle id="Ellipse_70" data-name="Ellipse 70" cx="16.26" cy="16.26" r="16.26" transform="translate(0 22.995) rotate(-45)" fill="#ccd7f0"/>
              <g id="Group_903" data-name="Group 903" transform="translate(14.702 20.947)">
                <circle id="Ellipse_71" data-name="Ellipse 71" cx="2.048" cy="2.048" r="2.048" fill="#fff"/>
                <circle id="Ellipse_72" data-name="Ellipse 72" cx="2.048" cy="2.048" r="2.048" transform="translate(6.243)" fill="#fff"/>
                <circle id="Ellipse_73" data-name="Ellipse 73" cx="2.048" cy="2.048" r="2.048" transform="translate(12.487)" fill="#fff"/>
              </g>
            </g>
          </g>
          <g id="Group_918" data-name="Group 918" transform="translate(0 58.532)">
            <g id="Group_908" data-name="Group 908" transform="translate(9.524 64.68)">
              <g id="Group_906" data-name="Group 906" transform="translate(11.734 26.632)">
                <path id="Path_6977" data-name="Path 6977" d="M215.8,1228.418l1.519,5.857a3.355,3.355,0,0,0,3.507,2.448c4.981-.338,15.331-1.559,21.272-5.938l-1.688-8.441c-8.168-.461-15.8-.006-22.42,2.219a3.233,3.233,0,0,0-2.189,3.853Z" transform="translate(-215.703 -1222.181)" fill="#102048"/>
                <path id="Path_6978" data-name="Path 6978" d="M264.679,1250.143a.2.2,0,0,1-.189-.144l-2.04-7.3a.2.2,0,1,1,.381-.106l2.04,7.3a.2.2,0,0,1-.137.243.21.21,0,0,1-.054.008Z" transform="translate(-255.061 -1239.245)" fill="#fff"/>
                <path id="Path_6979" data-name="Path 6979" d="M292.6,1243.89a.2.2,0,0,1-.19-.144l-2.04-7.3a.2.2,0,0,1,.381-.106l2.04,7.3a.2.2,0,0,1-.137.243.209.209,0,0,1-.054.008Z" transform="translate(-278.572 -1233.979)" fill="#fff"/>
              </g>
              <path id="Path_6980" data-name="Path 6980" d="M235.732,1054.748l-18.982,5.633,14.1,19.317,20.239,1.609L279,1069.5l-10.608-15.963Z" transform="translate(-204.851 -1053.54)" fill="#fbc343"/>
              <path id="Path_6981" data-name="Path 6981" d="M364.075,1064.8c41.689-12.34,48.388,24.5-16.656,31.21a31.45,31.45,0,0,1-6.048-10.821l34.348-15.873-11.644-4.517Z" transform="translate(-309.79 -1060.911)" fill="#fbc343"/>
              <path id="Path_6982" data-name="Path 6982" d="M440.278,1235.477a18.012,18.012,0,0,1-3.819-1.857l-6.7,2.1,1.535,7.288,6.96,1.413A14.963,14.963,0,0,0,440.278,1235.477Z" transform="translate(-384.222 -1205.181)" fill="#f9b384"/>
              <path id="Path_6983" data-name="Path 6983" d="M340.727,1114.892l-.3-.512c7.167-4.164,25.52-14.169,41.159-17.12l.111.583c-15.548,2.934-33.832,12.9-40.972,17.049Z" transform="translate(-308.999 -1090.356)" fill="#e49b31"/>
              <path id="Path_6984" data-name="Path 6984" d="M172.284,1056.063c-38.8-7.378-48.853,29.914,16.192,36.621a23.615,23.615,0,0,0,5.164-9.39,296.373,296.373,0,0,0-33.405-19.093l12.051-8.138Z" transform="translate(-141.402 -1054.855)" fill="#fbc343"/>
              <path id="Path_6985" data-name="Path 6985" d="M271.446,1114.581c-1.846-1.175-3.77-2.416-5.805-3.732-10.222-6.6-21.808-14.08-31.651-18.346l.235-.543c9.888,4.284,21.495,11.779,31.736,18.392,2.036,1.314,3.958,2.555,5.8,3.73Z" transform="translate(-219.368 -1085.893)" fill="#e49b31"/>
              <path id="Path_6986" data-name="Path 6986" d="M153.918,1148.562l-.518-.286a10.884,10.884,0,0,1,6.934-5.286l.158.57A10.188,10.188,0,0,0,153.918,1148.562Z" transform="translate(-151.505 -1128.864)" fill="#e49b31"/>
              <path id="Path_6987" data-name="Path 6987" d="M634.454,1134.342a10.188,10.188,0,0,0-6.574-5l.158-.57a10.889,10.889,0,0,1,6.934,5.286Z" transform="translate(-551.054 -1116.889)" fill="#e49b31"/>
              <path id="Path_6988" data-name="Path 6988" d="M414.163,1231.634l-.433-.4a22.176,22.176,0,0,0,5.829-10.729l.58.122a22.766,22.766,0,0,1-5.974,11.012Z" transform="translate(-370.723 -1194.133)" fill="#e49b31"/>
              <g id="Group_907" data-name="Group 907" transform="translate(54.033 27.172)">
                <path id="Path_6989" data-name="Path 6989" d="M504.925,1226.555c-4.971-3.072-14.609,2.236-17.029,2.5a5.8,5.8,0,0,1-2.323-.333,14.962,14.962,0,0,1-2.023,8.946l1.183.24a34.806,34.806,0,0,0,16.842,1.252c8-1.609,7.258-10.194,3.35-12.609Z" transform="translate(-483.55 -1225.601)" fill="#102048"/>
                <path id="Path_6990" data-name="Path 6990" d="M570.2,1249.457a.2.2,0,0,1-.06-.009.2.2,0,0,1-.13-.248c.591-1.87.848-5.549-.862-8.021a.2.2,0,1,1,.325-.224c1.791,2.588,1.529,6.42.914,8.364a.2.2,0,0,1-.188.137Z" transform="translate(-555.598 -1238.458)" fill="#fff"/>
                <path id="Path_6991" data-name="Path 6991" d="M545.506,1254.147a.2.2,0,0,1-.06-.01.2.2,0,0,1-.13-.248c.591-1.87.848-5.549-.862-8.021a.2.2,0,1,1,.325-.224c1.791,2.588,1.529,6.42.914,8.364a.2.2,0,0,1-.188.137Z" transform="translate(-534.807 -1242.408)" fill="#fff"/>
              </g>
            </g>
            <g id="Group_916" data-name="Group 916">
              <g id="Group_910" data-name="Group 910" transform="translate(22.001 0.349)">
                <path id="Path_6992" data-name="Path 6992" d="M231.949,663.644s9.772-8.31,9.411-9.889c-.259-1.129-3.027.526-3.027.526s3.882-4.607,3.684-5.166c-.352-1-3.038.864-3.038.864s1.815-2.612.948-3.038-2.759,1.184-2.759,1.184,1.105-1.45.586-1.83-2.759,1.184-2.759,1.184.8-1.829-.9-1.135-13.681,11.682-13.681,11.682l11.539,5.619Z" transform="translate(-220.41 -646.186)" fill="#f9b384"/>
                <g id="Group_909" data-name="Group 909" transform="translate(10.999 1.094)">
                  <path id="Path_6993" data-name="Path 6993" d="M294.6,678.778a.2.2,0,0,1-.133-.052,8.982,8.982,0,0,0-4.267-2.475.2.2,0,0,1,.115-.377,9.275,9.275,0,0,1,4.419,2.56.2.2,0,0,1-.133.344Z" transform="translate(-290.056 -672.273)" fill="#e28b6d"/>
                  <path id="Path_6994" data-name="Path 6994" d="M299.113,706.452a.143.143,0,0,1-.027,0,.2.2,0,0,1-.167-.223,3.315,3.315,0,0,1,1.322-2.625,2.562,2.562,0,0,1,2.307.1.2.2,0,0,1-.156.362,2.2,2.2,0,0,0-1.957-.12,3.013,3.013,0,0,0-1.124,2.336.2.2,0,0,1-.2.171Z" transform="translate(-297.517 -695.438)" fill="#e28b6d"/>
                  <path id="Path_6995" data-name="Path 6995" d="M296.188,655.823a.2.2,0,0,1-.136-.341l2.453-2.31a.2.2,0,0,1,.272.287l-2.453,2.31A.2.2,0,0,1,296.188,655.823Z" transform="translate(-295.053 -653.117)" fill="#e28b6d"/>
                  <path id="Path_6996" data-name="Path 6996" d="M310.554,660.052a.2.2,0,0,1-.137-.055.2.2,0,0,1-.006-.28l2.356-2.454a.2.2,0,1,1,.286.273l-2.356,2.454a.194.194,0,0,1-.142.06Z" transform="translate(-307.15 -656.557)" fill="#e28b6d"/>
                  <path id="Path_6997" data-name="Path 6997" d="M325.252,671.323a.191.191,0,0,1-.134-.054.2.2,0,0,1-.009-.279l1.848-1.982a.2.2,0,0,1,.289.27L325.4,671.26A.2.2,0,0,1,325.252,671.323Z" transform="translate(-319.528 -666.446)" fill="#e28b6d"/>
                </g>
              </g>
              <g id="Group_911" data-name="Group 911" transform="translate(0 10.001)">
                <path id="Path_6998" data-name="Path 6998" d="M315.668,857.472l-35.73,1.382-3.948-32.572s11.961-11.345,16.563-15.524l7.77-.4C324.427,821.317,320.48,835,315.668,857.472Z" transform="translate(-245.212 -794.084)" fill="#0037b4"/>
                <path id="Path_6999" data-name="Path 6999" d="M430.07,810.36s27.577,2.358,36.27,21.252c8.507,18.488-26.452,25.07-26.452,25.07L430.07,810.36Z" transform="translate(-374.959 -794.084)" fill="#0037b4"/>
                <path id="Path_7000" data-name="Path 7000" d="M104.683,727.625l11.4-13.867L105.422,707.3A138.938,138.938,0,0,0,85.1,725.319a15.039,15.039,0,0,0-3.5,6.044,13,13,0,0,0-.335,5.674h0a10.955,10.955,0,0,0,9.682,9.172c4.341.509,20.925-.79,34.348-4.738l3.948-15.238c-2.029-1.151-17.106-1.352-24.56,1.391Z" transform="translate(-81.095 -707.3)" fill="#0037b4"/>
              </g>
              <g id="Group_912" data-name="Group 912" transform="translate(5.825 14.587)" opacity="0.8">
                <path id="Path_7001" data-name="Path 7001" d="M503.8,828.83l.178-.041c-.125-.074-.25-.145-.374-.218a59.558,59.558,0,0,1-6.162,1.189c-1.235.148-5.363.422-6.568-2.328a4.312,4.312,0,0,1,.532-3.958l-.3-.085a4.571,4.571,0,0,0-.509,4.161c1.287,2.937,5.589,2.659,6.876,2.5A60.765,60.765,0,0,0,503.8,828.83Z" transform="translate(-431.498 -809.643)" fill="#fff"/>
                <path id="Path_7002" data-name="Path 7002" d="M609.809,987.855a9.146,9.146,0,0,0-4.109-.9c-2.509.237-4.657,2.719-4.788,5.532a8.68,8.68,0,0,0,2.04,5.7l.251-.158a8.387,8.387,0,0,1-2-5.524,5.461,5.461,0,0,1,4.52-5.251,8.85,8.85,0,0,1,3.975.881c.48.185.968.373,1.464.531.025-.095.051-.191.073-.287-.483-.155-.96-.338-1.431-.52Z" transform="translate(-524.64 -947.358)" fill="#fff"/>
                <path id="Path_7003" data-name="Path 7003" d="M143.2,925.525c-1.721-1.424-4.4-1.8-7.339-1.044a12.66,12.66,0,0,0-6.415,3.8c.1.033.2.069.3.1a12.413,12.413,0,0,1,6.186-3.612c2.847-.738,5.428-.377,7.075.985a6.439,6.439,0,0,1,1.74,2.4l.306-.035a6.789,6.789,0,0,0-1.857-2.59Z" transform="translate(-127.639 -894.445)" fill="#fff"/>
                <path id="Path_7004" data-name="Path 7004" d="M117.98,747.835a35.759,35.759,0,0,0,9.278-3.6,10.132,10.132,0,0,0,3.207-2.62,4.5,4.5,0,0,0,.824-4.008,3.12,3.12,0,0,0-.8-1.267l-.227.186a2.863,2.863,0,0,1,.75,1.173,4.2,4.2,0,0,1-.78,3.74,9.861,9.861,0,0,1-3.117,2.539,34.979,34.979,0,0,1-8.744,3.457c-.129.133-.257.267-.385.4Z" transform="translate(-117.98 -736.34)" fill="#fff"/>
              </g>
              <g id="Group_914" data-name="Group 914" transform="translate(35.444)">
                <path id="Path_7005" data-name="Path 7005" d="M392.881,761.841l0,.505L392.8,770.2l-.01.851a4.891,4.891,0,0,1-9.782,0l-.095-9.706Z" transform="translate(-370.691 -742.805)" fill="#f9b384"/>
                <path id="Path_7006" data-name="Path 7006" d="M412.733,767.71l-.081,7.854c-4.365-1.777-6.162-6.5-6.162-6.5l6.241-1.352Z" transform="translate(-390.547 -748.169)" fill="#102048"/>
                <path id="Path_7007" data-name="Path 7007" d="M389.222,677.259c1.563,1.878,6.132,12.514,1.5,16.143-5.21,4.084-13.139-2.628-13.139-2.628l-1.064-12.389,6.882-1.815Z" transform="translate(-365.31 -671.422)" fill="#f9b384"/>
                <path id="Path_7008" data-name="Path 7008" d="M313.239,676.61s-15.266,7.962-2.819,30.913a6.253,6.253,0,0,0,8.169,2.8h0a6.191,6.191,0,0,0,2.715-8.648c-2.036-3.616-4-8.275-3.162-11.74l-4.9-13.321Z" transform="translate(-305.535 -671.456)" fill="#102048"/>
                <circle id="Ellipse_74" data-name="Ellipse 74" cx="4.13" cy="4.13" r="4.13" transform="translate(3.306 8.922) rotate(-45)" fill="#fbc343"/>
                <path id="Path_7009" data-name="Path 7009" d="M354.933,657.858c-.447-2.576-.719-4.343,1.886-5.671,0,0,9.177,1.669,10.928-1.794s-.918-8.926-6.506-5.131c-14.308-2.8-16.227,10.6-11.888,15.058l4.281-.657a1.56,1.56,0,0,0,1.3-1.807Z" transform="translate(-340.706 -643.974)" fill="#102048"/>
                <g id="Group_913" data-name="Group 913" transform="translate(18.463 9.185)">
                  <circle id="Ellipse_75" data-name="Ellipse 75" cx="0.61" cy="0.61" r="0.61" transform="translate(2.258 4.097)" fill="#102048"/>
                  <circle id="Ellipse_76" data-name="Ellipse 76" cx="0.61" cy="0.61" r="0.61" transform="translate(6.388 2.063)" fill="#102048"/>
                  <path id="Path_7010" data-name="Path 7010" d="M456.981,728.8a.173.173,0,0,1-.125-.292c.245-.257.513-.619.4-.883s-.611-.39-.839-.39c-.486,0-.72-.865-.763-1.039a.173.173,0,0,1,.336-.081c.088.366.291.775.426.775.234,0,.946.11,1.156.6.15.349-.006.772-.467,1.257a.168.168,0,0,1-.125.054Z" transform="translate(-450.407 -722.22)" fill="#102048"/>
                  <path id="Path_7011" data-name="Path 7011" d="M450.019,754.436a.169.169,0,0,1-.1-.03,2.308,2.308,0,0,0-2.32-.118.172.172,0,1,1-.172-.3,2.628,2.628,0,0,1,2.686.131.173.173,0,0,1-.1.316Z" transform="translate(-443.413 -745.538)" fill="#102048"/>
                  <path id="Path_7012" data-name="Path 7012" d="M425.05,713.67c.347.654-.257.785-.966,1.161s-1.434.515-1.6.2.275-.869.984-1.246,1.314-.624,1.582-.118Z" transform="translate(-422.449 -711.607)" fill="#102048"/>
                  <path id="Path_7013" data-name="Path 7013" d="M455.178,703.021c.153.583.587.328,1.219.163s1.143-.483,1.071-.761-.644-.37-1.278-.2-1.132.352-1.014.8Z" transform="translate(-449.993 -702.137)" fill="#102048"/>
                </g>
                <circle id="Ellipse_77" data-name="Ellipse 77" cx="1.799" cy="1.799" r="1.799" transform="translate(15.977 16.625) rotate(-42.69)" fill="#eb5d60" opacity="0.4"/>
                <ellipse id="Ellipse_78" data-name="Ellipse 78" cx="2.437" cy="2.768" rx="2.437" ry="2.768" transform="matrix(0.611, -0.792, 0.792, 0.611, 8.002, 16.988)" fill="#f9b384"/>
                <path id="Path_7014" data-name="Path 7014" d="M374.509,745a.173.173,0,0,1-.172-.172,1.515,1.515,0,0,0-.665-1.262,1.22,1.22,0,0,0-1.135-.152.173.173,0,1,1-.131-.321,1.559,1.559,0,0,1,1.458.185,1.859,1.859,0,0,1,.818,1.548.173.173,0,0,1-.172.172Z" transform="translate(-361.754 -727.352)" fill="#102048"/>
              </g>
              <g id="Group_915" data-name="Group 915" transform="translate(17.211 30.187)">
                <rect id="Rectangle_3170" data-name="Rectangle 3170" width="9.182" height="0.395" transform="matrix(0.679, -0.734, 0.734, 0.679, 0, 6.742)" fill="#102048"/>
                <path id="Path_7015" data-name="Path 7015" d="M506.985,973.815l-.115-.377c4.537-1.383,8.942-3.037,12.932-8.027l.308.246c-4.062,5.079-8.526,6.758-13.125,8.16Z" transform="translate(-456.841 -944.834)" fill="#102048"/>
              </g>
            </g>
            <g id="Group_917" data-name="Group 917" transform="translate(29 43.878)">
              <path id="Path_7016" data-name="Path 7016" d="M305.844,921.82h-38.6a2.623,2.623,0,0,0-2.514,2.719V952.1a2.623,2.623,0,0,0,2.514,2.719h38.6a2.623,2.623,0,0,0,2.514-2.719V924.539A2.623,2.623,0,0,0,305.844,921.82Z" transform="translate(-264.73 -921.82)" fill="#d3dfff"/>
              <path id="Path_7017" data-name="Path 7017" d="M388.411,1011.05a.276.276,0,0,1,.265.287v2.909a.277.277,0,0,1-.265.287h-4.076a.276.276,0,0,1-.265-.287v-2.909a.277.277,0,0,1,.265-.287h4.076m0-.79h-4.076a1.068,1.068,0,0,0-1.055,1.077v2.909a1.068,1.068,0,0,0,1.055,1.077h4.076a1.068,1.068,0,0,0,1.055-1.077v-2.909a1.068,1.068,0,0,0-1.055-1.077Z" transform="translate(-364.558 -996.293)" fill="#1f3c88"/>
            </g>
          </g>
        </g>
        <rect id="Rectangle_3171" data-name="Rectangle 3171" width="232.728" height="0.79" transform="translate(0 207.066)" fill="#102048"/>
      </g>
    </g>
  </g>
</svg>
