<?xml version="1.0" encoding="UTF-8"?>
<svg xmlns="http://www.w3.org/2000/svg" xmlns:xlink="http://www.w3.org/1999/xlink" width="107px" height="80px" viewBox="0 0 107 80" version="1.1">
<g id="surface1">
<rect x="0" y="0" width="107" height="80" style="fill:rgb(100%,100%,100%);fill-opacity:1;stroke:none;"/>
<path style=" stroke:none;fill-rule:evenodd;fill:rgb(87.45098%,0%,0%);fill-opacity:1;" d="M 41.441406 0 L 65.5625 0 L 65.5625 80 L 41.441406 80 Z M 41.441406 0 "/>
<path style=" stroke:none;fill-rule:evenodd;fill:rgb(0%,19.215686%,61.176471%);fill-opacity:1;" d="M 0 26.472656 L 107 26.472656 L 107 53.527344 L 0 53.527344 Z M 0 26.472656 "/>
<path style=" stroke:none;fill-rule:evenodd;fill:rgb(100%,100%,100%);fill-opacity:1;" d="M 46.066406 43.59375 L 43.964844 41.855469 L 41.875 43.53125 L 42.703125 40.875 L 40.601562 39.140625 L 43.128906 39.121094 L 44.011719 36.503906 L 44.816406 39.136719 L 47.367188 39.109375 L 45.34375 40.875 Z M 46.066406 43.59375 "/>
<path style=" stroke:none;fill-rule:evenodd;fill:rgb(100%,100%,100%);fill-opacity:1;" d="M 64.992188 43.59375 L 62.890625 41.855469 L 60.796875 43.53125 L 61.628906 40.875 L 59.527344 39.140625 L 62.050781 39.121094 L 62.9375 36.503906 L 63.742188 39.136719 L 66.292969 39.109375 L 64.269531 40.875 Z M 64.992188 43.59375 "/>
<path style=" stroke:none;fill-rule:evenodd;fill:rgb(100%,100%,100%);fill-opacity:1;" d="M 55.648438 35.714844 L 53.546875 33.972656 L 51.457031 35.652344 L 52.285156 32.992188 L 50.183594 31.257812 L 52.710938 31.238281 L 53.59375 28.621094 L 54.398438 31.257812 L 56.949219 31.226562 L 54.925781 32.996094 Z M 55.648438 35.714844 "/>
<path style=" stroke:none;fill-rule:evenodd;fill:rgb(100%,100%,100%);fill-opacity:1;" d="M 55.648438 35.714844 L 53.546875 33.972656 L 51.457031 35.652344 L 52.285156 32.992188 L 50.183594 31.257812 L 52.710938 31.238281 L 53.59375 28.621094 L 54.398438 31.257812 L 56.949219 31.226562 L 54.925781 32.996094 Z M 55.648438 35.714844 "/>
<path style=" stroke:none;fill-rule:evenodd;fill:rgb(100%,100%,100%);fill-opacity:1;" d="M 55.648438 51.671875 L 53.546875 49.929688 L 51.457031 51.609375 L 52.285156 48.949219 L 50.183594 47.21875 L 52.710938 47.195312 L 53.59375 44.582031 L 54.398438 47.214844 L 56.949219 47.1875 L 54.925781 48.953125 Z M 55.648438 51.671875 "/>
</g>
</svg>
