<svg xmlns="http://www.w3.org/2000/svg" viewBox="0 0 640 480">
    <path style="fill:#ce1126;fill-opacity:1;stroke:none" d="M0 0h640v480H0z" />
    <path style="stroke:none;fill-rule:nonzero;fill:#007a5e;fill-opacity:1" d="M67.2 67.2h505.6v345.6H67.2Zm0 0" />
    <path style="stroke:none;fill-rule:nonzero;fill:#fcd116;fill-opacity:1" d="M67.2 67.3h505.6L67.2 412.899h505.6Zm0 0" />
    <path style="stroke:none;fill-rule:nonzero;fill:#ce1126;fill-opacity:1" d="M377.5 240.102c0 31.808-25.79 57.597-57.602 57.597-31.808 0-57.597-25.789-57.597-57.597 0-31.813 25.789-57.602 57.597-57.602 31.813 0 57.602 25.79 57.602 57.602Zm0 0" />
    <path style="stroke:none;fill-rule:nonzero;fill:#fcd116;fill-opacity:1" d="m320 187.2-16.316 50.214 25.109 8.16" />
    <path style="stroke:none;fill-rule:nonzero;fill:#fcd116;fill-opacity:1" d="m320 187.2 16.316 50.214-25.109 8.16" />
    <path style="stroke:none;fill-rule:nonzero;fill:#fcd116;fill-opacity:1" d="M370.215 223.684h-52.8v26.398" />
    <path style="stroke:none;fill-rule:nonzero;fill:#fcd116;fill-opacity:1" d="M370.215 223.684 327.5 254.719l-15.52-21.36" />
    <path style="stroke:none;fill-rule:nonzero;fill:#fcd116;fill-opacity:1" d="M351.035 282.715 334.72 232.5l-25.11 8.16" />
    <path style="stroke:none;fill-rule:nonzero;fill:#fcd116;fill-opacity:1" d="M351.035 282.715 308.32 251.68l15.516-21.356" />
    <path style="stroke:none;fill-rule:nonzero;fill:#fcd116;fill-opacity:1" d="m288.965 282.715 42.715-31.035-15.516-21.356" />
    <path style="stroke:none;fill-rule:nonzero;fill:#fcd116;fill-opacity:1" d="M288.965 282.715 305.28 232.5l25.11 8.16" />
    <path style="stroke:none;fill-rule:nonzero;fill:#fcd116;fill-opacity:1" d="m269.785 223.684 42.715 31.035 15.52-21.36" />
    <path style="stroke:none;fill-rule:nonzero;fill:#fcd116;fill-opacity:1" d="M269.785 223.684h52.8v26.398M189.7 2.398l-9.641 29.676 14.836 4.82" />
    <path style="stroke:none;fill-rule:nonzero;fill:#fcd116;fill-opacity:1" d="m189.7 2.398 9.64 29.676-14.836 4.82" />
    <path style="stroke:none;fill-rule:nonzero;fill:#fcd116;fill-opacity:1" d="M219.371 23.957h-31.2v15.602" />
    <path style="stroke:none;fill-rule:nonzero;fill:#fcd116;fill-opacity:1" d="m219.371 23.957-25.238 18.34-9.172-12.621" />
    <path style="stroke:none;fill-rule:nonzero;fill:#fcd116;fill-opacity:1" d="m208.04 58.84-9.642-29.672-14.835 4.82" />
    <path style="stroke:none;fill-rule:nonzero;fill:#fcd116;fill-opacity:1" d="m208.04 58.84-25.243-18.336 9.172-12.621" />
    <path style="stroke:none;fill-rule:nonzero;fill:#fcd116;fill-opacity:1" d="m171.36 58.84 25.242-18.336-9.168-12.621" />
    <path style="stroke:none;fill-rule:nonzero;fill:#fcd116;fill-opacity:1" d="m171.36 58.84 9.644-29.672 14.836 4.82" />
    <path style="stroke:none;fill-rule:nonzero;fill:#fcd116;fill-opacity:1" d="m160.027 23.957 25.243 18.34 9.167-12.621" />
    <path style="stroke:none;fill-rule:nonzero;fill:#fcd116;fill-opacity:1" d="M160.027 23.957h31.2v15.602M320 2.398l-9.64 29.676 14.835 4.82" />
    <path style="stroke:none;fill-rule:nonzero;fill:#fcd116;fill-opacity:1" d="m320 2.398 9.64 29.676-14.835 4.82" />
    <path style="stroke:none;fill-rule:nonzero;fill:#fcd116;fill-opacity:1" d="M349.672 23.957h-31.2v15.602" />
    <path style="stroke:none;fill-rule:nonzero;fill:#fcd116;fill-opacity:1" d="m349.672 23.957-25.242 18.34-9.168-12.621" />
    <path style="stroke:none;fill-rule:nonzero;fill:#fcd116;fill-opacity:1" d="m338.34 58.84-9.64-29.672-14.84 4.82" />
    <path style="stroke:none;fill-rule:nonzero;fill:#fcd116;fill-opacity:1" d="m338.34 58.84-25.242-18.336 9.168-12.621" />
    <path style="stroke:none;fill-rule:nonzero;fill:#fcd116;fill-opacity:1" d="m301.66 58.84 25.242-18.336-9.168-12.621" />
    <path style="stroke:none;fill-rule:nonzero;fill:#fcd116;fill-opacity:1" d="m301.66 58.84 9.64-29.672 14.84 4.82" />
    <path style="stroke:none;fill-rule:nonzero;fill:#fcd116;fill-opacity:1" d="m290.328 23.957 25.242 18.34 9.168-12.621" />
    <path style="stroke:none;fill-rule:nonzero;fill:#fcd116;fill-opacity:1" d="M290.328 23.957h31.2v15.602M450.3 2.398l-9.64 29.676 14.836 4.82" />
    <path style="stroke:none;fill-rule:nonzero;fill:#fcd116;fill-opacity:1" d="m450.3 2.398 9.641 29.676-14.836 4.82" />
    <path style="stroke:none;fill-rule:nonzero;fill:#fcd116;fill-opacity:1" d="M479.973 23.957h-31.2v15.602" />
    <path style="stroke:none;fill-rule:nonzero;fill:#fcd116;fill-opacity:1" d="m479.973 23.957-25.243 18.34-9.168-12.621" />
    <path style="stroke:none;fill-rule:nonzero;fill:#fcd116;fill-opacity:1" d="m468.64 58.84-9.644-29.672-14.836 4.82" />
    <path style="stroke:none;fill-rule:nonzero;fill:#fcd116;fill-opacity:1" d="m468.64 58.84-25.242-18.336 9.168-12.621" />
    <path style="stroke:none;fill-rule:nonzero;fill:#fcd116;fill-opacity:1" d="m431.96 58.84 25.243-18.336-9.172-12.621" />
    <path style="stroke:none;fill-rule:nonzero;fill:#fcd116;fill-opacity:1" d="m431.96 58.84 9.642-29.672 14.836 4.82" />
    <path style="stroke:none;fill-rule:nonzero;fill:#fcd116;fill-opacity:1" d="m420.629 23.957 25.238 18.34 9.172-12.621" />
    <path style="stroke:none;fill-rule:nonzero;fill:#fcd116;fill-opacity:1" d="M420.629 23.957h31.2v15.602" />
    <path style="stroke:none;fill-rule:nonzero;fill:#ce1126;fill-opacity:1" d="M102.3 240.7a80.398 80.398 0 0 0 33.5 33.198 111.01 111.01 0 0 0-11.3-45Zm0 0" />
    <path style="stroke:none;fill-rule:nonzero;fill:#fcd116;fill-opacity:1" d="M90.102 194.7c10.398 21.698-27.102 73.698 35.5 85.902a63.202 63.202 0 0 1-10.903-41.903 70.009 70.009 0 0 1 32.5 30.801c16.403-59.5-42-55.8-57.097-74.8ZM189.7 417l-9.641 29.672 14.836 4.82" />
    <path style="stroke:none;fill-rule:nonzero;fill:#fcd116;fill-opacity:1" d="m189.7 417 9.64 29.672-14.836 4.82" />
    <path style="stroke:none;fill-rule:nonzero;fill:#fcd116;fill-opacity:1" d="M219.371 438.559h-31.2v15.601" />
    <path style="stroke:none;fill-rule:nonzero;fill:#fcd116;fill-opacity:1" d="m219.371 438.559-25.238 18.34-9.172-12.622" />
    <path style="stroke:none;fill-rule:nonzero;fill:#fcd116;fill-opacity:1" d="m208.04 473.441-9.642-29.671-14.835 4.82" />
    <path style="stroke:none;fill-rule:nonzero;fill:#fcd116;fill-opacity:1" d="m208.04 473.441-25.243-18.34 9.172-12.62" />
    <path style="stroke:none;fill-rule:nonzero;fill:#fcd116;fill-opacity:1" d="m171.36 473.441 25.242-18.34-9.168-12.62" />
    <path style="stroke:none;fill-rule:nonzero;fill:#fcd116;fill-opacity:1" d="m171.36 473.441 9.644-29.671 14.836 4.82" />
    <path style="stroke:none;fill-rule:nonzero;fill:#fcd116;fill-opacity:1" d="m160.027 438.559 25.243 18.34 9.167-12.622" />
    <path style="stroke:none;fill-rule:nonzero;fill:#fcd116;fill-opacity:1" d="M160.027 438.559h31.2v15.601M320 417l-9.64 29.672 14.835 4.82" />
    <path style="stroke:none;fill-rule:nonzero;fill:#fcd116;fill-opacity:1" d="m320 417 9.64 29.672-14.835 4.82" />
    <path style="stroke:none;fill-rule:nonzero;fill:#fcd116;fill-opacity:1" d="M349.672 438.559h-31.2v15.601" />
    <path style="stroke:none;fill-rule:nonzero;fill:#fcd116;fill-opacity:1" d="m349.672 438.559-25.242 18.34-9.168-12.622" />
    <path style="stroke:none;fill-rule:nonzero;fill:#fcd116;fill-opacity:1" d="m338.34 473.441-9.64-29.671-14.84 4.82" />
    <path style="stroke:none;fill-rule:nonzero;fill:#fcd116;fill-opacity:1" d="m338.34 473.441-25.242-18.34 9.168-12.62" />
    <path style="stroke:none;fill-rule:nonzero;fill:#fcd116;fill-opacity:1" d="m301.66 473.441 25.242-18.34-9.168-12.62" />
    <path style="stroke:none;fill-rule:nonzero;fill:#fcd116;fill-opacity:1" d="m301.66 473.441 9.64-29.671 14.84 4.82" />
    <path style="stroke:none;fill-rule:nonzero;fill:#fcd116;fill-opacity:1" d="m290.328 438.559 25.242 18.34 9.168-12.622" />
    <path style="stroke:none;fill-rule:nonzero;fill:#fcd116;fill-opacity:1" d="M290.328 438.559h31.2v15.601M450.3 417l-9.64 29.672 14.836 4.82" />
    <path style="stroke:none;fill-rule:nonzero;fill:#fcd116;fill-opacity:1" d="m450.3 417 9.641 29.672-14.836 4.82" />
    <path style="stroke:none;fill-rule:nonzero;fill:#fcd116;fill-opacity:1" d="M479.973 438.559h-31.2v15.601" />
    <path style="stroke:none;fill-rule:nonzero;fill:#fcd116;fill-opacity:1" d="m479.973 438.559-25.243 18.34-9.168-12.622" />
    <path style="stroke:none;fill-rule:nonzero;fill:#fcd116;fill-opacity:1" d="m468.64 473.441-9.644-29.671-14.836 4.82" />
    <path style="stroke:none;fill-rule:nonzero;fill:#fcd116;fill-opacity:1" d="m468.64 473.441-25.242-18.34 9.168-12.62" />
    <path style="stroke:none;fill-rule:nonzero;fill:#fcd116;fill-opacity:1" d="m431.96 473.441 25.243-18.34-9.172-12.62" />
    <path style="stroke:none;fill-rule:nonzero;fill:#fcd116;fill-opacity:1" d="m431.96 473.441 9.642-29.671 14.836 4.82" />
    <path style="stroke:none;fill-rule:nonzero;fill:#fcd116;fill-opacity:1" d="m420.629 438.559 25.238 18.34 9.172-12.622" />
    <path style="stroke:none;fill-rule:nonzero;fill:#fcd116;fill-opacity:1" d="M420.629 438.559h31.2v15.601" />
</svg>