<svg xmlns="http://www.w3.org/2000/svg" width="0" height="0">
    <defs>
        <symbol viewBox="0 0 24 24" id="back">
            <path d="M0 0h24v24H0V0z" fill="none"/>
            <path d="M20 11H7.83l5.59-5.59L12 4l-8 8 8 8 1.41-1.41L7.83 13H20v-2z"/>
        </symbol>
        <symbol viewBox="0 0 24 24" id="icon-buyer-orders">
            <path d="M16.002 0h-16v24h24V0zm-1 1v5a.945.945 0 01-1 1h-4a.945.945 0 01-1-1V1zm8 22h-22V1h7v5a2.006 2.006 0 002 2h4a2.006 2.006 0 002-2V1h7z"/>
            <path d="M20.517 13.931l-3.007-3.006-3.022 3.023.707.707 1.807-1.808v7.078h1v-7.094l1.808 1.807z"/>
        </symbol>
        <symbol viewBox="0 0 24 24" id="icon-getting-started">
            <g>
                <rect fill="none" height="24" width="24"/>
                <rect fill="none" height="24" width="24"/>
                <rect fill="none" height="24" width="24"/>
            </g>
            <g>
                <g/>
                <g>
                    <polygon points="6,22 18,22 12,16"/>
                    <path d="M21,3H3C1.9,3,1,3.9,1,5v12c0,1.1,0.9,2,2,2h4v-2H3V5h18v12h-4v2h4c1.1,0,2-0.9,2-2V5C23,3.9,22.1,3,21,3z"/>
                </g>
            </g>
        </symbol>
         <symbol viewBox="0 0 24 24" id="icon-stats">
           <path d="M11 .543c.33-.029.663-.043 1-.043C18.351.5 23.5 5.649 23.5 12c0 .337-.014.67-.043 1h-1.506c-.502 5.053-4.766 9-9.951 9-5.523 0-10-4.477-10-10 0-5.185 3.947-9.449 9-9.95V.542zM11 13V4.062A8.001 8.001 0 0 0 12 20a8.001 8.001 0 0 0 7.938-7H11zm10.448-2A9.503 9.503 0 0 0 13 2.552V11h8.448z"></path>
        </symbol>
        <symbol viewBox="0 0 24 24" id="icon-lang">
             <path d="M12 22C6.47715 22 2 17.5228 2 12C2 6.47715 6.47715 2 12 2C17.5228 2 22 6.47715 22 12C22 17.5228 17.5228 22 12 22ZM9.71002 19.6674C8.74743 17.6259 8.15732 15.3742 8.02731 13H4.06189C4.458 16.1765 6.71639 18.7747 9.71002 19.6674ZM10.0307 13C10.1811 15.4388 10.8778 17.7297 12 19.752C13.1222 17.7297 13.8189 15.4388 13.9693 13H10.0307ZM19.9381 13H15.9727C15.8427 15.3742 15.2526 17.6259 14.29 19.6674C17.2836 18.7747 19.542 16.1765 19.9381 13ZM4.06189 11H8.02731C8.15732 8.62577 8.74743 6.37407 9.71002 4.33256C6.71639 5.22533 4.458 7.8235 4.06189 11ZM10.0307 11H13.9693C13.8189 8.56122 13.1222 6.27025 12 4.24799C10.8778 6.27025 10.1811 8.56122 10.0307 11ZM14.29 4.33256C15.2526 6.37407 15.8427 8.62577 15.9727 11H19.9381C19.542 7.8235 17.2836 5.22533 14.29 4.33256Z"></path>
        </symbol>
        <symbol viewBox="0 0 16.043 16" id="icon-cache">
            <g id="Group_441" data-name="Group 441" transform="translate(0.043)">
                <rect id="Rectangle_400" data-name="Rectangle 400" width="16" height="16" transform="translate(-0.043)" fill="none"/>
                <rect id="Rectangle_401" data-name="Rectangle 401" width="16" height="16" fill="none"/>
                <path id="Path_333" data-name="Path 333" d="M16,14.468H7.491l8.485-8.486L10.007.012,0,10.018l5.97,5.97L6,15.958H16ZM10.007,2.119l3.862,3.863L12.745,7.107,8.882,3.244Zm-7.9,7.9L7.828,4.3,11.691,8.16,5.97,13.881Z"/>
            </g>
        </symbol>
        <symbol viewBox="0 0 24 24" id="icon-catelog">
            <path d="M16 0H0v24h24V0zm-1 1v5a1 1 0 01-1 1h-4a1 1 0 01-1-1V1zm8 22H1V1h7v5a2 2 0 002 2h4a2 2 0 002-2V1h7z"/>
        </symbol>
        <symbol viewBox="-40 0 427 427.001" id="icon-delete">
            <path d="M232.398 154.703c-5.523 0-10 4.477-10 10v189c0 5.52 4.477 10 10 10 5.524 0 10-4.48 10-10v-189c0-5.523-4.476-10-10-10zm0 0M114.398 154.703c-5.523 0-10 4.477-10 10v189c0 5.52 4.477 10 10 10 5.524 0 10-4.48 10-10v-189c0-5.523-4.476-10-10-10zm0 0"/>
            <path d="M28.398 127.121V373.5c0 14.563 5.34 28.238 14.668 38.05A49.246 49.246 0 0078.796 427H268a49.233 49.233 0 0035.73-15.45c9.329-9.812 14.668-23.487 14.668-38.05V127.121c18.543-4.922 30.559-22.836 28.079-41.863-2.485-19.024-18.692-33.254-37.88-33.258h-51.199V39.5a39.289 39.289 0 00-11.539-28.031A39.288 39.288 0 00217.797 0H129a39.288 39.288 0 00-28.063 11.469A39.289 39.289 0 0089.398 39.5V52H38.2C19.012 52.004 2.805 66.234.32 85.258c-2.48 19.027 9.535 36.941 28.078 41.863zM268 407H78.797c-17.098 0-30.399-14.688-30.399-33.5V128h250v245.5c0 18.813-13.3 33.5-30.398 33.5zM109.398 39.5a19.25 19.25 0 015.676-13.895A19.26 19.26 0 01129 20h88.797a19.26 19.26 0 0113.926 5.605 19.244 19.244 0 015.675 13.895V52h-128zM38.2 72h270.399c9.941 0 18 8.059 18 18s-8.059 18-18 18H38.199c-9.941 0-18-8.059-18-18s8.059-18 18-18zm0 0"/>
            <path d="M173.398 154.703c-5.523 0-10 4.477-10 10v189c0 5.52 4.477 10 10 10 5.524 0 10-4.48 10-10v-189c0-5.523-4.476-10-10-10zm0 0"/>
        </symbol>
        <symbol viewBox="0 0 24 24" id="icon-download">
            <path fill="none" d="M0 0h24v24H0z"/>
            <path d="M18 15v3H6v-3H4v3c0 1.1.9 2 2 2h12c1.1 0 2-.9 2-2v-3h-2zm-1-4l-1.41-1.41L13 12.17V4h-2v8.17L8.41 9.59 7 11l5 5 5-5z"/>
        </symbol>
        <symbol viewBox="0 0 24 24" id="icon-extension">
            <path d="M0 0h24v24H0V0z" fill="none"/>
            <path d="M10.5 4.5c.28 0 .5.22.5.5v2h6v6h2c.28 0 .5.22.5.5s-.22.5-.5.5h-2v6h-2.12c-.68-1.75-2.39-3-4.38-3s-3.7 1.25-4.38 3H4v-2.12c1.75-.68 3-2.39 3-4.38 0-1.99-1.24-3.7-2.99-4.38L4 7h6V5c0-.28.22-.5.5-.5m0-2A2.5 2.5 0 008 5H4c-1.1 0-1.99.9-1.99 2v3.8h.29c1.49 0 2.7 1.21 2.7 2.7s-1.21 2.7-2.7 2.7H2V20c0 1.1.9 2 2 2h3.8v-.3c0-1.49 1.21-2.7 2.7-2.7s2.7 1.21 2.7 2.7v.3H17c1.1 0 2-.9 2-2v-4a2.5 2.5 0 000-5V7c0-1.1-.9-2-2-2h-4a2.5 2.5 0 00-2.5-2.5z"/>
        </symbol>
        <symbol viewBox="0 0 24 24" id="icon-grid">
            <g fill="none" fill-rule="evenodd">
                <path d="M0 0h24v24H0z"/>
                <rect fill="currentColor" x="4" y="4" width="7" height="7" rx="1.5"/>
                <path d="M5.5 13h4a1.5 1.5 0 011.5 1.5v4A1.5 1.5 0 019.5 20h-4A1.5 1.5 0 014 18.5v-4A1.5 1.5 0 015.5 13zm9-9h4A1.5 1.5 0 0120 5.5v4a1.5 1.5 0 01-1.5 1.5h-4A1.5 1.5 0 0113 9.5v-4A1.5 1.5 0 0114.5 4zm0 9h4a1.5 1.5 0 011.5 1.5v4a1.5 1.5 0 01-1.5 1.5h-4a1.5 1.5 0 01-1.5-1.5v-4a1.5 1.5 0 011.5-1.5z" fill="currentColor" opacity=".3"/>
            </g>
        </symbol>
        <symbol viewBox="0 0 24 24" id="icon-import-export">
            <path d="M12 1A11 11 0 111 12 11.013 11.013 0 0112 1m0-1a12 12 0 1012 12A12 12 0 0012 0z"/>
            <path d="M12.589 10.4L8.5 6l-4.09 4.4.732.682L8 8.005V18h1V8.007l2.856 3.073zM18.857 12.92L16 15.995V6h-1v9.993l-2.856-3.073-.732.682L15.5 18l4.089-4.4z"/>
        </symbol>
        <symbol viewBox="0 0 16 16" id="icon-goto">
            <path d="M2 4v10h10v-3a1 1 0 012 0v4a1 1 0 01-1 1H1a1 1 0 01-1-1V3a1 1 0 011-1h4a1 1 0 110 2zm5.707 5.707a1 1 0 11-1.414-1.414l6.3-6.298H9.017a.998.998 0 110-1.995h5.986A.995.995 0 0116 .998v5.986a.998.998 0 11-1.995 0V3.406z" fill-rule="evenodd"/>
        </symbol>
        <symbol viewBox="0 0 512 512" id="icon-message">
            <path d="M469.333 64H42.667C19.135 64 0 83.135 0 106.667v298.667C0 428.865 19.135 448 42.667 448h426.667C492.865 448 512 428.865 512 405.333V106.667C512 83.135 492.865 64 469.333 64zM42.667 85.333h426.667c1.572 0 2.957.573 4.432.897-36.939 33.807-159.423 145.859-202.286 184.478-3.354 3.021-8.76 6.625-15.479 6.625s-12.125-3.604-15.49-6.635C197.652 232.085 75.161 120.027 38.228 86.232c1.478-.324 2.866-.899 4.439-.899zm-21.334 320V106.667c0-2.09.63-3.986 1.194-5.896 28.272 25.876 113.736 104.06 169.152 154.453C136.443 302.671 50.957 383.719 22.46 410.893c-.503-1.814-1.127-3.588-1.127-5.56zm448 21.334H42.667c-1.704 0-3.219-.594-4.81-.974 29.447-28.072 115.477-109.586 169.742-156.009a7980.773 7980.773 0 0018.63 16.858c8.792 7.938 19.083 12.125 29.771 12.125s20.979-4.188 29.76-12.115a8178.815 8178.815 0 0018.641-16.868c54.268 46.418 140.286 127.926 169.742 156.009-1.591.38-3.104.974-4.81.974zm21.334-21.334c0 1.971-.624 3.746-1.126 5.56-28.508-27.188-113.984-108.227-169.219-155.668 55.418-50.393 140.869-128.57 169.151-154.456.564 1.91 1.194 3.807 1.194 5.897v298.667z"/>
        </symbol>
        <symbol viewBox="0 0 454.573 454.573" id="icon-message-unread">
            <path d="M452.441 156.234l-65.829-46.498V41.817a14.628 14.628 0 00-12.539-13.061H85.682a14.63 14.63 0 00-12.539 13.061v67.396l-68.441 47.02A11.491 11.491 0 000 164.592v248.163a15.15 15.15 0 0013.061 13.061h433.633c5.747 0 7.837-6.792 7.837-13.061V164.593c0-3.135.522-6.27-2.09-8.359zm-65.829-21.421l44.931 30.824-44.931 33.959v-64.783zM94.041 49.654h271.673v166.139l-135.837 102.4-135.837-102.4V49.654zm-20.898 84.637v65.829l-44.931-34.482 44.931-31.347zm-52.245 52.767l146.286 110.759L20.898 396.56V187.058zm25.078 217.861l138.971-93.518 37.094 28.212a12.533 12.533 0 007.314 2.612c2.09 0 3.135-1.045 5.224-2.612l38.661-29.78 140.539 95.086H45.976zm387.657-12.016l-143.151-96.131 143.151-109.714v205.845z"/>
            <path d="M146.286 117.572h47.02c5.771 0 10.449-4.678 10.449-10.449s-4.678-10.449-10.449-10.449h-47.02c-5.771 0-10.449 4.678-10.449 10.449s4.678 10.449 10.449 10.449zM146.286 164.593H313.47c5.771 0 10.449-4.678 10.449-10.449s-4.678-10.449-10.449-10.449H146.286c-5.771 0-10.449 4.678-10.449 10.449s4.678 10.449 10.449 10.449zM323.918 201.164c0-5.771-4.678-10.449-10.449-10.449H146.286c-5.771 0-10.449 4.678-10.449 10.449s4.678 10.449 10.449 10.449H313.47c5.77 0 10.448-4.678 10.448-10.449z"/>
        </symbol>
        <symbol viewBox="0 0 16 16" id="icon-notification">
            <g id="Group_440" data-name="Group 440" transform="translate(24.016 31.993)">
                <rect id="Rectangle_398" data-name="Rectangle 398" width="16" height="16" transform="translate(-24.016 -31.993)" fill="none"/>
                <rect id="Rectangle_399" data-name="Rectangle 399" width="4" height="1.5" rx="0.75" transform="translate(-18.016 -17.493)"/>
                <path id="Path_331" data-name="Path 331" d="M-10.223-21.343A2.437,2.437,0,0,0-11.266-22.7v-3.3a4.694,4.694,0,0,0-4-4.574v-.676a.75.75,0,0,0-.75-.75.75.75,0,0,0-.75.75v.676a4.692,4.692,0,0,0-4,4.574v3.3a2.438,2.438,0,0,0-1.042,1.355,2.442,2.442,0,0,0,.229,1.913,2.428,2.428,0,0,0,2.138,1.187h6.851a2.426,2.426,0,0,0,2.137-1.187A2.442,2.442,0,0,0-10.223-21.343Zm-1.537,1.178a.942.942,0,0,1-.83.422h-6.851a.942.942,0,0,1-.83-.422.944.944,0,0,1-.1-.746.925.925,0,0,1,.474-.556,1.241,1.241,0,0,0,.632-1.11v-3.416a3.192,3.192,0,0,1,2.78-3.106,4.537,4.537,0,0,1,.47-.038,4.574,4.574,0,0,1,.468.038,3.191,3.191,0,0,1,2.782,3.106v3.416a1.239,1.239,0,0,0,.634,1.11.922.922,0,0,1,.472.556A.944.944,0,0,1-11.76-20.165Z"/>
            </g>
        </symbol>
        <symbol viewBox="0 0 24 24" id="icon-notification-alert">
            <path opacity=".3" d="M11 6.5C11 9 9 11 6.5 11S2 9 2 6.5 4 2 6.5 2 11 4 11 6.5zM17.5 2C15 2 13 4 13 6.5s2 4.5 4.5 4.5S22 9 22 6.5 20 2 17.5 2zm-11 11C4 13 2 15 2 17.5S4 22 6.5 22s4.5-2 4.5-4.5S9 13 6.5 13zm11 0C15 13 13 15 13 17.5s2 4.5 4.5 4.5 4.5-2 4.5-4.5-2-4.5-4.5-4.5z"/>
            <path d="M17.5 16s-.1 0 0 0l-.8-.7c-.6-.6-1-1.4-1.1-2.2-.1-.7-.1-1.5 0-2.3.1-.8.5-1.6 1.1-2.2l.7-.7h.1c.8 0 1.5-.7 1.5-1.5s-.7-1.5-1.5-1.5-1.5.7-1.5 1.5v.1l-.7.7c-.6.6-1.4 1-2.2 1.1-.7.1-1.5.1-2.3 0-.8-.1-1.6-.5-2.2-1.1l-.7-.7v-.1c0-.8-.7-1.5-1.5-1.5s-1.5.7-1.5 1.5.7 1.5 1.5 1.5h.1l.7.7c.6.6 1 1.4 1.1 2.2.1.7.1 1.5 0 2.3-.1.8-.5 1.6-1.1 2.2l-.7.7h-.1c-.8 0-1.5.7-1.5 1.5S5.6 19 6.4 19s1.5-.7 1.5-1.5v-.1l.7-.7c.6-.6 1.4-1 2.2-1.1.7-.1 1.5-.1 2.3 0 .8.1 1.6.5 2.2 1.1l.7.7v.1c0 .8.7 1.5 1.5 1.5s1.5-.7 1.5-1.5-.7-1.5-1.5-1.5z"/>
        </symbol>
        <symbol viewBox="0 0 24 24" id="icon-orders">
            <path d="M16 0H0v24h24V0zm-1 1v5a.945.945 0 01-1 1h-4a.945.945 0 01-1-1V1zm8 22H1V1h7v5a2.006 2.006 0 002 2h4a2.006 2.006 0 002-2V1h7z"/>
            <path d="M16.812 19.513l3-3-3-3-.7.7 1.8 1.8h-7.1v1h7.1l-1.8 1.8z"/>
        </symbol>
        <symbol viewBox="0 0 24 24" id="icon-promotions">
            <path d="M21 8V2L8.019 8H0v8h3.019v5h4v-5h1L21 22v-6h3V8zM6.019 20h-2v-4h2zM8 15H1V9h7zm12-7v12.436L9.019 15.361V8.639L20 3.564zm3 7h-2V9h2z"/>
        </symbol>
        <symbol viewBox="0 0 512 512" id="icon-refresh">
            <path d="M493.815 70.629c-11.001-1.003-20.73 7.102-21.733 18.102l-2.65 29.069C424.473 47.194 346.429 0 256 0 158.719 0 72.988 55.522 30.43 138.854c-5.024 9.837-1.122 21.884 8.715 26.908 9.839 5.024 21.884 1.123 26.908-8.715C102.07 86.523 174.397 40 256 40c74.377 0 141.499 38.731 179.953 99.408l-28.517-20.367c-8.989-6.419-21.48-4.337-27.899 4.651-6.419 8.989-4.337 21.479 4.651 27.899l86.475 61.761c12.674 9.035 30.155.764 31.541-14.459l9.711-106.53c1.004-11.001-7.1-20.731-18.1-21.734zM472.855 346.238c-9.838-5.023-21.884-1.122-26.908 8.715C409.93 425.477 337.603 472 256 472c-74.377 0-141.499-38.731-179.953-99.408l28.517 20.367c8.989 6.419 21.479 4.337 27.899-4.651 6.419-8.989 4.337-21.479-4.651-27.899l-86.475-61.761c-12.519-8.944-30.141-.921-31.541 14.459L.085 419.637c-1.003 11 7.102 20.73 18.101 21.733 11.014 1.001 20.731-7.112 21.733-18.102l2.65-29.069C87.527 464.806 165.571 512 256 512c97.281 0 183.012-55.522 225.57-138.854 5.024-9.837 1.122-21.884-8.715-26.908z"/>
        </symbol>
        <symbol viewBox="0 0 24 24" id="icon-reports">
            <path d="M14.999 0h-12v24h18V6zm0 1.415L19.584 6h-4.585zM3.999 23V1h10v6h6v16z"/>
            <path d="M6 8.999h7v1H6zM6 12.999h9v1H6zM6.004 16.999h11v1h-11z"/>
        </symbol>
        <symbol viewBox="0 0 24 24" id="icon-sales-tax">
            <path d="M6.636 12.092H5.107v-.9H9.27v.9H7.741v3.876H6.636zM12.771 14.945h-2.218l-.423 1.023H9l2.129-4.777h1.093l2.135 4.777h-1.162zm-.348-.84l-.757-1.829-.758 1.824z"/>
            <path d="M17.617 15.968l-1.154-1.659-1.132 1.659h-1.27l1.768-2.429-1.679-2.348h1.256l1.1 1.549 1.079-1.549h1.194L17.112 13.5l1.781 2.47z"/>
            <path d="M15.343 0H3v24h18V5.657zM20 23H4V1h10v6.053h6zM15 6.053V1.075l4.978 4.978z"/>
        </symbol>
        <symbol viewBox="0 0 16.003 16" id="icon-search">
            <g id="Group_601" data-name="Group 601" transform="translate(24.025 56.001)">
                <rect id="Rectangle_397" data-name="Rectangle 397" width="16" height="16" transform="translate(-24.025 -56.001)" fill="none"/>
                <path id="Path_330" data-name="Path 330" d="M-8.022-41.062-12-45.045a6.716,6.716,0,0,0,1.479-4.206A6.756,6.756,0,0,0-17.275-56a6.757,6.757,0,0,0-6.75,6.75,6.758,6.758,0,0,0,6.75,6.75,6.707,6.707,0,0,0,4.21-1.483L-9.083-40ZM-17.275-44a5.256,5.256,0,0,1-5.25-5.25,5.256,5.256,0,0,1,5.25-5.25,5.256,5.256,0,0,1,5.25,5.25A5.256,5.256,0,0,1-17.275-44Z"/>
            </g>
        </symbol>
        <symbol viewBox="0 0 24 24" id="icon-search-s">
            <g fill="none" fill-rule="evenodd">
                <path d="M0 0h24v24H0z"/>
                <path d="M14.293 16.707a1 1 0 011.414-1.414l4 4a1 1 0 01-1.414 1.414l-4-4z" fill="currentColor" fill-rule="nonzero"/>
                <path d="M11 16a5 5 0 100-10 5 5 0 000 10zm0 2a7 7 0 110-14 7 7 0 010 14z" fill="currentColor" fill-rule="nonzero"/>
            </g>
        </symbol>
        <symbol viewBox="0 0 24 24" id="icon-setting">
            <path d="M0 0h24v24H0V0z" fill="none"/>
            <path d="M19.43 12.98c.04-.32.07-.64.07-.98 0-.34-.03-.66-.07-.98l2.11-1.65c.19-.15.24-.42.12-.64l-2-3.46a.5.5 0 00-.61-.22l-2.49 1c-.52-.4-1.08-.73-1.69-.98l-.38-2.65A.488.488 0 0014 2h-4c-.25 0-.46.18-.49.42l-.38 2.65c-.61.25-1.17.59-1.69.98l-2.49-1a.566.566 0 00-.18-.03c-.17 0-.34.09-.43.25l-2 3.46c-.13.22-.07.49.12.64l2.11 1.65c-.04.32-.07.65-.07.98 0 .33.03.66.07.98l-2.11 1.65c-.19.15-.24.42-.12.64l2 3.46a.5.5 0 00.61.22l2.49-1c.52.4 1.08.73 1.69.98l.38 2.65c.03.24.24.42.49.42h4c.25 0 .46-.18.49-.42l.38-2.65c.61-.25 1.17-.59 1.69-.98l2.49 1c.06.02.12.03.18.03.17 0 .34-.09.43-.25l2-3.46c.12-.22.07-.49-.12-.64l-2.11-1.65zm-1.98-1.71c.04.31.05.52.05.73 0 .21-.02.43-.05.73l-.14 1.13.89.7 1.08.84-.7 1.21-1.27-.51-1.04-.42-.9.68c-.43.32-.84.56-1.25.73l-1.06.43-.16 1.13-.2 1.35h-1.4l-.19-1.35-.16-1.13-1.06-.43c-.43-.18-.83-.41-1.23-.71l-.91-.7-1.06.43-1.27.51-.7-1.21 1.08-.84.89-.7-.14-1.13c-.03-.31-.05-.54-.05-.74s.02-.43.05-.73l.14-1.13-.89-.7-1.08-.84.7-1.21 1.27.51 1.04.42.9-.68c.43-.32.84-.56 1.25-.73l1.06-.43.16-1.13.2-1.35h1.39l.19 1.35.16 1.13 1.06.43c.43.18.83.41 1.23.71l.91.7 1.06-.43 1.27-.51.7 1.21-1.07.85-.89.7.14 1.13zM12 8c-2.21 0-4 1.79-4 4s1.79 4 4 4 4-1.79 4-4-1.79-4-4-4zm0 6c-1.1 0-2-.9-2-2s.9-2 2-2 2 .9 2 2-.9 2-2 2z"/>
        </symbol>
        <symbol id="icon-setting-1" viewBox="0 0 32 32" xml:space="preserve">
            <style/>
            <path d="M29.9 24.6l-2-5c-.1-.4-.5-.6-.9-.6V7c0-.6-.4-1-1-1H6c-.6 0-1 .4-1 1v12c-.4 0-.8.2-.9.6l-2 5c-.1.3-.1.7.1.9s.5.5.8.5h26c.3 0 .6-.2.8-.4s.3-.7.1-1zM7 8h18v11H7V8z"/>
        </symbol>
        <symbol viewBox="0 0 24 24" id="icon-shipping-pickup">
            <path d="M16 17.999H8v-1h7v-12H1v12h4v1H0v-14h16zM19.5 15.999a1.5 1.5 0 11-1.5 1.5 1.5 1.5 0 011.5-1.5m0-1a2.5 2.5 0 102.5 2.5 2.5 2.5 0 00-2.5-2.5z"/>
            <path d="M6.5 15.999a1.5 1.5 0 11-1.5 1.5 1.5 1.5 0 011.5-1.5m0-1a2.5 2.5 0 102.5 2.5 2.5 2.5 0 00-2.5-2.5zM24 17.999h-2.775v-1H23v-4.9a3.083 3.083 0 00-3.057-3.1H16v8h1.743v1H15v-10h4.943a4.084 4.084 0 014.057 4.1zM3 7.999h8v1H3zM5 10.999h8v1H5z"/>
        </symbol>
        <symbol viewBox="0 0 24 24" id="icon-sitemap">
            <path d="M21.5 18.05V12h-9V7.95a4 4 0 10-1 0V12h-9v6.05a3 3 0 101 0V13h8v5.05a3 3 0 101 0V13h8v5.05a3 3 0 101 0zM9 4a3 3 0 113 3 3 3 0 01-3-3zM5 21a2 2 0 11-2-2 2 2 0 012 2zm9 0a2 2 0 11-2-2 2 2 0 012 2zm7 2a2 2 0 112-2 2 2 0 01-2 2z"/>
        </symbol>
        <symbol  viewBox="0 0 24 24" id="icon-store">
           <path d="M21 13.2422V20H22V22H2V20H3V13.2422C1.79401 12.435 1 11.0602 1 9.5C1 8.67286 1.22443 7.87621 1.63322 7.19746L4.3453 2.5C4.52393 2.1906 4.85406 2 5.21132 2H18.7887C19.1459 2 19.4761 2.1906 19.6547 2.5L22.3575 7.18172C22.7756 7.87621 23 8.67286 23 9.5C23 11.0602 22.206 12.435 21 13.2422ZM19 13.9725C18.8358 13.9907 18.669 14 18.5 14C17.2409 14 16.0789 13.478 15.25 12.6132C14.4211 13.478 13.2591 14 12 14C10.7409 14 9.5789 13.478 8.75 12.6132C7.9211 13.478 6.75911 14 5.5 14C5.331 14 5.16417 13.9907 5 13.9725V20H19V13.9725ZM5.78865 4L3.35598 8.21321C3.12409 8.59843 3 9.0389 3 9.5C3 10.8807 4.11929 12 5.5 12C6.53096 12 7.44467 11.3703 7.82179 10.4295C8.1574 9.59223 9.3426 9.59223 9.67821 10.4295C10.0553 11.3703 10.969 12 12 12C13.031 12 13.9447 11.3703 14.3218 10.4295C14.6574 9.59223 15.8426 9.59223 16.1782 10.4295C16.5553 11.3703 17.469 12 18.5 12C19.8807 12 21 10.8807 21 9.5C21 9.0389 20.8759 8.59843 20.6347 8.19746L18.2113 4H5.78865Z"></path>
        </symbol>
        <symbol viewBox="0 0 24 24" id="icon-system-setting">
            <path d="M23.281 14.631l-2.206-1.725a8.415 8.415 0 00.052-.906 8.681 8.681 0 00-.052-.906l2.208-1.726a1.081 1.081 0 00.261-1.378L21.25 4.021a1.069 1.069 0 00-.94-.546 1.122 1.122 0 00-.387.069l-2.6 1.045a8.88 8.88 0 00-1.562-.907l-.4-2.761A1.062 1.062 0 0014.3 0H9.7a1.06 1.06 0 00-1.057.911l-.4 2.771a9.2 9.2 0 00-1.56.908L4.076 3.542a1.067 1.067 0 00-1.317.469L.462 7.986a1.073 1.073 0 00.26 1.384l2.206 1.724a8.742 8.742 0 00-.052.906c0 .275.017.568.05.906L.718 14.633a1.083 1.083 0 00-.26 1.378l2.294 3.969a1.063 1.063 0 00.94.545 1.144 1.144 0 00.387-.068l2.6-1.045a9.015 9.015 0 001.563.907l.4 2.76A1.062 1.062 0 009.7 24h4.6a1.06 1.06 0 001.059-.911l.4-2.77a9.2 9.2 0 001.56-.908l2.61 1.048a1.07 1.07 0 00.387.073 1.059 1.059 0 00.93-.542L23.55 16a1.081 1.081 0 00-.269-1.369zm-2.915 4.88c0 .007-.024.02-.064.02l-2.61-1.048-.508-.2-.445.318a8.2 8.2 0 01-1.391.811l-.5.226-.078.543-.4 2.788a.078.078 0 01-.07.031H9.7a.067.067 0 01-.07-.063l-.4-2.76-.078-.544-.5-.226a8 8 0 01-1.385-.807l-.447-.322-.511.2-2.617 1.047a.077.077 0 01-.074-.045l-2.282-3.947c-.026-.048-.025-.094 0-.112l2.208-1.727.433-.339-.054-.546A8.245 8.245 0 013.878 12a7.653 7.653 0 01.047-.8l.057-.55-.436-.341-2.2-1.72a.076.076 0 01-.014-.1l2.309-4c0-.01.024-.02.06-.02H3.7l2.61 1.048.508.2.449-.317a8.136 8.136 0 011.391-.811l.5-.226.078-.543.4-2.789A.076.076 0 019.7 1h4.6a.068.068 0 01.07.063l.4 2.761.078.545.5.225a7.9 7.9 0 011.386.805l.447.323.511-.2 2.618-1.047a.08.08 0 01.074.046l2.283 3.949c.025.047.024.091 0 .11l-2.208 1.726-.437.341.058.552a7.456 7.456 0 01.047.8 7.574 7.574 0 01-.046.8l-.061.553.439.343 2.2 1.72a.078.078 0 01.025.086z"/>
            <path d="M12 8a4 4 0 104 4 4 4 0 00-4-4zm0 7a3 3 0 113-3 3 3 0 01-3 3z"/>
        </symbol>
        <symbol viewBox="0 0 24 24.004" id="icon-users">
            <path d="M7.928 13.789a7.566 7.566 0 10-.913-.7 12.07 12.07 0 00-6.97 9.913H0v1h14v-1H1.051a11.054 11.054 0 016.877-9.213zM5.5 7.502a6.5 6.5 0 116.5 6.5 6.508 6.508 0 01-6.5-6.5zM18 15h6v1h-6zM18 18.994h6v1h-6zM18 23.002h6v1h-6z"/>
        </symbol>
        <symbol id="icon-translate"  viewBox="0 0 24 24">
            <path d="M18.5 10l4.4 11h-2.155l-1.201-3h-4.09l-1.199 3h-2.154L16.5 10h2zM10 2v2h6v2h-1.968a18.222 18.222 0 0 1-3.62 6.301 14.864 14.864 0 0 0 2.336 1.707l-.751 1.878A17.015 17.015 0 0 1 9 13.725a16.676 16.676 0 0 1-6.201 3.548l-.536-1.929a14.7 14.7 0 0 0 5.327-3.042A18.078 18.078 0 0 1 4.767 8h2.24A16.032 16.032 0 0 0 9 10.877a16.165 16.165 0 0 0 2.91-4.876L2 6V4h6V2h2zm7.5 10.885L16.253 16h2.492L17.5 12.885z"/>
        </symbol>
        <symbol id="icon-mail"  viewBox="0 0 24 24">
            <path d="M20 12a8 8 0 1 0-3.562 6.657l1.11 1.664A9.953 9.953 0 0 1 12 22C6.477 22 2 17.523 2 12S6.477 2 12 2s10 4.477 10 10v1.5a3.5 3.5 0 0 1-6.396 1.966A5 5 0 1 1 15 8H17v5.5a1.5 1.5 0 0 0 3 0V12zm-8-3a3 3 0 1 0 0 6 3 3 0 0 0 0-6z" fill="currentColor"/>
        </symbol>
        <symbol id="icon-map"  viewBox="0 0 24 24">
            <path d="M12 20.9l4.95-4.95a7 7 0 1 0-9.9 0L12 20.9zm0 2.828l-6.364-6.364a9 9 0 1 1 12.728 0L12 23.728zM12 13a2 2 0 1 0 0-4 2 2 0 0 0 0 4zm0 2a4 4 0 1 1 0-8 4 4 0 0 1 0 8z" fill="currentColor"/>
        </symbol>
        <symbol id="icon-phone"  viewBox="0 0 24 24">
            <path d="M9.366 10.682a10.556 10.556 0 0 0 3.952 3.952l.884-1.238a1 1 0 0 1 1.294-.296 11.422 11.422 0 0 0 4.583 1.364 1 1 0 0 1 .921.997v4.462a1 1 0 0 1-.898.995c-.53.055-1.064.082-1.602.082C9.94 21 3 14.06 3 5.5c0-.538.027-1.072.082-1.602A1 1 0 0 1 4.077 3h4.462a1 1 0 0 1 .997.921A11.422 11.422 0 0 0 10.9 8.504a1 1 0 0 1-.296 1.294l-1.238.884zm-2.522-.657l1.9-1.357A13.41 13.41 0 0 1 7.647 5H5.01c-.006.166-.009.333-.009.5C5 12.956 11.044 19 18.5 19c.167 0 .334-.003.5-.01v-2.637a13.41 13.41 0 0 1-3.668-1.097l-1.357 1.9a12.442 12.442 0 0 1-1.588-.75l-.058-.033a12.556 12.556 0 0 1-4.702-4.702l-.033-.058a12.442 12.442 0 0 1-.75-1.588z" fill="currentColor"/>
        </symbol>
        <symbol id="icon-filters"  viewBox="0 0 24 24">
            <path d="M10 18h4v-2h-4v2zM3 6v2h18V6H3zm3 7h12v-2H6v2z"/>
        </symbol>
        <symbol id="icon-verified"  viewBox="0 0 48 48">
            <polygon fill="currentColor" points="29.62,3 33.053,8.308 39.367,8.624 39.686,14.937 44.997,18.367 42.116,23.995 45,29.62 39.692,33.053 39.376,39.367 33.063,39.686 29.633,44.997 24.005,42.116 18.38,45 14.947,39.692 8.633,39.376 8.314,33.063 3.003,29.633 5.884,24.005 3,18.38 8.308,14.947 8.624,8.633 14.937,8.314 18.367,3.003 23.995,5.884"/>
            <polygon fill="#fff" points="21.396,31.255 14.899,24.76 17.021,22.639 21.428,27.046 30.996,17.772 33.084,19.926"/>
        </symbol>
        <symbol viewBox="0 0 24 24" id="login">
            <path d="M11,7L9.6,8.4l2.6,2.6H2v2h10.2l-2.6,2.6L11,17l5-5L11,7z M20,19h-8v2h8c1.1,0,2-0.9,2-2V5c0-1.1-0.9-2-2-2h-8v2h8V19z"/>
        </symbol>
        <symbol viewBox="0 0 24 24" id="laptop">
            <path d="M20 18c1.1 0 1.99-.9 1.99-2L22 6c0-1.1-.9-2-2-2H4c-1.1 0-2 .9-2 2v10c0 1.1.9 2 2 2H0v2h24v-2h-4zM4 6h16v10H4V6z"/>
        </symbol>
        <symbol viewBox="0 0 24 24" id="mobile">
            <path d="M0 0h24v24H0V0z" fill="none"/>
            <path d="M15.5 1h-8C6.12 1 5 2.12 5 3.5v17C5 21.88 6.12 23 7.5 23h8c1.38 0 2.5-1.12 2.5-2.5v-17C18 2.12 16.88 1 15.5 1zm-4 21c-.83 0-1.5-.67-1.5-1.5s.67-1.5 1.5-1.5 1.5.67 1.5 1.5-.67 1.5-1.5 1.5zm4.5-4H7V4h9v14z"/>
        </symbol>
        <symbol viewBox="0 0 24 24" id="sync-currency">
            <path d="M12.89,11.1c-1.78-0.59-2.64-0.96-2.64-1.9c0-1.02,1.11-1.39,1.81-1.39c1.31,0,1.79,0.99,1.9,1.34l1.58-0.67 C15.39,8.03,14.72,6.56,13,6.24V5h-2v1.26C8.52,6.82,8.51,9.12,8.51,9.22c0,2.27,2.25,2.91,3.35,3.31 c1.58,0.56,2.28,1.07,2.28,2.03c0,1.13-1.05,1.61-1.98,1.61c-1.82,0-2.34-1.87-2.4-2.09L8.1,14.75c0.63,2.19,2.28,2.78,2.9,2.96V19 h2v-1.24c0.4-0.09,2.9-0.59,2.9-3.22C15.9,13.15,15.29,11.93,12.89,11.1z M3,21H1v-6h6v2l-2.48,0c1.61,2.41,4.36,4,7.48,4 c4.97,0,9-4.03,9-9h2c0,6.08-4.92,11-11,11c-3.72,0-7.01-1.85-9-4.67L3,21z M1,12C1,5.92,5.92,1,12,1c3.72,0,7.01,1.85,9,4.67L21,3 h2v6h-6V7l2.48,0C17.87,4.59,15.12,3,12,3c-4.97,0-9,4.03-9,9H1z"/>
        </symbol>
        <symbol id="menu" viewBox="0 0 24 24">
            <path d="M0 0h24v24H0V0z" fill="none"/>
            <path d="M3 18h18v-2H3v2zm0-5h18v-2H3v2zm0-7v2h18V6H3z"/>
        </symbol>
        <symbol viewBox="0 0 24 24" id="not-allowed">
            <path d="M12,2C6.48,2,2,6.48,2,12s4.48,10,10,10s10-4.48,10-10S17.52,2,12,2z M12,20c-4.42,0-8-3.58-8-8 c0-1.85,0.63-3.55,1.69-4.9L16.9,18.31C15.55,19.37,13.85,20,12,20z M18.31,16.9L7.1,5.69C8.45,4.63,10.15,4,12,4 c4.42,0,8,3.58,8,8C20,13.85,19.37,15.55,18.31,16.9z"/>
        </symbol>
        <symbol viewBox="0 0 24 24" id="seller-order">
            <path d="M0 0h24v24H0z" fill="none"/>
            <path d="M12 12.25c1.24 0 2.25-1.01 2.25-2.25S13.24 7.75 12 7.75 9.75 8.76 9.75 10s1.01 2.25 2.25 2.25zm4.5 4c0-1.5-3-2.25-4.5-2.25s-4.5.75-4.5 2.25V17h9v-.75zM19 3H5c-1.1 0-2 .9-2 2v14c0 1.1.9 2 2 2h14c1.1 0 2-.9 2-2V5c0-1.1-.9-2-2-2zm0 16H5V5h14v14z"/>
        </symbol>
        <symbol viewBox="0 0 24 24" id="tick">
            <path d="M0 0h24v24H0z" fill="none"/>
            <path d="M9 16.2L4.8 12l-1.4 1.4L9 19 21 7l-1.4-1.4L9 16.2z"/>
        </symbol>
        <symbol viewBox="0 0 24 24" id="timeline">
            <g>
                <rect fill="none" height="24" width="24"/>
            </g>
            <g>
                <g>
                    <g>
                        <path d="M23,8c0,1.1-0.9,2-2,2c-0.18,0-0.35-0.02-0.51-0.07l-3.56,3.55C16.98,13.64,17,13.82,17,14c0,1.1-0.9,2-2,2s-2-0.9-2-2 c0-0.18,0.02-0.36,0.07-0.52l-2.55-2.55C10.36,10.98,10.18,11,10,11s-0.36-0.02-0.52-0.07l-4.55,4.56C4.98,15.65,5,15.82,5,16 c0,1.1-0.9,2-2,2s-2-0.9-2-2s0.9-2,2-2c0.18,0,0.35,0.02,0.51,0.07l4.56-4.55C8.02,9.36,8,9.18,8,9c0-1.1,0.9-2,2-2s2,0.9,2,2 c0,0.18-0.02,0.36-0.07,0.52l2.55,2.55C14.64,12.02,14.82,12,15,12s0.36,0.02,0.52,0.07l3.55-3.56C19.02,8.35,19,8.18,19,8 c0-1.1,0.9-2,2-2S23,6.9,23,8z"/>
                    </g>
                </g>
            </g>
        </symbol>
        <symbol viewBox="0 0 512.004 512.004" id="inventory">
            <path d="M438.253,0H320.002h-128H73.751C33.09,0,0.002,33.088,0.002,73.749v364.501C0.002,478.912,33.09,512,73.751,512h118.251
				c11.797,0,21.333-9.557,21.333-21.333s-9.536-21.333-21.333-21.333H73.751c-17.152,0-31.083-13.952-31.083-31.083V73.749
				c0-17.131,13.931-31.083,31.083-31.083h96.917v106.667c0,7.872,4.331,15.104,11.264,18.816c6.933,3.712,15.36,3.285,21.909-1.067
				l52.16-34.773l52.16,34.773c3.563,2.389,7.701,3.584,11.84,3.584c3.456,0,6.912-0.832,10.069-2.517
				c6.933-3.712,11.264-10.944,11.264-18.816V42.667h96.917c17.152,0,31.083,13.952,31.083,31.083v75.584
				c0,11.776,9.536,21.333,21.333,21.333s21.333-9.557,21.333-21.333V73.749C512.002,33.088,478.914,0,438.253,0z"/>
            <path d="M501.043,311.343l-23.04-23.04c-14.123-14.144-38.805-14.144-52.907-0.021L302.089,411.311
				c-2.56,2.56-4.416,5.717-5.419,9.173l-18.496,64.277c-2.155,7.467-0.085,15.488,5.419,20.992
				c4.053,4.053,9.493,6.251,15.083,6.251c1.963,0,3.947-0.277,5.888-0.832l64.277-18.496c3.477-1.003,6.635-2.88,9.173-5.419
				l123.029-123.029c14.571-14.571,14.592-38.293,0.021-52.885H501.043z"/>
        </symbol>
        <symbol viewBox="0 0 24 24" id="print">
            <path d="M0 0h24v24H0z" fill="none"/>
            <path d="M19 8H5c-1.66 0-3 1.34-3 3v6h4v4h12v-4h4v-6c0-1.66-1.34-3-3-3zm-3 11H8v-5h8v5zm3-7c-.55 0-1-.45-1-1s.45-1 1-1 1 .45 1 1-.45 1-1 1zm-1-9H6v4h12V3z"/>
        </symbol>
        <symbol viewBox="0 0 511.998 511.998" id="list-paper">
            <path d="M430.584,0H183.389c-6.544,0-12.82,2.599-17.448,7.229L63.968,109.198c-4.628,4.628-7.229,10.904-7.229,17.448v360.676
				c0,13.628,11.049,24.677,24.677,24.677h349.166c13.628,0,24.677-11.049,24.677-24.677V24.677C455.261,11.049,444.212,0,430.584,0
				z M176.196,66.767v52.687h-52.688L176.196,66.767z M405.907,462.646H106.094V168.809h94.779
				c13.628,0,24.677-11.049,24.677-24.677V49.354h180.357V462.646z"/>
            <path d="M167.999,229.969c0,13.628,11.049,24.677,24.677,24.677h140.646c13.628,0,24.677-11.049,24.677-24.677
				c0-13.628-11.049-24.677-24.677-24.677H192.675C179.047,205.293,167.999,216.341,167.999,229.969z"/>
            <path d="M333.321,286.551H192.675c-13.628,0-24.677,11.049-24.677,24.677c0,13.628,11.049,24.677,24.677,24.677h140.646
				c13.628,0,24.677-11.049,24.677-24.677C357.998,297.6,346.95,286.551,333.321,286.551z"/>
            <path d="M333.321,367.812H192.675c-13.628,0-24.677,11.049-24.677,24.677c0,13.628,11.049,24.677,24.677,24.677h140.646
				c13.628,0,24.677-11.049,24.677-24.677C357.998,378.861,346.95,367.812,333.321,367.812z"/>
        </symbol>
        <symbol viewBox="0 0 512 512" id="print-label">
            <g>
                <g>
                    <path d="M152.455,103.545L0,256l152.455,152.455H512V103.545H152.455z M472.229,368.684H168.928L56.244,256l112.684-112.684
                    h303.301V368.684z"/>
                </g>
            </g>
            <g>
                <g>
                    <rect x="120.916" y="236.12" width="39.771" height="39.771"/>
                </g>
            </g>
            <g>
                <g>
                    <rect x="233.6" y="196.349" width="159.083" height="39.771"/>
                </g>
            </g>
            <g>
                <g>
                    <rect x="233.6" y="275.891" width="159.083" height="39.771"/>
                </g>
            </g>
        </symbol>
        <symbol viewBox="0 0 512 512" id="pickup">
            <path fill="#000" d="M272.824 24.318c-14.929.312-25.66 3.246-32.767 8.446L142.899 84.91l-54.106 73.514C77.42 175.98 85.518 210 121.112 188.197l38.9-51.351c49.476-42.711 150.484-23.032 102.586 62.591-23.53 49.582-12.457 73.79 17.76 83.95l13.812-46.381c23.95-53.825 68.502-63.51 66.684-106.905l107.303 7.725-.866-112.045zm-54.09 103.338c-17.41-.3-34.485 6.898-46.92 17.375l-39.044 51.33c10.713 8.506 21.413 3.959 32.125-6.363 12.626 6.394 22.365-3.522 30.365-23.297 3.317-13.489 8.21-23.037 23.475-39.045zm-32.617 88.324a13.49 13.49 0 0 0-5.232 1.235l-129.164 59.51c-6.784 3.13-9.763 11.202-6.633 17.992l85.27 185.08c3.132 6.783 11.205 9.779 18 6.635l129.15-59.504c6.796-3.137 9.777-11.198 6.647-18L198.87 223.86c-2.343-5.097-7.473-8.043-12.754-7.88zm-29.767 50.06c7.794.113 14.913 2.053 21.092 5.847 10.758 6.604 18.63 20.93 19.644 35.754.698 10.184-1.712 17.837-12.553 39.873-3.879 7.885-5.634 15.27-5.072 21.355.46 4.973.786 5.855 3.639 9.844l3.135 4.38-1.754.98c-.965.538-7.097 3.1-13.627 5.693-6.918 2.746-12.316 4.496-12.934 4.193-.583-.286-2.352-2.62-3.931-5.188-7.525-12.227-7.225-27.53.878-44.627 6.655-14.04 8.47-19.966 7.952-25.974-.815-9.44-6.743-16.478-14.834-17.617-6.021-.848-10.668.553-18.912 5.703-8.298 5.183-13.941 10.708-19.055 18.656-1.8 2.797-3.407 5.053-3.57 5.014-.164-.04-3.206-7.256-6.758-16.037l-6.46-15.967 3.23-3.666c5.809-6.598 11.758-11.166 22.226-17.065 13.44-7.573 26.273-11.314 37.664-11.15zm33.308 133.048c6.463.125 12.18 3.215 15.7 8.963 4.296 7.015 4.185 13.838-.334 20.752-2.89 4.42-8.953 8.313-15.04 9.654-15.132 3.335-28.038-9.343-23.726-23.307 1.817-5.885 5.325-9.937 11.273-13.02 4.104-2.125 8.25-3.117 12.127-3.042z"/>
        </symbol>
        <symbol viewBox="0 0 24 24" id="pages">
            <path d="M0 0h24v24H0z" fill="none"/>
            <path d="M11.99 18.54l-7.37-5.73L3 14.07l9 7 9-7-1.63-1.27-7.38 5.74zM12 16l7.36-5.73L21 9l-9-7-9 7 1.63 1.27L12 16z"/>
        </symbol>
        <symbol viewBox="0 0 24 24" id="android-icon">
            <path d="M0,0h24v24H0V0z" fill="none"/>
            <path d="M17.6,9.48l1.84-3.18c0.16-0.31,0.04-0.69-0.26-0.85c-0.29-0.15-0.65-0.06-0.83,0.22l-1.88,3.24 c-2.86-1.21-6.08-1.21-8.94,0L5.65,5.67c-0.19-0.29-0.58-0.38-0.87-0.2C4.5,5.65,4.41,6.01,4.56,6.3L6.4,9.48 C3.3,11.25,1.28,14.44,1,18h22C22.72,14.44,20.7,11.25,17.6,9.48z M7,15.25c-0.69,0-1.25-0.56-1.25-1.25 c0-0.69,0.56-1.25,1.25-1.25S8.25,13.31,8.25,14C8.25,14.69,7.69,15.25,7,15.25z M17,15.25c-0.69,0-1.25-0.56-1.25-1.25 c0-0.69,0.56-1.25,1.25-1.25s1.25,0.56,1.25,1.25C18.25,14.69,17.69,15.25,17,15.25z"/>
        </symbol>
        <symbol viewBox="0 0 305 305" id="apple-icon">
            <g id="XMLID_228_">
                <path id="XMLID_229_" d="M40.738,112.119c-25.785,44.745-9.393,112.648,19.121,153.82C74.092,286.523,88.502,305,108.239,305
            c0.372,0,0.745-0.007,1.127-0.022c9.273-0.37,15.974-3.225,22.453-5.984c7.274-3.1,14.797-6.305,26.597-6.305
            c11.226,0,18.39,3.101,25.318,6.099c6.828,2.954,13.861,6.01,24.253,5.815c22.232-0.414,35.882-20.352,47.925-37.941
            c12.567-18.365,18.871-36.196,20.998-43.01l0.086-0.271c0.405-1.211-0.167-2.533-1.328-3.066c-0.032-0.015-0.15-0.064-0.183-0.078
            c-3.915-1.601-38.257-16.836-38.618-58.36c-0.335-33.736,25.763-51.601,30.997-54.839l0.244-0.152
            c0.567-0.365,0.962-0.944,1.096-1.606c0.134-0.661-0.006-1.349-0.386-1.905c-18.014-26.362-45.624-30.335-56.74-30.813
            c-1.613-0.161-3.278-0.242-4.95-0.242c-13.056,0-25.563,4.931-35.611,8.893c-6.936,2.735-12.927,5.097-17.059,5.097
            c-4.643,0-10.668-2.391-17.645-5.159c-9.33-3.703-19.905-7.899-31.1-7.899c-0.267,0-0.53,0.003-0.789,0.008
            C78.894,73.643,54.298,88.535,40.738,112.119z"/>
                <path id="XMLID_230_" d="M212.101,0.002c-15.763,0.642-34.672,10.345-45.974,23.583c-9.605,11.127-18.988,29.679-16.516,48.379
            c0.155,1.17,1.107,2.073,2.284,2.164c1.064,0.083,2.15,0.125,3.232,0.126c15.413,0,32.04-8.527,43.395-22.257
            c11.951-14.498,17.994-33.104,16.166-49.77C214.544,0.921,213.395-0.049,212.101,0.002z"/>
            </g>
        </symbol>
        <symbol viewBox="0 0 52 52" id="utility-icons">
            <path d="M31.6,21.6c-1.2,0-2.2-1-2.2-2.2V5.5c0-1.2,1-2.2,2.2-2.2h14.2c1.2,0,2.2,1,2.2,2.2v13.9
            c0,1.2-1,2.2-2.2,2.2H31.6z" />
                    <path d="M37.7,29.8l-8.2,8.9c-0.5,0.5-0.5,1.3,0,1.9l8.2,8.9c0.5,0.6,1.5,0.6,2,0l8.2-8.9c0.5-0.5,0.5-1.3,0-1.9
            l-8.2-8.9C39.2,29.2,38.3,29.2,37.7,29.8z" />
                    <circle cx="13" cy="39.4" r="9.3" />
                    <path d="M4.8,6.5l7.2-4.1c0.7-0.4,1.5-0.4,2.1,0l7.1,4.1c0.7,0.4,1.1,1.1,1.1,1.9v8.2c0,0.8-0.4,1.5-1.1,1.9
            l-7.1,4.1c-0.7,0.4-1.5,0.4-2.1,0l-7.2-4.1c-0.7-0.4-1.1-1.1-1.1-1.9V8.4C3.7,7.6,4.1,6.9,4.8,6.5z" />
        </symbol>
        <symbol viewBox="0 0 24 24" id="badge">
            <rect fill="none" height="24" width="24"/>
            <path d="M12,1L3,5v6c0,5.55,3.84,10.74,9,12c5.16-1.26,9-6.45,9-12V5L12,1z M14.5,12.59l0.9,3.88L12,14.42l-3.4,2.05l0.9-3.87 l-3-2.59l3.96-0.34L12,6.02l1.54,3.64L17.5,10L14.5,12.59z"/>
        </symbol>
        <symbol id="icn-prev" viewBox="0 0 16 16">
            <path fill-rule="evenodd" d="M11.354 1.646a.5.5 0 0 1 0 .708L5.707 8l5.647 5.646a.5.5 0 0 1-.708.708l-6-6a.5.5 0 0 1 0-.708l6-6a.5.5 0 0 1 .708 0z"/>
        </symbol>
        <symbol id="icn-next" viewBox="0 0 16 16">
            <path fill-rule="evenodd" d="M4.646 1.646a.5.5 0 0 1 .708 0l6 6a.5.5 0 0 1 0 .708l-6 6a.5.5 0 0 1-.708-.708L10.293 8 4.646 2.354a.5.5 0 0 1 0-.708z"/>
        </symbol>
        <symbol  id="info"  viewBox="0 0 24 24" stroke-width="2" stroke="currentColor" fill="none" stroke-linecap="round" stroke-linejoin="round">
            <path stroke="none" d="M0 0h24v24H0z" fill="none"/>
            <path d="M3 12h1m8 -9v1m8 8h1m-15.4 -6.4l.7 .7m12.1 -.7l-.7 .7" />
            <path d="M9 16a5 5 0 1 1 6 0a3.5 3.5 0 0 0 -1 3a2 2 0 0 1 -4 0a3.5 3.5 0 0 0 -1 -3" />
            <line x1="9.7" y1="17" x2="14.3" y2="17" />
        </symbol>
        <symbol  id="warning" viewBox="0 0 24 24" stroke-width="2" stroke="currentColor" fill="none" stroke-linecap="round" stroke-linejoin="round">
            <path stroke="none" d="M0 0h24v24H0z" fill="none"/>
            <path d="M12 9v2m0 4v.01" />
            <path d="M5 19h14a2 2 0 0 0 1.84 -2.75l-7.1 -12.25a2 2 0 0 0 -3.5 0l-7.1 12.25a2 2 0 0 0 1.75 2.75" />
        </symbol>
        <symbol  id="test"  viewBox="0 0 16 16">
            <path d="M0 0h24v24H0V0z" fill="none"/>
            <path d="M20 11H7.83l5.59-5.59L12 4l-8 8 8 8 1.41-1.41L7.83 13H20v-2z"/>
        </symbol>
        <symbol viewBox="0 0 24 24" id="sync">
            <path d="M0 0h24v24H0z" fill="none"/><path d="M12 4V1L8 5l4 4V6c3.31 0 6 2.69 6 6 0 1.01-.25 1.97-.7 2.8l1.46 1.46C19.54 15.03 20 13.57 20 12c0-4.42-3.58-8-8-8zm0 14c-3.31 0-6-2.69-6-6 0-1.01.25-1.97.7-2.8L5.24 7.74C4.46 8.97 4 10.43 4 12c0 4.42 3.58 8 8 8v3l4-4-4-4v3z"/>
        </symbol>
        <symbol viewBox="0 0 24 24" id="alert">
            <path d="M12.865 3.00017L22.3912 19.5002C22.6674 19.9785 22.5035 20.5901 22.0252 20.8662C21.8732 20.954 21.7008 21.0002 21.5252 21.0002H2.47266C1.92037 21.0002 1.47266 20.5525 1.47266 20.0002C1.47266 19.8246 1.51886 19.6522 1.60663 19.5002L11.1329 3.00017C11.4091 2.52187 12.0206 2.358 12.4989 2.63414C12.651 2.72191 12.7772 2.84815 12.865 3.00017ZM4.20471 19.0002H19.7932L11.9989 5.50017L4.20471 19.0002ZM10.9989 16.0002H12.9989V18.0002H10.9989V16.0002ZM10.9989 9.00017H12.9989V14.0002H10.9989V9.00017Z"></path>
        </symbol>
        <symbol id="pin" viewBox="0 0 512 512">
            <g>
                <path d="M341.476,338.285c54.483-85.493,47.634-74.827,49.204-77.056C410.516,233.251,421,200.322,421,166
                    C421,74.98,347.139,0,256,0C165.158,0,91,74.832,91,166c0,34.3,10.704,68.091,31.19,96.446l48.332,75.84
                    C118.847,346.227,31,369.892,31,422c0,18.995,12.398,46.065,71.462,67.159C143.704,503.888,198.231,512,256,512
                    c108.025,0,225-30.472,225-90C481,369.883,393.256,346.243,341.476,338.285z M147.249,245.945
                    c-0.165-0.258-0.337-0.51-0.517-0.758C129.685,221.735,121,193.941,121,166c0-75.018,60.406-136,135-136
                    c74.439,0,135,61.009,135,136c0,27.986-8.521,54.837-24.646,77.671c-1.445,1.906,6.094-9.806-110.354,172.918L147.249,245.945z
                    M256,482c-117.994,0-195-34.683-195-60c0-17.016,39.568-44.995,127.248-55.901l55.102,86.463
                    c2.754,4.322,7.524,6.938,12.649,6.938s9.896-2.617,12.649-6.938l55.101-86.463C411.431,377.005,451,404.984,451,422
                    C451,447.102,374.687,482,256,482z"/>
            </g>
            <g>
                <path d="M256,91c-41.355,0-75,33.645-75,75s33.645,75,75,75c41.355,0,75-33.645,75-75S297.355,91,256,91z M256,211
                    c-24.813,0-45-20.187-45-45s20.187-45,45-45s45,20.187,45,45S280.813,211,256,211z"/>
            </g>
        </symbol>
    </defs>
</svg>