<?xml version="1.0" encoding="utf-8"?>
<svg xmlns="http://www.w3.org/2000/svg" xmlns:xlink="http://www.w3.org/1999/xlink">

<symbol id="arrow-back" xmlns="http://www.w3.org/2000/svg" viewBox="0 0 24 24">
  <path d="M7.828,11H20v2H7.828l5.364,5.364-1.414,1.414L4,12l7.778-7.778,1.414,1.414Z"/>
</symbol>


<symbol id="all-courses" xmlns="http://www.w3.org/2000/svg" viewBox="0 0 24 24">
<g><path d="M12.96,3.99c2.18,0,4.36,0,6.54,0,.4,0,.5,.09,.5,.49,0,3.68,0,7.37,0,11.05,0,.14-.03,.28-.08,.41-.29,.79-.48,1.59-.38,2.44,.04,.37,.15,.72,.35,1.03,.09,.14,.15,.27,.06,.43-.08,.16-.23,.18-.39,.18-4.33,0-8.67,0-13,0-1.03,0-1.83-.44-2.33-1.37-.17-.32-.23-.66-.23-1.02,0-3.74,0-7.49,0-11.23,0-1.37,1.1-2.39,2.56-2.4,2.13,0,4.27,0,6.4,0Zm6.35,.68h-.26c-4.13,0-8.26,0-12.38,0-.13,0-.25,0-.38,.02-.75,.08-1.62,.68-1.61,1.72,.01,3.15,0,6.3,0,9.45,0,.06,0,.12,.02,.22,.66-.61,1.41-.74,2.23-.74,4.04,.01,8.08,0,12.12,0h.26V4.67Zm-.15,11.37c-.08,0-.12,0-.17,0-4.14,0-8.28,0-12.42,0-.28,0-.59,.06-.85,.17-.63,.27-1.02,.75-1.03,1.46,0,.72,.4,1.19,1.02,1.49,.32,.15,.66,.18,1.01,.18,4.04,0,8.08,0,12.13,0,.07,0,.14,0,.23-.01-.41-1.11-.25-2.19,.08-3.29Z"/><path d="M9.37,10.07c0-1.05,0-2.1,0-3.16,0-.17,.02-.32,.18-.41,.16-.09,.29-.02,.43,.06,1.72,1.06,3.44,2.11,5.17,3.16,.34,.21,.34,.48,0,.69-1.73,1.06-3.46,2.12-5.18,3.18-.13,.08-.26,.13-.41,.05-.15-.09-.18-.23-.18-.39,0-1.06,0-2.12,0-3.18Zm5.04,0l-4.35-2.66v5.32l4.35-2.66Z"/><path d="M12.18,18.16c-1.71,0-3.42,0-5.13,0-.07,0-.15,0-.22,0-.17-.02-.28-.12-.3-.3-.02-.17,.08-.32,.25-.36,.07-.02,.14-.02,.22-.02,3.45,0,6.9,0,10.35,0,.08,0,.16,0,.24,.03,.16,.05,.24,.18,.23,.34-.01,.17-.11,.28-.29,.31-.07,.01-.15,0-.22,0-1.71,0-3.42,0-5.13,0Z"/></g><rect fill="none" width="24" height="24"/></symbol>


<symbol id="resources" xmlns="http://www.w3.org/2000/svg" viewBox="0 0 24 24">
<g><rect fill="none" width="24" height="24"/>
<path d="M3,7.22l.06-.18c.16-.49,.6-.82,1.12-.84,.18,0,.36,0,.54,0,.27,0,.47-.14,.57-.39,.04-.11,.08-.23,.13-.35,.22-.58,.79-.98,1.41-.99,.64,0,1.28-.01,1.92,0,.64,.01,1.16,.29,1.56,.79,.12,.15,.23,.31,.34,.47,.23,.31,.53,.46,.92,.46,1.78,0,3.55,0,5.33,0,.84,0,1.33,.49,1.33,1.33,0,.47,0,.94,0,1.41v.19c.13,0,.25,0,.36,0,.4,0,.8,0,1.2,0,.93,.02,1.43,.73,1.13,1.61-.3,.89-.62,1.77-.93,2.65-.56,1.6-1.12,3.2-1.68,4.8-.29,.83-1.01,1.34-1.89,1.34-4.03,0-8.06,0-12.1,0-.2,0-.41-.03-.6-.1-.4-.14-.62-.45-.68-.86,0-.04-.02-.08-.04-.13,0-3.74,0-7.48,0-11.22Zm7.39,11.33c2,0,4.01,0,6.01,0,.49,0,.82-.24,.98-.69,.73-2.08,1.45-4.15,2.18-6.23,.14-.41,.29-.83,.43-1.24,.06-.19,.01-.26-.19-.28-.04,0-.07,0-.11,0-4.03,0-8.06,0-12.1,0-.45,0-.81,.25-.96,.68-.74,2.1-1.47,4.21-2.21,6.31-.14,.39-.27,.77-.4,1.16-.07,.21-.02,.28,.2,.29,.05,0,.11,0,.16,0,2,0,4,0,5.99,0Zm6.85-9.42c0-.54,0-1.06,0-1.57,0-.33-.05-.38-.37-.38-1.77,0-3.54,0-5.31,0-.71,0-1.28-.29-1.7-.86-.11-.15-.22-.31-.33-.45-.21-.26-.48-.41-.82-.41-.6,0-1.21,0-1.81,0-.29,0-.49,.14-.59,.41-.03,.09-.06,.18-.09,.26-.23,.6-.67,.95-1.3,1.04-.2,.03-.41,.01-.61,.01-.26,0-.32,.06-.32,.32,0,2.57,0,5.15,0,7.72,0,.05,0,.09,.01,.19,.03-.09,.05-.13,.06-.16,.55-1.57,1.1-3.15,1.65-4.72,.31-.9,1.01-1.4,1.97-1.4,3.11,0,6.21,0,9.32,0h.25Z"/></g></symbol>


<symbol id="placeholder-image" xmlns="http://www.w3.org/2000/svg" viewBox="0 0 80 80">
  <g transform="translate(-120 -59)">
    <rect transform="translate(120 59)" fill="none"/>
    <g transform="translate(128 67)">
      <path d="M56,9H8V51L35.876,23.118a3,3,0,0,1,4.242,0L56,39.03ZM2,5.979A3,3,0,0,1,4.976,3H59.024A2.978,2.978,0,0,1,62,5.979V54.021A3,3,0,0,1,59.024,57H4.976A2.979,2.979,0,0,1,2,54.021ZM20,27a6,6,0,1,1,6-6A6,6,0,0,1,20,27Z" transform="translate(1 2)"/>
    </g>
  </g>
</symbol>

<symbol id="placeholder-video" xmlns="http://www.w3.org/2000/svg" viewBox="0 0 80 80">
  <g transform="translate(-478 -40)">
    <rect transform="translate(478 40)" fill="none"/>
    <g transform="translate(486.004 53.997)">
      <g transform="translate(-0.004 0.003)">
        <g>
          <path d="M349.759,130.17H338.8v-16h10.959Z" transform="translate(-285.759 -96.297)"/>
          <path d="M349.793,14H338.84V.018h.681c2.561,0,5.122.033,7.684-.014a2.411,2.411,0,0,1,2.588,1.5Z" transform="translate(-285.793 -0.003)"/>
          <path d="M349.868,253.619a2.418,2.418,0,0,1-2.588,1.5c-2.539-.049-5.08-.014-7.621-.014h-.73V241.12h10.938Z" transform="translate(-285.868 -203.372)" />
          <path d="M129.578,52.085H95.47V.46h34.108ZM105.666,26.233c0,2.373-.017,4.747.006,7.12a1.955,1.955,0,0,0,3.058,1.825q6.2-3.553,12.357-7.175a1.934,1.934,0,0,0,0-3.49c-4.106-2.414-8.233-4.792-12.354-7.183a1.971,1.971,0,0,0-1.794-.189,2.02,2.02,0,0,0-1.267,2.093c-.006,2.333,0,4.664,0,7Z" transform="translate(-80.523 -0.388)" />
          <path d="M.24,114.53H11.152V130.4H.24Z" transform="translate(-0.202 -96.6)"/>
          <path d="M10.953,14.057H0V2.45C0,.851.737.1,2.315.1Q6.345.09,10.375.1c.182,0,.365.019.579.031V14.057Z" transform="translate(0.001 -0.08)"/>
          <path d="M10.957,241.44v13.9c-.227.013-.429.031-.631.031q-4,0-8,0A2.038,2.038,0,0,1,0,253.038q0-5.5,0-10.995v-.6Z" transform="translate(0.004 -203.642)"/>
        </g>
      </g>
    </g>
  </g>
</symbol>


<symbol id="photo-icon" xmlns="http://www.w3.org/2000/svg" viewBox="0 0 24 24">
  <path d="M16.4,4.6H3.6V15.8l7.434-7.435a.8.8,0,0,1,1.131,0L16.4,12.608ZM2,3.794A.8.8,0,0,1,2.794,3H17.206A.794.794,0,0,1,18,3.794V16.606a.8.8,0,0,1-.794.794H2.794A.794.794,0,0,1,2,16.606ZM6.8,9.4A1.6,1.6,0,1,1,8.4,7.8,1.6,1.6,0,0,1,6.8,9.4Z" transform="translate(2 2)"/>
</symbol>


<symbol id="video-icon" xmlns="http://www.w3.org/2000/svg" viewBox="0 0 24 24">
  <path d="M0,0H24V24H0Z" fill="none"/>
  <path d="M11.909,4a.727.727,0,0,1,.727.727V7.782l3.791-2.655a.364.364,0,0,1,.572.3v8.785a.364.364,0,0,1-.572.3l-3.791-2.655v3.055a.727.727,0,0,1-.727.727H1.727A.727.727,0,0,1,1,14.909V4.727A.727.727,0,0,1,1.727,4ZM5.655,7.512a.291.291,0,0,0-.285.233L5.364,7.8v4.031a.291.291,0,0,0,.394.272l.053-.026,3.167-2.016a.291.291,0,0,0,.046-.454l-.046-.036L5.811,7.556a.291.291,0,0,0-.156-.044Z" transform="translate(3 2)" />
</symbol>



<symbol id="sorting-icon" xmlns="http://www.w3.org/2000/svg" viewBox="0 0 24 24">

  <g transform="translate(-9 -7)">
    <rect transform="translate(9 9)" fill="none"/>
    <g transform="translate(15 12)">
      <g transform="translate(-540 -436)">
        <circle cx="2" cy="2" r="2" transform="translate(540 436)" />
      </g>
      <g transform="translate(-534 -436)">
        <circle cx="2" cy="2" r="2" transform="translate(540 436)" />
      </g>
      <g transform="translate(-540 -430)">
        <circle cx="2" cy="2" r="2" transform="translate(540 436)" />
      </g>
      <g transform="translate(-534 -430)">
        <circle cx="2" cy="2" r="2" transform="translate(540 436)"/>
      </g>
      <g transform="translate(-540 -424)">
        <circle cx="2" cy="2" r="2" transform="translate(540 436)"/>
      </g>
      <g transform="translate(-534 -424)">
        <circle cx="2" cy="2" r="2" transform="translate(540 436)"/>
      </g>
    </g>
  </g>
</symbol>


<symbol id="bin-icon" xmlns="http://www.w3.org/2000/svg" viewBox="0 0 24 24">
  <g transform="translate(-8 -8)">
    <rect  transform="translate(8 8)" fill="none"/>
    <g transform="translate(14 13)">
      <path d="M18.744,2.024H15.221V0H9.267V2.024H5.744V3.235h1.2l.807,10.692h9l.807-10.692h1.2V2.024Zm-8.266-.813H14.01v.813H10.478Zm5.141,11.506H8.869L8.153,3.235h8.181l-.716,9.481Z" transform="translate(-5.744)"/>
      <path d="M59.128,65.693H60.1v5.346h-.969Zm-1.857,0h.969v5.346h-.969Zm3.713,0h.969v5.346h-.969Z" transform="translate(-53.112 -60.39)" />
    </g>
  </g>
</symbol>

<symbol id="more-icon" xmlns="http://www.w3.org/2000/svg" viewBox="0 0 24 24">
  <path d="M0,0H24V24H0Z" fill="none"/>
  <path d="M9.2,9.2V6h1.6V9.2H14v1.6H10.8V14H9.2V10.8H6V9.2ZM10,18a8,8,0,1,1,8-8A8,8,0,0,1,10,18Zm0-1.6A6.4,6.4,0,1,0,3.6,10,6.4,6.4,0,0,0,10,16.4Z" transform="translate(2 2)"/>
</symbol>


<symbol id="add-more" xmlns="http://www.w3.org/2000/svg" viewBox="0 0 24 24">
  <path d="M0,0H24V24H0Z" fill="none"/>
  <path d="M16.333,13.778v2.667H19v1.778H16.332v2.667H14.556V18.222H11.889V16.444h2.666V13.778Zm-6.222,2.667v1.778H3V16.444ZM19,10.222V12H3V10.222ZM19,4V5.778H3V4Z" transform="translate(1 0)" />
</symbol>


<symbol id="video-attachment" xmlns="http://www.w3.org/2000/svg" viewBox="0 0 32 32">
  <g transform="translate(-621 -982)">
    <rect transform="translate(621 982)" fill="none"/>
    <g transform="translate(624.997 983)">
      <g transform="translate(0.004)">
        <g transform="translate(0)">
          <path d="M21.7,29.314H2.294a.311.311,0,0,0-.076-.037A2.563,2.563,0,0,1,0,26.609q0-11.948,0-23.9A2.9,2.9,0,0,1,.1,1.95,2.56,2.56,0,0,1,2.729.006Q9.656,0,16.582,0a1.279,1.279,0,0,1,.966.4q3.007,2.983,6.034,5.946A1.31,1.31,0,0,1,24,7.355Q23.991,16.928,24,26.5c0,.124,0,.248-.009.372a2.562,2.562,0,0,1-.965,1.874,3.065,3.065,0,0,1-1.321.568Zm.561-21.339H16.989c-.751,0-1.06-.309-1.061-1.057q0-2.432,0-4.864v-.33H2.767c-.729,0-1.045.316-1.045,1.044V22.24H22.263V7.975ZM22.275,24H1.721v2.507c0,.788.3,1.088,1.087,1.088h18.4c.1,0,.191,0,.286-.006a.819.819,0,0,0,.776-.749c.019-.942.006-1.884.006-2.841ZM17.663,6.236h3.159l-3.159-3.3Z" transform="translate(-0.004)" />
          <path d="M101.19,136.946c0-1.259.044-2.52-.013-3.776a1.329,1.329,0,0,1,2.1-1.189c1.609.967,3.239,1.9,4.862,2.843.617.36,1.237.716,1.852,1.081a1.178,1.178,0,0,1-.007,2.124q-3.381,1.977-6.766,3.945a1.3,1.3,0,0,1-1.94-.576,1.74,1.74,0,0,1-.085-.589c-.007-1.287,0-2.575,0-3.862Zm1.73-3.178v6.392l5.482-3.2Z" transform="translate(-93.923 -122.304)"/>
        </g>
      </g>
    </g>
  </g>
</symbol>



<symbol id="plus-more" xmlns="http://www.w3.org/2000/svg" viewBox="0 0 24 24">
  <path d="M0,0H24V24H0Z" fill="none"/>
  <path d="M8.3,8.3V5.5H9.7V8.3h2.8V9.7H9.7v2.8H8.3V9.7H5.5V8.3ZM9,16a7,7,0,1,1,7-7A7,7,0,0,1,9,16Zm0-1.4A5.6,5.6,0,1,0,3.4,9,5.6,5.6,0,0,0,9,14.6Z" transform="translate(3 3)" />
</symbol>


<symbol id="uploader" xmlns="http://www.w3.org/2000/svg" viewBox="0 0 24 24">
  <path d="M0,0H24V24H0Z" fill="none"/>
  <path d="M1,12.226A5.314,5.314,0,0,1,3.507,7.711a6.545,6.545,0,0,1,12.985,0,5.318,5.318,0,0,1-2.4,9.817l-8.181.016A5.343,5.343,0,0,1,1,12.226ZM13.965,15.9a3.681,3.681,0,0,0,1.661-6.8l-.66-.411-.1-.771a4.909,4.909,0,0,0-9.738,0l-.1.771L4.373,9.1a3.681,3.681,0,0,0,1.66,6.8l.142.011h7.649l.142-.011ZM10.817,11v3.272H9.181V11H6.727L10,6.908,13.271,11Z" transform="translate(2 2)" />
</symbol>


<symbol id="pdf-attachment"  xmlns="http://www.w3.org/2000/svg" viewBox="0 0 32 32">
  <g transform="translate(-621 -982)">
    <rect transform="translate(621 982)" fill="none"/>
    <g transform="translate(622.015 982)">
      <g transform="translate(-0.015)">
        <g transform="translate(0)">
          <path d="M8.889,31.844A2.767,2.767,0,0,1,7.417,31.1a2.583,2.583,0,0,1-.7-1.868q0-2.487,0-4.974v-.375h-4.7a1.852,1.852,0,0,1-2.023-2.03q0-4.4,0-8.8a1.864,1.864,0,0,1,2.052-2.037q2.145,0,4.29,0h.384v-.376q0-4.026,0-8.051A2.448,2.448,0,0,1,8.554.1,2.857,2.857,0,0,1,9.291.008Q15.185,0,21.074,0a.992.992,0,0,1,.766.333q3.886,4.047,7.784,8.084a1.178,1.178,0,0,1,.361.882q-.012,9.948,0,19.9a2.465,2.465,0,0,1-1.4,2.4,5.544,5.544,0,0,1-.726.252H8.889Zm-.926-7.96c-.007.086-.015.136-.015.186q0,2.643,0,5.285a1.386,1.386,0,0,0,.045.368,1.245,1.245,0,0,0,1.361.89H27.326a1.257,1.257,0,0,0,1.434-1.426q0-9.515,0-19.028c0-.11-.01-.22-.017-.357H21.162c-.829,0-.97-.143-.97-.983V1.249c-.133-.006-.234-.016-.334-.016q-5.255,0-10.509,0a1.243,1.243,0,0,0-1.4,1.42q0,4.011,0,8.022v.343H18.128a1.883,1.883,0,0,1,2.064,2.066q0,4.368,0,8.737a1.875,1.875,0,0,1-2.064,2.061H7.963Zm2.122-1.23H18.1c.678,0,.859-.185.859-.872V13.111c0-.664-.191-.858-.844-.858H2.05c-.653,0-.845.194-.845.859q0,4.336,0,8.671c0,.685.184.871.861.871h8.018ZM28.067,8.571,21.435,1.682V8.571Z" transform="translate(0.015)" />
          <path d="M109.05,197.314v-5.136c.023-.022.038-.049.053-.048.879.012,1.763-.026,2.637.054a1.755,1.755,0,0,1,1.527,1.369,3.689,3.689,0,0,1-.112,2.669,1.668,1.668,0,0,1-1.412,1.076c-.882.066-1.774.016-2.692.016Zm1.076-4.271v3.418c.421,0,.823.024,1.22-.006a.863.863,0,0,0,.9-.816,7.021,7.021,0,0,0,.049-1.539,1.021,1.021,0,0,0-.917-1.049,11.766,11.766,0,0,0-1.254-.009Z" transform="translate(-100.555 -177.165)"/>
          <path d="M47.482,195.138v1.984H46.45v-5.253c.2,0,.393,0,.586,0,.7.016,1.409.012,2.111.056a1.315,1.315,0,0,1,1.234,1.051,1.612,1.612,0,0,1-1.64,2.16c-.4.012-.8,0-1.258,0Zm.027-.854c.449-.031.882-.037,1.307-.1a.652.652,0,0,0,.541-.667.671.671,0,0,0-.579-.7c-.416-.041-.838-.009-1.269-.009v1.478Z" transform="translate(-42.831 -176.924)"/>
          <path d="M181.184,192.19v.868h-2.507V194.3h2.143v.879h-2.157v2.234H177.62V192.19Z" transform="translate(-163.785 -177.221)"/>
        </g>
      </g>
    </g>
  </g>
</symbol>

<symbol id="doc-attachment" xmlns="http://www.w3.org/2000/svg" viewBox="0 0 32 32">
  <g transform="translate(-621 -982)">
    <rect transform="translate(621 982)" fill="none"/>
    <g transform="translate(622.015 982)">
      <g transform="translate(-0.015)">
        <g transform="translate(0)">
          <path d="M8.889,31.844A2.767,2.767,0,0,1,7.417,31.1a2.583,2.583,0,0,1-.7-1.868q0-2.487,0-4.974v-.375h-4.7a1.852,1.852,0,0,1-2.023-2.03q0-4.4,0-8.8a1.864,1.864,0,0,1,2.052-2.037q2.145,0,4.29,0h.384v-.376q0-4.026,0-8.051A2.448,2.448,0,0,1,8.554.1,2.857,2.857,0,0,1,9.291.008Q15.185,0,21.074,0a.992.992,0,0,1,.766.333q3.886,4.047,7.784,8.084a1.178,1.178,0,0,1,.361.882q-.012,9.948,0,19.9a2.465,2.465,0,0,1-1.4,2.4,5.544,5.544,0,0,1-.726.252H8.889Zm11.3-30.61H9.356A1.245,1.245,0,0,0,7.947,2.647q0,4.011,0,8.022v.351H18.121a1.883,1.883,0,0,1,2.071,2.059q0,4.383,0,8.768a2.66,2.66,0,0,1-.076.676,1.828,1.828,0,0,1-1.885,1.36q-4.943,0-9.887,0H7.948v5.31A1.249,1.249,0,0,0,9.38,30.613H27.32a1.262,1.262,0,0,0,1.441-1.45q0-9.5,0-19V9.8H21.076c-.7,0-.883-.18-.883-.882V1.233ZM10.084,12.253H2.1c-.706,0-.891.18-.892.875q0,4.336,0,8.671c0,.666.188.854.847.854H18.12c.657,0,.844-.192.844-.857V13.126c0-.686-.185-.873-.861-.873ZM21.424,8.56h6.632L21.424,1.671V8.56Z" transform="translate(0.015)" />
          <path d="M103.717,193.46a2.477,2.477,0,0,1,1.215-2.418,2.537,2.537,0,0,1,3.851,2.052,3.124,3.124,0,0,1-.4,2,2.346,2.346,0,0,1-2.184,1.054A2.412,2.412,0,0,1,103.717,193.46Zm4.024.037c-.043-.315-.058-.544-.106-.765a1.408,1.408,0,0,0-2.7-.164,2.59,2.59,0,0,0,.056,1.853,1.3,1.3,0,0,0,1.275.825,1.258,1.258,0,0,0,1.258-.84,6.107,6.107,0,0,0,.215-.91Z" transform="translate(-95.637 -175.857)"/>
          <path d="M38.49,196.663V191.32c.967.049,1.921.039,2.857.163a1.674,1.674,0,0,1,1.333,1.3,3.737,3.737,0,0,1-.1,2.7,1.677,1.677,0,0,1-1.381,1.072c-.89.091-1.791.081-2.706.115Zm1.062-.944c.414,0,.806.024,1.193-.005a.9.9,0,0,0,.929-.8,3.758,3.758,0,0,0,.016-1.751.984.984,0,0,0-.833-.851c-.424-.058-.858-.047-1.305-.067Z" transform="translate(-35.491 -176.419)" />
          <path d="M180.959,194.249l.975.312a1.986,1.986,0,0,1-1.79,1.683,2.336,2.336,0,0,1-2.718-2.2,3.05,3.05,0,0,1,.571-2.379,2.331,2.331,0,0,1,2.294-.791,1.882,1.882,0,0,1,1.62,1.354,1.228,1.228,0,0,1,.026.146l-1,.241c-.03-.062-.055-.1-.073-.149a1.064,1.064,0,0,0-1.058-.717,1.113,1.113,0,0,0-1.129.719,2.983,2.983,0,0,0,.008,2.184,1.091,1.091,0,0,0,1.1.71,1.061,1.061,0,0,0,1.026-.72c.051-.122.093-.248.146-.389Z" transform="translate(-163.576 -175.968)"/>
        </g>
      </g>
    </g>
  </g>
</symbol>
<symbol id="xls-attachment" xmlns="http://www.w3.org/2000/svg" viewBox="0 0 32 34">
  <g transform="translate(-621 -980)">
    <rect transform="translate(621 982)" fill="none"/>
    <g transform="translate(622.015 980)">
      <g transform="translate(-0.015)">
        <g transform="translate(0)">
          <path d="M8.889,31.844A2.767,2.767,0,0,1,7.417,31.1a2.583,2.583,0,0,1-.7-1.868q0-2.487,0-4.974v-.375h-4.7a1.852,1.852,0,0,1-2.023-2.03q0-4.4,0-8.8a1.864,1.864,0,0,1,2.052-2.037q2.145,0,4.29,0h.384v-.376q0-4.026,0-8.051A2.448,2.448,0,0,1,8.554.1,2.857,2.857,0,0,1,9.291.008Q15.185,0,21.074,0a.992.992,0,0,1,.766.333q3.886,4.047,7.784,8.084a1.178,1.178,0,0,1,.361.882q-.012,9.948,0,19.9a2.465,2.465,0,0,1-1.4,2.4,5.544,5.544,0,0,1-.726.252H8.889Zm-.926-7.96c-.007.086-.014.137-.014.187q0,2.643,0,5.285A1.356,1.356,0,0,0,8,29.724a1.245,1.245,0,0,0,1.361.89H27.3c1.006,0,1.464-.455,1.465-1.457q0-9.5,0-19c0-.11-.01-.22-.017-.357h-7.55c-.862,0-1-.136-1-.983V1.251c-.133-.006-.234-.016-.335-.016q-5.255,0-10.509,0a1.243,1.243,0,0,0-1.4,1.421q0,4.011,0,8.022v.343h.419q4.9,0,9.794,0a1.874,1.874,0,0,1,2.032,2.035q0,4.4,0,8.8a2.652,2.652,0,0,1-.079.675,1.827,1.827,0,0,1-1.89,1.353q-4.928,0-9.856,0h-.4Zm2.14-1.23h7.987c.7,0,.874-.179.874-.889V13.157c0-.728-.174-.9-.893-.9H2.1c-.706,0-.89.181-.89.876v8.64c0,.709.175.885.879.885H10.1ZM21.423,8.562h6.634L21.423,1.67Z" transform="translate(0.015)" />
          <path d="M167.668,192.292c-.192.009-.368.012-.541.028-.29.027-.55.042-.612-.354-.016-.1-.163-.221-.277-.272a1.335,1.335,0,0,0-1.17.025.528.528,0,0,0-.244.382.456.456,0,0,0,.236.35c.4.164.819.281,1.23.417.206.068.416.126.616.208a1.469,1.469,0,0,1,.953,1.548A1.537,1.537,0,0,1,166.734,196a3.353,3.353,0,0,1-1.656.066,1.738,1.738,0,0,1-1.458-1.72l.476-.052.5-.052c.054.148.094.285.153.414a1.2,1.2,0,0,0,1.9.243.5.5,0,0,0-.184-.839c-.381-.155-.79-.24-1.182-.366a4.665,4.665,0,0,1-.723-.274,1.379,1.379,0,0,1,.132-2.534,2.84,2.84,0,0,1,2.123.027,1.379,1.379,0,0,1,.853,1.384Z" transform="translate(-150.875 -175.837)"/>
          <path d="M44.013,191.816c-.116.185-.2.313-.277.441-.363.567-.7,1.151-1.1,1.694a.622.622,0,0,0,.016.86c.516.723.991,1.474,1.522,2.272-.433,0-.809.01-1.184-.009-.076,0-.165-.107-.217-.186-.346-.527-.683-1.058-1.046-1.624-.352.548-.693,1.065-1.018,1.593a.409.409,0,0,1-.421.232c-.309-.019-.621-.005-1-.005l1.792-2.749-1.625-2.518c.421,0,.779-.013,1.135.01.084.005.181.121.237.207.307.476.6.96.925,1.475.317-.52.618-1,.907-1.491a.364.364,0,0,1,.372-.207c.3.015.6,0,.984,0Z" transform="translate(-36.229 -176.871)"/>
          <path d="M113.34,197.107v.864h-3.66V192.8h1.029v4.307Z" transform="translate(-101.136 -177.783)"/>
        </g>
      </g>
    </g>
  </g>
</symbol>


<symbol id="ppt-attachment" xmlns="http://www.w3.org/2000/svg" viewBox="0 0 32 32">
  <g transform="translate(-621 -980)">
    <rect transform="translate(621 980)" fill="none"/>
    <g transform="translate(622.015 980)">
      <g  transform="translate(-0.015)">
        <g transform="translate(0)">
          <path d="M8.889,31.844A2.767,2.767,0,0,1,7.417,31.1a2.583,2.583,0,0,1-.7-1.868q0-2.487,0-4.974v-.375h-4.7a1.852,1.852,0,0,1-2.023-2.03q0-4.4,0-8.8a1.864,1.864,0,0,1,2.052-2.037q2.145,0,4.29,0h.384v-.376q0-4.026,0-8.051A2.448,2.448,0,0,1,8.554.1,2.857,2.857,0,0,1,9.291.008Q15.185,0,21.074,0a.992.992,0,0,1,.766.333q3.886,4.047,7.784,8.084a1.178,1.178,0,0,1,.361.882q-.012,9.948,0,19.9a2.465,2.465,0,0,1-1.4,2.4,5.544,5.544,0,0,1-.726.252H8.889Zm-.942-7.96v5.31a1.249,1.249,0,0,0,1.433,1.42H27.32a1.261,1.261,0,0,0,1.44-1.45q0-9.5,0-19V9.8H21.074c-.7,0-.882-.18-.882-.882V1.234H9.354A1.244,1.244,0,0,0,7.946,2.647q0,4.011,0,8.022v.35H18.121a1.883,1.883,0,0,1,2.07,2.059q0,4.383,0,8.768a2.7,2.7,0,0,1-.076.676,1.828,1.828,0,0,1-1.886,1.359q-4.943,0-9.887,0H7.947Zm2.138-1.23h8.05c.636,0,.828-.2.829-.84v-8.7c0-.664-.19-.858-.844-.858H2.051c-.653,0-.845.194-.845.859q0,4.336,0,8.671c0,.685.184.871.861.871h8.018ZM21.423,8.56h6.633L21.423,1.671Z" transform="translate(0.015)" />
          <path d="M109.33,191.47c.973.037,1.922.067,2.872.113a.953.953,0,0,1,.377.133,1.628,1.628,0,0,1,.72,1.8,1.456,1.456,0,0,1-1.294,1.2c-.533.049-1.069.062-1.634.092v1.938h-1.04v-5.28Zm1.055,2.446c.452-.029.864-.033,1.27-.086a.7.7,0,0,0,.026-1.375,12.168,12.168,0,0,0-1.3-.011v1.471Z" transform="translate(-100.813 -176.557)" />
          <path d="M47.481,195.13V197.1H46.44V191.86c.233,0,.457,0,.682,0,.673.015,1.347.01,2.017.056a1.384,1.384,0,0,1,1.282,1.3,1.593,1.593,0,0,1-1.724,1.915c-.391.016-.783,0-1.217,0Zm.017-.854c.459-.035.9-.041,1.335-.111a.645.645,0,0,0,.513-.686.666.666,0,0,0-.575-.674c-.416-.04-.839-.009-1.273-.009Z" transform="translate(-42.822 -176.915)"/>
          <path d="M171.555,192.13V193h-1.529v4.352h-1.071v-4.338H167.42v-.889h4.136Z" transform="translate(-154.379 -177.166)" />
        </g>
      </g>
    </g>
  </g>
</symbol>


<symbol id="jpg-attachment" xmlns="http://www.w3.org/2000/svg" viewBox="0 0 32 32">
  <g transform="translate(-621 -980)">
    <rect transform="translate(621 980)" fill="none"/>
    <g transform="translate(622.015 980)">
      <g transform="translate(-0.015)">
        <g transform="translate(0)">
          <path d="M8.889,31.844A2.767,2.767,0,0,1,7.417,31.1a2.583,2.583,0,0,1-.7-1.868q0-2.487,0-4.974v-.375h-4.7a1.852,1.852,0,0,1-2.023-2.03q0-4.4,0-8.8a1.864,1.864,0,0,1,2.052-2.037q2.145,0,4.29,0h.384v-.376q0-4.026,0-8.051A2.448,2.448,0,0,1,8.554.1,2.857,2.857,0,0,1,9.291.008Q15.185,0,21.074,0a.992.992,0,0,1,.766.333q3.886,4.047,7.784,8.084a1.178,1.178,0,0,1,.361.882q-.012,9.948,0,19.9a2.465,2.465,0,0,1-1.4,2.4,5.544,5.544,0,0,1-.726.252H8.889Zm-.927-7.96c-.005.129-.014.23-.014.331,0,1.658.026,3.317-.012,4.975a1.334,1.334,0,0,0,1.439,1.435c5.98-.019,11.96-.009,17.94-.01a1.262,1.262,0,0,0,1.445-1.446q0-9.5,0-19V9.8H21.079c-.71,0-.887-.177-.887-.878V1.252c-.118-.008-.189-.017-.261-.017q-5.332,0-10.664,0A1.22,1.22,0,0,0,7.947,2.613q0,4.042,0,8.084c0,.1.01.2.016.324H18.117a1.883,1.883,0,0,1,2.075,2.055q0,4.383,0,8.768a2.705,2.705,0,0,1-.075.677,1.828,1.828,0,0,1-1.883,1.363q-4.943,0-9.887,0H7.962Zm2.122-1.23h8.05c.637,0,.829-.2.829-.839v-8.7c0-.674-.189-.86-.874-.86H2.083c-.7,0-.878.181-.878.889v8.64c0,.686.184.872.86.872h8.018Zm11.336-14.1h6.63l-6.63-6.884Z" transform="translate(0.015)" />
          <path d="M155.078,194.162h-1.172v-.868h2.245c.005.1.015.2.016.3,0,.467-.015.933.007,1.4a.591.591,0,0,1-.31.61,3.491,3.491,0,0,1-3.006.4,2.549,2.549,0,0,1-1.607-2.618,2.592,2.592,0,0,1,1.258-2.319,2.9,2.9,0,0,1,3.02.212,1.7,1.7,0,0,1,.55,1.013l-.925.18a3.687,3.687,0,0,0-.7-.68,1.428,1.428,0,0,0-2,.874,2.674,2.674,0,0,0,.021,1.592,1.428,1.428,0,0,0,1.826.957c.05-.013.1-.03.148-.047.641-.21.678-.266.634-1Z" transform="translate(-139.466 -175.882)"/>
          <path d="M91.021,191.51c.962.033,1.9.041,2.84.115a1.294,1.294,0,0,1,.72.379,1.63,1.63,0,0,1,.326,1.79,1.361,1.361,0,0,1-1.277.97c-.512.041-1.028.055-1.573.083v1.941H91.02V191.51Zm1.04.957c0,.436-.009.85.009,1.262a.274.274,0,0,0,.188.192,7.921,7.921,0,0,0,1.053-.048.677.677,0,0,0,.617-.7.686.686,0,0,0-.622-.7c-.4-.032-.8-.007-1.246-.007Z" transform="translate(-83.93 -176.594)" />
          <path d="M35.338,192.13h1.035c.009.078.022.138.022.2,0,1.15.008,2.3-.015,3.45a1.688,1.688,0,0,1-2.5,1.534,1.561,1.561,0,0,1-.838-1.551l.974-.123c.045.2.073.371.125.537a.529.529,0,0,0,.576.379c.291-.01.536-.117.573-.451a7.7,7.7,0,0,0,.049-.8c.005-1.045,0-2.09,0-3.167Z" transform="translate(-30.465 -177.166)" />
        </g>
      </g>
    </g>
  </g>
</symbol>

<symbol id="zip-attachment"  xmlns="http://www.w3.org/2000/svg" viewBox="0 0 32 32">
  <g transform="translate(-621 -980)">
    <rect transform="translate(621 980)" fill="none"/>
    <g transform="translate(622.015 980)">
      <g transform="translate(-0.015)">
        <g transform="translate(0)">
          <path d="M8.889,31.844A2.767,2.767,0,0,1,7.417,31.1a2.583,2.583,0,0,1-.7-1.868q0-2.487,0-4.974v-.375h-4.7a1.852,1.852,0,0,1-2.023-2.03q0-4.4,0-8.8a1.864,1.864,0,0,1,2.052-2.037q2.145,0,4.29,0h.384v-.376q0-4.026,0-8.051A2.448,2.448,0,0,1,8.554.1,2.857,2.857,0,0,1,9.291.008Q15.185,0,21.074,0a.992.992,0,0,1,.766.333q3.886,4.047,7.784,8.084a1.178,1.178,0,0,1,.361.882q-.012,9.948,0,19.9a2.465,2.465,0,0,1-1.4,2.4,5.544,5.544,0,0,1-.726.252H8.889ZM7.947,11.019h.414q4.9,0,9.794,0a1.874,1.874,0,0,1,2.037,2.031q0,4.4,0,8.8a2.661,2.661,0,0,1-.077.676,1.828,1.828,0,0,1-1.887,1.357q-4.943,0-9.887,0H7.964c-.007.083-.015.132-.015.182q0,2.658,0,5.317a1.261,1.261,0,0,0,.055.365,1.231,1.231,0,0,0,1.347.865H27.324c.98,0,1.438-.462,1.438-1.453q0-9.5,0-19V9.8H21.073c-.7,0-.88-.181-.88-.885V1.232h-.361c-3.482,0-6.965.015-10.447-.01A1.343,1.343,0,0,0,7.936,2.68c.032,2.653.012,5.306.012,7.959v.379Zm2.137,1.233H2.1c-.707,0-.892.18-.892.875q0,4.336,0,8.671c0,.666.188.855.846.855H18.119c.657,0,.844-.191.844-.856V13.126c0-.686-.185-.874-.86-.874H10.084ZM21.431,1.678v6.88h6.622L21.431,1.679Z" transform="translate(0.015)"/>
          <path d="M68.088,192.18a1.407,1.407,0,0,1-.3,1.217c-.808.93-1.564,1.906-2.34,2.864-.058.072-.113.146-.207.27H68.2v.88H63.958c.009-.474-.093-.917.294-1.353.784-.882,1.5-1.826,2.24-2.744.051-.063.1-.128.187-.243h-2.4v-.889h3.808Z" transform="translate(-58.97 -177.212)"/>
          <path d="M154.783,195.143v1.965H153.74v-5.244c.174,0,.347,0,.52,0,.724.015,1.45.008,2.172.055a1.425,1.425,0,0,1,1.319,1.526,1.522,1.522,0,0,1-1.3,1.636c-.276.033-.556.049-.835.059s-.534,0-.839,0Zm.009-.863c.465-.032.9-.038,1.323-.1a.627.627,0,0,0,.531-.634.609.609,0,0,0-.475-.7c-.448-.075-.909-.071-1.378-.1v1.535Z" transform="translate(-141.765 -176.919)" />
          <path d="M128.211,197.335H127.19V192.1h1.021Z" transform="translate(-117.282 -177.138)"/>
        </g>
      </g>
    </g>
  </g>
</symbol>

<symbol id="png-attachment" xmlns="http://www.w3.org/2000/svg" viewBox="0 0 32 32">
  <g transform="translate(-621 -980)">
    <rect transform="translate(621 980)" fill="none"/>
    <g transform="translate(622.015 980)">
      <g transform="translate(-0.015)">
        <g transform="translate(0)">
          <path d="M8.889,31.844A2.767,2.767,0,0,1,7.417,31.1a2.583,2.583,0,0,1-.7-1.868q0-2.487,0-4.974v-.375h-4.7a1.852,1.852,0,0,1-2.023-2.03q0-4.4,0-8.8a1.864,1.864,0,0,1,2.052-2.037q2.145,0,4.29,0h.384v-.376q0-4.026,0-8.051A2.448,2.448,0,0,1,8.554.1,2.857,2.857,0,0,1,9.291.008Q15.185,0,21.074,0a.992.992,0,0,1,.766.333q3.886,4.047,7.784,8.084a1.178,1.178,0,0,1,.361.882q-.012,9.948,0,19.9a2.465,2.465,0,0,1-1.4,2.4,5.544,5.544,0,0,1-.726.252H8.889Zm-.942-7.96c0,1.823,0,3.594,0,5.366a1.228,1.228,0,0,0,1.365,1.363q9.032,0,18.064,0a1.844,1.844,0,0,0,.491-.051,1.252,1.252,0,0,0,.893-1.392V9.8h-7.68c-.71,0-.888-.176-.888-.877V1.249c-.127-.006-.209-.014-.291-.015q-5.3,0-10.6,0A1.227,1.227,0,0,0,7.948,2.611q0,4.042,0,8.084c0,.1.01.2.016.325H18.117a1.883,1.883,0,0,1,2.076,2.054q0,4.383,0,8.768a2.741,2.741,0,0,1-.074.677A1.84,1.84,0,0,1,18.2,23.882q-4.928,0-9.856,0h-.4Zm2.137-11.631H2.066c-.672,0-.861.19-.861.874q0,4.336,0,8.671c0,.667.188.855.846.855H18.118c.657,0,.844-.191.844-.856V13.126c0-.686-.185-.874-.86-.874H10.084ZM28.066,8.571,21.432,1.68V8.571h6.634Z" transform="translate(0.015)" />
          <path d="M104.774,191.866h.974v5.253c-.316,0-.634.015-.949-.01-.083-.007-.175-.125-.231-.213-.581-.93-1.156-1.865-1.733-2.8a.877.877,0,0,0-.239-.272V197.1h-.977v-5.248c.308,0,.608-.016.9.01.085.008.18.122.234.21.6.967,1.192,1.939,1.788,2.909.058.094.121.186.23.354v-3.471Z" transform="translate(-93.704 -176.907)"/>
          <path d="M171.669,192.1l-.978.188a3.34,3.34,0,0,0-.5-.6,1.444,1.444,0,0,0-2.151.758,2.688,2.688,0,0,0,.025,1.651,1.423,1.423,0,0,0,1.816.927c.06-.016.119-.035.178-.055.622-.214.658-.271.61-.975h-1.184v-.88h2.243a2,2,0,0,1,.023.221c0,.487-.019.974.009,1.46a.6.6,0,0,1-.329.629,3.473,3.473,0,0,1-2.947.4,2.4,2.4,0,0,1-1.62-2.121,2.692,2.692,0,0,1,1.243-2.829,2.863,2.863,0,0,1,2.632-.043,1.677,1.677,0,0,1,.935,1.267Z" transform="translate(-153.826 -175.691)"/>
          <path d="M38.64,191.491c.96.033,1.9.025,2.837.112a1.409,1.409,0,0,1,1.153,1.6c-.058,1.016-.618,1.537-1.727,1.584-.392.017-.785,0-1.217,0v1.979H38.64V191.49Zm1.051,2.446c.456-.033.9-.04,1.33-.106a.646.646,0,0,0,.521-.677.658.658,0,0,0-.561-.68,12.71,12.71,0,0,0-1.291-.01v1.474Z" transform="translate(-35.629 -176.576)"/>
        </g>
      </g>
    </g>
  </g>
</symbol>

<symbol id="txt-attachment" xmlns="http://www.w3.org/2000/svg" viewBox="0 0 32 32">
  <g transform="translate(-621 -980)">
    <rect transform="translate(621 980)" fill="none"/>
    <g transform="translate(622.015 980)">
      <g transform="translate(-0.015)">
        <g transform="translate(0)">
          <path d="M8.889,31.844A2.767,2.767,0,0,1,7.417,31.1a2.583,2.583,0,0,1-.7-1.868q0-2.487,0-4.974v-.375h-4.7a1.852,1.852,0,0,1-2.023-2.03q0-4.4,0-8.8a1.864,1.864,0,0,1,2.052-2.037q2.145,0,4.29,0h.384v-.376q0-4.026,0-8.051A2.448,2.448,0,0,1,8.554.1,2.857,2.857,0,0,1,9.291.008Q15.185,0,21.074,0a.992.992,0,0,1,.766.333q3.886,4.047,7.784,8.084a1.178,1.178,0,0,1,.361.882q-.012,9.948,0,19.9a2.465,2.465,0,0,1-1.4,2.4,5.544,5.544,0,0,1-.726.252H8.889Zm11.3-30.61H9.356A1.245,1.245,0,0,0,7.947,2.647q0,4.011,0,8.022v.35H18.121a1.883,1.883,0,0,1,2.071,2.059q0,4.383,0,8.768a2.66,2.66,0,0,1-.076.676,1.828,1.828,0,0,1-1.885,1.36q-4.943,0-9.887,0H7.948v5.31A1.249,1.249,0,0,0,9.38,30.613H27.32a1.262,1.262,0,0,0,1.441-1.45q0-9.5,0-19V9.8H21.076c-.7,0-.883-.18-.883-.882V1.232ZM10.086,12.253H2.067c-.664,0-.862.19-.862.842q0,4.367,0,8.733c0,.625.2.826.813.826h16.13c.616,0,.814-.2.814-.823V13.1c0-.654-.194-.844-.858-.844ZM21.436,1.684V8.557h6.616L21.436,1.683Z" transform="translate(0.015)" />
          <path d="M106.545,194.312l-1.629-2.517c.422,0,.788-.011,1.153.009.075,0,.161.115.213.195.307.479.6.963.93,1.486.3-.491.6-.948.865-1.419a.457.457,0,0,1,.488-.279c.276.023.556.005.885.005-.059.112-.1.192-.141.265-.445.7-.886,1.4-1.34,2.09a.31.31,0,0,0,0,.408c.5.727.977,1.463,1.463,2.2.056.084.107.171.192.308-.421,0-.8.011-1.173-.009-.076,0-.164-.109-.216-.188-.346-.527-.683-1.058-1.045-1.622-.351.547-.692,1.064-1.017,1.59a.408.408,0,0,1-.418.235c-.308-.021-.62-.005-1.006-.005.616-.944,1.2-1.844,1.795-2.749Z" transform="translate(-96.59 -176.848)"/>
          <path  d="M53.5,192.19v.868H51.959v4.359H50.906v-4.341H49.35v-.886H53.5Z" transform="translate(-45.505 -177.221)"/>
          <path  d="M171.459,193.045H169.9v-.875h4.144v.871h-1.529V197.4h-1.057Z" transform="translate(-156.666 -177.203)"/>
        </g>
      </g>
    </g>
  </g>
</symbol>




<symbol id="select-icon"  xmlns="http://www.w3.org/2000/svg" viewBox="0 0 24 24" >
   <path d="M12 22C6.477 22 2 17.523 2 12S6.477 2 12 2s10 4.477 10 10-4.477 10-10 10zm0-2a8 8 0 1 0 0-16 8 8 0 0 0 0 16zm-.997-4L6.76 11.757l1.414-1.414 2.829 2.829 5.656-5.657 1.415 1.414L11.003 16z"/>
</symbol>


<symbol id="delete-icon"  xmlns="http://www.w3.org/2000/svg" viewBox="0 0 24 24" >
  <path d="M17 6h5v2h-2v13a1 1 0 0 1-1 1H5a1 1 0 0 1-1-1V8H2V6h5V3a1 1 0 0 1 1-1h8a1 1 0 0 1 1 1v3zm1 2H6v12h12V8zm-9 3h2v6H9v-6zm4 0h2v6h-2v-6zM9 4v2h6V4H9z"/>
</symbol>


<symbol id="view-icon"  xmlns="http://www.w3.org/2000/svg" viewBox="0 0 24 24">
<path d="M12 3c5.392 0 9.878 3.88 10.819 9-.94 5.12-5.427 9-10.819 9-5.392 0-9.878-3.88-10.819-9C2.121 6.88 6.608 3 12 3zm0 16a9.005 9.005 0 0 0 8.777-7 9.005 9.005 0 0 0-17.554 0A9.005 9.005 0 0 0 12 19zm0-2.5a4.5 4.5 0 1 1 0-9 4.5 4.5 0 0 1 0 9zm0-2a2.5 2.5 0 1 0 0-5 2.5 2.5 0 0 0 0 5z"/></symbol>

    <symbol xmlns="http://www.w3.org/2000/svg" viewBox="0 0 129 129" id="next">
        <path d="M40.4 121.3c-.8.8-1.8 1.2-2.9 1.2s-2.1-.4-2.9-1.2c-1.6-1.6-1.6-4.2 0-5.8l51-51-51-51c-1.6-1.6-1.6-4.2 0-5.8 1.6-1.6 4.2-1.6 5.8 0l53.9 53.9c1.6 1.6 1.6 4.2 0 5.8l-53.9 53.9z" />
    </symbol>
    <symbol xmlns="http://www.w3.org/2000/svg" viewBox="0 0 129 129" id="prev">
        <path d="M88.6 121.3c.8.8 1.8 1.2 2.9 1.2s2.1-.4 2.9-1.2c1.6-1.6 1.6-4.2 0-5.8l-51-51 51-51c1.6-1.6 1.6-4.2 0-5.8s-4.2-1.6-5.8 0l-54 53.9c-1.6 1.6-1.6 4.2 0 5.8l54 53.9z" />
    </symbol>







<symbol id="trophy" xmlns="http://www.w3.org/2000/svg" viewBox="0 0 24 24">
  <path d="M10.818,14.4v1.687h4.091v1.636H5.091V16.091H9.182V14.4A6.546,6.546,0,0,1,3.455,7.909V3H16.545V7.909A6.546,6.546,0,0,1,10.818,14.4ZM1,4.636H2.636V7.909H1Zm16.364,0H19V7.909H17.364Z" transform="translate(2 2)"/>
</symbol>



<symbol id="icon-play" xmlns="http://www.w3.org/2000/svg" viewBox="0 0 24 24">
    <path d="M12 22C6.477 22 2 17.523 2 12S6.477 2 12 2s10 4.477 10 10-4.477 10-10 10zM10.622 8.415a.4.4 0 0 0-.622.332v6.506a.4.4 0 0 0 .622.332l4.879-3.252a.4.4 0 0 0 0-.666l-4.88-3.252z"/>
</symbol>


<symbol id="icon-attachments" xmlns="http://www.w3.org/2000/svg" viewBox="0 0 24 24">
  <path d="M11.022,5.94,7.167,9.795a.681.681,0,1,0,.964.964L11.987,6.9A2.045,2.045,0,0,0,9.095,4.012L5.239,7.868a3.408,3.408,0,1,0,4.819,4.819l3.855-3.855.964.964L11.022,13.65A4.771,4.771,0,1,1,4.275,6.9L8.131,3.048A3.407,3.407,0,1,1,12.95,7.867L9.095,11.724A2.045,2.045,0,0,1,6.2,8.831l3.855-3.855.964.964Z" transform="translate(3.122 3.95)"/>
</symbol>


<symbol id="share-media" xmlns="http://www.w3.org/2000/svg" viewBox="0 0 24 24">
  <g transform="translate(-6 -7.499)">
    <path d="M12.346,15.63,7.8,13.153a3.111,3.111,0,1,1,0-4.416l4.542-2.477a3.111,3.111,0,1,1,.852,1.56L8.655,10.3a3.124,3.124,0,0,1,0,1.3L13.2,14.07a3.111,3.111,0,1,1-.852,1.56Z" transform="translate(7.5 9)"/>
  </g>
</symbol>


<symbol id="teaches-icon" xmlns="http://www.w3.org/2000/svg" viewBox="0 0 18 12.659">
  <path d="M138,34l-9,4.5,9,4.5,7.363-3.682v6.954H147V38.5L138,34Zm0,10.831-6.546-3.273v1.829L138,46.659l6.545-3.273V41.558L138,44.829Z" transform="translate(-129 -34)"/>
</symbol>


<symbol id="download-icon" xmlns="http://www.w3.org/2000/svg" viewBox="0 0 24 24"><path fill="none" d="M0 0h24v24H0z"/><path d="M1 14.5a6.496 6.496 0 0 1 3.064-5.519 8.001 8.001 0 0 1 15.872 0 6.5 6.5 0 0 1-2.936 12L7 21c-3.356-.274-6-3.078-6-6.5zm15.848 4.487a4.5 4.5 0 0 0 2.03-8.309l-.807-.503-.12-.942a6.001 6.001 0 0 0-11.903 0l-.12.942-.805.503a4.5 4.5 0 0 0 2.029 8.309l.173.013h9.35l.173-.013zM13 12h3l-4 5-4-5h3V8h2v4z"/></symbol>


<symbol viewBox="0 0 227.216 227.216" id="share" xmlns="http://www.w3.org/2000/svg"><path d="M175.897 141.476c-13.249 0-25.11 6.044-32.98 15.518l-51.194-29.066a42.671 42.671 0 002.467-14.317 42.67 42.67 0 00-2.467-14.316l51.19-29.073c7.869 9.477 19.732 15.523 32.982 15.523 23.634 0 42.862-19.235 42.862-42.879C218.759 19.229 199.531 0 175.897 0 152.26 0 133.03 19.229 133.03 42.865c0 5.02.874 9.838 2.467 14.319L84.304 86.258c-7.869-9.472-19.729-15.514-32.975-15.514-23.64 0-42.873 19.229-42.873 42.866 0 23.636 19.233 42.865 42.873 42.865 13.246 0 25.105-6.042 32.974-15.513l51.194 29.067a42.67 42.67 0 00-2.468 14.321c0 23.636 19.23 42.865 42.867 42.865 23.634 0 42.862-19.23 42.862-42.865.001-23.64-19.227-42.874-42.861-42.874zm0-126.476c15.363 0 27.862 12.5 27.862 27.865 0 15.373-12.499 27.879-27.862 27.879-15.366 0-27.867-12.506-27.867-27.879C148.03 27.5 160.531 15 175.897 15zM51.33 141.476c-15.369 0-27.873-12.501-27.873-27.865 0-15.366 12.504-27.866 27.873-27.866 15.363 0 27.861 12.5 27.861 27.866 0 15.364-12.499 27.865-27.861 27.865zm124.567 70.74c-15.366 0-27.867-12.501-27.867-27.865 0-15.37 12.501-27.875 27.867-27.875 15.363 0 27.862 12.505 27.862 27.875 0 15.364-12.499 27.865-27.862 27.865z"/></symbol>


<symbol xmlns="http://www.w3.org/2000/svg" id="review-star"  viewBox="0 0 24 24"><path d="M12 18.26l-7.053 3.948 1.575-7.928L.587 8.792l8.027-.952L12 .5l3.386 7.34 8.027.952-5.935 5.488 1.575 7.928L12 18.26zm0-2.292l4.247 2.377-.949-4.773 3.573-3.305-4.833-.573L12 5.275l-2.038 4.42-4.833.572 3.573 3.305-.949 4.773L12 15.968z"/></symbol>

<symbol viewBox="0 0 15.402 14.648" id="rating" xmlns="http://www.w3.org/2000/svg">
  <path d="M7.701 11.984l-4.759 2.664L4.005 9.3l-4-3.7 5.408-.647L7.701 0l2.285 4.953 5.416.642-4 3.7 1.063 5.35z"/>
</symbol>


<symbol id="pdf-attachment"  xmlns="http://www.w3.org/2000/svg" viewBox="0 0 32 32">
  <g transform="translate(-621 -982)">
    <rect transform="translate(621 982)" fill="none"/>
    <g transform="translate(622.015 982)">
      <g transform="translate(-0.015)">
        <g transform="translate(0)">
          <path d="M8.889,31.844A2.767,2.767,0,0,1,7.417,31.1a2.583,2.583,0,0,1-.7-1.868q0-2.487,0-4.974v-.375h-4.7a1.852,1.852,0,0,1-2.023-2.03q0-4.4,0-8.8a1.864,1.864,0,0,1,2.052-2.037q2.145,0,4.29,0h.384v-.376q0-4.026,0-8.051A2.448,2.448,0,0,1,8.554.1,2.857,2.857,0,0,1,9.291.008Q15.185,0,21.074,0a.992.992,0,0,1,.766.333q3.886,4.047,7.784,8.084a1.178,1.178,0,0,1,.361.882q-.012,9.948,0,19.9a2.465,2.465,0,0,1-1.4,2.4,5.544,5.544,0,0,1-.726.252H8.889Zm-.926-7.96c-.007.086-.015.136-.015.186q0,2.643,0,5.285a1.386,1.386,0,0,0,.045.368,1.245,1.245,0,0,0,1.361.89H27.326a1.257,1.257,0,0,0,1.434-1.426q0-9.515,0-19.028c0-.11-.01-.22-.017-.357H21.162c-.829,0-.97-.143-.97-.983V1.249c-.133-.006-.234-.016-.334-.016q-5.255,0-10.509,0a1.243,1.243,0,0,0-1.4,1.42q0,4.011,0,8.022v.343H18.128a1.883,1.883,0,0,1,2.064,2.066q0,4.368,0,8.737a1.875,1.875,0,0,1-2.064,2.061H7.963Zm2.122-1.23H18.1c.678,0,.859-.185.859-.872V13.111c0-.664-.191-.858-.844-.858H2.05c-.653,0-.845.194-.845.859q0,4.336,0,8.671c0,.685.184.871.861.871h8.018ZM28.067,8.571,21.435,1.682V8.571Z" transform="translate(0.015)" />
          <path d="M109.05,197.314v-5.136c.023-.022.038-.049.053-.048.879.012,1.763-.026,2.637.054a1.755,1.755,0,0,1,1.527,1.369,3.689,3.689,0,0,1-.112,2.669,1.668,1.668,0,0,1-1.412,1.076c-.882.066-1.774.016-2.692.016Zm1.076-4.271v3.418c.421,0,.823.024,1.22-.006a.863.863,0,0,0,.9-.816,7.021,7.021,0,0,0,.049-1.539,1.021,1.021,0,0,0-.917-1.049,11.766,11.766,0,0,0-1.254-.009Z" transform="translate(-100.555 -177.165)"/>
          <path d="M47.482,195.138v1.984H46.45v-5.253c.2,0,.393,0,.586,0,.7.016,1.409.012,2.111.056a1.315,1.315,0,0,1,1.234,1.051,1.612,1.612,0,0,1-1.64,2.16c-.4.012-.8,0-1.258,0Zm.027-.854c.449-.031.882-.037,1.307-.1a.652.652,0,0,0,.541-.667.671.671,0,0,0-.579-.7c-.416-.041-.838-.009-1.269-.009v1.478Z" transform="translate(-42.831 -176.924)"/>
          <path d="M181.184,192.19v.868h-2.507V194.3h2.143v.879h-2.157v2.234H177.62V192.19Z" transform="translate(-163.785 -177.221)"/>
        </g>
      </g>
    </g>
  </g>
</symbol>

<symbol id="png-attachment" xmlns="http://www.w3.org/2000/svg" viewBox="0 0 32 32">
  <g transform="translate(-621 -980)">
    <rect transform="translate(621 980)" fill="none"/>
    <g transform="translate(622.015 980)">
      <g transform="translate(-0.015)">
        <g transform="translate(0)">
          <path d="M8.889,31.844A2.767,2.767,0,0,1,7.417,31.1a2.583,2.583,0,0,1-.7-1.868q0-2.487,0-4.974v-.375h-4.7a1.852,1.852,0,0,1-2.023-2.03q0-4.4,0-8.8a1.864,1.864,0,0,1,2.052-2.037q2.145,0,4.29,0h.384v-.376q0-4.026,0-8.051A2.448,2.448,0,0,1,8.554.1,2.857,2.857,0,0,1,9.291.008Q15.185,0,21.074,0a.992.992,0,0,1,.766.333q3.886,4.047,7.784,8.084a1.178,1.178,0,0,1,.361.882q-.012,9.948,0,19.9a2.465,2.465,0,0,1-1.4,2.4,5.544,5.544,0,0,1-.726.252H8.889Zm-.942-7.96c0,1.823,0,3.594,0,5.366a1.228,1.228,0,0,0,1.365,1.363q9.032,0,18.064,0a1.844,1.844,0,0,0,.491-.051,1.252,1.252,0,0,0,.893-1.392V9.8h-7.68c-.71,0-.888-.176-.888-.877V1.249c-.127-.006-.209-.014-.291-.015q-5.3,0-10.6,0A1.227,1.227,0,0,0,7.948,2.611q0,4.042,0,8.084c0,.1.01.2.016.325H18.117a1.883,1.883,0,0,1,2.076,2.054q0,4.383,0,8.768a2.741,2.741,0,0,1-.074.677A1.84,1.84,0,0,1,18.2,23.882q-4.928,0-9.856,0h-.4Zm2.137-11.631H2.066c-.672,0-.861.19-.861.874q0,4.336,0,8.671c0,.667.188.855.846.855H18.118c.657,0,.844-.191.844-.856V13.126c0-.686-.185-.874-.86-.874H10.084ZM28.066,8.571,21.432,1.68V8.571h6.634Z" transform="translate(0.015)" />
          <path d="M104.774,191.866h.974v5.253c-.316,0-.634.015-.949-.01-.083-.007-.175-.125-.231-.213-.581-.93-1.156-1.865-1.733-2.8a.877.877,0,0,0-.239-.272V197.1h-.977v-5.248c.308,0,.608-.016.9.01.085.008.18.122.234.21.6.967,1.192,1.939,1.788,2.909.058.094.121.186.23.354v-3.471Z" transform="translate(-93.704 -176.907)"/>
          <path d="M171.669,192.1l-.978.188a3.34,3.34,0,0,0-.5-.6,1.444,1.444,0,0,0-2.151.758,2.688,2.688,0,0,0,.025,1.651,1.423,1.423,0,0,0,1.816.927c.06-.016.119-.035.178-.055.622-.214.658-.271.61-.975h-1.184v-.88h2.243a2,2,0,0,1,.023.221c0,.487-.019.974.009,1.46a.6.6,0,0,1-.329.629,3.473,3.473,0,0,1-2.947.4,2.4,2.4,0,0,1-1.62-2.121,2.692,2.692,0,0,1,1.243-2.829,2.863,2.863,0,0,1,2.632-.043,1.677,1.677,0,0,1,.935,1.267Z" transform="translate(-153.826 -175.691)"/>
          <path d="M38.64,191.491c.96.033,1.9.025,2.837.112a1.409,1.409,0,0,1,1.153,1.6c-.058,1.016-.618,1.537-1.727,1.584-.392.017-.785,0-1.217,0v1.979H38.64V191.49Zm1.051,2.446c.456-.033.9-.04,1.33-.106a.646.646,0,0,0,.521-.677.658.658,0,0,0-.561-.68,12.71,12.71,0,0,0-1.291-.01v1.474Z" transform="translate(-35.629 -176.576)"/>
        </g>
      </g>
    </g>
  </g>
</symbol>

<symbol id="jpg-attachment" xmlns="http://www.w3.org/2000/svg" viewBox="0 0 32 32">
  <g transform="translate(-621 -980)">
    <rect transform="translate(621 980)" fill="none"/>
    <g transform="translate(622.015 980)">
      <g transform="translate(-0.015)">
        <g transform="translate(0)">
          <path d="M8.889,31.844A2.767,2.767,0,0,1,7.417,31.1a2.583,2.583,0,0,1-.7-1.868q0-2.487,0-4.974v-.375h-4.7a1.852,1.852,0,0,1-2.023-2.03q0-4.4,0-8.8a1.864,1.864,0,0,1,2.052-2.037q2.145,0,4.29,0h.384v-.376q0-4.026,0-8.051A2.448,2.448,0,0,1,8.554.1,2.857,2.857,0,0,1,9.291.008Q15.185,0,21.074,0a.992.992,0,0,1,.766.333q3.886,4.047,7.784,8.084a1.178,1.178,0,0,1,.361.882q-.012,9.948,0,19.9a2.465,2.465,0,0,1-1.4,2.4,5.544,5.544,0,0,1-.726.252H8.889Zm-.927-7.96c-.005.129-.014.23-.014.331,0,1.658.026,3.317-.012,4.975a1.334,1.334,0,0,0,1.439,1.435c5.98-.019,11.96-.009,17.94-.01a1.262,1.262,0,0,0,1.445-1.446q0-9.5,0-19V9.8H21.079c-.71,0-.887-.177-.887-.878V1.252c-.118-.008-.189-.017-.261-.017q-5.332,0-10.664,0A1.22,1.22,0,0,0,7.947,2.613q0,4.042,0,8.084c0,.1.01.2.016.324H18.117a1.883,1.883,0,0,1,2.075,2.055q0,4.383,0,8.768a2.705,2.705,0,0,1-.075.677,1.828,1.828,0,0,1-1.883,1.363q-4.943,0-9.887,0H7.962Zm2.122-1.23h8.05c.637,0,.829-.2.829-.839v-8.7c0-.674-.189-.86-.874-.86H2.083c-.7,0-.878.181-.878.889v8.64c0,.686.184.872.86.872h8.018Zm11.336-14.1h6.63l-6.63-6.884Z" transform="translate(0.015)" />
          <path d="M155.078,194.162h-1.172v-.868h2.245c.005.1.015.2.016.3,0,.467-.015.933.007,1.4a.591.591,0,0,1-.31.61,3.491,3.491,0,0,1-3.006.4,2.549,2.549,0,0,1-1.607-2.618,2.592,2.592,0,0,1,1.258-2.319,2.9,2.9,0,0,1,3.02.212,1.7,1.7,0,0,1,.55,1.013l-.925.18a3.687,3.687,0,0,0-.7-.68,1.428,1.428,0,0,0-2,.874,2.674,2.674,0,0,0,.021,1.592,1.428,1.428,0,0,0,1.826.957c.05-.013.1-.03.148-.047.641-.21.678-.266.634-1Z" transform="translate(-139.466 -175.882)"/>
          <path d="M91.021,191.51c.962.033,1.9.041,2.84.115a1.294,1.294,0,0,1,.72.379,1.63,1.63,0,0,1,.326,1.79,1.361,1.361,0,0,1-1.277.97c-.512.041-1.028.055-1.573.083v1.941H91.02V191.51Zm1.04.957c0,.436-.009.85.009,1.262a.274.274,0,0,0,.188.192,7.921,7.921,0,0,0,1.053-.048.677.677,0,0,0,.617-.7.686.686,0,0,0-.622-.7c-.4-.032-.8-.007-1.246-.007Z" transform="translate(-83.93 -176.594)" />
          <path d="M35.338,192.13h1.035c.009.078.022.138.022.2,0,1.15.008,2.3-.015,3.45a1.688,1.688,0,0,1-2.5,1.534,1.561,1.561,0,0,1-.838-1.551l.974-.123c.045.2.073.371.125.537a.529.529,0,0,0,.576.379c.291-.01.536-.117.573-.451a7.7,7.7,0,0,0,.049-.8c.005-1.045,0-2.09,0-3.167Z" transform="translate(-30.465 -177.166)" />
        </g>
      </g>
    </g>
  </g>
</symbol>


<symbol id="back-arrow" xmlns="http://www.w3.org/2000/svg" viewBox="0 0 24 24">
  <path d="M12 2c5.52 0 10 4.48 10 10s-4.48 10-10 10S2 17.52 2 12 6.48 2 12 2zm0 18c4.42 0 8-3.58 8-8s-3.58-8-8-8-8 3.58-8 8 3.58 8 8 8zm0-9h4v2h-4v3l-4-4 4-4v3z"/>
</symbol>




<symbol id="icon-level" xmlns="http://www.w3.org/2000/svg" viewBox="0 0 24 24">
  <path d="M3,8.81H5.667v6H3ZM12.333,3H15V14.81H12.333ZM7.667,5.571h2.667V14.81H7.667Z" transform="translate(3 3)"/>
</symbol>

<symbol id="icon-students" xmlns="http://www.w3.org/2000/svg" viewBox="0 0 24 24">
  <path d="M2,14.011a4.956,4.956,0,0,1,9.913,0ZM6.956,8.435a3.717,3.717,0,1,1,3.717-3.717A3.716,3.716,0,0,1,6.956,8.435Zm4.562,1.383A4.65,4.65,0,0,1,15,14.011H13.152A6.175,6.175,0,0,0,11.518,9.818Zm-1.253-1.41A4.959,4.959,0,0,0,11.284,2.3a3.1,3.1,0,0,1-1.019,6.109Z" transform="translate(4 4)"/>
</symbol>


<symbol id="icon-time" xmlns="http://www.w3.org/2000/svg" viewBox="0 0 24 24">
   <path d="M9.5,17A7.5,7.5,0,1,1,17,9.5,7.5,7.5,0,0,1,9.5,17Zm0-1.5a6,6,0,1,0-6-6A6,6,0,0,0,9.5,15.5Zm.75-6h3V11H8.75V5.75h1.5Z" transform="translate(3 3)" fill="#333"/>
</symbol>

<symbol id="icon-lecture" xmlns="http://www.w3.org/2000/svg" viewBox="0 0 24 24">
  <g transform="translate(-1147 -629)">
    <g transform="translate(1152 633.993)">
      <g transform="translate(0 0.006)">
        <g transform="translate(0 0)">
          <path d="M7.505,7.092a4,4,0,0,1-1.314-.244L1.022,4.964a1.492,1.492,0,0,1,0-2.831Q3.6,1.192,6.188.249A3.651,3.651,0,0,1,8.747.227q2.629.947,5.25,1.913a1.492,1.492,0,0,1-.042,2.831c-1.533.556-3.063,1.121-4.6,1.671-.436.156-.884.278-1.332.4a3.082,3.082,0,0,1-.519.051Z" transform="translate(0 -0.006)"/>
          <path d="M8.738,143.607a8.7,8.7,0,0,1-1.007-.226c-1.972-.691-3.939-1.4-5.907-2.1a.738.738,0,0,1-.533-.8.718.718,0,0,1,.647-.65,1.073,1.073,0,0,1,.44.071q2.865,1.012,5.725,2.039a1.779,1.779,0,0,0,1.257,0q2.859-1.029,5.723-2.044a.756.756,0,0,1,1.017.363.742.742,0,0,1-.451,1.018c-.676.248-1.355.485-2.033.727-1.269.452-2.534.912-3.807,1.349a10.857,10.857,0,0,1-1.071.255Z" transform="translate(-1.227 -133.312)" />
          <path d="M8.632,211.579a9.992,9.992,0,0,1-1.047-.248c-1.95-.682-3.9-1.38-5.842-2.073a.749.749,0,0,1-.5-.968.741.741,0,0,1,1-.438c1.925.683,3.851,1.364,5.774,2.057a1.772,1.772,0,0,0,1.256,0q2.884-1.037,5.774-2.058a.746.746,0,1,1,.513,1.4c-.758.275-1.52.542-2.279.813-1.2.427-2.392.862-3.594,1.275a10.014,10.014,0,0,1-1.046.24Z" transform="translate(-1.14 -198.113)" />
        </g>
      </g>
    </g>
  </g>
</symbol>






<!-- [ FORUM ICONS ========= -->
<symbol id="q-mark" xmlns="http://www.w3.org/2000/svg" viewBox="0 0 24 24">
  <path d="M12,22A10,10,0,1,1,22,12,10,10,0,0,1,12,22Zm0-2a8,8,0,1,0-8-8A8,8,0,0,0,12,20Zm-1-5h2v2H11Zm2-1.645V14H11V12.5a1,1,0,0,1,1-1,1.5,1.5,0,1,0-1.471-1.794L8.567,9.313A3.5,3.5,0,1,1,13,13.355Z"/>
</symbol>

<symbol id="colored-fb" xmlns="http://www.w3.org/2000/svg" viewBox="0 0 24 24">
    <path d="M15.4,21V14.034h2.333l.349-2.708H15.4V9.6c0-.784.218-1.319,1.342-1.319h1.434V5.857a19.191,19.191,0,0,0-2.09-.107,3.263,3.263,0,0,0-3.482,3.58v2H10.268v2.708h2.338V21H4a1,1,0,0,1-1-1V4A1,1,0,0,1,4,3H20a1,1,0,0,1,1,1V20a1,1,0,0,1-1,1Z" fill="#227bef"/>
</symbol>

<symbol id="colored-google" xmlns="http://www.w3.org/2000/svg" width="24" height="24" viewBox="0 0 24 24">
  <g transform="translate(2.999 3.001)">
    <path d="M23.1,13.306a10.381,10.381,0,0,0-.159-1.829h-8.66v3.466h4.958a4.162,4.162,0,0,1-1.835,2.735v2.249h2.959A8.7,8.7,0,0,0,23.1,13.306Z" transform="translate(-5.101 -4.099)" fill="#4285f4"/>
    <path d="M9.724,23.958a8.893,8.893,0,0,0,6.086-2.173l-2.959-2.249a5.575,5.575,0,0,1-3.124.86,5.484,5.484,0,0,1-5.155-3.714H1.519V19A9.205,9.205,0,0,0,9.724,23.958Z" transform="translate(-0.542 -5.958)" fill="#34a853"/>
    <path d="M4.027,13.481a5.29,5.29,0,0,1,0-3.446V7.717H.977a8.849,8.849,0,0,0,0,8.082l3.05-2.318Z" transform="translate(0 -2.756)" fill="#fbbc04"/>
    <path d="M9.724,3.562a5.045,5.045,0,0,1,3.522,1.349l2.621-2.57A8.923,8.923,0,0,0,9.724,0a9.2,9.2,0,0,0-8.2,4.961L4.57,7.279A5.482,5.482,0,0,1,9.726,3.562Z" transform="translate(-0.543)" fill="#ea4335"/>
  </g>
</symbol>


<symbol id="icon-chat" xmlns="http://www.w3.org/2000/svg" viewBox="0 0 24 24">
  <path d="M8.4,3h3.2a6.4,6.4,0,1,1,0,12.8v2.8C7.6,17,2,14.6,2,9.4A6.4,6.4,0,0,1,8.4,3ZM10,14.2h1.6a4.8,4.8,0,1,0,0-9.6H8.4A4.8,4.8,0,0,0,3.6,9.4c0,2.888,1.97,4.773,6.4,6.784Z" transform="translate(2 1)" />
</symbol>


<symbol id="icon-views" xmlns="http://www.w3.org/2000/svg" viewBox="0 0 24 24">
  <path d="M9.681,3a8.646,8.646,0,0,1,8.5,7.071,8.644,8.644,0,0,1-17,0A8.645,8.645,0,0,1,9.681,3Zm0,12.57a7.074,7.074,0,0,0,6.9-5.5,7.075,7.075,0,0,0-13.791,0,7.075,7.075,0,0,0,6.9,5.5Zm0-1.964a3.535,3.535,0,1,1,3.535-3.535A3.535,3.535,0,0,1,9.681,13.606Zm0-1.571a1.964,1.964,0,1,0-1.964-1.964A1.964,1.964,0,0,0,9.681,12.035Z" transform="translate(2.819 2)"/>
</symbol>


<symbol id="icon-search" xmlns="http://www.w3.org/2000/svg" viewBox="0 0 24 24">
    <path d="M18.031 16.617l4.283 4.282-1.415 1.415-4.282-4.283A8.96 8.96 0 0 1 11 20c-4.968 0-9-4.032-9-9s4.032-9 9-9 9 4.032 9 9a8.96 8.96 0 0 1-1.969 5.617zm-2.006-.742A6.977 6.977 0 0 0 18 11c0-3.868-3.133-7-7-7-3.868 0-7 3.132-7 7 0 3.867 3.132 7 7 7a6.977 6.977 0 0 0 4.875-1.975l.15-.15z"/>
</symbol>


<symbol id="icon-share" xmlns="http://www.w3.org/2000/svg" viewBox="0 0 24 24">
  <g transform="translate(-6 -7.499)">
    <path d="M11.115,13.989,7.141,11.821a2.722,2.722,0,1,1,0-3.864l3.975-2.168a2.722,2.722,0,1,1,.745,1.365L7.886,9.322a2.733,2.733,0,0,1,0,1.134l3.975,2.168a2.722,2.722,0,1,1-.745,1.365Z" transform="translate(8.5 10)"/>
  </g>
</symbol>








<symbol id="icon-level" xmlns="http://www.w3.org/2000/svg" viewBox="0 0 24 24">
  <path d="M3,8.81H5.667v6H3ZM12.333,3H15V14.81H12.333ZM7.667,5.571h2.667V14.81H7.667Z" transform="translate(3 3)"/>
</symbol>

<symbol id="icon-students" xmlns="http://www.w3.org/2000/svg" viewBox="0 0 24 24">
  <path d="M2,14.011a4.956,4.956,0,0,1,9.913,0ZM6.956,8.435a3.717,3.717,0,1,1,3.717-3.717A3.716,3.716,0,0,1,6.956,8.435Zm4.562,1.383A4.65,4.65,0,0,1,15,14.011H13.152A6.175,6.175,0,0,0,11.518,9.818Zm-1.253-1.41A4.959,4.959,0,0,0,11.284,2.3a3.1,3.1,0,0,1-1.019,6.109Z" transform="translate(4 4)"/>
</symbol>


<symbol id="icon-time" xmlns="http://www.w3.org/2000/svg" viewBox="0 0 24 24">
   <path d="M9.5,17A7.5,7.5,0,1,1,17,9.5,7.5,7.5,0,0,1,9.5,17Zm0-1.5a6,6,0,1,0-6-6A6,6,0,0,0,9.5,15.5Zm.75-6h3V11H8.75V5.75h1.5Z" transform="translate(3 3)" fill="#333"/>
</symbol>

<symbol id="icon-lecture" xmlns="http://www.w3.org/2000/svg" viewBox="0 0 24 24">
  <g transform="translate(-1147 -629)">
    <g transform="translate(1152 633.993)">
      <g transform="translate(0 0.006)">
        <g transform="translate(0 0)">
          <path d="M7.505,7.092a4,4,0,0,1-1.314-.244L1.022,4.964a1.492,1.492,0,0,1,0-2.831Q3.6,1.192,6.188.249A3.651,3.651,0,0,1,8.747.227q2.629.947,5.25,1.913a1.492,1.492,0,0,1-.042,2.831c-1.533.556-3.063,1.121-4.6,1.671-.436.156-.884.278-1.332.4a3.082,3.082,0,0,1-.519.051Z" transform="translate(0 -0.006)"/>
          <path d="M8.738,143.607a8.7,8.7,0,0,1-1.007-.226c-1.972-.691-3.939-1.4-5.907-2.1a.738.738,0,0,1-.533-.8.718.718,0,0,1,.647-.65,1.073,1.073,0,0,1,.44.071q2.865,1.012,5.725,2.039a1.779,1.779,0,0,0,1.257,0q2.859-1.029,5.723-2.044a.756.756,0,0,1,1.017.363.742.742,0,0,1-.451,1.018c-.676.248-1.355.485-2.033.727-1.269.452-2.534.912-3.807,1.349a10.857,10.857,0,0,1-1.071.255Z" transform="translate(-1.227 -133.312)" />
          <path d="M8.632,211.579a9.992,9.992,0,0,1-1.047-.248c-1.95-.682-3.9-1.38-5.842-2.073a.749.749,0,0,1-.5-.968.741.741,0,0,1,1-.438c1.925.683,3.851,1.364,5.774,2.057a1.772,1.772,0,0,0,1.256,0q2.884-1.037,5.774-2.058a.746.746,0,1,1,.513,1.4c-.758.275-1.52.542-2.279.813-1.2.427-2.392.862-3.594,1.275a10.014,10.014,0,0,1-1.046.24Z" transform="translate(-1.14 -198.113)" />
        </g>
      </g>
    </g>
  </g>
</symbol>


<symbol id="icon-play" xmlns="http://www.w3.org/2000/svg" viewBox="0 0 24 24">
    <path d="M12 22C6.477 22 2 17.523 2 12S6.477 2 12 2s10 4.477 10 10-4.477 10-10 10zM10.622 8.415a.4.4 0 0 0-.622.332v6.506a.4.4 0 0 0 .622.332l4.879-3.252a.4.4 0 0 0 0-.666l-4.88-3.252z"/>
</symbol>


<symbol id="icon-lessons" xmlns="http://www.w3.org/2000/svg" viewBox="0 0 24 24">
      <path d="M21 8v12.993A1 1 0 0 1 20.007 22H3.993A.993.993 0 0 1 3 21.008V2.992C3 2.455 3.449 2 4.002 2h10.995L21 8zm-2 1h-5V4H5v16h14V9zM8 7h3v2H8V7zm0 4h8v2H8v-2zm0  4h8v2H8v-2z"/>
</symbol>


<symbol id="teaches-icon" xmlns="http://www.w3.org/2000/svg" viewBox="0 0 18 12.659">
  <path d="M138,34l-9,4.5,9,4.5,7.363-3.682v6.954H147V38.5L138,34Zm0,10.831-6.546-3.273v1.829L138,46.659l6.545-3.273V41.558L138,44.829Z" transform="translate(-129 -34)"/>
</symbol>



<symbol id="icon-course-video"  xmlns="http://www.w3.org/2000/svg"  viewBox="0 0 24 24">
  <path d="M2,3.794A.8.8,0,0,1,2.794,3H17.206A.794.794,0,0,1,18,3.794V16.606a.8.8,0,0,1-.794.794H2.794A.794.794,0,0,1,2,16.606ZM3.6,4.6V15.8H16.4V4.6ZM8.9,7.332l3.9,2.6a.32.32,0,0,1,0,.533l-3.9,2.6a.32.32,0,0,1-.5-.266V7.6a.32.32,0,0,1,.5-.266Z" transform="translate(2 2)" fill="#333"/>
</symbol>

<symbol id="icon-course-lecture" xmlns="http://www.w3.org/2000/svg" viewBox="0 0 24 24">
  <path d="M16.222,17.556H3.778A.778.778,0,0,1,3,16.778v-14A.778.778,0,0,1,3.778,2H16.222A.778.778,0,0,1,17,2.778v14A.778.778,0,0,1,16.222,17.556ZM15.444,16V3.556H4.556V16ZM6.889,5.889h6.222V7.444H6.889ZM6.889,9h6.222v1.556H6.889Zm0,3.111h6.222v1.556H6.889Z" transform="translate(2 2)" fill="#333"/>
</symbol>


<symbol id="icon-course-assets" xmlns="http://www.w3.org/2000/svg" viewBox="0 0 24 24">
  <path d="M10.331,4.6H17.2a.8.8,0,0,1,.8.8V16.6a.8.8,0,0,1-.8.8H2.8a.8.8,0,0,1-.8-.8V3.8A.8.8,0,0,1,2.8,3H8.731ZM3.6,4.6V15.8H16.4V6.2H9.669l-1.6-1.6ZM10.8,11h2.4L10,14.2,6.8,11H9.2V7.8h1.6Z" transform="translate(2 2)" fill="#333"/>
</symbol>


<symbol id="icon-course-access"  xmlns="http://www.w3.org/2000/svg" viewBox="0 0 24 24">
    <path d="M10,2a8,8,0,1,1-8,8H3.6A6.4,6.4,0,1,0,4.708,6.4H6.8V8H2V3.2H3.6v2A7.985,7.985,0,0,1,10,2Zm.8,4V9.668l2.594,2.594-1.132,1.132L9.2,10.33V6Z" transform="translate(2 2)" fill="#333"/>
</symbol>


<symbol  id="icon-course-tv"  xmlns="http://www.w3.org/2000/svg" viewBox="0 0 24 24">
  <path d="M2,3.8A.8.8,0,0,1,2.794,3H17.206A.8.8,0,0,1,18,3.8V15a.8.8,0,0,1-.794.8H2.794A.8.8,0,0,1,2,15Zm1.6.8v9.6H16.4V4.6Zm.8,12H15.6v1.6H4.4Z" transform="translate(2 1)"/>
</symbol>

<symbol id="icon-course-certificate" xmlns="http://www.w3.org/2000/svg" viewBox="0 0 24 24">
  <path d="M10.818,14.4v1.687h4.091v1.636H5.091V16.091H9.182V14.4A6.546,6.546,0,0,1,3.455,7.909V3H16.545V7.909A6.546,6.546,0,0,1,10.818,14.4ZM5.091,4.636V7.909a4.909,4.909,0,0,0,9.818,0V4.636ZM1,4.636H2.636V7.909H1Zm16.364,0H19V7.909H17.364Z" transform="translate(2 2)" fill="#333"/>
</symbol>


<symbol id="icon-course-filter" xmlns="http://www.w3.org/2000/svg" viewBox="0 0 24 24">
	<path d="M9 2.003V2h10.998C20.55 2 21 2.455 21 2.992v18.016a.993.993 0 0 1-.993.992H3.993A1 1 0 0 1 3 20.993V8l6-5.997zM5.83 8H9V4.83L5.83 8zM11 4v5a1 1 0 0 1-1 1H5v10h14V4h-8z" />
</symbol>
<symbol id="icon-subject-filter" xmlns="http://www.w3.org/2000/svg" viewBox="0 0 24 24">
	<path d="M13 21v2h-2v-2H3a1 1 0 0 1-1-1V4a1 1 0 0 1 1-1h6a3.99 3.99 0 0 1 3 1.354A3.99 3.99 0 0 1 15 3h6a1 1 0 0 1 1 1v16a1 1 0 0 1-1 1h-8zm7-2V5h-5a2 2 0 0 0-2 2v12h7zm-9 0V7a2 2 0 0 0-2-2H4v14h7z" />
</symbol>
<symbol id="icon-class-filter" xmlns="http://www.w3.org/2000/svg" viewBox="0 0 24 24">
	<g transform="translate(-500 -19)">
		<path d="M14.712,10.056v8.533l7.386-4.27Zm1.623,2.812,2.517,1.454-2.517,1.454ZM25.8,24.323a2.434,2.434,0,1,0-4.024-.023,4.039,4.039,0,0,0-1.2,1.057A4.039,4.039,0,0,0,19.4,24.31a2.434,2.434,0,1,0-4.024,0A4.032,4.032,0,0,0,14.2,25.356a4.039,4.039,0,0,0-1.141-1.024,2.434,2.434,0,1,0-4.023-.045A4.006,4.006,0,0,0,7,27.772H8.623a2.38,2.38,0,1,1,4.761,0h1.623a2.38,2.38,0,1,1,4.761,0H21.39a2.38,2.38,0,1,1,4.761,0h1.622A4,4,0,0,0,25.8,24.323ZM11.054,22.131a.812.812,0,1,1-.569.237.808.808,0,0,1,.569-.237Zm6.329,0a.812.812,0,1,1-.569.237.808.808,0,0,1,.569-.237Zm6.411,0a.812.812,0,1,1-.569.237.808.808,0,0,1,.569-.237Zm3.979-12.7v9.737a2.423,2.423,0,0,1-.577,1.566,4.09,4.09,0,0,0-1.154-1.169.808.808,0,0,0,.105-.4V9.434a.808.808,0,0,0-.808-.808H9.434a.808.808,0,0,0-.808.808v9.737a.808.808,0,0,0,.129.436,4.091,4.091,0,0,0-1.132,1.184A2.423,2.423,0,0,1,7,19.171V9.434A2.437,2.437,0,0,1,9.434,7h15.9a2.437,2.437,0,0,1,2.434,2.435Zm0,0" transform="translate(494.664 13.665)" />
	</g>
</symbol>
<symbol id="icon-teacher-filter" xmlns="http://www.w3.org/2000/svg" viewBox="0 0 24 24">
	<path d="M20 22h-2v-2a3 3 0 0 0-3-3H9a3 3 0 0 0-3 3v2H4v-2a5 5 0 0 1 5-5h6a5 5 0 0 1 5 5v2zm-8-9a6 6 0 1 1 0-12 6 6 0 0 1 0 12zm0-2a4 4 0 1 0 0-8 4 4 0 0 0 0 8z" />
</symbol>
<symbol id="icon-subject" xmlns="http://www.w3.org/2000/svg" viewBox="0 0 24 24">
	<path d="M6.235,6.453A8,8,0,0,0,15.052,19.4a3.456,3.456,0,0,0-.24-1.722,12.3,12.3,0,0,0-2.253-2.844c-.338-.355-.316-.628-.195-1.437l.013-.091c.082-.554.22-.882,2.085-1.178A1.28,1.28,0,0,1,16,12.878l.116.172a1.831,1.831,0,0,0,.938.756c.165.075.37.17.645.325.652.373.652.794.652,1.716v.1a5.249,5.249,0,0,1-.1,1.034A8,8,0,0,0,15.152,4.645,7.877,7.877,0,0,0,13.575,5.91c-.135.185-.327,1.132-.95,1.21a3.667,3.667,0,0,1-.613-.009c-.622-.04-1.472-.095-1.744.644a2.928,2.928,0,0,0,.356,2.4.583.583,0,0,1,.046.519,1.014,1.014,0,0,1-.292.5,2.883,2.883,0,0,1-.419-.43,2.743,2.743,0,0,0-1.211-.96c-.184-.051-.386-.093-.583-.135C7.616,9.532,7,9.4,6.85,9.093a2.163,2.163,0,0,1-.105-.865,3.184,3.184,0,0,0-.2-1.345,1.276,1.276,0,0,0-.306-.43ZM12,22A10,10,0,1,1,22,12,10,10,0,0,1,12,22Z" />
</symbol>
<!-- ] -->
</svg>