<svg xmlns="http://www.w3.org/2000/svg" width="12" height="11.358" viewBox="0 0 12 11.358"><defs><style>.a{opacity:0.6;}.b{fill:#333;}</style></defs><g class="a" transform="translate(-0.001 -13.707)"><g transform="translate(0.001 13.707)"><path class="b" d="M10.877,14.828a3.841,3.841,0,0,0-5.425,0L.8,19.478a2.74,2.74,0,0,0,3.875,3.875l4.263-4.263a1.644,1.644,0,1,0-2.325-2.325L3.827,19.553a.548.548,0,1,0,.775.775l2.788-2.787a.548.548,0,1,1,.775.775L3.9,22.578a1.644,1.644,0,0,1-2.325-2.325l4.65-4.65A2.74,2.74,0,1,1,10.1,19.478l-4.65,4.65a.548.548,0,0,0,.775.775l4.65-4.65a3.836,3.836,0,0,0,0-5.425Z" transform="translate(-0.001 -13.707)"/></g></g></svg>