<svg xmlns="http://www.w3.org/2000/svg" viewBox="0 0 17 16.995">
    <g transform="translate(0 -0.07)">
        <g transform="translate(0 0.07)">
            <path d="M14.514,2.555a8.5,8.5,0,1,0,0,12.023A8.513,8.513,0,0,0,14.514,2.555Zm-.931,11.092a7.185,7.185,0,1,1,0-10.161A7.194,7.194,0,0,1,13.583,13.648Z" transform="translate(0 -0.07)"/>
        </g>
        <g transform="translate(5.553 5.54)">
            <path d="M173.023,169.661l-1.864-1.862,1.864-1.862a.659.659,0,1,0-.931-.932l-1.866,1.863-1.866-1.863a.659.659,0,1,0-.931.932l1.864,1.862-1.864,1.862a.659.659,0,0,0,.931.932l1.866-1.863,1.866,1.863a.659.659,0,1,0,.931-.932Z" transform="translate(-167.236 -164.813)"/>
        </g>
    </g>
</svg>