<svg enable-background="new 0 0 512 512" height="512" viewBox="0 0 512 512" width="512" xmlns="http://www.w3.org/2000/svg">
<path d="m500.879 141.084-101.345-27.155v-98.929c0-8.284-6.716-15-15-15h-257.067c-8.284 0-15 6.716-15 15v98.929l-101.346 27.155c-8.002 2.144-12.751 10.369-10.607 18.371l91.483 341.423c2.144 8.002 10.369 12.751 18.371 10.607l145.632-39.021 145.631 39.021c8.002 2.144 16.227-2.605 18.371-10.606l91.483-341.423c2.144-8.002-2.605-16.227-10.606-18.372zm-358.412-111.084h227.066v323.467h-227.066zm-25.374 448.625-83.718-312.445 79.092-21.192v223.479c0 8.284 6.716 15 15 15h199.206l9.75 36.39zm277.814 0-80.951-21.69 44.72-11.983c8.002-2.144 12.751-10.369 10.607-18.371l-11.552-43.114h26.803c8.284 0 15-6.716 15-15v-223.479l79.092 21.192z"/>
</svg>