<svg xmlns="http://www.w3.org/2000/svg" width="36" height="36" viewBox="0 0 36 36"><circle  cx="7.5" cy="7.5" r="7.5" transform="translate(10.5 10.5)"/><path  d="M34.5,16.5H32.923A15.023,15.023,0,0,0,19.5,3.076V1.5a1.5,1.5,0,1,0-3,0V3.076A15.023,15.023,0,0,0,3.076,16.5H1.5a1.5,1.5,0,0,0,0,3H3.076A15.024,15.024,0,0,0,16.5,32.924V34.5a1.5,1.5,0,1,0,3,0V32.924A15.024,15.024,0,0,0,32.923,19.5H34.5a1.5,1.5,0,0,0,0-3ZM19.479,29.9a1.481,1.481,0,0,0-2.958,0A12.011,12.011,0,0,1,6.1,19.48a1.482,1.482,0,0,0,0-2.959A12.011,12.011,0,0,1,16.519,6.1a1.482,1.482,0,0,0,2.959,0A12.011,12.011,0,0,1,29.9,16.519a1.482,1.482,0,0,0,0,2.959A12.014,12.014,0,0,1,19.479,29.9Z"/></g></svg>