<svg xmlns="http://www.w3.org/2000/svg" width="17.909" height="12.76" viewBox="0 0 17.909 12.76"><defs><style>.a{fill:#fff;}</style></defs><g transform="translate(0 -33.085)"><path class="a" d="M165.381,48.867c0-.02.014-.04.013-.061l-5.465,5.266,5.459,5.1c0-.036-.007-.073-.007-.11Z" transform="translate(-147.485 -14.498)"/><path class="a" d="M21.763,126.9l-2.231,2.147a.583.583,0,0,1-.8.006L16.5,126.981l-5.494,5.3a1.266,1.266,0,0,0,.427.085h15.38a1.265,1.265,0,0,0,.614-.169Z" transform="translate(-10.153 -86.516)"/><path class="a" d="M14.62,41.307l8.341-8.034a1.264,1.264,0,0,0-.644-.188H6.937a1.268,1.268,0,0,0-.807.3Z" transform="translate(-5.653 0)"/><path class="a" d="M0,52.1v10a1.269,1.269,0,0,0,.055.331L5.481,57.2Z" transform="translate(0 -17.535)"/></g></svg>