<svg xmlns="http://www.w3.org/2000/svg" viewBox="0 0 18.331 15.331">
    <g transform="translate(4 1)">
        <g transform="translate(-1 -1)">
            <path d="M96.47-1h-11.5a.639.639,0,0,0-.639.639V4.11a.639.639,0,1,0,1.278,0V.278H95.831V13.053H85.611V9.221a.639.639,0,0,0-1.278,0v4.472a.639.639,0,0,0,.639.639h11.5a.639.639,0,0,0,.639-.639V-.361A.639.639,0,0,0,96.47-1Z" transform="translate(-81.778 1)"/>
            <path d="M5.936,153.635a.639.639,0,0,0,.9.9l2.555-2.555h0q.022-.022.042-.046l.017-.023.02-.027.017-.028.015-.026c.005-.01.009-.019.014-.029l.013-.028c0-.009.007-.019.01-.029s.007-.02.011-.03.005-.019.007-.029.006-.021.008-.032,0-.023.005-.034,0-.018,0-.028a.643.643,0,0,0,0-.126c0-.009,0-.019,0-.028s0-.023-.005-.034-.005-.021-.008-.032,0-.019-.007-.029-.007-.02-.011-.03-.007-.019-.01-.029-.009-.018-.013-.028-.009-.019-.014-.029l-.015-.026-.017-.028-.02-.027-.017-.023q-.02-.024-.042-.046h0L6.84,148.525a.639.639,0,0,0-.9.9L7.4,150.893H-3.361a.639.639,0,0,0-.639.639.639.639,0,0,0,.639.639H7.4Z" transform="translate(1 -143.866)"/>
        </g>
    </g>
</svg>