<svg xmlns="http://www.w3.org/2000/svg" width="24" height="24" viewBox="0 0 24 24">

    <g transform="translate(-9 -8)">
        <rect fill="none" width="24" height="24" transform="translate(9 8)" />
        <g transform="translate(11 -27.221)">
            <g transform="translate(0 39.221)">
                <path fill="#fff" d="M14.609,39.221a5.228,5.228,0,0,0-4.218,2.145c-.146.187-.276.374-.392.556-.115-.181-.246-.369-.392-.556a5.228,5.228,0,0,0-4.218-2.145A5.519,5.519,0,0,0,0,45.01c0,3.611,2.959,7.014,9.6,11.034a.781.781,0,0,0,.81,0c6.636-4.02,9.6-7.423,9.6-11.034A5.519,5.519,0,0,0,14.609,39.221Zm1.764,10.285A29.082,29.082,0,0,1,10,54.46a29.083,29.083,0,0,1-6.373-4.954,6.8,6.8,0,0,1-2.064-4.5,3.965,3.965,0,0,1,3.828-4.227,3.661,3.661,0,0,1,2.958,1.508,5.8,5.8,0,0,1,.906,1.633.781.781,0,0,0,1.492,0,5.794,5.794,0,0,1,.878-1.6,3.671,3.671,0,0,1,2.986-1.544,3.965,3.965,0,0,1,3.828,4.227A6.8,6.8,0,0,1,16.373,49.506Z" transform="translate(0 -39.221)" />
            </g>
        </g>
    </g>
</svg>