<svg xmlns="http://www.w3.org/2000/svg" width="36" height="36" viewBox="0 0 36 36"><path d="M1.055,6.4A1.054,1.054,0,0,0,2.109,5.344V2.109H5.344A1.055,1.055,0,1,0,5.344,0H1.055A1.054,1.054,0,0,0,0,1.055V5.344A1.054,1.054,0,0,0,1.055,6.4Z"/><path  d="M1.055,427.4H5.344a1.055,1.055,0,0,0,0-2.109H2.109v-3.234a1.055,1.055,0,1,0-2.109,0v4.289A1.054,1.054,0,0,0,1.055,427.4Z" transform="translate(0 -391.398)"/><path  d="M426.344,0h-4.289a1.055,1.055,0,1,0,0,2.109h3.234V5.344a1.055,1.055,0,0,0,2.109,0V1.055A1.054,1.054,0,0,0,426.344,0Z" transform="translate(-391.398)"/><path  d="M426.344,421a1.054,1.054,0,0,0-1.055,1.055v3.234h-3.234a1.055,1.055,0,0,0,0,2.109h4.289a1.054,1.054,0,0,0,1.055-1.055v-4.289A1.054,1.054,0,0,0,426.344,421Z" transform="translate(-391.398 -391.398)"/><path  d="M186.273,181a5.273,5.273,0,1,0,5.273,5.273A5.28,5.28,0,0,0,186.273,181Zm0,8.438a3.164,3.164,0,1,1,3.164-3.164A3.168,3.168,0,0,1,186.273,189.438Z" transform="translate(-168.273 -168.273)"/><path  d="M18,91C8.251,91,.52,101.539.2,101.988a1.052,1.052,0,0,0,0,1.228C.52,103.664,8.251,114.2,18,114.2s17.481-10.539,17.8-10.988a1.052,1.052,0,0,0,0-1.228C35.481,101.539,27.75,91,18,91Zm0,18.984a7.383,7.383,0,1,1,7.383-7.383A7.392,7.392,0,0,1,18,109.984Z" transform="translate(0 -84.602)"/><circle  cx="0.9" cy="0.9" r="0.9" transform="translate(17.1 17.1)"/></svg>