<svg xmlns="http://www.w3.org/2000/svg" width="40" height="40" viewBox="0 0 40 40"><g transform="translate(3.333 3.333)"><path d="M18.667,35.333A16.667,16.667,0,1,1,35.333,18.667,16.716,16.716,0,0,1,18.667,35.333Zm0-31.667a15,15,0,1,0,15,15A14.938,14.938,0,0,0,18.667,3.667Z" transform="translate(-2 -2)"/></g><g transform="translate(19.167)"><path  d="M12.333,8.333A.787.787,0,0,1,11.5,7.5V.833a.833.833,0,1,1,1.667,0V7.5A.787.787,0,0,1,12.333,8.333Z" transform="translate(-11.5)"/></g><g transform="translate(19.167)"><path  d="M12.333,8.333A.787.787,0,0,1,11.5,7.5V.833a.833.833,0,1,1,1.667,0V7.5A.787.787,0,0,1,12.333,8.333Z" transform="translate(-11.5)"/></g><g transform="translate(31.667 19.167)"><path  d="M26.5,13.167H19.833a.833.833,0,0,1,0-1.667H26.5a.833.833,0,1,1,0,1.667Z" transform="translate(-19 -11.5)"/></g><g transform="translate(19.167 31.667)"><path  d="M12.333,27.333A.787.787,0,0,1,11.5,26.5V19.833a.833.833,0,0,1,1.667,0V26.5A.787.787,0,0,1,12.333,27.333Z" transform="translate(-11.5 -19)"/></g><g transform="translate(0 19.167)"><path  d="M7.5,13.167H.833a.833.833,0,1,1,0-1.667H7.5a.833.833,0,1,1,0,1.667Z" transform="translate(0 -11.5)"/></g><g transform="translate(15 15)"><path  d="M14,19a4.911,4.911,0,0,1-5-5,4.911,4.911,0,0,1,5-5,4.911,4.911,0,0,1,5,5A4.911,4.911,0,0,1,14,19Zm0-8.333A3.333,3.333,0,1,0,17.333,14,3.343,3.343,0,0,0,14,10.667Z" transform="translate(-9 -9)"/></g></svg>