<svg xmlns="http://www.w3.org/2000/svg" width="31" height="31" viewBox="0 0 31 31"><defs><style>.a{fill:#fbbb00;}.b{fill:#518ef8;}.c{fill:#28b446;}.d{fill:#f14336;}</style></defs><path class="a" d="M6.87,148.63l-1.079,4.028-3.944.083a15.527,15.527,0,0,1-.114-14.474h0l3.511.644,1.538,3.49a9.25,9.25,0,0,0,.087,6.228Z" transform="translate(0 -129.896)"/><path class="b" d="M276.516,208.176a15.494,15.494,0,0,1-5.525,14.983h0l-4.423-.226-.626-3.907a9.238,9.238,0,0,0,3.975-4.717h-8.288v-6.132h14.888Z" transform="translate(-245.787 -195.572)"/><path class="c" d="M53.865,318.262h0a15.5,15.5,0,0,1-23.356-4.742l5.023-4.112a9.219,9.219,0,0,0,13.284,4.72Z" transform="translate(-28.662 -290.675)"/><path class="d" d="M52.285,3.568,47.263,7.679a9.217,9.217,0,0,0-13.589,4.826L28.625,8.372h0a15.5,15.5,0,0,1,23.661-4.8Z" transform="translate(-26.891)"/></svg>