<svg xmlns="http://www.w3.org/2000/svg" width="30" height="30" viewBox="0 0 30 30">
    <g>
        <rect fill="none" width="30" height="30" />
        <path d="M6.683,2.649v7.394l6.4-3.7ZM8.089,5.086l2.181,1.26L8.089,7.606Zm8.2,9.926a2.109,2.109,0,1,0-3.487-.02,3.5,3.5,0,0,0-1.039.916A3.5,3.5,0,0,0,10.744,15a2.109,2.109,0,1,0-3.487,0,3.494,3.494,0,0,0-1.022.907,3.5,3.5,0,0,0-.989-.887,2.109,2.109,0,1,0-3.486-.039A3.471,3.471,0,0,0,0,18H1.406a2.063,2.063,0,0,1,4.125,0H6.938a2.062,2.062,0,1,1,4.125,0h1.406a2.062,2.062,0,1,1,4.125,0H18a3.47,3.47,0,0,0-1.709-2.988Zm-12.776-1.9a.7.7,0,1,1-.7.7A.7.7,0,0,1,3.516,13.114Zm5.484,0a.7.7,0,1,1-.7.7A.7.7,0,0,1,9,13.114Zm5.555,0a.7.7,0,1,1-.7.7A.7.7,0,0,1,14.555,13.114ZM18,2.11v8.437a2.1,2.1,0,0,1-.5,1.357,3.544,3.544,0,0,0-1-1.013.7.7,0,0,0,.091-.345V2.11a.7.7,0,0,0-.7-.7H2.109a.7.7,0,0,0-.7.7v8.437a.7.7,0,0,0,.112.378,3.545,3.545,0,0,0-.981,1.026A2.1,2.1,0,0,1,0,10.547V2.11A2.112,2.112,0,0,1,2.109,0H15.891A2.112,2.112,0,0,1,18,2.11Zm0,0" transform="translate(7 6.999)" />
    </g>
</svg>