<svg xmlns="http://www.w3.org/2000/svg" width="15.896" height="15.896" viewBox="0 0 15.896 15.896"><defs><style>.a{fill:#fff;}</style></defs><path class="a" d="M13.568,0H2.329A2.331,2.331,0,0,0,0,2.329V13.568A2.331,2.331,0,0,0,2.329,15.9H13.568A2.331,2.331,0,0,0,15.9,13.568V2.329A2.331,2.331,0,0,0,13.568,0ZM7.979,12.109a4.191,4.191,0,1,1,4.191-4.191A4.2,4.2,0,0,1,7.979,12.109Zm4.657-7.451a1.4,1.4,0,1,1,1.4-1.4A1.4,1.4,0,0,1,12.636,4.657Zm0,0"/><path class="a" d="M392.466,90a.466.466,0,1,0,.466.466A.466.466,0,0,0,392.466,90Zm0,0" transform="translate(-379.829 -87.206)"/><path class="a" d="M155.26,150a3.26,3.26,0,1,0,3.26,3.26A3.264,3.264,0,0,0,155.26,150Zm0,0" transform="translate(-147.281 -145.343)"/></svg>