<svg xmlns="http://www.w3.org/2000/svg" width="30" height="30" viewBox="0 0 30 30">
<g>
        <rect fill="none" width="30" height="30" />
        <g transform="translate(6 7)">
            <path d="M219.15,333.382a.925.925,0,0,0,0,1.85.925.925,0,0,0,0-1.85Z" transform="translate(-210.15 -321.819)" />
            <path d="M17.562,35.723a3.159,3.159,0,0,0,.007-3.2L11.774,22.492a3.193,3.193,0,0,0-5.543,0L.43,32.534a3.2,3.2,0,0,0,2.775,4.8H14.779A3.187,3.187,0,0,0,17.562,35.723ZM16.3,35a1.749,1.749,0,0,1-1.528.884H3.2a1.725,1.725,0,0,1-1.51-.866,1.751,1.751,0,0,1,0-1.765l5.8-10.042a1.742,1.742,0,0,1,3.027,0l5.8,10.042A1.728,1.728,0,0,1,16.3,35Z" transform="translate(0 -20.882)" />
            <path  d="M218.439,157.2a1.006,1.006,0,0,0-.714,1.01c.022.292.041.588.063.881.063,1.114.126,2.205.189,3.319a.678.678,0,0,0,.692.651.692.692,0,0,0,.692-.673c0-.229,0-.44.022-.673.041-.714.085-1.428.126-2.142.022-.463.063-.925.085-1.388a1.143,1.143,0,0,0-.085-.463A.927.927,0,0,0,218.439,157.2Z" transform="translate(-209.669 -152.133)" />
        </g>
    </g>
</svg>