<svg xmlns="http://www.w3.org/2000/svg" width="24" height="24" viewBox="0 0 24 24"><path d="M10,18a8,8,0,1,1,8-8A8,8,0,0,1,10,18ZM8.168,16.134A14.32,14.32,0,0,1,6.822,10.8H3.65a6.406,6.406,0,0,0,4.518,5.334ZM8.424,10.8A12.732,12.732,0,0,0,10,16.2a12.724,12.724,0,0,0,1.576-5.4H8.424Zm7.926,0H13.178a14.32,14.32,0,0,1-1.346,5.334A6.406,6.406,0,0,0,16.35,10.8ZM3.65,9.2H6.822A14.32,14.32,0,0,1,8.168,3.866,6.406,6.406,0,0,0,3.65,9.2Zm4.775,0h3.15A12.724,12.724,0,0,0,10,3.8,12.724,12.724,0,0,0,8.424,9.2Zm3.407-5.334A14.32,14.32,0,0,1,13.178,9.2H16.35a6.406,6.406,0,0,0-4.518-5.334Z" transform="translate(2 2)"/></svg>