<svg xmlns="http://www.w3.org/2000/svg" width="50" height="50" viewBox="0 0 50 50"><g transform="translate(17.676 41.016)"><path  d="M195.648,428.984H181v-4.59A4.4,4.4,0,0,1,185.395,420h5.859a4.4,4.4,0,0,1,4.395,4.395Z" transform="translate(-181 -420)"/></g><g transform="translate(35.352 41.016)"><path  d="M376.648,428.984H362v-4.59A4.4,4.4,0,0,1,366.395,420h5.859a4.4,4.4,0,0,1,4.395,4.395Z" transform="translate(-362 -420)"/></g><g transform="translate(0 41.016)"><path  d="M14.648,428.984H0v-4.59A4.4,4.4,0,0,1,4.395,420h5.859a4.4,4.4,0,0,1,4.395,4.395Z" transform="translate(0 -420)"/></g><g transform="translate(20.605 32.227)"><path  d="M215.395,338.789a4.395,4.395,0,1,1,4.395-4.395A4.4,4.4,0,0,1,215.395,338.789Z" transform="translate(-211 -330)"/></g><g transform="translate(38.281 32.227)"><path  d="M396.395,338.789a4.395,4.395,0,1,1,4.395-4.395A4.4,4.4,0,0,1,396.395,338.789Z" transform="translate(-392 -330)"/></g><g transform="translate(2.93 32.227)"><path  d="M34.395,338.789a4.395,4.395,0,1,1,4.395-4.395A4.4,4.4,0,0,1,34.395,338.789Z" transform="translate(-30 -330)"/></g><g transform="translate(3.027)"><path  d="M185.395,90H181v8.789h5.859V91.465A1.467,1.467,0,0,0,185.395,90Z" transform="translate(-166.352 -81.211)"/><path  d="M271,91.465v7.324h5.859V90h-4.395A1.467,1.467,0,0,0,271,91.465Z" transform="translate(-247.563 -81.211)"/><path  d="M31,0V26.367H49.456l3.516,3.352,3.516-3.352H74.945V0ZM63.227,20.508H42.719V5.859h7.324A4.361,4.361,0,0,1,52.973,7,4.361,4.361,0,0,1,55.9,5.859h7.324Z" transform="translate(-31)"/></g></svg>