<svg xmlns="http://www.w3.org/2000/svg" viewBox="0 0 16 16">

    <path class="a" d="M14.286,0H1.714A1.714,1.714,0,0,0,0,1.714V14.286A1.714,1.714,0,0,0,1.714,16H14.286A1.714,1.714,0,0,0,16,14.286V1.714A1.714,1.714,0,0,0,14.286,0Zm.571,14.286a.571.571,0,0,1-.571.571H1.714a.571.571,0,0,1-.571-.571V1.714a.571.571,0,0,1,.571-.571H14.286a.571.571,0,0,1,.571.571V14.286Z"/>
    <g transform="translate(2.886 3.441)"><path class="a" d="M87.512,102.4H85.878a.545.545,0,0,0,0,1.089h1.634a.545.545,0,1,0,0-1.089Z" transform="translate(-85.333 -102.4)"/></g>
    <g transform="translate(7.065 3.441)"><path class="a" d="M210.246,102.4h-4.9a.545.545,0,1,0,0,1.089h4.9a.545.545,0,0,0,0-1.089Z" transform="translate(-204.8 -102.4)"/></g>
    <g transform="translate(2.886 7.455)"><path class="a" d="M87.512,221.867H85.878a.545.545,0,1,0,0,1.089h1.634a.545.545,0,1,0,0-1.089Z" transform="translate(-85.333 -221.867)"/></g>
    <g transform="translate(7.065 7.455)"><path class="a" d="M210.246,221.867h-4.9a.545.545,0,1,0,0,1.089h4.9a.545.545,0,1,0,0-1.089Z" transform="translate(-204.8 -221.867)"/></g>
    <g transform="translate(2.886 11.47)"><path class="a" d="M87.512,341.333H85.878a.545.545,0,0,0,0,1.089h1.634a.545.545,0,1,0,0-1.089Z" transform="translate(-85.333 -341.333)"/></g>
    <g transform="translate(7.065 11.47)"><path class="a" d="M210.246,341.333h-4.9a.545.545,0,1,0,0,1.089h4.9a.545.545,0,1,0,0-1.089Z" transform="translate(-204.8 -341.333)"/></g>
</svg>