<svg xmlns="http://www.w3.org/2000/svg" width="24" height="24" viewBox="0 0 24 24">
    <g transform="translate(-10 -6)">
        <rect fill="none" width="24" height="24" transform="translate(10 6)" />
        <g transform="translate(11 -23.626)">
            <path d="M0,45.264a.645.645,0,0,0,1.019.525l3.544-2.528a1.734,1.734,0,0,1,1.012-.324h7.794a2.491,2.491,0,0,0,2.488-2.488V32.271a.645.645,0,0,0-.645-.645H2.488A2.491,2.491,0,0,0,0,34.114Zm1.289-11.15a1.2,1.2,0,0,1,1.2-1.2h12.08v7.534a1.2,1.2,0,0,1-1.2,1.2H5.575a3.016,3.016,0,0,0-1.761.564l-2.525,1.8Z" />
            <path d="M158.827,150.454a2.491,2.491,0,0,0-2.488-2.488h-1.722a.645.645,0,0,0,0,1.289h1.722a1.2,1.2,0,0,1,1.2,1.2v9.9l-2.525-1.8a3.015,3.015,0,0,0-1.761-.564h-7.794a1.2,1.2,0,0,1-1.2-1.2v-.577a.645.645,0,0,0-1.289,0v.577a2.491,2.491,0,0,0,2.488,2.488h7.794a1.734,1.734,0,0,1,1.012.324l3.544,2.528a.645.645,0,0,0,1.019-.525v-11.15Z" transform="translate(-136.827 -111.341)" />
            <path d="M93.507,114.628h7.447a.645.645,0,1,0,0-1.289H93.507a.645.645,0,1,0,0,1.289Z" transform="translate(-88.872 -78.202)" />
            <path d="M93.507,184.628h7.447a.645.645,0,0,0,0-1.289H93.507a.645.645,0,0,0,0,1.289Z" transform="translate(-88.872 -145.194)" />
        </g>
    </g>
</svg>