<svg xmlns="http://www.w3.org/2000/svg" width="36" height="35.999" viewBox="0 0 36 35.999"><path d="M27.749,32.739H.75a.751.751,0,0,1-.658-1.11L13.591,6.88a.781.781,0,0,1,1.317,0l13.5,24.749a.751.751,0,0,1-.658,1.11Zm-25.736-1.5H26.484L14.249,8.806Z" transform="translate(0 3.259)"/><path d="M27.663,29.5h-7.5a.75.75,0,1,1,0-1.5h6.231L19.457,15.385,16.6,21.3a.75.75,0,1,1-1.35-.654l3.492-7.224A.752.752,0,0,1,19.4,13a.79.79,0,0,1,.676.388l8.25,15a.751.751,0,0,1-.658,1.111Z" transform="translate(7.585 6.499)"/><path d="M9.75,11.25A.75.75,0,0,1,9,10.5V.75A.75.75,0,0,1,9.75,0h9a.751.751,0,0,1,.531,1.281L16.81,3.75l2.469,2.469A.751.751,0,0,1,18.75,7.5H10.5v3a.75.75,0,0,1-.75.75ZM10.5,6h6.439L15.22,4.281a.75.75,0,0,1,0-1.06L16.939,1.5H10.5Z" transform="translate(4.499)"/><path d="M13.589,16.494l-.054,0a.746.746,0,0,1-.546-.3L11.339,14l-1.65,2.2a.754.754,0,0,1-.546.3.725.725,0,0,1-.583-.217l-2.52-2.52a.75.75,0,1,1,1.06-1.06L9.009,14.6l1.731-2.308a.777.777,0,0,1,1.2,0L13.67,14.6l1.908-1.908a.75.75,0,0,1,1.06,1.06l-2.52,2.52a.748.748,0,0,1-.529.219Z" transform="translate(2.91 6.005)"/></svg>