<svg xmlns="http://www.w3.org/2000/svg" width="24" height="24" viewBox="0 0 24 24">
    <g transform="translate(-10 -4)">
        <rect fill="none" width="24" height="24" transform="translate(10 4)" />
        <path fill="#fff" d="M18.714,15.3c-1.751-1.528-3.371-3.683-3.371-9.064a5.6,5.6,0,1,0-11.206,0c0,5.386-1.62,7.539-3.372,9.065A2.246,2.246,0,0,0,0,16.984a.64.64,0,0,0,.637.643H6.686a3.115,3.115,0,0,0,6.109,0h6.048a.64.64,0,0,0,.637-.643A2.234,2.234,0,0,0,18.714,15.3ZM9.74,18.846a1.849,1.849,0,0,1-1.732-1.219h3.464A1.849,1.849,0,0,1,9.74,18.846ZM1.526,16.341a.942.942,0,0,1,.074-.072C4.272,13.942,5.412,10.94,5.412,6.232a4.328,4.328,0,1,1,8.656,0c0,4.7,1.14,7.706,3.813,10.038a.95.95,0,0,1,.074.072Z" transform="translate(13 6.42)" />
    </g>
</svg>