<svg xmlns="http://www.w3.org/2000/svg" width="30" height="30" viewBox="0 0 30 30">
   <g>
        <rect fill="none" width="30" height="30" />
        <g transform="translate(6 5)">
            <path d="M3.017,2.01H14.129V6.657h4.243V8.879h1.01V5.849L14.989,1H2.009V21.2H14.533v-1.01H3.017ZM15.139,3.02l2.424,2.626H15.139Z" transform="translate(-2.009 -1)" />
            <path d="M61.018,45.991,59.1,44.073a.258.258,0,0,0-.365,0L57.1,45.7l-5.049,5.037a.264.264,0,0,0-.078.114L51,53.756a.261.261,0,0,0,.163.329.252.252,0,0,0,.163,0l2.91-.973a.264.264,0,0,0,.114-.078l5.039-5.048,1.626-1.631A.258.258,0,0,0,61.018,45.991ZM52,53.089l.606-1.818,1.01,1.01Zm2.222-1.212-1.212-1.01,4.445-4.243,1.01,1.212Zm4.849-4.647L57.86,46.22l1.01-1.212,1.212,1.212Z" transform="translate(-41.093 -35.311)" />
            <path d="M16,30h7.071v1.01H16Zm0,2.222h8.889v1.01H16Zm0,2.222h8.889v1.01H16Zm0,2.222h8.889v1.01H16Zm0,2.222h4.084V39.9H16Z" transform="translate(-13.173 -24.141)" />
        </g>
    </g>
</svg>