<svg xmlns="http://www.w3.org/2000/svg" width="15.579" height="15.612" viewBox="0 0 15.579 15.612"><defs><style>.a{fill:#fff;}</style></defs><g transform="translate(-0.539 0)"><g transform="translate(0.539 0)"><path class="a" d="M15.709,11.457,13.531,9.279a1.449,1.449,0,0,0-2.412.545,1.483,1.483,0,0,1-1.712.934A6.718,6.718,0,0,1,5.361,6.711,1.41,1.41,0,0,1,6.295,5a1.449,1.449,0,0,0,.545-2.412L4.661.409a1.554,1.554,0,0,0-2.1,0L1.081,1.887c-1.478,1.556.156,5.68,3.813,9.337s7.781,5.369,9.337,3.813l1.478-1.478A1.554,1.554,0,0,0,15.709,11.457Z" transform="translate(-0.539 0)"/></g></g></svg>