<svg xmlns="http://www.w3.org/2000/svg" width="36.333" height="36.333" viewBox="0 0 36.333 36.333"><defs><style>.a{fill:#fff;}</style></defs><path class="a" d="M184.419,366.71a.71.71,0,1,1-.71-.71A.71.71,0,0,1,184.419,366.71Zm0,0" transform="translate(-170.014 -340.028)"/><path class="a" d="M386.967,326.258h-3.548V322.71a.71.71,0,1,0-1.419,0v4.258a.71.71,0,0,0,.71.71h4.258a.71.71,0,0,0,0-1.419Zm0,0" transform="translate(-354.892 -299.15)"/><path class="a" d="M60.71,187.419H65.18a.71.71,0,1,0,0-1.419H60.71a.71.71,0,1,0,0,1.419Zm0,0" transform="translate(-55.742 -172.801)"/><path class="a" d="M188.18,186H183.71a.71.71,0,1,0,0,1.419h4.471a.71.71,0,0,0,0-1.419Zm0,0" transform="translate(-170.014 -172.801)"/><path class="a" d="M60.71,247.419H65.18a.71.71,0,1,0,0-1.419H60.71a.71.71,0,1,0,0,1.419Zm0,0" transform="translate(-55.742 -228.543)"/><path class="a" d="M66.6,366H60.71a.71.71,0,0,0,0,1.419H66.6a.71.71,0,0,0,0-1.419Zm0,0" transform="translate(-55.742 -340.028)"/><path class="a" d="M188.18,246H183.71a.71.71,0,1,0,0,1.419h4.471a.71.71,0,1,0,0-1.419Zm0,0" transform="translate(-170.014 -228.543)"/><path class="a" d="M60.71,307.419H65.18a.71.71,0,1,0,0-1.419H60.71a.71.71,0,1,0,0,1.419Zm0,0" transform="translate(-55.742 -284.285)"/><path class="a" d="M188.18,306H183.71a.71.71,0,1,0,0,1.419h4.471a.71.71,0,1,0,0-1.419Zm0,0" transform="translate(-170.014 -284.285)"/><path class="a" d="M306.71,187.419h4.258a.71.71,0,0,0,0-1.419H306.71a.71.71,0,1,0,0,1.419Zm0,0" transform="translate(-284.285 -172.801)"/><path class="a" d="M31.649,20.213V4.967A2.131,2.131,0,0,0,29.52,2.838H27.391v-.71a2.129,2.129,0,1,0-4.258,0v.71h-5.89v-.71a2.129,2.129,0,1,0-4.258,0v.71H7.1v-.71a2.129,2.129,0,0,0-4.258,0v.71h-.71A2.131,2.131,0,0,0,0,4.967V28.1A2.131,2.131,0,0,0,2.129,30.23H19.651a8.515,8.515,0,1,0,12-10.017Zm-7.1-18.084a.71.71,0,0,1,1.419,0V4.967a.71.71,0,0,1-1.419,0Zm-10.148,0a.71.71,0,1,1,1.419,0V4.967a.71.71,0,1,1-1.419,0Zm-10.148,0a.71.71,0,1,1,1.419,0V4.967a.71.71,0,0,1-1.419,0ZM2.129,4.258h.71v.71a2.129,2.129,0,1,0,4.258,0v-.71h5.89v.71a2.129,2.129,0,1,0,4.258,0v-.71h5.89v.71a2.129,2.129,0,1,0,4.258,0v-.71H29.52a.71.71,0,0,1,.71.71V8.728H1.419V4.967A.71.71,0,0,1,2.129,4.258ZM1.419,28.1V10.148H30.23v9.5A8.521,8.521,0,0,0,19.3,27.817a8.616,8.616,0,0,0,.058.993H2.129a.71.71,0,0,1-.71-.71Zm26.4,6.812a7.1,7.1,0,1,1,7.1-7.1A7.12,7.12,0,0,1,27.817,34.914Zm0,0"/></svg>