<svg xmlns="http://www.w3.org/2000/svg" viewBox="0 0 228.027 244.122">
  <g id="file_1_" data-name="file (1)" transform="translate(-531.504 -30)">
    <g id="info" transform="translate(531.503 30)">
      <path id="Path_5" data-name="Path 5" d="M64.516,118.031a53.516,53.516,0,1,1,53.516-53.516A53.577,53.577,0,0,1,64.516,118.031Zm0-98.8A45.282,45.282,0,1,0,109.8,64.516,45.336,45.336,0,0,0,64.516,19.233Z" transform="translate(109.996 121.874)"/>
      <path id="Path_6" data-name="Path 6" d="M20.886,54.858A3.887,3.887,0,0,1,17,50.972V19.886a3.886,3.886,0,0,1,7.772,0V50.972A3.887,3.887,0,0,1,20.886,54.858Z" transform="translate(153.997 155.732)"/>
      <ellipse id="Ellipse_7" data-name="Ellipse 7" cx="4" cy="3.5" rx="4" ry="3.5" transform="translate(170.997 156)"/>
      <path id="Path_7" data-name="Path 7" d="M110.436,212.248H29.062A29.1,29.1,0,0,1,0,183.186V32.062A29.1,29.1,0,0,1,29.062,3h23.25a5.812,5.812,0,0,1,0,11.625H29.062A17.459,17.459,0,0,0,11.625,32.062V183.186a17.459,17.459,0,0,0,17.437,17.437h81.374a5.812,5.812,0,1,1,0,11.625Z" transform="translate(0 31.875)"/>
      <path id="Path_8" data-name="Path 8" d="M91.187,69.749H21.437A17.459,17.459,0,0,1,4,52.312V29.062A5.815,5.815,0,0,1,9.812,23.25H27.831a29.069,29.069,0,0,1,56.962,0h18.019a5.815,5.815,0,0,1,5.812,5.812v23.25A17.459,17.459,0,0,1,91.187,69.749ZM15.625,34.875V52.312a5.822,5.822,0,0,0,5.812,5.812H91.187A5.822,5.822,0,0,0,97,52.312V34.875H79.562a5.815,5.815,0,0,1-5.812-5.812,17.437,17.437,0,0,0-34.875,0,5.815,5.815,0,0,1-5.812,5.812Z" transform="translate(42.5)"/>
      <path id="Path_9" data-name="Path 9" d="M125.061,19.625H8.812A5.812,5.812,0,0,1,8.812,8H125.061a5.812,5.812,0,1,1,0,11.625Z" transform="translate(31.875 84.999)"/>
      <path id="Path_10" data-name="Path 10" d="M90.187,22.625H8.812A5.812,5.812,0,0,1,8.812,11H90.187a5.812,5.812,0,0,1,0,11.625Z" transform="translate(31.875 116.874)"/>
      <path id="Path_11" data-name="Path 11" d="M66.937,25.625H8.812A5.812,5.812,0,0,1,8.812,14H66.937a5.812,5.812,0,0,1,0,11.625Z" transform="translate(31.875 148.748)"/>
      <path id="Path_12" data-name="Path 12" d="M64.312,72.749A5.815,5.815,0,0,1,58.5,66.937V32.062A17.459,17.459,0,0,0,41.062,14.625H17.812A5.812,5.812,0,1,1,17.812,3h23.25A29.1,29.1,0,0,1,70.124,32.062V66.937A5.815,5.815,0,0,1,64.312,72.749Z" transform="translate(127.499 31.875)"/>
    </g>
  </g>
</svg>
