<svg xmlns="http://www.w3.org/2000/svg" viewBox="0 0 234.872 244.122">
  <g id="file_1_" data-name="file (1)" transform="translate(-531.503 -30)">
    <g id="info" transform="translate(531.503 30)">
      <path id="Path_7" data-name="Path 7" d="M110.436,212.248H29.062A29.1,29.1,0,0,1,0,183.186V32.062A29.1,29.1,0,0,1,29.062,3h23.25a5.812,5.812,0,0,1,0,11.625H29.062A17.459,17.459,0,0,0,11.625,32.062V183.186a17.459,17.459,0,0,0,17.437,17.437h81.374a5.812,5.812,0,1,1,0,11.625Z" transform="translate(0 31.875)"/>
      <path id="Path_8" data-name="Path 8" d="M91.187,69.749H21.437A17.459,17.459,0,0,1,4,52.312V29.062A5.815,5.815,0,0,1,9.812,23.25H27.831a29.069,29.069,0,0,1,56.962,0h18.019a5.815,5.815,0,0,1,5.812,5.812v23.25A17.459,17.459,0,0,1,91.187,69.749ZM15.625,34.875V52.312a5.822,5.822,0,0,0,5.812,5.812H91.187A5.822,5.822,0,0,0,97,52.312V34.875H79.562a5.815,5.815,0,0,1-5.812-5.812,17.437,17.437,0,0,0-34.875,0,5.815,5.815,0,0,1-5.812,5.812Z" transform="translate(42.5)"/>
      <path id="Path_9" data-name="Path 9" d="M125.061,19.625H8.812A5.812,5.812,0,0,1,8.812,8H125.061a5.812,5.812,0,1,1,0,11.625Z" transform="translate(31.875 84.999)"/>
      <path id="Path_10" data-name="Path 10" d="M90.187,22.625H8.812A5.812,5.812,0,0,1,8.812,11H90.187a5.812,5.812,0,0,1,0,11.625Z" transform="translate(31.875 116.874)"/>
      <path id="Path_11" data-name="Path 11" d="M66.937,25.625H8.812A5.812,5.812,0,0,1,8.812,14H66.937a5.812,5.812,0,0,1,0,11.625Z" transform="translate(31.875 148.748)"/>
      <path id="Path_12" data-name="Path 12" d="M64.312,72.749A5.815,5.815,0,0,1,58.5,66.937V32.062A17.459,17.459,0,0,0,41.062,14.625H17.812A5.812,5.812,0,1,1,17.812,3h23.25A29.1,29.1,0,0,1,70.124,32.062V66.937A5.815,5.815,0,0,1,64.312,72.749Z" transform="translate(127.499 31.875)"/>
      <g id="check" transform="translate(127.874 133.686)">
        <g id="Group_19" data-name="Group 19">
          <g id="Group_18" data-name="Group 18">
            <path id="Path_13" data-name="Path 13" d="M53.5,0A53.5,53.5,0,1,0,107,53.5,53.5,53.5,0,0,0,53.5,0Zm0,99.355A45.856,45.856,0,1,1,99.355,53.5,45.856,45.856,0,0,1,53.5,99.355Z"/>
          </g>
        </g>
        <g id="Group_21" data-name="Group 21" transform="translate(22.881 30.618)">
          <g id="Group_20" data-name="Group 20">
            <path id="Path_14" data-name="Path 14" d="M162.165,137.816a3.821,3.821,0,0,0-5.309,0h0l-35.512,35.512L108.76,160.744a3.821,3.821,0,1,0-5.5,5.31q.046.048.094.094l15.286,15.286a3.821,3.821,0,0,0,5.4,0l38.214-38.214A3.821,3.821,0,0,0,162.165,137.816Z" transform="translate(-102.19 -136.743)"/>
          </g>
        </g>
      </g>
    </g>
  </g>
</svg>
