<svg xmlns="http://www.w3.org/2000/svg" width="18" height="18" viewBox="0 0 18 18"><g transform="translate(0 0)"><path d="M17.3,8.3H16.54V4.122A4.126,4.126,0,0,0,12.419,0H5.581A4.126,4.126,0,0,0,1.46,4.122V8.3H.7A.7.7,0,0,0,0,9v5.484a.7.7,0,0,0,.7.7H3.818l-.927,1.785a.7.7,0,0,0,1.248.648L5.4,15.187H12.6l1.263,2.433a.7.7,0,0,0,1.248-.648l-.927-1.785H17.3a.7.7,0,0,0,.7-.7V9A.7.7,0,0,0,17.3,8.3ZM2.866,4.122A2.719,2.719,0,0,1,5.581,1.406h6.837a2.719,2.719,0,0,1,2.715,2.715V8.3h-.65a.7.7,0,0,0-.7.7v1.969H4.219V9a.7.7,0,0,0-.7-.7h-.65Zm13.728,9.659H1.406V9.7H2.813v1.969a.7.7,0,0,0,.7.7H14.484a.7.7,0,0,0,.7-.7V9.7h1.406Z"/></g></svg>