<svg xmlns="http://www.w3.org/2000/svg" width="30" height="30" viewBox="0 0 30 30">
    <rect fill="none" width="30" height="30" />
    <g transform="translate(5 5)">
        <path d="M21.977,11.9l-1.4-.237a7.928,7.928,0,0,0-.564-1.362l.827-1.158A1.232,1.232,0,0,0,20.7,7.552L19.457,6.307a1.227,1.227,0,0,0-.873-.363,1.214,1.214,0,0,0-.714.23L16.708,7A7.847,7.847,0,0,0,15.3,6.419l-.234-1.388A1.234,1.234,0,0,0,13.842,4H12.083a1.234,1.234,0,0,0-1.22,1.032l-.242,1.421a7.728,7.728,0,0,0-1.358.572L8.114,6.2a1.234,1.234,0,0,0-1.592.134L5.274,7.576A1.237,1.237,0,0,0,5.14,9.168l.836,1.174a7.732,7.732,0,0,0-.556,1.366l-1.388.234A1.234,1.234,0,0,0,3,13.162v1.759a1.234,1.234,0,0,0,1.032,1.22l1.42.242a7.736,7.736,0,0,0,.572,1.358L5.2,18.886a1.232,1.232,0,0,0,.134,1.592L6.58,21.723a1.228,1.228,0,0,0,1.588.134l1.174-.836a7.9,7.9,0,0,0,1.321.543l.233,1.4A1.234,1.234,0,0,0,12.116,24h1.763a1.234,1.234,0,0,0,1.22-1.032l.238-1.4A7.92,7.92,0,0,0,16.7,21l1.158.827a1.227,1.227,0,0,0,.719.23h0a1.226,1.226,0,0,0,.873-.363l1.245-1.245a1.237,1.237,0,0,0,.134-1.592L20,17.7a7.872,7.872,0,0,0,.564-1.362l1.4-.234A1.234,1.234,0,0,0,23,14.879V13.12a1.219,1.219,0,0,0-1.023-1.22Zm-.1,2.979a.108.108,0,0,1-.092.109l-1.755.292a.561.561,0,0,0-.451.414,6.69,6.69,0,0,1-.727,1.751.565.565,0,0,0,.025.614l1.032,1.454a.114.114,0,0,1-.013.142L18.654,20.9a.105.105,0,0,1-.079.033.1.1,0,0,1-.063-.021l-1.45-1.032a.565.565,0,0,0-.614-.025,6.688,6.688,0,0,1-1.751.727.555.555,0,0,0-.413.451l-.3,1.755a.108.108,0,0,1-.109.092H12.121a.108.108,0,0,1-.109-.092l-.292-1.755a.561.561,0,0,0-.414-.451,6.946,6.946,0,0,1-1.713-.7.578.578,0,0,0-.284-.075.55.55,0,0,0-.326.105l-1.462,1.04a.124.124,0,0,1-.063.021.112.112,0,0,1-.079-.033L6.133,19.693a.113.113,0,0,1-.012-.142L7.148,18.11a.572.572,0,0,0,.025-.618,6.625,6.625,0,0,1-.735-1.747.572.572,0,0,0-.451-.414l-1.767-.3a.108.108,0,0,1-.092-.109V13.162a.108.108,0,0,1,.092-.11l1.742-.292a.565.565,0,0,0,.455-.418,6.678,6.678,0,0,1,.715-1.753A.558.558,0,0,0,7.1,9.979L6.063,8.517a.114.114,0,0,1,.012-.142L7.32,7.129A.107.107,0,0,1,7.4,7.1a.1.1,0,0,1,.063.021L8.9,8.145a.572.572,0,0,0,.618.025,6.626,6.626,0,0,1,1.747-.735.572.572,0,0,0,.414-.451l.3-1.767a.108.108,0,0,1,.109-.092h1.759a.108.108,0,0,1,.109.092l.292,1.742a.565.565,0,0,0,.418.455,6.78,6.78,0,0,1,1.792.735.565.565,0,0,0,.614-.025l1.441-1.036a.124.124,0,0,1,.063-.021.112.112,0,0,1,.079.033l1.244,1.245a.113.113,0,0,1,.013.142l-1.032,1.45a.565.565,0,0,0-.025.614,6.689,6.689,0,0,1,.727,1.751.555.555,0,0,0,.45.414l1.755.3a.108.108,0,0,1,.092.109V14.88h0Z" transform="translate(-3 -4)" />
        <path d="M34.326,30.99a4.316,4.316,0,1,0,4.316,4.316A4.316,4.316,0,0,0,34.326,30.99Zm0,7.5a3.188,3.188,0,1,1,3.188-3.188,3.188,3.188,0,0,1-3.188,3.188Z" transform="translate(-24.324 -25.308)" />
    </g>
</svg>