<svg xmlns="http://www.w3.org/2000/svg" width="36" height="36.001" viewBox="0 0 36 36.001"><g transform="translate(0 0)"><path class="a" d="M34.367,18.151v-5.06a3.266,3.266,0,0,0-3.012-3.246l-4.7-8.207a3.238,3.238,0,0,0-4.442-1.2L6.1,9.819H3.276A3.276,3.276,0,0,0,0,13.092V32.728A3.276,3.276,0,0,0,3.276,36H31.094a3.276,3.276,0,0,0,3.273-3.273v-5.06A2.451,2.451,0,0,0,36,25.364V20.455A2.451,2.451,0,0,0,34.367,18.151Zm-11.33-16.3a1.583,1.583,0,0,1,1.215-.164,1.6,1.6,0,0,1,.983.76l1.594,2.785a5.617,5.617,0,0,1-2.281.492A5.637,5.637,0,0,1,20.1,3.565ZM18.679,4.392a7.218,7.218,0,0,0,8.962,2.261l1.812,3.166H9.357ZM32.73,32.728a1.638,1.638,0,0,1-1.636,1.636H3.276a1.638,1.638,0,0,1-1.636-1.636V13.092a1.638,1.638,0,0,1,1.636-1.636H31.094a1.638,1.638,0,0,1,1.636,1.636V18H27.821a4.909,4.909,0,1,0,0,9.818H32.73Zm1.636-7.364a.819.819,0,0,1-.818.818H27.821a3.273,3.273,0,1,1,0-6.545h5.727a.819.819,0,0,1,.818.818Z" transform="translate(-0.003 0)"/><path d="M343.246,277.341a1.909,1.909,0,1,0,1.909,1.909A1.912,1.912,0,0,0,343.246,277.341Z" transform="translate(-315.591 -256.422)"/></g></svg>