<svg xmlns="http://www.w3.org/2000/svg" width="40" height="40" viewBox="0 0 40 40"><path d="M280.666,191.332h-2.222a1.111,1.111,0,0,0,0,2.222h1.111a1.111,1.111,0,1,0,2.222,0v-.2a3.325,3.325,0,0,0-1.111-6.462,1.111,1.111,0,0,1,0-2.222h2.222a1.111,1.111,0,0,0,0-2.222h-1.111a1.111,1.111,0,1,0-2.222,0v.2a3.325,3.325,0,0,0,1.111,6.462,1.111,1.111,0,0,1,0,2.222Z" transform="translate(-256.698 -168.74)"/><path d="M36.582,29.328a2.485,2.485,0,0,0,.085-.474c0-2.88-2.174-6.6-2.746-7.532-.027-6.266-1.14-10.833-5.718-12.4.209-.653.586-1.522.936-2.324a12.477,12.477,0,0,0,1.307-3.955A2.511,2.511,0,0,0,27.8,0a1.9,1.9,0,0,0-1.93,1.075l-.038-.044A2.7,2.7,0,0,0,23.561,0c-1.526,0-2.516,1.329-3,2.418a3.413,3.413,0,0,0-2.106.723,1.763,1.763,0,0,0-.571,1.322,6.49,6.49,0,0,0,1.281,2.924,15.524,15.524,0,0,1,.89,1.567c-4.516,1.586-5.62,6.136-5.646,12.368a26.852,26.852,0,0,0-1.52,2.906,18.389,18.389,0,0,0-3.2.576A2.5,2.5,0,0,0,7.784,23.04L1,21.683A.833.833,0,0,0,0,22.5V35.833a.833.833,0,0,0,.833.833H6.055a2.486,2.486,0,0,0,2.282-1.574C10.2,35.982,18.832,40,22.5,40c3.232,0,9.885-3.271,14.287-5.435,1.149-.565,2.1-1.032,2.715-1.3A.834.834,0,0,0,40,32.5C40,30.915,38.647,29.731,36.582,29.328ZM8.119,25.61,6.879,34.285A.837.837,0,0,1,6.055,35H1.667V23.516l5.79,1.158A.834.834,0,0,1,8.119,25.61ZM19.593,4.363a2.653,2.653,0,0,1,1.489-.278.813.813,0,0,0,.855-.588c.147-.474.76-1.83,1.624-1.83a1.083,1.083,0,0,1,1.019.469,1.781,1.781,0,0,0,1.4.741A1.4,1.4,0,0,0,27.324,1.9a1.231,1.231,0,0,1,.082-.173.806.806,0,0,1,.391-.058.86.86,0,0,1,.982.981,13.354,13.354,0,0,1-1.167,3.288A25.332,25.332,0,0,0,26.586,8.53a15.038,15.038,0,0,0-4.9.008,13.411,13.411,0,0,0-1.106-2.031A5.406,5.406,0,0,1,19.593,4.363ZM15.946,22.013a.836.836,0,0,0,.133-.451C16.078,13.026,18.195,10,24.167,10s8.088,3.026,8.088,11.563a.837.837,0,0,0,.133.452C32.414,22.055,35,26.1,35,28.854a.854.854,0,0,1-.062.315,34.555,34.555,0,0,0-6.648,1.4c-.227-2.392-3.291-3.238-6.458-3.881a14.309,14.309,0,0,1-3.56-1.313,9.986,9.986,0,0,0-3.542-1.154A24.566,24.566,0,0,1,15.946,22.013ZM36.051,33.07c-4,1.969-10.706,5.264-13.551,5.264-3.031,0-10.991-3.549-13.8-4.916l-.01,0,.981-6.867a16.009,16.009,0,0,1,4.5-.714,7.519,7.519,0,0,1,3.382,1.038A15.908,15.908,0,0,0,21.5,28.317c3.621.734,5.166,1.487,5.166,2.516a.493.493,0,0,1-.221.447c-.527.4-2.6,1.062-10.376-1.246a.833.833,0,1,0-.474,1.6,33.781,33.781,0,0,0,8.853,1.7,5,5,0,0,0,2.993-.722c.056-.041.1-.092.147-.137a.8.8,0,0,0,.155-.015A39.2,39.2,0,0,1,35,30.833c1.359,0,2.789.413,3.21,1.188C37.629,32.295,36.892,32.657,36.051,33.07Z"/></svg>