<svg xmlns="http://www.w3.org/2000/svg" width="32" height="43.323" viewBox="0 0 32 43.323"><path class="a" d="M29.862,15.887a.709.709,0,0,1,.708-.708H47.446a.708.708,0,0,1,0,1.416H30.57A.708.708,0,0,1,29.862,15.887Zm.708,6.846H47.446a.708.708,0,0,0,0-1.416H30.57a.708.708,0,1,0,0,1.416Zm7.3,4.719h-7.3a.708.708,0,1,0,0,1.416h7.3a.708.708,0,1,0,0-1.416Zm-.944,6.138H30.571a.708.708,0,1,0,0,1.416h6.352a.708.708,0,1,0,0-1.416Zm20,.824a8.895,8.895,0,0,1-14.877,6.6s0,0-.007,0H25.633a.71.71,0,0,1-.708-.708V7.183a.708.708,0,0,1,.708-.708h5.98V4.529a.708.708,0,0,1,.708-.708h2.9V3.786a3.786,3.786,0,0,1,7.573,0V3.82h2.9a.709.709,0,0,1,.708.708V6.474h5.979a.708.708,0,0,1,.708.708V27.1A8.9,8.9,0,0,1,56.925,34.413ZM33.03,8.705H44.988V5.238h-3a.708.708,0,0,1-.687-.882,2.277,2.277,0,0,0,.08-.57,2.371,2.371,0,1,0-4.662.573.707.707,0,0,1-.687.879h-3ZM26.341,39.594H40.782A8.894,8.894,0,0,1,51.674,26.3V7.889H46.4V9.411a.709.709,0,0,1-.708.708H32.32a.709.709,0,0,1-.708-.708V7.889H26.34v31.7Zm29.168-5.181a7.493,7.493,0,1,0-7.493,7.493A7.5,7.5,0,0,0,55.509,34.413Zm-3.588-2.951-4.337,4.159L44.65,33.275a.708.708,0,0,0-.885,1.106l3.419,2.736a.712.712,0,0,0,.442.152.7.7,0,0,0,.49-.2L52.9,32.484a.707.707,0,0,0-.978-1.022Z" transform="translate(-24.925)"/></svg>