<svg xmlns="http://www.w3.org/2000/svg" width="30" height="30" viewBox="0 0 30 30">
    <g>
        <rect fill="none" width="30" height="30" />
        <g transform="translate(4 6)">
            <g transform="translate(0 7.264)">
                <path d="M17.07,231.183H15.113a2.922,2.922,0,0,0-.77.1,2.932,2.932,0,0,0-2.612-1.606H8.27a2.932,2.932,0,0,0-2.612,1.606,2.922,2.922,0,0,0-.77-.1H2.93A2.933,2.933,0,0,0,0,234.113v3.13A1.76,1.76,0,0,0,1.758,239H18.242A1.76,1.76,0,0,0,20,237.242v-3.13A2.933,2.933,0,0,0,17.07,231.183ZM5.34,232.61v5.218H1.758a.587.587,0,0,1-.586-.586v-3.13a1.76,1.76,0,0,1,1.758-1.758H4.887a1.753,1.753,0,0,1,.46.061C5.343,232.48,5.34,232.545,5.34,232.61Zm8.148,5.218H6.512V232.61a1.76,1.76,0,0,1,1.758-1.758H11.73a1.76,1.76,0,0,1,1.758,1.758Zm5.34-.586a.587.587,0,0,1-.586.586H14.66V232.61c0-.065,0-.13-.007-.194a1.754,1.754,0,0,1,.46-.061H17.07a1.76,1.76,0,0,1,1.758,1.758Z" transform="translate(0 -229.68)" />
            </g>
            <g transform="translate(1.305 3.233)">
                <path d="M36.017,126.5a2.6,2.6,0,1,0,2.6,2.6A2.606,2.606,0,0,0,36.017,126.5Zm0,4.035a1.431,1.431,0,1,1,1.431-1.431A1.433,1.433,0,0,1,36.017,130.539Z" transform="translate(-33.414 -126.504)" />
            </g>
            <g transform="translate(6.522)">
                <path d="M170.44,43.729a3.478,3.478,0,1,0,3.478,3.478A3.482,3.482,0,0,0,170.44,43.729Zm0,5.784a2.306,2.306,0,1,1,2.306-2.306A2.309,2.309,0,0,1,170.44,49.513Z" transform="translate(-166.962 -43.729)" />
            </g>
            <g transform="translate(13.488 3.233)">
                <path d="M347.9,126.5a2.6,2.6,0,1,0,2.6,2.6A2.606,2.606,0,0,0,347.9,126.5Zm0,4.035a1.431,1.431,0,1,1,1.431-1.431A1.433,1.433,0,0,1,347.9,130.539Z" transform="translate(-345.294 -126.504)" />
            </g>
        </g>
    </g>
</svg>