<svg xmlns="http://www.w3.org/2000/svg" width="18" height="18" viewBox="0 0 18 18"><g transform="translate(0)"><g transform="translate(0)"><path d="M17.357,0H10.285a.643.643,0,0,0-.454.188L.188,9.831a.643.643,0,0,0,0,.909l7.071,7.071a.643.643,0,0,0,.909,0l9.643-9.643A.643.643,0,0,0,18,7.714V.643A.643.643,0,0,0,17.357,0Zm-.643,7.448-9,9L1.551,10.286l9-9h6.162Z" transform="translate(0)"/></g><g transform="translate(11.671 2.532)"><path d="M309.095,68.267a1.9,1.9,0,1,0,1.9,1.9A1.9,1.9,0,0,0,309.095,68.267Zm0,2.532a.633.633,0,1,1,.633-.633A.633.633,0,0,1,309.095,70.8Z" transform="translate(-307.196 -68.267)"/></g></g></svg>