<svg xmlns="http://www.w3.org/2000/svg" width="36" height="36" viewBox="0 0 36 36"><g transform="translate(0 0.001)"><path  d="M34.978,17.6a17.3,17.3,0,0,0-5.9,1.033l.243.243a3.169,3.169,0,0,1,.877,2.805l-.554,3.059a11.557,11.557,0,1,1-4.9,4.9l-3.059.554a3.181,3.181,0,0,1-.565.051,3.147,3.147,0,0,1-2.24-.928l-.243-.243A17.381,17.381,0,1,0,34.978,17.6Z" transform="translate(-16.359 -16.36)"/><path  d="M216.825,217.882a1.053,1.053,0,0,1-.747-.309l-2.439-2.439a3.611,3.611,0,1,0,1.493-1.493l2.439,2.439a1.056,1.056,0,0,1-.747,1.8Z" transform="translate(-198.206 -198.207)"/><path  d="M132.471,133.963a9.449,9.449,0,1,0,1.493-1.493l2.655,2.655a5.727,5.727,0,1,1-1.493,1.493Z" transform="translate(-121.227 -121.226)"/><path  d="M77.582,4.943a1.056,1.056,0,0,0-.292-.935l-3.7-3.7a1.056,1.056,0,0,0-1.736.378l-1.045,2.8,5.956,5.956Z" transform="translate(-65.824 0)"/><path  d="M4.755,77.6a1.06,1.06,0,0,0,.188-.017l4.5-.817L3.492,70.809l-2.8,1.045a1.056,1.056,0,0,0-.378,1.736l3.7,3.7A1.056,1.056,0,0,0,4.755,77.6Z" transform="translate(0 -65.824)"/></g></svg>