<svg xmlns="http://www.w3.org/2000/svg" width="50" height="43.626" viewBox="0 0 50 43.626"><g transform="translate(0 -32.631)"><circle  cx="8.699" cy="8.699" r="8.699" transform="translate(16.12 32.631)"/><ellipse  cx="5.036" cy="5.494" rx="5.036" ry="5.494" transform="translate(37.18 39.041)"/><circle  cx="5.494" cy="5.494" r="5.494" transform="translate(2.384 39.041)"/><path  d="M13.1,242.041c-2.114-1.732-4.029-1.5-6.474-1.5A6.619,6.619,0,0,0,0,247.129v10.665a2.87,2.87,0,0,0,2.872,2.861c6.838,0,6.015.124,6.015-.295C8.887,252.8,7.992,247.261,13.1,242.041Z" transform="translate(0 -187.595)"/><path  d="M135.773,239.965c-4.27-.356-7.981,0-11.183,2.646-5.357,4.291-4.326,10.069-4.326,17.137a3.426,3.426,0,0,0,3.42,3.42c20.613,0,21.434.665,22.656-2.042.4-.915.291-.625.291-9.382C146.631,244.789,140.609,239.965,135.773,239.965Z" transform="translate(-108.448 -186.983)"/><path  d="M384.284,240.539c-2.458,0-4.362-.227-6.474,1.5,5.075,5.181,4.218,10.345,4.218,18.319,0,.421-.684.295,5.912.295a2.972,2.972,0,0,0,2.975-2.963V247.13A6.619,6.619,0,0,0,384.284,240.539Z" transform="translate(-340.914 -187.596)"/></g></svg>