<svg xmlns="http://www.w3.org/2000/svg" width="60" height="60" viewBox="0 0 60 60"><defs><style>.a{fill:#fff;}</style></defs><g transform="translate(14.433 19.379)"><path class="a" d="M153.707,166.123a2.432,2.432,0,0,0-3.439-.091L134.74,180.759l-7.407-7.6a2.432,2.432,0,0,0-3.485,3.394l9.081,9.324a2.433,2.433,0,0,0,3.417.068l17.27-16.378A2.432,2.432,0,0,0,153.707,166.123Z" transform="translate(-123.158 -165.364)"/></g><path class="a" d="M30,0A30,30,0,1,0,60,30,30.034,30.034,0,0,0,30,0Zm0,55.135A25.135,25.135,0,1,1,55.135,30,25.164,25.164,0,0,1,30,55.135Z"/></svg>