<svg xmlns="http://www.w3.org/2000/svg" width="50" height="50" viewBox="0 0 50 50"><path  d="M350.115,365.592h2.826l-1.407-3.728Z" transform="translate(-315.924 -326.526)"/><path  d="M198.526,237h-11.67v.244a5.622,5.622,0,0,1-5.615,5.615H172.4v14.1l-4.395,4.395a1.465,1.465,0,0,0,1.036,2.5h29.482a2.686,2.686,0,0,0,2.686-2.686V239.686A2.686,2.686,0,0,0,198.526,237Zm-6.575,21.634a1.463,1.463,0,0,1-1.888-.853l-.728-1.93h-5.048l-.737,1.934a1.465,1.465,0,0,1-2.738-1.043l4.4-11.554.013-.033a1.724,1.724,0,0,1,1.6-1.075h0a1.724,1.724,0,0,1,1.6,1.072l.016.04,4.36,11.554a1.465,1.465,0,0,1-.853,1.888Z" transform="translate(-151.211 -213.855)"/><path  d="M148.471,113.5h-4.619a8.289,8.289,0,0,0,2.309,4.409A8.288,8.288,0,0,0,148.471,113.5Z" transform="translate(-129.804 -102.416)"/><path  d="M30.029,26.074a2.686,2.686,0,0,0,2.686-2.686V2.686A2.686,2.686,0,0,0,30.029,0H2.686A2.686,2.686,0,0,0,0,2.686V30.564a1.465,1.465,0,0,0,2.429,1.1L8.82,26.074ZM11.082,11.084H10.5a1.465,1.465,0,1,1,0-2.93h4.395V6.689a1.465,1.465,0,1,1,2.93,0V8.154h4.395a1.465,1.465,0,1,1,0,2.93h-.584a11.2,11.2,0,0,1-2.837,6.1,8.249,8.249,0,0,0,3.421.741,1.465,1.465,0,1,1,0,2.93A11.163,11.163,0,0,1,16.357,19.2,11.163,11.163,0,0,1,10.5,20.85a1.465,1.465,0,1,1,0-2.93,8.249,8.249,0,0,0,3.421-.741A11.2,11.2,0,0,1,11.082,11.084Z"/><path  d="M48.324,366.859H43.93v-4.395a1.465,1.465,0,0,0-2.93,0v5.859a1.465,1.465,0,0,0,1.465,1.465h5.859a1.465,1.465,0,1,0,0-2.93Z" transform="translate(-36.996 -325.746)"/><path  d="M382.465,63.93h4.395v4.395a1.465,1.465,0,1,0,2.93,0V62.465A1.465,1.465,0,0,0,388.324,61h-5.859a1.465,1.465,0,0,0,0,2.93Z" transform="translate(-343.793 -55.043)"/></svg>