<svg xmlns="http://www.w3.org/2000/svg" width="15.615" height="12.78" viewBox="0 0 15.615 12.78"><defs><style>.a{fill:#fff;}</style></defs><path class="a" d="M5.826,12.78a13.4,13.4,0,0,1-2.069-.164,9.712,9.712,0,0,1-2.831-1.03L0,11.08l1-.329c1.095-.36,1.761-.583,2.586-.933A3.44,3.44,0,0,1,1.819,7.769l-.233-.707.191.029a3.475,3.475,0,0,1-.435-.537A3.294,3.294,0,0,1,.783,4.6l.044-.617.37.143a3.456,3.456,0,0,1-.335-.939,3.572,3.572,0,0,1,.381-2.4L1.564.186,2,.7A7.926,7.926,0,0,0,7.13,3.595a3.071,3.071,0,0,1,.186-1.632A3.055,3.055,0,0,1,8.558.539,3.73,3.73,0,0,1,10.723.007a3.458,3.458,0,0,1,2.126.877,7.136,7.136,0,0,0,.778-.26C13.8.56,13.991.487,14.233.4L15.125.1l-.582,1.661.119-.008.953-.043-.563.769c-.032.044-.041.057-.052.074-.045.068-.1.153-.875,1.185a1.456,1.456,0,0,0-.272.948,8.965,8.965,0,0,1-.489,3.606,6.381,6.381,0,0,1-1.713,2.537,7.565,7.565,0,0,1-3.586,1.734,11.04,11.04,0,0,1-2.24.22Zm0,0" transform="translate(0 0)"/></svg>