<svg xmlns="http://www.w3.org/2000/svg" viewBox="0 0 72 72">
    <path d="M57.429,28.858H25.286V18.432A11.227,11.227,0,0,1,33.857,7.287,10.963,10.963,0,0,1,46.714,18.072a3.572,3.572,0,1,0,7.143,0A17.98,17.98,0,0,0,34.214.1C24.929,1.175,18.143,9.444,18.143,18.791V28.858H14.571A3.59,3.59,0,0,0,11,32.453V68.4A3.854,3.854,0,0,0,14.571,72H57.429A3.591,3.591,0,0,0,61,68.4V32.453A3.385,3.385,0,0,0,57.429,28.858ZM39.571,52.945v4.674A3.385,3.385,0,0,1,36,61.214a3.385,3.385,0,0,1-3.572-3.6V52.945a7.424,7.424,0,0,1-3.571-6.112A7.086,7.086,0,0,1,37.786,40,8.077,8.077,0,0,1,43.143,45.4,7.015,7.015,0,0,1,39.571,52.945Z"/>
</svg>
