<svg xmlns="http://www.w3.org/2000/svg" width="20" height="18.499" viewBox="0 0 20 18.499">
  <path d="M32.108,20.317v-4.3h6.237v4.3Zm5.161-3.226H33.183v2.151h4.086ZM31.462,8.7l-3.226,2.151H26.3L27.806,9.78l-1.29-1.29-2.581,2.366H22l4.253-3.736a.44.44,0,0,1,.643,0l1.84,1.924,2.8-1.691a.443.443,0,0,1,.621.174l1.884,3.329H32.538Z" transform="translate(-18.344 -6.98)" fill="#30302e" fill-rule="evenodd"/>
  <path d="M23.065,29.3V26.075H6.075V38.548H23.065V35.323H24.14v4.3H5V25H24.14v4.3Z" transform="translate(-5 -21.125)" />
</svg>
