
<svg xmlns="http://www.w3.org/2000/svg" xmlns:xlink="http://www.w3.org/1999/xlink" x="0px" y="0px"
	 viewBox="0 0 512 512" style="enable-background:new 0 0 512 512;" xml:space="preserve">

	<g>
		<g>
			<path d="M312.942,424.774L276,461.28V276c0-11.046-8.954-20-20-20c-11.046,0-20,8.954-20,20v183.303l-34.942-34.529
				c-7.857-7.764-20.52-7.688-28.284,0.168c-7.764,7.857-7.688,20.52,0.168,28.284l41.589,41.098
				C225.878,505.724,240.955,512,257,512s31.122-6.276,42.469-17.676l41.589-41.098c7.856-7.764,7.932-20.427,0.168-28.284
				C333.461,417.085,320.799,417.009,312.942,424.774z"/>
			<path d="M492,276c-11.046,0-20,8.954-20,20c0,22.056-17.944,40-40,40h-96c-11.046,0-20,8.954-20,20c0,11.046,8.954,20,20,20h96
				c44.112,0,80-35.888,80-80C512,284.954,503.046,276,492,276z"/>
			<path d="M311.172,253.815c3.35,2.157,7.101,3.188,10.809,3.187c6.573,0,13.011-3.237,16.834-9.174
				C350.712,229.354,357,208.277,357,186.878c0-59.551-45.309-108-101-108c-55.691,0-101,48.449-101,108
				c0,22.906,5.798,43.438,17.233,61.024c6.021,9.26,18.41,11.886,27.669,5.865c9.26-6.021,11.886-18.409,5.865-27.669
				C198.623,215.109,195,201.915,195,186.878c0-37.495,27.364-68,61-68s61,30.505,61,68c0,13.702-4.085,27.29-11.815,39.293
				C299.205,235.459,301.885,247.835,311.172,253.815z"/>
			<circle cx="415" cy="187" r="20"/>
			<circle cx="97" cy="187" r="20"/>
			<path d="M432,0H80C35.888,0,0,35.888,0,80v216c0,44.112,35.888,80,80,80h96c11.046,0,20-8.954,20-20c0-11.046-8.954-20-20-20H80
				c-22.056,0-40-17.944-40-40V80c0-22.056,17.944-40,40-40h352c22.056,0,40,17.944,40,40v116c0,11.046,8.954,20,20,20
				c11.046,0,20-8.954,20-20V80C512,35.888,476.112,0,432,0z"/>
		</g>
	</g>


</svg>




<svg id="info" xmlns="http://www.w3.org/2000/svg" x="0px" y="0px" viewBox="0 0 234.995 244.122">
  <path id="Path_7" data-name="Path 7" d="M110.436,212.248H29.062A29.1,29.1,0,0,1,0,183.186V32.062A29.1,29.1,0,0,1,29.062,3h23.25a5.812,5.812,0,0,1,0,11.625H29.062A17.459,17.459,0,0,0,11.625,32.062V183.186a17.459,17.459,0,0,0,17.437,17.437h81.374a5.812,5.812,0,1,1,0,11.625Z" transform="translate(0 31.875)"/>
  <path id="Path_8" data-name="Path 8" d="M91.187,69.749H21.437A17.459,17.459,0,0,1,4,52.312V29.062A5.815,5.815,0,0,1,9.812,23.25H27.831a29.069,29.069,0,0,1,56.962,0h18.019a5.815,5.815,0,0,1,5.812,5.812v23.25A17.459,17.459,0,0,1,91.187,69.749ZM15.625,34.875V52.312a5.822,5.822,0,0,0,5.812,5.812H91.187A5.822,5.822,0,0,0,97,52.312V34.875H79.562a5.815,5.815,0,0,1-5.812-5.812,17.437,17.437,0,0,0-34.875,0,5.815,5.815,0,0,1-5.812,5.812Z" transform="translate(42.5)"/>
  <path id="Path_9" data-name="Path 9" d="M125.061,19.625H8.812A5.812,5.812,0,0,1,8.812,8H125.061a5.812,5.812,0,1,1,0,11.625Z" transform="translate(31.875 84.999)"/>
  <path id="Path_10" data-name="Path 10" d="M90.187,22.625H8.812A5.812,5.812,0,0,1,8.812,11H90.187a5.812,5.812,0,0,1,0,11.625Z" transform="translate(31.875 116.874)"/>
  <path id="Path_11" data-name="Path 11" d="M66.937,25.625H8.812A5.812,5.812,0,0,1,8.812,14H66.937a5.812,5.812,0,0,1,0,11.625Z" transform="translate(31.875 148.748)"/>
  <path id="Path_12" data-name="Path 12" d="M64.312,72.749A5.815,5.815,0,0,1,58.5,66.937V32.062A17.459,17.459,0,0,0,41.062,14.625H17.812A5.812,5.812,0,1,1,17.812,3h23.25A29.1,29.1,0,0,1,70.124,32.062V66.937A5.815,5.815,0,0,1,64.312,72.749Z" transform="translate(127.499 31.875)"/>
  <g id="check" transform="translate(127.874 133.686)">
    <g id="Group_19" data-name="Group 19" transform="translate(0.123 0.314)">
      <g id="Group_18" data-name="Group 18">
        <path id="Path_13" data-name="Path 13" d="M53.5,0A53.5,53.5,0,1,0,107,53.5,53.5,53.5,0,0,0,53.5,0Zm0,99.355A45.856,45.856,0,1,1,99.355,53.5,45.856,45.856,0,0,1,53.5,99.355Z"/>
      </g>
    </g>
    <g id="view" transform="translate(17.123 -62.521)">
      <g id="Group_23" data-name="Group 23" transform="translate(0 92.835)">
        <g id="Group_22" data-name="Group 22" transform="translate(0 0)">
          <path id="Path_15" data-name="Path 15" d="M71.712,114.431c-.645-.882-16.007-21.6-35.627-21.6S1.1,113.549.458,114.43a2.382,2.382,0,0,0,0,2.808c.644.882,16.007,21.6,35.627,21.6s34.982-20.714,35.627-21.595A2.379,2.379,0,0,0,71.712,114.431ZM36.085,134.075c-14.452,0-26.97-13.748-30.675-18.243,3.7-4.5,16.192-18.239,30.675-18.239,14.452,0,26.968,13.746,30.675,18.243C63.059,120.334,50.568,134.075,36.085,134.075Z" transform="translate(0 -92.835)"/>
        </g>
      </g>
      <g id="Group_25" data-name="Group 25" transform="translate(21.809 101.559)">
        <g id="Group_24" data-name="Group 24" transform="translate(0 0)">
          <path id="Path_16" data-name="Path 16" d="M169,154.725A14.276,14.276,0,1,0,183.273,169,14.292,14.292,0,0,0,169,154.725Zm0,23.792A9.517,9.517,0,1,1,178.514,169,9.528,9.528,0,0,1,169,178.517Z" transform="translate(-154.722 -154.725)"/>
        </g>
      </g>
    </g>
  </g>
</svg>

